<svg xmlns="http://www.w3.org/2000/svg" viewBox="0 0 30.55 30.55"><defs><style>.cls-1{isolation:isolate;}.cls-2{fill:#fff;}</style></defs><g id="Capa_2" data-name="Capa 2"><g id="Shape_5" data-name="Shape 5" class="cls-1"><path class="cls-2" d="M26.43.64a3.48,3.48,0,0,1,3.48,3.48V26.43a3.48,3.48,0,0,1-3.48,3.48H4.12A3.48,3.48,0,0,1,.64,26.43V4.12A3.48,3.48,0,0,1,4.12.64H26.43m0-.64H4.12A4.11,4.11,0,0,0,0,4.12V26.43a4.11,4.11,0,0,0,4.12,4.12H26.43a4.11,4.11,0,0,0,4.12-4.12V4.12A4.11,4.11,0,0,0,26.43,0Z"/><path class="cls-2" d="M16.28,30.55c0-.06,0-.13,0-.19V18.72H12.46c-.17,0-.17,0-.17-.16V14.25c0-.13,0-.16.16-.16h3.84V14c0-1.19,0-2.38,0-3.57a6.43,6.43,0,0,1,.62-2.76,5,5,0,0,1,2.67-2.53,6.29,6.29,0,0,1,2.53-.48c1,0,2,.06,3,.1.19,0,.37,0,.56,0s.14,0,.14.15c0,.6,0,1.19,0,1.78s0,1.4,0,2.1c0,.13,0,.16-.16.16H23.38a6,6,0,0,0-1,.12,1.44,1.44,0,0,0-1.16,1.22,3.57,3.57,0,0,0-.09.8c0,1,0,1.94,0,2.91v.1h4.37c.18,0,.19,0,.16.18l-.3,2.29-.24,1.91c0,.25,0,.25-.26.25H21.1V30.27c0,.09,0,.19,0,.28Z"/></g></g></svg>