<svg xmlns="http://www.w3.org/2000/svg" viewBox="0 0 29.4 29.4"><defs><style>.cls-1{isolation:isolate;}.cls-2{fill:#fff;}</style></defs><g id="Capa_2" data-name="Capa 2"><g id="Shape_5" data-name="Shape 5" class="cls-1"><path class="cls-2" d="M22.46,5.24A1.76,1.76,0,1,0,24.22,7,1.75,1.75,0,0,0,22.46,5.24Z"/><path class="cls-2" d="M14.82,7.72a7,7,0,1,0,7,7A7,7,0,0,0,14.82,7.72Zm0,11.33a4.35,4.35,0,1,1,4.35-4.35A4.35,4.35,0,0,1,14.82,19.05Z"/><path class="cls-2" d="M22.6,0H6.8A6.81,6.81,0,0,0,0,6.8V22.6a6.81,6.81,0,0,0,6.8,6.8H22.6a6.81,6.81,0,0,0,6.8-6.8V6.8A6.81,6.81,0,0,0,22.6,0ZM6.8,26.57a4,4,0,0,1-4-4V6.8a4,4,0,0,1,4-4H22.6a4,4,0,0,1,4,4V22.6a4,4,0,0,1-4,4Z"/></g></g></svg>