<svg xmlns="http://www.w3.org/2000/svg" viewBox="0 0 29.4 29.4"><defs><style>.cls-1{isolation:isolate;}.cls-2{fill:#fff;}</style></defs><g id="Capa_2" data-name="Capa 2"><g id="Shape_5" data-name="Shape 5" class="cls-1"><path class="cls-2" d="M27.22.62a1.53,1.53,0,0,1,1.56,1.5V27.28a1.53,1.53,0,0,1-1.56,1.5h-25a1.52,1.52,0,0,1-1.55-1.5V2.12A1.52,1.52,0,0,1,2.17.62h25m0-.62h-25A2.14,2.14,0,0,0,0,2.12V27.28A2.14,2.14,0,0,0,2.17,29.4h25a2.15,2.15,0,0,0,2.18-2.12V2.12A2.15,2.15,0,0,0,27.22,0Z"/><path class="cls-2" d="M4.36,11H8.72v14H4.36Zm2.18-7A2.53,2.53,0,1,1,4,6.57,2.53,2.53,0,0,1,6.54,4.05"/><path class="cls-2" d="M11.45,11h4.19v1.92h0a4.61,4.61,0,0,1,4.13-2.27c4.42,0,5.23,2.91,5.23,6.69v7.69H20.69V18.23c0-1.63,0-3.72-2.26-3.72s-2.62,1.77-2.62,3.6v6.94H11.45Z"/></g></g></svg>