<svg width="109" height="88" viewBox="0 0 512 512" fill="none" xmlns="http://www.w3.org/2000/svg">
<path d="M370.834 117.043C370.834 113.246 367.311 110.281 364.533 110.281C363.885 110.281 363.237 110.375 362.776 110.746L339.248 126.027C337.119 127.418 336.377 129.641 336.377 131.215C336.377 132.789 337.119 135.012 339.248 136.402L362.776 151.684C363.237 152.055 363.885 152.148 364.533 152.148C367.311 152.148 370.834 149.184 370.834 145.387C370.834 143.812 370.186 142.422 369.166 141.773L352.862 131.215L369.166 120.656C370.182 120.008 370.834 118.617 370.834 117.043Z" fill="white"/>
<path d="M417.424 85.3672C415.756 85.3672 414.272 86.1055 413.533 87.6836L381.022 154.461C380.744 155.016 380.557 155.664 380.557 156.223C380.557 158.535 382.596 161.129 385.748 161.129C387.506 161.129 389.268 160.203 389.916 158.816L422.518 92.0352C422.795 91.4805 422.889 90.832 422.889 90.2734C422.885 87.3125 420.014 85.3672 417.424 85.3672V85.3672Z" fill="white"/>
<path d="M464.198 126.027L440.674 110.746C440.209 110.375 439.561 110.281 438.912 110.281C436.135 110.281 432.615 113.246 432.615 117.043C432.615 118.617 433.264 120.008 434.283 120.656L450.584 131.215L434.283 141.773C433.264 142.422 432.615 143.812 432.615 145.387C432.615 149.184 436.135 152.148 438.912 152.148C439.561 152.148 440.209 152.055 440.674 151.684L464.198 136.402C466.33 135.012 467.069 132.789 467.069 131.215C467.069 129.641 466.33 127.418 464.198 126.027Z" fill="white"/>
<path d="M475.733 37.2891H314.248C305.905 15.5078 284.776 0 260.092 0H151.78C119.823 0 93.8186 26.0039 93.8186 57.9609V123.777C87.3577 129.344 84.3538 138.051 85.9436 146.816L90.2014 170.246C91.7327 178.293 96.0061 182.43 99.3186 184.48C103.026 186.773 107.139 187.531 110.916 187.551V191.715C110.916 212.84 123.24 236.121 144.729 255.594C148.776 259.258 152.983 262.637 157.272 265.691V278.254C157.272 282.082 154.541 285.367 150.776 286.066C150.6 286.098 150.428 286.137 150.256 286.18C150.127 286.215 137.252 289.57 120.42 294.344H65.4241C59.2405 294.344 53.2757 296.941 49.0608 301.465C44.846 305.988 42.6819 312.125 43.1233 318.293L43.2717 320.41C18.6741 332.746 3.19753 354.863 1.72097 380C1.71706 380.105 1.71315 380.211 1.70925 380.316L0.00221669 483.555C-0.0915334 491.125 2.79128 498.262 8.10769 503.648C13.4319 509.035 20.5296 512 28.1038 512H383.772C391.342 512 398.444 509.035 403.764 503.648C409.084 498.262 411.967 491.129 411.873 483.523L410.166 380.316C410.162 380.211 410.158 380.105 410.151 380C408.635 354.137 392.299 331.473 366.448 319.367C365.975 319.145 365.479 318.918 364.967 318.688L364.994 318.293C365.432 312.125 363.268 305.992 359.057 301.465C354.842 296.941 348.877 294.344 342.694 294.344H291.455C274.627 289.57 261.748 286.215 261.619 286.184C261.448 286.137 261.276 286.098 261.1 286.066C257.334 285.367 254.604 282.082 254.604 278.254V265.695C258.893 262.637 263.1 259.258 267.147 255.594C280.803 243.219 290.76 229.305 296.201 215.383H344.932L336.42 249.738C335.002 255.469 337.276 261.258 342.213 264.488C344.533 266.008 347.135 266.762 349.725 266.762C352.655 266.762 355.569 265.801 358.053 263.891L421.201 215.383H475.733C495.494 215.383 511.569 199.309 511.569 179.547V73.125C511.569 53.3672 495.494 37.2891 475.733 37.2891ZM300.975 136.734C303.842 135.758 306.557 135.355 308.326 135.195C310.682 137.285 311.791 140.727 311.174 144.133L306.94 167.445C306.323 170.699 305.073 171.473 304.662 171.727C303.791 172.266 302.506 172.543 300.967 172.559L300.975 136.734ZM108.819 57.9609C108.819 34.2734 128.092 15 151.78 15H260.096C283.783 15 303.057 34.2734 303.057 57.9609V120.801C299.346 121.457 294.725 122.715 290.213 125.121V79.4219C290.213 62.9883 276.842 49.6172 260.408 49.6172H240.139C233.112 49.6172 226.248 52.0664 220.807 56.5117L218.823 58.1367C215.198 61.1016 210.619 62.7344 205.936 62.7344C201.252 62.7344 196.678 61.1016 193.053 58.1406L191.065 56.5117C185.627 52.0664 178.76 49.6172 171.733 49.6172H151.467C135.033 49.6172 121.662 62.9844 121.662 79.4219V125.117C117.151 122.715 112.53 121.453 108.819 120.801V57.9609ZM107.213 171.727C106.803 171.473 105.553 170.699 104.948 167.508L100.701 144.137C100.084 140.73 101.194 137.293 103.541 135.199C105.311 135.359 108.03 135.754 110.901 136.73L110.908 172.559C109.373 172.543 108.088 172.266 107.213 171.727ZM40.8538 491.566C40.8538 493.449 41.1116 495.27 41.5882 497H28.1038C24.5725 497 21.2639 495.617 18.7796 493.105C16.2991 490.594 14.9592 487.266 14.9983 483.77L16.7053 380.727C17.8147 362.719 27.7952 347.105 44.4475 336.895L53.6038 465.367C53.7717 467.727 54.3108 469.98 55.1546 472.078C46.8733 474.688 40.8538 482.438 40.8538 491.566ZM354.51 465.367L363.815 334.824C382.635 344.922 393.983 361.449 395.17 380.727L396.877 483.738C396.916 487.266 395.573 490.594 393.096 493.105C390.612 495.617 387.303 497 383.772 497H370.287C370.768 495.27 371.022 493.449 371.022 491.566C371.022 481.203 363.268 472.621 353.256 471.312C353.932 469.434 354.366 467.441 354.51 465.367V465.367ZM356.022 491.566C356.022 494.563 353.584 497 350.592 497H61.2835C58.2913 497 55.8538 494.563 55.8538 491.566C55.8538 488.574 58.2913 486.137 61.2835 486.137H350.592C353.584 486.137 356.022 488.574 356.022 491.566ZM348.08 311.688C349.487 313.199 350.182 315.164 350.033 317.227L339.549 464.305C339.276 468.137 336.053 471.137 332.209 471.137H75.9046C72.0647 471.137 68.8421 468.137 68.5647 464.301L58.0842 317.227C57.9358 315.164 58.6311 313.199 60.0374 311.688C61.4475 310.176 63.3577 309.344 65.4241 309.344H342.694C344.756 309.344 346.67 310.176 348.08 311.688V311.688ZM246.194 294.344H165.682C169.783 290.172 172.272 284.461 172.272 278.254V274.898C184.096 281.02 195.846 284.453 205.936 284.453C216.026 284.453 227.776 281.02 239.604 274.898V278.254C239.604 284.461 242.092 290.172 246.194 294.344ZM257.073 244.477C240.326 259.648 220.256 269.453 205.936 269.453C191.619 269.453 171.549 259.648 154.803 244.477C136.444 227.848 125.916 208.613 125.916 191.711L125.901 144.461C125.998 144.461 126.096 144.465 126.194 144.465C127.549 144.465 128.916 144.199 130.225 143.652C134.135 142.02 136.662 138.227 136.662 133.992V79.4219C136.662 71.2578 143.303 64.6172 151.467 64.6172H171.737C175.311 64.6172 178.803 65.8633 181.569 68.125L183.561 69.7539C189.858 74.8984 197.803 77.7344 205.936 77.7344C214.069 77.7344 222.018 74.8984 228.315 69.75L230.303 68.125C233.069 65.8633 236.565 64.6172 240.139 64.6172H260.405C268.569 64.6172 275.213 71.2578 275.213 79.4219V133.992C275.213 138.23 277.737 142.02 281.651 143.652C283.049 144.238 284.522 144.5 285.971 144.461L285.959 191.715C285.963 208.613 275.432 227.848 257.073 244.477ZM496.569 179.547C496.569 191.035 487.225 200.383 475.733 200.383H418.655C417.002 200.383 415.397 200.93 414.088 201.938L351.877 249.723L361.795 209.688C362.35 207.449 361.846 205.078 360.424 203.262C359.002 201.445 356.823 200.383 354.518 200.383H300.295C300.737 197.465 300.963 194.57 300.963 191.715V187.551C304.737 187.531 308.85 186.773 312.557 184.48C315.873 182.43 320.147 178.293 321.686 170.188L325.932 146.816C327.526 138.051 324.514 129.34 318.057 123.777V57.9609C318.057 56.0508 317.963 54.1563 317.78 52.2891H475.733C487.225 52.2891 496.569 61.6367 496.569 73.125V179.547Z" fill="white"/>
<path d="M205.936 424.367C221.483 424.367 234.131 411.719 234.131 396.172C234.131 380.625 221.483 367.977 205.936 367.977C190.389 367.977 177.74 380.625 177.74 396.172C177.74 411.719 190.389 424.367 205.936 424.367ZM205.936 382.977C213.213 382.977 219.131 388.898 219.131 396.172C219.131 403.449 213.213 409.367 205.936 409.367C198.662 409.367 192.74 403.449 192.74 396.172C192.74 388.898 198.662 382.977 205.936 382.977Z" fill="white"/>
</svg>
