<svg width="283" height="81" viewBox="0 0 283 81" fill="none" xmlns="http://www.w3.org/2000/svg">
<path opacity="0.7" d="M282.269 40.6303L269.689 62.4003H67.209V60.9703L69.139 59.8603C69.859 59.4403 70.309 58.6503 70.309 57.8003V22.1903C70.309 21.3403 69.839 20.5603 69.139 20.1303L67.209 19.0203V18.8203H269.689L282.269 40.6203V40.6303Z" fill="url(#paint0_linear_622_436)"/>
<g opacity="0.7">
<path d="M96.6684 28.71V37.18H95.0584L90.8284 32.04V37.18H88.8984V28.71H90.5184L94.7284 33.85V28.71H96.6784H96.6684Z" fill="white"/>
<path d="M105.098 30.6699V37.1799H103.308V36.4099C102.818 36.9799 102.088 37.2799 101.288 37.2799C99.6578 37.2799 98.5078 36.3599 98.5078 34.3499V30.6699H100.398V34.0699C100.398 35.1499 100.878 35.6499 101.718 35.6499C102.558 35.6499 103.218 35.0899 103.218 33.8899V30.6699H105.108H105.098Z" fill="white"/>
<path d="M113.949 33.9202C113.949 35.9702 112.529 37.2802 110.709 37.2802C109.839 37.2802 109.129 37.0002 108.659 36.4302V37.1802H106.859V28.2002H108.749V31.3502C109.229 30.8102 109.899 30.5702 110.709 30.5702C112.529 30.5702 113.949 31.8802 113.949 33.9302V33.9202ZM112.039 33.9202C112.039 32.7902 111.319 32.1202 110.379 32.1202C109.439 32.1202 108.719 32.8002 108.719 33.9202C108.719 35.0402 109.439 35.7202 110.379 35.7202C111.319 35.7202 112.039 35.0402 112.039 33.9202Z" fill="white"/>
<path d="M121.548 34.4603H116.628C116.808 35.2803 117.498 35.7703 118.498 35.7703C119.188 35.7703 119.688 35.5703 120.128 35.1403L121.138 36.2203C120.538 36.9103 119.628 37.2703 118.458 37.2703C116.208 37.2703 114.748 35.8503 114.748 33.9103C114.748 31.9703 116.238 30.5503 118.218 30.5503C120.198 30.5503 121.608 31.8403 121.608 33.9303C121.608 34.0803 121.588 34.2803 121.578 34.4303H121.568L121.548 34.4603ZM116.608 33.3803H119.818C119.688 32.5503 119.068 32.0303 118.218 32.0303C117.368 32.0303 116.738 32.5403 116.608 33.3803Z" fill="white"/>
<path d="M133.739 31.78C133.739 33.67 132.319 34.84 130.059 34.84H128.349V37.18H126.389V28.71H130.059C132.319 28.71 133.739 29.88 133.739 31.79V31.78ZM131.759 31.77C131.759 30.84 131.159 30.29 129.959 30.29H128.359V33.23H129.959C131.159 33.23 131.759 32.68 131.759 31.76V31.77Z" fill="white"/>
<path d="M141.678 30.6703V37.1803H139.888V36.4103C139.398 36.9803 138.668 37.2803 137.868 37.2803C136.238 37.2803 135.088 36.3603 135.088 34.3503V30.6703H136.978V34.0703C136.978 35.1503 137.458 35.6503 138.298 35.6503C139.138 35.6503 139.798 35.0903 139.798 33.8903V30.6703H141.688H141.678ZM138.748 29.8303H137.268L138.898 28.0903H140.938L138.748 29.8303Z" fill="white"/>
<path d="M150.529 33.9202C150.529 35.9702 149.109 37.2802 147.289 37.2802C146.419 37.2802 145.709 37.0002 145.239 36.4302V37.1802H143.439V28.2002H145.329V31.3502C145.809 30.8102 146.479 30.5702 147.289 30.5702C149.109 30.5702 150.529 31.8802 150.529 33.9302V33.9202ZM148.619 33.9202C148.619 32.7902 147.899 32.1202 146.959 32.1202C146.019 32.1202 145.299 32.8002 145.299 33.9202C145.299 35.0402 146.019 35.7202 146.959 35.7202C147.899 35.7202 148.619 35.0402 148.619 33.9202Z" fill="white"/>
<path d="M151.779 28.21H153.669V37.19H151.779V28.21V28.21Z" fill="white"/>
<path d="M155.189 28.7102C155.189 28.1202 155.659 27.6602 156.359 27.6602C157.059 27.6602 157.529 28.1002 157.529 28.6802C157.529 29.3102 157.059 29.7602 156.359 29.7602C155.659 29.7602 155.189 29.3002 155.189 28.7102V28.7102ZM155.419 30.6702H157.309V37.1802H155.419V30.6702Z" fill="white"/>
<path d="M158.578 33.9201C158.578 31.9601 160.088 30.5601 162.208 30.5601C163.568 30.5601 164.658 31.1501 165.128 32.2201L163.658 33.0001C163.308 32.3801 162.788 32.1101 162.188 32.1101C161.238 32.1101 160.478 32.7801 160.478 33.9101C160.478 35.0401 161.228 35.7101 162.188 35.7101C162.778 35.7101 163.308 35.4401 163.658 34.8201L165.128 35.6101C164.658 36.6501 163.588 37.2501 162.208 37.2501C160.098 37.2501 158.578 35.8601 158.578 33.8901V33.9101V33.9201Z" fill="white"/>
<path d="M171.979 33.4601V37.1701H170.209V36.3601C169.859 36.9501 169.179 37.2701 168.229 37.2701C166.709 37.2701 165.799 36.4201 165.799 35.3001C165.799 34.1801 166.609 33.3501 168.599 33.3501H170.099C170.099 32.5401 169.619 32.0601 168.599 32.0601C167.909 32.0601 167.199 32.2901 166.719 32.6601L166.039 31.3401C166.759 30.8401 167.809 30.5601 168.849 30.5601C170.829 30.5601 171.979 31.4801 171.979 33.4601V33.4601ZM170.089 35.1001V34.4301H168.789C167.909 34.4301 167.629 34.7501 167.629 35.1901C167.629 35.6601 168.029 35.9701 168.689 35.9701C169.349 35.9701 169.859 35.6801 170.079 35.0901H170.089V35.1001Z" fill="white"/>
<path d="M182.819 35.3602H178.879L178.129 37.1702H176.119L179.899 28.7002H181.829L185.619 37.1702H183.559L182.809 35.3602H182.819ZM182.199 33.8702L180.859 30.6302L179.519 33.8702H182.199Z" fill="white"/>
<path d="M197.379 33.4501V37.1701H195.489V33.7401C195.489 32.6901 195.019 32.2101 194.259 32.2101C193.409 32.2101 192.819 32.7601 192.819 33.9201V37.1901H190.929V33.7601C190.929 32.7101 190.479 32.2301 189.699 32.2301C188.859 32.2301 188.269 32.7801 188.269 33.9401V37.2101H186.379V30.7001H188.179V31.4501C188.659 30.8901 189.389 30.6001 190.229 30.6001C191.139 30.6001 191.909 30.9501 192.379 31.6601C192.889 31.0001 193.739 30.6001 194.729 30.6001C196.269 30.6001 197.389 31.4901 197.389 33.4901V33.4701L197.379 33.4501Z" fill="white"/>
<path d="M204.828 33.4601V37.1701H203.058V36.3601C202.708 36.9501 202.028 37.2701 201.078 37.2701C199.558 37.2701 198.648 36.4201 198.648 35.3001C198.648 34.1801 199.458 33.3501 201.448 33.3501H202.948C202.948 32.5401 202.468 32.0601 201.448 32.0601C200.758 32.0601 200.048 32.2901 199.568 32.6601L198.888 31.3401C199.608 30.8401 200.658 30.5601 201.698 30.5601C203.678 30.5601 204.828 31.4801 204.828 33.4601V33.4601ZM202.938 35.1001V34.4301H201.638C200.758 34.4301 200.478 34.7501 200.478 35.1901C200.478 35.6601 200.878 35.9701 201.538 35.9701C202.198 35.9701 202.708 35.6801 202.928 35.0901H202.938V35.1001Z" fill="white"/>
<path d="M211.888 35.7302V37.1802H206.088V36.0402L209.398 32.1102H206.168V30.6602H211.778V31.8002L208.468 35.7302H211.888V35.7302Z" fill="white"/>
<path d="M212.529 33.9201C212.529 31.9601 214.039 30.5601 216.109 30.5601C218.179 30.5601 219.679 31.9501 219.679 33.9201C219.679 35.8901 218.179 37.2801 216.109 37.2801C214.039 37.2801 212.529 35.8901 212.529 33.9201ZM217.759 33.9201C217.759 32.7901 217.039 32.1201 216.099 32.1201C215.159 32.1201 214.429 32.8001 214.429 33.9201C214.429 35.0401 215.159 35.7201 216.099 35.7201C217.039 35.7201 217.759 35.0401 217.759 33.9201Z" fill="white"/>
<path d="M227.598 33.4501V37.1701H225.708V33.7401C225.708 32.6901 225.228 32.2101 224.388 32.2101C223.478 32.2101 222.818 32.7701 222.818 33.9701V37.1901H220.928V30.6801H222.728V31.4401C223.238 30.8801 223.998 30.5801 224.888 30.5801C226.418 30.5801 227.588 31.4701 227.588 33.4701H227.598V33.4501Z" fill="white"/>
<path d="M245.659 28.71L242.889 37.18H240.789L238.919 31.44L236.999 37.18H234.909L232.129 28.71H234.169L236.079 34.66L238.079 28.71H239.889L241.819 34.72L243.789 28.71H245.669H245.659Z" fill="white"/>
<path d="M252.478 34.4603H247.558C247.738 35.2803 248.428 35.7703 249.428 35.7703C250.118 35.7703 250.618 35.5703 251.058 35.1403L252.068 36.2203C251.468 36.9103 250.558 37.2703 249.388 37.2703C247.138 37.2703 245.678 35.8503 245.678 33.9103C245.678 31.9703 247.168 30.5503 249.158 30.5503C251.148 30.5503 252.548 31.8403 252.548 33.9303C252.548 34.0803 252.528 34.2803 252.518 34.4303H252.498L252.478 34.4603ZM247.538 33.3803H250.748C250.618 32.5503 249.998 32.0303 249.148 32.0303C248.298 32.0303 247.668 32.5403 247.538 33.3803Z" fill="white"/>
<path d="M260.858 33.9202C260.858 35.9702 259.438 37.2802 257.618 37.2802C256.748 37.2802 256.038 37.0002 255.568 36.4302V37.1802H253.768V28.2002H255.658V31.3502C256.138 30.8102 256.808 30.5702 257.618 30.5702C259.438 30.5702 260.858 31.8802 260.858 33.9302V33.9202ZM258.948 33.9202C258.948 32.7902 258.228 32.1202 257.288 32.1202C256.348 32.1202 255.628 32.8002 255.628 33.9202C255.628 35.0402 256.348 35.7202 257.288 35.7202C258.228 35.7202 258.948 35.0402 258.948 33.9202Z" fill="white"/>
<path d="M88.2285 50.8601L88.8985 49.3801C89.6185 49.8901 90.6785 50.2601 91.6985 50.2601C92.8585 50.2601 93.3285 49.8701 93.3285 49.3501C93.3285 47.7601 88.4085 48.8601 88.4085 45.7001C88.4085 44.2601 89.5685 43.0601 91.9785 43.0601C93.0385 43.0601 94.1385 43.3201 94.9185 43.8101L94.3185 45.3001C93.5385 44.8501 92.7185 44.6401 91.9685 44.6401C90.8085 44.6401 90.3585 45.0801 90.3585 45.6101C90.3585 47.1801 95.2785 46.0901 95.2785 49.2001C95.2785 50.6201 94.1085 51.8301 91.6885 51.8301C90.3485 51.8301 88.9885 51.4301 88.2485 50.8501H88.2385L88.2285 50.8601Z" fill="white"/>
<path d="M102.829 48.9701H97.9093C98.0893 49.7901 98.7793 50.2801 99.7793 50.2801C100.469 50.2801 100.969 50.0801 101.409 49.6501L102.419 50.7301C101.819 51.4201 100.909 51.7801 99.7393 51.7801C97.4893 51.7801 96.0293 50.3601 96.0293 48.4201C96.0293 46.4801 97.5193 45.0601 99.4993 45.0601C101.479 45.0601 102.889 46.3501 102.889 48.4401C102.889 48.5901 102.869 48.7901 102.859 48.9401H102.849L102.829 48.9701ZM97.8893 47.8901H101.099C100.969 47.0601 100.349 46.5401 99.4993 46.5401C98.6493 46.5401 98.0193 47.0501 97.8893 47.8901Z" fill="white"/>
<path d="M108.159 45.0903V46.8303C107.999 46.8203 107.879 46.8103 107.739 46.8103C106.699 46.8103 106.009 47.3803 106.009 48.6203V51.7003H104.119V45.1903H105.919V46.0503C106.379 45.4203 107.149 45.0903 108.159 45.0903H108.169H108.159Z" fill="white"/>
<path d="M115.979 45.1899L113.229 51.6999H111.279L108.549 45.1899H110.499L112.299 49.6199L114.169 45.1899H115.979Z" fill="white"/>
<path d="M116.529 43.2302C116.529 42.6402 116.999 42.1802 117.699 42.1802C118.399 42.1802 118.869 42.6202 118.869 43.2002C118.869 43.8302 118.399 44.2802 117.699 44.2802C116.999 44.2802 116.529 43.8202 116.529 43.2302V43.2302ZM116.759 45.1902H118.649V51.7002H116.759V45.1902Z" fill="white"/>
<path d="M119.918 48.4503C119.918 46.4903 121.428 45.0903 123.548 45.0903C124.908 45.0903 125.998 45.6803 126.468 46.7503L124.998 47.5303C124.648 46.9103 124.128 46.6403 123.528 46.6403C122.578 46.6403 121.818 47.3103 121.818 48.4403C121.818 49.5703 122.568 50.2403 123.528 50.2403C124.118 50.2403 124.648 49.9703 124.998 49.3503L126.468 50.1403C125.998 51.1803 124.928 51.7803 123.548 51.7803C121.438 51.7803 119.918 50.3903 119.918 48.4203V48.4403V48.4503Z" fill="white"/>
<path d="M133.808 48.9701H128.888C129.068 49.7901 129.758 50.2801 130.758 50.2801C131.448 50.2801 131.948 50.0801 132.388 49.6501L133.398 50.7301C132.798 51.4201 131.888 51.7801 130.718 51.7801C128.468 51.7801 127.008 50.3601 127.008 48.4201C127.008 46.4801 128.498 45.0601 130.478 45.0601C132.458 45.0601 133.868 46.3501 133.868 48.4401C133.868 48.5901 133.848 48.7901 133.838 48.9401H133.828L133.808 48.9701ZM128.868 47.8901H132.078C131.948 47.0601 131.328 46.5401 130.478 46.5401C129.628 46.5401 128.998 47.0501 128.868 47.8901Z" fill="white"/>
<path d="M134.469 51.1001L135.099 49.7501C135.679 50.1301 136.569 50.3801 137.359 50.3801C138.229 50.3801 138.559 50.1501 138.559 49.7901C138.559 48.7301 134.619 49.8101 134.619 47.2201C134.619 45.9901 135.739 45.1201 137.629 45.1201C138.519 45.1201 139.519 45.3201 140.139 45.6901L139.509 47.0301C138.869 46.6601 138.219 46.5501 137.629 46.5501C136.779 46.5501 136.419 46.8201 136.419 47.1501C136.419 48.2701 140.359 47.1801 140.359 49.7601C140.359 50.9701 139.229 51.8301 137.279 51.8301C136.179 51.8301 135.069 51.5301 134.459 51.1301H134.469V51.1001Z" fill="white"/>
</g>
<path opacity="0.7" d="M68.4693 22.2202V57.8402C68.4693 58.3102 68.3393 58.7502 68.0893 59.1302C67.8893 59.4402 67.6193 59.7002 67.2793 59.9002L36.4193 77.7202C35.6793 78.1402 34.7893 78.1402 34.0493 77.7202L3.1993 59.9002C2.4693 59.4802 2.0293 58.6902 2.0293 57.8402V22.2202C2.0293 21.3702 2.4893 20.5902 3.1993 20.1602L34.0593 2.35016C34.7993 1.93016 35.6893 1.93016 36.4293 2.35016L64.6493 18.6602L67.2793 20.1702C68.0093 20.5902 68.4493 21.3802 68.4493 22.2302H68.4693V22.2202Z" stroke="url(#paint1_linear_622_436)" stroke-width="4.06" stroke-linecap="round" stroke-linejoin="round"/>
<g opacity="0.7">
<path d="M32.2601 60.82H18.8201V52.86C18.8201 50.94 19.4901 49.08 20.7201 47.6L21.4401 46.74C22.0601 48.04 23.3601 48.86 24.8001 48.86C26.0401 48.86 27.0401 47.85 27.0401 46.62V46.58L27.6001 46.98C29.2901 48.18 30.4501 49.98 30.8701 52C30.9401 52.35 31.2501 52.59 31.6001 52.59C31.6401 52.59 31.7001 52.59 31.7501 52.58C32.1501 52.5 32.4101 52.1 32.3301 51.7C31.8401 49.31 30.4601 47.18 28.4601 45.76L27.0301 44.74V44.28L27.8801 43.97C29.8901 43.24 31.2601 41.36 31.3101 39.22L31.3301 38.58L32.9101 37.33C33.2101 37.08 33.2801 36.65 33.0701 36.32L31.8701 34.54C32.9201 34.06 33.4201 32.84 33.0201 31.76L32.0001 28.95C31.7801 28.35 31.3101 27.88 30.7101 27.64L31.2401 26.85C31.8801 25.87 32.0201 24.64 31.6201 23.53L30.3501 20.02C30.2001 19.63 29.7801 19.44 29.3901 19.57C29.2801 19.61 29.1901 19.67 29.1001 19.76L27.2901 21.67C27.0601 21.92 26.7601 22.11 26.4401 22.23L18.7801 24.88C17.0501 25.48 15.5301 26.56 14.3701 27.99L13.6501 28.88C13.1201 29.54 12.8301 30.37 12.8301 31.21V31.58C12.8301 32.26 13.0101 32.92 13.3701 33.5L14.2901 35.03C13.9001 35.58 13.7801 36.28 13.9401 36.93C14.2401 38.13 15.4601 38.86 16.6601 38.56C16.7401 38.54 16.8301 38.52 16.9101 38.48L17.0301 38.44L21.0601 42.59V44.83L19.5701 46.61C18.1201 48.35 17.3201 50.56 17.3201 52.83V61.53C17.3201 61.94 17.6601 62.28 18.0701 62.28H32.2601C32.6701 62.28 33.0101 61.94 33.0101 61.53C33.0101 61.12 32.6701 60.78 32.2601 60.78L32.2801 60.81L32.2601 60.82ZM24.7901 47.38C23.5501 47.38 22.5501 46.37 22.5501 45.14V44.01C23.2001 44.55 24.0201 44.84 24.8701 44.84C25.0901 44.84 25.3301 44.82 25.5501 44.77V46.63C25.5501 47.04 25.2101 47.38 24.8001 47.38H24.7901V47.38ZM30.1401 37.64C29.9701 37.77 29.8601 37.99 29.8601 38.2L29.8301 39.16H28.5301C28.1201 39.16 27.7801 39.5 27.7801 39.91C27.7801 40.32 28.1201 40.66 28.5301 40.66H29.4701C29.0601 41.55 28.3001 42.25 27.3701 42.58L25.6401 43.21C24.8501 43.5 23.9501 43.32 23.3401 42.73L22.6001 42.04L22.7601 41.59C23.1201 40.56 23.3101 39.48 23.3101 38.38V36.14L25.0001 35.51C25.4201 36.02 26.0501 36.33 26.7201 36.33C26.9801 36.33 27.2301 36.29 27.4801 36.2L30.4401 35.13L31.4501 36.63L30.1401 37.67V37.65V37.64ZM26.2701 30.27C26.2701 30.53 26.3101 30.77 26.3901 31.02L27.4101 33.83C27.5001 34.06 27.6301 34.29 27.7901 34.49L26.9601 34.79C26.5701 34.94 26.1401 34.73 26.0001 34.34L24.9801 31.53C24.8301 31.14 25.0401 30.71 25.4301 30.57L26.2601 30.27H26.2701V30.27ZM31.6301 32.29C31.7801 32.68 31.5701 33.11 31.1801 33.25L29.7701 33.76C29.3801 33.91 28.9501 33.7 28.8101 33.31L27.7901 30.5C27.6401 30.11 27.8501 29.68 28.2401 29.55L29.6501 29.04C30.0401 28.89 30.4701 29.1 30.6101 29.49L31.6301 32.3V32.29ZM14.3501 31.24C14.3501 30.74 14.5301 30.23 14.8401 29.84L15.5601 28.95C16.5301 27.74 17.8201 26.83 19.2801 26.32L26.9501 23.66C27.5001 23.46 27.9901 23.13 28.3801 22.72L29.3601 21.68L30.2201 24.05C30.4501 24.71 30.3801 25.45 29.9901 26.04L28.9101 27.71L24.9301 29.15C24.0401 29.46 23.4401 30.32 23.4601 31.27L15.5301 34.18L14.6701 32.75C14.4601 32.4 14.3501 32 14.3501 31.6V31.23V31.24ZM15.7901 37.1C15.5901 36.99 15.4401 36.79 15.4001 36.56C15.3101 36.19 15.5101 35.81 15.8701 35.68L23.8601 32.75L24.3701 34.16L16.4101 37.15C16.2101 37.23 15.9901 37.22 15.8101 37.12H15.8001L15.7901 37.1ZM21.8201 36.7V38.39C21.8201 39.23 21.7001 40.07 21.4401 40.86L18.5801 37.91L21.8201 36.69V36.7Z" fill="url(#paint2_linear_622_436)"/>
<path d="M49.5795 45.88H44.5995L43.6495 44.45C43.0895 43.61 41.9595 43.39 41.1195 43.95C40.6995 44.23 40.4195 44.68 40.3295 45.17L39.7795 48.44L33.8195 52.61C32.4295 53.56 30.6095 53.58 29.2095 52.67L25.9395 50.49C25.5895 50.27 25.1295 50.36 24.8995 50.69C24.6695 51.02 24.7695 51.5 25.0995 51.73L28.3695 53.91C30.2895 55.16 32.7795 55.13 34.6695 53.83L40.2995 49.89L41.6495 51.7L35.1595 56.56C33.0195 58.16 30.0995 58.25 27.8895 56.76L22.9495 53.46C22.5995 53.24 22.1395 53.33 21.9095 53.66C21.6895 54.01 21.7795 54.47 22.1095 54.7L27.0495 58C29.7995 59.83 33.3995 59.73 36.0395 57.75L43.0095 52.53L45.3895 51.94C45.7395 51.85 46.0795 51.74 46.4095 51.59L50.3795 49.89C51.4395 49.43 51.9295 48.2 51.4895 47.14C51.1495 46.37 50.4095 45.87 49.5695 45.87H49.5795V45.88ZM49.8095 48.54L45.8395 50.24C45.5795 50.35 45.3095 50.44 45.0495 50.51L42.9995 51.02L41.2395 48.68L41.7895 45.41C41.8295 45.22 42.0195 45.11 42.2095 45.16C42.2895 45.18 42.3395 45.22 42.3995 45.28L43.5695 47.04C43.6995 47.25 43.9395 47.38 44.1895 47.38H49.5595C49.8995 47.38 50.1595 47.65 50.1595 47.98C50.1595 48.23 50.0095 48.44 49.7895 48.54H49.7995H49.8095Z" fill="url(#paint3_linear_622_436)"/>
<path d="M35.25 32.4297C35.25 38.1997 39.94 42.8897 45.71 42.8897C51.48 42.8897 56.17 38.1997 56.17 32.4297C56.17 26.6597 51.48 21.9697 45.71 21.9697C39.94 21.9697 35.26 26.6597 35.25 32.4297ZM54.63 31.6797H50.17C50.14 30.6397 50.05 29.5997 49.88 28.5597C50.9 28.1097 51.84 27.5197 52.65 26.7797C53.79 28.1797 54.47 29.8897 54.62 31.6797H54.63ZM52.66 38.0797C51.83 37.3397 50.89 36.7397 49.89 36.2997C50.06 35.2697 50.15 34.2297 50.18 33.1797H54.64C54.49 34.9797 53.8 36.6797 52.67 38.0797H52.66ZM36.78 33.1797H41.24C41.27 34.2197 41.36 35.2597 41.53 36.2997C40.51 36.7497 39.57 37.3397 38.76 38.0797C37.62 36.6797 36.94 34.9697 36.79 33.1797H36.78ZM48.68 33.1797C48.66 34.0497 48.58 34.9197 48.46 35.7997C46.66 35.2997 44.76 35.2997 42.96 35.7997C42.84 34.9397 42.76 34.0597 42.74 33.1797H48.69H48.68ZM42.73 31.6797C42.75 30.8097 42.83 29.9397 42.95 29.0597C44.75 29.5597 46.65 29.5597 48.45 29.0597C48.57 29.9197 48.65 30.7997 48.67 31.6797H42.72H42.73ZM41.84 37.7997C42.09 38.9197 42.5 39.9897 43.06 40.9997C41.85 40.6197 40.74 39.9897 39.79 39.1497C40.41 38.5997 41.09 38.1497 41.84 37.7997V37.7997ZM43.24 37.2597C44.86 36.7897 46.57 36.7897 48.19 37.2597C47.57 39.8897 46.53 41.3997 45.71 41.3997C44.89 41.3997 43.84 39.8897 43.24 37.2597V37.2597ZM49.59 37.7997C50.33 38.1597 51.01 38.6197 51.63 39.1497C50.68 39.9897 49.57 40.6197 48.36 40.9997C48.92 39.9897 49.33 38.9197 49.58 37.7997H49.59V37.7997ZM49.59 27.0597C49.34 25.9397 48.93 24.8697 48.37 23.8597C49.58 24.2397 50.69 24.8697 51.64 25.7097C51.02 26.2597 50.34 26.7097 49.59 27.0597V27.0597ZM48.19 27.5997C46.57 28.0697 44.86 28.0697 43.24 27.5997C43.84 24.9697 44.88 23.4597 45.71 23.4597C46.54 23.4597 47.58 24.9697 48.18 27.5997H48.19V27.5997ZM41.84 27.0597C41.1 26.6997 40.41 26.2397 39.79 25.7097C40.74 24.8697 41.85 24.2397 43.06 23.8597C42.5 24.8697 42.09 25.9397 41.84 27.0597V27.0597ZM41.54 28.5597C41.37 29.5897 41.27 30.6297 41.25 31.6797H36.79C36.94 29.8797 37.63 28.1797 38.76 26.7797C39.59 27.5197 40.53 28.1197 41.53 28.5597H41.54Z" fill="url(#paint4_linear_622_436)"/>
<path d="M54.1391 23.2499C54.4291 23.5399 54.8991 23.5399 55.1891 23.2499L57.4291 21.0099C57.7191 20.7199 57.7191 20.2499 57.4291 19.9599L55.1891 17.7199C54.8991 17.4299 54.4291 17.4299 54.1391 17.7199L51.8991 19.9599C51.6091 20.2499 51.6091 20.7199 51.8991 21.0099L54.1391 23.2499ZM54.6691 19.2999L55.8591 20.4899L54.6691 21.6799L53.4791 20.4899L54.6691 19.2999Z" fill="url(#paint5_linear_622_436)"/>
<path d="M36.2192 47.1498C36.5092 47.4398 36.9792 47.4398 37.2692 47.1498L39.5092 44.9098C39.7992 44.6198 39.7992 44.1498 39.5092 43.8598L37.2692 41.6198C36.9792 41.3298 36.5092 41.3298 36.2192 41.6198L33.9792 43.8598C33.6892 44.1498 33.6892 44.6198 33.9792 44.9098L36.2192 47.1498ZM36.7492 43.1998L37.9392 44.3898L36.7492 45.5798L35.5592 44.3898L36.7492 43.1998Z" fill="url(#paint6_linear_622_436)"/>
<path d="M55.2009 40.1301C54.9109 39.8401 54.4409 39.8401 54.1509 40.1301L51.9109 42.3701C51.6209 42.6601 51.6209 43.1301 51.9109 43.4201L54.1509 45.6601C54.4409 45.9501 54.9109 45.9501 55.2009 45.6601L57.4409 43.4201C57.7309 43.1301 57.7309 42.6601 57.4409 42.3701L55.2009 40.1301ZM54.6709 44.0801L53.4809 42.8901L54.6709 41.7001L55.8609 42.8901L54.6709 44.0801Z" fill="url(#paint7_linear_622_436)"/>
<path d="M36.2192 24.7499C36.5092 25.0399 36.9792 25.0399 37.2692 24.7499L39.5092 22.5099C39.7992 22.2199 39.7992 21.7499 39.5092 21.4599L37.2692 19.2199C36.9792 18.9299 36.5092 18.9299 36.2192 19.2199L33.9792 21.4599C33.6892 21.7499 33.6892 22.2199 33.9792 22.5099L36.2192 24.7499ZM36.7492 20.7999L37.9392 21.9899L36.7492 23.1799L35.5592 21.9899L36.7492 20.7999Z" fill="url(#paint8_linear_622_436)"/>
</g>
<path d="M273.58 55.5901L269.55 62.5501H204.79L200.77 55.5901L204.79 48.6401H269.55L273.58 55.5901Z" fill="white"/>
<path d="M211.619 54.0801C211.619 55.5001 210.569 56.3901 208.899 56.3901H207.649L207.349 57.9301H206.049L207.169 52.3301H209.429C210.829 52.3301 211.619 52.9801 211.619 54.0701V54.0801ZM210.309 54.1901C210.309 53.6501 209.929 53.3901 209.269 53.3901H208.249L207.859 55.3301H208.959C209.819 55.3301 210.309 54.9301 210.309 54.1901Z" fill="black"/>
<path d="M215.288 53.5701L215.068 54.7201C214.958 54.7201 214.888 54.7001 214.778 54.7001C214.038 54.7001 213.568 55.0401 213.408 55.8501L212.988 57.9301H211.738L212.598 53.6301H213.778L213.678 54.1401C214.058 53.7201 214.588 53.5601 215.288 53.5601V53.5701Z" fill="black"/>
<path d="M215.199 56.0703C215.199 54.6403 216.289 53.5703 217.799 53.5703C219.119 53.5703 219.969 54.3303 219.969 55.5003C219.969 56.9303 218.889 58.0003 217.369 58.0003C216.059 58.0003 215.199 57.2303 215.199 56.0703ZM218.699 55.5503C218.699 54.9703 218.349 54.6003 217.719 54.6003C216.979 54.6003 216.459 55.1803 216.459 56.0203C216.459 56.6003 216.819 56.9703 217.439 56.9703C218.169 56.9703 218.699 56.3903 218.699 55.5503ZM218.609 51.7603H219.989L218.419 52.9103H217.409L218.609 51.7603Z" fill="black"/>
<path d="M223.128 55.7804L224.328 57.9304H223.008L222.308 56.6104L221.068 57.9304H219.648L221.798 55.7204L220.658 53.6304H221.948L222.628 54.8904L223.828 53.6304H225.208L223.138 55.7804H223.128Z" fill="black"/>
<path d="M225.829 53.6301H227.069L226.209 57.9301H224.969L225.829 53.6301ZM225.929 52.3801C225.929 51.9601 226.259 51.6401 226.749 51.6401C227.189 51.6401 227.489 51.9101 227.489 52.2601C227.489 52.7201 227.149 53.0301 226.659 53.0301C226.219 53.0301 225.929 52.7401 225.929 52.3801Z" fill="black"/>
<path d="M235.159 55.0203C235.159 55.1903 235.139 55.3603 235.099 55.5503L234.629 57.9303H233.379L233.839 55.6403C233.859 55.5203 233.869 55.4203 233.869 55.3103C233.869 54.8803 233.639 54.6503 233.189 54.6503C232.609 54.6503 232.209 54.9903 232.059 55.7303L231.619 57.9403H230.369L230.829 55.6503C230.849 55.5303 230.859 55.4303 230.859 55.3303C230.859 54.8903 230.629 54.6603 230.179 54.6603C229.599 54.6603 229.199 55.0003 229.039 55.7603L228.609 57.9503H227.359L228.219 53.6503H229.399L229.299 54.1003C229.679 53.7603 230.149 53.5903 230.649 53.5903C231.239 53.5903 231.729 53.8303 231.969 54.2903C232.389 53.8303 232.949 53.5903 233.609 53.5903C234.529 53.5903 235.149 54.0903 235.149 55.0503L235.159 55.0203Z" fill="black"/>
<path d="M241.038 53.6303L240.178 57.9303H238.998L239.078 57.5103C238.738 57.8203 238.288 58.0003 237.758 58.0003C236.758 58.0003 235.908 57.3003 235.908 56.0703C235.908 54.6203 236.958 53.5703 238.278 53.5703C238.898 53.5703 239.398 53.7703 239.678 54.2203L239.788 53.6403H241.038V53.6303ZM239.408 55.5503C239.408 54.9703 239.048 54.6003 238.428 54.6003C237.688 54.6003 237.168 55.1803 237.168 56.0203C237.168 56.6003 237.528 56.9703 238.148 56.9703C238.888 56.9703 239.408 56.3903 239.408 55.5503Z" fill="black"/>
<path d="M249.118 55.0203C249.118 55.1903 249.098 55.3603 249.058 55.5503L248.588 57.9303H247.338L247.798 55.6403C247.818 55.5203 247.828 55.4203 247.828 55.3103C247.828 54.8803 247.598 54.6503 247.148 54.6503C246.568 54.6503 246.168 54.9903 246.018 55.7303L245.578 57.9403H244.328L244.788 55.6503C244.808 55.5303 244.818 55.4303 244.818 55.3303C244.818 54.8903 244.588 54.6603 244.138 54.6603C243.558 54.6603 243.158 55.0003 242.998 55.7603L242.568 57.9503H241.318L242.178 53.6503H243.358L243.258 54.1003C243.638 53.7603 244.108 53.5903 244.608 53.5903C245.198 53.5903 245.688 53.8303 245.928 54.2903C246.348 53.8303 246.908 53.5903 247.568 53.5903C248.488 53.5903 249.108 54.0903 249.108 55.0503L249.118 55.0203Z" fill="black"/>
<path d="M254.369 56.1203H251.079C251.119 56.7003 251.479 57.0003 252.189 57.0003C252.629 57.0003 253.049 56.8603 253.339 56.6003L253.859 57.4203C253.359 57.8203 252.719 58.0003 252.059 58.0003C250.719 58.0003 249.859 57.2403 249.859 56.0703C249.859 54.6303 250.899 53.5703 252.389 53.5703C253.649 53.5703 254.439 54.3103 254.439 55.4603C254.439 55.6903 254.409 55.9203 254.369 56.1203V56.1203ZM251.159 55.3903H253.289C253.289 54.8203 252.909 54.5003 252.329 54.5003C251.749 54.5003 251.319 54.8503 251.149 55.3903H251.159Z" fill="black"/>
<path d="M259.719 55.0303C259.719 55.1903 259.699 55.3703 259.659 55.5503L259.179 57.9303H257.929L258.389 55.6303C258.409 55.5303 258.419 55.4203 258.419 55.3303C258.419 54.8903 258.179 54.6403 257.679 54.6403C257.049 54.6403 256.609 54.9903 256.459 55.7403L256.029 57.9203H254.779L255.639 53.6203H256.819L256.719 54.0803C257.109 53.7203 257.609 53.5503 258.139 53.5503C259.079 53.5503 259.709 54.0603 259.709 55.0103L259.719 55.0303Z" fill="black"/>
<path d="M262.019 56.4102C261.999 56.4702 261.999 56.5302 261.999 56.5902C261.999 56.8502 262.139 57.0102 262.459 57.0102C262.629 57.0102 262.799 56.9502 262.959 56.8602L263.139 57.7502C262.829 57.9402 262.439 58.0102 262.069 58.0102C261.269 58.0102 260.729 57.5602 260.729 56.8102C260.729 56.6902 260.749 56.5602 260.769 56.4302L261.109 54.6902H260.449L260.639 53.7302H261.299L261.509 52.6802H262.759L262.549 53.7302H263.619L263.429 54.6902H262.359L262.019 56.4202V56.4102Z" fill="black"/>
<path d="M268.27 56.1203H264.98C265.02 56.7003 265.38 57.0003 266.09 57.0003C266.53 57.0003 266.95 56.8603 267.24 56.6003L267.76 57.4203C267.26 57.8203 266.62 58.0003 265.96 58.0003C264.62 58.0003 263.76 57.2403 263.76 56.0703C263.76 54.6303 264.8 53.5703 266.29 53.5703C267.54 53.5703 268.34 54.3103 268.34 55.4603C268.34 55.6903 268.31 55.9203 268.27 56.1203V56.1203ZM265.06 55.3903H267.19C267.19 54.8203 266.81 54.5003 266.23 54.5003C265.65 54.5003 265.22 54.8503 265.05 55.3903H265.06Z" fill="black"/>
<defs>
<linearGradient id="paint0_linear_622_436" x1="67.209" y1="40.6103" x2="282.269" y2="40.6103" gradientUnits="userSpaceOnUse">
<stop stop-color="#172765"/>
<stop offset="0.23" stop-color="#193A68"/>
<stop offset="0.69" stop-color="#206E70"/>
<stop offset="1" stop-color="#259377"/>
</linearGradient>
<linearGradient id="paint1_linear_622_436" x1="-0.000703141" y1="40.0302" x2="70.4993" y2="40.0302" gradientUnits="userSpaceOnUse">
<stop stop-color="#172765"/>
<stop offset="0.23" stop-color="#193A68"/>
<stop offset="0.69" stop-color="#206E70"/>
<stop offset="1" stop-color="#259377"/>
</linearGradient>
<linearGradient id="paint2_linear_622_436" x1="12.8401" y1="40.9" x2="33.2001" y2="40.9" gradientUnits="userSpaceOnUse">
<stop stop-color="#172765"/>
<stop offset="0.23" stop-color="#193A68"/>
<stop offset="0.69" stop-color="#206E70"/>
<stop offset="1" stop-color="#259377"/>
</linearGradient>
<linearGradient id="paint3_linear_622_436" x1="21.7895" y1="51.47" x2="51.6595" y2="51.47" gradientUnits="userSpaceOnUse">
<stop stop-color="#172765"/>
<stop offset="0.23" stop-color="#193A68"/>
<stop offset="0.69" stop-color="#206E70"/>
<stop offset="1" stop-color="#259377"/>
</linearGradient>
<linearGradient id="paint4_linear_622_436" x1="35.24" y1="32.4297" x2="56.16" y2="32.4297" gradientUnits="userSpaceOnUse">
<stop stop-color="#172765"/>
<stop offset="0.23" stop-color="#193A68"/>
<stop offset="0.69" stop-color="#206E70"/>
<stop offset="1" stop-color="#259377"/>
</linearGradient>
<linearGradient id="paint5_linear_622_436" x1="51.6791" y1="20.4899" x2="57.6491" y2="20.4899" gradientUnits="userSpaceOnUse">
<stop stop-color="#172765"/>
<stop offset="0.23" stop-color="#193A68"/>
<stop offset="0.69" stop-color="#206E70"/>
<stop offset="1" stop-color="#259377"/>
</linearGradient>
<linearGradient id="paint6_linear_622_436" x1="33.7592" y1="44.3898" x2="39.7292" y2="44.3898" gradientUnits="userSpaceOnUse">
<stop stop-color="#172765"/>
<stop offset="0.23" stop-color="#193A68"/>
<stop offset="0.69" stop-color="#206E70"/>
<stop offset="1" stop-color="#259377"/>
</linearGradient>
<linearGradient id="paint7_linear_622_436" x1="51.6909" y1="42.8901" x2="57.6609" y2="42.8901" gradientUnits="userSpaceOnUse">
<stop stop-color="#172765"/>
<stop offset="0.23" stop-color="#193A68"/>
<stop offset="0.69" stop-color="#206E70"/>
<stop offset="1" stop-color="#259377"/>
</linearGradient>
<linearGradient id="paint8_linear_622_436" x1="33.7592" y1="21.9899" x2="39.7292" y2="21.9899" gradientUnits="userSpaceOnUse">
<stop stop-color="#172765"/>
<stop offset="0.23" stop-color="#193A68"/>
<stop offset="0.69" stop-color="#206E70"/>
<stop offset="1" stop-color="#259377"/>
</linearGradient>
</defs>
</svg>
