<svg width="284" height="82" viewBox="0 0 284 82" fill="none" xmlns="http://www.w3.org/2000/svg">
<path opacity="0.7" d="M283.24 41.5952L270.66 63.3652H68.1797V61.9352L70.1097 60.8252C70.8297 60.4052 71.2797 59.6152 71.2797 58.7652V23.1552C71.2797 22.3052 70.8097 21.5252 70.1097 21.0952L68.1797 19.9852V19.7852H270.66L283.24 41.5852V41.5952Z" fill="url(#paint0_linear_538_494)"/>
<g opacity="0.7">
<path d="M97.6391 29.6748V38.1448H96.0291L91.7991 33.0048V38.1448H89.8691V29.6748H91.4891L95.6991 34.8148V29.6748H97.6491H97.6391Z" fill="white"/>
<path d="M106.069 31.6348V38.1448H104.279V37.3748C103.789 37.9448 103.059 38.2448 102.259 38.2448C100.629 38.2448 99.4785 37.3248 99.4785 35.3148V31.6348H101.369V35.0348C101.369 36.1148 101.849 36.6148 102.689 36.6148C103.529 36.6148 104.189 36.0548 104.189 34.8548V31.6348H106.079H106.069Z" fill="white"/>
<path d="M114.92 34.885C114.92 36.935 113.5 38.245 111.68 38.245C110.81 38.245 110.1 37.965 109.63 37.395V38.145H107.83V29.165H109.72V32.315C110.2 31.775 110.87 31.535 111.68 31.535C113.5 31.535 114.92 32.845 114.92 34.895V34.885ZM113.01 34.885C113.01 33.755 112.29 33.085 111.35 33.085C110.41 33.085 109.69 33.765 109.69 34.885C109.69 36.005 110.41 36.685 111.35 36.685C112.29 36.685 113.01 36.005 113.01 34.885Z" fill="white"/>
<path d="M122.519 35.4251H117.599C117.779 36.2451 118.469 36.7351 119.469 36.7351C120.159 36.7351 120.659 36.5351 121.099 36.1051L122.109 37.1851C121.509 37.8751 120.599 38.2351 119.429 38.2351C117.179 38.2351 115.719 36.8151 115.719 34.8751C115.719 32.9351 117.209 31.5151 119.189 31.5151C121.169 31.5151 122.579 32.8051 122.579 34.8951C122.579 35.0451 122.559 35.2451 122.549 35.3951H122.539L122.519 35.4251ZM117.579 34.3451H120.789C120.659 33.5151 120.039 32.9951 119.189 32.9951C118.339 32.9951 117.709 33.5051 117.579 34.3451Z" fill="white"/>
<path d="M134.709 32.7448C134.709 34.6348 133.289 35.8048 131.029 35.8048H129.319V38.1448H127.359V29.6748H131.029C133.289 29.6748 134.709 30.8448 134.709 32.7548V32.7448ZM132.729 32.7348C132.729 31.8048 132.129 31.2548 130.929 31.2548H129.329V34.1948H130.929C132.129 34.1948 132.729 33.6448 132.729 32.7248V32.7348Z" fill="white"/>
<path d="M142.649 31.6352V38.1452H140.859V37.3752C140.369 37.9452 139.639 38.2452 138.839 38.2452C137.209 38.2452 136.059 37.3252 136.059 35.3152V31.6352H137.949V35.0352C137.949 36.1152 138.429 36.6152 139.269 36.6152C140.109 36.6152 140.769 36.0552 140.769 34.8552V31.6352H142.659H142.649ZM139.719 30.7952H138.239L139.869 29.0552H141.909L139.719 30.7952Z" fill="white"/>
<path d="M151.5 34.885C151.5 36.935 150.08 38.245 148.26 38.245C147.39 38.245 146.68 37.965 146.21 37.395V38.145H144.41V29.165H146.3V32.315C146.78 31.775 147.45 31.535 148.26 31.535C150.08 31.535 151.5 32.845 151.5 34.895V34.885ZM149.59 34.885C149.59 33.755 148.87 33.085 147.93 33.085C146.99 33.085 146.27 33.765 146.27 34.885C146.27 36.005 146.99 36.685 147.93 36.685C148.87 36.685 149.59 36.005 149.59 34.885Z" fill="white"/>
<path d="M152.75 29.1748H154.64V38.1548H152.75V29.1748V29.1748Z" fill="white"/>
<path d="M156.16 29.675C156.16 29.085 156.63 28.625 157.33 28.625C158.03 28.625 158.5 29.065 158.5 29.645C158.5 30.275 158.03 30.725 157.33 30.725C156.63 30.725 156.16 30.265 156.16 29.675V29.675ZM156.39 31.635H158.28V38.145H156.39V31.635Z" fill="white"/>
<path d="M159.549 34.8849C159.549 32.9249 161.059 31.5249 163.179 31.5249C164.539 31.5249 165.629 32.1149 166.099 33.1849L164.629 33.9649C164.279 33.3449 163.759 33.0749 163.159 33.0749C162.209 33.0749 161.449 33.7449 161.449 34.8749C161.449 36.0049 162.199 36.6749 163.159 36.6749C163.749 36.6749 164.279 36.4049 164.629 35.7849L166.099 36.5749C165.629 37.6149 164.559 38.2149 163.179 38.2149C161.069 38.2149 159.549 36.8249 159.549 34.8549V34.8749V34.8849Z" fill="white"/>
<path d="M172.95 34.4249V38.1349H171.18V37.3249C170.83 37.9149 170.15 38.2349 169.2 38.2349C167.68 38.2349 166.77 37.3849 166.77 36.2649C166.77 35.1449 167.58 34.3149 169.57 34.3149H171.07C171.07 33.5049 170.59 33.0249 169.57 33.0249C168.88 33.0249 168.17 33.2549 167.69 33.6249L167.01 32.3049C167.73 31.8049 168.78 31.5249 169.82 31.5249C171.8 31.5249 172.95 32.4449 172.95 34.4249V34.4249ZM171.06 36.0649V35.3949H169.76C168.88 35.3949 168.6 35.7149 168.6 36.1549C168.6 36.6249 169 36.9349 169.66 36.9349C170.32 36.9349 170.83 36.6449 171.05 36.0549H171.06V36.0649Z" fill="white"/>
<path d="M183.79 36.325H179.85L179.1 38.135H177.09L180.87 29.665H182.8L186.59 38.135H184.53L183.78 36.325H183.79ZM183.17 34.835L181.83 31.595L180.49 34.835H183.17Z" fill="white"/>
<path d="M198.35 34.4149V38.1349H196.46V34.7049C196.46 33.6549 195.99 33.1749 195.23 33.1749C194.38 33.1749 193.79 33.7249 193.79 34.8849V38.1549H191.9V34.7249C191.9 33.6749 191.45 33.1949 190.67 33.1949C189.83 33.1949 189.24 33.7449 189.24 34.9049V38.1749H187.35V31.6649H189.15V32.4149C189.63 31.8549 190.36 31.5649 191.2 31.5649C192.11 31.5649 192.88 31.9149 193.35 32.6249C193.86 31.9649 194.71 31.5649 195.7 31.5649C197.24 31.5649 198.36 32.4549 198.36 34.4549V34.4349L198.35 34.4149Z" fill="white"/>
<path d="M205.799 34.4249V38.1349H204.029V37.3249C203.679 37.9149 202.999 38.2349 202.049 38.2349C200.529 38.2349 199.619 37.3849 199.619 36.2649C199.619 35.1449 200.429 34.3149 202.419 34.3149H203.919C203.919 33.5049 203.439 33.0249 202.419 33.0249C201.729 33.0249 201.019 33.2549 200.539 33.6249L199.859 32.3049C200.579 31.8049 201.629 31.5249 202.669 31.5249C204.649 31.5249 205.799 32.4449 205.799 34.4249V34.4249ZM203.909 36.0649V35.3949H202.609C201.729 35.3949 201.449 35.7149 201.449 36.1549C201.449 36.6249 201.849 36.9349 202.509 36.9349C203.169 36.9349 203.679 36.6449 203.899 36.0549H203.909V36.0649Z" fill="white"/>
<path d="M212.859 36.695V38.145H207.059V37.005L210.369 33.075H207.139V31.625H212.749V32.765L209.439 36.695H212.859V36.695Z" fill="white"/>
<path d="M213.5 34.8849C213.5 32.9249 215.01 31.5249 217.08 31.5249C219.15 31.5249 220.65 32.9149 220.65 34.8849C220.65 36.8549 219.15 38.2449 217.08 38.2449C215.01 38.2449 213.5 36.8549 213.5 34.8849ZM218.73 34.8849C218.73 33.7549 218.01 33.0849 217.07 33.0849C216.13 33.0849 215.4 33.7649 215.4 34.8849C215.4 36.0049 216.13 36.6849 217.07 36.6849C218.01 36.6849 218.73 36.0049 218.73 34.8849Z" fill="white"/>
<path d="M228.568 34.4149V38.1349H226.678V34.7049C226.678 33.6549 226.198 33.1749 225.358 33.1749C224.448 33.1749 223.788 33.7349 223.788 34.9349V38.1549H221.898V31.6449H223.698V32.4049C224.208 31.8449 224.968 31.5449 225.858 31.5449C227.388 31.5449 228.558 32.4349 228.558 34.4349H228.568V34.4149Z" fill="white"/>
<path d="M246.63 29.6748L243.86 38.1448H241.76L239.89 32.4048L237.97 38.1448H235.88L233.1 29.6748H235.14L237.05 35.6248L239.05 29.6748H240.86L242.79 35.6848L244.76 29.6748H246.64H246.63Z" fill="white"/>
<path d="M253.448 35.4251H248.528C248.708 36.2451 249.398 36.7351 250.398 36.7351C251.088 36.7351 251.588 36.5351 252.028 36.1051L253.038 37.1851C252.438 37.8751 251.528 38.2351 250.358 38.2351C248.108 38.2351 246.648 36.8151 246.648 34.8751C246.648 32.9351 248.138 31.5151 250.128 31.5151C252.118 31.5151 253.518 32.8051 253.518 34.8951C253.518 35.0451 253.498 35.2451 253.488 35.3951H253.468L253.448 35.4251ZM248.508 34.3451H251.718C251.588 33.5151 250.968 32.9951 250.118 32.9951C249.268 32.9951 248.638 33.5051 248.508 34.3451Z" fill="white"/>
<path d="M261.828 34.885C261.828 36.935 260.408 38.245 258.588 38.245C257.718 38.245 257.008 37.965 256.538 37.395V38.145H254.738V29.165H256.628V32.315C257.108 31.775 257.778 31.535 258.588 31.535C260.408 31.535 261.828 32.845 261.828 34.895V34.885ZM259.918 34.885C259.918 33.755 259.198 33.085 258.258 33.085C257.318 33.085 256.598 33.765 256.598 34.885C256.598 36.005 257.318 36.685 258.258 36.685C259.198 36.685 259.918 36.005 259.918 34.885Z" fill="white"/>
<path d="M89.1992 51.8249L89.8692 50.3449C90.5892 50.8549 91.6492 51.2249 92.6692 51.2249C93.8292 51.2249 94.2992 50.8349 94.2992 50.3149C94.2992 48.7249 89.3792 49.8249 89.3792 46.6649C89.3792 45.2249 90.5392 44.0249 92.9492 44.0249C94.0092 44.0249 95.1092 44.2849 95.8892 44.7749L95.2892 46.2649C94.5092 45.8149 93.6892 45.6049 92.9392 45.6049C91.7792 45.6049 91.3292 46.0449 91.3292 46.5749C91.3292 48.1449 96.2492 47.0549 96.2492 50.1649C96.2492 51.5849 95.0792 52.7949 92.6592 52.7949C91.3192 52.7949 89.9592 52.3949 89.2192 51.8149H89.2092L89.1992 51.8249Z" fill="white"/>
<path d="M103.8 49.9349H98.88C99.06 50.7549 99.75 51.2449 100.75 51.2449C101.44 51.2449 101.94 51.0449 102.38 50.6149L103.39 51.6949C102.79 52.3849 101.88 52.7449 100.71 52.7449C98.46 52.7449 97 51.3249 97 49.3849C97 47.4449 98.49 46.0249 100.47 46.0249C102.45 46.0249 103.86 47.3149 103.86 49.4049C103.86 49.5549 103.84 49.7549 103.83 49.9049H103.82L103.8 49.9349ZM98.86 48.8549H102.07C101.94 48.0249 101.32 47.5049 100.47 47.5049C99.62 47.5049 98.99 48.0149 98.86 48.8549Z" fill="white"/>
<path d="M109.13 46.0552V47.7952C108.97 47.7852 108.85 47.7752 108.71 47.7752C107.67 47.7752 106.98 48.3452 106.98 49.5852V52.6652H105.09V46.1552H106.89V47.0152C107.35 46.3852 108.12 46.0552 109.13 46.0552H109.14H109.13Z" fill="white"/>
<path d="M116.95 46.1548L114.2 52.6648H112.25L109.52 46.1548H111.47L113.27 50.5848L115.14 46.1548H116.95Z" fill="white"/>
<path d="M117.5 44.195C117.5 43.605 117.97 43.145 118.67 43.145C119.37 43.145 119.84 43.585 119.84 44.165C119.84 44.795 119.37 45.245 118.67 45.245C117.97 45.245 117.5 44.785 117.5 44.195V44.195ZM117.73 46.155H119.62V52.665H117.73V46.155Z" fill="white"/>
<path d="M120.889 49.4152C120.889 47.4552 122.399 46.0552 124.519 46.0552C125.879 46.0552 126.969 46.6452 127.439 47.7152L125.969 48.4952C125.619 47.8752 125.099 47.6052 124.499 47.6052C123.549 47.6052 122.789 48.2752 122.789 49.4052C122.789 50.5352 123.539 51.2052 124.499 51.2052C125.089 51.2052 125.619 50.9352 125.969 50.3152L127.439 51.1052C126.969 52.1452 125.899 52.7452 124.519 52.7452C122.409 52.7452 120.889 51.3552 120.889 49.3852V49.4052V49.4152Z" fill="white"/>
<path d="M134.779 49.9349H129.859C130.039 50.7549 130.729 51.2449 131.729 51.2449C132.419 51.2449 132.919 51.0449 133.359 50.6149L134.369 51.6949C133.769 52.3849 132.859 52.7449 131.689 52.7449C129.439 52.7449 127.979 51.3249 127.979 49.3849C127.979 47.4449 129.469 46.0249 131.449 46.0249C133.429 46.0249 134.839 47.3149 134.839 49.4049C134.839 49.5549 134.819 49.7549 134.809 49.9049H134.799L134.779 49.9349ZM129.839 48.8549H133.049C132.919 48.0249 132.299 47.5049 131.449 47.5049C130.599 47.5049 129.969 48.0149 129.839 48.8549Z" fill="white"/>
<path d="M135.44 52.065L136.07 50.715C136.65 51.095 137.54 51.345 138.33 51.345C139.2 51.345 139.53 51.115 139.53 50.755C139.53 49.695 135.59 50.775 135.59 48.185C135.59 46.955 136.71 46.085 138.6 46.085C139.49 46.085 140.49 46.285 141.11 46.655L140.48 47.995C139.84 47.625 139.19 47.515 138.6 47.515C137.75 47.515 137.39 47.785 137.39 48.115C137.39 49.235 141.33 48.145 141.33 50.725C141.33 51.935 140.2 52.795 138.25 52.795C137.15 52.795 136.04 52.495 135.43 52.095H135.44V52.065Z" fill="white"/>
</g>
<path opacity="0.7" d="M69.44 23.185V58.805C69.44 59.275 69.31 59.715 69.06 60.095C68.86 60.405 68.59 60.665 68.25 60.865L37.39 78.685C36.65 79.105 35.76 79.105 35.02 78.685L4.17 60.865C3.44 60.445 3 59.655 3 58.805V23.185C3 22.335 3.46 21.555 4.17 21.125L35.03 3.315C35.77 2.895 36.66 2.895 37.4 3.315L65.62 19.625L68.25 21.135C68.98 21.555 69.42 22.345 69.42 23.195H69.44V23.185Z" stroke="url(#paint1_linear_538_494)" stroke-width="4.06" stroke-linecap="round" stroke-linejoin="round"/>
<g opacity="0.7">
<path d="M33.2308 61.7848H19.7908V53.8248C19.7908 51.9048 20.4608 50.0448 21.6908 48.5648L22.4108 47.7048C23.0308 49.0048 24.3308 49.8248 25.7708 49.8248C27.0108 49.8248 28.0108 48.8148 28.0108 47.5848V47.5448L28.5708 47.9448C30.2608 49.1448 31.4208 50.9448 31.8408 52.9648C31.9108 53.3148 32.2208 53.5548 32.5708 53.5548C32.6108 53.5548 32.6708 53.5548 32.7208 53.5448C33.1208 53.4648 33.3808 53.0648 33.3008 52.6648C32.8108 50.2748 31.4308 48.1448 29.4308 46.7248L28.0008 45.7048V45.2448L28.8508 44.9348C30.8608 44.2048 32.2308 42.3248 32.2808 40.1848L32.3008 39.5448L33.8808 38.2948C34.1808 38.0448 34.2508 37.6148 34.0408 37.2848L32.8408 35.5048C33.8908 35.0248 34.3908 33.8048 33.9908 32.7248L32.9708 29.9148C32.7508 29.3148 32.2808 28.8448 31.6808 28.6048L32.2108 27.8148C32.8508 26.8348 32.9908 25.6048 32.5908 24.4948L31.3208 20.9848C31.1708 20.5948 30.7508 20.4048 30.3608 20.5348C30.2508 20.5748 30.1608 20.6348 30.0708 20.7248L28.2608 22.6348C28.0308 22.8848 27.7308 23.0748 27.4108 23.1948L19.7508 25.8448C18.0208 26.4448 16.5008 27.5248 15.3408 28.9548L14.6208 29.8448C14.0908 30.5048 13.8008 31.3348 13.8008 32.1748V32.5448C13.8008 33.2248 13.9808 33.8848 14.3408 34.4648L15.2608 35.9948C14.8708 36.5448 14.7508 37.2448 14.9108 37.8948C15.2108 39.0948 16.4308 39.8248 17.6308 39.5248C17.7108 39.5048 17.8008 39.4848 17.8808 39.4448L18.0008 39.4048L22.0308 43.5548V45.7948L20.5408 47.5748C19.0908 49.3148 18.2908 51.5248 18.2908 53.7948V62.4948C18.2908 62.9048 18.6308 63.2448 19.0408 63.2448H33.2308C33.6408 63.2448 33.9808 62.9048 33.9808 62.4948C33.9808 62.0848 33.6408 61.7448 33.2308 61.7448L33.2508 61.7748L33.2308 61.7848ZM25.7608 48.3448C24.5208 48.3448 23.5208 47.3348 23.5208 46.1048V44.9748C24.1708 45.5148 24.9908 45.8048 25.8408 45.8048C26.0608 45.8048 26.3008 45.7848 26.5208 45.7348V47.5948C26.5208 48.0048 26.1808 48.3448 25.7708 48.3448H25.7608V48.3448ZM31.1108 38.6048C30.9408 38.7348 30.8308 38.9548 30.8308 39.1648L30.8008 40.1248H29.5008C29.0908 40.1248 28.7508 40.4648 28.7508 40.8748C28.7508 41.2848 29.0908 41.6248 29.5008 41.6248H30.4408C30.0308 42.5148 29.2708 43.2148 28.3408 43.5448L26.6108 44.1748C25.8208 44.4648 24.9208 44.2848 24.3108 43.6948L23.5708 43.0048L23.7308 42.5548C24.0908 41.5248 24.2808 40.4448 24.2808 39.3448V37.1048L25.9708 36.4748C26.3908 36.9848 27.0208 37.2948 27.6908 37.2948C27.9508 37.2948 28.2008 37.2548 28.4508 37.1648L31.4108 36.0948L32.4208 37.5948L31.1108 38.6348V38.6148V38.6048ZM27.2408 31.2348C27.2408 31.4948 27.2808 31.7348 27.3608 31.9848L28.3808 34.7948C28.4708 35.0248 28.6008 35.2548 28.7608 35.4548L27.9308 35.7548C27.5408 35.9048 27.1108 35.6948 26.9708 35.3048L25.9508 32.4948C25.8008 32.1048 26.0108 31.6748 26.4008 31.5348L27.2308 31.2348H27.2408V31.2348ZM32.6008 33.2548C32.7508 33.6448 32.5408 34.0748 32.1508 34.2148L30.7408 34.7248C30.3508 34.8748 29.9208 34.6648 29.7808 34.2748L28.7608 31.4648C28.6108 31.0748 28.8208 30.6448 29.2108 30.5148L30.6208 30.0048C31.0108 29.8548 31.4408 30.0648 31.5808 30.4548L32.6008 33.2648V33.2548ZM15.3208 32.2048C15.3208 31.7048 15.5008 31.1948 15.8108 30.8048L16.5308 29.9148C17.5008 28.7048 18.7908 27.7948 20.2508 27.2848L27.9208 24.6248C28.4708 24.4248 28.9608 24.0948 29.3508 23.6848L30.3308 22.6448L31.1908 25.0148C31.4208 25.6748 31.3508 26.4148 30.9608 27.0048L29.8808 28.6748L25.9008 30.1148C25.0108 30.4248 24.4108 31.2848 24.4308 32.2348L16.5008 35.1448L15.6408 33.7148C15.4308 33.3648 15.3208 32.9648 15.3208 32.5648V32.1948V32.2048ZM16.7608 38.0648C16.5608 37.9548 16.4108 37.7548 16.3708 37.5248C16.2808 37.1548 16.4808 36.7748 16.8408 36.6448L24.8308 33.7148L25.3408 35.1248L17.3808 38.1148C17.1808 38.1948 16.9608 38.1848 16.7808 38.0848H16.7708L16.7608 38.0648ZM22.7908 37.6648V39.3548C22.7908 40.1948 22.6708 41.0348 22.4108 41.8248L19.5508 38.8748L22.7908 37.6548V37.6648Z" fill="url(#paint2_linear_538_494)"/>
<path d="M50.5502 46.8449H45.5702L44.6202 45.4149C44.0602 44.5749 42.9302 44.3549 42.0902 44.9149C41.6702 45.1949 41.3902 45.6448 41.3002 46.1348L40.7502 49.4048L34.7902 53.5749C33.4002 54.5249 31.5802 54.5448 30.1802 53.6348L26.9102 51.4549C26.5602 51.2349 26.1002 51.3248 25.8702 51.6548C25.6402 51.9848 25.7402 52.4648 26.0702 52.6948L29.3402 54.8748C31.2602 56.1248 33.7502 56.0949 35.6402 54.7949L41.2702 50.8548L42.6202 52.6649L36.1302 57.5249C33.9902 59.1249 31.0702 59.2148 28.8602 57.7248L23.9202 54.4248C23.5702 54.2048 23.1102 54.2948 22.8802 54.6248C22.6602 54.9748 22.7502 55.4349 23.0802 55.6649L28.0202 58.9648C30.7702 60.7948 34.3702 60.6948 37.0102 58.7148L43.9802 53.4948L46.3602 52.9048C46.7102 52.8148 47.0502 52.7048 47.3802 52.5548L51.3502 50.8548C52.4102 50.3948 52.9002 49.1648 52.4602 48.1048C52.1202 47.3348 51.3802 46.8348 50.5402 46.8348H50.5502V46.8449ZM50.7802 49.5049L46.8102 51.2049C46.5502 51.3149 46.2802 51.4048 46.0202 51.4748L43.9702 51.9848L42.2102 49.6448L42.7602 46.3748C42.8002 46.1848 42.9902 46.0748 43.1802 46.1248C43.2602 46.1448 43.3102 46.1848 43.3702 46.2448L44.5402 48.0049C44.6702 48.2149 44.9102 48.3449 45.1602 48.3449H50.5302C50.8702 48.3449 51.1302 48.6148 51.1302 48.9448C51.1302 49.1948 50.9802 49.4049 50.7602 49.5049H50.7702H50.7802Z" fill="url(#paint3_linear_538_494)"/>
<path d="M36.2207 33.3946C36.2207 39.1646 40.9107 43.8546 46.6807 43.8546C52.4507 43.8546 57.1407 39.1646 57.1407 33.3946C57.1407 27.6246 52.4507 22.9346 46.6807 22.9346C40.9107 22.9346 36.2307 27.6246 36.2207 33.3946ZM55.6007 32.6446H51.1407C51.1107 31.6046 51.0207 30.5646 50.8507 29.5246C51.8707 29.0746 52.8107 28.4846 53.6207 27.7446C54.7607 29.1446 55.4407 30.8546 55.5907 32.6446H55.6007ZM53.6307 39.0446C52.8007 38.3046 51.8607 37.7046 50.8607 37.2646C51.0307 36.2346 51.1207 35.1946 51.1507 34.1446H55.6107C55.4607 35.9446 54.7707 37.6446 53.6407 39.0446H53.6307ZM37.7507 34.1446H42.2107C42.2407 35.1846 42.3307 36.2246 42.5007 37.2646C41.4807 37.7146 40.5407 38.3046 39.7307 39.0446C38.5907 37.6446 37.9107 35.9346 37.7607 34.1446H37.7507ZM49.6507 34.1446C49.6307 35.0146 49.5507 35.8846 49.4307 36.7646C47.6307 36.2646 45.7307 36.2646 43.9307 36.7646C43.8107 35.9046 43.7307 35.0246 43.7107 34.1446H49.6607H49.6507ZM43.7007 32.6446C43.7207 31.7746 43.8007 30.9046 43.9207 30.0246C45.7207 30.5246 47.6207 30.5246 49.4207 30.0246C49.5407 30.8846 49.6207 31.7646 49.6407 32.6446H43.6907H43.7007ZM42.8107 38.7646C43.0607 39.8846 43.4707 40.9546 44.0307 41.9646C42.8207 41.5846 41.7107 40.9546 40.7607 40.1146C41.3807 39.5646 42.0607 39.1146 42.8107 38.7646V38.7646ZM44.2107 38.2246C45.8307 37.7546 47.5407 37.7546 49.1607 38.2246C48.5407 40.8546 47.5007 42.3646 46.6807 42.3646C45.8607 42.3646 44.8107 40.8546 44.2107 38.2246V38.2246ZM50.5607 38.7646C51.3007 39.1246 51.9807 39.5846 52.6007 40.1146C51.6507 40.9546 50.5407 41.5846 49.3307 41.9646C49.8907 40.9546 50.3007 39.8846 50.5507 38.7646H50.5607V38.7646ZM50.5607 28.0246C50.3107 26.9046 49.9007 25.8346 49.3407 24.8246C50.5507 25.2046 51.6607 25.8346 52.6107 26.6746C51.9907 27.2246 51.3107 27.6746 50.5607 28.0246V28.0246ZM49.1607 28.5646C47.5407 29.0346 45.8307 29.0346 44.2107 28.5646C44.8107 25.9346 45.8507 24.4246 46.6807 24.4246C47.5107 24.4246 48.5507 25.9346 49.1507 28.5646H49.1607V28.5646ZM42.8107 28.0246C42.0707 27.6646 41.3807 27.2046 40.7607 26.6746C41.7107 25.8346 42.8207 25.2046 44.0307 24.8246C43.4707 25.8346 43.0607 26.9046 42.8107 28.0246V28.0246ZM42.5107 29.5246C42.3407 30.5546 42.2407 31.5946 42.2207 32.6446H37.7607C37.9107 30.8446 38.6007 29.1446 39.7307 27.7446C40.5607 28.4846 41.5007 29.0846 42.5007 29.5246H42.5107Z" fill="url(#paint4_linear_538_494)"/>
<path d="M55.1098 24.2148C55.3998 24.5048 55.8698 24.5048 56.1598 24.2148L58.3998 21.9748C58.6898 21.6848 58.6898 21.2148 58.3998 20.9248L56.1598 18.6848C55.8698 18.3948 55.3998 18.3948 55.1098 18.6848L52.8698 20.9248C52.5798 21.2148 52.5798 21.6848 52.8698 21.9748L55.1098 24.2148ZM55.6398 20.2648L56.8298 21.4548L55.6398 22.6448L54.4498 21.4548L55.6398 20.2648Z" fill="url(#paint5_linear_538_494)"/>
<path d="M37.1899 48.1147C37.4799 48.4047 37.9499 48.4047 38.2399 48.1147L40.4799 45.8747C40.7699 45.5847 40.7699 45.1147 40.4799 44.8247L38.2399 42.5847C37.9499 42.2947 37.4799 42.2947 37.1899 42.5847L34.9499 44.8247C34.6599 45.1147 34.6599 45.5847 34.9499 45.8747L37.1899 48.1147ZM37.7199 44.1647L38.9099 45.3547L37.7199 46.5447L36.5299 45.3547L37.7199 44.1647Z" fill="url(#paint6_linear_538_494)"/>
<path d="M56.1716 41.0949C55.8816 40.8049 55.4116 40.8049 55.1216 41.0949L52.8816 43.3349C52.5916 43.6249 52.5916 44.0949 52.8816 44.3849L55.1216 46.6249C55.4116 46.9149 55.8816 46.9149 56.1716 46.6249L58.4116 44.3849C58.7016 44.0949 58.7016 43.6249 58.4116 43.3349L56.1716 41.0949ZM55.6416 45.0449L54.4516 43.8549L55.6416 42.6649L56.8316 43.8549L55.6416 45.0449Z" fill="url(#paint7_linear_538_494)"/>
<path d="M37.1899 25.7148C37.4799 26.0048 37.9499 26.0048 38.2399 25.7148L40.4799 23.4748C40.7699 23.1848 40.7699 22.7148 40.4799 22.4248L38.2399 20.1848C37.9499 19.8948 37.4799 19.8948 37.1899 20.1848L34.9499 22.4248C34.6599 22.7148 34.6599 23.1848 34.9499 23.4748L37.1899 25.7148ZM37.7199 21.7648L38.9099 22.9548L37.7199 24.1448L36.5299 22.9548L37.7199 21.7648Z" fill="url(#paint8_linear_538_494)"/>
</g>
<path d="M274.55 56.555L270.52 63.515H205.76L201.74 56.555L205.76 49.605H270.52L274.55 56.555Z" fill="white"/>
<path d="M212.59 55.0449C212.59 56.4649 211.54 57.3549 209.87 57.3549H208.62L208.32 58.8949H207.02L208.14 53.2949H210.4C211.8 53.2949 212.59 53.9449 212.59 55.0349V55.0449ZM211.28 55.1549C211.28 54.6149 210.9 54.3549 210.24 54.3549H209.22L208.83 56.2949H209.93C210.79 56.2949 211.28 55.8949 211.28 55.1549Z" fill="black"/>
<path d="M216.259 54.5349L216.039 55.6849C215.929 55.6849 215.859 55.6649 215.749 55.6649C215.009 55.6649 214.539 56.0049 214.379 56.8149L213.959 58.8949H212.709L213.569 54.5949H214.749L214.649 55.1049C215.029 54.6849 215.559 54.5249 216.259 54.5249V54.5349Z" fill="black"/>
<path d="M216.17 57.0352C216.17 55.6052 217.26 54.5352 218.77 54.5352C220.09 54.5352 220.94 55.2952 220.94 56.4652C220.94 57.8952 219.86 58.9652 218.34 58.9652C217.03 58.9652 216.17 58.1952 216.17 57.0352ZM219.67 56.5152C219.67 55.9352 219.32 55.5652 218.69 55.5652C217.95 55.5652 217.43 56.1452 217.43 56.9852C217.43 57.5652 217.79 57.9352 218.41 57.9352C219.14 57.9352 219.67 57.3552 219.67 56.5152Z" fill="black"/>
<path d="M224.099 56.7452L225.299 58.8952H223.979L223.279 57.5752L222.039 58.8952H220.619L222.769 56.6852L221.629 54.5952H222.919L223.599 55.8552L224.799 54.5952H226.179L224.109 56.7452H224.099Z" fill="black"/>
<path d="M226.799 54.595H228.039L227.179 58.895H225.939L226.799 54.595ZM226.899 53.345C226.899 52.925 227.229 52.605 227.719 52.605C228.159 52.605 228.459 52.875 228.459 53.225C228.459 53.685 228.119 53.995 227.629 53.995C227.189 53.995 226.899 53.705 226.899 53.345Z" fill="black"/>
<path d="M236.13 55.9852C236.13 56.1552 236.11 56.3252 236.07 56.5152L235.6 58.8952H234.35L234.81 56.6052C234.83 56.4852 234.84 56.3852 234.84 56.2752C234.84 55.8452 234.61 55.6152 234.16 55.6152C233.58 55.6152 233.18 55.9552 233.03 56.6952L232.59 58.9052H231.34L231.8 56.6152C231.82 56.4952 231.83 56.3952 231.83 56.2952C231.83 55.8552 231.6 55.6252 231.15 55.6252C230.57 55.6252 230.17 55.9652 230.01 56.7252L229.58 58.9152H228.33L229.19 54.6152H230.37L230.27 55.0652C230.65 54.7252 231.12 54.5552 231.62 54.5552C232.21 54.5552 232.7 54.7952 232.94 55.2552C233.36 54.7952 233.92 54.5552 234.58 54.5552C235.5 54.5552 236.12 55.0552 236.12 56.0152L236.13 55.9852Z" fill="black"/>
<path d="M242.009 54.5952L241.149 58.8952H239.969L240.049 58.4752C239.709 58.7852 239.259 58.9652 238.729 58.9652C237.729 58.9652 236.879 58.2652 236.879 57.0352C236.879 55.5852 237.929 54.5352 239.249 54.5352C239.869 54.5352 240.369 54.7352 240.649 55.1852L240.759 54.6052H242.009V54.5952ZM240.379 56.5152C240.379 55.9352 240.019 55.5652 239.399 55.5652C238.659 55.5652 238.139 56.1452 238.139 56.9852C238.139 57.5652 238.499 57.9352 239.119 57.9352C239.859 57.9352 240.379 57.3552 240.379 56.5152Z" fill="black"/>
<path d="M250.089 55.9852C250.089 56.1552 250.069 56.3252 250.029 56.5152L249.559 58.8952H248.309L248.769 56.6052C248.789 56.4852 248.799 56.3852 248.799 56.2752C248.799 55.8452 248.569 55.6152 248.119 55.6152C247.539 55.6152 247.139 55.9552 246.989 56.6952L246.549 58.9052H245.299L245.759 56.6152C245.779 56.4952 245.789 56.3952 245.789 56.2952C245.789 55.8552 245.559 55.6252 245.109 55.6252C244.529 55.6252 244.129 55.9652 243.969 56.7252L243.539 58.9152H242.289L243.149 54.6152H244.329L244.229 55.0652C244.609 54.7252 245.079 54.5552 245.579 54.5552C246.169 54.5552 246.659 54.7952 246.899 55.2552C247.319 54.7952 247.879 54.5552 248.539 54.5552C249.459 54.5552 250.079 55.0552 250.079 56.0152L250.089 55.9852Z" fill="black"/>
<path d="M255.34 57.0852H252.05C252.09 57.6652 252.45 57.9652 253.16 57.9652C253.6 57.9652 254.02 57.8252 254.31 57.5652L254.83 58.3852C254.33 58.7852 253.69 58.9652 253.03 58.9652C251.69 58.9652 250.83 58.2052 250.83 57.0352C250.83 55.5952 251.87 54.5352 253.36 54.5352C254.62 54.5352 255.41 55.2752 255.41 56.4252C255.41 56.6552 255.38 56.8852 255.34 57.0852V57.0852ZM252.13 56.3552H254.26C254.26 55.7852 253.88 55.4652 253.3 55.4652C252.72 55.4652 252.29 55.8152 252.12 56.3552H252.13Z" fill="black"/>
<path d="M260.69 55.9951C260.69 56.1551 260.67 56.3351 260.63 56.5151L260.15 58.8951H258.9L259.36 56.5951C259.38 56.4951 259.39 56.3851 259.39 56.2951C259.39 55.8551 259.15 55.6051 258.65 55.6051C258.02 55.6051 257.58 55.9551 257.43 56.7051L257 58.8851H255.75L256.61 54.5851H257.79L257.69 55.0451C258.08 54.6851 258.58 54.5151 259.11 54.5151C260.05 54.5151 260.68 55.0251 260.68 55.9751L260.69 55.9951Z" fill="black"/>
<path d="M262.99 57.375C262.97 57.435 262.97 57.495 262.97 57.555C262.97 57.815 263.11 57.975 263.43 57.975C263.6 57.975 263.77 57.915 263.93 57.825L264.11 58.715C263.8 58.905 263.41 58.975 263.04 58.975C262.24 58.975 261.7 58.525 261.7 57.775C261.7 57.655 261.72 57.525 261.74 57.395L262.08 55.655H261.42L261.61 54.695H262.27L262.48 53.645H263.73L263.52 54.695H264.59L264.4 55.655H263.33L262.99 57.385V57.375Z" fill="black"/>
<path d="M269.24 57.0852H265.95C265.99 57.6652 266.35 57.9652 267.06 57.9652C267.5 57.9652 267.92 57.8252 268.21 57.5652L268.73 58.3852C268.23 58.7852 267.59 58.9652 266.93 58.9652C265.59 58.9652 264.73 58.2052 264.73 57.0352C264.73 55.5952 265.77 54.5352 267.26 54.5352C268.51 54.5352 269.31 55.2752 269.31 56.4252C269.31 56.6552 269.28 56.8852 269.24 57.0852V57.0852ZM266.03 56.3552H268.16C268.16 55.7852 267.78 55.4652 267.2 55.4652C266.62 55.4652 266.19 55.8152 266.02 56.3552H266.03Z" fill="black"/>
<defs>
<linearGradient id="paint0_linear_538_494" x1="68.1797" y1="41.5752" x2="283.24" y2="41.5752" gradientUnits="userSpaceOnUse">
<stop stop-color="#172765"/>
<stop offset="0.23" stop-color="#193A68"/>
<stop offset="0.69" stop-color="#206E70"/>
<stop offset="1" stop-color="#259377"/>
</linearGradient>
<linearGradient id="paint1_linear_538_494" x1="0.97" y1="40.995" x2="71.47" y2="40.995" gradientUnits="userSpaceOnUse">
<stop stop-color="#172765"/>
<stop offset="0.23" stop-color="#193A68"/>
<stop offset="0.69" stop-color="#206E70"/>
<stop offset="1" stop-color="#259377"/>
</linearGradient>
<linearGradient id="paint2_linear_538_494" x1="13.8108" y1="41.8648" x2="34.1708" y2="41.8648" gradientUnits="userSpaceOnUse">
<stop stop-color="#172765"/>
<stop offset="0.23" stop-color="#193A68"/>
<stop offset="0.69" stop-color="#206E70"/>
<stop offset="1" stop-color="#259377"/>
</linearGradient>
<linearGradient id="paint3_linear_538_494" x1="22.7602" y1="52.4349" x2="52.6302" y2="52.4349" gradientUnits="userSpaceOnUse">
<stop stop-color="#172765"/>
<stop offset="0.23" stop-color="#193A68"/>
<stop offset="0.69" stop-color="#206E70"/>
<stop offset="1" stop-color="#259377"/>
</linearGradient>
<linearGradient id="paint4_linear_538_494" x1="36.2107" y1="33.3946" x2="57.1307" y2="33.3946" gradientUnits="userSpaceOnUse">
<stop stop-color="#172765"/>
<stop offset="0.23" stop-color="#193A68"/>
<stop offset="0.69" stop-color="#206E70"/>
<stop offset="1" stop-color="#259377"/>
</linearGradient>
<linearGradient id="paint5_linear_538_494" x1="52.6498" y1="21.4548" x2="58.6198" y2="21.4548" gradientUnits="userSpaceOnUse">
<stop stop-color="#172765"/>
<stop offset="0.23" stop-color="#193A68"/>
<stop offset="0.69" stop-color="#206E70"/>
<stop offset="1" stop-color="#259377"/>
</linearGradient>
<linearGradient id="paint6_linear_538_494" x1="34.7299" y1="45.3547" x2="40.6999" y2="45.3547" gradientUnits="userSpaceOnUse">
<stop stop-color="#172765"/>
<stop offset="0.23" stop-color="#193A68"/>
<stop offset="0.69" stop-color="#206E70"/>
<stop offset="1" stop-color="#259377"/>
</linearGradient>
<linearGradient id="paint7_linear_538_494" x1="52.6616" y1="43.8549" x2="58.6316" y2="43.8549" gradientUnits="userSpaceOnUse">
<stop stop-color="#172765"/>
<stop offset="0.23" stop-color="#193A68"/>
<stop offset="0.69" stop-color="#206E70"/>
<stop offset="1" stop-color="#259377"/>
</linearGradient>
<linearGradient id="paint8_linear_538_494" x1="34.7299" y1="22.9548" x2="40.6999" y2="22.9548" gradientUnits="userSpaceOnUse">
<stop stop-color="#172765"/>
<stop offset="0.23" stop-color="#193A68"/>
<stop offset="0.69" stop-color="#206E70"/>
<stop offset="1" stop-color="#259377"/>
</linearGradient>
</defs>
</svg>
