<svg version="1.2" xmlns="http://www.w3.org/2000/svg" viewBox="0 0 1080 523" width="1080" height="523">
	<title>Background_4-svg</title>
	<defs>
		<radialGradient id="g1" cx="540" cy="261.5" r="432.2" gradientUnits="userSpaceOnUse">
			<stop offset="0" stop-color="#12223a"/>
			<stop offset="1" stop-color="#001f2c"/>
		</radialGradient>
		<radialGradient id="g2" cx="324.7" cy="582.2" r="254.8" gradientUnits="userSpaceOnUse">
			<stop offset="0" stop-color="#000000"/>
			<stop offset=".2" stop-color="#292929"/>
			<stop offset=".6" stop-color="#919191"/>
			<stop offset="1" stop-color="#ffffff"/>
		</radialGradient>
	</defs>
	<style>
		.s0 { fill: url(#g1) } 
		.s1 { fill: #f1c51d } 
		.s2 { fill: #e0b114 } 
		.s3 { opacity: .8;fill: #d1a111 } 
		.s4 { fill: #fed549 } 
		.s5 { opacity: .4;mix-blend-mode: multiply;fill: url(#g2) } 
	</style>
	<g id="Capa_2">
		<g id="Shape_5">
			<path id="Layer" class="s0" d="m0 0h1080v523h-1080z"/>
			<path id="Layer" class="s1" d="m128.3 595.3l-35.5-243.7 198.4 95.5-162.9 148.2z"/>
			<path id="Layer" class="s1" d="m489.5 542.6l-198.3-95.5 162.8-148.1 35.5 243.6z"/>
			<path id="Layer" class="s2" d="m489.5 542.6l-361.2 52.7 161.8-155.4 199.4 102.7z"/>
			<path id="Layer" class="s3" d="m92.8 351.6l361.2-52.6-158.1 180.4-203.1-127.8z"/>
			<path id="Layer" class="s4" d="m92.8 351.6l361.2-52.6-159.7 169.9-201.5-117.3z"/>
			<path id="Layer" class="s5" d="m324.2 607.8c-155 0.4-280.3-24.5-280.4-55.7 0-31.3 125.1-56.8 280.1-57.2 154.9-0.4 280.3 24.6 280.3 55.8 0.1 31.2-125.1 56.8-280 57.1z"/>
		</g>
	</g>
</svg>