<svg width="109" height="88" viewBox="0 0 496 496" fill="none" xmlns="http://www.w3.org/2000/svg">
<path d="M64 448C50.768 448 40 458.768 40 472C40 485.232 50.768 496 64 496C77.232 496 88 485.232 88 472C88 458.768 77.232 448 64 448ZM64 480C59.584 480 56 476.408 56 472C56 467.592 59.584 464 64 464C68.416 464 72 467.592 72 472C72 476.408 68.416 480 64 480Z" fill="white"/>
<path d="M24.408 432.4L35.72 443.712C43.272 436.16 53.32 432 64 432C74.68 432 84.728 436.16 92.28 443.712L103.592 432.4C93.016 421.824 78.96 416 64 416C49.04 416 34.984 421.824 24.408 432.4Z" fill="white"/>
<path d="M1.77588 409.776L13.0879 421.088C41.1679 393.016 86.8399 393.016 114.92 421.088L126.232 409.776C91.9119 375.464 36.0879 375.464 1.77588 409.776V409.776Z" fill="white"/>
<path d="M464 448H448V416H432V448H416V432H400V448H384V400H368V464H464V448Z" fill="white"/>
<path d="M472 192H408C394.768 192 384 202.768 384 216V240H351.592C349.856 217.336 340.864 196.712 326.888 180.424L403.312 104H464C481.648 104 496 89.648 496 72C496 56.928 485.52 44.256 471.48 40.88C468.024 17.776 448.048 0 424 0C399.952 0 379.976 17.776 376.52 40.88C362.48 44.256 352 56.928 352 72C352 88.616 364.768 102.152 380.992 103.696L315.576 169.112C299.288 155.136 278.656 146.144 256 144.408V112H280C293.232 112 304 101.232 304 88V24C304 10.768 293.232 0 280 0H216C202.768 0 192 10.768 192 24V88C192 101.232 202.768 112 216 112H240V144.408C217.336 146.144 196.712 155.136 180.424 169.112L141.912 130.592C153.2 116.792 160 99.184 160 80C160 35.888 124.112 0 80 0C35.888 0 0 35.888 0 80C0 124.112 35.888 160 80 160C99.184 160 116.8 153.2 130.592 141.904L169.104 180.424C155.128 196.712 146.136 217.344 144.4 240H112V216C112 202.768 101.232 192 88 192H24C10.768 192 0 202.768 0 216V280C0 293.232 10.768 304 24 304H88C101.232 304 112 293.232 112 280V256H144.408C146.144 278.664 155.136 299.288 169.112 315.576L114.344 370.344L125.656 381.656L180.424 326.888C196.712 340.864 217.344 349.856 240 351.592V384H216C202.768 384 192 394.768 192 408V472C192 485.232 202.768 496 216 496H280C293.232 496 304 485.232 304 472V408C304 394.768 293.232 384 280 384H256V351.592C278.664 349.856 299.288 340.864 315.576 326.888L356.992 368.304C345.192 369.8 336 379.792 336 392V472C336 485.232 346.768 496 360 496H472C485.232 496 496 485.232 496 472V392C496 378.768 485.232 368 472 368H379.312L326.888 315.576C340.864 299.288 349.856 278.656 351.592 256H384V280C384 293.232 394.768 304 408 304H472C485.232 304 496 293.232 496 280V216C496 202.768 485.232 192 472 192V192ZM288 64H208V48H288V64ZM216 16H280C284.416 16 288 19.592 288 24V32H208V24C208 19.592 211.584 16 216 16ZM208 88V80H288V88C288 92.408 284.416 96 280 96H216C211.584 96 208 92.408 208 88ZM24 208H88C92.416 208 96 211.592 96 216V224H16V216C16 211.592 19.584 208 24 208ZM96 240V256H16V240H96ZM88 288H24C19.584 288 16 284.408 16 280V272H96V280C96 284.408 92.416 288 88 288ZM208 432H288V448H208V432ZM280 480H216C211.584 480 208 476.408 208 472V464H288V472C288 476.408 284.416 480 280 480ZM288 408V416H208V408C208 403.592 211.584 400 216 400H280C284.416 400 288 403.592 288 408ZM248 336C239.4 336 230.24 323.784 223.928 304H272.08C265.76 323.784 256.6 336 248 336ZM219.848 288C217.896 278.328 216.584 267.576 216.168 256H279.832C279.416 267.576 278.096 278.328 276.152 288H219.848ZM160.408 256H200.176C200.544 267.352 201.648 278.104 203.448 288H169.72C164.704 278.232 161.44 267.44 160.408 256V256ZM248 160C256.6 160 265.76 172.216 272.072 192H223.92C230.24 172.216 239.4 160 248 160ZM276.152 208C278.104 217.672 279.416 228.424 279.832 240H216.168C216.584 228.424 217.904 217.672 219.848 208H276.152ZM200.176 240H160.408C161.448 228.56 164.704 217.768 169.72 208H203.448C201.648 217.896 200.536 228.648 200.176 240V240ZM295.824 256H335.592C334.552 267.44 331.296 278.232 326.28 288H292.552C294.352 278.104 295.464 267.352 295.824 256ZM295.824 240C295.456 228.648 294.352 217.896 292.552 208H326.28C331.288 217.768 334.552 228.56 335.592 240H295.824ZM368 72C368 63.176 375.176 56 384 56H392V48C392 30.352 406.352 16 424 16C439.312 16 452.152 26.816 455.272 41.208C441.856 45.016 432 57.376 432 72H448C448 63.176 455.176 56 464 56C472.824 56 480 63.176 480 72C480 80.824 472.824 88 464 88H384C375.176 88 368 80.824 368 72ZM315.832 192H288.848C285.904 181.64 282.152 172.624 277.72 165.272C292.704 170.68 305.856 179.944 315.832 192V192ZM218.288 165.272C213.864 172.624 210.104 181.64 207.16 192H180.176C190.144 179.944 203.296 170.68 218.288 165.272ZM80 16C115.288 16 144 44.712 144 80C144 91.728 140.776 102.696 135.24 112.16C128.088 99.848 117.048 90.312 103.992 84.952C108.912 79.32 111.992 72.048 111.992 64.008C111.992 46.36 97.64 32.008 79.992 32.008C62.344 32.008 48 46.352 48 64C48 72.048 51.088 79.32 56 84.944C42.944 90.312 31.904 99.84 24.752 112.152C19.224 102.696 16 91.728 16 80C16 44.712 44.712 16 80 16ZM64 64C64 55.176 71.176 48 80 48C88.824 48 96 55.176 96 64C96 72.824 88.824 80 80 80C71.176 80 64 72.824 64 64ZM35.664 126.048C42.928 108.2 60.48 96 80 96C99.52 96 117.072 108.2 124.336 126.048C112.824 137.136 97.208 144 80 144C62.792 144 47.176 137.136 35.664 126.048V126.048ZM180.168 304H207.152C210.096 314.36 213.848 323.376 218.28 330.728C203.296 325.32 190.144 316.056 180.168 304V304ZM277.712 330.728C282.136 323.376 285.896 314.36 288.84 304H315.824C305.856 316.056 292.704 325.32 277.712 330.728V330.728ZM480 392V472C480 476.408 476.416 480 472 480H360C355.584 480 352 476.408 352 472V392C352 387.592 355.584 384 360 384H472C476.416 384 480 387.592 480 392ZM408 208H472C476.416 208 480 211.592 480 216V224H400V216C400 211.592 403.584 208 408 208ZM480 240V256H400V240H480ZM472 288H408C403.584 288 400 284.408 400 280V272H480V280C480 284.408 476.416 288 472 288Z" fill="white"/>
</svg>
