<svg width="81" height="81" viewBox="0 0 81 81" fill="none" xmlns="http://www.w3.org/2000/svg">
<path d="M46.8499 76.19L0.469888 75.79V77C0.461017 77.1475 0.50422 77.2933 0.591955 77.4121C0.679689 77.5309 0.806379 77.6151 0.949888 77.65L14.0599 80C14.2162 80.0148 14.3736 80.0148 14.5299 80L46.3499 77.32C46.4963 77.2914 46.6274 77.2109 46.7193 77.0933C46.8111 76.9757 46.8575 76.829 46.8499 76.68V76.19Z" fill="url(#paint0_linear_583_1136)"/>
<path d="M31.9201 74.2501L1.0001 76.4401C0.871883 76.4513 0.742744 76.4355 0.621025 76.3937C0.499306 76.3519 0.387715 76.285 0.293468 76.1973C0.199221 76.1097 0.124413 76.0032 0.073879 75.8848C0.0233454 75.7665 -0.00178872 75.6388 9.89725e-05 75.5101V53.3901C9.89725e-05 53.1249 0.105455 52.8706 0.292991 52.683C0.480528 52.4955 0.734882 52.3901 1.0001 52.3901H31.9201C32.0344 52.3953 32.1465 52.4229 32.2501 52.4714C32.3537 52.52 32.4468 52.5885 32.5238 52.673C32.6009 52.7575 32.6606 52.8564 32.6994 52.964C32.7383 53.0716 32.7555 53.1859 32.7501 53.3001V73.3001C32.7542 73.5332 32.6715 73.7595 32.5181 73.935C32.3648 74.1106 32.1516 74.2229 31.9201 74.2501V74.2501Z" fill="url(#paint1_linear_583_1136)"/>
<path d="M32.4205 74.2501L1.48047 76.4401C1.35259 76.4498 1.22409 76.4329 1.10305 76.3905C0.982006 76.3481 0.87104 76.2811 0.777126 76.1938C0.683212 76.1064 0.608379 76.0006 0.557327 75.883C0.506275 75.7653 0.480109 75.6384 0.480472 75.5101V53.3901C0.480472 53.1249 0.585829 52.8706 0.773365 52.683C0.960901 52.4955 1.21526 52.3901 1.48047 52.3901H32.4205C32.6495 52.4031 32.8642 52.5059 33.0178 52.6764C33.1713 52.8468 33.2514 53.071 33.2405 53.3001V73.3001C33.2448 73.5317 33.1635 73.7567 33.0122 73.932C32.8609 74.1073 32.6502 74.2206 32.4205 74.2501V74.2501Z" fill="url(#paint2_linear_583_1136)"/>
<path d="M31.4504 72.8502L2.64043 74.7402C2.53537 74.75 2.42941 74.7376 2.32947 74.7037C2.22954 74.6699 2.13788 74.6153 2.06049 74.5435C1.9831 74.4718 1.92171 74.3845 1.88034 74.2875C1.83898 74.1904 1.81856 74.0857 1.82043 73.9802V54.6202C1.82043 54.4027 1.90682 54.1941 2.0606 54.0403C2.21438 53.8866 2.42295 53.8002 2.64043 53.8002L31.4504 53.6802C31.5437 53.684 31.6353 53.7062 31.72 53.7455C31.8046 53.7848 31.8807 53.8404 31.9439 53.9092C32.007 53.9779 32.056 54.0584 32.088 54.1461C32.12 54.2338 32.1345 54.3269 32.1304 54.4202V72.0602C32.1345 72.2525 32.0673 72.4396 31.9418 72.5854C31.8162 72.7313 31.6413 72.8255 31.4504 72.8502Z" fill="#A8A8A8"/>
<path d="M17.9998 53.0002C17.9998 53.0967 17.9622 53.1893 17.895 53.2584C17.8277 53.3275 17.7362 53.3676 17.6398 53.3702C17.5662 53.3722 17.4937 53.3522 17.4316 53.3128C17.3694 53.2734 17.3204 53.2163 17.2909 53.1489C17.2613 53.0815 17.2526 53.0068 17.2657 52.9344C17.2788 52.862 17.3133 52.7951 17.3646 52.7423C17.4159 52.6896 17.4818 52.6534 17.5538 52.6382C17.6259 52.6231 17.7008 52.6299 17.7689 52.6575C17.8371 52.6852 17.8955 52.7326 17.9366 52.7937C17.9778 52.8547 17.9997 52.9266 17.9998 53.0002V53.0002Z" fill="white"/>
<path d="M31.6507 74.1604L0.470703 76.4604L14.0607 78.9004C14.217 78.9151 14.3744 78.9151 14.5307 78.9004L46.8507 76.1704L32.1407 74.1704C31.9784 74.147 31.8138 74.1436 31.6507 74.1604Z" fill="url(#paint3_linear_583_1136)"/>
<path style="mix-blend-mode:multiply" opacity="0.3" d="M5.01953 76.5203L30.9695 74.5703L38.9995 75.6703L13.2795 77.7403L5.01953 76.5203Z" fill="url(#paint4_linear_583_1136)"/>
<path d="M32.1405 57.4202L1.81055 57.8003V54.3703C1.81317 54.1863 1.88808 54.0108 2.01907 53.8817C2.15007 53.7526 2.32661 53.6802 2.51054 53.6802H31.4405C31.532 53.6789 31.6228 53.6958 31.7077 53.7299C31.7925 53.764 31.8698 53.8146 31.9349 53.8788C32.0001 53.943 32.0518 54.0195 32.0871 54.1039C32.1224 54.1882 32.1406 54.2788 32.1405 54.3703V57.4202Z" fill="url(#paint5_linear_583_1136)"/>
<path d="M20.8297 66.6004L3.67969 67.3104V59.2104L20.8297 58.9204V66.6004Z" fill="url(#paint6_linear_583_1136)"/>
<path d="M30.5798 66.2002L21.8398 66.5602V58.9103L30.5798 58.7603V66.2002Z" fill="url(#paint7_linear_583_1136)"/>
<path d="M30.5797 71.7204L3.67969 73.3204V68.3604L30.5797 67.1704V71.7204Z" fill="url(#paint8_linear_583_1136)"/>
<path d="M4.00016 55.59C3.99497 55.697 3.94811 55.7977 3.86962 55.8706C3.79113 55.9435 3.68724 55.9827 3.58016 55.98C3.52761 55.9827 3.47506 55.975 3.42549 55.9573C3.37593 55.9397 3.33033 55.9124 3.29132 55.8771C3.2523 55.8418 3.22063 55.7992 3.19813 55.7516C3.17562 55.7041 3.16272 55.6525 3.16016 55.6C3.16535 55.493 3.2122 55.3923 3.29069 55.3194C3.36918 55.2465 3.47308 55.2073 3.58016 55.21C3.6327 55.2073 3.68526 55.215 3.73482 55.2327C3.78439 55.2503 3.82998 55.2776 3.869 55.3129C3.90801 55.3482 3.93968 55.3908 3.96218 55.4384C3.98469 55.4859 3.99759 55.5374 4.00016 55.59V55.59Z" fill="#9D3060"/>
<path d="M5.50992 55.5802C5.50473 55.6872 5.45788 55.7879 5.37939 55.8608C5.3009 55.9337 5.197 55.973 5.08992 55.9702C5.03738 55.9729 4.98482 55.9652 4.93526 55.9476C4.88569 55.9299 4.8401 55.9027 4.80108 55.8674C4.76207 55.8321 4.7304 55.7894 4.7079 55.7419C4.68539 55.6943 4.67248 55.6428 4.66992 55.5902C4.67752 55.4841 4.72511 55.3848 4.80306 55.3125C4.88102 55.2401 4.98354 55.2 5.08992 55.2002C5.14247 55.1975 5.19503 55.2052 5.24459 55.2229C5.29415 55.2405 5.33975 55.2678 5.37877 55.3031C5.41778 55.3384 5.44944 55.381 5.47195 55.4286C5.49446 55.4762 5.50736 55.5277 5.50992 55.5802Z" fill="#9D3060"/>
<path d="M7.00023 55.58C6.99504 55.6843 6.94925 55.7825 6.87263 55.8535C6.79601 55.9245 6.69466 55.9627 6.59023 55.96C6.51663 55.9542 6.44633 55.927 6.38791 55.8819C6.32948 55.8367 6.28548 55.7756 6.26126 55.7058C6.23704 55.6361 6.23367 55.5608 6.25154 55.4892C6.26942 55.4175 6.30777 55.3527 6.36192 55.3025C6.41607 55.2523 6.48366 55.219 6.55644 55.2066C6.62922 55.1942 6.70404 55.2032 6.77175 55.2327C6.83945 55.2621 6.89712 55.3106 6.93769 55.3723C6.97827 55.434 7 55.5062 7.00023 55.58V55.58Z" fill="#9D3060"/>
<g style="mix-blend-mode:soft-light" opacity="0.48">
<path d="M25.0007 68.1901C22.6207 66.9001 20.7407 68.5301 18.9307 66.9301C17.8307 65.9301 18.3707 65.2301 17.0207 63.7701C15.6707 62.3101 14.5507 62.7101 13.0207 61.2601C11.1207 59.4201 12.0707 58.0001 10.4307 56.6801C8.43071 55.0901 6.31071 56.5601 4.43071 55.0301C3.64506 54.3463 3.11597 53.4151 2.93071 52.3901H1.06071C0.905034 52.3927 0.756453 52.4557 0.64636 52.5658C0.536266 52.6759 0.473282 52.8245 0.470708 52.9801V75.9101C0.470384 75.9855 0.485822 76.06 0.516031 76.129C0.54624 76.198 0.59055 76.2599 0.646116 76.3108C0.701681 76.3617 0.767273 76.4003 0.838674 76.4243C0.910075 76.4483 0.985707 76.4571 1.06071 76.4501L32.5907 74.2201C32.6714 74.2178 32.7505 74.1967 32.8217 74.1586C32.8928 74.1204 32.9541 74.0661 33.0007 74.0001C31.3097 74.0216 29.667 73.4362 28.3707 72.3501C26.5707 70.7601 26.8707 69.2201 25.0007 68.1901Z" fill="white"/>
</g>
<path d="M65.7 75.7502C65.3482 75.6304 65.0339 75.4206 64.7883 75.1416C64.5427 74.8627 64.3744 74.5244 64.3 74.1602L63.3 68.9902L54.37 69.3102L53.28 74.6902C53.2462 75.0766 53.3432 75.463 53.5553 75.7877C53.7675 76.1123 54.0826 76.3562 54.45 76.4802L58.18 77.9402C58.876 78.2123 59.6259 78.3184 60.37 78.2502L68.26 77.5802C68.3726 77.57 68.4784 77.5219 68.5601 77.4438C68.6418 77.3657 68.6947 77.2622 68.71 77.1502C68.71 76.9102 68.89 76.6502 68.71 76.5802L65.7 75.7502Z" fill="#97A6B7"/>
<path d="M65.7906 75.4403C65.4385 75.3239 65.1235 75.1165 64.8776 74.839C64.6317 74.5614 64.4637 74.2238 64.3906 73.8603L63.3906 68.7603L54.6806 69.0703L53.5806 74.3903C53.5108 74.7546 53.5731 75.1319 53.7564 75.4545C53.9397 75.777 54.2319 76.0237 54.5806 76.1503L58.3106 77.6003C59.0056 77.8627 59.75 77.9685 60.4906 77.9103L68.3806 77.2402C68.4914 77.2286 68.5948 77.1796 68.674 77.1012C68.7531 77.0229 68.8033 76.9199 68.8161 76.8093C68.8289 76.6987 68.8036 76.587 68.7445 76.4926C68.6853 76.3983 68.5958 76.3269 68.4906 76.2903L65.7906 75.4403Z" fill="url(#paint9_linear_583_1136)"/>
<path d="M80.0493 65.4003V42.2303C80.047 41.9975 79.9555 41.7744 79.7936 41.607C79.6318 41.4396 79.4119 41.3405 79.1793 41.3303L39.3793 39.7303C39.2455 39.7166 39.1104 39.73 38.9819 39.7697C38.8534 39.8094 38.7343 39.8746 38.6316 39.9614C38.5289 40.0483 38.4448 40.1549 38.3842 40.275C38.3237 40.3951 38.288 40.5261 38.2793 40.6603V66.2603L80.0493 65.4003Z" fill="url(#paint10_linear_583_1136)"/>
<path d="M39.5098 44.2202V64.2202C39.5174 64.3437 39.5493 64.4645 39.6038 64.5757C39.6582 64.6868 39.7341 64.7862 39.827 64.8679C39.9199 64.9497 40.028 65.0123 40.1452 65.0522C40.2624 65.092 40.3863 65.1083 40.5098 65.1002L78.2998 64.0002C78.5173 63.995 78.7244 63.9056 78.8774 63.7508C79.0303 63.596 79.1172 63.3878 79.1198 63.1702V45.3602L39.5098 44.2202Z" fill="#A8A8A8"/>
<path d="M79.1198 45.3603V43.3603C79.1173 43.147 79.0329 42.9428 78.8839 42.7902C78.735 42.6375 78.5329 42.548 78.3198 42.5403L40.5098 41.0803C40.3878 41.068 40.2646 41.0804 40.1476 41.1168C40.0306 41.1532 39.9221 41.2129 39.8287 41.2923C39.7353 41.3717 39.6589 41.4691 39.6041 41.5788C39.5493 41.6884 39.5172 41.808 39.5098 41.9303V44.2203L79.1198 45.3603Z" fill="url(#paint11_linear_583_1136)"/>
<path d="M42.2703 42.67C42.2627 42.7558 42.2218 42.8352 42.1564 42.8913C42.091 42.9473 42.0063 42.9756 41.9203 42.97C41.8308 42.9702 41.7447 42.9361 41.6796 42.8747C41.6145 42.8133 41.5754 42.7294 41.5703 42.64C41.578 42.5543 41.6189 42.4749 41.6842 42.4188C41.7496 42.3627 41.8344 42.3345 41.9203 42.34C42.0091 42.3422 42.0939 42.3771 42.1585 42.438C42.2231 42.4989 42.2629 42.5816 42.2703 42.67Z" fill="#9D3060"/>
<path d="M43.7798 42.7202C43.7774 42.7631 43.7662 42.8051 43.7471 42.8437C43.728 42.8823 43.7013 42.9166 43.6686 42.9446C43.636 42.9726 43.598 42.9937 43.5569 43.0067C43.5159 43.0197 43.4727 43.0243 43.4298 43.0201C43.3414 43.0202 43.2564 42.9857 43.1929 42.9241C43.1294 42.8625 43.0924 42.7786 43.0898 42.6902C43.0909 42.648 43.1008 42.6065 43.1189 42.5685C43.137 42.5304 43.163 42.4966 43.1951 42.4692C43.2272 42.4418 43.2646 42.4216 43.3051 42.4097C43.3456 42.3978 43.3881 42.3945 43.4298 42.4002C43.5184 42.3974 43.6045 42.4293 43.6698 42.4891C43.7352 42.5488 43.7747 42.6317 43.7798 42.7202V42.7202Z" fill="#9D3060"/>
<path d="M45.2698 42.7704C45.2688 42.8126 45.2589 42.8541 45.2408 42.8921C45.2227 42.9302 45.1967 42.964 45.1646 42.9914C45.1325 43.0188 45.095 43.039 45.0546 43.0509C45.0141 43.0628 44.9716 43.0661 44.9298 43.0604C44.8865 43.0618 44.8433 43.0546 44.8028 43.0392C44.7622 43.0238 44.7251 43.0006 44.6935 42.9709C44.662 42.9412 44.6365 42.9055 44.6188 42.866C44.601 42.8264 44.5911 42.7838 44.5898 42.7404C44.5909 42.6983 44.6008 42.6568 44.6189 42.6188C44.637 42.5807 44.663 42.5469 44.6951 42.5195C44.7272 42.4921 44.7646 42.4718 44.8051 42.4599C44.8456 42.4481 44.8881 42.4448 44.9298 42.4504C44.9732 42.4491 45.0164 42.4563 45.0569 42.4717C45.0975 42.4871 45.1346 42.5103 45.1662 42.54C45.1977 42.5697 45.2232 42.6053 45.2409 42.6449C45.2587 42.6844 45.2686 42.7271 45.2698 42.7704V42.7704Z" fill="#9D3060"/>
<path d="M38.2793 66.26V71.38C38.288 71.5142 38.3237 71.6452 38.3842 71.7653C38.4448 71.8854 38.5289 71.9921 38.6316 72.0789C38.7343 72.1657 38.8534 72.2309 38.9819 72.2706C39.1104 72.3103 39.2455 72.3237 39.3793 72.31L79.1793 70.62C79.4119 70.6098 79.6318 70.5108 79.7936 70.3433C79.9555 70.1759 80.047 69.9528 80.0493 69.72V65.25L38.2793 66.26Z" fill="url(#paint12_linear_583_1136)"/>
<path d="M64.3602 55.4301L42.4102 55.5501V46.3901L64.3602 46.7901V55.4301Z" fill="url(#paint13_linear_583_1136)"/>
<path d="M76.7506 55.3701L65.6406 55.4301V46.8101L76.7506 47.0101V55.3701Z" fill="url(#paint14_linear_583_1136)"/>
<path d="M76.7502 61.5704L42.4102 62.3504V56.7505L76.7502 56.4604V61.5704Z" fill="url(#paint15_linear_583_1136)"/>
<g style="mix-blend-mode:soft-light" opacity="0.48">
<g style="mix-blend-mode:soft-light">
<path d="M75.7393 62.4101C72.4693 61.3001 69.7393 63.5501 67.4193 61.7801C64.7693 59.7801 66.9093 55.9401 64.4193 53.6801C61.0093 50.5401 54.2093 55.4101 51.2493 52.4501C49.2493 50.4501 51.6193 47.1501 49.8993 43.7201C48.9088 41.9798 47.3205 40.6581 45.4293 40.0001L39.3793 39.7601C39.2455 39.7464 39.1104 39.7598 38.9819 39.7995C38.8534 39.8392 38.7343 39.9044 38.6316 39.9912C38.5289 40.0781 38.4448 40.1847 38.3842 40.3048C38.3237 40.4249 38.288 40.5559 38.2793 40.6901V71.3801C38.288 71.5143 38.3237 71.6454 38.3842 71.7654C38.4448 71.8855 38.5289 71.9922 38.6316 72.079C38.7343 72.1658 38.8534 72.231 38.9819 72.2707C39.1104 72.3104 39.2455 72.3238 39.3793 72.3101L79.1793 70.6201C79.4119 70.6099 79.6318 70.5109 79.7936 70.3435C79.9555 70.176 80.047 69.9529 80.0493 69.7201V66.4201C79.1745 64.5842 77.6334 63.1504 75.7393 62.4101V62.4101Z" fill="white"/>
</g>
</g>
<path d="M46.6507 1.75029C52.7307 2.07029 57.8706 7.51029 58.1306 13.9003C58.1511 14.4943 58.1311 15.089 58.0707 15.6803C59.1685 15.2544 60.3452 15.0702 61.5206 15.1403C66.5206 15.4003 70.7807 19.8903 71.0007 25.1403C71.2007 30.1403 67.7007 34.0703 63.0007 34.2303H62.3007L20.7307 31.9203C19.5358 31.5974 18.4752 30.9014 17.7035 29.9337C16.9319 28.966 16.4894 27.7771 16.4407 26.5403C16.3814 25.8876 16.4627 25.2299 16.6789 24.6112C16.8951 23.9926 17.2412 23.4274 17.6941 22.9537C18.1469 22.48 18.696 22.1088 19.3043 21.865C19.9126 21.6212 20.566 21.5105 21.2207 21.5403C21.7988 21.5738 22.3669 21.7057 22.9007 21.9303C22.6514 21.0129 22.5072 20.0702 22.4707 19.1203C22.2007 12.5103 27.0707 7.42029 33.3607 7.75029C34.5136 7.81369 35.6501 8.05313 36.7307 8.46029C37.4141 6.40531 38.757 4.63354 40.5508 3.42018C42.3446 2.20682 44.4889 1.6198 46.6507 1.75029V1.75029Z" fill="#413974"/>
<path d="M48.3099 0.770211C54.3899 1.09021 59.5299 6.53021 59.7899 12.9202C59.8104 13.5175 59.7903 14.1156 59.7299 14.7102C60.8304 14.281 62.0104 14.0934 63.1899 14.1602C68.1899 14.4202 72.4399 18.9102 72.6599 24.1602C72.8599 29.1602 69.3599 33.0902 64.6599 33.2402C64.4134 33.2552 64.1663 33.2552 63.9199 33.2402L22.3899 30.9402C21.1973 30.6165 20.1388 29.9216 19.3675 28.9561C18.5962 27.9907 18.1522 26.8048 18.0999 25.5702C18.039 24.9172 18.119 24.2587 18.3346 23.6393C18.5502 23.02 18.8963 22.4541 19.3495 21.98C19.8027 21.506 20.3524 21.1348 20.9615 20.8916C21.5706 20.6483 22.2248 20.5387 22.8799 20.5702C23.4574 20.6001 24.0256 20.7287 24.5599 20.9502C24.315 20.0353 24.1708 19.0964 24.1299 18.1502C23.8599 11.5402 28.7399 6.45021 35.0199 6.78021C36.1756 6.84017 37.3154 7.07622 38.3999 7.48021C39.0829 5.42697 40.4243 3.65646 42.216 2.44326C44.0078 1.23007 46.1498 0.641984 48.3099 0.770211V0.770211Z" fill="url(#paint16_linear_583_1136)"/>
<path d="M20.8202 34.6805C21.9614 34.7887 23.0245 35.3077 23.8117 36.1409C24.599 36.9742 25.0568 38.065 25.1002 39.2105C25.1152 39.4335 25.1152 39.6574 25.1002 39.8805C25.5095 39.7165 25.95 39.6448 26.3902 39.6705C27.334 39.7617 28.2127 40.1919 28.8636 40.8814C29.5145 41.5709 29.8935 42.473 29.9302 43.4205C29.9656 43.8421 29.9152 44.2665 29.782 44.6681C29.6488 45.0697 29.4356 45.4402 29.1552 45.757C28.8747 46.0739 28.533 46.3306 28.1506 46.5117C27.7682 46.6927 27.353 46.7944 26.9302 46.8105H26.6502L11.1302 45.9405C10.6866 45.8186 10.2929 45.5595 10.0055 45.2002C9.7181 44.841 9.55173 44.4 9.53018 43.9405C9.50855 43.6976 9.5391 43.4529 9.61979 43.2228C9.70048 42.9928 9.82943 42.7826 9.99801 42.6065C10.1666 42.4303 10.3709 42.2922 10.5972 42.2015C10.8235 42.1108 11.0666 42.0695 11.3102 42.0805C11.5266 42.0913 11.7396 42.1386 11.9402 42.2205C11.8488 41.8943 11.7951 41.5588 11.7802 41.2205C11.7313 40.6663 11.8013 40.108 11.9854 39.583C12.1695 39.0581 12.4635 38.5784 12.8478 38.1761C13.2321 37.7738 13.6978 37.4582 14.2139 37.2503C14.7299 37.0424 15.2843 36.947 15.8402 36.9705C16.2718 36.9937 16.697 37.0848 17.1002 37.2405C17.3477 36.4611 17.8477 35.7864 18.5214 35.3228C19.195 34.8592 20.0038 34.6332 20.8202 34.6805V34.6805Z" fill="#413974"/>
<path d="M21.8495 33.8902C22.9942 33.9964 24.061 34.5159 24.8505 35.3514C25.64 36.1869 26.0983 37.2814 26.1395 38.4302C26.1597 38.6498 26.1597 38.8707 26.1395 39.0902C26.5502 38.9319 26.9902 38.8637 27.4295 38.8902C28.3741 38.975 29.2551 39.4019 29.907 40.0906C30.5589 40.7793 30.9368 41.6825 30.9695 42.6302C31.0035 43.0482 30.953 43.4686 30.8209 43.8666C30.6887 44.2645 30.4777 44.6317 30.2005 44.9463C29.9233 45.2608 29.5855 45.5163 29.2073 45.6974C28.8292 45.8785 28.4184 45.9815 27.9995 46.0002C27.9098 46.0102 27.8192 46.0102 27.7295 46.0002L12.1995 45.1302C11.7551 45.0097 11.3606 44.751 11.073 44.3915C10.7854 44.0319 10.6195 43.5902 10.5995 43.1302C10.5796 42.8864 10.6115 42.6412 10.6933 42.4106C10.7751 42.18 10.9049 41.9694 11.074 41.7927C11.2432 41.616 11.4479 41.4772 11.6747 41.3854C11.9014 41.2936 12.1451 41.2509 12.3895 41.2603C12.6025 41.2793 12.8114 41.3298 13.0095 41.4103C12.9206 41.0666 12.867 40.7148 12.8495 40.3602C12.7987 39.8053 12.8677 39.2458 13.0518 38.7198C13.236 38.1938 13.531 37.7135 13.917 37.3115C14.3029 36.9094 14.7707 36.595 15.2888 36.3895C15.8068 36.1839 16.3629 36.0921 16.9195 36.1202C17.3505 36.1411 17.7756 36.2288 18.1795 36.3802C18.4344 35.6208 18.9315 34.9659 19.5944 34.5161C20.2574 34.0663 21.0496 33.8464 21.8495 33.8902V33.8902Z" fill="#A8A8A8"/>
<path d="M68.2498 24.3302C69.3945 24.4364 70.4613 24.9558 71.2508 25.7913C72.0403 26.6269 72.4986 27.7214 72.5398 28.8702C72.5548 29.0899 72.5548 29.3104 72.5398 29.5302C72.9499 29.3696 73.3904 29.3014 73.8298 29.3302C74.7726 29.4172 75.6512 29.8451 76.301 30.5336C76.9509 31.2221 77.3273 32.124 77.3598 33.0702C77.3967 33.4921 77.3474 33.9171 77.2147 34.3193C77.082 34.7216 76.8689 35.0926 76.5882 35.4097C76.3075 35.7269 75.9652 35.9836 75.5821 36.1642C75.199 36.3448 74.7831 36.4455 74.3598 36.4602H74.0898L58.5698 35.5902C58.1228 35.4729 57.7252 35.2153 57.4354 34.8554C57.1456 34.4954 56.9789 34.0519 56.9598 33.5902C56.9382 33.346 56.969 33.1 57.0502 32.8687C57.1314 32.6375 57.2611 32.4262 57.4306 32.2491C57.6001 32.072 57.8055 31.9332 58.033 31.842C58.2606 31.7508 58.5049 31.7093 58.7498 31.7202C58.9644 31.7283 59.1752 31.7793 59.3698 31.8702C59.2842 31.5428 59.2306 31.2079 59.2098 30.8702C59.1608 30.3151 59.231 29.756 59.4157 29.2303C59.6004 28.7045 59.8953 28.2244 60.2807 27.8219C60.6661 27.4195 61.1331 27.104 61.6504 26.8968C62.1676 26.6895 62.7232 26.5952 63.2798 26.6202C63.7107 26.6483 64.1352 26.7392 64.5398 26.8902C64.7839 26.1107 65.2817 25.4352 65.954 24.9713C66.6263 24.5074 67.4344 24.2817 68.2498 24.3302V24.3302Z" fill="#413974"/>
<path d="M69.2396 23.5204C69.861 23.5817 70.4641 23.7649 71.0146 24.0595C71.565 24.3541 72.052 24.7543 72.4476 25.2372C72.8433 25.7202 73.1399 26.2764 73.3204 26.8741C73.5009 27.4718 73.5618 28.0991 73.4996 28.7204C73.9114 28.5661 74.3505 28.498 74.7896 28.5204C75.7334 28.6072 76.6132 29.0347 77.2647 29.723C77.9162 30.4113 78.2947 31.3133 78.3296 32.2604C78.3651 32.682 78.3147 33.1065 78.1815 33.5081C78.0483 33.9097 77.835 34.2801 77.5546 34.5969C77.2742 34.9138 76.9325 35.1705 76.55 35.3516C76.1676 35.5326 75.7525 35.6343 75.3296 35.6504H75.0496L59.5296 34.7904C59.0868 34.6671 58.6939 34.4076 58.4068 34.0487C58.1196 33.6897 57.9527 33.2495 57.9296 32.7904C57.9063 32.5472 57.9357 32.3018 58.0158 32.071C58.0958 31.8401 58.2247 31.6293 58.3937 31.4527C58.5626 31.2762 58.7676 31.1382 58.9947 31.048C59.2218 30.9579 59.4656 30.9178 59.7096 30.9304C59.926 30.9412 60.139 30.9885 60.3396 31.0704C60.2545 30.72 60.2109 30.3609 60.2096 30.0004C60.1589 29.4463 60.2277 28.8877 60.4113 28.3625C60.5949 27.8372 60.889 27.3574 61.2738 26.9556C61.6586 26.5537 62.1252 26.239 62.642 26.0328C63.1588 25.8267 63.7139 25.7337 64.2696 25.7604C64.7007 25.7802 65.1259 25.8679 65.5296 26.0204C65.7875 25.2539 66.2905 24.5938 66.9611 24.1419C67.6317 23.69 68.4325 23.4716 69.2396 23.5204Z" fill="url(#paint17_linear_583_1136)"/>
<path d="M34.9004 31.3502C34.8457 31.3502 34.7915 31.3393 34.7411 31.3181C34.6907 31.2969 34.6451 31.2657 34.6068 31.2266C34.5686 31.1875 34.5387 31.1411 34.5187 31.0902C34.4986 31.0393 34.489 30.9849 34.4904 30.9302V29.6402C34.489 29.5855 34.4986 29.5311 34.5187 29.4802C34.5387 29.4293 34.5686 29.383 34.6068 29.3438C34.6451 29.3047 34.6907 29.2736 34.7411 29.2523C34.7915 29.2311 34.8457 29.2202 34.9004 29.2202C35.0118 29.2202 35.1186 29.2645 35.1973 29.3432C35.2761 29.422 35.3204 29.5288 35.3204 29.6402V30.9302C35.3204 31.0416 35.2761 31.1484 35.1973 31.2272C35.1186 31.306 35.0118 31.3502 34.9004 31.3502V31.3502Z" fill="#413974"/>
<path d="M34.9004 58.0601C34.8457 58.0601 34.7915 58.0492 34.7411 58.0279C34.6907 58.0067 34.6451 57.9756 34.6068 57.9365C34.5686 57.8973 34.5387 57.8509 34.5187 57.8C34.4986 57.7491 34.489 57.6947 34.4904 57.6401V55.0001C34.4904 54.8913 34.5336 54.787 34.6104 54.7101C34.6873 54.6333 34.7916 54.5901 34.9004 54.5901C34.955 54.5887 35.0094 54.5984 35.0603 54.6184C35.1112 54.6384 35.1576 54.6683 35.1968 54.7066C35.2359 54.7448 35.267 54.7904 35.2882 54.8408C35.3095 54.8912 35.3204 54.9454 35.3204 55.0001V57.6701C35.3128 57.7762 35.2652 57.8755 35.1872 57.9478C35.1093 58.0202 35.0067 58.0603 34.9004 58.0601ZM34.9004 52.7101C34.7916 52.7101 34.6873 52.6669 34.6104 52.59C34.5336 52.5131 34.4904 52.4088 34.4904 52.3001V49.6301C34.489 49.5754 34.4986 49.521 34.5187 49.4701C34.5387 49.4192 34.5686 49.3728 34.6068 49.3337C34.6451 49.2945 34.6907 49.2634 34.7411 49.2422C34.7915 49.221 34.8457 49.21 34.9004 49.2101C35.0118 49.2101 35.1186 49.2543 35.1973 49.3331C35.2761 49.4118 35.3204 49.5187 35.3204 49.6301V52.3001C35.3204 52.3548 35.3095 52.4089 35.2882 52.4593C35.267 52.5097 35.2359 52.5554 35.1968 52.5936C35.1576 52.6318 35.1112 52.6618 35.0603 52.6818C35.0094 52.7018 34.955 52.7114 34.9004 52.7101V52.7101ZM34.9004 47.3701C34.7916 47.3701 34.6873 47.3269 34.6104 47.25C34.5336 47.1731 34.4904 47.0688 34.4904 46.9601V44.2901C34.489 44.2354 34.4986 44.181 34.5187 44.1301C34.5387 44.0792 34.5686 44.0328 34.6068 43.9937C34.6451 43.9545 34.6907 43.9234 34.7411 43.9022C34.7915 43.881 34.8457 43.8701 34.9004 43.8701C35.0118 43.8701 35.1186 43.9143 35.1973 43.9931C35.2761 44.0718 35.3204 44.1787 35.3204 44.2901V47.0001C35.3103 47.1035 35.2613 47.1992 35.1833 47.2679C35.1054 47.3366 35.0042 47.3731 34.9004 47.3701V47.3701ZM34.9004 42.0301C34.7916 42.0301 34.6873 41.9869 34.6104 41.91C34.5336 41.8331 34.4904 41.7288 34.4904 41.6201V38.9401C34.4904 38.8313 34.5336 38.727 34.6104 38.6502C34.6873 38.5733 34.7916 38.5301 34.9004 38.5301C35.01 38.53 35.1154 38.5729 35.1939 38.6495C35.2723 38.7261 35.3177 38.8304 35.3204 38.9401V41.6201C35.3104 41.7244 35.2618 41.8212 35.1841 41.8915C35.1063 41.9618 35.0052 42.0005 34.9004 42.0001V42.0301ZM34.9004 36.6901C34.8457 36.6901 34.7915 36.6792 34.7411 36.6579C34.6907 36.6367 34.6451 36.6056 34.6068 36.5665C34.5686 36.5273 34.5387 36.4809 34.5187 36.43C34.4986 36.3791 34.489 36.3247 34.4904 36.2701V33.6001C34.4904 33.4913 34.5336 33.387 34.6104 33.3102C34.6873 33.2333 34.7916 33.1901 34.9004 33.1901C34.955 33.1887 35.0094 33.1984 35.0603 33.2184C35.1112 33.2384 35.1576 33.2684 35.1968 33.3066C35.2359 33.3448 35.267 33.3904 35.2882 33.4408C35.3095 33.4912 35.3204 33.5454 35.3204 33.6001V36.2701C35.3204 36.3815 35.2761 36.4883 35.1973 36.5671C35.1186 36.6458 35.0118 36.6901 34.9004 36.6901Z" fill="#413974"/>
<path d="M35.32 62H32.75C32.6953 62 32.6411 61.9891 32.5907 61.9679C32.5403 61.9466 32.4947 61.9155 32.4565 61.8764C32.4183 61.8373 32.3883 61.7909 32.3683 61.74C32.3483 61.6891 32.3386 61.6347 32.34 61.58C32.3426 61.4704 32.388 61.3661 32.4665 61.2895C32.5449 61.2129 32.6503 61.17 32.76 61.17H34.49V60.29C34.49 60.1813 34.5332 60.077 34.6101 60.0001C34.6869 59.9232 34.7912 59.88 34.9 59.88C34.9546 59.8787 35.009 59.8883 35.0599 59.9083C35.1108 59.9283 35.1572 59.9583 35.1964 59.9965C35.2355 60.0347 35.2666 60.0804 35.2878 60.1308C35.3091 60.1812 35.32 60.2353 35.32 60.29V62Z" fill="#413974"/>
<path d="M53.9004 32.5903C53.8457 32.5904 53.7915 32.5794 53.7411 32.5582C53.6907 32.537 53.6451 32.5059 53.6068 32.4667C53.5686 32.4276 53.5387 32.3812 53.5187 32.3303C53.4986 32.2794 53.489 32.225 53.4904 32.1703V30.8803C53.4904 30.7716 53.5336 30.6673 53.6104 30.5904C53.6873 30.5135 53.7916 30.4703 53.9004 30.4703C53.955 30.469 54.0094 30.4786 54.0603 30.4986C54.1112 30.5186 54.1576 30.5486 54.1968 30.5868C54.2359 30.625 54.267 30.6707 54.2882 30.7211C54.3095 30.7715 54.3204 30.8256 54.3204 30.8803V32.1703C54.3204 32.2817 54.2761 32.3886 54.1973 32.4673C54.1186 32.5461 54.0118 32.5903 53.9004 32.5903Z" fill="#413974"/>
<path d="M53.9004 37.4702C53.8457 37.4702 53.7915 37.4593 53.7411 37.4381C53.6907 37.4168 53.6451 37.3857 53.6068 37.3466C53.5686 37.3075 53.5387 37.2611 53.5187 37.2102C53.4986 37.1593 53.489 37.1049 53.4904 37.0502V34.6102C53.4904 34.5015 53.5336 34.3972 53.6104 34.3203C53.6873 34.2434 53.7916 34.2002 53.9004 34.2002C54.01 34.2002 54.1154 34.243 54.1939 34.3197C54.2723 34.3963 54.3177 34.5005 54.3204 34.6102V37.0502C54.3204 37.1616 54.2761 37.2684 54.1973 37.3472C54.1186 37.4259 54.0118 37.4702 53.9004 37.4702Z" fill="#413974"/>
<path d="M53.9002 41.2001C53.7915 41.2001 53.6872 41.1569 53.6103 41.08C53.5334 41.0031 53.4902 40.8988 53.4902 40.7901V39.4901C53.4902 39.3813 53.5334 39.2771 53.6103 39.2002C53.6872 39.1233 53.7915 39.0801 53.9002 39.0801C54.0099 39.08 54.1153 39.1229 54.1937 39.1995C54.2722 39.2761 54.3176 39.3804 54.3202 39.4901V40.7901C54.3203 40.8448 54.3093 40.8989 54.2881 40.9493C54.2669 40.9997 54.2358 41.0454 54.1966 41.0836C54.1575 41.1218 54.1111 41.1518 54.0602 41.1718C54.0093 41.1918 53.9549 41.2014 53.9002 41.2001Z" fill="#413974"/>
<path d="M65.6406 34.2501C65.5859 34.2501 65.5318 34.2392 65.4813 34.218C65.4309 34.1968 65.3853 34.1657 65.3471 34.1265C65.3089 34.0874 65.2789 34.041 65.2589 33.9901C65.2389 33.9392 65.2293 33.8848 65.2306 33.8301V32.5401C65.2293 32.4854 65.2389 32.431 65.2589 32.3801C65.2789 32.3292 65.3089 32.2829 65.3471 32.2437C65.3853 32.2046 65.4309 32.1735 65.4813 32.1523C65.5318 32.131 65.5859 32.1201 65.6406 32.1201C65.752 32.1201 65.8588 32.1644 65.9376 32.2431C66.0163 32.3219 66.0606 32.4287 66.0606 32.5401V33.8301C66.0606 33.9415 66.0163 34.0483 65.9376 34.1271C65.8588 34.2059 65.752 34.2501 65.6406 34.2501V34.2501Z" fill="#413974"/>
<path d="M65.6406 38.23C65.5859 38.23 65.5318 38.2191 65.4813 38.1979C65.4309 38.1767 65.3853 38.1456 65.3471 38.1064C65.3089 38.0673 65.2789 38.0209 65.2589 37.97C65.2389 37.9191 65.2293 37.8647 65.2306 37.81V35.81C65.2306 35.7013 65.2738 35.597 65.3507 35.5201C65.4276 35.4432 65.5318 35.4 65.6406 35.4C65.6953 35.3987 65.7497 35.4083 65.8006 35.4283C65.8515 35.4483 65.8979 35.4783 65.937 35.5165C65.9761 35.5547 66.0072 35.6004 66.0284 35.6508C66.0497 35.7012 66.0606 35.7553 66.0606 35.81V37.81C66.0606 37.9214 66.0163 38.0282 65.9376 38.107C65.8588 38.1858 65.752 38.23 65.6406 38.23Z" fill="#413974"/>
<path d="M65.6406 41.5101C65.5318 41.5101 65.4276 41.4669 65.3507 41.3901C65.2738 41.3132 65.2306 41.2089 65.2306 41.1001V39.8101C65.2293 39.7555 65.2389 39.7011 65.2589 39.6502C65.2789 39.5993 65.3089 39.5529 65.3471 39.5137C65.3853 39.4746 65.4309 39.4435 65.4813 39.4223C65.5318 39.401 65.5859 39.3901 65.6406 39.3901C65.6957 39.3901 65.7504 39.401 65.8013 39.4221C65.8523 39.4432 65.8986 39.4742 65.9376 39.5132C65.9766 39.5522 66.0075 39.5985 66.0286 39.6494C66.0497 39.7004 66.0606 39.755 66.0606 39.8101V41.1001C66.0606 41.1548 66.0497 41.209 66.0284 41.2594C66.0072 41.3098 65.9761 41.3554 65.937 41.3936C65.8979 41.4319 65.8515 41.4618 65.8006 41.4818C65.7497 41.5018 65.6953 41.5115 65.6406 41.5101V41.5101Z" fill="#413974"/>
<path d="M21.8399 45.0003C21.7285 45.0003 21.6217 44.956 21.5429 44.8772C21.4642 44.7985 21.4199 44.6917 21.4199 44.5803V43.3003C21.4199 43.2456 21.4308 43.1914 21.4521 43.141C21.4733 43.0906 21.5044 43.045 21.5435 43.0068C21.5827 42.9685 21.629 42.9386 21.68 42.9185C21.7309 42.8985 21.7852 42.8889 21.8399 42.8903C21.9487 42.8903 22.0529 42.9335 22.1298 43.0103C22.2067 43.0872 22.2499 43.1915 22.2499 43.3003V44.5903C22.2499 44.699 22.2067 44.8033 22.1298 44.8802C22.0529 44.9571 21.9487 45.0003 21.8399 45.0003V45.0003Z" fill="#413974"/>
<path d="M21.8399 49.0004C21.7852 49.0017 21.7309 48.9921 21.68 48.9721C21.629 48.9521 21.5827 48.9221 21.5435 48.8839C21.5044 48.8457 21.4733 48.8001 21.4521 48.7497C21.4308 48.6992 21.4199 48.6451 21.4199 48.5904V46.5904C21.4199 46.479 21.4642 46.3722 21.5429 46.2934C21.6217 46.2147 21.7285 46.1704 21.8399 46.1704C21.8946 46.1704 21.9488 46.1813 21.9992 46.2026C22.0496 46.2238 22.0952 46.2549 22.1334 46.294C22.1716 46.3332 22.2016 46.3795 22.2216 46.4304C22.2416 46.4813 22.2513 46.5357 22.2499 46.5904V48.5904C22.2499 48.6991 22.2067 48.8034 22.1298 48.8803C22.0529 48.9572 21.9487 49.0004 21.8399 49.0004V49.0004Z" fill="#413974"/>
<path d="M21.8399 52.2804C21.7285 52.2804 21.6217 52.2361 21.5429 52.1574C21.4642 52.0786 21.4199 51.9718 21.4199 51.8604V50.5704C21.4199 50.459 21.4642 50.3522 21.5429 50.2734C21.6217 50.1946 21.7285 50.1504 21.8399 50.1504C21.8946 50.1504 21.9488 50.1613 21.9992 50.1825C22.0496 50.2038 22.0952 50.2348 22.1334 50.274C22.1716 50.3131 22.2016 50.3595 22.2216 50.4104C22.2416 50.4613 22.2513 50.5157 22.2499 50.5704V51.8604C22.2513 51.9151 22.2416 51.9695 22.2216 52.0204C22.2016 52.0713 22.1716 52.1177 22.1334 52.1568C22.0952 52.1959 22.0496 52.227 21.9992 52.2483C21.9488 52.2695 21.8946 52.2804 21.8399 52.2804V52.2804Z" fill="#413974"/>
<g opacity="0.5">
<path d="M51.001 7.88011L43.541 7.27011C43.3723 7.26305 43.204 7.29106 43.0467 7.35238C42.8895 7.41371 42.7466 7.507 42.6272 7.62637C42.5079 7.74574 42.4146 7.88858 42.3533 8.04587C42.2919 8.20315 42.2639 8.37145 42.271 8.54011V10.8601C42.2551 11.2103 42.3702 11.554 42.5939 11.8239C42.8176 12.0938 43.1339 12.2707 43.481 12.3201L50.941 12.9101C51.108 12.9144 51.2741 12.8843 51.429 12.8217C51.5839 12.7591 51.7243 12.6654 51.8415 12.5463C51.9587 12.4272 52.0502 12.2854 52.1103 12.1295C52.1704 11.9736 52.1979 11.807 52.191 11.6401L52.241 9.34011C52.261 8.98416 52.1434 8.63415 51.9126 8.36242C51.6818 8.09069 51.3555 7.91802 51.001 7.88011V7.88011Z" fill="white"/>
<path d="M49.6893 16.3002L44.4493 15.9002C44.3619 15.8974 44.2748 15.9126 44.1935 15.9448C44.1121 15.977 44.0383 16.0255 43.9764 16.0874C43.9146 16.1492 43.866 16.2231 43.8339 16.3044C43.8017 16.3857 43.7865 16.4728 43.7893 16.5602L43.7393 19.1802C43.7298 19.3613 43.788 19.5394 43.9026 19.6799C44.0172 19.8203 44.18 19.9132 44.3593 19.9402L49.5993 20.3202C49.6863 20.3231 49.7729 20.3079 49.8537 20.2756C49.9346 20.2433 50.0078 20.1946 50.0689 20.1326C50.1299 20.0706 50.1775 19.9966 50.2086 19.9153C50.2396 19.834 50.2535 19.7472 50.2493 19.6602L50.3093 17.0502C50.3185 16.8703 50.2599 16.6935 50.1452 16.5546C50.0304 16.4158 49.8677 16.325 49.6893 16.3002Z" fill="white"/>
<path d="M57.1705 16.8703L52.0005 16.4703C51.9139 16.4689 51.828 16.4851 51.7478 16.5179C51.6676 16.5507 51.595 16.5994 51.5342 16.6611C51.4734 16.7228 51.4258 16.7962 51.3943 16.8769C51.3627 16.9575 51.3478 17.0437 51.3505 17.1303L51.2905 19.7403C51.2789 19.9208 51.3366 20.0988 51.4518 20.2382C51.567 20.3776 51.7311 20.4677 51.9105 20.4903L57.1005 20.8803C57.1871 20.8833 57.2733 20.8681 57.3537 20.8357C57.434 20.8033 57.5066 20.7545 57.5669 20.6923C57.6272 20.6301 57.6738 20.556 57.7037 20.4747C57.7336 20.3934 57.7462 20.3067 57.7405 20.2203L57.8005 17.6203C57.8095 17.4389 57.7495 17.2608 57.6327 17.1217C57.5159 16.9826 57.3508 16.8928 57.1705 16.8703V16.8703Z" fill="white"/>
<path d="M34.7601 15.2099L29.5301 14.8099C29.4427 14.8071 29.3557 14.8223 29.2743 14.8545C29.193 14.8867 29.1191 14.9352 29.0573 14.997C28.9954 15.0589 28.9469 15.1327 28.9147 15.2141C28.8825 15.2954 28.8674 15.3825 28.8701 15.4699V18.0899C28.8607 18.2709 28.9189 18.449 29.0335 18.5895C29.1481 18.73 29.3109 18.8228 29.4901 18.8499L34.7301 19.2399C34.8167 19.2413 34.9027 19.2251 34.9829 19.1923C35.063 19.1595 35.1357 19.1108 35.1964 19.0491C35.2572 18.9874 35.3048 18.914 35.3364 18.8333C35.368 18.7527 35.3829 18.6665 35.3801 18.5799L35.3901 15.9999C35.4073 15.8124 35.3513 15.6255 35.2339 15.4783C35.1165 15.3311 34.9468 15.2349 34.7601 15.2099Z" fill="white"/>
<path d="M42.2406 15.78L37.0606 15.38C36.974 15.3786 36.888 15.3948 36.8079 15.4276C36.7277 15.4604 36.6551 15.5091 36.5943 15.5708C36.5335 15.6325 36.4859 15.7059 36.4543 15.7865C36.4228 15.8672 36.4079 15.9534 36.4106 16.04L36.3506 18.65C36.3411 18.831 36.3994 19.0091 36.514 19.1496C36.6286 19.2901 36.7913 19.3829 36.9706 19.41L42.1606 19.79C42.2472 19.7929 42.3334 19.7777 42.4137 19.7454C42.4941 19.713 42.5667 19.6641 42.627 19.6019C42.6873 19.5398 42.7339 19.4656 42.7638 19.3843C42.7937 19.303 42.8063 19.2164 42.8006 19.13L42.8606 16.53C42.8698 16.3501 42.8113 16.1732 42.6965 16.0344C42.5817 15.8955 42.419 15.8047 42.2406 15.78Z" fill="white"/>
<path d="M64.5793 17.4401L59.4393 17.0001C59.3527 16.9987 59.2667 17.0149 59.1866 17.0477C59.1064 17.0805 59.0338 17.1292 58.973 17.1909C58.9122 17.2526 58.8646 17.326 58.833 17.4067C58.8015 17.4873 58.7866 17.5735 58.7893 17.6601L58.7393 20.2601C58.7298 20.4385 58.787 20.6141 58.8997 20.7527C59.0124 20.8913 59.1727 20.983 59.3493 21.0101L64.4893 21.3901C64.5755 21.3915 64.661 21.3753 64.7406 21.3424C64.8203 21.3095 64.8923 21.2606 64.9523 21.1987C65.0123 21.1369 65.0589 21.0634 65.0894 20.9828C65.1198 20.9022 65.1334 20.8162 65.1293 20.7301L65.1893 18.1401C65.1886 17.9696 65.1266 17.8051 65.0146 17.6766C64.9026 17.548 64.7481 17.4641 64.5793 17.4401V17.4401Z" fill="white"/>
<path d="M47.1795 15.7302L46.9395 15.7102L46.9995 12.9302L47.2394 12.9502L47.1795 15.7302Z" fill="white"/>
<path d="M39.6698 15.1501H39.4398V14.4501C39.4371 14.3648 39.4517 14.2799 39.4827 14.2005C39.5138 14.121 39.5607 14.0487 39.6205 13.988C39.6804 13.9272 39.7519 13.8792 39.8309 13.8469C39.9098 13.8146 39.9945 13.7987 40.0798 13.8001L45.2598 14.2101C45.3118 14.2101 45.3634 14.1997 45.4114 14.1794C45.4593 14.1592 45.5028 14.1296 45.5391 14.0923C45.5755 14.055 45.604 14.0109 45.623 13.9624C45.642 13.9139 45.6511 13.8621 45.6498 13.8101V12.8101H45.8898V13.8101C45.8911 13.8945 45.8755 13.9783 45.8438 14.0566C45.8121 14.1348 45.765 14.2059 45.7053 14.2656C45.6456 14.3253 45.5745 14.3724 45.4963 14.4041C45.418 14.4358 45.3342 14.4514 45.2498 14.4501L40.0798 14.0501C40.0265 14.0472 39.9732 14.0555 39.9233 14.0746C39.8735 14.0937 39.8282 14.1231 39.7905 14.1608C39.7528 14.1985 39.7234 14.2438 39.7043 14.2936C39.6853 14.3435 39.6769 14.3968 39.6798 14.4501L39.6698 15.1501Z" fill="white"/>
<path d="M54.6103 16.3003H54.3803V15.6003C54.3841 15.4904 54.3475 15.383 54.2775 15.2982C54.2075 15.2135 54.1089 15.1573 54.0003 15.1403L48.8803 14.7503C48.7064 14.7232 48.5487 14.6326 48.4378 14.4958C48.3269 14.3591 48.2708 14.186 48.2803 14.0103V13.0103H48.5203V14.0103C48.5117 14.1197 48.5451 14.2283 48.6139 14.3138C48.6827 14.3993 48.7816 14.4553 48.8903 14.4703L54.0103 14.8603C54.1843 14.8873 54.342 14.9779 54.4529 15.1147C54.5637 15.2514 54.6199 15.4245 54.6103 15.6003V16.3003Z" fill="white"/>
<path d="M38.5205 22.8203H38.2905V22.1203C38.2943 22.0104 38.2577 21.903 38.1877 21.8182C38.1177 21.7335 38.0191 21.6773 37.9105 21.6603L32.7905 21.2703C32.6165 21.2433 32.4588 21.1526 32.348 21.0158C32.2371 20.8791 32.181 20.7061 32.1905 20.5303V19.5303H32.4305V20.5303C32.422 20.6386 32.4558 20.7459 32.5248 20.8299C32.5938 20.9138 32.6926 20.9677 32.8005 20.9803L37.9205 21.3803C38.0936 21.405 38.2512 21.4937 38.3623 21.6288C38.4733 21.7639 38.5297 21.9356 38.5205 22.1103V22.8203Z" fill="white"/>
<path d="M42.0011 23.39L36.7611 23C36.6736 23 36.5869 23.0174 36.5062 23.0512C36.4254 23.085 36.3522 23.1345 36.2908 23.1968C36.2294 23.2592 36.181 23.3331 36.1484 23.4144C36.1158 23.4956 36.0997 23.5825 36.1011 23.67V26.29C36.0895 26.4705 36.1472 26.6485 36.2624 26.7879C36.3776 26.9273 36.5417 27.0175 36.7211 27.04L41.9611 27.41C42.0481 27.41 42.1343 27.3926 42.2145 27.3587C42.2947 27.3248 42.3673 27.2751 42.4279 27.2126C42.4885 27.1501 42.536 27.0761 42.5675 26.9949C42.5989 26.9137 42.6138 26.827 42.6111 26.74L42.6711 24.13C42.6767 23.944 42.61 23.763 42.4851 23.625C42.3602 23.4871 42.1867 23.4028 42.0011 23.39V23.39Z" fill="white"/>
<path d="M49.4811 23.9299L44.2911 23.5499C44.2045 23.5485 44.1185 23.5647 44.0384 23.5975C43.9582 23.6303 43.8855 23.679 43.8248 23.7407C43.764 23.8024 43.7164 23.8758 43.6848 23.9565C43.6532 24.0371 43.6384 24.1233 43.6411 24.2099L43.5811 26.8199C43.5716 27.0009 43.6298 27.179 43.7444 27.3195C43.859 27.46 44.0218 27.5528 44.2011 27.5799L49.3911 27.9299C49.4781 27.9328 49.5647 27.9176 49.6455 27.8853C49.7263 27.853 49.7996 27.8043 49.8607 27.7423C49.9217 27.6803 49.9693 27.6063 50.0004 27.525C50.0314 27.4437 50.0453 27.3568 50.0411 27.2699V24.6799C50.0546 24.5082 50.0052 24.3375 49.9022 24.1995C49.7991 24.0616 49.6495 23.9657 49.4811 23.9299V23.9299Z" fill="white"/>
<path d="M56.8911 24.4602L51.7511 24.0902C51.6641 24.0873 51.5775 24.1025 51.4967 24.1348C51.4158 24.1671 51.3426 24.2158 51.2815 24.2778C51.2204 24.3398 51.1729 24.4138 51.1418 24.4951C51.1108 24.5764 51.0969 24.6633 51.1011 24.7502V27.3502C51.0895 27.528 51.1461 27.7036 51.2595 27.8411C51.3728 27.9786 51.5343 28.0677 51.7111 28.0902L56.8511 28.4502C56.9373 28.4517 57.0228 28.4354 57.1024 28.4025C57.1821 28.3696 57.2541 28.3207 57.3141 28.2588C57.3741 28.197 57.4207 28.1235 57.4512 28.0429C57.4816 27.9623 57.4952 27.8763 57.4911 27.7902L57.5511 25.2002C57.5594 25.0151 57.495 24.8341 57.3717 24.6959C57.2484 24.5576 57.0759 24.473 56.8911 24.4602V24.4602Z" fill="white"/>
<path d="M47.0093 23.3703L46.7793 23.3503L46.8393 20.5703L47.0693 20.5903L47.0093 23.3703Z" fill="white"/>
<path d="M39.5103 22.83H39.2703V22.12C39.2661 22.0357 39.2794 21.9514 39.3095 21.8725C39.3395 21.7936 39.3856 21.7218 39.4448 21.6617C39.504 21.6015 39.5751 21.5543 39.6535 21.523C39.7319 21.4918 39.8159 21.4771 39.9003 21.48L45.0803 21.86C45.1324 21.86 45.1839 21.8496 45.2319 21.8293C45.2799 21.8091 45.3233 21.7795 45.3597 21.7422C45.396 21.7049 45.4245 21.6608 45.4435 21.6123C45.4625 21.5638 45.4716 21.512 45.4703 21.46V20.46H45.7003V21.46C45.703 21.5444 45.6887 21.6284 45.6582 21.7072C45.6277 21.786 45.5818 21.8578 45.523 21.9184C45.4642 21.9791 45.3939 22.0273 45.3161 22.0602C45.2383 22.0931 45.1547 22.11 45.0703 22.11L39.8903 21.73C39.8374 21.7286 39.7848 21.738 39.7356 21.7576C39.6865 21.7772 39.6418 21.8066 39.6044 21.8441C39.567 21.8815 39.5376 21.9261 39.5179 21.9753C39.4983 22.0244 39.4889 22.0771 39.4903 22.13L39.5103 22.83Z" fill="white"/>
<path d="M54.4507 23.9001H54.2107V23.2001C54.2193 23.0907 54.1859 22.9821 54.1171 22.8966C54.0483 22.8111 53.9494 22.7551 53.8407 22.7401L48.7207 22.3701C48.5465 22.3476 48.3876 22.2596 48.2761 22.124C48.1646 21.9883 48.109 21.8153 48.1207 21.6401V20.6401H48.3507V21.6401C48.3446 21.7479 48.3793 21.854 48.4478 21.9373C48.5164 22.0207 48.6138 22.0752 48.7207 22.0901L53.8407 22.4601C54.0138 22.4849 54.1714 22.5735 54.2824 22.7086C54.3935 22.8437 54.4499 23.0155 54.4407 23.1901L54.4507 23.9001Z" fill="white"/>
<path d="M55.4004 24.0001H55.6304L55.7104 23.3001C55.7181 23.1922 55.7671 23.0915 55.8472 23.0189C55.9273 22.9462 56.0323 22.9073 56.1404 22.9101L61.2704 23.2401C61.3605 23.2469 61.4511 23.2356 61.5369 23.207C61.6226 23.1784 61.7018 23.1329 61.7697 23.0733C61.8377 23.0137 61.8931 22.9412 61.9327 22.8599C61.9723 22.7787 61.9953 22.6903 62.0004 22.6001L62.1104 21.6001H61.8804L61.7704 22.6001C61.7606 22.708 61.7112 22.8085 61.6319 22.8823C61.5525 22.9561 61.4487 22.9981 61.3404 23.0001L56.2104 22.6601C56.0357 22.6596 55.8674 22.7254 55.7393 22.8442C55.6113 22.963 55.533 23.1259 55.5204 23.3001L55.4004 24.0001Z" fill="white"/>
</g>
<defs>
<linearGradient id="paint0_linear_583_1136" x1="20.0599" y1="77.98" x2="16.8099" y2="79.34" gradientUnits="userSpaceOnUse">
<stop stop-color="#40447E"/>
<stop offset="1" stop-color="#3C3B6B"/>
</linearGradient>
<linearGradient id="paint1_linear_583_1136" x1="15.7101" y1="63.6201" x2="12.1801" y2="65.1001" gradientUnits="userSpaceOnUse">
<stop stop-color="#40447E"/>
<stop offset="1" stop-color="#3C3B6B"/>
</linearGradient>
<linearGradient id="paint2_linear_583_1136" x1="0.470472" y1="64.4201" x2="33.2405" y2="64.4201" gradientUnits="userSpaceOnUse">
<stop stop-color="#40447E"/>
<stop offset="1" stop-color="#3C3B6B"/>
</linearGradient>
<linearGradient id="paint3_linear_583_1136" x1="0.470703" y1="76.5404" x2="46.8507" y2="76.5404" gradientUnits="userSpaceOnUse">
<stop stop-color="#40447E"/>
<stop offset="1" stop-color="#3C3B6B"/>
</linearGradient>
<linearGradient id="paint4_linear_583_1136" x1="5.01953" y1="76.1603" x2="39.0095" y2="76.1603" gradientUnits="userSpaceOnUse">
<stop stop-color="#40447E"/>
<stop offset="1" stop-color="#3C3B6B"/>
</linearGradient>
<linearGradient id="paint5_linear_583_1136" x1="13.1805" y1="61.7803" x2="24.6006" y2="43.7702" gradientUnits="userSpaceOnUse">
<stop stop-color="#238DDD"/>
<stop offset="1" stop-color="#95E4F6"/>
</linearGradient>
<linearGradient id="paint6_linear_583_1136" x1="10.5697" y1="59.4804" x2="20.0997" y2="80.1304" gradientUnits="userSpaceOnUse">
<stop stop-color="#2367D8"/>
<stop offset="1" stop-color="#95E4F6"/>
</linearGradient>
<linearGradient id="paint7_linear_583_1136" x1="22.2498" y1="54.0803" x2="31.3598" y2="73.8303" gradientUnits="userSpaceOnUse">
<stop stop-color="#2367D8"/>
<stop offset="1" stop-color="#95E4F6"/>
</linearGradient>
<linearGradient id="paint8_linear_583_1136" x1="12.3097" y1="59.7904" x2="21.0297" y2="78.6904" gradientUnits="userSpaceOnUse">
<stop stop-color="#2367D8"/>
<stop offset="1" stop-color="#95E4F6"/>
</linearGradient>
<linearGradient id="paint9_linear_583_1136" x1="60.9906" y1="70.8303" x2="61.1306" y2="75.9203" gradientUnits="userSpaceOnUse">
<stop stop-color="#444B8C"/>
<stop offset="1" stop-color="#26264F"/>
</linearGradient>
<linearGradient id="paint10_linear_583_1136" x1="62.0993" y1="64.5003" x2="47.1393" y2="11.9803" gradientUnits="userSpaceOnUse">
<stop stop-color="#444B8C"/>
<stop offset="1" stop-color="#26264F"/>
</linearGradient>
<linearGradient id="paint11_linear_583_1136" x1="47.1398" y1="30.5403" x2="74.3998" y2="59.8103" gradientUnits="userSpaceOnUse">
<stop stop-color="#238DDD"/>
<stop offset="1" stop-color="#95E4F6"/>
</linearGradient>
<linearGradient id="paint12_linear_583_1136" x1="38.2793" y1="68.78" x2="80.0493" y2="68.78" gradientUnits="userSpaceOnUse">
<stop stop-color="#444B8C"/>
<stop offset="1" stop-color="#26264F"/>
</linearGradient>
<linearGradient id="paint13_linear_583_1136" x1="51.2802" y1="46.6101" x2="63.2202" y2="72.4901" gradientUnits="userSpaceOnUse">
<stop stop-color="#2367D8"/>
<stop offset="1" stop-color="#95E4F6"/>
</linearGradient>
<linearGradient id="paint14_linear_583_1136" x1="66.4106" y1="40.8601" x2="77.4206" y2="64.7101" gradientUnits="userSpaceOnUse">
<stop stop-color="#2367D8"/>
<stop offset="1" stop-color="#95E4F6"/>
</linearGradient>
<linearGradient id="paint15_linear_583_1136" x1="53.2602" y1="45.7105" x2="64.6902" y2="70.4904" gradientUnits="userSpaceOnUse">
<stop stop-color="#2367D8"/>
<stop offset="1" stop-color="#95E4F6"/>
</linearGradient>
<linearGradient id="paint16_linear_583_1136" x1="18.0999" y1="17.0202" x2="72.6699" y2="17.0202" gradientUnits="userSpaceOnUse">
<stop stop-color="#2367D8"/>
<stop offset="1" stop-color="#95E4F6"/>
</linearGradient>
<linearGradient id="paint17_linear_583_1136" x1="57.9596" y1="29.5904" x2="78.3296" y2="29.5904" gradientUnits="userSpaceOnUse">
<stop stop-color="#2367D8"/>
<stop offset="1" stop-color="#95E4F6"/>
</linearGradient>
</defs>
</svg>
