<svg width="109" height="88" viewBox="0 0 100 99" fill="none" xmlns="http://www.w3.org/2000/svg">
<path d="M58.6001 93.83L1.00009 93.33V94.81C0.989586 94.9924 1.04264 95.1728 1.15022 95.3205C1.2578 95.4682 1.41324 95.5741 1.59009 95.62L17.8801 98.54C18.0726 98.5649 18.2676 98.5649 18.4601 98.54L58.0001 95.24C58.1837 95.2084 58.3492 95.1105 58.4654 94.9649C58.5815 94.8192 58.6401 94.636 58.6301 94.45L58.6001 93.83Z" fill="url(#paint0_linear_210_2809)"/>
<path d="M40.0599 91.42L1.6499 94.14C1.49153 94.1539 1.33201 94.1347 1.18142 94.0838C1.03082 94.0328 0.892424 93.9512 0.774962 93.8441C0.6575 93.737 0.563525 93.6066 0.49897 93.4614C0.434415 93.3161 0.400682 93.159 0.399902 93V65.52C0.402541 65.1902 0.535401 64.8749 0.769536 64.6426C1.00367 64.4103 1.32011 64.28 1.6499 64.28H40.0599C40.3411 64.3006 40.6031 64.4303 40.79 64.6414C40.9768 64.8526 41.0737 65.1284 41.0599 65.41V90.23C41.0701 90.517 40.9734 90.7975 40.7887 91.0173C40.604 91.2371 40.3443 91.3806 40.0599 91.42V91.42Z" fill="url(#paint1_linear_210_2809)"/>
<path d="M40.67 91.42L2.26 94.14C2.10084 94.1553 1.94023 94.1373 1.78844 94.087C1.63665 94.0367 1.49701 93.9553 1.37844 93.8481C1.25987 93.7408 1.16497 93.61 1.09981 93.464C1.03465 93.3179 1.00066 93.1599 1 93V65.52C1.00264 65.1902 1.1355 64.8749 1.36963 64.6426C1.60377 64.4103 1.9202 64.28 2.25 64.28H40.67C40.9503 64.303 41.2108 64.4334 41.3971 64.644C41.5835 64.8546 41.6813 65.1291 41.67 65.41V90.23C41.6779 90.5164 41.5805 90.7958 41.3962 91.0151C41.2119 91.2344 40.9535 91.3785 40.67 91.42V91.42Z" fill="url(#paint2_linear_210_2809)"/>
<path d="M39.47 89.67L3.69995 92C3.57156 92.0082 3.44284 91.99 3.32178 91.9464C3.20071 91.9029 3.08988 91.8349 2.99614 91.7468C2.90239 91.6587 2.82774 91.5523 2.77679 91.4341C2.72584 91.316 2.69969 91.1886 2.69995 91.06V67C2.69995 66.7348 2.80531 66.4804 2.99285 66.2929C3.18038 66.1053 3.43474 66 3.69995 66L39.47 65.85C39.7043 65.8604 39.925 65.9629 40.0842 66.1351C40.2434 66.3074 40.3281 66.5356 40.32 66.77V88.7C40.3155 88.936 40.2278 89.1628 40.0722 89.3403C39.9167 89.5178 39.7033 89.6346 39.47 89.67V89.67Z" fill="#A8A8A8"/>
<path d="M22.82 65C22.8161 65.086 22.787 65.1691 22.7363 65.2387C22.6856 65.3084 22.6156 65.3617 22.535 65.392C22.4543 65.4222 22.3665 65.4281 22.2825 65.4089C22.1985 65.3898 22.122 65.3464 22.0625 65.2841C22.0029 65.2219 21.963 65.1435 21.9475 65.0587C21.9321 64.974 21.9419 64.8865 21.9757 64.8073C22.0095 64.7281 22.0659 64.6605 22.1377 64.613C22.2096 64.5654 22.2938 64.5401 22.38 64.54C22.4985 64.5451 22.6104 64.5959 22.6924 64.6816C22.7744 64.7673 22.8201 64.8814 22.82 65V65Z" fill="white"/>
<path d="M39.71 91.3L1 94.16L17.88 97.16C18.0725 97.1849 18.2675 97.1849 18.46 97.16L58.59 93.78L40.33 91.32C40.1245 91.2934 39.9168 91.2867 39.71 91.3V91.3Z" fill="url(#paint3_linear_210_2809)"/>
<path style="mix-blend-mode:multiply" opacity="0.3" d="M6.65991 94.23L38.8799 91.82L48.8499 93.17L16.9099 95.76L6.65991 94.23Z" fill="url(#paint4_linear_210_2809)"/>
<path d="M40.32 70.53L2.67999 71V66.74C2.67865 66.6267 2.69998 66.5143 2.74272 66.4093C2.78547 66.3044 2.84876 66.209 2.92889 66.1289C3.00902 66.0488 3.10436 65.9855 3.2093 65.9427C3.31425 65.9 3.42668 65.8787 3.53999 65.88H39.46C39.5733 65.8787 39.6857 65.9 39.7907 65.9427C39.8956 65.9855 39.991 66.0488 40.0711 66.1289C40.1512 66.209 40.2145 66.3044 40.2573 66.4093C40.3 66.5143 40.3213 66.6267 40.32 66.74V70.53Z" fill="url(#paint5_linear_210_2809)"/>
<path d="M26.28 81.92L5 82.8V72.75L26.28 72.39V81.92Z" fill="url(#paint6_linear_210_2809)"/>
<path d="M38.39 81.42L27.53 81.87V72.37L38.39 72.19V81.42Z" fill="url(#paint7_linear_210_2809)"/>
<path d="M38.39 88.27L5 90.26V84.11L38.39 82.63V88.27Z" fill="url(#paint8_linear_210_2809)"/>
<g style="mix-blend-mode:soft-light" opacity="0.48">
<path d="M31.42 83.89C28.42 82.3 26.13 84.32 23.88 82.33C22.52 81.12 23.19 80.22 21.51 78.41C19.65 76.41 18.44 77.09 16.58 75.29C14.22 73.01 15.4 71.24 13.37 69.61C10.9 67.61 8.24 69.46 5.89 67.61C4.8968 66.7496 4.22953 65.5739 4.00001 64.28H1.70001C1.51336 64.2877 1.33675 64.3666 1.20654 64.5005C1.07632 64.6345 1.00241 64.8132 1.00001 65V93.47C0.999631 93.5633 1.01873 93.6556 1.05609 93.7411C1.09345 93.8265 1.14824 93.9033 1.21696 93.9663C1.28567 94.0294 1.3668 94.0774 1.45515 94.1073C1.54349 94.1372 1.63711 94.1484 1.73 94.14L40.88 91.37C40.9746 91.3585 41.0657 91.3266 41.1468 91.2766C41.2279 91.2265 41.2973 91.1594 41.35 91.08C39.2505 91.0895 37.216 90.3523 35.61 89C33.41 87.09 33.79 85.17 31.42 83.89Z" fill="white"/>
</g>
<path d="M82 93.28C81.557 93.1321 81.1614 92.8688 80.8538 92.5173C80.5462 92.1658 80.3378 91.7387 80.25 91.28L79 84.89L67.91 85.28L66.5 92C66.4711 92.4786 66.6031 92.9531 66.8749 93.3481C67.1467 93.7431 67.5427 94.0359 68 94.18L72.6 96C73.4622 96.3333 74.3888 96.4667 75.31 96.39L85.11 95.55C85.2505 95.5389 85.3826 95.4787 85.4832 95.38C85.5837 95.2813 85.6463 95.1503 85.66 95.01C85.66 94.72 85.9 94.4 85.66 94.31L82 93.28Z" fill="#97A6B7"/>
<path d="M82.11 92.89C81.6664 92.743 81.2703 92.48 80.9626 92.1283C80.6549 91.7767 80.4468 91.3491 80.36 90.89L79.07 84.6L68.25 85L66.89 91.6C66.7974 92.0468 66.8662 92.5119 67.084 92.9128C67.3019 93.3137 67.6547 93.6245 68.08 93.79L72.72 95.58C73.5812 95.9171 74.5086 96.0506 75.43 95.97L85.22 95.14C85.3596 95.1312 85.4916 95.0731 85.5923 94.976C85.693 94.8789 85.756 94.7492 85.77 94.61C85.7841 94.4726 85.7513 94.3346 85.6768 94.2183C85.6023 94.1021 85.4906 94.0145 85.36 93.97L82.11 92.89Z" fill="url(#paint9_linear_210_2809)"/>
<path d="M99.81 80.43V51.66C99.8052 51.3722 99.6908 51.0972 99.4901 50.8909C99.2894 50.6846 99.0175 50.5627 98.73 50.55L49.31 48.55C49.1468 48.5392 48.9831 48.561 48.8284 48.6142C48.6738 48.6675 48.5313 48.751 48.4093 48.8599C48.2873 48.9689 48.1883 49.101 48.118 49.2487C48.0477 49.3964 48.0076 49.5566 48 49.72V81.5L99.81 80.43Z" fill="url(#paint10_linear_210_2809)"/>
<path d="M49.47 54.14V79C49.48 79.1556 49.5211 79.3076 49.5907 79.4471C49.6604 79.5866 49.7572 79.7108 49.8755 79.8123C49.9938 79.9139 50.1313 79.9908 50.2797 80.0385C50.4282 80.0861 50.5846 80.1037 50.74 80.09L97.64 78.76C97.9005 78.7456 98.1466 78.6357 98.3311 78.4512C98.5156 78.2666 98.6256 78.0206 98.64 77.76V55.55L49.47 54.14Z" fill="#A8A8A8"/>
<path d="M98.66 55.55V53C98.66 52.7348 98.5546 52.4804 98.3671 52.2929C98.1795 52.1053 97.9252 52 97.66 52L50.72 50.23C50.5678 50.2149 50.4141 50.2306 50.2682 50.2761C50.1222 50.3216 49.9869 50.3961 49.8702 50.495C49.7536 50.5939 49.6581 50.7152 49.5893 50.8518C49.5205 50.9884 49.48 51.1374 49.47 51.29V54.14L98.66 55.55Z" fill="url(#paint11_linear_210_2809)"/>
<path d="M52.9 52.21C52.8976 52.2631 52.8843 52.3151 52.8611 52.3628C52.8378 52.4106 52.8051 52.4531 52.7648 52.4877C52.7246 52.5224 52.6776 52.5484 52.6269 52.5643C52.5763 52.5802 52.5229 52.5855 52.47 52.58C52.3599 52.5805 52.2537 52.5396 52.1722 52.4656C52.0908 52.3915 52.04 52.2896 52.03 52.18C52.0323 52.126 52.0459 52.0731 52.0697 52.0245C52.0936 51.976 52.1273 51.933 52.1687 51.8982C52.21 51.8634 52.2582 51.8376 52.3101 51.8224C52.362 51.8073 52.4164 51.803 52.47 51.81C52.5247 51.8073 52.5794 51.8156 52.6308 51.8344C52.6822 51.8531 52.7293 51.882 52.7694 51.9193C52.8095 51.9566 52.8417 52.0015 52.8641 52.0514C52.8865 52.1014 52.8988 52.1553 52.9 52.21V52.21Z" fill="#9D3060"/>
<path d="M54.7799 52.27C54.7775 52.3231 54.7642 52.3751 54.741 52.4228C54.7177 52.4706 54.685 52.5131 54.6447 52.5477C54.6044 52.5824 54.5575 52.6084 54.5068 52.6243C54.4562 52.6401 54.4028 52.6455 54.3499 52.64C54.2409 52.6403 54.1358 52.5991 54.056 52.5248C53.9762 52.4506 53.9275 52.3488 53.9199 52.24C53.9224 52.1869 53.9356 52.1349 53.9589 52.0872C53.9821 52.0394 54.0149 51.9969 54.0551 51.9623C54.0954 51.9276 54.1423 51.9016 54.193 51.8857C54.2437 51.8698 54.2971 51.8645 54.3499 51.87C54.459 51.8697 54.564 51.9109 54.6438 51.9851C54.7237 52.0594 54.7723 52.1612 54.7799 52.27V52.27Z" fill="#9D3060"/>
<path d="M56.63 52.33C56.6275 52.3821 56.6146 52.4332 56.5919 52.4803C56.5693 52.5273 56.5375 52.5693 56.4983 52.6038C56.4591 52.6383 56.4134 52.6646 56.3639 52.6812C56.3144 52.6977 56.2621 52.7041 56.21 52.7C56.101 52.7003 55.9959 52.6591 55.9161 52.5849C55.8363 52.5106 55.7876 52.4088 55.78 52.3C55.7838 52.2474 55.798 52.1961 55.8217 52.149C55.8454 52.1019 55.8781 52.06 55.9181 52.0256C55.9581 51.9912 56.0044 51.9651 56.0545 51.9487C56.1046 51.9323 56.1575 51.9259 56.21 51.93C56.3173 51.9322 56.4199 51.9745 56.4976 52.0485C56.5753 52.1225 56.6226 52.223 56.63 52.33V52.33Z" fill="#9D3060"/>
<path d="M48 81.5V87.85C48.0089 88.0121 48.05 88.1708 48.1209 88.3168C48.1919 88.4628 48.2913 88.5932 48.4133 88.7003C48.5353 88.8074 48.6775 88.8891 48.8315 88.9405C48.9854 88.992 49.1481 89.0122 49.31 89L98.73 86.91C99.0175 86.8973 99.2894 86.7754 99.4901 86.5691C99.6908 86.3628 99.8052 86.0878 99.81 85.8V80.24L48 81.5Z" fill="url(#paint12_linear_210_2809)"/>
<path d="M80.3201 68.06L53.0701 68.2V56.83L80.3201 57.32V68.06Z" fill="url(#paint13_linear_210_2809)"/>
<path d="M95.7099 67.97L81.9199 68.05V57.35L95.7099 57.6V67.97Z" fill="url(#paint14_linear_210_2809)"/>
<path d="M95.7101 75.67L53.0701 76.65V69.69L95.7101 69.33V75.67Z" fill="url(#paint15_linear_210_2809)"/>
<g style="mix-blend-mode:soft-light" opacity="0.48">
<g style="mix-blend-mode:soft-light">
<path d="M94.46 76.71C90.4 75.34 87.04 78.14 84.12 75.94C80.84 73.46 83.49 68.69 80.45 65.88C76.23 62 67.78 68 64.11 64.35C61.58 61.82 64.56 57.77 62.42 53.51C61.1897 51.3271 59.2004 49.6723 56.83 48.86L49.31 48.56C49.1476 48.5492 48.9847 48.5707 48.8307 48.6233C48.6766 48.6759 48.5346 48.7585 48.4127 48.8664C48.2909 48.9743 48.1917 49.1053 48.1208 49.2518C48.05 49.3984 48.0089 49.5575 48 49.72V87.85C48.0089 88.0121 48.05 88.1708 48.1209 88.3168C48.1919 88.4628 48.2913 88.5932 48.4133 88.7003C48.5353 88.8074 48.6775 88.8891 48.8315 88.9406C48.9854 88.992 49.1481 89.0122 49.31 89L98.73 86.91C99.0175 86.8973 99.2894 86.7754 99.4901 86.5691C99.6908 86.3628 99.8052 86.0878 99.81 85.8V81.69C98.07 78.62 96.15 77.28 94.46 76.71Z" fill="white"/>
</g>
</g>
<path d="M58.34 1.40998C65.89 1.79998 72.27 8.55998 72.59 16.49C72.6222 17.2307 72.5988 17.9728 72.52 18.71C73.8816 18.1653 75.3454 17.923 76.81 18C83.04 18.32 88.3 23.9 88.57 30.45C88.82 36.67 84.47 41.53 78.7 41.72C78.39 41.72 78.09 41.72 77.78 41.72L26.16 38.86C24.6778 38.4594 23.3619 37.5967 22.4034 36.3973C21.4449 35.1978 20.8938 33.724 20.83 32.19C20.7593 31.3807 20.8624 30.5656 21.1324 29.7994C21.4025 29.0332 21.8331 28.3335 22.3956 27.7474C22.9581 27.1612 23.6394 26.702 24.3939 26.4007C25.1483 26.0993 25.9584 25.9627 26.77 26C27.4852 26.0432 28.1882 26.2054 28.85 26.48C28.5465 25.3429 28.3688 24.1759 28.32 23C28 14.78 34 8.46998 41.84 8.86998C43.2733 8.94847 44.6862 9.24522 46.03 9.74998C46.8774 7.1985 48.5433 4.99805 50.7691 3.49007C52.9949 1.98209 55.6561 1.25091 58.34 1.40998Z" fill="#413974"/>
<path d="M60.4099 0.199985C67.9499 0.589985 74.3299 7.33999 74.6499 15.28C74.6874 16.0173 74.6639 16.7565 74.5799 17.49C75.9448 16.9595 77.4083 16.7309 78.8699 16.82C85.0999 17.14 90.3699 22.72 90.6299 29.26C90.8899 35.49 86.5399 40.35 80.7599 40.54C80.4599 40.54 80.1499 40.54 79.8399 40.54L28.2299 37.65C26.7516 37.249 25.4389 36.389 24.4809 35.1938C23.523 33.9986 22.9694 32.5301 22.8999 31C22.8278 30.1908 22.9296 29.3755 23.1984 28.6088C23.4671 27.8421 23.8967 27.1417 24.4582 26.5546C25.0198 25.9675 25.7004 25.5072 26.4543 25.2045C27.2083 24.9019 28.0183 24.764 28.8299 24.8C29.5454 24.8409 30.2488 25.0032 30.9099 25.28C30.6064 24.1429 30.4287 22.9759 30.3799 21.8C30.0499 13.59 36.0999 7.26999 43.8999 7.67999C45.3332 7.75848 46.7461 8.05523 48.0899 8.55999C48.9327 6.00209 50.5983 3.79497 52.8268 2.28275C55.0553 0.770534 57.7216 0.0382171 60.4099 0.199985V0.199985Z" fill="url(#paint16_linear_210_2809)"/>
<path d="M26.27 42.29C27.6891 42.4226 29.0115 43.067 29.9904 44.103C30.9693 45.1389 31.5379 46.4957 31.59 47.92C31.6101 48.1963 31.6101 48.4737 31.59 48.75C32.0975 48.5461 32.644 48.4573 33.19 48.49C34.3628 48.5966 35.4563 49.1281 36.2647 49.9844C37.0732 50.8408 37.5409 51.963 37.58 53.14C37.625 53.6601 37.5645 54.184 37.4023 54.6803C37.24 55.1765 36.9793 55.6349 36.6357 56.028C36.2921 56.4211 35.8727 56.7408 35.4026 56.9679C34.9326 57.1951 34.4215 57.325 33.9 57.35H33.55L14.26 56.27C13.7051 56.1217 13.212 55.8002 12.8523 55.3524C12.4927 54.9046 12.2852 54.3538 12.26 53.78C12.2299 53.4102 12.2965 53.0389 12.4532 52.7025C12.61 52.3662 12.8515 52.0764 13.154 51.8616C13.4566 51.6468 13.8098 51.5143 14.179 51.4772C14.5482 51.4401 14.9207 51.4997 15.26 51.65C15.1473 51.2216 15.0803 50.7825 15.06 50.34C14.9994 49.6515 15.0867 48.958 15.316 48.306C15.5453 47.654 15.9113 47.0585 16.3895 46.5595C16.8677 46.0604 17.4471 45.6694 18.0887 45.4125C18.7304 45.1556 19.4195 45.0388 20.11 45.07C20.6432 45.1036 21.1688 45.2148 21.67 45.4C21.9874 44.4475 22.6103 43.6264 23.442 43.0641C24.2738 42.5018 25.2678 42.2297 26.27 42.29V42.29Z" fill="#413974"/>
<path d="M27.55 41.31C28.9692 41.4426 30.2916 42.087 31.2705 43.123C32.2494 44.1589 32.8179 45.5157 32.87 46.94C32.8953 47.2161 32.8953 47.4939 32.87 47.77C33.3794 47.5733 33.925 47.488 34.47 47.52C35.6404 47.6285 36.7313 48.1592 37.5392 49.013C38.347 49.8668 38.8165 50.9854 38.86 52.16C38.905 52.681 38.8443 53.2056 38.6814 53.7025C38.5186 54.1994 38.2569 54.6582 37.9123 55.0514C37.5676 55.4447 37.1471 55.7642 36.6758 55.9908C36.2046 56.2173 35.6924 56.3463 35.17 56.37C35.0569 56.38 34.9432 56.38 34.83 56.37L15.54 55.3C14.9836 55.1511 14.4894 54.8282 14.1295 54.3784C13.7697 53.9286 13.5631 53.3756 13.54 52.8C13.5141 52.4978 13.553 52.1935 13.6541 51.9076C13.7552 51.6216 13.9163 51.3605 14.1265 51.1418C14.3366 50.9231 14.5911 50.7519 14.8728 50.6394C15.1546 50.527 15.457 50.4761 15.76 50.49C16.0247 50.5084 16.2847 50.5692 16.53 50.67C16.4165 50.2455 16.3528 49.8092 16.34 49.37C16.2785 48.6855 16.3635 47.9958 16.5892 47.3467C16.815 46.6976 17.1764 46.104 17.6494 45.6054C18.1225 45.1069 18.6962 44.7147 19.3326 44.4552C19.9689 44.1956 20.6533 44.0745 21.34 44.1C21.8772 44.1288 22.4067 44.2401 22.91 44.43C23.2244 43.4668 23.8519 42.6363 24.6927 42.0709C25.5336 41.5056 26.5394 41.2377 27.55 41.31V41.31Z" fill="#A8A8A8"/>
<path d="M85.1601 29.44C86.5792 29.5726 87.9016 30.217 88.8805 31.2529C89.8595 32.2889 90.428 33.6456 90.4801 35.07C90.5002 35.3463 90.5002 35.6237 90.4801 35.9C90.9929 35.7034 91.5418 35.6181 92.0901 35.65C93.2605 35.7585 94.3514 36.2891 95.1592 37.143C95.967 37.9968 96.4365 39.1154 96.4801 40.29C96.5251 40.8109 96.4644 41.3356 96.3015 41.8325C96.1386 42.3294 95.877 42.7882 95.5323 43.1814C95.1877 43.5746 94.7671 43.8941 94.2959 44.1207C93.8246 44.3473 93.3124 44.4763 92.7901 44.5H92.4501L73.1501 43.42C72.5945 43.2731 72.1005 42.952 71.7406 42.5039C71.3807 42.0558 71.1737 41.5042 71.1501 40.93C71.1226 40.6283 71.1601 40.3242 71.2601 40.0383C71.36 39.7523 71.5201 39.491 71.7295 39.2721C71.9389 39.0533 72.1928 38.8818 72.4741 38.7693C72.7554 38.6568 73.0575 38.6059 73.3601 38.62C73.6287 38.6335 73.8927 38.6945 74.1401 38.8C74.0282 38.3748 73.9612 37.9391 73.9401 37.5C73.8786 36.8155 73.9635 36.1258 74.1893 35.4766C74.4151 34.8275 74.7765 34.234 75.2495 33.7354C75.7225 33.2368 76.2963 32.8447 76.9326 32.5851C77.569 32.3256 78.2533 32.2045 78.9401 32.23C79.4762 32.2602 80.005 32.3679 80.5101 32.55C80.8282 31.5878 81.4583 30.7593 82.3007 30.1959C83.143 29.6326 84.1494 29.3665 85.1601 29.44V29.44Z" fill="#413974"/>
<path d="M86.3801 28.44C87.7992 28.5726 89.1216 29.217 90.1005 30.2529C91.0794 31.2889 91.648 32.6456 91.7001 34.07C91.7152 34.3465 91.7152 34.6235 91.7001 34.9C92.2087 34.6999 92.7543 34.6112 93.3001 34.64C94.4705 34.7528 95.5604 35.2862 96.3676 36.1412C97.1748 36.9963 97.6447 38.115 97.6901 39.29C97.7351 39.8109 97.6743 40.3356 97.5115 40.8325C97.3486 41.3294 97.087 41.7882 96.7423 42.1814C96.3977 42.5746 95.9771 42.8941 95.5058 43.1207C95.0346 43.3473 94.5224 43.4763 94.0001 43.5H93.6601L74.3701 42.42C73.8144 42.2731 73.3205 41.952 72.9605 41.5039C72.6006 41.0558 72.3937 40.5042 72.3701 39.93C72.3426 39.6283 72.3801 39.3242 72.48 39.0383C72.58 38.7523 72.74 38.491 72.9495 38.2721C73.1589 38.0533 73.4128 37.8818 73.6941 37.7693C73.9753 37.6568 74.2775 37.6059 74.5801 37.62C74.8495 37.6268 75.1149 37.688 75.3601 37.8C75.2466 37.3755 75.1828 36.9392 75.1701 36.5C75.1069 35.8152 75.1907 35.1247 75.4158 34.4749C75.641 33.825 76.0024 33.2308 76.4757 32.7318C76.9491 32.2329 77.5236 31.8408 78.1607 31.5818C78.7978 31.3228 79.4829 31.2029 80.1701 31.23C80.7067 31.2552 81.2363 31.3632 81.7401 31.55C82.0577 30.5896 82.6864 29.7624 83.5267 29.1992C84.367 28.6359 85.371 28.3688 86.3801 28.44V28.44Z" fill="url(#paint17_linear_210_2809)"/>
<path d="M43.75 38.15C43.6147 38.15 43.485 38.0963 43.3894 38.0006C43.2937 37.905 43.24 37.7753 43.24 37.64V36C43.271 35.8913 43.3366 35.7958 43.4268 35.7277C43.5171 35.6596 43.627 35.6228 43.74 35.6228C43.853 35.6228 43.9629 35.6596 44.0531 35.7277C44.1434 35.7958 44.209 35.8913 44.24 36V37.61C44.244 37.6778 44.2345 37.7457 44.2119 37.8098C44.1894 37.8739 44.1542 37.9328 44.1086 37.9831C44.0629 38.0334 44.0077 38.0741 43.9461 38.1027C43.8845 38.1314 43.8179 38.1475 43.75 38.15V38.15Z" fill="#413974"/>
<path d="M43.75 71.31C43.6147 71.31 43.485 71.2563 43.3893 71.1606C43.2937 71.065 43.24 70.9353 43.24 70.8V67.48C43.271 67.3713 43.3366 67.2758 43.4268 67.2077C43.517 67.1396 43.627 67.1028 43.74 67.1028C43.853 67.1028 43.9629 67.1396 44.0531 67.2077C44.1433 67.2758 44.2089 67.3713 44.24 67.48V70.8C44.2401 70.9319 44.1891 71.0586 44.0977 71.1537C44.0064 71.2488 43.8817 71.3048 43.75 71.31V71.31ZM43.75 64.68C43.683 64.68 43.6167 64.6668 43.5548 64.6412C43.4929 64.6156 43.4367 64.578 43.3893 64.5306C43.342 64.4833 43.3044 64.427 43.2788 64.3652C43.2532 64.3033 43.24 64.237 43.24 64.17V60.85C43.271 60.7413 43.3366 60.6458 43.4268 60.5777C43.517 60.5096 43.627 60.4728 43.74 60.4728C43.853 60.4728 43.9629 60.5096 44.0531 60.5777C44.1433 60.6458 44.2089 60.7413 44.24 60.85V64.17C44.2401 64.3019 44.1891 64.4287 44.0977 64.5237C44.0064 64.6188 43.8817 64.6748 43.75 64.68V64.68ZM43.75 58.05C43.6821 58.05 43.615 58.0365 43.5525 58.0103C43.4899 57.984 43.4333 57.9455 43.3858 57.8971C43.3383 57.8487 43.3009 57.7913 43.2759 57.7282C43.2508 57.6652 43.2386 57.5978 43.24 57.53V54.22C43.2179 54.1426 43.214 54.0612 43.2287 53.982C43.2435 53.9029 43.2764 53.8283 43.3248 53.764C43.3733 53.6998 43.436 53.6476 43.5081 53.6118C43.5801 53.5759 43.6595 53.5572 43.74 53.5572C43.8205 53.5572 43.8998 53.5759 43.9719 53.6118C44.0439 53.6476 44.1066 53.6998 44.1551 53.764C44.2036 53.8283 44.2365 53.9029 44.2512 53.982C44.2659 54.0612 44.2621 54.1426 44.24 54.22V57.53C44.2402 57.6629 44.1895 57.7908 44.0984 57.8875C44.0073 57.9842 43.8826 58.0423 43.75 58.05V58.05ZM43.75 51.42C43.6821 51.42 43.615 51.4065 43.5525 51.3802C43.4899 51.354 43.4333 51.3155 43.3858 51.2671C43.3383 51.2187 43.3009 51.1613 43.2759 51.0982C43.2508 51.0352 43.2386 50.9678 43.24 50.9V47.59C43.2179 47.5126 43.214 47.4312 43.2287 47.352C43.2435 47.2729 43.2764 47.1983 43.3248 47.134C43.3733 47.0698 43.436 47.0176 43.5081 46.9818C43.5801 46.9459 43.6595 46.9272 43.74 46.9272C43.8205 46.9272 43.8998 46.9459 43.9719 46.9818C44.0439 47.0176 44.1066 47.0698 44.1551 47.134C44.2036 47.1983 44.2365 47.2729 44.2512 47.352C44.2659 47.4312 44.2621 47.5126 44.24 47.59V50.9C44.2402 51.0329 44.1895 51.1608 44.0984 51.2575C44.0073 51.3542 43.8826 51.4123 43.75 51.42V51.42ZM43.75 44.78C43.6147 44.78 43.485 44.7263 43.3893 44.6306C43.2937 44.535 43.24 44.4053 43.24 44.27V41C43.271 40.8913 43.3366 40.7958 43.4268 40.7277C43.517 40.6596 43.627 40.6228 43.74 40.6228C43.853 40.6228 43.9629 40.6596 44.0531 40.7277C44.1433 40.7958 44.2089 40.8913 44.24 41V44.32C44.2279 44.443 44.1716 44.5575 44.0815 44.6421C43.9913 44.7268 43.8735 44.7757 43.75 44.78V44.78Z" fill="#413974"/>
<path d="M44.2699 76.25L41.0799 76.18C40.9644 76.1568 40.8605 76.0943 40.7859 76.0031C40.7112 75.912 40.6704 75.7978 40.6704 75.68C40.6704 75.5622 40.7112 75.448 40.7859 75.3568C40.8605 75.2657 40.9644 75.2032 41.0799 75.18H43.2199V74.12C43.1978 74.0426 43.194 73.9611 43.2087 73.882C43.2234 73.8029 43.2563 73.7283 43.3048 73.664C43.3532 73.5997 43.416 73.5476 43.488 73.5117C43.56 73.4758 43.6394 73.4572 43.7199 73.4572C43.8004 73.4572 43.8798 73.4758 43.9518 73.5117C44.0239 73.5476 44.0866 73.5997 44.135 73.664C44.1835 73.7283 44.2164 73.8029 44.2311 73.882C44.2459 73.9611 44.242 74.0426 44.2199 74.12L44.2699 76.25Z" fill="#413974"/>
<path d="M67.3399 39.7C67.2721 39.7 67.205 39.6865 67.1424 39.6603C67.0799 39.634 67.0232 39.5955 66.9757 39.5471C66.9282 39.4987 66.8909 39.4413 66.8658 39.3783C66.8408 39.3152 66.8286 39.2478 66.8299 39.18V37.57C66.861 37.4614 66.9266 37.3658 67.0168 37.2977C67.107 37.2297 67.2169 37.1928 67.3299 37.1928C67.4429 37.1928 67.5529 37.2297 67.6431 37.2977C67.7333 37.3658 67.7989 37.4614 67.8299 37.57V39.18C67.8302 39.3129 67.7795 39.4408 67.6884 39.5375C67.5973 39.6342 67.4726 39.6923 67.3399 39.7V39.7Z" fill="#413974"/>
<path d="M67.3401 45.75C67.2048 45.75 67.0751 45.6963 66.9795 45.6006C66.8838 45.505 66.8301 45.3753 66.8301 45.24V42.24C66.8611 42.1313 66.9267 42.0357 67.0169 41.9677C67.1071 41.8996 67.2171 41.8628 67.3301 41.8628C67.4431 41.8628 67.553 41.8996 67.6432 41.9677C67.7334 42.0357 67.799 42.1313 67.8301 42.24V45.24C67.8302 45.3719 67.7792 45.4986 67.6878 45.5937C67.5965 45.6888 67.4718 45.7448 67.3401 45.75Z" fill="#413974"/>
<path d="M67.3401 50.39C67.2048 50.39 67.0751 50.3363 66.9794 50.2406C66.8838 50.145 66.8301 50.0153 66.8301 49.88V48.27C66.808 48.1926 66.8041 48.1112 66.8188 48.032C66.8336 47.9529 66.8665 47.8783 66.9149 47.814C66.9634 47.7498 67.0261 47.6976 67.0981 47.6618C67.1702 47.6259 67.2496 47.6072 67.3301 47.6072C67.4105 47.6072 67.4899 47.6259 67.562 47.6618C67.634 47.6976 67.6967 47.7498 67.7452 47.814C67.7937 47.8783 67.8266 47.9529 67.8413 48.032C67.856 48.1112 67.8522 48.1926 67.8301 48.27V49.88C67.8302 50.0119 67.7792 50.1387 67.6878 50.2337C67.5965 50.3288 67.4718 50.3848 67.3401 50.39Z" fill="#413974"/>
<path d="M81.9199 41.75C81.7846 41.75 81.6549 41.6963 81.5593 41.6006C81.4636 41.505 81.4099 41.3753 81.4099 41.24V39.63C81.441 39.5214 81.5065 39.4258 81.5968 39.3577C81.687 39.2897 81.7969 39.2528 81.9099 39.2528C82.0229 39.2528 82.1328 39.2897 82.2231 39.3577C82.3133 39.4258 82.3789 39.5214 82.4099 39.63V41.24C82.41 41.3719 82.359 41.4987 82.2677 41.5937C82.1763 41.6888 82.0517 41.7448 81.9199 41.75V41.75Z" fill="#413974"/>
<path d="M81.92 46.7C81.8522 46.7 81.785 46.6865 81.7225 46.6602C81.66 46.634 81.6033 46.5955 81.5558 46.5471C81.5083 46.4987 81.471 46.4413 81.4459 46.3782C81.4209 46.3152 81.4087 46.2478 81.41 46.18V43.71C81.441 43.6013 81.5066 43.5057 81.5969 43.4377C81.6871 43.3696 81.797 43.3328 81.91 43.3328C82.023 43.3328 82.1329 43.3696 82.2232 43.4377C82.3134 43.5057 82.379 43.6013 82.41 43.71V46.18C82.4102 46.3129 82.3596 46.4408 82.2685 46.5375C82.1773 46.6342 82.0527 46.6923 81.92 46.7V46.7Z" fill="#413974"/>
<path d="M81.92 50.78C81.8522 50.78 81.785 50.7665 81.7225 50.7402C81.66 50.714 81.6033 50.6755 81.5558 50.6271C81.5083 50.5787 81.471 50.5213 81.4459 50.4582C81.4209 50.3952 81.4087 50.3278 81.41 50.26V48.65C81.441 48.5413 81.5066 48.4458 81.5969 48.3777C81.6871 48.3096 81.797 48.2728 81.91 48.2728C82.023 48.2728 82.1329 48.3096 82.2232 48.3777C82.3134 48.4458 82.379 48.5413 82.41 48.65V50.26C82.4102 50.3929 82.3596 50.5208 82.2685 50.6175C82.1773 50.7142 82.0527 50.7723 81.92 50.78V50.78Z" fill="#413974"/>
<path d="M27.54 55.12C27.47 55.1227 27.4003 55.1112 27.3349 55.0863C27.2694 55.0614 27.2097 55.0235 27.1593 54.9749C27.1089 54.9264 27.0688 54.8681 27.0414 54.8037C27.014 54.7393 26.9999 54.67 27 54.6V53C27.031 52.8913 27.0966 52.7957 27.1868 52.7277C27.2771 52.6596 27.387 52.6228 27.5 52.6228C27.613 52.6228 27.7229 52.6596 27.8132 52.7277C27.9034 52.7957 27.969 52.8913 28 53V54.6C28.0009 54.7281 27.9544 54.852 27.8695 54.948C27.7846 55.0439 27.6673 55.1052 27.54 55.12V55.12Z" fill="#413974"/>
<path d="M27.54 60.06C27.4021 60.06 27.2698 60.0052 27.1723 59.9077C27.0748 59.8102 27.02 59.6779 27.02 59.54V57.07C27.0511 56.9613 27.1167 56.8657 27.2069 56.7977C27.2971 56.7296 27.407 56.6928 27.52 56.6928C27.633 56.6928 27.743 56.7296 27.8332 56.7977C27.9234 56.8657 27.989 56.9613 28.02 57.07V59.54C28.0228 59.6719 27.9744 59.7998 27.8849 59.8968C27.7954 59.9937 27.6718 60.0522 27.54 60.06V60.06Z" fill="#413974"/>
<path d="M27.54 64.14C27.4021 64.14 27.2698 64.0852 27.1723 63.9877C27.0748 63.8902 27.02 63.7579 27.02 63.62V62C26.9979 61.9226 26.9941 61.8411 27.0088 61.762C27.0235 61.6829 27.0564 61.6083 27.1049 61.544C27.1533 61.4798 27.2161 61.4276 27.2881 61.3917C27.3601 61.3558 27.4395 61.3372 27.52 61.3372C27.6005 61.3372 27.6799 61.3558 27.7519 61.3917C27.8239 61.4276 27.8867 61.4798 27.9351 61.544C27.9836 61.6083 28.0165 61.6829 28.0312 61.762C28.0459 61.8411 28.0421 61.9226 28.02 62V63.6C28.0241 63.667 28.0149 63.7341 27.9929 63.7976C27.971 63.861 27.9367 63.9195 27.8921 63.9696C27.8475 64.0198 27.7935 64.0607 27.733 64.0899C27.6726 64.1191 27.607 64.1362 27.54 64.14V64.14Z" fill="#413974"/>
<g opacity="0.5">
<path d="M63.6899 8.99999L54.4299 8.24999C54.2215 8.24153 54.0136 8.27635 53.8192 8.35226C53.6249 8.42816 53.4485 8.54351 53.3009 8.69102C53.1534 8.83853 53.0381 9.015 52.9622 9.20931C52.8863 9.40362 52.8515 9.61155 52.8599 9.81999L52.7999 12.7C52.7752 13.1359 52.9144 13.5653 53.1901 13.9039C53.4657 14.2425 53.858 14.4658 54.2899 14.53L63.5599 15.25C63.7671 15.2571 63.9735 15.2213 64.1661 15.1446C64.3588 15.068 64.5334 14.9522 64.679 14.8047C64.8247 14.6572 64.9382 14.4811 65.0123 14.2875C65.0865 14.0939 65.1197 13.8871 65.1099 13.68L65.1699 10.82C65.1946 10.3867 65.0565 9.95981 64.7827 9.62309C64.5089 9.28637 64.1192 9.06414 63.6899 8.99999V8.99999Z" fill="white"/>
<path d="M62.1099 19.47L55.6099 18.97C55.5019 18.9672 55.3945 18.9865 55.2943 19.0269C55.1941 19.0672 55.1032 19.1277 55.0273 19.2046C54.9514 19.2814 54.892 19.373 54.8529 19.4737C54.8138 19.5744 54.7958 19.6821 54.7999 19.79L54.7299 23.05C54.7152 23.2751 54.7866 23.4974 54.9295 23.6718C55.0725 23.8463 55.2763 23.9601 55.4999 23.99L61.9999 24.47C62.1079 24.4728 62.2153 24.4534 62.3155 24.4131C62.4157 24.3728 62.5066 24.3123 62.5825 24.2354C62.6584 24.1586 62.7178 24.067 62.7569 23.9663C62.796 23.8656 62.814 23.7579 62.8099 23.65L62.8799 20.41C62.8946 20.1849 62.8232 19.9626 62.6803 19.7881C62.5374 19.6136 62.3335 19.4999 62.1099 19.47V19.47Z" fill="white"/>
<path d="M71.4 20.18L65 19.69C64.8925 19.6858 64.7853 19.7038 64.6852 19.743C64.585 19.7823 64.494 19.8418 64.4179 19.9178C64.3418 19.9939 64.2823 20.0849 64.2431 20.1851C64.2039 20.2853 64.1858 20.3925 64.19 20.5L64.12 23.74C64.1054 23.9651 64.1767 24.1873 64.3197 24.3618C64.4626 24.5363 64.6665 24.6501 64.89 24.68L71.33 25.16C71.4372 25.1614 71.5435 25.141 71.6426 25.1001C71.7416 25.0591 71.8313 24.9984 71.9061 24.9217C71.9809 24.845 72.0394 24.7539 72.0779 24.6539C72.1164 24.5539 72.1341 24.4471 72.13 24.34L72.2 21.11C72.214 20.8813 72.1382 20.6563 71.9888 20.4826C71.8394 20.309 71.6282 20.2004 71.4 20.18Z" fill="white"/>
<path d="M43.59 18.12L37.09 17.62C36.9816 17.6173 36.8737 17.6366 36.773 17.6768C36.6723 17.7171 36.5808 17.7774 36.5041 17.8541C36.4274 17.9308 36.3671 18.0223 36.3268 18.123C36.2866 18.2237 36.2673 18.3316 36.27 18.44L36.2 21.7C36.188 21.9261 36.2616 22.1484 36.4061 22.3226C36.5507 22.4968 36.7556 22.6101 36.98 22.64L43.48 23.12C43.5876 23.1214 43.6944 23.101 43.7939 23.0602C43.8935 23.0193 43.9838 22.9588 44.0594 22.8823C44.135 22.8057 44.1944 22.7147 44.234 22.6146C44.2737 22.5146 44.2927 22.4076 44.29 22.3L44.36 19.06C44.3723 18.8354 44.3001 18.6144 44.1576 18.4404C44.0151 18.2665 43.8126 18.1522 43.59 18.12Z" fill="white"/>
<path d="M52.8699 18.83L46.4299 18.34C46.3229 18.3357 46.2161 18.3537 46.1164 18.393C46.0167 18.4324 45.9263 18.492 45.851 18.5683C45.7757 18.6445 45.7172 18.7356 45.6791 18.8358C45.641 18.936 45.6243 19.043 45.6299 19.15L45.5499 22.39C45.5376 22.6145 45.6098 22.8356 45.7524 23.0095C45.8949 23.1835 46.0973 23.2978 46.3199 23.33L52.7599 23.81C52.8679 23.8128 52.9753 23.7934 53.0755 23.7531C53.1758 23.7127 53.2666 23.6523 53.3425 23.5754C53.4185 23.4986 53.4778 23.407 53.5169 23.3063C53.556 23.2056 53.5741 23.0979 53.5699 22.99L53.6399 19.76C53.6544 19.536 53.5827 19.315 53.4396 19.1421C53.2965 18.9692 53.0927 18.8576 52.8699 18.83V18.83Z" fill="white"/>
<path d="M80.6001 20.88L74.2201 20.39C74.1129 20.3886 74.0066 20.4089 73.9075 20.4499C73.8085 20.4909 73.7189 20.5515 73.644 20.6282C73.5692 20.705 73.5107 20.7961 73.4722 20.8961C73.4337 20.9961 73.416 21.1029 73.4201 21.21L73.3501 24.43C73.3354 24.6524 73.4057 24.8722 73.5467 25.0448C73.6878 25.2174 73.8891 25.3301 74.1101 25.36L80.4901 25.84C80.5972 25.8414 80.7035 25.821 80.8026 25.7801C80.9016 25.7391 80.9913 25.6784 81.0661 25.6017C81.1409 25.525 81.1994 25.4339 81.2379 25.3339C81.2764 25.2339 81.2941 25.1271 81.2901 25.02L81.3601 21.81C81.3747 21.5875 81.3045 21.3678 81.1634 21.1952C81.0223 21.0226 80.821 20.9099 80.6001 20.88V20.88Z" fill="white"/>
<path d="M59 18.76L58.71 18.74L58.78 15.29L59.07 15.31L59 18.76Z" fill="white"/>
<path d="M49.68 18.05H49.39V17.17C49.3843 17.0643 49.4008 16.9586 49.4384 16.8596C49.476 16.7607 49.5338 16.6707 49.6081 16.5953C49.6825 16.52 49.7718 16.4611 49.8703 16.4223C49.9687 16.3835 50.0742 16.3657 50.18 16.37L56.61 16.87C56.6752 16.8715 56.7399 16.8595 56.8002 16.8346C56.8605 16.8098 56.9149 16.7726 56.96 16.7256C57.0052 16.6786 57.04 16.6227 57.0624 16.5615C57.0848 16.5002 57.0942 16.435 57.09 16.37V15.18H57.38V16.38C57.3841 16.484 57.3669 16.5877 57.3293 16.6848C57.2917 16.7819 57.2346 16.8702 57.1614 16.9442C57.0883 17.0183 57.0007 17.0766 56.9041 17.1154C56.8076 17.1542 56.7041 17.1728 56.6 17.17L50.17 16.67C50.1048 16.67 50.0403 16.683 49.9802 16.7082C49.92 16.7335 49.8656 16.7705 49.8199 16.817C49.7743 16.8636 49.7384 16.9188 49.7144 16.9794C49.6904 17.04 49.6787 17.1048 49.68 17.17V18.05Z" fill="white"/>
<path d="M68.23 19.47H67.94V18.6C67.9551 18.463 67.9183 18.3254 67.8369 18.2143C67.7554 18.1032 67.6352 18.0267 67.5 18L61.14 17.51C60.9236 17.4802 60.7263 17.37 60.5873 17.2014C60.4484 17.0328 60.3779 16.8181 60.39 16.6V15.4H60.68V16.59C60.6758 16.7259 60.7212 16.8586 60.8077 16.9635C60.8942 17.0684 61.0158 17.1382 61.15 17.16L67.5 17.65C67.7164 17.6798 67.9137 17.7899 68.0527 17.9585C68.1917 18.1271 68.2621 18.3418 68.25 18.56L68.23 19.47Z" fill="white"/>
<path d="M48.2499 27.56H47.9599V26.69C47.9689 26.5546 47.9266 26.4207 47.8413 26.3151C47.7561 26.2094 47.6342 26.1398 47.4999 26.12L41.1399 25.63C40.9243 25.6001 40.728 25.4896 40.5907 25.3207C40.4534 25.1518 40.3852 24.9372 40.3999 24.72V23.52H40.6899V24.71C40.6809 24.8454 40.7233 24.9793 40.8085 25.0849C40.8937 25.1905 41.0156 25.2602 41.1499 25.28L47.5099 25.77C47.7255 25.7999 47.9218 25.9104 48.0591 26.0793C48.1964 26.2481 48.2646 26.4628 48.2499 26.68V27.56Z" fill="white"/>
<path d="M52.56 28.27L46.0601 27.81C45.9517 27.8057 45.8436 27.824 45.7427 27.8638C45.6418 27.9036 45.5503 27.9641 45.4741 28.0412C45.3978 28.1184 45.3386 28.2106 45.3 28.312C45.2614 28.4134 45.2444 28.5217 45.2501 28.63L45.1801 31.89C45.1656 32.114 45.2373 32.335 45.3804 32.5079C45.5235 32.6808 45.7273 32.7924 45.9501 32.82L52.45 33.27C52.5584 33.2743 52.6665 33.256 52.7674 33.2162C52.8683 33.1764 52.9598 33.1159 53.036 33.0388C53.1122 32.9616 53.1715 32.8694 53.2101 32.768C53.2487 32.6666 53.2657 32.5583 53.2601 32.45L53.3301 29.21C53.3447 28.9849 53.2734 28.7626 53.1304 28.5882C52.9875 28.4137 52.7836 28.2999 52.56 28.27Z" fill="white"/>
<path d="M61.8501 28.94L55.4101 28.48C55.3017 28.4757 55.1936 28.494 55.0927 28.5338C54.9918 28.5736 54.9004 28.6341 54.8241 28.7112C54.7479 28.7884 54.6886 28.8806 54.65 28.982C54.6115 29.0834 54.5945 29.1917 54.6001 29.3L54.5301 32.54C54.518 32.7634 54.5906 32.9832 54.7333 33.1555C54.876 33.3279 55.0784 33.4401 55.3001 33.47L61.7401 33.92C61.8473 33.9214 61.9536 33.901 62.0526 33.8601C62.1516 33.8191 62.2413 33.7584 62.3161 33.6817C62.391 33.605 62.4494 33.5139 62.4879 33.4139C62.5264 33.3139 62.5442 33.2071 62.5401 33.1L62.6101 29.87C62.6248 29.6475 62.5545 29.4278 62.4134 29.2552C62.2724 29.0826 62.071 28.9699 61.8501 28.94Z" fill="white"/>
<path d="M71.0499 29.6L64.6699 29.14C64.5628 29.1386 64.4565 29.1589 64.3574 29.1999C64.2584 29.2409 64.1687 29.3015 64.0939 29.3782C64.0191 29.455 63.9606 29.5461 63.9221 29.6461C63.8836 29.7461 63.8659 29.8529 63.8699 29.96L63.7999 33.19C63.7855 33.4113 63.8561 33.6298 63.9974 33.8008C64.1386 33.9718 64.3399 34.0824 64.5599 34.11L70.9499 34.56C71.0563 34.5601 71.1615 34.5387 71.2594 34.4971C71.3572 34.4556 71.4457 34.3947 71.5194 34.3181C71.5932 34.2415 71.6508 34.1509 71.6886 34.0515C71.7265 33.9522 71.744 33.8462 71.7399 33.74L71.8099 30.53C71.8246 30.3075 71.7543 30.0878 71.6133 29.9152C71.4722 29.7426 71.2709 29.6299 71.0499 29.6Z" fill="white"/>
<path d="M58.79 28.25L58.5 28.23L58.58 24.77L58.87 24.79L58.79 28.25Z" fill="white"/>
<path d="M49.47 27.58H49.18V26.7C49.1759 26.5947 49.1934 26.4896 49.2315 26.3913C49.2696 26.2931 49.3275 26.2037 49.4016 26.1287C49.4756 26.0537 49.5643 25.9947 49.6621 25.9553C49.7599 25.916 49.8647 25.8972 49.97 25.9L56.4 26.36C56.4648 26.3613 56.5291 26.3496 56.5892 26.3255C56.6492 26.3013 56.7038 26.2653 56.7496 26.2195C56.7953 26.1737 56.8314 26.1192 56.8555 26.0591C56.8797 25.999 56.8914 25.9347 56.89 25.87V24.67H57.18V25.87C57.1842 25.9753 57.1667 26.0804 57.1286 26.1786C57.0905 26.2769 57.0326 26.3663 56.9585 26.4413C56.8845 26.5163 56.7958 26.5753 56.698 26.6146C56.6002 26.654 56.4954 26.6728 56.39 26.67L50 26.2C49.934 26.1986 49.8684 26.2106 49.8071 26.2353C49.7458 26.2599 49.6902 26.2967 49.6434 26.3434C49.5967 26.3901 49.56 26.4458 49.5353 26.507C49.5107 26.5683 49.4987 26.6339 49.5 26.7L49.47 27.58Z" fill="white"/>
<path d="M68 28.91H67.71V28.04C67.7187 27.9057 67.6761 27.7731 67.5906 27.6691C67.5052 27.5651 67.3834 27.4975 67.25 27.48L60.93 27C60.7143 26.9701 60.5181 26.8596 60.3808 26.6907C60.2434 26.5218 60.1752 26.3072 60.19 26.09V24.89H60.48V26.09C60.4712 26.2243 60.5139 26.3569 60.5993 26.4609C60.6847 26.5649 60.8065 26.6325 60.94 26.65L67.3 27.12C67.5038 27.1563 67.6874 27.2657 67.8163 27.4277C67.9451 27.5897 68.0105 27.7932 68 28V28.91Z" fill="white"/>
<path d="M69.2 29H69.49L69.59 28.14C69.6044 28.0055 69.667 27.8807 69.7663 27.7888C69.8656 27.6969 69.9947 27.644 70.13 27.64L76.49 28.06C76.7064 28.0607 76.9152 27.9798 77.0746 27.8333C77.234 27.6869 77.3323 27.4857 77.35 27.27L77.49 26.08H77.2L77.06 27.27C77.0497 27.4052 76.9881 27.5315 76.8876 27.6226C76.7872 27.7138 76.6556 27.7629 76.52 27.76L70.16 27.34C69.9426 27.3418 69.7337 27.4249 69.5746 27.573C69.4154 27.721 69.3174 27.9233 69.3 28.14L69.2 29Z" fill="white"/>
</g>
<defs>
<linearGradient id="paint0_linear_210_2809" x1="25.3401" y1="96.04" x2="21.2901" y2="97.74" gradientUnits="userSpaceOnUse">
<stop stop-color="#40447E"/>
<stop offset="1" stop-color="#3C3B6B"/>
</linearGradient>
<linearGradient id="paint1_linear_210_2809" x1="19.9299" y1="78.21" x2="15.5399" y2="80.06" gradientUnits="userSpaceOnUse">
<stop stop-color="#40447E"/>
<stop offset="1" stop-color="#3C3B6B"/>
</linearGradient>
<linearGradient id="paint2_linear_210_2809" x1="1.01" y1="79.21" x2="41.7" y2="79.21" gradientUnits="userSpaceOnUse">
<stop stop-color="#40447E"/>
<stop offset="1" stop-color="#3C3B6B"/>
</linearGradient>
<linearGradient id="paint3_linear_210_2809" x1="1.01" y1="94.26" x2="58.6" y2="94.26" gradientUnits="userSpaceOnUse">
<stop stop-color="#40447E"/>
<stop offset="1" stop-color="#3C3B6B"/>
</linearGradient>
<linearGradient id="paint4_linear_210_2809" x1="6.65991" y1="93.79" x2="48.8499" y2="93.79" gradientUnits="userSpaceOnUse">
<stop stop-color="#40447E"/>
<stop offset="1" stop-color="#3C3B6B"/>
</linearGradient>
<linearGradient id="paint5_linear_210_2809" x1="16.79" y1="75.94" x2="30.97" y2="53.58" gradientUnits="userSpaceOnUse">
<stop stop-color="#238DDD"/>
<stop offset="1" stop-color="#95E4F6"/>
</linearGradient>
<linearGradient id="paint6_linear_210_2809" x1="13.55" y1="73.08" x2="25.38" y2="98.72" gradientUnits="userSpaceOnUse">
<stop stop-color="#2367D8"/>
<stop offset="1" stop-color="#95E4F6"/>
</linearGradient>
<linearGradient id="paint7_linear_210_2809" x1="28.05" y1="66.38" x2="39.36" y2="90.9" gradientUnits="userSpaceOnUse">
<stop stop-color="#2367D8"/>
<stop offset="1" stop-color="#95E4F6"/>
</linearGradient>
<linearGradient id="paint8_linear_210_2809" x1="15.7" y1="73.46" x2="26.53" y2="96.93" gradientUnits="userSpaceOnUse">
<stop stop-color="#2367D8"/>
<stop offset="1" stop-color="#95E4F6"/>
</linearGradient>
<linearGradient id="paint9_linear_210_2809" x1="76.15" y1="87.17" x2="76.32" y2="93.49" gradientUnits="userSpaceOnUse">
<stop stop-color="#444B8C"/>
<stop offset="1" stop-color="#26264F"/>
</linearGradient>
<linearGradient id="paint10_linear_210_2809" x1="77.52" y1="79.31" x2="58.95" y2="14.11" gradientUnits="userSpaceOnUse">
<stop stop-color="#444B8C"/>
<stop offset="1" stop-color="#26264F"/>
</linearGradient>
<linearGradient id="paint11_linear_210_2809" x1="58.95" y1="37.15" x2="92.8" y2="73.49" gradientUnits="userSpaceOnUse">
<stop stop-color="#238DDD"/>
<stop offset="1" stop-color="#95E4F6"/>
</linearGradient>
<linearGradient id="paint12_linear_210_2809" x1="47.95" y1="84.62" x2="99.81" y2="84.62" gradientUnits="userSpaceOnUse">
<stop stop-color="#444B8C"/>
<stop offset="1" stop-color="#26264F"/>
</linearGradient>
<linearGradient id="paint13_linear_210_2809" x1="64.0901" y1="57.11" x2="78.9101" y2="89.24" gradientUnits="userSpaceOnUse">
<stop stop-color="#2367D8"/>
<stop offset="1" stop-color="#95E4F6"/>
</linearGradient>
<linearGradient id="paint14_linear_210_2809" x1="82.8799" y1="49.96" x2="96.5399" y2="79.58" gradientUnits="userSpaceOnUse">
<stop stop-color="#2367D8"/>
<stop offset="1" stop-color="#95E4F6"/>
</linearGradient>
<linearGradient id="paint15_linear_210_2809" x1="66.5501" y1="55.99" x2="80.7401" y2="86.75" gradientUnits="userSpaceOnUse">
<stop stop-color="#2367D8"/>
<stop offset="1" stop-color="#95E4F6"/>
</linearGradient>
<linearGradient id="paint16_linear_210_2809" x1="22.8899" y1="20.36" x2="90.6399" y2="20.36" gradientUnits="userSpaceOnUse">
<stop stop-color="#2367D8"/>
<stop offset="1" stop-color="#95E4F6"/>
</linearGradient>
<linearGradient id="paint17_linear_210_2809" x1="72.3801" y1="35.97" x2="97.6701" y2="35.97" gradientUnits="userSpaceOnUse">
<stop stop-color="#2367D8"/>
<stop offset="1" stop-color="#95E4F6"/>
</linearGradient>
</defs>
</svg>
