<svg width="278" height="79" viewBox="0 0 278 79" fill="none" xmlns="http://www.w3.org/2000/svg">
<g clip-path="url(#clip0_614_11)">
<path d="M277.97 41.4956L265.57 62.9723H66.0273V61.5591L67.9366 60.4644C68.6426 60.0464 69.09 59.2701 69.09 58.4341V23.323C69.09 22.4871 68.6227 21.7108 67.9366 21.2928L66.0273 20.1981V19.999H265.57L277.97 41.4956V41.4956Z" fill="url(#paint0_linear_614_11)"/>
<path d="M67.4685 23.8902V59.0212C67.4685 59.8572 67.021 60.6335 66.315 61.0514L64.4157 62.1462L35.9067 78.6169C35.1808 79.0349 34.2958 79.0349 33.5699 78.6169L3.14177 61.0514C2.42581 60.6335 1.98828 59.8572 1.98828 59.0212V23.8902C1.98828 23.0542 2.43575 22.2779 3.14177 21.86L33.55 4.29445C34.2759 3.87646 35.1609 3.87646 35.8868 4.29445L64.3958 20.7752L66.2951 21.8699C67.0111 22.2879 67.4486 23.0642 67.4486 23.9001H67.4585L67.4685 23.8902Z" stroke="url(#paint1_linear_614_11)" stroke-width="4.06" stroke-linecap="round" stroke-linejoin="round"/>
<path d="M30.2891 23.3027H31.8105V24.8254H30.2891V23.3027V23.3027Z" fill="url(#paint2_linear_614_11)"/>
<path d="M50.127 41.6445H51.6484V43.1672H50.127V41.6445Z" fill="url(#paint3_linear_614_11)"/>
<path d="M36.3848 53.8657H37.9062V55.3884H36.3848V53.8657Z" fill="url(#paint4_linear_614_11)"/>
<path d="M30.2891 56.1548H31.8105V57.6775H30.2891V56.1548V56.1548Z" fill="url(#paint5_linear_614_11)"/>
<path d="M18.0781 38.5894H19.5995V40.112H18.0781V38.5894Z" fill="url(#paint6_linear_614_11)"/>
<path d="M36.3848 23.3027H37.9062V24.8254H36.3848V23.3027Z" fill="url(#paint7_linear_614_11)"/>
<path d="M48.5957 35.5342H50.1171V37.0569H48.5957V35.5342Z" fill="url(#paint8_linear_614_11)"/>
<path d="M44.7871 27.9009H46.3085V29.4236H44.7871V27.9009Z" fill="url(#paint9_linear_614_11)"/>
<path d="M21.8965 27.9009H23.4179V29.4236H21.8965V27.9009Z" fill="url(#paint10_linear_614_11)"/>
<path d="M44.7871 49.2881H46.3085V50.8108H44.7871V49.2881Z" fill="url(#paint11_linear_614_11)"/>
<path d="M21.8965 49.2881H23.4179V50.8108H21.8965V49.2881Z" fill="url(#paint12_linear_614_11)"/>
<path d="M34.0189 38.5896C32.766 38.6294 31.7716 39.6843 31.8014 40.9483C31.8313 41.8937 32.4378 42.7197 33.3328 43.0283V44.6903H34.8542V43.0283C36.0475 42.6103 36.6739 41.3065 36.2563 40.1123C35.9281 39.1668 35.0133 38.5498 34.009 38.5797H34.0189V38.5896ZM34.8641 40.8487C34.884 41.2667 34.5559 41.625 34.1382 41.6449C33.9394 41.6449 33.7405 41.5752 33.5913 41.4459C33.2831 41.1573 33.2632 40.6696 33.5516 40.3611C33.6808 40.2018 33.8797 40.1322 34.0786 40.1222H34.1084C34.5161 40.1222 34.8542 40.4407 34.8641 40.8487V40.8487Z" fill="url(#paint13_linear_614_11)"/>
<path d="M37.9161 36.4299V35.5243C37.9161 33.4144 36.2057 31.7026 34.0977 31.7026C31.9896 31.7026 30.2792 33.4144 30.2792 35.5243V36.4299C29.3644 36.7484 28.7578 37.6142 28.7578 38.5796V44.6902C28.7578 45.9541 29.782 46.9891 31.0548 46.9891H37.1604C38.4232 46.9891 39.4574 45.964 39.4574 44.6902V38.5796C39.4574 37.6042 38.8409 36.7484 37.936 36.4299H37.9161V36.4299ZM31.8106 35.5243C31.8106 34.2603 32.8348 33.2253 34.1076 33.2253C35.3804 33.2253 36.4046 34.2504 36.4046 35.5243V36.2806H31.8305V35.5243H31.8205H31.8106ZM37.9161 44.6902C37.9161 45.1082 37.578 45.4465 37.1604 45.4465H31.0548C30.6372 45.4465 30.2991 45.1082 30.2991 44.6902V38.5796C30.2991 38.1616 30.6372 37.8232 31.0548 37.8232H37.1604C37.578 37.8232 37.9161 38.1616 37.9161 38.5796V44.6902Z" fill="url(#paint14_linear_614_11)"/>
<path d="M54.7012 46.2326C54.3631 46.2326 54.025 46.3123 53.7168 46.4615L51.9667 44.71H44.7773V43.1873H48.5957V41.6646H44.7773V40.1419H48.7747L53.1201 37.9724C54.035 38.8482 55.4768 38.8084 56.3519 37.9027C57.227 36.9971 57.1872 35.5441 56.2823 34.6683C55.3774 33.7925 53.9256 33.8323 53.0505 34.7379C52.6428 35.1659 52.4141 35.7331 52.4141 36.3303C52.4141 36.4198 52.4241 36.5194 52.444 36.6089L48.4167 38.6292H44.7773V37.1065H47.0743V35.5839H44.7773V34.0612H48.1482L50.664 31.5433C50.9723 31.7025 51.3004 31.7722 51.6485 31.7722C52.9113 31.7722 53.9455 30.7471 53.9455 29.4733C53.9455 28.1994 52.9213 27.1743 51.6485 27.1743C50.3756 27.1743 49.3514 28.1994 49.3514 29.4733C49.3514 29.8116 49.431 30.15 49.5801 30.4585L47.5118 32.5286H44.7773C44.7773 30.4187 43.0669 28.7069 40.9588 28.7069V26.7364L45.3242 22.3674C45.6324 22.5267 45.9606 22.5963 46.3086 22.5963C47.5715 22.5963 48.6056 21.5713 48.6056 20.2974C48.6056 19.0235 47.5814 17.9984 46.3086 17.9984C45.0358 17.9984 44.0116 19.0235 44.0116 20.2974C44.0116 20.6358 44.0911 20.9741 44.2403 21.2827L39.4374 26.0895V28.697H37.916V26.398H36.3946V28.697H34.8732V23.2134C36.0665 22.7954 36.6929 21.4817 36.2753 20.2874C35.8576 19.0932 34.545 18.4662 33.3518 18.8842C32.1585 19.3022 31.5321 20.6159 31.9497 21.8101C32.1784 22.457 32.6855 22.9745 33.3518 23.2134V28.697H31.8304V26.398H30.309V28.697H28.7876V23.0342L25.5061 19.75C25.6652 19.4415 25.7348 19.1131 25.7348 18.7648C25.7348 17.5008 24.7106 16.4658 23.4378 16.4658C22.165 16.4658 21.1408 17.4909 21.1408 18.7648C21.1408 20.0386 22.165 21.0637 23.4378 21.0637C23.7759 21.0637 24.114 20.9841 24.4222 20.8348L27.2562 23.6712V28.697C25.1481 28.697 23.4378 30.4088 23.4378 32.5186H20.7032L18.6349 30.4486C18.794 30.14 18.8636 29.8116 18.8636 29.4633C18.8636 28.1994 17.8394 27.1644 16.5666 27.1644C15.2938 27.1644 14.2696 28.1894 14.2696 29.4633C14.2696 30.7372 15.2938 31.7622 16.5666 31.7622C16.9047 31.7622 17.2428 31.6826 17.551 31.5333L20.0668 34.0512H23.4378V35.5739H18.5852L14.5878 38.9079C14.2596 38.7287 13.8917 38.6292 13.5138 38.6292C12.251 38.6292 11.2168 39.6543 11.2168 40.9282C11.2168 42.202 12.241 43.2271 13.5138 43.2271C14.7866 43.2271 15.8109 42.202 15.8109 40.9282C15.8109 40.6196 15.7412 40.3211 15.6319 40.0325L19.1321 37.1065H23.4278V38.6292H21.1308V40.1519H23.4278V41.6746H16.5566V43.1972H23.4278V44.7199H19.2017L16.1291 49.3277C16.0197 49.3078 15.9103 49.2979 15.8009 49.2979C14.5182 49.2879 13.474 50.313 13.4641 51.5968C13.4542 52.8807 14.4784 53.9256 15.7611 53.9356C17.0439 53.9455 18.088 52.9205 18.0979 51.6366C18.0979 51.0495 17.8891 50.4922 17.4914 50.0543L20.027 46.2525H23.4278C23.4278 48.3624 25.1382 50.0742 27.2463 50.0742V55.1L24.4123 57.9363C24.104 57.7771 23.7759 57.7074 23.4278 57.7074C22.165 57.7074 21.1308 58.7325 21.1308 60.0064C21.1308 61.2803 22.155 62.3053 23.4278 62.3053C24.7006 62.3053 25.7249 61.2803 25.7249 60.0064C25.7249 59.668 25.6453 59.3296 25.4962 59.0211L28.7776 55.7369V50.0742H30.299V54.6521H31.8204V50.0742H33.3418V56.6028L37.9856 59.5088C37.6972 60.7528 38.4729 62.0167 39.7158 62.2954C40.9588 62.574 42.2217 61.8077 42.5001 60.5637C42.7785 59.3197 42.0129 58.0558 40.7699 57.7771C40.0738 57.6079 39.3479 57.7771 38.801 58.215L34.8732 55.7568V50.0642H36.3946V52.3632H37.916V50.0642H39.4374V56.1748H44.9165C45.3341 57.3691 46.6467 57.9961 47.84 57.5781C49.0332 57.1601 49.6597 55.8464 49.242 54.6521C48.8244 53.4579 47.5118 52.8309 46.3186 53.2489C45.6722 53.4778 45.1551 53.9854 44.9165 54.6521H40.9588V50.0742C43.0669 50.0742 44.7773 48.3624 44.7773 46.2525H51.3203L52.6329 47.5662C52.4738 47.8747 52.4042 48.2032 52.4042 48.5515C52.4042 49.8154 53.4284 50.8504 54.7012 50.8504C55.974 50.8504 56.9982 49.8254 56.9982 48.5515C56.9982 47.2776 55.974 46.2525 54.7012 46.2525H54.6813L54.7012 46.2326ZM54.7012 35.5341C55.1189 35.5341 55.4569 35.8725 55.4569 36.2905C55.4569 36.7085 55.1189 37.0468 54.7012 37.0468C54.2836 37.0468 53.9455 36.7085 53.9455 36.2905C53.9455 35.8725 54.2836 35.5341 54.7012 35.5341ZM51.6485 28.6572C52.0661 28.6572 52.4042 28.9956 52.4042 29.4135C52.4042 29.8315 52.0661 30.1699 51.6485 30.1699C51.2308 30.1699 50.8927 29.8315 50.8927 29.4135C50.8927 28.9956 51.2308 28.6572 51.6485 28.6572ZM46.2987 19.4913C46.7163 19.4913 47.0544 19.8296 47.0544 20.2476C47.0544 20.6656 46.7163 21.004 46.2987 21.004C45.881 21.004 45.5429 20.6656 45.5429 20.2476C45.5429 19.8296 45.881 19.4913 46.2987 19.4913ZM34.0876 20.2476C34.5053 20.2476 34.8434 20.586 34.8434 21.004C34.8434 21.422 34.5053 21.7604 34.0876 21.7604C33.67 21.7604 33.3319 21.422 33.3319 21.004C33.3319 20.586 33.67 20.2476 34.0876 20.2476ZM22.6323 18.725C22.6323 18.307 22.9704 17.9686 23.3881 17.9686C23.8057 17.9686 24.1438 18.307 24.1438 18.725C24.1438 19.1429 23.8057 19.4813 23.3881 19.4813C22.9704 19.4813 22.6323 19.1429 22.6323 18.725ZM15.7611 29.4135C15.7611 28.9956 16.0992 28.6572 16.5169 28.6572C16.9345 28.6572 17.2726 28.9956 17.2726 29.4135C17.2726 29.8315 16.9345 30.1699 16.5169 30.1699C16.0992 30.1699 15.7611 29.8315 15.7611 29.4135V29.4135ZM13.4641 41.6348C13.0465 41.6348 12.7084 41.2964 12.7084 40.8784C12.7084 40.4604 13.0465 40.122 13.4641 40.122C13.8817 40.122 14.2198 40.4604 14.2198 40.8784C14.2198 41.2964 13.8817 41.6348 13.4641 41.6348ZM15.7611 52.3233C15.3435 52.3233 15.0054 51.985 15.0054 51.567C15.0054 51.149 15.3435 50.8106 15.7611 50.8106C16.1788 50.8106 16.5169 51.149 16.5169 51.567C16.5169 51.985 16.1788 52.3233 15.7611 52.3233V52.3233ZM23.3881 60.7329C22.9704 60.7329 22.6323 60.3945 22.6323 59.9765C22.6323 59.5585 22.9704 59.2202 23.3881 59.2202C23.8057 59.2202 24.1438 59.5585 24.1438 59.9765C24.1438 60.3945 23.8057 60.7329 23.3881 60.7329ZM40.1733 59.2102C40.5909 59.2102 40.929 59.5486 40.929 59.9666C40.929 60.3846 40.5909 60.7229 40.1733 60.7229C39.7556 60.7229 39.4175 60.3846 39.4175 59.9666C39.4175 59.5486 39.7556 59.2102 40.1733 59.2102ZM47.0445 54.6322C47.4621 54.6322 47.8002 54.9706 47.8002 55.3886C47.8002 55.8066 47.4621 56.145 47.0445 56.145C46.6268 56.145 46.2887 55.8066 46.2887 55.3886C46.2887 54.9706 46.6268 54.6322 47.0445 54.6322ZM43.226 46.2227C43.226 47.4866 42.2018 48.5216 40.929 48.5216H27.1966C25.9337 48.5216 24.8995 47.4966 24.8995 46.2227V32.4788C24.8995 31.2149 25.9237 30.1799 27.1966 30.1799H40.929C42.1919 30.1799 43.226 31.2049 43.226 32.4788V46.2227ZM54.6813 49.278C54.2637 49.278 53.9256 48.9396 53.9256 48.5216C53.9256 48.1036 54.2637 47.7653 54.6813 47.7653C55.099 47.7653 55.4371 48.1036 55.4371 48.5216C55.4371 48.9396 55.099 49.278 54.6813 49.278Z" fill="url(#paint15_linear_614_11)"/>
<path d="M93.5215 30.7075H95.4506V39.0673H93.5215V30.7075Z" fill="white"/>
<path d="M103.862 35.3949V39.0673H102.002V35.6736C102.002 34.6386 101.525 34.1609 100.7 34.1609C99.8047 34.1609 99.1583 34.7083 99.1583 35.8926V39.0673H97.2988V32.6482H99.0788V33.4045C99.576 32.8572 100.332 32.5586 101.197 32.5586C102.708 32.5586 103.852 33.4443 103.852 35.3949H103.862Z" fill="white"/>
<path d="M109.68 38.7589C109.302 39.0375 108.735 39.1669 108.168 39.1669C106.657 39.1669 105.772 38.3906 105.772 36.858V34.2207H104.777V32.7876H105.772V31.2251H107.631V32.7876H109.232V34.2207H107.631V36.8381C107.631 37.3855 107.93 37.684 108.427 37.684C108.705 37.684 108.974 37.6044 109.182 37.4452L109.68 38.7589V38.7589Z" fill="white"/>
<path d="M114.722 32.5483V34.2701C114.563 34.2601 114.443 34.2502 114.304 34.2502C113.28 34.2502 112.594 34.8075 112.594 36.0415V39.0769H110.734V32.6578H112.514V33.5037C112.972 32.8867 113.727 32.5583 114.722 32.5583V32.5483Z" fill="white"/>
<path d="M115.297 35.8524C115.297 33.9217 116.788 32.5483 118.827 32.5483C120.865 32.5483 122.347 33.9217 122.347 35.8524C122.347 37.7832 120.865 39.1566 118.827 39.1566C116.788 39.1566 115.297 37.7832 115.297 35.8524ZM120.458 35.8524C120.458 34.7378 119.752 34.071 118.827 34.071C117.902 34.071 117.176 34.7378 117.176 35.8524C117.176 36.9671 117.892 37.6339 118.827 37.6339C119.762 37.6339 120.458 36.9671 120.458 35.8524Z" fill="white"/>
<path d="M130.124 30.21V39.0674H128.344V38.3309C127.876 38.8882 127.2 39.1669 126.335 39.1669C124.525 39.1669 123.123 37.8731 123.123 35.8628C123.123 33.8524 124.515 32.5587 126.335 32.5587C127.12 32.5587 127.787 32.8075 128.254 33.3349V30.2199H130.114L130.124 30.21ZM128.304 35.8528C128.304 34.7382 127.588 34.0714 126.673 34.0714C125.758 34.0714 125.022 34.7382 125.022 35.8528C125.022 36.9675 125.738 37.6342 126.673 37.6342C127.608 37.6342 128.304 36.9675 128.304 35.8528Z" fill="white"/>
<path d="M138.308 32.6481V39.0673H136.548V38.3009C136.06 38.8583 135.345 39.1568 134.559 39.1568C132.948 39.1568 131.814 38.2512 131.814 36.2707V32.6382H133.674V35.9921C133.674 37.0669 134.151 37.5446 134.977 37.5446C135.802 37.5446 136.458 36.9972 136.458 35.8129V32.6382H138.318L138.308 32.6481Z" fill="white"/>
<path d="M139.561 35.8524C139.561 33.9217 141.052 32.5483 143.14 32.5483C144.483 32.5483 145.547 33.1355 146.014 34.1805L144.572 34.9568C144.224 34.3497 143.717 34.071 143.13 34.071C142.186 34.071 141.45 34.7279 141.45 35.8524C141.45 36.977 142.186 37.6339 143.13 37.6339C143.717 37.6339 144.224 37.3751 144.572 36.7481L146.014 37.5344C145.547 38.5594 144.483 39.1566 143.14 39.1566C141.052 39.1566 139.561 37.7832 139.561 35.8524Z" fill="white"/>
<path d="M146.531 35.8524C146.531 33.9217 148.023 32.5483 150.111 32.5483C151.453 32.5483 152.517 33.1355 152.985 34.1805L151.543 34.9568C151.195 34.3497 150.688 34.071 150.101 34.071C149.156 34.071 148.421 34.7279 148.421 35.8524C148.421 36.977 149.156 37.6339 150.101 37.6339C150.688 37.6339 151.195 37.3751 151.543 36.7481L152.985 37.5344C152.517 38.5594 151.453 39.1566 150.111 39.1566C148.023 39.1566 146.531 37.7832 146.531 35.8524Z" fill="white"/>
<path d="M153.84 30.7074C153.84 30.1202 154.307 29.6724 154.993 29.6724C155.679 29.6724 156.147 30.1003 156.147 30.6775C156.147 31.2946 155.679 31.7524 154.993 31.7524C154.307 31.7524 153.84 31.2946 153.84 30.7173V30.7074ZM154.069 32.6381H155.928V39.0572H154.069V32.6381Z" fill="white"/>
<path d="M157.182 35.8524C157.182 33.9217 158.673 32.5483 160.712 32.5483C162.75 32.5483 164.232 33.9217 164.232 35.8524C164.232 37.7831 162.75 39.1565 160.712 39.1565C158.673 39.1565 157.182 37.7831 157.182 35.8524ZM162.342 35.8524C162.342 34.7378 161.636 34.071 160.712 34.071C159.787 34.071 159.061 34.7378 159.061 35.8524C159.061 36.9671 159.777 37.6339 160.712 37.6339C161.646 37.6339 162.342 36.9671 162.342 35.8524ZM161.209 30.1001H163.218L161.06 31.8218H159.608L161.219 30.1001H161.209Z" fill="white"/>
<path d="M172.028 35.3949V39.0673H170.168V35.6736C170.168 34.6386 169.691 34.1609 168.866 34.1609C167.971 34.1609 167.324 34.7083 167.324 35.8926V39.0673H165.465V32.6482H167.245V33.4045C167.742 32.8572 168.498 32.5586 169.363 32.5586C170.874 32.5586 172.018 33.4443 172.018 35.3949H172.028Z" fill="white"/>
<path d="M182.767 35.4046V39.067H181.027V38.2708C180.679 38.858 180.013 39.1665 179.068 39.1665C177.567 39.1665 176.672 38.3305 176.672 37.2159C176.672 36.1013 177.467 35.2951 179.426 35.2951H180.908C180.908 34.499 180.431 34.0312 179.426 34.0312C178.75 34.0312 178.044 34.2601 177.577 34.6283L176.911 33.3246C177.617 32.827 178.651 32.5483 179.675 32.5483C181.634 32.5483 182.767 33.454 182.767 35.4046V35.4046ZM180.908 37.0368V36.3799H179.635C178.76 36.3799 178.492 36.6984 178.492 37.1363C178.492 37.604 178.889 37.9125 179.546 37.9125C180.162 37.9125 180.699 37.6239 180.918 37.0368H180.908Z" fill="white"/>
<path d="M187.828 30.21H189.688V39.0674H187.828V30.21Z" fill="white"/>
<path d="M197.096 35.4046V39.067H195.355V38.2708C195.007 38.858 194.341 39.1665 193.396 39.1665C191.895 39.1665 191 38.3305 191 37.2159C191 36.1013 191.796 35.2951 193.754 35.2951H195.236C195.236 34.499 194.759 34.0312 193.754 34.0312C193.078 34.0312 192.372 34.2601 191.905 34.6283L191.239 33.3246C191.945 32.827 192.979 32.5483 194.003 32.5483C195.962 32.5483 197.096 33.454 197.096 35.4046V35.4046ZM195.236 37.0368V36.3799H193.963C193.088 36.3799 192.82 36.6984 192.82 37.1363C192.82 37.604 193.217 37.9125 193.874 37.9125C194.49 37.9125 195.027 37.6239 195.246 37.0368H195.236Z" fill="white"/>
<path d="M92.9043 50.1835C92.9043 48.2528 94.3959 46.8794 96.4841 46.8794C97.8265 46.8794 98.8905 47.4666 99.3578 48.5115L97.916 49.2878C97.568 48.6807 97.0608 48.4021 96.4741 48.4021C95.5295 48.4021 94.7936 49.0589 94.7936 50.1835C94.7936 51.3081 95.5295 51.9649 96.4741 51.9649C97.0608 51.9649 97.568 51.7062 97.916 51.0792L99.3578 51.8654C98.8905 52.8905 97.8265 53.4876 96.4841 53.4876C94.3959 53.4876 92.9043 52.1142 92.9043 50.1835Z" fill="white"/>
<path d="M100.213 45.0482C100.213 44.461 100.68 44.0132 101.366 44.0132C102.053 44.0132 102.52 44.4411 102.52 45.0184C102.52 45.6354 102.053 46.0932 101.366 46.0932C100.68 46.0932 100.213 45.6354 100.213 45.0582V45.0482ZM100.442 46.9789H102.301V53.398H100.442V46.9789Z" fill="white"/>
<path d="M111.022 50.1836C111.022 52.2039 109.63 53.4877 107.83 53.4877C106.975 53.4877 106.279 53.209 105.811 52.6517V53.3882H104.031V44.5308H105.891V47.6458C106.368 47.1183 107.024 46.8695 107.82 46.8695C109.62 46.8695 111.012 48.1633 111.012 50.1736L111.022 50.1836ZM109.132 50.1836C109.132 49.0689 108.426 48.4021 107.502 48.4021C106.577 48.4021 105.871 49.0689 105.871 50.1836C105.871 51.2982 106.577 51.965 107.502 51.965C108.426 51.965 109.132 51.2982 109.132 50.1836Z" fill="white"/>
<path d="M118.509 50.7113H113.656C113.835 51.5074 114.512 52.005 115.496 52.005C116.172 52.005 116.669 51.806 117.107 51.388L118.101 52.4628C117.505 53.1396 116.61 53.4979 115.456 53.4979C113.239 53.4979 111.797 52.1046 111.797 50.1938C111.797 48.2829 113.269 46.8896 115.218 46.8896C117.167 46.8896 118.559 48.1536 118.559 50.2236C118.559 50.3629 118.539 50.5719 118.519 50.7212L118.509 50.7113ZM113.627 49.6265H116.789C116.659 48.8104 116.053 48.2929 115.218 48.2929C114.382 48.2929 113.766 48.8104 113.627 49.6265V49.6265Z" fill="white"/>
<path d="M123.78 46.8794V48.6011C123.621 48.5912 123.502 48.5812 123.363 48.5812C122.339 48.5812 121.652 49.1385 121.652 50.3726V53.408H119.793V46.9889H121.573V47.8348C122.03 47.2178 122.786 46.8893 123.78 46.8893V46.8794Z" fill="white"/>
<path d="M124.287 52.8009L124.904 51.4673C125.48 51.8356 126.345 52.0844 127.131 52.0844C127.986 52.0844 128.314 51.8555 128.314 51.4972C128.314 50.4423 124.436 51.5171 124.436 48.9594C124.436 47.7452 125.53 46.8794 127.409 46.8794C128.294 46.8794 129.269 47.0784 129.876 47.4367L129.259 48.7603C128.623 48.4021 127.996 48.2826 127.409 48.2826C126.574 48.2826 126.216 48.5414 126.216 48.8798C126.216 49.9745 130.094 48.9196 130.094 51.4474C130.094 52.6417 128.981 53.4876 127.061 53.4876C125.978 53.4876 124.884 53.189 124.287 52.791V52.8009Z" fill="white"/>
<path d="M137.493 50.7113H132.641C132.82 51.5074 133.496 52.005 134.48 52.005C135.157 52.005 135.654 51.806 136.091 51.388L137.086 52.4628C136.489 53.1396 135.594 53.4979 134.441 53.4979C132.223 53.4979 130.781 52.1046 130.781 50.1938C130.781 48.2829 132.253 46.8896 134.202 46.8896C136.151 46.8896 137.543 48.1536 137.543 50.2236C137.543 50.3629 137.523 50.5719 137.503 50.7212L137.493 50.7113ZM132.611 49.6265H135.773C135.644 48.8104 135.037 48.2929 134.202 48.2929C133.367 48.2929 132.75 48.8104 132.611 49.6265Z" fill="white"/>
<path d="M145.399 46.9791V52.3234C145.399 54.7119 144.106 55.8066 141.799 55.8066C140.586 55.8066 139.403 55.5081 138.647 54.9209L139.383 53.5873C139.93 54.0252 140.825 54.3138 141.65 54.3138C142.962 54.3138 143.539 53.7167 143.539 52.5622V52.2836C143.052 52.821 142.346 53.0798 141.511 53.0798C139.731 53.0798 138.299 51.8457 138.299 49.9747C138.299 48.1037 139.731 46.8696 141.511 46.8696C142.406 46.8696 143.141 47.1682 143.629 47.7852V46.9592H145.399V46.9791ZM143.559 49.9846C143.559 49.0392 142.853 48.4122 141.879 48.4122C140.904 48.4122 140.188 49.0491 140.188 49.9846C140.188 50.9201 140.904 51.5571 141.879 51.5571C142.853 51.5571 143.559 50.9301 143.559 49.9846Z" fill="white"/>
<path d="M153.591 46.9792V53.3983H151.831V52.632C151.344 53.1893 150.628 53.4879 149.842 53.4879C148.231 53.4879 147.098 52.5822 147.098 50.6018V46.9692H148.957V50.3231C148.957 51.3979 149.434 51.8756 150.26 51.8756C151.085 51.8756 151.741 51.3283 151.741 50.144V46.9692H153.601L153.591 46.9792Z" fill="white"/>
<path d="M159.31 46.8794V48.6011C159.151 48.5912 159.031 48.5812 158.892 48.5812C157.868 48.5812 157.182 49.1385 157.182 50.3726V53.408H155.322V46.9889H157.102V47.8348C157.56 47.2178 158.315 46.8893 159.31 46.8893V46.8794Z" fill="white"/>
<path d="M160.193 45.0482C160.193 44.461 160.661 44.0132 161.347 44.0132C162.033 44.0132 162.5 44.4411 162.5 45.0184C162.5 45.6354 162.033 46.0932 161.347 46.0932C160.661 46.0932 160.193 45.6354 160.193 45.0582V45.0482ZM160.422 46.9789H162.282V53.398H160.422V46.9789Z" fill="white"/>
<path d="M170.545 44.541V53.3984H168.765V52.662C168.298 53.2193 167.622 53.4979 166.757 53.4979C164.947 53.4979 163.545 52.2141 163.545 50.1938C163.545 48.1735 164.937 46.8897 166.757 46.8897C167.542 46.8897 168.209 47.1385 168.676 47.666V44.551H170.535L170.545 44.541ZM168.726 50.1839C168.726 49.0692 168.01 48.4024 167.095 48.4024C166.18 48.4024 165.444 49.0692 165.444 50.1839C165.444 51.2985 166.16 51.9653 167.095 51.9653C168.03 51.9653 168.726 51.2985 168.726 50.1839Z" fill="white"/>
<path d="M177.943 49.7357V53.398H176.203V52.6019C175.855 53.189 175.189 53.4976 174.244 53.4976C172.743 53.4976 171.848 52.6616 171.848 51.5469C171.848 50.4323 172.643 49.6262 174.602 49.6262H176.084C176.084 48.83 175.606 48.3623 174.602 48.3623C173.926 48.3623 173.22 48.5912 172.753 48.9594L172.086 47.6557C172.792 47.1581 173.826 46.8794 174.851 46.8794C176.81 46.8794 177.943 47.785 177.943 49.7357V49.7357ZM176.084 51.3678V50.711H174.811C173.936 50.711 173.667 51.0294 173.667 51.4673C173.667 51.9351 174.065 52.2436 174.721 52.2436C175.338 52.2436 175.875 51.955 176.094 51.3678H176.084Z" fill="white"/>
<path d="M186.237 44.541V53.3984H184.457V52.662C183.989 53.2193 183.313 53.4979 182.448 53.4979C180.638 53.4979 179.236 52.2141 179.236 50.1938C179.236 48.1735 180.628 46.8897 182.448 46.8897C183.234 46.8897 183.9 47.1385 184.367 47.666V44.551H186.227L186.237 44.541ZM184.417 50.1839C184.417 49.0692 183.701 48.4024 182.786 48.4024C181.871 48.4024 181.136 49.0692 181.136 50.1839C181.136 51.2985 181.852 51.9653 182.786 51.9653C183.721 51.9653 184.417 51.2985 184.417 50.1839Z" fill="white"/>
</g>
<defs>
<linearGradient id="paint0_linear_614_11" x1="66.0273" y1="41.4857" x2="277.97" y2="41.4857" gradientUnits="userSpaceOnUse">
<stop stop-color="#172765"/>
<stop offset="0.26" stop-color="#193A75"/>
<stop offset="0.79" stop-color="#216E9F"/>
<stop offset="1" stop-color="#2584B1"/>
</linearGradient>
<linearGradient id="paint1_linear_614_11" x1="-0.0303187" y1="41.4557" x2="69.4871" y2="41.4557" gradientUnits="userSpaceOnUse">
<stop stop-color="#172765"/>
<stop offset="0.26" stop-color="#193A75"/>
<stop offset="0.79" stop-color="#216E9F"/>
<stop offset="1" stop-color="#2584B1"/>
</linearGradient>
<linearGradient id="paint2_linear_614_11" x1="30.2891" y1="24.069" x2="31.8105" y2="24.069" gradientUnits="userSpaceOnUse">
<stop stop-color="#172765"/>
<stop offset="0.26" stop-color="#193A75"/>
<stop offset="0.79" stop-color="#216E9F"/>
<stop offset="1" stop-color="#2584B1"/>
</linearGradient>
<linearGradient id="paint3_linear_614_11" x1="50.127" y1="42.4009" x2="51.6484" y2="42.4009" gradientUnits="userSpaceOnUse">
<stop stop-color="#172765"/>
<stop offset="0.26" stop-color="#193A75"/>
<stop offset="0.79" stop-color="#216E9F"/>
<stop offset="1" stop-color="#2584B1"/>
</linearGradient>
<linearGradient id="paint4_linear_614_11" x1="36.3848" y1="54.6221" x2="37.9161" y2="54.6221" gradientUnits="userSpaceOnUse">
<stop stop-color="#172765"/>
<stop offset="0.26" stop-color="#193A75"/>
<stop offset="0.79" stop-color="#216E9F"/>
<stop offset="1" stop-color="#2584B1"/>
</linearGradient>
<linearGradient id="paint5_linear_614_11" x1="30.2891" y1="56.9111" x2="31.8105" y2="56.9111" gradientUnits="userSpaceOnUse">
<stop stop-color="#172765"/>
<stop offset="0.26" stop-color="#193A75"/>
<stop offset="0.79" stop-color="#216E9F"/>
<stop offset="1" stop-color="#2584B1"/>
</linearGradient>
<linearGradient id="paint6_linear_614_11" x1="18.0781" y1="39.3457" x2="19.5995" y2="39.3457" gradientUnits="userSpaceOnUse">
<stop stop-color="#172765"/>
<stop offset="0.26" stop-color="#193A75"/>
<stop offset="0.79" stop-color="#216E9F"/>
<stop offset="1" stop-color="#2584B1"/>
</linearGradient>
<linearGradient id="paint7_linear_614_11" x1="36.3848" y1="24.069" x2="37.9161" y2="24.069" gradientUnits="userSpaceOnUse">
<stop stop-color="#172765"/>
<stop offset="0.26" stop-color="#193A75"/>
<stop offset="0.79" stop-color="#216E9F"/>
<stop offset="1" stop-color="#2584B1"/>
</linearGradient>
<linearGradient id="paint8_linear_614_11" x1="48.5957" y1="36.2905" x2="50.1271" y2="36.2905" gradientUnits="userSpaceOnUse">
<stop stop-color="#172765"/>
<stop offset="0.26" stop-color="#193A75"/>
<stop offset="0.79" stop-color="#216E9F"/>
<stop offset="1" stop-color="#2584B1"/>
</linearGradient>
<linearGradient id="paint9_linear_614_11" x1="44.7871" y1="28.6572" x2="46.3185" y2="28.6572" gradientUnits="userSpaceOnUse">
<stop stop-color="#172765"/>
<stop offset="0.26" stop-color="#193A75"/>
<stop offset="0.79" stop-color="#216E9F"/>
<stop offset="1" stop-color="#2584B1"/>
</linearGradient>
<linearGradient id="paint10_linear_614_11" x1="21.8865" y1="28.6572" x2="23.4079" y2="28.6572" gradientUnits="userSpaceOnUse">
<stop stop-color="#172765"/>
<stop offset="0.26" stop-color="#193A75"/>
<stop offset="0.79" stop-color="#216E9F"/>
<stop offset="1" stop-color="#2584B1"/>
</linearGradient>
<linearGradient id="paint11_linear_614_11" x1="44.7871" y1="50.0444" x2="46.3185" y2="50.0444" gradientUnits="userSpaceOnUse">
<stop stop-color="#172765"/>
<stop offset="0.26" stop-color="#193A75"/>
<stop offset="0.79" stop-color="#216E9F"/>
<stop offset="1" stop-color="#2584B1"/>
</linearGradient>
<linearGradient id="paint12_linear_614_11" x1="21.8865" y1="50.0444" x2="23.4079" y2="50.0444" gradientUnits="userSpaceOnUse">
<stop stop-color="#172765"/>
<stop offset="0.26" stop-color="#193A75"/>
<stop offset="0.79" stop-color="#216E9F"/>
<stop offset="1" stop-color="#2584B1"/>
</linearGradient>
<linearGradient id="paint13_linear_614_11" x1="31.8014" y1="41.635" x2="36.3955" y2="41.635" gradientUnits="userSpaceOnUse">
<stop stop-color="#172765"/>
<stop offset="0.26" stop-color="#193A75"/>
<stop offset="0.79" stop-color="#216E9F"/>
<stop offset="1" stop-color="#2584B1"/>
</linearGradient>
<linearGradient id="paint14_linear_614_11" x1="28.7578" y1="39.3459" x2="39.4375" y2="39.3459" gradientUnits="userSpaceOnUse">
<stop stop-color="#172765"/>
<stop offset="0.26" stop-color="#193A75"/>
<stop offset="0.79" stop-color="#216E9F"/>
<stop offset="1" stop-color="#2584B1"/>
</linearGradient>
<linearGradient id="paint15_linear_614_11" x1="11.2566" y1="39.4055" x2="57.0181" y2="39.4055" gradientUnits="userSpaceOnUse">
<stop stop-color="#172765"/>
<stop offset="0.26" stop-color="#193A75"/>
<stop offset="0.79" stop-color="#216E9F"/>
<stop offset="1" stop-color="#2584B1"/>
</linearGradient>
<clipPath id="clip0_614_11">
<rect width="278" height="79" fill="white"/>
</clipPath>
</defs>
</svg>
