<svg width="280" height="80" viewBox="0 0 280 80" fill="none" xmlns="http://www.w3.org/2000/svg">
<path d="M279.57 39.7304L267.1 61.3104H66.4297V59.8904L68.3497 58.7904C69.0597 58.3704 69.5097 57.5904 69.5097 56.7504V21.4704C69.5097 20.6304 69.0397 19.8504 68.3497 19.4304L66.4297 18.3304V18.1304H267.1L279.57 39.7304V39.7304Z" fill="url(#paint0_linear_538_4)"/>
<path d="M67.8793 22.0402V57.3402C67.8793 58.1802 67.4293 58.9602 66.7193 59.3802L64.8093 60.4802L36.1393 77.0302C35.4093 77.4502 34.5193 77.4502 33.7893 77.0302L3.1893 59.3802C2.4693 58.9602 2.0293 58.1802 2.0293 57.3402V22.0402C2.0293 21.2002 2.4793 20.4202 3.1893 20.0002L33.7693 2.35016C34.4993 1.93016 35.3893 1.93016 36.1193 2.35016L64.7893 18.9102L66.6993 20.0102C67.4193 20.4302 67.8593 21.2102 67.8593 22.0502H67.8693L67.8793 22.0402Z" stroke="url(#paint1_linear_538_4)" stroke-width="4.06" stroke-linecap="round" stroke-linejoin="round"/>
<path d="M30.4883 21.4502H32.0183V22.9802H30.4883V21.4502V21.4502Z" fill="url(#paint2_linear_538_4)"/>
<path d="M50.4395 39.8799H51.9695V41.4099H50.4395V39.8799Z" fill="url(#paint3_linear_538_4)"/>
<path d="M36.6191 52.1602H38.1491V53.6902H36.6191V52.1602Z" fill="url(#paint4_linear_538_4)"/>
<path d="M30.4883 54.46H32.0183V55.99H30.4883V54.46V54.46Z" fill="url(#paint5_linear_538_4)"/>
<path d="M18.209 36.8101H19.739V38.3401H18.209V36.8101Z" fill="url(#paint6_linear_538_4)"/>
<path d="M36.6191 21.4502H38.1491V22.9802H36.6191V21.4502Z" fill="url(#paint7_linear_538_4)"/>
<path d="M48.8984 33.7402H50.4284V35.2702H48.8984V33.7402Z" fill="url(#paint8_linear_538_4)"/>
<path d="M45.0684 26.0703H46.5984V27.6003H45.0684V26.0703Z" fill="url(#paint9_linear_538_4)"/>
<path d="M22.0488 26.0703H23.5788V27.6003H22.0488V26.0703Z" fill="url(#paint10_linear_538_4)"/>
<path d="M45.0684 47.5601H46.5984V49.0901H45.0684V47.5601Z" fill="url(#paint11_linear_538_4)"/>
<path d="M22.0488 47.5601H23.5788V49.0901H22.0488V47.5601Z" fill="url(#paint12_linear_538_4)"/>
<path d="M34.2385 36.8099C32.9785 36.8499 31.9785 37.9099 32.0085 39.1799C32.0385 40.1299 32.6485 40.9599 33.5485 41.2699V42.9399H35.0785V41.2699C36.2785 40.8499 36.9085 39.5399 36.4885 38.3399C36.1585 37.3899 35.2385 36.7699 34.2285 36.7999H34.2385V36.8099ZM35.0885 39.0799C35.1085 39.4999 34.7785 39.8599 34.3585 39.8799C34.1585 39.8799 33.9585 39.8099 33.8085 39.6799C33.4985 39.3899 33.4785 38.8999 33.7685 38.5899C33.8985 38.4299 34.0985 38.3599 34.2985 38.3499H34.3285C34.7385 38.3499 35.0785 38.6699 35.0885 39.0799V39.0799Z" fill="url(#paint13_linear_538_4)"/>
<path d="M38.1592 34.6401V33.7301C38.1592 31.6101 36.4392 29.8901 34.3192 29.8901C32.1992 29.8901 30.4792 31.6101 30.4792 33.7301V34.6401C29.5592 34.9601 28.9492 35.8301 28.9492 36.8001V42.9401C28.9492 44.2101 29.9792 45.2501 31.2592 45.2501H37.3992C38.6692 45.2501 39.7092 44.2201 39.7092 42.9401V36.8001C39.7092 35.8201 39.0892 34.9601 38.1792 34.6401H38.1592V34.6401ZM32.0192 33.7301C32.0192 32.4601 33.0492 31.4201 34.3292 31.4201C35.6092 31.4201 36.6392 32.4501 36.6392 33.7301V34.4901H32.0392V33.7301H32.0292H32.0192ZM38.1592 42.9401C38.1592 43.3601 37.8192 43.7001 37.3992 43.7001H31.2592C30.8392 43.7001 30.4992 43.3601 30.4992 42.9401V36.8001C30.4992 36.3801 30.8392 36.0401 31.2592 36.0401H37.3992C37.8192 36.0401 38.1592 36.3801 38.1592 36.8001V42.9401Z" fill="url(#paint14_linear_538_4)"/>
<path d="M55.0386 44.4901C54.6986 44.4901 54.3586 44.5701 54.0486 44.7201L52.2886 42.9601H45.0586V41.4301H48.8986V39.9001H45.0586V38.3701H49.0786L53.4486 36.1901C54.3686 37.0701 55.8186 37.0301 56.6986 36.1201C57.5786 35.2101 57.5386 33.7501 56.6286 32.8701C55.7186 31.9901 54.2586 32.0301 53.3786 32.9401C52.9686 33.3701 52.7386 33.9401 52.7386 34.5401C52.7386 34.6301 52.7486 34.7301 52.7686 34.8201L48.7186 36.8501H45.0586V35.3201H47.3686V33.7901H45.0586V32.2601H48.4486L50.9786 29.7301C51.2886 29.8901 51.6186 29.9601 51.9686 29.9601C53.2386 29.9601 54.2786 28.9301 54.2786 27.6501C54.2786 26.3701 53.2486 25.3401 51.9686 25.3401C50.6886 25.3401 49.6586 26.3701 49.6586 27.6501C49.6586 27.9901 49.7386 28.3301 49.8886 28.6401L47.8086 30.7201H45.0586C45.0586 28.6001 43.3386 26.8801 41.2186 26.8801V24.9001L45.6086 20.5101C45.9186 20.6701 46.2486 20.7401 46.5986 20.7401C47.8686 20.7401 48.9086 19.7101 48.9086 18.4301C48.9086 17.1501 47.8786 16.1201 46.5986 16.1201C45.3186 16.1201 44.2886 17.1501 44.2886 18.4301C44.2886 18.7701 44.3686 19.1101 44.5186 19.4201L39.6886 24.2501V26.8701H38.1586V24.5601H36.6286V26.8701H35.0986V21.3601C36.2986 20.9401 36.9286 19.6201 36.5086 18.4201C36.0886 17.2201 34.7686 16.5901 33.5686 17.0101C32.3686 17.4301 31.7386 18.7501 32.1586 19.9501C32.3886 20.6001 32.8986 21.1201 33.5686 21.3601V26.8701H32.0386V24.5601H30.5086V26.8701H28.9786V21.1801L25.6786 17.8801C25.8386 17.5701 25.9086 17.2401 25.9086 16.8901C25.9086 15.6201 24.8786 14.5801 23.5986 14.5801C22.3186 14.5801 21.2886 15.6101 21.2886 16.8901C21.2886 18.1701 22.3186 19.2001 23.5986 19.2001C23.9386 19.2001 24.2786 19.1201 24.5886 18.9701L27.4386 21.8201V26.8701C25.3186 26.8701 23.5986 28.5901 23.5986 30.7101H20.8486L18.7686 28.6301C18.9286 28.3201 18.9986 27.9901 18.9986 27.6401C18.9986 26.3701 17.9686 25.3301 16.6886 25.3301C15.4086 25.3301 14.3786 26.3601 14.3786 27.6401C14.3786 28.9201 15.4086 29.9501 16.6886 29.9501C17.0286 29.9501 17.3686 29.8701 17.6786 29.7201L20.2086 32.2501H23.5986V33.7801H18.7186L14.6986 37.1301C14.3686 36.9501 13.9986 36.8501 13.6186 36.8501C12.3486 36.8501 11.3086 37.8801 11.3086 39.1601C11.3086 40.4401 12.3386 41.4701 13.6186 41.4701C14.8986 41.4701 15.9286 40.4401 15.9286 39.1601C15.9286 38.8501 15.8586 38.5501 15.7486 38.2601L19.2686 35.3201H23.5886V36.8501H21.2786V38.3801H23.5886V39.9101H16.6786V41.4401H23.5886V42.9701H19.3386L16.2486 47.6001C16.1386 47.5801 16.0286 47.5701 15.9186 47.5701C14.6286 47.5601 13.5786 48.5901 13.5686 49.8801C13.5586 51.1701 14.5886 52.2201 15.8786 52.2301C17.1686 52.2401 18.2186 51.2101 18.2286 49.9201C18.2286 49.3301 18.0186 48.7701 17.6186 48.3301L20.1686 44.5101H23.5886C23.5886 46.6301 25.3086 48.3501 27.4286 48.3501V53.4001L24.5786 56.2501C24.2686 56.0901 23.9386 56.0201 23.5886 56.0201C22.3186 56.0201 21.2786 57.0501 21.2786 58.3301C21.2786 59.6101 22.3086 60.6401 23.5886 60.6401C24.8686 60.6401 25.8986 59.6101 25.8986 58.3301C25.8986 57.9901 25.8186 57.6501 25.6686 57.3401L28.9686 54.0401V48.3501H30.4986V52.9501H32.0286V48.3501H33.5586V54.9101L38.2286 57.8301C37.9386 59.0801 38.7186 60.3501 39.9686 60.6301C41.2186 60.9101 42.4886 60.1401 42.7686 58.8901C43.0486 57.6401 42.2786 56.3701 41.0286 56.0901C40.3286 55.9201 39.5986 56.0901 39.0486 56.5301L35.0986 54.0601V48.3401H36.6286V50.6501H38.1586V48.3401H39.6886V54.4801H45.1986C45.6186 55.6801 46.9386 56.3101 48.1386 55.8901C49.3386 55.4701 49.9686 54.1501 49.5486 52.9501C49.1286 51.7501 47.8086 51.1201 46.6086 51.5401C45.9586 51.7701 45.4386 52.2801 45.1986 52.9501H41.2186V48.3501C43.3386 48.3501 45.0586 46.6301 45.0586 44.5101H51.6386L52.9586 45.8301C52.7986 46.1401 52.7286 46.4701 52.7286 46.8201C52.7286 48.0901 53.7586 49.1301 55.0386 49.1301C56.3186 49.1301 57.3486 48.1001 57.3486 46.8201C57.3486 45.5401 56.3186 44.5101 55.0386 44.5101H55.0186L55.0386 44.4901ZM55.0386 33.7401C55.4586 33.7401 55.7986 34.0801 55.7986 34.5001C55.7986 34.9201 55.4586 35.2601 55.0386 35.2601C54.6186 35.2601 54.2786 34.9201 54.2786 34.5001C54.2786 34.0801 54.6186 33.7401 55.0386 33.7401ZM51.9686 26.8301C52.3886 26.8301 52.7286 27.1701 52.7286 27.5901C52.7286 28.0101 52.3886 28.3501 51.9686 28.3501C51.5486 28.3501 51.2086 28.0101 51.2086 27.5901C51.2086 27.1701 51.5486 26.8301 51.9686 26.8301ZM46.5886 17.6201C47.0086 17.6201 47.3486 17.9601 47.3486 18.3801C47.3486 18.8001 47.0086 19.1401 46.5886 19.1401C46.1686 19.1401 45.8286 18.8001 45.8286 18.3801C45.8286 17.9601 46.1686 17.6201 46.5886 17.6201ZM34.3086 18.3801C34.7286 18.3801 35.0686 18.7201 35.0686 19.1401C35.0686 19.5601 34.7286 19.9001 34.3086 19.9001C33.8886 19.9001 33.5486 19.5601 33.5486 19.1401C33.5486 18.7201 33.8886 18.3801 34.3086 18.3801ZM22.7886 16.8501C22.7886 16.4301 23.1286 16.0901 23.5486 16.0901C23.9686 16.0901 24.3086 16.4301 24.3086 16.8501C24.3086 17.2701 23.9686 17.6101 23.5486 17.6101C23.1286 17.6101 22.7886 17.2701 22.7886 16.8501ZM15.8786 27.5901C15.8786 27.1701 16.2186 26.8301 16.6386 26.8301C17.0586 26.8301 17.3986 27.1701 17.3986 27.5901C17.3986 28.0101 17.0586 28.3501 16.6386 28.3501C16.2186 28.3501 15.8786 28.0101 15.8786 27.5901V27.5901ZM13.5686 39.8701C13.1486 39.8701 12.8086 39.5301 12.8086 39.1101C12.8086 38.6901 13.1486 38.3501 13.5686 38.3501C13.9886 38.3501 14.3286 38.6901 14.3286 39.1101C14.3286 39.5301 13.9886 39.8701 13.5686 39.8701ZM15.8786 50.6101C15.4586 50.6101 15.1186 50.2701 15.1186 49.8501C15.1186 49.4301 15.4586 49.0901 15.8786 49.0901C16.2986 49.0901 16.6386 49.4301 16.6386 49.8501C16.6386 50.2701 16.2986 50.6101 15.8786 50.6101V50.6101ZM23.5486 59.0601C23.1286 59.0601 22.7886 58.7201 22.7886 58.3001C22.7886 57.8801 23.1286 57.5401 23.5486 57.5401C23.9686 57.5401 24.3086 57.8801 24.3086 58.3001C24.3086 58.7201 23.9686 59.0601 23.5486 59.0601ZM40.4286 57.5301C40.8486 57.5301 41.1886 57.8701 41.1886 58.2901C41.1886 58.7101 40.8486 59.0501 40.4286 59.0501C40.0086 59.0501 39.6686 58.7101 39.6686 58.2901C39.6686 57.8701 40.0086 57.5301 40.4286 57.5301ZM47.3386 52.9301C47.7586 52.9301 48.0986 53.2701 48.0986 53.6901C48.0986 54.1101 47.7586 54.4501 47.3386 54.4501C46.9186 54.4501 46.5786 54.1101 46.5786 53.6901C46.5786 53.2701 46.9186 52.9301 47.3386 52.9301ZM43.4986 44.4801C43.4986 45.7501 42.4686 46.7901 41.1886 46.7901H27.3786C26.1086 46.7901 25.0686 45.7601 25.0686 44.4801V30.6701C25.0686 29.4001 26.0986 28.3601 27.3786 28.3601H41.1886C42.4586 28.3601 43.4986 29.3901 43.4986 30.6701V44.4801ZM55.0186 47.5501C54.5986 47.5501 54.2586 47.2101 54.2586 46.7901C54.2586 46.3701 54.5986 46.0301 55.0186 46.0301C55.4386 46.0301 55.7786 46.3701 55.7786 46.7901C55.7786 47.2101 55.4386 47.5501 55.0186 47.5501Z" fill="url(#paint15_linear_538_4)"/>
<path d="M86.5 32.5304C86.5 30.0004 88.44 28.1904 91.06 28.1904C92.51 28.1904 93.72 28.7204 94.52 29.6804L93.28 30.8304C92.71 30.1904 92.01 29.8404 91.17 29.8404C89.6 29.8404 88.49 30.9504 88.49 32.5204C88.49 34.0904 89.61 35.2004 91.17 35.2004C92.01 35.2004 92.72 34.8704 93.28 34.2004L94.52 35.3504C93.73 36.3304 92.51 36.8504 91.05 36.8504C88.45 36.8504 86.51 35.0404 86.51 32.5104V32.5304H86.5Z" fill="white"/>
<path d="M94.9805 33.5004C94.9805 31.5604 96.4805 30.1704 98.5305 30.1704C100.58 30.1704 102.07 31.5404 102.07 33.5004C102.07 35.4604 100.58 36.8304 98.5305 36.8304C96.4805 36.8304 94.9805 35.4604 94.9805 33.5004ZM100.17 33.5004C100.17 32.3804 99.4605 31.7204 98.5305 31.7204C97.6005 31.7204 96.8805 32.4004 96.8805 33.5004C96.8805 34.6004 97.6005 35.2804 98.5305 35.2804C99.4605 35.2804 100.17 34.6004 100.17 33.5004Z" fill="white"/>
<path d="M109.911 33.0404V36.7304H108.041V33.3304C108.041 32.2904 107.561 31.8104 106.731 31.8104C105.831 31.8104 105.181 32.3604 105.181 33.5504V36.7404H103.311V30.2904H105.091V31.0404C105.591 30.4904 106.351 30.1904 107.231 30.1904C108.751 30.1904 109.901 31.0804 109.901 33.0504H109.911V33.0404Z" fill="white"/>
<path d="M111.199 33.5004C111.199 31.5604 112.699 30.1704 114.799 30.1704C116.149 30.1704 117.229 30.7604 117.689 31.8104L116.239 32.5904C115.899 31.9804 115.379 31.7004 114.789 31.7004C113.849 31.7004 113.089 32.3504 113.089 33.4804C113.089 34.6104 113.829 35.2604 114.789 35.2604C115.379 35.2604 115.899 34.9904 116.239 34.3704L117.689 35.1604C117.219 36.1904 116.159 36.7904 114.799 36.7904C112.709 36.7904 111.199 35.4204 111.199 33.4604V33.4804V33.5004Z" fill="white"/>
<path d="M118.529 28.3403C118.529 27.7503 118.999 27.3003 119.689 27.3003C120.379 27.3003 120.849 27.7303 120.849 28.3103C120.849 28.9303 120.379 29.3903 119.689 29.3903C118.999 29.3903 118.529 28.9403 118.529 28.3503V28.3403ZM118.759 30.2803H120.629V36.7303H118.759V30.2803V30.2803Z" fill="white"/>
<path d="M128.65 34.0304H123.77C123.95 34.8304 124.63 35.3304 125.62 35.3304C126.31 35.3304 126.79 35.1304 127.24 34.7104L128.24 35.7904C127.64 36.4804 126.74 36.8304 125.58 36.8304C123.35 36.8304 121.9 35.4204 121.9 33.5004C121.9 31.5804 123.37 30.1704 125.34 30.1704C127.31 30.1704 128.7 31.4404 128.7 33.5204C128.7 33.6604 128.68 33.8604 128.67 34.0204H128.66L128.65 34.0304ZM123.75 32.9504H126.93C126.8 32.1304 126.19 31.6104 125.34 31.6104C124.49 31.6104 123.88 32.1304 123.74 32.9504H123.75Z" fill="white"/>
<path d="M136.53 33.0404V36.7304H134.66V33.3304C134.66 32.2904 134.18 31.8104 133.35 31.8104C132.45 31.8104 131.8 32.3604 131.8 33.5504V36.7404H129.93V30.2904H131.71V31.0404C132.21 30.4904 132.97 30.1904 133.85 30.1904C135.37 30.1904 136.52 31.0804 136.52 33.0504H136.53V33.0404Z" fill="white"/>
<path d="M142.389 36.4201C141.999 36.7001 141.449 36.8301 140.869 36.8301C139.349 36.8301 138.459 36.0501 138.459 34.5101V31.8601H137.459V30.4201H138.459V28.8501H140.329V30.4201H141.939V31.8601H140.329V34.4901C140.329 35.0401 140.629 35.3401 141.129 35.3401C141.409 35.3401 141.679 35.2501 141.879 35.1001L142.379 36.4201H142.389Z" fill="white"/>
<path d="M143.209 28.3403C143.209 27.7503 143.679 27.3003 144.369 27.3003C145.059 27.3003 145.529 27.7303 145.529 28.3103C145.529 28.9303 145.059 29.3903 144.369 29.3903C143.679 29.3903 143.209 28.9403 143.209 28.3503V28.3403ZM143.439 30.2803H145.309V36.7303H143.439V30.2803V30.2803Z" fill="white"/>
<path d="M152.359 35.2903V36.7303H146.609V35.6003L149.889 31.7203H146.689V30.2803H152.249V31.4103L148.969 35.2903H152.359V35.2903Z" fill="white"/>
<path d="M159.27 33.0504V36.7304H157.52V35.9304C157.18 36.5204 156.5 36.8304 155.56 36.8304C154.05 36.8304 153.15 35.9904 153.15 34.8804C153.15 33.7704 153.95 32.9504 155.92 32.9504H157.41C157.41 32.1504 156.93 31.6804 155.92 31.6804C155.23 31.6804 154.53 31.9104 154.06 32.2804L153.38 30.9704C154.09 30.4704 155.13 30.1904 156.16 30.1904C158.12 30.1904 159.26 31.1004 159.26 33.0604L159.27 33.0504ZM157.4 34.6804V34.0304H156.11C155.23 34.0304 154.96 34.3504 154.96 34.7804C154.96 35.2504 155.36 35.5604 156.01 35.5604C156.66 35.5604 157.17 35.2704 157.38 34.6804H157.39H157.4Z" fill="white"/>
<path d="M160.551 33.5004C160.551 31.5604 162.051 30.1704 164.151 30.1704C165.501 30.1704 166.581 30.7604 167.041 31.8104L165.591 32.5904C165.251 31.9804 164.731 31.7004 164.141 31.7004C163.201 31.7004 162.441 32.3504 162.441 33.4804C162.441 34.6104 163.181 35.2604 164.141 35.2604C164.731 35.2604 165.251 34.9904 165.591 34.3704L167.041 35.1604C166.571 36.1904 165.511 36.7904 164.151 36.7904C162.061 36.7904 160.551 35.4204 160.551 33.4604V33.4804V33.5004Z" fill="white"/>
<path d="M167.891 28.3403C167.891 27.7503 168.361 27.3003 169.051 27.3003C169.741 27.3003 170.211 27.7303 170.211 28.3103C170.211 28.9303 169.741 29.3903 169.051 29.3903C168.361 29.3903 167.891 28.9403 167.891 28.3503V28.3403ZM168.121 30.2803H169.991V36.7303H168.121V30.2803V30.2803Z" fill="white"/>
<path d="M171.25 33.5005C171.25 31.5605 172.75 30.1705 174.8 30.1705C176.85 30.1705 178.34 31.5405 178.34 33.5005C178.34 35.4605 176.85 36.8305 174.8 36.8305C172.75 36.8305 171.25 35.4605 171.25 33.5005ZM176.44 33.5005C176.44 32.3805 175.73 31.7205 174.8 31.7205C173.87 31.7205 173.15 32.4005 173.15 33.5005C173.15 34.6005 173.87 35.2805 174.8 35.2805C175.73 35.2805 176.44 34.6005 176.44 33.5005ZM175.3 27.7305H177.32L175.15 29.4605H173.69L175.31 27.7305H175.3Z" fill="white"/>
<path d="M186.18 33.0404V36.7304H184.31V33.3304C184.31 32.2904 183.83 31.8104 183 31.8104C182.1 31.8104 181.45 32.3604 181.45 33.5504V36.7404H179.58V30.2904H181.36V31.0404C181.86 30.4904 182.62 30.1904 183.5 30.1904C185.02 30.1904 186.17 31.0804 186.17 33.0504H186.18V33.0404Z" fill="white"/>
<path d="M190.629 36.1304L191.249 34.7904C191.829 35.1704 192.699 35.4104 193.489 35.4104C194.349 35.4104 194.679 35.1804 194.679 34.8204C194.679 33.7704 190.779 34.8404 190.779 32.2704C190.779 31.0504 191.889 30.1904 193.759 30.1904C194.649 30.1904 195.629 30.3904 196.239 30.7604L195.619 32.0904C194.989 31.7404 194.349 31.6104 193.759 31.6104C192.919 31.6104 192.559 31.8804 192.559 32.2104C192.559 33.3204 196.459 32.2404 196.459 34.7904C196.459 35.9904 195.339 36.8404 193.409 36.8404C192.319 36.8404 191.219 36.5404 190.619 36.1404H190.629V36.1304Z" fill="white"/>
<path d="M197.141 33.5004C197.141 31.5604 198.641 30.1704 200.691 30.1704C202.741 30.1704 204.231 31.5404 204.231 33.5004C204.231 35.4604 202.741 36.8304 200.691 36.8304C198.641 36.8304 197.141 35.4604 197.141 33.5004ZM202.331 33.5004C202.331 32.3804 201.621 31.7204 200.691 31.7204C199.761 31.7204 199.041 32.4004 199.041 33.5004C199.041 34.6004 199.761 35.2804 200.691 35.2804C201.621 35.2804 202.331 34.6004 202.331 33.5004Z" fill="white"/>
<path d="M212.5 33.5001C212.5 35.5301 211.09 36.8301 209.29 36.8301C208.43 36.8301 207.73 36.5501 207.26 35.9901V36.7301H205.48V27.8301H207.35V30.9601C207.83 30.4301 208.49 30.1801 209.29 30.1801C211.1 30.1801 212.5 31.4801 212.5 33.5101V33.5001ZM210.6 33.5001C210.6 32.3801 209.89 31.7201 208.96 31.7201C208.03 31.7201 207.32 32.4001 207.32 33.5001C207.32 34.6001 208.03 35.2801 208.96 35.2801C209.89 35.2801 210.6 34.6001 210.6 33.5001Z" fill="white"/>
<path d="M217.76 30.1802V31.9102C217.6 31.9002 217.48 31.8902 217.34 31.8902C216.31 31.8902 215.62 32.4602 215.62 33.6902V36.7402H213.75V30.2902H215.53V31.1402C215.98 30.5202 216.75 30.2002 217.75 30.2002H217.76V30.1802Z" fill="white"/>
<path d="M225.09 34.0304H220.21C220.39 34.8304 221.07 35.3304 222.06 35.3304C222.75 35.3304 223.23 35.1304 223.68 34.7104L224.68 35.7904C224.08 36.4804 223.18 36.8304 222.02 36.8304C219.79 36.8304 218.34 35.4204 218.34 33.5004C218.34 31.5804 219.81 30.1704 221.78 30.1704C223.75 30.1704 225.14 31.4404 225.14 33.5204C225.14 33.6604 225.12 33.8604 225.11 34.0204H225.1L225.09 34.0304ZM220.19 32.9504H223.37C223.24 32.1304 222.63 31.6104 221.79 31.6104C220.95 31.6104 220.33 32.1304 220.19 32.9504Z" fill="white"/>
<path d="M86.4199 47.8901C86.4199 45.9501 87.9199 44.5601 90.0199 44.5601C91.3699 44.5601 92.4499 45.1501 92.9099 46.2001L91.4599 46.9801C91.1199 46.3701 90.5999 46.0901 90.0099 46.0901C89.0699 46.0901 88.3099 46.7401 88.3099 47.8701C88.3099 49.0001 89.0499 49.6501 90.0099 49.6501C90.5999 49.6501 91.1199 49.3801 91.4599 48.7601L92.9099 49.5501C92.4399 50.5801 91.3799 51.1801 90.0199 51.1801C87.9299 51.1801 86.4199 49.8101 86.4199 47.8501V47.8701V47.8901Z" fill="white"/>
<path d="M93.7598 42.7202C93.7598 42.1302 94.2298 41.6802 94.9198 41.6802C95.6098 41.6802 96.0798 42.1102 96.0798 42.6902C96.0798 43.3102 95.6098 43.7702 94.9198 43.7702C94.2298 43.7702 93.7598 43.3202 93.7598 42.7302V42.7202ZM93.9898 44.6602H95.8598V51.1102H93.9898V44.6602Z" fill="white"/>
<path d="M104.62 47.8902C104.62 49.9202 103.21 51.2202 101.41 51.2202C100.55 51.2202 99.8496 50.9402 99.3796 50.3802V51.1202H97.5996V42.2202H99.4696V45.3502C99.9496 44.8202 100.61 44.5702 101.41 44.5702C103.22 44.5702 104.62 45.8702 104.62 47.9002V47.8902ZM102.72 47.8902C102.72 46.7702 102.01 46.1102 101.08 46.1102C100.15 46.1102 99.4396 46.7902 99.4396 47.8902C99.4396 48.9902 100.15 49.6702 101.08 49.6702C102.01 49.6702 102.72 48.9902 102.72 47.8902Z" fill="white"/>
<path d="M112.15 48.4201H107.27C107.45 49.2201 108.13 49.7201 109.12 49.7201C109.81 49.7201 110.29 49.5201 110.74 49.1001L111.74 50.1801C111.14 50.8701 110.24 51.2201 109.08 51.2201C106.85 51.2201 105.4 49.8101 105.4 47.8901C105.4 45.9701 106.87 44.5601 108.84 44.5601C110.81 44.5601 112.2 45.8301 112.2 47.9101C112.2 48.0501 112.18 48.2501 112.17 48.4101H112.16L112.15 48.4201ZM107.25 47.3401H110.43C110.3 46.5201 109.69 46.0001 108.84 46.0001C107.99 46.0001 107.38 46.5201 107.24 47.3401H107.25Z" fill="white"/>
<path d="M117.44 44.5801V46.3101C117.28 46.3001 117.16 46.2901 117.02 46.2901C115.99 46.2901 115.3 46.8601 115.3 48.0901V51.1401H113.43V44.6901H115.21V45.5401C115.66 44.9201 116.43 44.6001 117.43 44.6001H117.44V44.5801Z" fill="white"/>
<path d="M117.959 50.5201L118.579 49.1801C119.159 49.5601 120.029 49.8001 120.819 49.8001C121.679 49.8001 122.009 49.5701 122.009 49.2101C122.009 48.1601 118.109 49.2301 118.109 46.6601C118.109 45.4401 119.219 44.5801 121.089 44.5801C121.979 44.5801 122.959 44.7801 123.569 45.1501L122.949 46.4801C122.319 46.1301 121.679 46.0001 121.089 46.0001C120.249 46.0001 119.889 46.2701 119.889 46.6001C119.889 47.7101 123.789 46.6301 123.789 49.1801C123.789 50.3801 122.669 51.2301 120.739 51.2301C119.649 51.2301 118.549 50.9301 117.949 50.5301H117.959V50.5201Z" fill="white"/>
<path d="M131.221 48.4201H126.341C126.521 49.2201 127.201 49.7201 128.191 49.7201C128.881 49.7201 129.361 49.5201 129.811 49.1001L130.811 50.1801C130.211 50.8701 129.311 51.2201 128.151 51.2201C125.921 51.2201 124.471 49.8101 124.471 47.8901C124.471 45.9701 125.941 44.5601 127.911 44.5601C129.881 44.5601 131.271 45.8301 131.271 47.9101C131.271 48.0501 131.251 48.2501 131.241 48.4101H131.231L131.221 48.4201ZM126.321 47.3401H129.501C129.371 46.5201 128.761 46.0001 127.911 46.0001C127.061 46.0001 126.451 46.5201 126.311 47.3401H126.321Z" fill="white"/>
<path d="M139.169 44.6603V50.0403C139.169 52.4303 137.869 53.5403 135.549 53.5403C134.329 53.5403 133.139 53.2403 132.379 52.6503L133.119 51.3103C133.669 51.7503 134.569 52.0403 135.399 52.0403C136.719 52.0403 137.299 51.4403 137.299 50.2803V50.0003C136.809 50.5403 136.099 50.8103 135.259 50.8103C133.479 50.8103 132.029 49.5803 132.029 47.7003C132.029 45.8203 133.469 44.5903 135.259 44.5903C136.159 44.5903 136.899 44.8903 137.399 45.5103V44.6803H139.169V44.6603ZM137.319 47.6703C137.319 46.7303 136.609 46.0803 135.619 46.0803C134.629 46.0803 133.909 46.7103 133.909 47.6703C133.909 48.6303 134.629 49.2603 135.619 49.2603C136.609 49.2603 137.319 48.6303 137.319 47.6703Z" fill="white"/>
<path d="M147.409 44.6602V51.1102H145.639V50.3502C145.149 50.9202 144.429 51.2102 143.629 51.2102C142.009 51.2102 140.869 50.3002 140.869 48.3102V44.6602H142.739V48.0302C142.739 49.1102 143.219 49.5902 144.049 49.5902C144.879 49.5902 145.539 49.0402 145.539 47.8502V44.6602H147.409V44.6602Z" fill="white"/>
<path d="M153.151 44.5801V46.3101C152.991 46.3001 152.871 46.2901 152.731 46.2901C151.701 46.2901 151.011 46.8601 151.011 48.0901V51.1401H149.141V44.6901H150.921V45.5401C151.371 44.9201 152.141 44.6001 153.141 44.6001H153.151V44.5801Z" fill="white"/>
<path d="M154.029 42.7202C154.029 42.1302 154.499 41.6802 155.189 41.6802C155.879 41.6802 156.349 42.1102 156.349 42.6902C156.349 43.3102 155.879 43.7702 155.189 43.7702C154.499 43.7702 154.029 43.3202 154.029 42.7302V42.7202ZM154.259 44.6602H156.129V51.1102H154.259V44.6602Z" fill="white"/>
<path d="M164.44 42.2302V51.1302H162.66V50.3902C162.19 50.9602 161.51 51.2302 160.64 51.2302C158.82 51.2302 157.41 49.9302 157.41 47.9002C157.41 45.8702 158.82 44.5702 160.64 44.5702C161.43 44.5702 162.1 44.8202 162.57 45.3502V42.2202H164.44V42.2302ZM162.6 47.9002C162.6 46.7802 161.88 46.1202 160.96 46.1202C160.04 46.1202 159.31 46.8002 159.31 47.9002C159.31 49.0002 160.03 49.6802 160.96 49.6802C161.89 49.6802 162.6 49.0002 162.6 47.9002Z" fill="white"/>
<path d="M171.88 47.4401V51.1201H170.13V50.3201C169.79 50.9101 169.11 51.2201 168.17 51.2201C166.66 51.2201 165.76 50.3801 165.76 49.2701C165.76 48.1601 166.56 47.3401 168.53 47.3401H170.02C170.02 46.5401 169.54 46.0701 168.53 46.0701C167.84 46.0701 167.14 46.3001 166.67 46.6701L165.99 45.3601C166.7 44.8601 167.74 44.5801 168.77 44.5801C170.73 44.5801 171.87 45.4901 171.87 47.4501L171.88 47.4401ZM170.01 49.0701V48.4201H168.72C167.84 48.4201 167.57 48.7401 167.57 49.1701C167.57 49.6401 167.97 49.9501 168.62 49.9501C169.27 49.9501 169.78 49.6601 169.99 49.0701H170H170.01Z" fill="white"/>
<path d="M180.219 42.2302V51.1302H178.439V50.3902C177.969 50.9602 177.289 51.2302 176.419 51.2302C174.599 51.2302 173.189 49.9302 173.189 47.9002C173.189 45.8702 174.599 44.5702 176.419 44.5702C177.209 44.5702 177.879 44.8202 178.349 45.3502V42.2202H180.219V42.2302ZM178.379 47.9002C178.379 46.7802 177.659 46.1202 176.739 46.1202C175.819 46.1202 175.089 46.8002 175.089 47.9002C175.089 49.0002 175.809 49.6802 176.739 49.6802C177.669 49.6802 178.379 49.0002 178.379 47.9002Z" fill="white"/>
<path d="M191.21 49.5301V51.1201H184.87V49.8601L188.11 46.8001C188.85 46.0901 188.99 45.6601 188.99 45.2501C188.99 44.5801 188.54 44.2101 187.65 44.2101C186.93 44.2101 186.32 44.4901 185.91 45.0501L184.49 44.1401C185.13 43.2001 186.31 42.5801 187.83 42.5801C189.7 42.5801 190.94 43.5401 190.94 45.0601C190.94 45.8801 190.71 46.6201 189.53 47.7101L187.6 49.5301H191.21V49.5301Z" fill="white"/>
<path d="M191.99 46.9303C191.99 44.1603 193.52 42.5903 195.59 42.5903C197.66 42.5903 199.19 44.1603 199.19 46.9303C199.19 49.7003 197.67 51.2703 195.59 51.2703C193.51 51.2703 191.99 49.7003 191.99 46.9303V46.9303ZM197.23 46.9303C197.23 45.0203 196.55 44.2403 195.59 44.2403C194.63 44.2403 193.96 45.0303 193.96 46.9303C193.96 48.8303 194.64 49.6203 195.59 49.6203C196.54 49.6203 197.23 48.8303 197.23 46.9303Z" fill="white"/>
<path d="M206.329 49.5301V51.1201H199.989V49.8601L203.229 46.8001C203.969 46.0901 204.109 45.6601 204.109 45.2501C204.109 44.5801 203.659 44.2101 202.769 44.2101C202.049 44.2101 201.439 44.4901 201.029 45.0501L199.609 44.1401C200.249 43.2001 201.429 42.5801 202.949 42.5801C204.819 42.5801 206.059 43.5401 206.059 45.0601C206.059 45.8801 205.829 46.6201 204.649 47.7101L202.719 49.5301H206.329V49.5301Z" fill="white"/>
<path d="M213.4 49.5301V51.1201H207.06V49.8601L210.3 46.8001C211.04 46.0901 211.18 45.6601 211.18 45.2501C211.18 44.5801 210.73 44.2101 209.84 44.2101C209.12 44.2101 208.51 44.4901 208.1 45.0501L206.68 44.1401C207.32 43.2001 208.5 42.5801 210.02 42.5801C211.89 42.5801 213.13 43.5401 213.13 45.0601C213.13 45.8801 212.9 46.6201 211.72 47.7101L209.79 49.5301H213.4V49.5301Z" fill="white"/>
<defs>
<linearGradient id="paint0_linear_538_4" x1="66.4297" y1="39.7204" x2="279.57" y2="39.7204" gradientUnits="userSpaceOnUse">
<stop stop-color="#172765"/>
<stop offset="0.26" stop-color="#193A75"/>
<stop offset="0.79" stop-color="#216E9F"/>
<stop offset="1" stop-color="#2584B1"/>
</linearGradient>
<linearGradient id="paint1_linear_538_4" x1="-0.000703069" y1="39.6902" x2="69.9093" y2="39.6902" gradientUnits="userSpaceOnUse">
<stop stop-color="#172765"/>
<stop offset="0.26" stop-color="#193A75"/>
<stop offset="0.79" stop-color="#216E9F"/>
<stop offset="1" stop-color="#2584B1"/>
</linearGradient>
<linearGradient id="paint2_linear_538_4" x1="30.4883" y1="22.2202" x2="32.0183" y2="22.2202" gradientUnits="userSpaceOnUse">
<stop stop-color="#172765"/>
<stop offset="0.26" stop-color="#193A75"/>
<stop offset="0.79" stop-color="#216E9F"/>
<stop offset="1" stop-color="#2584B1"/>
</linearGradient>
<linearGradient id="paint3_linear_538_4" x1="50.4395" y1="40.6399" x2="51.9695" y2="40.6399" gradientUnits="userSpaceOnUse">
<stop stop-color="#172765"/>
<stop offset="0.26" stop-color="#193A75"/>
<stop offset="0.79" stop-color="#216E9F"/>
<stop offset="1" stop-color="#2584B1"/>
</linearGradient>
<linearGradient id="paint4_linear_538_4" x1="36.6191" y1="52.9202" x2="38.1591" y2="52.9202" gradientUnits="userSpaceOnUse">
<stop stop-color="#172765"/>
<stop offset="0.26" stop-color="#193A75"/>
<stop offset="0.79" stop-color="#216E9F"/>
<stop offset="1" stop-color="#2584B1"/>
</linearGradient>
<linearGradient id="paint5_linear_538_4" x1="30.4883" y1="55.22" x2="32.0183" y2="55.22" gradientUnits="userSpaceOnUse">
<stop stop-color="#172765"/>
<stop offset="0.26" stop-color="#193A75"/>
<stop offset="0.79" stop-color="#216E9F"/>
<stop offset="1" stop-color="#2584B1"/>
</linearGradient>
<linearGradient id="paint6_linear_538_4" x1="18.209" y1="37.5701" x2="19.739" y2="37.5701" gradientUnits="userSpaceOnUse">
<stop stop-color="#172765"/>
<stop offset="0.26" stop-color="#193A75"/>
<stop offset="0.79" stop-color="#216E9F"/>
<stop offset="1" stop-color="#2584B1"/>
</linearGradient>
<linearGradient id="paint7_linear_538_4" x1="36.6191" y1="22.2202" x2="38.1591" y2="22.2202" gradientUnits="userSpaceOnUse">
<stop stop-color="#172765"/>
<stop offset="0.26" stop-color="#193A75"/>
<stop offset="0.79" stop-color="#216E9F"/>
<stop offset="1" stop-color="#2584B1"/>
</linearGradient>
<linearGradient id="paint8_linear_538_4" x1="48.8984" y1="34.5002" x2="50.4384" y2="34.5002" gradientUnits="userSpaceOnUse">
<stop stop-color="#172765"/>
<stop offset="0.26" stop-color="#193A75"/>
<stop offset="0.79" stop-color="#216E9F"/>
<stop offset="1" stop-color="#2584B1"/>
</linearGradient>
<linearGradient id="paint9_linear_538_4" x1="45.0684" y1="26.8303" x2="46.6084" y2="26.8303" gradientUnits="userSpaceOnUse">
<stop stop-color="#172765"/>
<stop offset="0.26" stop-color="#193A75"/>
<stop offset="0.79" stop-color="#216E9F"/>
<stop offset="1" stop-color="#2584B1"/>
</linearGradient>
<linearGradient id="paint10_linear_538_4" x1="22.0388" y1="26.8303" x2="23.5688" y2="26.8303" gradientUnits="userSpaceOnUse">
<stop stop-color="#172765"/>
<stop offset="0.26" stop-color="#193A75"/>
<stop offset="0.79" stop-color="#216E9F"/>
<stop offset="1" stop-color="#2584B1"/>
</linearGradient>
<linearGradient id="paint11_linear_538_4" x1="45.0684" y1="48.3201" x2="46.6084" y2="48.3201" gradientUnits="userSpaceOnUse">
<stop stop-color="#172765"/>
<stop offset="0.26" stop-color="#193A75"/>
<stop offset="0.79" stop-color="#216E9F"/>
<stop offset="1" stop-color="#2584B1"/>
</linearGradient>
<linearGradient id="paint12_linear_538_4" x1="22.0388" y1="48.3201" x2="23.5688" y2="48.3201" gradientUnits="userSpaceOnUse">
<stop stop-color="#172765"/>
<stop offset="0.26" stop-color="#193A75"/>
<stop offset="0.79" stop-color="#216E9F"/>
<stop offset="1" stop-color="#2584B1"/>
</linearGradient>
<linearGradient id="paint13_linear_538_4" x1="32.0085" y1="39.8699" x2="36.6285" y2="39.8699" gradientUnits="userSpaceOnUse">
<stop stop-color="#172765"/>
<stop offset="0.26" stop-color="#193A75"/>
<stop offset="0.79" stop-color="#216E9F"/>
<stop offset="1" stop-color="#2584B1"/>
</linearGradient>
<linearGradient id="paint14_linear_538_4" x1="28.9492" y1="37.5701" x2="39.6892" y2="37.5701" gradientUnits="userSpaceOnUse">
<stop stop-color="#172765"/>
<stop offset="0.26" stop-color="#193A75"/>
<stop offset="0.79" stop-color="#216E9F"/>
<stop offset="1" stop-color="#2584B1"/>
</linearGradient>
<linearGradient id="paint15_linear_538_4" x1="11.3486" y1="37.6301" x2="57.3686" y2="37.6301" gradientUnits="userSpaceOnUse">
<stop stop-color="#172765"/>
<stop offset="0.26" stop-color="#193A75"/>
<stop offset="0.79" stop-color="#216E9F"/>
<stop offset="1" stop-color="#2584B1"/>
</linearGradient>
</defs>
</svg>
