<svg width="109" height="88" viewBox="0 0 512 436" fill="none" xmlns="http://www.w3.org/2000/svg">
<path d="M43.348 265.906C26.127 257.859 15 240.383 15 221.384C15 196.511 33.603 175.551 58.271 172.629C60.584 172.355 62.639 171.022 63.832 169.021C65.024 167.02 65.22 164.578 64.36 162.414C61.194 154.444 59.589 146.05 59.589 137.466C59.589 101.542 87.661 71.874 123.498 69.923C126.867 69.74 129.698 67.33 130.418 64.034C134.345 46.053 150.57 33.002 168.999 33.002C178.796 33.002 188.193 36.617 195.46 43.18C197.059 44.624 199.197 45.313 201.344 45.065C203.485 44.818 205.416 43.664 206.647 41.894C218.349 25.054 237.547 15 258 15C280.188 15 300.91 26.947 312.076 46.18C313.983 49.466 318.046 50.805 321.531 49.302C333.531 44.13 346.292 41.507 359.458 41.507C374.448 41.507 388.802 44.864 402.12 51.486C405.826 53.33 410.331 51.818 412.175 48.11C414.019 44.401 412.507 39.899 408.798 38.055C393.387 30.392 376.786 26.507 359.458 26.507C346.394 26.507 333.67 28.743 321.545 33.162C307.13 12.557 283.339 0 258 0C235.273 0 213.802 10.003 199.148 27.097C190.264 21.189 179.807 18 169 18C145.462 18 124.527 33.436 117.248 55.417C76.086 60.367 44.59 95.407 44.59 137.464C44.59 144.942 45.587 152.301 47.561 159.44C19.898 166.789 0 191.994 0 221.384C0 246.183 14.522 268.993 36.998 279.496C38.024 279.975 39.104 280.203 40.168 280.203C42.99 280.203 45.693 278.602 46.968 275.876C48.721 272.124 47.101 267.66 43.348 265.906V265.906Z" fill="white"/>
<path d="M468.019 160.503C469.612 152.958 470.416 145.239 470.416 137.464C470.416 108.423 459.272 80.962 439.037 60.14C436.151 57.17 431.402 57.101 428.432 59.989C425.461 62.876 425.393 67.624 428.28 70.594C445.779 88.601 455.417 112.349 455.417 137.464C455.417 146.416 454.186 155.279 451.758 163.807C451.184 165.822 451.479 167.985 452.571 169.773C453.663 171.561 455.455 172.809 457.51 173.217C480.392 177.759 497 198.016 497 221.383C497 248.465 474.968 270.497 447.887 270.497H380.5V244.339C380.5 233.951 372.049 225.5 361.661 225.5H263.5V210.5H303.191C307.334 210.5 310.691 207.142 310.691 203C310.691 198.858 307.334 195.5 303.191 195.5H150.339C148.222 195.5 146.5 193.778 146.5 191.661V124.339C146.5 122.222 148.222 120.5 150.339 120.5H361.661C363.778 120.5 365.5 122.222 365.5 124.339V191.661C365.5 193.778 363.778 195.5 361.661 195.5H338.191C334.048 195.5 330.691 198.858 330.691 203C330.691 207.142 334.048 210.5 338.191 210.5H361.661C372.049 210.5 380.5 202.049 380.5 191.661V124.339C380.5 113.951 372.049 105.5 361.661 105.5H150.339C139.951 105.5 131.5 113.951 131.5 124.339V191.661C131.5 202.049 139.951 210.5 150.339 210.5H248.5V225.5H150.339C139.951 225.5 131.5 233.951 131.5 244.339V270.497H74.361C70.218 270.497 66.861 273.855 66.861 277.997C66.861 282.139 70.218 285.497 74.361 285.497H131.5V311.661C131.5 322.049 139.951 330.5 150.339 330.5H248.5V371.216C236.594 374.04 227.208 383.427 224.383 395.333H99.71C96.614 386.604 88.277 380.333 78.5 380.333C66.094 380.333 56 390.426 56 402.833C56 415.24 66.094 425.333 78.5 425.333C88.277 425.333 96.614 419.062 99.71 410.333H224.383C227.779 424.648 240.661 435.333 256 435.333C271.339 435.333 284.221 424.648 287.617 410.333H334.957C339.1 410.333 342.457 406.975 342.457 402.833C342.457 398.691 339.1 395.333 334.957 395.333H287.617C284.793 383.427 275.406 374.041 263.5 371.216V330.5H361.661C372.049 330.5 380.5 322.049 380.5 311.661V285.497H447.887C483.24 285.497 512 256.736 512 221.383C512 193.529 493.915 169.059 468.019 160.503ZM78.5 410.334C74.364 410.334 71 406.97 71 402.834C71 398.698 74.364 395.334 78.5 395.334C82.636 395.334 86 398.698 86 402.834C86 406.97 82.636 410.334 78.5 410.334ZM273.5 402.834C273.5 412.483 265.649 420.334 256 420.334C246.351 420.334 238.5 412.483 238.5 402.834C238.5 393.185 246.351 385.334 256 385.334C265.649 385.334 273.5 393.184 273.5 402.834ZM365.5 311.662C365.5 313.779 363.778 315.501 361.661 315.501H150.339C148.222 315.501 146.5 313.779 146.5 311.662V244.34C146.5 242.223 148.222 240.501 150.339 240.501H361.661C363.778 240.501 365.5 242.223 365.5 244.34V311.662Z" fill="white"/>
<path d="M161.5 158C161.5 170.407 171.594 180.5 184 180.5C196.406 180.5 206.5 170.407 206.5 158C206.5 145.593 196.406 135.5 184 135.5C171.594 135.5 161.5 145.594 161.5 158ZM191.5 158C191.5 162.136 188.136 165.5 184 165.5C179.864 165.5 176.5 162.136 176.5 158C176.5 153.864 179.864 150.5 184 150.5C188.136 150.5 191.5 153.865 191.5 158Z" fill="white"/>
<path d="M253 135.5H226C221.857 135.5 218.5 138.858 218.5 143C218.5 147.142 221.857 150.5 226 150.5H253C257.143 150.5 260.5 147.142 260.5 143C260.5 138.858 257.143 135.5 253 135.5Z" fill="white"/>
<path d="M253 165.5H226C221.857 165.5 218.5 168.858 218.5 173C218.5 177.142 221.857 180.5 226 180.5H253C257.143 180.5 260.5 177.142 260.5 173C260.5 168.858 257.143 165.5 253 165.5Z" fill="white"/>
<path d="M283.02 135.5H283.01C278.868 135.5 275.515 138.858 275.515 143C275.515 147.142 278.878 150.5 283.02 150.5C287.163 150.5 290.52 147.142 290.52 143C290.52 138.858 287.162 135.5 283.02 135.5Z" fill="white"/>
<path d="M313.02 135.5H313.01C308.868 135.5 305.515 138.858 305.515 143C305.515 147.142 308.878 150.5 313.02 150.5C317.163 150.5 320.52 147.142 320.52 143C320.52 138.858 317.162 135.5 313.02 135.5Z" fill="white"/>
<path d="M343.02 150.5C347.163 150.5 350.52 147.142 350.52 143C350.52 138.858 347.163 135.5 343.02 135.5H343.01C338.868 135.5 335.515 138.858 335.515 143C335.515 147.142 338.878 150.5 343.02 150.5Z" fill="white"/>
<path d="M283.02 165.5H283.01C278.868 165.5 275.515 168.858 275.515 173C275.515 177.142 278.878 180.5 283.02 180.5C287.163 180.5 290.52 177.142 290.52 173C290.52 168.858 287.162 165.5 283.02 165.5Z" fill="white"/>
<path d="M313.02 165.5H313.01C308.868 165.5 305.515 168.858 305.515 173C305.515 177.142 308.878 180.5 313.02 180.5C317.163 180.5 320.52 177.142 320.52 173C320.52 168.858 317.162 165.5 313.02 165.5Z" fill="white"/>
<path d="M343.02 180.5C347.163 180.5 350.52 177.142 350.52 173C350.52 168.858 347.163 165.5 343.02 165.5H343.01C338.868 165.5 335.515 168.858 335.515 173C335.515 177.142 338.878 180.5 343.02 180.5Z" fill="white"/>
<path d="M184 255.5C171.594 255.5 161.5 265.593 161.5 278C161.5 290.407 171.594 300.5 184 300.5C196.406 300.5 206.5 290.407 206.5 278C206.5 265.593 196.406 255.5 184 255.5ZM184 285.5C179.864 285.5 176.5 282.136 176.5 278C176.5 273.864 179.864 270.5 184 270.5C188.136 270.5 191.5 273.864 191.5 278C191.5 282.136 188.136 285.5 184 285.5Z" fill="white"/>
<path d="M253 255.5H226C221.857 255.5 218.5 258.858 218.5 263C218.5 267.142 221.857 270.5 226 270.5H253C257.143 270.5 260.5 267.142 260.5 263C260.5 258.858 257.143 255.5 253 255.5Z" fill="white"/>
<path d="M253 285.5H226C221.857 285.5 218.5 288.858 218.5 293C218.5 297.142 221.857 300.5 226 300.5H253C257.143 300.5 260.5 297.142 260.5 293C260.5 288.858 257.143 285.5 253 285.5Z" fill="white"/>
<path d="M283.02 255.5H283.01C278.868 255.5 275.515 258.858 275.515 263C275.515 267.142 278.878 270.5 283.02 270.5C287.163 270.5 290.52 267.142 290.52 263C290.52 258.858 287.162 255.5 283.02 255.5Z" fill="white"/>
<path d="M313.02 255.5H313.01C308.868 255.5 305.515 258.858 305.515 263C305.515 267.142 308.878 270.5 313.02 270.5C317.163 270.5 320.52 267.142 320.52 263C320.52 258.858 317.162 255.5 313.02 255.5Z" fill="white"/>
<path d="M343.02 255.5H343.01C338.868 255.5 335.515 258.858 335.515 263C335.515 267.142 338.878 270.5 343.02 270.5C347.163 270.5 350.52 267.142 350.52 263C350.52 258.858 347.162 255.5 343.02 255.5Z" fill="white"/>
<path d="M433.5 380.334C423.723 380.334 415.386 386.605 412.29 395.334H370.276C366.133 395.334 362.776 398.692 362.776 402.834C362.776 406.976 366.133 410.334 370.276 410.334H412.29C415.386 419.063 423.723 425.334 433.5 425.334C445.906 425.334 456 415.241 456 402.834C456 390.427 445.906 380.334 433.5 380.334ZM433.5 410.334C429.364 410.334 426 406.97 426 402.834C426 398.698 429.364 395.334 433.5 395.334C437.636 395.334 441 398.698 441 402.834C441 406.97 437.636 410.334 433.5 410.334Z" fill="white"/>
<path d="M283.02 285.5H283.01C278.868 285.5 275.515 288.858 275.515 293C275.515 297.142 278.878 300.5 283.02 300.5C287.163 300.5 290.52 297.142 290.52 293C290.52 288.858 287.162 285.5 283.02 285.5Z" fill="white"/>
<path d="M313.02 285.5H313.01C308.868 285.5 305.515 288.858 305.515 293C305.515 297.142 308.878 300.5 313.02 300.5C317.163 300.5 320.52 297.142 320.52 293C320.52 288.858 317.162 285.5 313.02 285.5Z" fill="white"/>
<path d="M343.02 285.5H343.01C338.868 285.5 335.515 288.858 335.515 293C335.515 297.142 338.878 300.5 343.02 300.5C347.163 300.5 350.52 297.142 350.52 293C350.52 288.858 347.162 285.5 343.02 285.5Z" fill="white"/>
</svg>
