<svg width="109" height="88" viewBox="0 0 78 78" fill="none" xmlns="http://www.w3.org/2000/svg">
<path d="M32.4399 11.68H35.0299V14.32H32.4399V11.68Z" fill="white"/>
<path d="M66.1699 42.82H68.7699V45.41H66.1699V42.82Z" fill="white"/>
<path d="M42.8201 63.58H45.4101V66.18H42.8201V63.58Z" fill="white"/>
<path d="M32.4399 67.47H35.0299V70.07H32.4399V67.47Z" fill="white"/>
<path d="M11.6699 37.63H14.2699V40.22H11.6699V37.63Z" fill="white"/>
<path d="M42.8201 11.68H45.4101V14.32H42.8201V11.68Z" fill="white"/>
<path d="M63.5801 32.44H66.1701V35.03H63.5801V32.44Z" fill="white"/>
<path d="M57.0901 19.46H59.6901V22.06H57.0901V19.46Z" fill="white"/>
<path d="M18.1599 19.46H20.7599V22.06H18.1599V19.46Z" fill="white"/>
<path d="M57.0901 55.79H59.6901V58.39H57.0901V55.79Z" fill="white"/>
<path d="M18.1599 55.79H20.7599V58.39H18.1599V55.79Z" fill="white"/>
<path d="M38.7699 37.63C37.8613 37.6567 36.9909 38.0017 36.3106 38.6046C35.6304 39.2075 35.1834 40.0302 35.0476 40.929C34.9119 41.8278 35.0961 42.7458 35.568 43.5227C36.04 44.2996 36.7697 44.8861 37.6299 45.18V48.01H40.2199V45.17C41.0997 44.8634 41.8397 44.2504 42.3049 43.4432C42.77 42.6359 42.9291 41.6883 42.7532 40.7734C42.5772 39.8585 42.078 39.0374 41.3466 38.4603C40.6153 37.8831 39.7006 37.5884 38.7699 37.63V37.63ZM40.2199 41.47C40.234 41.805 40.118 42.1326 39.8963 42.3842C39.6745 42.6357 39.3641 42.7919 39.0299 42.82V42.82C38.8579 42.8262 38.6864 42.7985 38.5251 42.7385C38.3638 42.6784 38.2159 42.5872 38.0899 42.47C37.8392 42.2359 37.6911 41.9122 37.678 41.5694C37.6649 41.2266 37.7878 40.8925 38.0199 40.64C38.255 40.3898 38.5772 40.2395 38.9199 40.22C39.2562 40.2197 39.5795 40.3498 39.8219 40.5829C40.0643 40.816 40.207 41.1339 40.2199 41.47V41.47Z" fill="white"/>
<path d="M45.4101 33.97V32.44C45.4101 30.7161 44.7252 29.0628 43.5063 27.8438C42.2873 26.6248 40.634 25.94 38.9101 25.94C37.1861 25.94 35.5329 26.6248 34.3139 27.8438C33.0949 29.0628 32.4101 30.7161 32.4101 32.44V33.97C31.6524 34.2379 30.996 34.7332 30.5306 35.3884C30.0652 36.0435 29.8136 36.8264 29.8101 37.63V48.01C29.8101 49.0417 30.2199 50.0311 30.9494 50.7606C31.6789 51.4902 32.6684 51.9 33.7001 51.9H44.1101C44.6231 51.9026 45.1315 51.804 45.6064 51.6098C46.0812 51.4157 46.513 51.1297 46.8772 50.7683C47.2413 50.407 47.5306 49.9774 47.7284 49.504C47.9262 49.0307 48.0288 48.523 48.0301 48.01V37.63C48.0251 36.824 47.7705 36.0393 47.3014 35.3839C46.8322 34.7285 46.1714 34.2345 45.4101 33.97V33.97ZM35.0301 32.44C35.0033 31.9119 35.0842 31.3839 35.2679 30.888C35.4515 30.3922 35.7341 29.9388 36.0984 29.5556C36.4627 29.1723 36.9012 28.8672 37.3871 28.6586C37.873 28.4501 38.3963 28.3426 38.9251 28.3426C39.4538 28.3426 39.9771 28.4501 40.463 28.6586C40.9489 28.8672 41.3874 29.1723 41.7517 29.5556C42.116 29.9388 42.3986 30.3922 42.5823 30.888C42.7659 31.3839 42.8468 31.9119 42.8201 32.44V33.73H35.0301V32.44ZM45.4101 48.01C45.4101 48.3548 45.2731 48.6854 45.0293 48.9292C44.7855 49.173 44.4548 49.31 44.1101 49.31H33.7301C33.387 49.3074 33.0589 49.1692 32.8173 48.9257C32.5756 48.6822 32.4401 48.3531 32.4401 48.01V37.63C32.4387 37.4593 32.4711 37.29 32.5352 37.1317C32.5993 36.9735 32.6939 36.8295 32.8137 36.7078C32.9335 36.5862 33.0761 36.4893 33.2333 36.4228C33.3906 36.3562 33.5593 36.3213 33.7301 36.32H44.1101C44.4548 36.32 44.7855 36.457 45.0293 36.7008C45.2731 36.9446 45.4101 37.2752 45.4101 37.62V48.01Z" fill="white"/>
<path d="M73.96 50.6C73.3817 50.6077 72.8119 50.7408 72.29 50.99L69.29 47.99H57.09V45.39H63.58V42.82H57.09V40.22H63.88L71.26 36.53C71.8143 37.0644 72.5147 37.4224 73.2725 37.5585C74.0304 37.6946 74.8116 37.6028 75.5172 37.2946C76.2228 36.9864 76.8211 36.4757 77.2363 35.8272C77.6514 35.1788 77.8648 34.4217 77.8494 33.6519C77.834 32.882 77.5904 32.1341 77.1496 31.5028C76.7088 30.8715 76.0906 30.3852 75.3732 30.1055C74.6558 29.8258 73.8715 29.7653 73.1197 29.9317C72.3679 30.098 71.6824 30.4837 71.15 31.04C70.435 31.7528 70.0322 32.7203 70.03 33.73C70.0201 33.8898 70.0201 34.0501 70.03 34.21L63.19 37.63H57.01V35.03H61.03V32.44H57.14V29.84H62.87L67.15 25.56C67.9119 25.9221 68.7709 26.0268 69.5975 25.8582C70.424 25.6896 71.1734 25.2568 71.7326 24.6252C72.2918 23.9936 72.6305 23.1973 72.6976 22.3564C72.7648 21.5154 72.5568 20.6755 72.1049 19.9631C71.6531 19.2507 70.9819 18.7045 70.1925 18.4069C69.4032 18.1092 68.5385 18.0762 67.7288 18.3129C66.919 18.5495 66.2082 19.043 65.7034 19.7188C65.1985 20.3947 64.9271 21.2164 64.93 22.06C64.9294 22.6361 65.0629 23.2044 65.32 23.72L61.79 27.25H57.14C57.1374 25.5295 56.4527 23.8803 55.2362 22.6638C54.0197 21.4472 52.3704 20.7626 50.65 20.76V17.4L58.03 9.98998C58.8684 10.3938 59.8226 10.4878 60.7237 10.2554C61.6247 10.023 62.4145 9.47923 62.953 8.72033C63.4915 7.96143 63.744 7.03642 63.6658 6.10917C63.5876 5.18191 63.1837 4.31226 62.5257 3.65426C61.8677 2.99627 60.9981 2.5924 60.0708 2.5142C59.1436 2.436 58.2186 2.68852 57.4597 3.22702C56.7008 3.76553 56.1569 4.55526 55.9246 5.45632C55.6922 6.35738 55.7862 7.31161 56.19 8.14998L48.03 16.32V20.75H45.43V16.87H42.82V20.76H40.22V11.44C40.9413 11.1785 41.5691 10.7097 42.0246 10.0923C42.4801 9.475 42.7428 8.73676 42.7798 7.97048C42.8168 7.20419 42.6264 6.44407 42.2326 5.78572C41.8387 5.12736 41.259 4.60017 40.5663 4.27044C39.8736 3.94071 39.0988 3.82317 38.3395 3.9326C37.5802 4.04204 36.8701 4.37355 36.2987 4.88546C35.7273 5.39737 35.32 6.06682 35.1281 6.8096C34.9361 7.55238 34.9681 8.33533 35.22 9.05998C35.4199 9.60579 35.7365 10.1015 36.1475 10.5125C36.5585 10.9235 37.0542 11.24 37.6 11.44V20.76H35.03V16.87H32.44V20.76H29.84V11.14L24.26 5.55998C24.6222 4.79808 24.7268 3.93909 24.5582 3.11252C24.3896 2.28594 23.9569 1.53658 23.3252 0.977393C22.6936 0.418207 21.8973 0.079506 21.0564 0.0123494C20.2155 -0.0548072 19.3755 0.15322 18.6631 0.605072C17.9507 1.05692 17.4046 1.72811 17.1069 2.51745C16.8092 3.30679 16.7762 4.17149 17.0129 4.98122C17.2495 5.79094 17.743 6.5018 18.4189 7.00662C19.0947 7.51144 19.9164 7.78286 20.76 7.77998C21.3361 7.78063 21.9045 7.6471 22.42 7.38998L27.24 12.21V20.76C25.5205 20.7626 23.8723 21.4476 22.6573 22.6644C21.4424 23.8812 20.76 25.5305 20.76 27.25H16.1L12.58 23.72C12.8371 23.2044 12.9706 22.6361 12.97 22.06C12.9784 21.2056 12.7081 20.3718 12.2001 19.6848C11.6921 18.9978 10.974 18.4951 10.1547 18.2528C9.33534 18.0105 8.45935 18.0418 7.6594 18.342C6.85945 18.6422 6.17913 19.1949 5.72148 19.9164C5.26383 20.6379 5.05379 21.4889 5.12317 22.3405C5.19255 23.1921 5.53757 23.9979 6.10597 24.6358C6.67438 25.2738 7.43519 25.7091 8.27318 25.8758C9.11117 26.0426 9.98068 25.9317 10.75 25.56L15.03 29.84H20.76V32.44H12.5L5.7 38.1C5.14686 37.7909 4.52363 37.6291 3.89 37.63C3.12063 37.63 2.36854 37.8581 1.72883 38.2856C1.08913 38.713 0.590535 39.3205 0.29611 40.0313C0.00168526 40.7421 -0.0753494 41.5243 0.0747471 42.2789C0.224844 43.0335 0.59533 43.7266 1.13936 44.2706C1.68338 44.8147 2.37651 45.1851 3.1311 45.3352C3.88568 45.4853 4.66784 45.4083 5.37864 45.1139C6.08945 44.8194 6.69698 44.3209 7.12442 43.6811C7.55186 43.0414 7.78 42.2894 7.78 41.52C7.78353 41.0005 7.67791 40.4861 7.47 40.01L13.47 35.01H20.79V37.61H16.89V40.22H20.79V42.82H9.08V45.41H20.76V48.01H13.57L8.34 55.85C8.15461 55.8195 7.96765 55.7994 7.78 55.79C6.87729 55.7805 5.99883 56.082 5.29229 56.6439C4.58574 57.2059 4.0942 57.9939 3.90029 58.8756C3.70639 59.7573 3.82194 60.6789 4.22752 61.4854C4.6331 62.2919 5.30398 62.9342 6.12739 63.3043C6.9508 63.6744 7.87652 63.7498 8.74893 63.5177C9.62134 63.2856 10.3873 62.7602 10.9179 62.0299C11.4486 61.2996 11.7116 60.4088 11.6628 59.5074C11.614 58.6059 11.2564 57.7488 10.65 57.08L14.96 50.6H20.76C20.7587 51.4518 20.9253 52.2955 21.2504 53.0828C21.5755 53.8702 22.0526 54.5857 22.6544 55.1885C23.2563 55.7913 23.9711 56.2695 24.7579 56.5958C25.5447 56.922 26.3882 57.09 27.24 57.09V65.64L22.42 70.46C21.9045 70.2029 21.3361 70.0693 20.76 70.07C19.9065 70.0585 19.0724 70.3252 18.3839 70.8298C17.6954 71.3344 17.1899 72.0494 16.9438 72.8668C16.6978 73.6841 16.7245 74.5594 17.0201 75.3602C17.3156 76.161 17.8638 76.8439 18.5818 77.3055C19.2999 77.7671 20.1487 77.9823 20.9999 77.9187C21.8511 77.8551 22.6585 77.516 23.3 76.9528C23.9414 76.3896 24.3821 75.6329 24.5553 74.7971C24.7285 73.9612 24.6248 73.0917 24.26 72.32L29.84 66.74V57.09H32.44V64.88H35.03V57.09H37.63V68.19L45.51 73.12C45.2985 74.0296 45.4161 74.9846 45.8419 75.8157C46.2677 76.6468 46.9742 77.3002 47.836 77.6598C48.6978 78.0195 49.6592 78.0622 50.5494 77.7804C51.4397 77.4986 52.2014 76.9104 52.6992 76.1204C53.1971 75.3303 53.3989 74.3894 53.2689 73.4647C53.1389 72.54 52.6855 71.6912 51.9891 71.069C51.2928 70.4468 50.3985 70.0915 49.465 70.066C48.5315 70.0406 47.6192 70.3467 46.89 70.93L40.22 66.75V57.09H42.82V60.99H45.41V57.09H48.03V67.47H57.35C57.6555 68.3354 58.2572 69.065 59.0487 69.5296C59.8402 69.9943 60.7704 70.1641 61.675 70.0091C62.5797 69.8541 63.4003 69.3843 63.992 68.6826C64.5836 67.981 64.9081 67.0928 64.9081 66.175C64.9081 65.2572 64.5836 64.369 63.992 63.6673C63.4003 62.9657 62.5797 62.4958 61.675 62.3409C60.7704 62.1859 59.8402 62.3557 59.0487 62.8204C58.2572 63.285 57.6555 64.0145 57.35 64.88H50.6V57.09C52.3213 57.09 53.972 56.4062 55.1891 55.1891C56.4062 53.972 57.09 52.3212 57.09 50.6H68.23L70.46 52.83C70.2017 53.3487 70.0682 53.9205 70.07 54.5C70.072 55.2689 70.3018 56.02 70.7304 56.6584C71.1591 57.2968 71.7673 57.7938 72.4783 58.0867C73.1893 58.3796 73.9711 58.4552 74.725 58.304C75.4789 58.1528 76.1711 57.7815 76.7142 57.2371C77.2572 56.6927 77.6267 55.9995 77.776 55.2452C77.9253 54.4909 77.8476 53.7093 77.5529 52.999C77.2582 52.2888 76.7596 51.6819 76.1201 51.2549C75.4806 50.8279 74.7289 50.6 73.96 50.6ZM73.96 32.44C74.2175 32.44 74.4693 32.5165 74.6833 32.6598C74.8973 32.8031 75.0639 33.0067 75.162 33.2448C75.2601 33.483 75.2852 33.7449 75.2342 33.9973C75.1833 34.2497 75.0585 34.4814 74.8756 34.6628C74.6928 34.8442 74.4603 34.9672 74.2074 35.0162C73.9546 35.0652 73.6929 35.0381 73.4555 34.9381C73.2182 34.8382 73.0159 34.67 72.8742 34.4549C72.7326 34.2398 72.658 33.9875 72.66 33.73C72.6626 33.3869 72.8008 33.0588 73.0443 32.8172C73.2878 32.5756 73.6169 32.44 73.96 32.44V32.44ZM68.77 20.76C69.0271 20.76 69.2785 20.8362 69.4922 20.9791C69.706 21.1219 69.8726 21.3249 69.971 21.5625C70.0694 21.8 70.0952 22.0614 70.045 22.3136C69.9949 22.5658 69.871 22.7974 69.6892 22.9792C69.5074 23.161 69.2758 23.2848 69.0236 23.335C68.7714 23.3852 68.5101 23.3594 68.2725 23.261C68.035 23.1626 67.8319 22.996 67.6891 22.7822C67.5462 22.5684 67.47 22.3171 67.47 22.06C67.47 21.7152 67.607 21.3845 67.8508 21.1407C68.0946 20.8969 68.4252 20.76 68.77 20.76V20.76ZM59.69 5.18998C59.9475 5.18999 60.1993 5.26649 60.4133 5.40978C60.6273 5.55308 60.7939 5.7567 60.892 5.99483C60.9901 6.23296 61.0152 6.49486 60.9642 6.7473C60.9133 6.99974 60.7885 7.23136 60.6056 7.41276C60.4228 7.59417 60.1903 7.71718 59.9374 7.76621C59.6846 7.81523 59.4229 7.78806 59.1855 7.68813C58.9482 7.5882 58.7458 7.42002 58.6042 7.20493C58.4626 6.98983 58.388 6.73751 58.39 6.47998C58.39 6.30973 58.4237 6.14116 58.4891 5.984C58.5546 5.82683 58.6505 5.68418 58.7714 5.56426C58.8922 5.44434 59.0356 5.34953 59.1933 5.28529C59.3509 5.22105 59.5198 5.18866 59.69 5.18998V5.18998ZM38.92 6.47998C39.1775 6.478 39.4298 6.55256 39.6449 6.69419C39.86 6.83583 40.0282 7.03816 40.1282 7.27552C40.2281 7.51289 40.2553 7.77458 40.2062 8.02741C40.1572 8.28024 40.0342 8.51282 39.8528 8.69563C39.6714 8.87844 39.4398 9.00325 39.1873 9.05422C38.9349 9.1052 38.673 9.08004 38.4348 8.98195C38.1967 8.88386 37.9931 8.71725 37.8498 8.50325C37.7065 8.28925 37.63 8.03752 37.63 7.77998C37.63 7.43692 37.7656 7.10777 38.0072 6.86426C38.2489 6.62075 38.577 6.48262 38.92 6.47998ZM19.46 3.88998C19.46 3.63286 19.5362 3.38152 19.6791 3.16774C19.8219 2.95396 20.025 2.78733 20.2625 2.68894C20.5001 2.59054 20.7614 2.5648 21.0136 2.61496C21.2658 2.66512 21.4974 2.78893 21.6792 2.97074C21.861 3.15255 21.9849 3.38419 22.035 3.63636C22.0852 3.88854 22.0594 4.14992 21.961 4.38747C21.8627 4.62501 21.696 4.82805 21.4822 4.97089C21.2685 5.11374 21.0171 5.18998 20.76 5.18998C20.4152 5.18998 20.0846 5.05302 19.8408 4.80922C19.597 4.56542 19.46 4.23476 19.46 3.88998V3.88998ZM7.78 22.06C7.77204 21.8013 7.84146 21.5461 7.97938 21.3272C8.1173 21.1082 8.31744 20.9354 8.55417 20.8308C8.7909 20.7262 9.05345 20.6947 9.30821 20.7403C9.56296 20.7858 9.79832 20.9064 9.98415 21.0865C10.17 21.2666 10.2978 21.4981 10.3513 21.7513C10.4048 22.0045 10.3815 22.2679 10.2844 22.5078C10.1873 22.7477 10.0208 22.9531 9.80623 23.0978C9.59166 23.2425 9.33879 23.3199 9.08 23.32C8.74204 23.3201 8.4173 23.1887 8.17462 22.9535C7.93194 22.7183 7.7904 22.3978 7.78 22.06V22.06ZM3.89 42.82C3.63247 42.822 3.38015 42.7474 3.16506 42.6058C2.94996 42.4641 2.78178 42.2618 2.68185 42.0244C2.58192 41.7871 2.55475 41.5254 2.60377 41.2725C2.6528 41.0197 2.77582 40.7871 2.95722 40.6043C3.13862 40.4215 3.37024 40.2967 3.62268 40.2457C3.87513 40.1948 4.13702 40.2199 4.37515 40.318C4.61328 40.4161 4.81691 40.5827 4.9602 40.7967C5.10349 41.0107 5.17999 41.2624 5.18 41.52C5.18001 41.863 5.04442 42.1922 4.80278 42.4357C4.56114 42.6792 4.23305 42.8173 3.89 42.82V42.82ZM7.78 60.99C7.52288 60.99 7.27154 60.9137 7.05776 60.7709C6.84398 60.628 6.67735 60.425 6.57896 60.1875C6.48056 59.9499 6.45482 59.6885 6.50498 59.4364C6.55514 59.1842 6.67895 58.9525 6.86076 58.7707C7.04257 58.5889 7.27421 58.4651 7.52638 58.415C7.77856 58.3648 8.03995 58.3905 8.27749 58.4889C8.51503 58.5873 8.71806 58.754 8.86091 58.9677C9.00376 59.1815 9.08 59.4329 9.08 59.69C9.08 60.0348 8.94304 60.3654 8.69924 60.6092C8.45544 60.853 8.12478 60.99 7.78 60.99V60.99ZM20.78 75.26C20.521 75.27 20.2649 75.2023 20.0446 75.0656C19.8244 74.929 19.65 74.7296 19.5439 74.4931C19.4378 74.2566 19.4048 73.9938 19.4492 73.7384C19.4936 73.483 19.6133 73.2467 19.7929 73.0599C19.9726 72.8731 20.204 72.7442 20.4574 72.6898C20.7109 72.6355 20.9748 72.6582 21.2153 72.7549C21.4557 72.8517 21.6618 73.0181 21.807 73.2328C21.9521 73.4476 22.0298 73.7008 22.03 73.96C22.0301 74.2996 21.8973 74.6258 21.6599 74.8688C21.4226 75.1117 21.0996 75.2521 20.76 75.26H20.78ZM49.32 72.66C49.5775 72.658 49.8298 72.7326 50.0449 72.8742C50.26 73.0158 50.4282 73.2182 50.5281 73.4555C50.6281 73.6929 50.6552 73.9546 50.6062 74.2074C50.5572 74.4602 50.4342 74.6928 50.2528 74.8756C50.0714 75.0584 49.8398 75.1832 49.5873 75.2342C49.3349 75.2852 49.073 75.2601 48.8348 75.162C48.5967 75.0639 48.3931 74.8973 48.2498 74.6833C48.1065 74.4693 48.03 74.2175 48.03 73.96C48.0299 73.6203 48.1627 73.2941 48.4001 73.0512C48.6374 72.8082 48.9604 72.6678 49.3 72.66H49.32ZM61.03 64.88C61.2875 64.878 61.5398 64.9526 61.7549 65.0942C61.97 65.2358 62.1382 65.4382 62.2382 65.6755C62.3381 65.9129 62.3653 66.1746 62.3162 66.4274C62.2672 66.6802 62.1442 66.9128 61.9628 67.0956C61.7814 67.2784 61.5498 67.4032 61.2973 67.4542C61.0449 67.5052 60.783 67.4801 60.5448 67.382C60.3067 67.2839 60.1031 67.1172 59.9598 66.9033C59.8165 66.6893 59.74 66.4375 59.74 66.18C59.74 65.8369 59.8756 65.5078 60.1172 65.2643C60.3589 65.0208 60.687 64.8826 61.03 64.88V64.88ZM54.55 50.6C54.5474 51.6335 54.1356 52.624 53.4048 53.3548C52.674 54.0856 51.6835 54.4973 50.65 54.5H27.24C26.2074 54.4973 25.218 54.0853 24.4887 53.3542C23.7595 52.6231 23.35 51.6326 23.35 50.6V27.25C23.346 26.7361 23.4437 26.2266 23.6373 25.7506C23.8309 25.2746 24.1166 24.8416 24.4781 24.4764C24.8396 24.1112 25.2697 23.821 25.7436 23.6226C26.2176 23.4241 26.7262 23.3213 27.24 23.32H50.6C51.6335 23.3226 52.624 23.7344 53.3548 24.4652C54.0856 25.196 54.4974 26.1864 54.5 27.22L54.55 50.6ZM74.01 55.79C73.7525 55.79 73.5007 55.7135 73.2867 55.5702C73.0727 55.4269 72.9061 55.2233 72.808 54.9851C72.7099 54.747 72.6848 54.4851 72.7358 54.2327C72.7867 53.9802 72.9115 53.7486 73.0944 53.5672C73.2772 53.3858 73.5097 53.2628 73.7626 53.2137C74.0154 53.1647 74.2771 53.1919 74.5145 53.2918C74.7518 53.3918 74.9542 53.5599 75.0958 53.775C75.2374 53.9901 75.312 54.2424 75.31 54.5C75.3088 54.6741 75.2726 54.8463 75.2036 55.0062C75.1345 55.1661 75.0341 55.3105 74.9081 55.4308C74.7822 55.5512 74.6334 55.645 74.4705 55.7067C74.3077 55.7683 74.134 55.7967 73.96 55.79H74.01Z" fill="white"/>
</svg>
