<svg width="45" height="43" viewBox="0 0 45 43" fill="none" xmlns="http://www.w3.org/2000/svg">
<path d="M8.08992 3.73999C6.47992 3.73999 5.16992 5.04999 5.16992 6.65999C5.16992 8.26999 6.47992 9.57999 8.08992 9.57999C9.69992 9.57999 11.0199 8.26999 11.0199 6.65999C11.0199 5.04999 9.70992 3.73999 8.08992 3.73999ZM8.08992 7.83999C7.43992 7.83999 6.90992 7.30999 6.90992 6.65999C6.90992 6.00999 7.43992 5.47999 8.08992 5.47999C8.73992 5.47999 9.26992 6.00999 9.26992 6.65999C9.26992 7.30999 8.73992 7.83999 8.08992 7.83999Z" fill="white"/>
<path d="M33.6598 3.73999H25.9298C24.3198 3.73999 23.0098 5.04999 23.0098 6.65999C23.0098 8.26999 24.3198 9.57999 25.9298 9.57999H33.6598C35.2698 9.57999 36.5798 8.26999 36.5798 6.65999C36.5798 5.04999 35.2698 3.73999 33.6598 3.73999ZM33.6598 7.83999H25.9298C25.2798 7.83999 24.7498 7.30999 24.7498 6.65999C24.7498 6.00999 25.2798 5.47999 25.9298 5.47999H33.6598C34.3098 5.47999 34.8398 6.00999 34.8398 6.65999C34.8398 7.30999 34.3098 7.83999 33.6598 7.83999Z" fill="white"/>
<path d="M15.67 3.73999C14.06 3.73999 12.75 5.04999 12.75 6.65999C12.75 8.26999 14.06 9.57999 15.67 9.57999C17.28 9.57999 18.6 8.26999 18.6 6.65999C18.6 5.04999 17.29 3.73999 15.67 3.73999V3.73999ZM15.67 7.83999C15.02 7.83999 14.49 7.30999 14.49 6.65999C14.49 6.00999 15.02 5.47999 15.67 5.47999C16.32 5.47999 16.85 6.00999 16.85 6.65999C16.85 7.30999 16.32 7.83999 15.67 7.83999V7.83999Z" fill="white"/>
<path d="M14.2496 18.2C13.7796 18.09 13.3096 18.38 13.1996 18.85L11.4696 26.09C11.3596 26.56 11.6496 27.03 12.1196 27.14C12.1896 27.16 12.2596 27.16 12.3196 27.16C12.7096 27.16 13.0696 26.89 13.1696 26.49L14.8996 19.25C15.0096 18.78 14.7196 18.31 14.2496 18.2V18.2Z" fill="white"/>
<path d="M17.4498 26.28C17.6198 26.43 17.8198 26.5 18.0298 26.5C18.2698 26.5 18.5098 26.4 18.6798 26.21L21.1198 23.47C21.5198 23.02 21.5198 22.32 21.1198 21.87L18.6698 19.12C18.3498 18.76 17.7998 18.73 17.4398 19.05C17.0798 19.37 17.0498 19.92 17.3698 20.28L19.4898 22.67L17.3698 25.06C17.0498 25.42 17.0798 25.97 17.4398 26.29L17.4498 26.28Z" fill="white"/>
<path d="M8.91043 19.05C8.55043 18.73 8.00043 18.76 7.68043 19.12L5.24043 21.86C4.84043 22.31 4.84043 23.01 5.24043 23.46L7.69043 26.21C7.86043 26.4 8.10043 26.5 8.34043 26.5C8.55043 26.5 8.75043 26.43 8.92043 26.28C9.28043 25.96 9.31043 25.41 8.99043 25.05L6.87043 22.66L8.99043 20.27C9.31043 19.91 9.28043 19.36 8.92043 19.04L8.91043 19.05Z" fill="white"/>
<path d="M42.31 28.32H41.99C41.82 27.77 41.6 27.24 41.33 26.73L41.56 26.5C41.93 26.13 42.13 25.64 42.13 25.12C42.13 24.6 41.93 24.1 41.56 23.74L41.11 23.29V4.72C41.11 2.12 39.27 0 37.02 0H4.09C1.84 0 0 2.12 0 4.72V29.09C0 31.69 1.84 33.81 4.09 33.81H9.21C9.69 33.81 10.08 33.42 10.08 32.94C10.08 32.46 9.69 32.07 9.21 32.07H4.09C2.82 32.07 1.74 30.71 1.74 29.1V13.27H39.37V22.08C39.27 22.06 39.17 22.05 39.07 22.05C38.55 22.05 38.06 22.25 37.69 22.62L37.45 22.85C36.93 22.58 36.39 22.35 35.84 22.18V21.87C35.84 20.79 34.96 19.92 33.89 19.92H32.31C31.23 19.92 30.36 20.8 30.36 21.87V22.2C29.81 22.37 29.29 22.59 28.79 22.86L28.56 22.63C28.19 22.26 27.7 22.06 27.18 22.06C26.66 22.06 26.17 22.26 25.8 22.63L24.69 23.74C24.32 24.11 24.12 24.6 24.12 25.12C24.12 25.64 24.32 26.13 24.69 26.5L24.93 26.74C24.67 27.24 24.45 27.76 24.29 28.3H23.96C22.88 28.3 22.01 29.18 22.01 30.25V31.83C22.01 31.9 22.01 31.97 22.02 32.04H16.95C16.47 32.04 16.08 32.43 16.08 32.91C16.08 33.39 16.47 33.78 16.95 33.78H24.3C24.47 34.32 24.69 34.85 24.95 35.35L24.71 35.58C23.95 36.34 23.95 37.58 24.71 38.34L25.83 39.45C26.2 39.82 26.69 40.02 27.21 40.02C27.73 40.02 28.22 39.82 28.59 39.45L28.82 39.22C29.33 39.49 29.85 39.71 30.4 39.87V40.21C30.4 41.29 31.28 42.16 32.35 42.16H33.93C35.01 42.16 35.88 41.28 35.88 40.21V39.87C36.43 39.7 36.96 39.48 37.46 39.21L37.69 39.44C38.06 39.81 38.55 40.01 39.07 40.01C39.59 40.01 40.08 39.81 40.45 39.44L41.56 38.33C41.93 37.96 42.13 37.47 42.13 36.95C42.13 36.43 41.93 35.93 41.56 35.57L41.33 35.34C41.6 34.84 41.81 34.31 41.98 33.77H42.31C43.39 33.77 44.26 32.89 44.26 31.82V30.24C44.26 29.16 43.38 28.29 42.31 28.29V28.32ZM1.74 11.52V4.72C1.74 3.11 2.81 1.75 4.09 1.75H37.02C38.29 1.75 39.37 3.11 39.37 4.72V11.53H1.74V11.52ZM42.52 31.85C42.52 31.96 42.42 32.06 42.31 32.06H41.31C40.9 32.06 40.55 32.34 40.46 32.74C40.27 33.56 39.95 34.34 39.5 35.06C39.28 35.4 39.33 35.85 39.62 36.14L40.33 36.85C40.38 36.9 40.39 36.97 40.39 37C40.39 37.04 40.38 37.1 40.33 37.15L39.22 38.27C39.17 38.32 39.1 38.33 39.07 38.33C39.07 38.33 38.97 38.32 38.92 38.27L38.21 37.56C37.92 37.27 37.47 37.22 37.13 37.44C36.41 37.89 35.63 38.21 34.8 38.4C34.4 38.49 34.12 38.84 34.12 39.25V40.25C34.12 40.36 34.02 40.46 33.91 40.46H32.33C32.22 40.46 32.12 40.36 32.12 40.25V39.24C32.12 38.83 31.84 38.48 31.44 38.39C30.62 38.21 29.84 37.88 29.12 37.43C28.98 37.34 28.82 37.3 28.66 37.3C28.43 37.3 28.21 37.39 28.04 37.56L27.33 38.27C27.28 38.32 27.21 38.33 27.18 38.33C27.18 38.33 27.08 38.32 27.03 38.27L25.91 37.15C25.83 37.07 25.83 36.93 25.91 36.86L26.62 36.15C26.91 35.86 26.96 35.41 26.74 35.07C26.29 34.36 25.97 33.58 25.78 32.76C25.69 32.36 25.34 32.08 24.93 32.08H23.93C23.82 32.08 23.72 31.98 23.72 31.87V30.29C23.72 30.18 23.82 30.08 23.93 30.08H24.93C25.34 30.08 25.69 29.8 25.78 29.4C25.97 28.58 26.29 27.81 26.73 27.09C26.94 26.75 26.89 26.3 26.61 26.01L25.9 25.29C25.9 25.29 25.84 25.18 25.84 25.15C25.84 25.12 25.84 25.05 25.9 25L27.01 23.89C27.06 23.84 27.13 23.83 27.16 23.83C27.16 23.83 27.26 23.84 27.31 23.89L28.01 24.59C28.3 24.88 28.75 24.93 29.09 24.71C29.8 24.26 30.58 23.93 31.41 23.74C31.8 23.65 32.08 23.3 32.08 22.89V21.89C32.08 21.78 32.18 21.68 32.29 21.68H33.87C33.98 21.68 34.08 21.78 34.08 21.89V22.87C34.08 23.28 34.36 23.63 34.76 23.72C35.59 23.9 36.38 24.23 37.11 24.69C37.45 24.91 37.9 24.86 38.19 24.57L38.9 23.86C38.9 23.86 39.01 23.8 39.04 23.8C39.04 23.8 39.14 23.8 39.19 23.86L40.3 24.97C40.35 25.02 40.36 25.09 40.36 25.12C40.36 25.16 40.35 25.22 40.3 25.27L39.59 25.98C39.3 26.27 39.25 26.72 39.47 27.06C39.92 27.78 40.25 28.56 40.44 29.39C40.53 29.79 40.88 30.07 41.29 30.07H42.28C42.39 30.07 42.49 30.17 42.49 30.28V31.86L42.52 31.85Z" fill="white"/>
<path d="M33.1298 25.74C30.1898 25.74 27.7998 28.13 27.7998 31.07C27.7998 34.01 30.1898 36.39 33.1298 36.39C36.0698 36.39 38.4598 34 38.4598 31.07C38.4598 28.14 36.0698 25.74 33.1298 25.74V25.74ZM33.1298 34.65C31.1498 34.65 29.5498 33.04 29.5498 31.07C29.5498 29.1 31.1598 27.49 33.1298 27.49C35.0998 27.49 36.7098 29.1 36.7098 31.07C36.7098 33.04 35.0998 34.65 33.1298 34.65Z" fill="white"/>
<path d="M13.0902 32.06H13.0702C12.5902 32.06 12.2002 32.45 12.2002 32.93C12.2002 33.41 12.5902 33.8 13.0702 33.8H13.0902C13.5702 33.8 13.9602 33.41 13.9602 32.93C13.9602 32.45 13.5702 32.06 13.0902 32.06Z" fill="white"/>
</svg>
