<svg width="281" height="80" viewBox="0 0 281 80" fill="none" xmlns="http://www.w3.org/2000/svg">
<path opacity="0.7" d="M280.999 39.6477L268.524 60.8877H67.7207V59.4877L69.6422 58.4077C70.3539 57.9977 70.8114 57.2277 70.8114 56.3977V21.6577C70.8114 20.8277 70.3437 20.0677 69.6422 19.6477L67.7207 18.5677V18.3677H268.514L280.989 39.6277L280.999 39.6477Z" fill="url(#paint0_linear_621_133)"/>
<g opacity="0.7">
<path d="M91.2763 27.7075V35.9675H89.3345V32.5775H85.5219V35.9675H83.5801V27.7075H85.5219V30.9675H89.3345V27.7075H91.2763V27.7075Z" fill="white"/>
<path d="M98.8411 32.3478V35.9678H97.0924V35.1778C96.7467 35.7578 96.0757 36.0578 95.1302 36.0578C93.6255 36.0578 92.7207 35.2278 92.7207 34.1378C92.7207 33.0478 93.5239 32.2378 95.4962 32.2378H96.9806C96.9806 31.4478 96.5027 30.9878 95.4962 30.9878C94.8049 30.9878 94.1136 31.2178 93.6357 31.5778L92.9545 30.2878C93.6662 29.7978 94.7032 29.5278 95.7402 29.5278C97.7024 29.5278 98.8411 30.4178 98.8411 32.3578V32.3478ZM96.9704 33.9478V33.3078H95.6792C94.8049 33.3078 94.5304 33.6278 94.5304 34.0478C94.5304 34.5078 94.9269 34.8078 95.5877 34.8078C96.2486 34.8078 96.7569 34.5278 96.9602 33.9478H96.9704V33.9478Z" fill="white"/>
<path d="M100.135 32.7978C100.135 30.8878 101.629 29.5278 103.744 29.5278C105.096 29.5278 106.174 30.1078 106.641 31.1378L105.188 31.8978C104.842 31.2978 104.323 31.0278 103.734 31.0278C102.788 31.0278 102.036 31.6678 102.036 32.7878C102.036 33.9078 102.778 34.5478 103.734 34.5478C104.323 34.5478 104.842 34.2878 105.188 33.6778L106.641 34.4478C106.174 35.4578 105.106 36.0478 103.744 36.0478C101.65 36.0478 100.135 34.6978 100.135 32.7778V32.7978V32.7978Z" fill="white"/>
<path d="M110.422 33.4778L109.527 34.3478V35.9578H107.656V27.1978H109.527V32.1478L112.262 29.5978H114.488L111.804 32.2878L114.732 35.9378H112.465L110.422 33.4478H110.411L110.422 33.4778Z" fill="white"/>
<path d="M121.595 33.3176H116.715C116.888 34.1076 117.579 34.5976 118.565 34.5976C119.257 34.5976 119.745 34.3976 120.182 33.9876L121.178 35.0476C120.578 35.7276 119.684 36.0776 118.514 36.0776C116.288 36.0776 114.834 34.6876 114.834 32.8076C114.834 30.9276 116.308 29.5376 118.27 29.5376C120.233 29.5376 121.636 30.7876 121.636 32.8276C121.636 32.9676 121.615 33.1676 121.605 33.3176H121.595V33.3176ZM116.695 32.2576H119.877C119.745 31.4476 119.135 30.9376 118.291 30.9376C117.447 30.9376 116.827 31.4476 116.695 32.2576Z" fill="white"/>
<path d="M122.389 32.7978C122.389 30.8878 123.883 29.5278 125.937 29.5278C127.991 29.5278 129.475 30.8778 129.475 32.7978C129.475 34.7178 127.991 36.0678 125.937 36.0678C123.883 36.0678 122.389 34.7178 122.389 32.7978V32.7978ZM127.584 32.7978C127.584 31.6978 126.872 31.0378 125.947 31.0378C125.022 31.0378 124.29 31.7078 124.29 32.7978C124.29 33.8878 125.012 34.5578 125.947 34.5578C126.882 34.5578 127.584 33.8878 127.584 32.7978V32.7978Z" fill="white"/>
<path d="M140.413 33.3177H135.533C135.706 34.1077 136.397 34.5977 137.384 34.5977C138.075 34.5977 138.563 34.3977 139 33.9877L139.996 35.0477C139.397 35.7277 138.502 36.0777 137.333 36.0777C135.106 36.0777 133.652 34.6877 133.652 32.8077C133.652 30.9277 135.127 29.5377 137.089 29.5377C139.051 29.5377 140.454 30.7877 140.454 32.8277C140.454 32.9677 140.434 33.1677 140.423 33.3177H140.413V33.3177ZM135.513 32.2577H138.695C138.563 31.4477 137.953 30.9377 137.109 30.9377C136.265 30.9377 135.645 31.4477 135.513 32.2577ZM137.434 28.8177H135.97L137.587 27.1177H139.61L137.434 28.8177V28.8177Z" fill="white"/>
<path d="M145.864 35.6675C145.478 35.9375 144.919 36.0675 144.349 36.0675C142.834 36.0675 141.94 35.3075 141.94 33.7875V31.1775H140.943V29.7575H141.94V28.2075H143.81V29.7575H145.417V31.1775H143.81V33.7675C143.81 34.3175 144.105 34.6075 144.614 34.6075C144.888 34.6075 145.173 34.5175 145.366 34.3675L145.864 35.6675V35.6675Z" fill="white"/>
<path d="M146.688 27.7077C146.688 27.1277 147.155 26.6777 147.857 26.6777C148.558 26.6777 149.026 27.1077 149.026 27.6677C149.026 28.2777 148.558 28.7277 147.857 28.7277C147.155 28.7277 146.688 28.2777 146.688 27.6977V27.7077ZM146.921 29.6177H148.792V35.9677H146.921V29.6177Z" fill="white"/>
<path d="M150.053 32.7978C150.053 30.8878 151.547 29.5278 153.662 29.5278C155.014 29.5278 156.092 30.1078 156.559 31.1378L155.106 31.8978C154.76 31.2978 154.241 31.0278 153.652 31.0278C152.706 31.0278 151.954 31.6678 151.954 32.7878C151.954 33.9078 152.696 34.5478 153.652 34.5478C154.241 34.5478 154.76 34.2878 155.106 33.6778L156.559 34.4478C156.092 35.4578 155.024 36.0478 153.662 36.0478C151.568 36.0478 150.053 34.6978 150.053 32.7778V32.7978V32.7978Z" fill="white"/>
<path d="M157.047 32.7978C157.047 30.8878 158.541 29.5278 160.595 29.5278C162.649 29.5278 164.133 30.8778 164.133 32.7978C164.133 34.7178 162.649 36.0678 160.595 36.0678C158.541 36.0678 157.047 34.7178 157.047 32.7978V32.7978ZM162.242 32.7978C162.242 31.6978 161.53 31.0378 160.605 31.0378C159.68 31.0378 158.948 31.7078 158.948 32.7978C158.948 33.8878 159.67 34.5578 160.605 34.5578C161.541 34.5578 162.242 33.8878 162.242 32.7978V32.7978Z" fill="white"/>
<path d="M175.194 29.6177L172.276 36.3577C171.656 37.8977 170.771 38.3577 169.602 38.3577C168.952 38.3577 168.23 38.1377 167.803 37.7777L168.494 36.4677C168.779 36.7177 169.185 36.8677 169.551 36.8677C170.06 36.8677 170.355 36.6377 170.609 36.0677L170.629 36.0177L167.833 29.6277H169.765L171.575 33.9377L173.394 29.6277H175.204L175.194 29.6177Z" fill="white"/>
<path d="M186.4 32.7976C186.4 34.7976 184.987 36.0676 183.188 36.0676C182.384 36.0676 181.724 35.8176 181.246 35.3076V38.2776H179.375V29.6376H181.164V30.3676C181.632 29.8076 182.334 29.5376 183.198 29.5376C185.007 29.5376 186.41 30.8176 186.41 32.8076L186.4 32.7976ZM184.499 32.7876C184.499 31.6876 183.787 31.0276 182.862 31.0276C181.937 31.0276 181.225 31.6976 181.225 32.7876C181.225 33.8776 181.937 34.5476 182.862 34.5476C183.787 34.5476 184.499 33.8776 184.499 32.7876Z" fill="white"/>
<path d="M191.654 29.5176V31.2176C191.502 31.2076 191.38 31.1976 191.237 31.1976C190.21 31.1976 189.519 31.7576 189.519 32.9676V35.9676H187.648V29.6176H189.438V30.4576C189.895 29.8476 190.658 29.5276 191.654 29.5276H191.664L191.654 29.5176Z" fill="white"/>
<path d="M199.321 29.6177V35.9677H197.542V35.2177C197.054 35.7777 196.332 36.0677 195.539 36.0677C193.922 36.0677 192.773 35.1777 192.773 33.2077V29.6177H194.644V32.9377C194.644 33.9977 195.122 34.4777 195.956 34.4777C196.789 34.4777 197.44 33.9277 197.44 32.7677V29.6277H199.311L199.321 29.6177Z" fill="white"/>
<path d="M207.341 33.3176H202.461C202.634 34.1076 203.325 34.5976 204.311 34.5976C205.003 34.5976 205.491 34.3976 205.928 33.9876L206.924 35.0476C206.324 35.7276 205.43 36.0776 204.26 36.0776C202.034 36.0776 200.58 34.6876 200.58 32.8076C200.58 30.9276 202.054 29.5376 204.016 29.5376C205.979 29.5376 207.382 30.7876 207.382 32.8276C207.382 32.9676 207.361 33.1676 207.351 33.3176H207.341V33.3176ZM202.441 32.2576H205.623C205.491 31.4476 204.881 30.9376 204.037 30.9376C203.193 30.9376 202.573 31.4476 202.441 32.2576Z" fill="white"/>
<path d="M215.647 32.7975C215.647 34.7975 214.234 36.0675 212.434 36.0675C211.57 36.0675 210.868 35.7975 210.401 35.2375V35.9675H208.611V27.2075H210.482V30.2875C210.96 29.7675 211.621 29.5275 212.424 29.5275C214.234 29.5275 215.637 30.8075 215.637 32.7975H215.647ZM213.746 32.7975C213.746 31.6975 213.034 31.0375 212.109 31.0375C211.184 31.0375 210.472 31.7075 210.472 32.7975C210.472 33.8875 211.184 34.5575 212.109 34.5575C213.034 34.5575 213.746 33.8875 213.746 32.7975V32.7975Z" fill="white"/>
<path d="M222.511 32.3478V35.9678H220.762V35.1778C220.417 35.7578 219.746 36.0578 218.8 36.0578C217.295 36.0578 216.391 35.2278 216.391 34.1378C216.391 33.0478 217.194 32.2378 219.166 32.2378H220.651C220.651 31.4478 220.173 30.9878 219.166 30.9878C218.475 30.9878 217.783 31.2178 217.306 31.5778L216.624 30.2878C217.336 29.7978 218.373 29.5278 219.41 29.5278C221.372 29.5278 222.511 30.4178 222.511 32.3578V32.3478ZM220.64 33.9478V33.3078H219.349C218.475 33.3078 218.2 33.6278 218.2 34.0478C218.2 34.5078 218.597 34.8078 219.258 34.8078C219.918 34.8078 220.427 34.5278 220.63 33.9478H220.64V33.9478Z" fill="white"/>
<path d="M223.567 35.3778L224.187 34.0578C224.767 34.4278 225.641 34.6678 226.424 34.6678C227.288 34.6678 227.614 34.4378 227.614 34.0878C227.614 33.0478 223.71 34.1078 223.71 31.5778C223.71 30.3778 224.818 29.5278 226.688 29.5278C227.573 29.5278 228.559 29.7278 229.169 30.0878L228.549 31.3978C227.919 31.0478 227.278 30.9278 226.688 30.9278C225.845 30.9278 225.489 31.1878 225.489 31.5178C225.489 32.6078 229.393 31.5478 229.393 34.0578C229.393 35.2378 228.274 36.0778 226.343 36.0778C225.255 36.0778 224.147 35.7878 223.547 35.3878H223.557L223.567 35.3778Z" fill="white"/>
<path d="M240.537 27.2075V35.9675H238.748V35.2375C238.28 35.7975 237.599 36.0675 236.725 36.0675C234.905 36.0675 233.502 34.7875 233.502 32.7975C233.502 30.8075 234.915 29.5275 236.725 29.5275C237.508 29.5275 238.189 29.7775 238.657 30.2875V27.2075H240.527H240.537ZM238.697 32.7975C238.697 31.6975 237.975 31.0375 237.06 31.0375C236.145 31.0375 235.403 31.7075 235.403 32.7975C235.403 33.8875 236.125 34.5575 237.06 34.5575C237.996 34.5575 238.697 33.8875 238.697 32.7975V32.7975Z" fill="white"/>
<path d="M248.56 33.3176H243.68C243.853 34.1076 244.544 34.5976 245.53 34.5976C246.221 34.5976 246.709 34.3976 247.147 33.9876L248.143 35.0476C247.543 35.7276 246.648 36.0776 245.479 36.0776C243.253 36.0776 241.799 34.6876 241.799 32.8076C241.799 30.9276 243.273 29.5376 245.235 29.5376C247.197 29.5376 248.6 30.7876 248.6 32.8276C248.6 32.9676 248.58 33.1676 248.57 33.3176H248.56V33.3176ZM243.659 32.2576H246.842C246.709 31.4476 246.099 30.9376 245.256 30.9376C244.412 30.9376 243.792 31.4476 243.659 32.2576Z" fill="white"/>
<path d="M82.8192 49.5375L83.4393 48.2175C84.0188 48.5875 84.8932 48.8275 85.676 48.8275C86.5402 48.8275 86.8655 48.5975 86.8655 48.2475C86.8655 47.2075 82.9615 48.2675 82.9615 45.7375C82.9615 44.5375 84.0697 43.6875 85.9404 43.6875C86.8249 43.6875 87.811 43.8875 88.4211 44.2475L87.8009 45.5575C87.1705 45.1975 86.53 45.0875 85.9404 45.0875C85.0965 45.0875 84.7407 45.3475 84.7407 45.6775C84.7407 46.7675 88.6447 45.7075 88.6447 48.2175C88.6447 49.3975 87.5264 50.2375 85.5947 50.2375C84.5068 50.2375 83.3987 49.9475 82.7988 49.5475H82.809L82.8192 49.5375Z" fill="white"/>
<path d="M96.1066 47.4778H91.2266C91.3994 48.2778 92.0907 48.7578 93.0769 48.7578C93.7682 48.7578 94.2563 48.5578 94.6934 48.1478L95.6898 49.2078C95.0899 49.8878 94.1953 50.2378 93.0261 50.2378C90.7996 50.2378 89.3457 48.8478 89.3457 46.9678C89.3457 45.0878 90.8199 43.6978 92.7821 43.6978C94.7443 43.6978 96.1473 44.9478 96.1473 46.9878C96.1473 47.1278 96.1269 47.3278 96.1168 47.4778H96.1066V47.4778ZM91.2062 46.4178H94.3884C94.2562 45.6078 93.6462 45.0978 92.8024 45.0978C91.9586 45.0978 91.3384 45.5978 91.2062 46.4178Z" fill="white"/>
<path d="M104.049 43.7778V49.0678C104.049 51.4278 102.748 52.5178 100.42 52.5178C99.1996 52.5178 98.0101 52.2278 97.2476 51.6478L97.9898 50.3278C98.549 50.7678 99.4436 51.0478 100.277 51.0478C101.599 51.0478 102.178 50.4578 102.178 49.3178V49.0478C101.69 49.5778 100.979 49.8378 100.135 49.8378C98.3456 49.8378 96.9121 48.6278 96.9121 46.7678C96.9121 44.9078 98.3558 43.6978 100.135 43.6978C101.03 43.6978 101.772 43.9878 102.28 44.6078V43.7878H104.059L104.049 43.7778ZM102.199 46.7578C102.199 45.8178 101.487 45.1978 100.501 45.1978C99.5148 45.1978 98.793 45.8178 98.793 46.7578C98.793 47.6978 99.5148 48.3178 100.501 48.3178C101.487 48.3178 102.199 47.6978 102.199 46.7578Z" fill="white"/>
<path d="M112.282 43.7778V50.1278H110.503V49.3778C110.015 49.9378 109.293 50.2278 108.5 50.2278C106.883 50.2278 105.734 49.3378 105.734 47.3678V43.7778H107.605V47.0978C107.605 48.1578 108.083 48.6378 108.917 48.6378C109.75 48.6378 110.401 48.0878 110.401 46.9278V43.7878H112.272L112.282 43.7778Z" fill="white"/>
<path d="M118.037 43.6978V45.3978C117.884 45.3878 117.762 45.3778 117.62 45.3778C116.593 45.3778 115.902 45.9378 115.902 47.1478V50.1478H114.031V43.7978H115.821V44.6378C116.278 44.0278 117.041 43.6978 118.037 43.6978H118.047H118.037Z" fill="white"/>
<path d="M118.922 41.8679C118.922 41.2879 119.39 40.8379 120.091 40.8379C120.793 40.8379 121.26 41.2679 121.26 41.8279C121.26 42.4379 120.793 42.8879 120.091 42.8879C119.39 42.8879 118.922 42.4379 118.922 41.8579V41.8679ZM119.156 43.7779H121.026V50.1279H119.156V43.7779Z" fill="white"/>
<path d="M129.332 41.3779V50.1379H127.543V49.4079C127.075 49.9679 126.394 50.2379 125.52 50.2379C123.7 50.2379 122.297 48.9579 122.297 46.9679C122.297 44.9779 123.71 43.6979 125.52 43.6979C126.303 43.6979 126.984 43.9479 127.451 44.4579V41.3779H129.322H129.332ZM127.492 46.9679C127.492 45.8679 126.77 45.2079 125.855 45.2079C124.94 45.2079 124.198 45.8779 124.198 46.9679C124.198 48.0579 124.92 48.7279 125.855 48.7279C126.791 48.7279 127.492 48.0579 127.492 46.9679Z" fill="white"/>
<path d="M136.775 46.5075V50.1275H135.026V49.3375C134.68 49.9175 134.009 50.2175 133.064 50.2175C131.559 50.2175 130.654 49.3875 130.654 48.2975C130.654 47.2075 131.457 46.3975 133.43 46.3975H134.914C134.914 45.6075 134.436 45.1475 133.43 45.1475C132.738 45.1475 132.047 45.3775 131.569 45.7375L130.888 44.4475C131.6 43.9575 132.637 43.6875 133.674 43.6875C135.636 43.6875 136.775 44.5775 136.775 46.5175V46.5075ZM134.904 48.1075V47.4575H133.613C132.738 47.4575 132.464 47.7775 132.464 48.1975C132.464 48.6575 132.86 48.9575 133.521 48.9575C134.182 48.9575 134.691 48.6775 134.894 48.0975H134.904V48.1075Z" fill="white"/>
<path d="M145.11 41.3779V50.1379H143.32V49.4079C142.853 49.9679 142.171 50.2379 141.297 50.2379C139.477 50.2379 138.074 48.9579 138.074 46.9679C138.074 44.9779 139.487 43.6979 141.297 43.6979C142.08 43.6979 142.761 43.9479 143.229 44.4579V41.3779H145.099H145.11ZM143.269 46.9679C143.269 45.8679 142.548 45.2079 141.633 45.2079C140.718 45.2079 139.975 45.8779 139.975 46.9679C139.975 48.0579 140.697 48.7279 141.633 48.7279C142.568 48.7279 143.269 48.0579 143.269 46.9679Z" fill="white"/>
</g>
<path opacity="0.7" d="M68.901 22.6775V57.4275C68.901 58.2575 68.4435 59.0175 67.7115 59.4375L66.4914 60.1375L37.1197 76.8275C36.3877 77.2375 35.493 77.2375 34.7508 76.8275L4.18951 59.4375C3.4575 59.0275 3 58.2575 3 57.4275V22.6775C3 21.8475 3.4575 21.0875 4.18951 20.6675L34.761 3.3075C35.493 2.8975 36.3877 2.8975 37.1298 3.3075L65.5764 19.4675L67.7013 20.6775C68.4333 21.0875 68.8908 21.8575 68.8908 22.6875L68.901 22.6775Z" stroke="url(#paint1_linear_621_133)" stroke-width="4.06" stroke-linecap="round" stroke-linejoin="round"/>
<g opacity="0.7">
<path d="M46.9204 28.6675C46.9204 28.3775 46.6459 28.1475 46.4323 28.1475C46.3815 28.1475 46.3307 28.1475 46.3002 28.1775L44.46 29.3575C44.2973 29.4675 44.2363 29.6275 44.2363 29.7575C44.2363 29.8875 44.2872 30.0475 44.46 30.1575L46.3002 31.3375C46.3002 31.3375 46.3917 31.3675 46.4323 31.3675C46.656 31.3675 46.9204 31.1375 46.9204 30.8475C46.9204 30.7275 46.8695 30.6175 46.7882 30.5775L45.5173 29.7675L46.7882 28.9575C46.8695 28.9075 46.9204 28.8075 46.9204 28.6875V28.6675V28.6675Z" fill="url(#paint2_linear_621_133)"/>
<path d="M50.5604 26.2373C50.4282 26.2373 50.3164 26.2873 50.2655 26.4073L47.7239 31.5473C47.7239 31.5473 47.6934 31.6373 47.6934 31.6773C47.6934 31.8473 47.8459 32.0573 48.1 32.0573C48.2322 32.0573 48.3745 31.9773 48.4254 31.8873L50.9772 26.7473C50.9772 26.7473 51.0077 26.6573 51.0077 26.6173C51.0077 26.3873 50.7841 26.2373 50.5706 26.2373H50.5604Z" fill="url(#paint3_linear_621_133)"/>
<path d="M54.2201 29.3677L52.3799 28.1877C52.3799 28.1877 52.2884 28.1577 52.2478 28.1577C52.0241 28.1577 51.7598 28.3877 51.7598 28.6777C51.7598 28.7977 51.8106 28.9077 51.8919 28.9477L53.1628 29.7577L51.8919 30.5677C51.8106 30.6177 51.7598 30.7177 51.7598 30.8377C51.7598 31.1277 52.0343 31.3577 52.2478 31.3577C52.2986 31.3577 52.3494 31.3577 52.3799 31.3277L54.2201 30.1477C54.3828 30.0377 54.4438 29.8777 54.4438 29.7477C54.4438 29.6177 54.393 29.4577 54.2201 29.3477V29.3677V29.3677Z" fill="url(#paint4_linear_621_133)"/>
<path d="M55.115 22.5375H42.498C41.8474 20.8675 40.1902 19.6675 38.2585 19.6675H29.7998C27.3089 19.6675 25.2755 21.6675 25.2755 24.1175V29.1775C24.7672 29.6075 24.5334 30.2775 24.6655 30.9475L25.001 32.7475C25.123 33.3675 25.4586 33.6875 25.7127 33.8375C25.9974 34.0075 26.3227 34.0675 26.6176 34.0775V34.3975C26.6176 36.0275 27.5834 37.8075 29.2609 39.3075C29.5863 39.5875 29.9014 39.8575 30.2369 40.0775V41.0475C30.2369 41.3375 30.0234 41.5975 29.7286 41.6475H29.6879C29.6879 41.6475 28.6712 41.9175 27.3597 42.2775H23.0592C22.5712 42.2775 22.1035 42.4775 21.7883 42.8275C21.4732 43.1775 21.2902 43.6475 21.3207 44.1275V44.2875C19.4093 45.2375 18.1995 46.9375 18.0775 48.8675V48.8875L17.9453 56.8275C17.9453 57.4075 18.169 57.9575 18.5757 58.3775C18.9925 58.7875 19.5517 59.0175 20.1413 59.0175H47.9373C48.5269 59.0175 49.0759 58.7875 49.5029 58.3775C49.93 57.9675 50.1435 57.4175 50.1333 56.8275L50.0011 48.8975V48.8775C49.8791 46.8875 48.6083 45.1475 46.5851 44.2175C46.5546 44.1975 46.5038 44.1875 46.4733 44.1675V44.1375C46.5038 43.6675 46.3411 43.1875 46.0056 42.8375C45.6701 42.4875 45.2024 42.2875 44.7347 42.2875H40.729C39.4073 41.9175 38.411 41.6675 38.4008 41.6575H38.3602C38.0653 41.6075 37.8518 41.3475 37.8518 41.0575V40.0875C38.1873 39.8475 38.5127 39.5975 38.8278 39.3175C39.8954 38.3675 40.668 37.2975 41.1052 36.2275H44.9076L44.2467 38.8675C44.1349 39.3075 44.3179 39.7475 44.7042 39.9975C44.8771 40.1175 45.0906 40.1675 45.2939 40.1675C45.5277 40.1675 45.7514 40.0875 45.9446 39.9475L50.8755 36.2175H55.1353C56.6807 36.2175 57.9414 34.9875 57.9414 33.4575V25.2775C57.9414 23.7575 56.6908 22.5175 55.1353 22.5175H55.1455L55.115 22.5375ZM41.4509 30.1975C41.6745 30.1175 41.888 30.0875 42.0304 30.0775C42.2235 30.2375 42.2947 30.5075 42.254 30.7675L41.9185 32.5575C41.8779 32.8075 41.7762 32.8675 41.7457 32.8875C41.6745 32.9275 41.583 32.9575 41.461 32.9575V30.2075L41.4509 30.1975ZM26.4346 24.1475C26.4346 22.3275 27.9392 20.8375 29.7998 20.8375H38.2585C40.1089 20.8375 41.6237 22.3175 41.6237 24.1475V28.9775C41.339 29.0275 40.973 29.1175 40.6172 29.3075V25.7975C40.6172 24.5275 39.57 23.5075 38.289 23.5075H36.703C36.1438 23.5075 35.6151 23.6975 35.1983 24.0375L35.0458 24.1575C34.7611 24.3875 34.4053 24.5075 34.0393 24.5075C33.6733 24.5075 33.3175 24.3775 33.0328 24.1575L32.8803 24.0375C32.4635 23.6975 31.9144 23.5075 31.3756 23.5075H29.7896C28.4984 23.5075 27.4614 24.5375 27.4614 25.7975V29.3075C27.1056 29.1175 26.7497 29.0275 26.4549 28.9775V24.1475H26.4651H26.4346ZM26.3126 32.8975C26.3126 32.8975 26.1804 32.8175 26.1397 32.5675L25.8042 30.7675C25.7636 30.5075 25.8347 30.2475 26.0279 30.0775C26.1601 30.0875 26.3837 30.1175 26.6074 30.1975V32.9475C26.4854 32.9475 26.3837 32.9275 26.3227 32.8775L26.3126 32.8975ZM21.1173 57.4975C21.1173 57.6375 21.1377 57.7775 21.1682 57.9075H20.1108C19.8363 57.9075 19.5822 57.7975 19.3788 57.6175C19.1857 57.4175 19.084 57.1675 19.084 56.8975L19.2162 48.9775C19.3077 47.5875 20.0803 46.3875 21.3918 45.6075L22.1137 55.4775C22.1239 55.6675 22.1645 55.8375 22.2357 55.9875C21.5952 56.1875 21.1173 56.7875 21.1173 57.4775V57.4975ZM45.6294 55.4875L46.3614 45.4475C47.8356 46.2175 48.7201 47.4975 48.8116 48.9675L48.9438 56.8875C48.9438 57.1575 48.8421 57.4075 48.6489 57.6075C48.4558 57.8075 48.1914 57.8975 47.9169 57.8975H46.8596C46.8901 57.7675 46.9104 57.6275 46.9104 57.4875C46.9104 56.6875 46.3004 56.0275 45.5277 55.9275C45.5786 55.7875 45.6192 55.6375 45.6294 55.4675V55.4875ZM45.7514 57.5175C45.7514 57.7475 45.5582 57.9275 45.3346 57.9275H22.7237C22.4899 57.9275 22.3069 57.7375 22.3069 57.5175C22.3069 57.2975 22.5 57.1075 22.7237 57.1075H45.3346C45.5684 57.1075 45.7514 57.2975 45.7514 57.5175ZM45.1312 43.6875C45.2431 43.8075 45.2939 43.9575 45.2837 44.1175L44.4602 55.4275C44.4399 55.7175 44.1857 55.9475 43.8807 55.9475H23.8624C23.5675 55.9475 23.3032 55.7175 23.2829 55.4275L22.4594 44.1275C22.4492 43.9675 22.5 43.8175 22.6119 43.6975C22.7237 43.5775 22.866 43.5075 23.0287 43.5075H44.7042C44.8669 43.5075 45.0194 43.5775 45.1211 43.6975L45.1312 43.6875ZM37.1707 42.3475H30.8774C31.2028 42.0275 31.3858 41.5875 31.3858 41.1175V40.8575C32.3109 41.3275 33.226 41.5875 34.019 41.5875C34.812 41.5875 35.727 41.3275 36.6522 40.8575V41.1175C36.6522 41.5975 36.8555 42.0375 37.1605 42.3475H37.1707V42.3475ZM38.0247 38.5175C36.7132 39.6875 35.1475 40.4375 34.0291 40.4375C32.9108 40.4375 31.3451 39.6875 30.0336 38.5175C28.6001 37.2375 27.7664 35.7575 27.7664 34.4575V30.8275H27.7867C27.8986 30.8275 28.0002 30.8075 28.1019 30.7575C28.4171 30.6275 28.6001 30.3475 28.6001 30.0175V25.8175C28.6001 25.1875 29.1186 24.6875 29.7489 24.6875H31.3349C31.6094 24.6875 31.8941 24.7875 32.0974 24.9575L32.2499 25.0775C32.738 25.4675 33.3581 25.6875 33.9986 25.6875C34.6391 25.6875 35.2491 25.4675 35.7473 25.0775L35.8998 24.9575C36.1133 24.7875 36.3878 24.6875 36.6623 24.6875H38.2483C38.8888 24.6875 39.3972 25.1975 39.3972 25.8175V30.0175C39.3972 30.3475 39.6005 30.6375 39.8954 30.7575C40.0072 30.7975 40.119 30.8275 40.2309 30.8275V34.4575C40.2309 35.7575 39.4073 37.2375 37.9637 38.5175H37.984H38.0247ZM56.7417 33.5175C56.7417 34.3975 56.0097 35.1175 55.115 35.1175H50.6518C50.5196 35.1175 50.3976 35.1575 50.296 35.2375L45.4362 38.9175L46.2089 35.8375C46.2496 35.6675 46.2089 35.4875 46.0971 35.3475C45.9852 35.2075 45.8226 35.1275 45.6294 35.1275H41.3899C41.4204 34.8975 41.4407 34.6775 41.4407 34.4575V34.1375C41.7355 34.1375 42.0609 34.0875 42.3455 33.8975C42.5997 33.7475 42.9352 33.4175 43.0572 32.7975L43.3927 30.9975C43.5147 30.3175 43.2809 29.6575 42.7827 29.2275V24.1675C42.7827 24.0275 42.7827 23.8775 42.7624 23.7275H55.1048C55.9995 23.7275 56.7315 24.4475 56.7315 25.3275V33.5075H56.7213L56.7417 33.5175Z" fill="url(#paint5_linear_621_133)"/>
<path d="M34.0304 52.2975C35.2504 52.2975 36.2366 51.3275 36.2366 50.1275C36.2366 48.9275 35.2504 47.9575 34.0304 47.9575C32.8104 47.9575 31.8242 48.9275 31.8242 50.1275C31.8242 51.3275 32.8104 52.2975 34.0304 52.2975ZM34.0304 49.1075C34.5997 49.1075 35.0573 49.5675 35.0573 50.1175C35.0573 50.6675 34.5896 51.1275 34.0304 51.1275C33.4712 51.1275 33.0036 50.6675 33.0036 50.1175C33.0036 49.5675 33.4712 49.1075 34.0304 49.1075Z" fill="url(#paint6_linear_621_133)"/>
</g>
<path d="M273.059 53.9573L268.962 60.9173H203.122L199.035 53.9573L203.122 47.0073H268.962L273.059 53.9573Z" fill="white"/>
<path d="M210.065 52.4375C210.065 53.8575 208.998 54.7475 207.3 54.7475H206.029L205.724 56.2875H204.402L205.541 50.6875H207.839C209.262 50.6875 210.065 51.3375 210.065 52.4275V52.4375ZM208.733 52.5475C208.733 52.0075 208.347 51.7475 207.676 51.7475H206.639L206.243 53.6875H207.361C208.235 53.6875 208.733 53.2875 208.733 52.5475Z" fill="black"/>
<path d="M213.797 51.9275L213.573 53.0775C213.461 53.0775 213.39 53.0575 213.278 53.0575C212.526 53.0575 212.048 53.3975 211.885 54.2075L211.458 56.2875H210.188L211.062 51.9875H212.262L212.16 52.4975C212.546 52.0775 213.085 51.9175 213.797 51.9175V51.9275Z" fill="black"/>
<path d="M213.705 54.4277C213.705 52.9977 214.813 51.9277 216.348 51.9277C217.69 51.9277 218.555 52.6877 218.555 53.8577C218.555 55.2877 217.457 56.3577 215.911 56.3577C214.579 56.3577 213.705 55.5877 213.705 54.4277ZM217.263 53.9077C217.263 53.3277 216.908 52.9577 216.267 52.9577C215.515 52.9577 214.986 53.5377 214.986 54.3777C214.986 54.9577 215.352 55.3277 215.982 55.3277C216.725 55.3277 217.263 54.7477 217.263 53.9077Z" fill="black"/>
<path d="M221.767 54.1476L222.987 56.2976H221.645L220.933 54.9776L219.672 56.2976H218.229L220.414 54.0876L219.255 51.9976H220.567L221.258 53.2576L222.478 51.9976H223.881L221.777 54.1476H221.767Z" fill="black"/>
<path d="M224.511 51.9876H225.772L224.897 56.2876H223.637L224.511 51.9876ZM224.613 50.7376C224.613 50.3176 224.948 49.9976 225.446 49.9976C225.894 49.9976 226.199 50.2676 226.199 50.6176C226.199 51.0776 225.853 51.3876 225.355 51.3876C224.908 51.3876 224.613 51.0976 224.613 50.7376Z" fill="black"/>
<path d="M233.998 53.3875C233.998 53.5575 233.978 53.7275 233.937 53.9175L233.46 56.2975H232.189L232.656 54.0075C232.677 53.8875 232.687 53.7875 232.687 53.6775C232.687 53.2475 232.453 53.0175 231.996 53.0175C231.406 53.0175 230.999 53.3575 230.847 54.0975L230.399 56.3075H229.129L229.596 54.0175C229.617 53.8975 229.627 53.7975 229.627 53.6975C229.627 53.2575 229.393 53.0275 228.935 53.0275C228.346 53.0275 227.939 53.3675 227.776 54.1275L227.339 56.3175H226.068L226.943 52.0175H228.142L228.041 52.4675C228.427 52.1275 228.905 51.9575 229.413 51.9575C230.013 51.9575 230.511 52.1975 230.755 52.6575C231.182 52.1975 231.752 51.9575 232.423 51.9575C233.358 51.9575 233.988 52.4575 233.988 53.4175L233.998 53.3875Z" fill="black"/>
<path d="M239.975 51.9877L239.101 56.2877H237.901L237.983 55.8677C237.637 56.1777 237.179 56.3577 236.641 56.3577C235.624 56.3577 234.76 55.6577 234.76 54.4277C234.76 52.9777 235.827 51.9277 237.169 51.9277C237.8 51.9277 238.308 52.1277 238.593 52.5777L238.704 51.9977H239.975V51.9877ZM238.318 53.9077C238.318 53.3277 237.952 52.9577 237.322 52.9577C236.569 52.9577 236.041 53.5377 236.041 54.3777C236.041 54.9577 236.407 55.3277 237.037 55.3277C237.789 55.3277 238.318 54.7477 238.318 53.9077Z" fill="black"/>
<path d="M248.19 53.3875C248.19 53.5575 248.17 53.7275 248.129 53.9175L247.651 56.2975H246.38L246.848 54.0075C246.868 53.8875 246.878 53.7875 246.878 53.6775C246.878 53.2475 246.644 53.0175 246.187 53.0175C245.597 53.0175 245.191 53.3575 245.038 54.0975L244.591 56.3075H243.32L243.788 54.0175C243.808 53.8975 243.818 53.7975 243.818 53.6975C243.818 53.2575 243.584 53.0275 243.127 53.0275C242.537 53.0275 242.13 53.3675 241.968 54.1275L241.531 56.3175H240.26L241.134 52.0175H242.334L242.232 52.4675C242.618 52.1275 243.096 51.9575 243.605 51.9575C244.204 51.9575 244.703 52.1975 244.947 52.6575C245.374 52.1975 245.943 51.9575 246.614 51.9575C247.549 51.9575 248.18 52.4575 248.18 53.4175L248.19 53.3875Z" fill="black"/>
<path d="M253.529 54.4777H250.184C250.224 55.0577 250.59 55.3577 251.312 55.3577C251.76 55.3577 252.187 55.2177 252.481 54.9577L253.01 55.7777C252.502 56.1777 251.851 56.3577 251.18 56.3577C249.818 56.3577 248.943 55.5977 248.943 54.4277C248.943 52.9877 250.001 51.9277 251.516 51.9277C252.797 51.9277 253.6 52.6677 253.6 53.8177C253.6 54.0477 253.569 54.2777 253.529 54.4777V54.4777ZM250.265 53.7477H252.431C252.431 53.1777 252.044 52.8577 251.455 52.8577C250.865 52.8577 250.428 53.2077 250.255 53.7477H250.265Z" fill="black"/>
<path d="M258.977 53.3877C258.977 53.5477 258.957 53.7277 258.916 53.9077L258.428 56.2877H257.158L257.625 53.9877C257.646 53.8877 257.656 53.7777 257.656 53.6877C257.656 53.2477 257.412 52.9977 256.903 52.9977C256.263 52.9977 255.816 53.3477 255.663 54.0977L255.226 56.2777H253.955L254.829 51.9777H256.029L255.927 52.4377C256.324 52.0777 256.832 51.9077 257.371 51.9077C258.327 51.9077 258.967 52.4177 258.967 53.3677L258.977 53.3877Z" fill="black"/>
<path d="M261.305 54.7774C261.285 54.8374 261.285 54.8974 261.285 54.9574C261.285 55.2174 261.427 55.3774 261.753 55.3774C261.925 55.3774 262.098 55.3174 262.261 55.2274L262.444 56.1174C262.129 56.3074 261.732 56.3774 261.356 56.3774C260.543 56.3774 259.994 55.9274 259.994 55.1774C259.994 55.0574 260.014 54.9274 260.034 54.7974L260.38 53.0574H259.709L259.902 52.0974H260.573L260.787 51.0474H262.058L261.844 52.0974H262.932L262.739 53.0574H261.651L261.305 54.7874V54.7774Z" fill="black"/>
<path d="M267.659 54.4777H264.315C264.355 55.0577 264.721 55.3577 265.443 55.3577C265.89 55.3577 266.317 55.2177 266.612 54.9577L267.141 55.7777C266.633 56.1777 265.982 56.3577 265.311 56.3577C263.949 56.3577 263.074 55.5977 263.074 54.4277C263.074 52.9877 264.132 51.9277 265.646 51.9277C266.917 51.9277 267.731 52.6677 267.731 53.8177C267.731 54.0477 267.7 54.2777 267.659 54.4777V54.4777ZM264.396 53.7477H266.561C266.561 53.1777 266.175 52.8577 265.585 52.8577C264.996 52.8577 264.559 53.2077 264.386 53.7477H264.396Z" fill="black"/>
<path d="M217.171 50.1177H218.574L216.978 51.2677H215.951L217.171 50.1177Z" fill="black"/>
<defs>
<linearGradient id="paint0_linear_621_133" x1="67.7207" y1="39.6277" x2="280.999" y2="39.6277" gradientUnits="userSpaceOnUse">
<stop stop-color="#172765"/>
<stop offset="0.23" stop-color="#193A68"/>
<stop offset="0.69" stop-color="#206E70"/>
<stop offset="1" stop-color="#259377"/>
</linearGradient>
<linearGradient id="paint1_linear_621_133" x1="0.936147" y1="40.0575" x2="70.9648" y2="40.0575" gradientUnits="userSpaceOnUse">
<stop stop-color="#172765"/>
<stop offset="0.23" stop-color="#193A68"/>
<stop offset="0.69" stop-color="#206E70"/>
<stop offset="1" stop-color="#259377"/>
</linearGradient>
<linearGradient id="paint2_linear_621_133" x1="44.2363" y1="29.7575" x2="46.9204" y2="29.7575" gradientUnits="userSpaceOnUse">
<stop stop-color="#172765"/>
<stop offset="0.23" stop-color="#193A68"/>
<stop offset="0.69" stop-color="#206E70"/>
<stop offset="1" stop-color="#259377"/>
</linearGradient>
<linearGradient id="paint3_linear_621_133" x1="47.6832" y1="29.1473" x2="50.9976" y2="29.1473" gradientUnits="userSpaceOnUse">
<stop stop-color="#172765"/>
<stop offset="0.23" stop-color="#193A68"/>
<stop offset="0.69" stop-color="#206E70"/>
<stop offset="1" stop-color="#259377"/>
</linearGradient>
<linearGradient id="paint4_linear_621_133" x1="51.7496" y1="29.7577" x2="54.4336" y2="29.7577" gradientUnits="userSpaceOnUse">
<stop stop-color="#172765"/>
<stop offset="0.23" stop-color="#193A68"/>
<stop offset="0.69" stop-color="#206E70"/>
<stop offset="1" stop-color="#259377"/>
</linearGradient>
<linearGradient id="paint5_linear_621_133" x1="17.925" y1="39.3475" x2="57.9109" y2="39.3475" gradientUnits="userSpaceOnUse">
<stop stop-color="#172765"/>
<stop offset="0.23" stop-color="#193A68"/>
<stop offset="0.69" stop-color="#206E70"/>
<stop offset="1" stop-color="#259377"/>
</linearGradient>
<linearGradient id="paint6_linear_621_133" x1="31.8242" y1="50.1275" x2="36.2366" y2="50.1275" gradientUnits="userSpaceOnUse">
<stop stop-color="#172765"/>
<stop offset="0.23" stop-color="#193A68"/>
<stop offset="0.69" stop-color="#206E70"/>
<stop offset="1" stop-color="#259377"/>
</linearGradient>
</defs>
</svg>
