<svg width="277" height="80" viewBox="0 0 277 80" fill="none" xmlns="http://www.w3.org/2000/svg">
<path opacity="0.7" d="M276.44 39.6477L264.17 60.8877H66.6602V59.4877L68.5502 58.4077C69.2502 57.9977 69.7002 57.2277 69.7002 56.3977V21.6577C69.7002 20.8277 69.2402 20.0677 68.5502 19.6477L66.6602 18.5677V18.3677H264.16L276.43 39.6277L276.44 39.6477Z" fill="url(#paint0_linear_538_437)"/>
<g opacity="0.7">
<path d="M89.8298 27.7075V35.9675H87.9198V32.5775H84.1698V35.9675H82.2598V27.7075H84.1698V30.9675H87.9198V27.7075H89.8298V27.7075Z" fill="white"/>
<path d="M97.27 32.3478V35.9678H95.55V35.1778C95.21 35.7578 94.55 36.0578 93.62 36.0578C92.14 36.0578 91.25 35.2278 91.25 34.1378C91.25 33.0478 92.04 32.2378 93.98 32.2378H95.44C95.44 31.4478 94.97 30.9878 93.98 30.9878C93.3 30.9878 92.62 31.2178 92.15 31.5778L91.48 30.2878C92.18 29.7978 93.2 29.5278 94.22 29.5278C96.15 29.5278 97.27 30.4178 97.27 32.3578V32.3478ZM95.43 33.9478V33.3078H94.16C93.3 33.3078 93.03 33.6278 93.03 34.0478C93.03 34.5078 93.42 34.8078 94.07 34.8078C94.72 34.8078 95.22 34.5278 95.42 33.9478H95.43V33.9478Z" fill="white"/>
<path d="M98.541 32.7978C98.541 30.8878 100.011 29.5278 102.091 29.5278C103.421 29.5278 104.481 30.1078 104.941 31.1378L103.511 31.8978C103.171 31.2978 102.661 31.0278 102.081 31.0278C101.151 31.0278 100.411 31.6678 100.411 32.7878C100.411 33.9078 101.141 34.5478 102.081 34.5478C102.661 34.5478 103.171 34.2878 103.511 33.6778L104.941 34.4478C104.481 35.4578 103.431 36.0478 102.091 36.0478C100.031 36.0478 98.541 34.6978 98.541 32.7778V32.7978V32.7978Z" fill="white"/>
<path d="M108.659 33.4778L107.779 34.3478V35.9578H105.939V27.1978H107.779V32.1478L110.469 29.5978H112.659L110.019 32.2878L112.899 35.9378H110.669L108.659 33.4478H108.649L108.659 33.4778Z" fill="white"/>
<path d="M119.65 33.3176H114.85C115.02 34.1076 115.7 34.5976 116.67 34.5976C117.35 34.5976 117.83 34.3976 118.26 33.9876L119.24 35.0476C118.65 35.7276 117.77 36.0776 116.62 36.0776C114.43 36.0776 113 34.6876 113 32.8076C113 30.9276 114.45 29.5376 116.38 29.5376C118.31 29.5376 119.69 30.7876 119.69 32.8276C119.69 32.9676 119.67 33.1676 119.66 33.3176H119.65V33.3176ZM114.83 32.2576H117.96C117.83 31.4476 117.23 30.9376 116.4 30.9376C115.57 30.9376 114.96 31.4476 114.83 32.2576Z" fill="white"/>
<path d="M120.43 32.7978C120.43 30.8878 121.9 29.5278 123.92 29.5278C125.94 29.5278 127.4 30.8778 127.4 32.7978C127.4 34.7178 125.94 36.0678 123.92 36.0678C121.9 36.0678 120.43 34.7178 120.43 32.7978V32.7978ZM125.54 32.7978C125.54 31.6978 124.84 31.0378 123.93 31.0378C123.02 31.0378 122.3 31.7078 122.3 32.7978C122.3 33.8878 123.01 34.5578 123.93 34.5578C124.85 34.5578 125.54 33.8878 125.54 32.7978V32.7978Z" fill="white"/>
<path d="M138.16 33.3177H133.36C133.53 34.1077 134.21 34.5977 135.18 34.5977C135.86 34.5977 136.34 34.3977 136.77 33.9877L137.75 35.0477C137.16 35.7277 136.28 36.0777 135.13 36.0777C132.94 36.0777 131.51 34.6877 131.51 32.8077C131.51 30.9277 132.96 29.5377 134.89 29.5377C136.82 29.5377 138.2 30.7877 138.2 32.8277C138.2 32.9677 138.18 33.1677 138.17 33.3177H138.16V33.3177ZM133.34 32.2577H136.47C136.34 31.4477 135.74 30.9377 134.91 30.9377C134.08 30.9377 133.47 31.4477 133.34 32.2577ZM135.23 28.8177H133.79L135.38 27.1177H137.37L135.23 28.8177V28.8177Z" fill="white"/>
<path d="M143.52 35.6675C143.14 35.9375 142.59 36.0675 142.03 36.0675C140.54 36.0675 139.66 35.3075 139.66 33.7875V31.1775H138.68V29.7575H139.66V28.2075H141.5V29.7575H143.08V31.1775H141.5V33.7675C141.5 34.3175 141.79 34.6075 142.29 34.6075C142.56 34.6075 142.84 34.5175 143.03 34.3675L143.52 35.6675V35.6675Z" fill="white"/>
<path d="M144.33 27.7077C144.33 27.1277 144.79 26.6777 145.48 26.6777C146.17 26.6777 146.63 27.1077 146.63 27.6677C146.63 28.2777 146.17 28.7277 145.48 28.7277C144.79 28.7277 144.33 28.2777 144.33 27.6977V27.7077ZM144.56 29.6177H146.4V35.9677H144.56V29.6177Z" fill="white"/>
<path d="M147.641 32.7978C147.641 30.8878 149.111 29.5278 151.191 29.5278C152.521 29.5278 153.581 30.1078 154.041 31.1378L152.611 31.8978C152.271 31.2978 151.761 31.0278 151.181 31.0278C150.251 31.0278 149.511 31.6678 149.511 32.7878C149.511 33.9078 150.241 34.5478 151.181 34.5478C151.761 34.5478 152.271 34.2878 152.611 33.6778L154.041 34.4478C153.581 35.4578 152.531 36.0478 151.191 36.0478C149.131 36.0478 147.641 34.6978 147.641 32.7778V32.7978V32.7978Z" fill="white"/>
<path d="M154.52 32.7978C154.52 30.8878 155.99 29.5278 158.01 29.5278C160.03 29.5278 161.49 30.8778 161.49 32.7978C161.49 34.7178 160.03 36.0678 158.01 36.0678C155.99 36.0678 154.52 34.7178 154.52 32.7978V32.7978ZM159.63 32.7978C159.63 31.6978 158.93 31.0378 158.02 31.0378C157.11 31.0378 156.39 31.7078 156.39 32.7978C156.39 33.8878 157.1 34.5578 158.02 34.5578C158.94 34.5578 159.63 33.8878 159.63 32.7978V32.7978Z" fill="white"/>
<path d="M172.37 29.6177L169.5 36.3577C168.89 37.8977 168.02 38.3577 166.87 38.3577C166.23 38.3577 165.52 38.1377 165.1 37.7777L165.78 36.4677C166.06 36.7177 166.46 36.8677 166.82 36.8677C167.32 36.8677 167.61 36.6377 167.86 36.0677L167.88 36.0177L165.13 29.6277H167.03L168.81 33.9377L170.6 29.6277H172.38L172.37 29.6177Z" fill="white"/>
<path d="M183.39 32.7976C183.39 34.7976 182 36.0676 180.23 36.0676C179.44 36.0676 178.79 35.8176 178.32 35.3076V38.2776H176.48V29.6376H178.24V30.3676C178.7 29.8076 179.39 29.5376 180.24 29.5376C182.02 29.5376 183.4 30.8176 183.4 32.8076L183.39 32.7976ZM181.52 32.7876C181.52 31.6876 180.82 31.0276 179.91 31.0276C179 31.0276 178.3 31.6976 178.3 32.7876C178.3 33.8776 179 34.5476 179.91 34.5476C180.82 34.5476 181.52 33.8776 181.52 32.7876Z" fill="white"/>
<path d="M188.561 29.5176V31.2176C188.411 31.2076 188.291 31.1976 188.151 31.1976C187.141 31.1976 186.461 31.7576 186.461 32.9676V35.9676H184.621V29.6176H186.381V30.4576C186.831 29.8476 187.581 29.5276 188.561 29.5276H188.571L188.561 29.5176Z" fill="white"/>
<path d="M196.1 29.6177V35.9677H194.35V35.2177C193.87 35.7777 193.16 36.0677 192.38 36.0677C190.79 36.0677 189.66 35.1777 189.66 33.2077V29.6177H191.5V32.9377C191.5 33.9977 191.97 34.4777 192.79 34.4777C193.61 34.4777 194.25 33.9277 194.25 32.7677V29.6277H196.09L196.1 29.6177Z" fill="white"/>
<path d="M203.99 33.3176H199.19C199.36 34.1076 200.04 34.5976 201.01 34.5976C201.69 34.5976 202.17 34.3976 202.6 33.9876L203.58 35.0476C202.99 35.7276 202.11 36.0776 200.96 36.0776C198.77 36.0776 197.34 34.6876 197.34 32.8076C197.34 30.9276 198.79 29.5376 200.72 29.5376C202.65 29.5376 204.03 30.7876 204.03 32.8276C204.03 32.9676 204.01 33.1676 204 33.3176H203.99V33.3176ZM199.17 32.2576H202.3C202.17 31.4476 201.57 30.9376 200.74 30.9376C199.91 30.9376 199.3 31.4476 199.17 32.2576Z" fill="white"/>
<path d="M212.16 32.7975C212.16 34.7975 210.77 36.0675 209 36.0675C208.15 36.0675 207.46 35.7975 207 35.2375V35.9675H205.24V27.2075H207.08V30.2875C207.55 29.7675 208.2 29.5275 208.99 29.5275C210.77 29.5275 212.15 30.8075 212.15 32.7975H212.16ZM210.29 32.7975C210.29 31.6975 209.59 31.0375 208.68 31.0375C207.77 31.0375 207.07 31.7075 207.07 32.7975C207.07 33.8875 207.77 34.5575 208.68 34.5575C209.59 34.5575 210.29 33.8875 210.29 32.7975V32.7975Z" fill="white"/>
<path d="M218.911 32.3478V35.9678H217.191V35.1778C216.851 35.7578 216.191 36.0578 215.261 36.0578C213.781 36.0578 212.891 35.2278 212.891 34.1378C212.891 33.0478 213.681 32.2378 215.621 32.2378H217.081C217.081 31.4478 216.611 30.9878 215.621 30.9878C214.941 30.9878 214.261 31.2178 213.791 31.5778L213.121 30.2878C213.821 29.7978 214.841 29.5278 215.861 29.5278C217.791 29.5278 218.911 30.4178 218.911 32.3578V32.3478ZM217.071 33.9478V33.3078H215.801C214.941 33.3078 214.671 33.6278 214.671 34.0478C214.671 34.5078 215.061 34.8078 215.711 34.8078C216.361 34.8078 216.861 34.5278 217.061 33.9478H217.071V33.9478Z" fill="white"/>
<path d="M219.95 35.3778L220.56 34.0578C221.13 34.4278 221.99 34.6678 222.76 34.6678C223.61 34.6678 223.93 34.4378 223.93 34.0878C223.93 33.0478 220.09 34.1078 220.09 31.5778C220.09 30.3778 221.18 29.5278 223.02 29.5278C223.89 29.5278 224.86 29.7278 225.46 30.0878L224.85 31.3978C224.23 31.0478 223.6 30.9278 223.02 30.9278C222.19 30.9278 221.84 31.1878 221.84 31.5178C221.84 32.6078 225.68 31.5478 225.68 34.0578C225.68 35.2378 224.58 36.0778 222.68 36.0778C221.61 36.0778 220.52 35.7878 219.93 35.3878H219.94L219.95 35.3778Z" fill="white"/>
<path d="M236.641 27.2075V35.9675H234.881V35.2375C234.421 35.7975 233.751 36.0675 232.891 36.0675C231.101 36.0675 229.721 34.7875 229.721 32.7975C229.721 30.8075 231.111 29.5275 232.891 29.5275C233.661 29.5275 234.331 29.7775 234.791 30.2875V27.2075H236.631H236.641ZM234.831 32.7975C234.831 31.6975 234.121 31.0375 233.221 31.0375C232.321 31.0375 231.591 31.7075 231.591 32.7975C231.591 33.8875 232.301 34.5575 233.221 34.5575C234.141 34.5575 234.831 33.8875 234.831 32.7975V32.7975Z" fill="white"/>
<path d="M244.531 33.3176H239.731C239.901 34.1076 240.581 34.5976 241.551 34.5976C242.231 34.5976 242.711 34.3976 243.141 33.9876L244.121 35.0476C243.531 35.7276 242.651 36.0776 241.501 36.0776C239.311 36.0776 237.881 34.6876 237.881 32.8076C237.881 30.9276 239.331 29.5376 241.261 29.5376C243.191 29.5376 244.571 30.7876 244.571 32.8276C244.571 32.9676 244.551 33.1676 244.541 33.3176H244.531V33.3176ZM239.711 32.2576H242.841C242.711 31.4476 242.111 30.9376 241.281 30.9376C240.451 30.9376 239.841 31.4476 239.711 32.2576Z" fill="white"/>
<path d="M81.5102 49.5375L82.1202 48.2175C82.6902 48.5875 83.5502 48.8275 84.3202 48.8275C85.1702 48.8275 85.4902 48.5975 85.4902 48.2475C85.4902 47.2075 81.6502 48.2675 81.6502 45.7375C81.6502 44.5375 82.7402 43.6875 84.5802 43.6875C85.4502 43.6875 86.4202 43.8875 87.0202 44.2475L86.4102 45.5575C85.7902 45.1975 85.1602 45.0875 84.5802 45.0875C83.7502 45.0875 83.4002 45.3475 83.4002 45.6775C83.4002 46.7675 87.2402 45.7075 87.2402 48.2175C87.2402 49.3975 86.1402 50.2375 84.2402 50.2375C83.1702 50.2375 82.0802 49.9475 81.4902 49.5475H81.5002L81.5102 49.5375Z" fill="white"/>
<path d="M94.5797 47.4778H89.7797C89.9497 48.2778 90.6297 48.7578 91.5997 48.7578C92.2797 48.7578 92.7597 48.5578 93.1897 48.1478L94.1697 49.2078C93.5797 49.8878 92.6997 50.2378 91.5497 50.2378C89.3597 50.2378 87.9297 48.8478 87.9297 46.9678C87.9297 45.0878 89.3797 43.6978 91.3097 43.6978C93.2397 43.6978 94.6197 44.9478 94.6197 46.9878C94.6197 47.1278 94.5997 47.3278 94.5897 47.4778H94.5797V47.4778ZM89.7597 46.4178H92.8897C92.7597 45.6078 92.1597 45.0978 91.3297 45.0978C90.4997 45.0978 89.8897 45.5978 89.7597 46.4178Z" fill="white"/>
<path d="M102.391 43.7778V49.0678C102.391 51.4278 101.111 52.5178 98.8211 52.5178C97.6211 52.5178 96.4511 52.2278 95.7011 51.6478L96.4311 50.3278C96.9811 50.7678 97.8611 51.0478 98.6811 51.0478C99.9811 51.0478 100.551 50.4578 100.551 49.3178V49.0478C100.071 49.5778 99.3711 49.8378 98.5411 49.8378C96.7811 49.8378 95.3711 48.6278 95.3711 46.7678C95.3711 44.9078 96.7911 43.6978 98.5411 43.6978C99.4211 43.6978 100.151 43.9878 100.651 44.6078V43.7878H102.401L102.391 43.7778ZM100.571 46.7578C100.571 45.8178 99.8711 45.1978 98.9011 45.1978C97.9311 45.1978 97.2211 45.8178 97.2211 46.7578C97.2211 47.6978 97.9311 48.3178 98.9011 48.3178C99.8711 48.3178 100.571 47.6978 100.571 46.7578Z" fill="white"/>
<path d="M110.491 43.7778V50.1278H108.741V49.3778C108.261 49.9378 107.551 50.2278 106.771 50.2278C105.181 50.2278 104.051 49.3378 104.051 47.3678V43.7778H105.891V47.0978C105.891 48.1578 106.361 48.6378 107.181 48.6378C108.001 48.6378 108.641 48.0878 108.641 46.9278V43.7878H110.481L110.491 43.7778Z" fill="white"/>
<path d="M116.151 43.6978V45.3978C116.001 45.3878 115.881 45.3778 115.741 45.3778C114.731 45.3778 114.051 45.9378 114.051 47.1478V50.1478H112.211V43.7978H113.971V44.6378C114.421 44.0278 115.171 43.6978 116.151 43.6978H116.161H116.151Z" fill="white"/>
<path d="M117.02 41.8679C117.02 41.2879 117.48 40.8379 118.17 40.8379C118.86 40.8379 119.32 41.2679 119.32 41.8279C119.32 42.4379 118.86 42.8879 118.17 42.8879C117.48 42.8879 117.02 42.4379 117.02 41.8579V41.8679ZM117.25 43.7779H119.09V50.1279H117.25V43.7779Z" fill="white"/>
<path d="M127.26 41.3779V50.1379H125.5V49.4079C125.04 49.9679 124.37 50.2379 123.51 50.2379C121.72 50.2379 120.34 48.9579 120.34 46.9679C120.34 44.9779 121.73 43.6979 123.51 43.6979C124.28 43.6979 124.95 43.9479 125.41 44.4579V41.3779H127.25H127.26ZM125.45 46.9679C125.45 45.8679 124.74 45.2079 123.84 45.2079C122.94 45.2079 122.21 45.8779 122.21 46.9679C122.21 48.0579 122.92 48.7279 123.84 48.7279C124.76 48.7279 125.45 48.0579 125.45 46.9679Z" fill="white"/>
<path d="M134.581 46.5075V50.1275H132.861V49.3375C132.521 49.9175 131.861 50.2175 130.931 50.2175C129.451 50.2175 128.561 49.3875 128.561 48.2975C128.561 47.2075 129.351 46.3975 131.291 46.3975H132.751C132.751 45.6075 132.281 45.1475 131.291 45.1475C130.611 45.1475 129.931 45.3775 129.461 45.7375L128.791 44.4475C129.491 43.9575 130.511 43.6875 131.531 43.6875C133.461 43.6875 134.581 44.5775 134.581 46.5175V46.5075ZM132.741 48.1075V47.4575H131.471C130.611 47.4575 130.341 47.7775 130.341 48.1975C130.341 48.6575 130.731 48.9575 131.381 48.9575C132.031 48.9575 132.531 48.6775 132.731 48.0975H132.741V48.1075Z" fill="white"/>
<path d="M142.779 41.3779V50.1379H141.019V49.4079C140.559 49.9679 139.889 50.2379 139.029 50.2379C137.239 50.2379 135.859 48.9579 135.859 46.9679C135.859 44.9779 137.249 43.6979 139.029 43.6979C139.799 43.6979 140.469 43.9479 140.929 44.4579V41.3779H142.769H142.779ZM140.969 46.9679C140.969 45.8679 140.259 45.2079 139.359 45.2079C138.459 45.2079 137.729 45.8779 137.729 46.9679C137.729 48.0579 138.439 48.7279 139.359 48.7279C140.279 48.7279 140.969 48.0579 140.969 46.9679Z" fill="white"/>
</g>
<path opacity="0.7" d="M67.82 22.6775V57.4275C67.82 58.2575 67.37 59.0175 66.65 59.4375L65.45 60.1375L36.56 76.8275C35.84 77.2375 34.96 77.2375 34.23 76.8275L4.17 59.4375C3.45 59.0275 3 58.2575 3 57.4275V22.6775C3 21.8475 3.45 21.0875 4.17 20.6675L34.24 3.3075C34.96 2.8975 35.84 2.8975 36.57 3.3075L64.55 19.4675L66.64 20.6775C67.36 21.0875 67.81 21.8575 67.81 22.6875L67.82 22.6775Z" stroke="url(#paint1_linear_538_437)" stroke-width="4.06" stroke-linecap="round" stroke-linejoin="round"/>
<g opacity="0.7">
<path d="M46.1986 28.6675C46.1986 28.3775 45.9286 28.1475 45.7186 28.1475C45.6686 28.1475 45.6186 28.1475 45.5886 28.1775L43.7786 29.3575C43.6186 29.4675 43.5586 29.6275 43.5586 29.7575C43.5586 29.8875 43.6086 30.0475 43.7786 30.1575L45.5886 31.3375C45.5886 31.3375 45.6786 31.3675 45.7186 31.3675C45.9386 31.3675 46.1986 31.1375 46.1986 30.8475C46.1986 30.7275 46.1486 30.6175 46.0686 30.5775L44.8186 29.7675L46.0686 28.9575C46.1486 28.9075 46.1986 28.8075 46.1986 28.6875V28.6675V28.6675Z" fill="url(#paint2_linear_538_437)"/>
<path d="M49.779 26.2373C49.649 26.2373 49.539 26.2873 49.489 26.4073L46.989 31.5473C46.989 31.5473 46.959 31.6373 46.959 31.6773C46.959 31.8473 47.109 32.0573 47.359 32.0573C47.489 32.0573 47.629 31.9773 47.679 31.8873L50.189 26.7473C50.189 26.7473 50.219 26.6573 50.219 26.6173C50.219 26.3873 49.999 26.2373 49.789 26.2373H49.779Z" fill="url(#paint3_linear_538_437)"/>
<path d="M53.379 29.3677L51.569 28.1877C51.569 28.1877 51.479 28.1577 51.439 28.1577C51.219 28.1577 50.959 28.3877 50.959 28.6777C50.959 28.7977 51.009 28.9077 51.089 28.9477L52.339 29.7577L51.089 30.5677C51.009 30.6177 50.959 30.7177 50.959 30.8377C50.959 31.1277 51.229 31.3577 51.439 31.3577C51.489 31.3577 51.539 31.3577 51.569 31.3277L53.379 30.1477C53.539 30.0377 53.599 29.8777 53.599 29.7477C53.599 29.6177 53.549 29.4577 53.379 29.3477V29.3677V29.3677Z" fill="url(#paint4_linear_538_437)"/>
<path d="M54.2592 22.5375H41.8492C41.2092 20.8675 39.5792 19.6675 37.6792 19.6675H29.3592C26.9092 19.6675 24.9092 21.6675 24.9092 24.1175V29.1775C24.4092 29.6075 24.1792 30.2775 24.3092 30.9475L24.6392 32.7475C24.7592 33.3675 25.0892 33.6875 25.3392 33.8375C25.6192 34.0075 25.9392 34.0675 26.2292 34.0775V34.3975C26.2292 36.0275 27.1792 37.8075 28.8292 39.3075C29.1492 39.5875 29.4592 39.8575 29.7892 40.0775V41.0475C29.7892 41.3375 29.5792 41.5975 29.2892 41.6475H29.2492C29.2492 41.6475 28.2492 41.9175 26.9592 42.2775H22.7292C22.2492 42.2775 21.7892 42.4775 21.4792 42.8275C21.1692 43.1775 20.9892 43.6475 21.0192 44.1275V44.2875C19.1392 45.2375 17.9492 46.9375 17.8292 48.8675V48.8875L17.6992 56.8275C17.6992 57.4075 17.9192 57.9575 18.3192 58.3775C18.7292 58.7875 19.2792 59.0175 19.8592 59.0175H47.1992C47.7792 59.0175 48.3192 58.7875 48.7392 58.3775C49.1592 57.9675 49.3692 57.4175 49.3592 56.8275L49.2292 48.8975V48.8775C49.1092 46.8875 47.8592 45.1475 45.8692 44.2175C45.8392 44.1975 45.7892 44.1875 45.7592 44.1675V44.1375C45.7892 43.6675 45.6292 43.1875 45.2992 42.8375C44.9692 42.4875 44.5092 42.2875 44.0492 42.2875H40.1092C38.8092 41.9175 37.8292 41.6675 37.8192 41.6575H37.7792C37.4892 41.6075 37.2792 41.3475 37.2792 41.0575V40.0875C37.6092 39.8475 37.9292 39.5975 38.2392 39.3175C39.2892 38.3675 40.0492 37.2975 40.4792 36.2275H44.2192L43.5692 38.8675C43.4592 39.3075 43.6392 39.7475 44.0192 39.9975C44.1892 40.1175 44.3992 40.1675 44.5992 40.1675C44.8292 40.1675 45.0492 40.0875 45.2392 39.9475L50.0892 36.2175H54.2792C55.7992 36.2175 57.0392 34.9875 57.0392 33.4575V25.2775C57.0392 23.7575 55.8092 22.5175 54.2792 22.5175H54.2892L54.2592 22.5375ZM40.8192 30.1975C41.0392 30.1175 41.2492 30.0875 41.3892 30.0775C41.5792 30.2375 41.6492 30.5075 41.6092 30.7675L41.2792 32.5575C41.2392 32.8075 41.1392 32.8675 41.1092 32.8875C41.0392 32.9275 40.9492 32.9575 40.8292 32.9575V30.2075L40.8192 30.1975ZM26.0492 24.1475C26.0492 22.3275 27.5292 20.8375 29.3592 20.8375H37.6792C39.4992 20.8375 40.9892 22.3175 40.9892 24.1475V28.9775C40.7092 29.0275 40.3492 29.1175 39.9992 29.3075V25.7975C39.9992 24.5275 38.9692 23.5075 37.7092 23.5075H36.1492C35.5992 23.5075 35.0792 23.6975 34.6692 24.0375L34.5192 24.1575C34.2392 24.3875 33.8892 24.5075 33.5292 24.5075C33.1692 24.5075 32.8192 24.3775 32.5392 24.1575L32.3892 24.0375C31.9792 23.6975 31.4392 23.5075 30.9092 23.5075H29.3492C28.0792 23.5075 27.0592 24.5375 27.0592 25.7975V29.3075C26.7092 29.1175 26.3592 29.0275 26.0692 28.9775V24.1475H26.0792H26.0492ZM25.9292 32.8975C25.9292 32.8975 25.7992 32.8175 25.7592 32.5675L25.4292 30.7675C25.3892 30.5075 25.4592 30.2475 25.6492 30.0775C25.7792 30.0875 25.9992 30.1175 26.2192 30.1975V32.9475C26.0992 32.9475 25.9992 32.9275 25.9392 32.8775L25.9292 32.8975ZM20.8192 57.4975C20.8192 57.6375 20.8392 57.7775 20.8692 57.9075H19.8292C19.5592 57.9075 19.3092 57.7975 19.1092 57.6175C18.9192 57.4175 18.8192 57.1675 18.8192 56.8975L18.9492 48.9775C19.0392 47.5875 19.7992 46.3875 21.0892 45.6075L21.7992 55.4775C21.8092 55.6675 21.8492 55.8375 21.9192 55.9875C21.2892 56.1875 20.8192 56.7875 20.8192 57.4775V57.4975ZM44.9292 55.4875L45.6492 45.4475C47.0992 46.2175 47.9692 47.4975 48.0592 48.9675L48.1892 56.8875C48.1892 57.1575 48.0892 57.4075 47.8992 57.6075C47.7092 57.8075 47.4492 57.8975 47.1792 57.8975H46.1392C46.1692 57.7675 46.1892 57.6275 46.1892 57.4875C46.1892 56.6875 45.5892 56.0275 44.8292 55.9275C44.8792 55.7875 44.9192 55.6375 44.9292 55.4675V55.4875ZM45.0492 57.5175C45.0492 57.7475 44.8592 57.9275 44.6392 57.9275H22.3992C22.1692 57.9275 21.9892 57.7375 21.9892 57.5175C21.9892 57.2975 22.1792 57.1075 22.3992 57.1075H44.6392C44.8692 57.1075 45.0492 57.2975 45.0492 57.5175ZM44.4392 43.6875C44.5492 43.8075 44.5992 43.9575 44.5892 44.1175L43.7792 55.4275C43.7592 55.7175 43.5092 55.9475 43.2092 55.9475H23.5192C23.2292 55.9475 22.9692 55.7175 22.9492 55.4275L22.1392 44.1275C22.1292 43.9675 22.1792 43.8175 22.2892 43.6975C22.3992 43.5775 22.5392 43.5075 22.6992 43.5075H44.0192C44.1792 43.5075 44.3292 43.5775 44.4292 43.6975L44.4392 43.6875ZM36.6092 42.3475H30.4192C30.7392 42.0275 30.9192 41.5875 30.9192 41.1175V40.8575C31.8292 41.3275 32.7292 41.5875 33.5092 41.5875C34.2892 41.5875 35.1892 41.3275 36.0992 40.8575V41.1175C36.0992 41.5975 36.2992 42.0375 36.5992 42.3475H36.6092V42.3475ZM37.4492 38.5175C36.1592 39.6875 34.6192 40.4375 33.5192 40.4375C32.4192 40.4375 30.8792 39.6875 29.5892 38.5175C28.1792 37.2375 27.3592 35.7575 27.3592 34.4575V30.8275H27.3792C27.4892 30.8275 27.5892 30.8075 27.6892 30.7575C27.9992 30.6275 28.1792 30.3475 28.1792 30.0175V25.8175C28.1792 25.1875 28.6892 24.6875 29.3092 24.6875H30.8692C31.1392 24.6875 31.4192 24.7875 31.6192 24.9575L31.7692 25.0775C32.2492 25.4675 32.8592 25.6875 33.4892 25.6875C34.1192 25.6875 34.7192 25.4675 35.2092 25.0775L35.3592 24.9575C35.5692 24.7875 35.8392 24.6875 36.1092 24.6875H37.6692C38.2992 24.6875 38.7992 25.1975 38.7992 25.8175V30.0175C38.7992 30.3475 38.9992 30.6375 39.2892 30.7575C39.3992 30.7975 39.5092 30.8275 39.6192 30.8275V34.4575C39.6192 35.7575 38.8092 37.2375 37.3892 38.5175H37.4092H37.4492ZM55.8592 33.5175C55.8592 34.3975 55.1392 35.1175 54.2592 35.1175H49.8692C49.7392 35.1175 49.6192 35.1575 49.5192 35.2375L44.7392 38.9175L45.4992 35.8375C45.5392 35.6675 45.4992 35.4875 45.3892 35.3475C45.2792 35.2075 45.1192 35.1275 44.9292 35.1275H40.7592C40.7892 34.8975 40.8092 34.6775 40.8092 34.4575V34.1375C41.0992 34.1375 41.4192 34.0875 41.6992 33.8975C41.9492 33.7475 42.2792 33.4175 42.3992 32.7975L42.7292 30.9975C42.8492 30.3175 42.6192 29.6575 42.1292 29.2275V24.1675C42.1292 24.0275 42.1292 23.8775 42.1092 23.7275H54.2492C55.1292 23.7275 55.8492 24.4475 55.8492 25.3275V33.5075H55.8392L55.8592 33.5175Z" fill="url(#paint5_linear_538_437)"/>
<path d="M33.5196 52.2975C34.7196 52.2975 35.6896 51.3275 35.6896 50.1275C35.6896 48.9275 34.7196 47.9575 33.5196 47.9575C32.3196 47.9575 31.3496 48.9275 31.3496 50.1275C31.3496 51.3275 32.3196 52.2975 33.5196 52.2975ZM33.5196 49.1075C34.0796 49.1075 34.5296 49.5675 34.5296 50.1175C34.5296 50.6675 34.0696 51.1275 33.5196 51.1275C32.9696 51.1275 32.5096 50.6675 32.5096 50.1175C32.5096 49.5675 32.9696 49.1075 33.5196 49.1075Z" fill="url(#paint6_linear_538_437)"/>
</g>
<path d="M268.63 53.9573L264.6 60.9173H199.84L195.82 53.9573L199.84 47.0073H264.6L268.63 53.9573Z" fill="white"/>
<path d="M206.67 52.4375C206.67 53.8575 205.62 54.7475 203.95 54.7475H202.7L202.4 56.2875H201.1L202.22 50.6875H204.48C205.88 50.6875 206.67 51.3375 206.67 52.4275V52.4375ZM205.36 52.5475C205.36 52.0075 204.98 51.7475 204.32 51.7475H203.3L202.91 53.6875H204.01C204.87 53.6875 205.36 53.2875 205.36 52.5475Z" fill="black"/>
<path d="M210.339 51.9275L210.119 53.0775C210.009 53.0775 209.939 53.0575 209.829 53.0575C209.089 53.0575 208.619 53.3975 208.459 54.2075L208.039 56.2875H206.789L207.649 51.9875H208.829L208.729 52.4975C209.109 52.0775 209.639 51.9175 210.339 51.9175V51.9275Z" fill="black"/>
<path d="M210.25 54.4277C210.25 52.9977 211.34 51.9277 212.85 51.9277C214.17 51.9277 215.02 52.6877 215.02 53.8577C215.02 55.2877 213.94 56.3577 212.42 56.3577C211.11 56.3577 210.25 55.5877 210.25 54.4277ZM213.75 53.9077C213.75 53.3277 213.4 52.9577 212.77 52.9577C212.03 52.9577 211.51 53.5377 211.51 54.3777C211.51 54.9577 211.87 55.3277 212.49 55.3277C213.22 55.3277 213.75 54.7477 213.75 53.9077Z" fill="black"/>
<path d="M218.179 54.1476L219.379 56.2976H218.059L217.359 54.9776L216.119 56.2976H214.699L216.849 54.0876L215.709 51.9976H216.999L217.679 53.2576L218.879 51.9976H220.259L218.189 54.1476H218.179Z" fill="black"/>
<path d="M220.88 51.9876H222.12L221.26 56.2876H220.02L220.88 51.9876ZM220.98 50.7376C220.98 50.3176 221.31 49.9976 221.8 49.9976C222.24 49.9976 222.54 50.2676 222.54 50.6176C222.54 51.0776 222.2 51.3876 221.71 51.3876C221.27 51.3876 220.98 51.0976 220.98 50.7376Z" fill="black"/>
<path d="M230.21 53.3875C230.21 53.5575 230.19 53.7275 230.15 53.9175L229.68 56.2975H228.43L228.89 54.0075C228.91 53.8875 228.92 53.7875 228.92 53.6775C228.92 53.2475 228.69 53.0175 228.24 53.0175C227.66 53.0175 227.26 53.3575 227.11 54.0975L226.67 56.3075H225.42L225.88 54.0175C225.9 53.8975 225.91 53.7975 225.91 53.6975C225.91 53.2575 225.68 53.0275 225.23 53.0275C224.65 53.0275 224.25 53.3675 224.09 54.1275L223.66 56.3175H222.41L223.27 52.0175H224.45L224.35 52.4675C224.73 52.1275 225.2 51.9575 225.7 51.9575C226.29 51.9575 226.78 52.1975 227.02 52.6575C227.44 52.1975 228 51.9575 228.66 51.9575C229.58 51.9575 230.2 52.4575 230.2 53.4175L230.21 53.3875Z" fill="black"/>
<path d="M236.089 51.9877L235.229 56.2877H234.049L234.129 55.8677C233.789 56.1777 233.339 56.3577 232.809 56.3577C231.809 56.3577 230.959 55.6577 230.959 54.4277C230.959 52.9777 232.009 51.9277 233.329 51.9277C233.949 51.9277 234.449 52.1277 234.729 52.5777L234.839 51.9977H236.089V51.9877ZM234.459 53.9077C234.459 53.3277 234.099 52.9577 233.479 52.9577C232.739 52.9577 232.219 53.5377 232.219 54.3777C232.219 54.9577 232.579 55.3277 233.199 55.3277C233.939 55.3277 234.459 54.7477 234.459 53.9077Z" fill="black"/>
<path d="M244.169 53.3875C244.169 53.5575 244.149 53.7275 244.109 53.9175L243.639 56.2975H242.389L242.849 54.0075C242.869 53.8875 242.879 53.7875 242.879 53.6775C242.879 53.2475 242.649 53.0175 242.199 53.0175C241.619 53.0175 241.219 53.3575 241.069 54.0975L240.629 56.3075H239.379L239.839 54.0175C239.859 53.8975 239.869 53.7975 239.869 53.6975C239.869 53.2575 239.639 53.0275 239.189 53.0275C238.609 53.0275 238.209 53.3675 238.049 54.1275L237.619 56.3175H236.369L237.229 52.0175H238.409L238.309 52.4675C238.689 52.1275 239.159 51.9575 239.659 51.9575C240.249 51.9575 240.739 52.1975 240.979 52.6575C241.399 52.1975 241.959 51.9575 242.619 51.9575C243.539 51.9575 244.159 52.4575 244.159 53.4175L244.169 53.3875Z" fill="black"/>
<path d="M249.42 54.4777H246.13C246.17 55.0577 246.53 55.3577 247.24 55.3577C247.68 55.3577 248.1 55.2177 248.39 54.9577L248.91 55.7777C248.41 56.1777 247.77 56.3577 247.11 56.3577C245.77 56.3577 244.91 55.5977 244.91 54.4277C244.91 52.9877 245.95 51.9277 247.44 51.9277C248.7 51.9277 249.49 52.6677 249.49 53.8177C249.49 54.0477 249.46 54.2777 249.42 54.4777V54.4777ZM246.21 53.7477H248.34C248.34 53.1777 247.96 52.8577 247.38 52.8577C246.8 52.8577 246.37 53.2077 246.2 53.7477H246.21Z" fill="black"/>
<path d="M254.78 53.3877C254.78 53.5477 254.76 53.7277 254.72 53.9077L254.24 56.2877H252.99L253.45 53.9877C253.47 53.8877 253.48 53.7777 253.48 53.6877C253.48 53.2477 253.24 52.9977 252.74 52.9977C252.11 52.9977 251.67 53.3477 251.52 54.0977L251.09 56.2777H249.84L250.7 51.9777H251.88L251.78 52.4377C252.17 52.0777 252.67 51.9077 253.2 51.9077C254.14 51.9077 254.77 52.4177 254.77 53.3677L254.78 53.3877Z" fill="black"/>
<path d="M257.07 54.7774C257.05 54.8374 257.05 54.8974 257.05 54.9574C257.05 55.2174 257.19 55.3774 257.51 55.3774C257.68 55.3774 257.85 55.3174 258.01 55.2274L258.19 56.1174C257.88 56.3074 257.49 56.3774 257.12 56.3774C256.32 56.3774 255.78 55.9274 255.78 55.1774C255.78 55.0574 255.8 54.9274 255.82 54.7974L256.16 53.0574H255.5L255.69 52.0974H256.35L256.56 51.0474H257.81L257.6 52.0974H258.67L258.48 53.0574H257.41L257.07 54.7874V54.7774Z" fill="black"/>
<path d="M263.321 54.4777H260.031C260.071 55.0577 260.431 55.3577 261.141 55.3577C261.581 55.3577 262.001 55.2177 262.291 54.9577L262.811 55.7777C262.311 56.1777 261.671 56.3577 261.011 56.3577C259.671 56.3577 258.811 55.5977 258.811 54.4277C258.811 52.9877 259.851 51.9277 261.341 51.9277C262.591 51.9277 263.391 52.6677 263.391 53.8177C263.391 54.0477 263.361 54.2777 263.321 54.4777V54.4777ZM260.111 53.7477H262.241C262.241 53.1777 261.861 52.8577 261.281 52.8577C260.701 52.8577 260.271 53.2077 260.101 53.7477H260.111Z" fill="black"/>
<defs>
<linearGradient id="paint0_linear_538_437" x1="66.6602" y1="39.6277" x2="276.44" y2="39.6277" gradientUnits="userSpaceOnUse">
<stop stop-color="#172765"/>
<stop offset="0.23" stop-color="#193A68"/>
<stop offset="0.69" stop-color="#206E70"/>
<stop offset="1" stop-color="#259377"/>
</linearGradient>
<linearGradient id="paint1_linear_538_437" x1="0.97" y1="40.0575" x2="69.85" y2="40.0575" gradientUnits="userSpaceOnUse">
<stop stop-color="#172765"/>
<stop offset="0.23" stop-color="#193A68"/>
<stop offset="0.69" stop-color="#206E70"/>
<stop offset="1" stop-color="#259377"/>
</linearGradient>
<linearGradient id="paint2_linear_538_437" x1="43.5586" y1="29.7575" x2="46.1986" y2="29.7575" gradientUnits="userSpaceOnUse">
<stop stop-color="#172765"/>
<stop offset="0.23" stop-color="#193A68"/>
<stop offset="0.69" stop-color="#206E70"/>
<stop offset="1" stop-color="#259377"/>
</linearGradient>
<linearGradient id="paint3_linear_538_437" x1="46.949" y1="29.1473" x2="50.209" y2="29.1473" gradientUnits="userSpaceOnUse">
<stop stop-color="#172765"/>
<stop offset="0.23" stop-color="#193A68"/>
<stop offset="0.69" stop-color="#206E70"/>
<stop offset="1" stop-color="#259377"/>
</linearGradient>
<linearGradient id="paint4_linear_538_437" x1="50.949" y1="29.7577" x2="53.589" y2="29.7577" gradientUnits="userSpaceOnUse">
<stop stop-color="#172765"/>
<stop offset="0.23" stop-color="#193A68"/>
<stop offset="0.69" stop-color="#206E70"/>
<stop offset="1" stop-color="#259377"/>
</linearGradient>
<linearGradient id="paint5_linear_538_437" x1="17.6792" y1="39.3475" x2="57.0092" y2="39.3475" gradientUnits="userSpaceOnUse">
<stop stop-color="#172765"/>
<stop offset="0.23" stop-color="#193A68"/>
<stop offset="0.69" stop-color="#206E70"/>
<stop offset="1" stop-color="#259377"/>
</linearGradient>
<linearGradient id="paint6_linear_538_437" x1="31.3496" y1="50.1275" x2="35.6896" y2="50.1275" gradientUnits="userSpaceOnUse">
<stop stop-color="#172765"/>
<stop offset="0.23" stop-color="#193A68"/>
<stop offset="0.69" stop-color="#206E70"/>
<stop offset="1" stop-color="#259377"/>
</linearGradient>
</defs>
</svg>
