<svg width="62" height="66" viewBox="0 0 62 66" fill="none" xmlns="http://www.w3.org/2000/svg">
<path d="M19.0005 27.8792L20.4805 24.1892C20.5052 24.128 20.5431 24.073 20.5915 24.028C20.6399 23.9831 20.6976 23.9494 20.7605 23.9292L22.9805 23.1692C23.03 23.1593 23.081 23.1593 23.1305 23.1692H23.2205C23.8374 23.3076 24.4375 23.5121 25.0105 23.7792C25.0756 23.8104 25.1333 23.8551 25.1798 23.9102C25.2264 23.9654 25.2607 24.0298 25.2805 24.0992L25.7805 26.0992C25.803 26.2206 25.7779 26.3459 25.7105 26.4492C25.6806 26.5025 25.639 26.5482 25.5887 26.5829C25.5384 26.6175 25.4809 26.6402 25.4205 26.6492L22.5605 27.2192C22.119 27.3152 21.7099 27.5242 21.3733 27.8257C21.0368 28.1272 20.7843 28.5109 20.6405 28.9392C20.6194 28.998 20.5867 29.052 20.5444 29.0981C20.5021 29.1441 20.4511 29.1813 20.3943 29.2073C20.3375 29.2334 20.2761 29.2479 20.2136 29.2499C20.1511 29.252 20.0889 29.2415 20.0305 29.2192C19.9706 29.1979 19.916 29.1637 19.8705 29.1192L19.1505 28.3892C19.0816 28.3324 19.0307 28.2568 19.0041 28.1715C18.9775 28.0863 18.9762 27.9952 19.0005 27.9092V27.8792ZM18.3705 30.5392C18.6063 30.7801 18.8879 30.9714 19.1988 31.1019C19.5096 31.2324 19.8434 31.2995 20.1805 31.2992C20.379 31.2963 20.5768 31.2728 20.7705 31.2292C21.1982 31.1306 21.5933 30.9232 21.9174 30.6271C22.2415 30.3311 22.4837 29.9563 22.6205 29.5392C22.6472 29.461 22.6949 29.3916 22.7584 29.3387C22.8219 29.2857 22.8987 29.2513 22.9805 29.2392L25.8205 28.6692C26.4809 28.5317 27.0607 28.14 27.4349 27.5788C27.809 27.0175 27.9475 26.3317 27.8205 25.6692V25.5392L27.3405 23.5392C27.2447 23.1559 27.0611 22.8001 26.8043 22.4999C26.5475 22.1997 26.2243 21.9632 25.8605 21.8092C25.1397 21.4701 24.381 21.2183 23.6005 21.0592V21.0592C23.1754 20.9867 22.739 21.0211 22.3305 21.1592L20.1505 21.8792C19.7956 21.9996 19.4708 22.195 19.1982 22.4521C18.9255 22.7092 18.7115 23.022 18.5705 23.3692L17.1005 27.0592C16.9142 27.5261 16.8689 28.0373 16.9702 28.5297C17.0715 29.022 17.315 29.4738 17.6705 29.8292L18.3905 30.5392H18.3705Z" fill="#1B265E"/>
<path d="M2.60053 25.3792C4.50668 24.5396 6.45609 23.8019 8.44052 23.1692C8.68052 23.1692 9.26053 23.1692 13.6305 21.9992C14.8601 21.6677 15.9464 20.9406 16.7217 19.9304C17.497 18.9201 17.9183 17.6827 17.9205 16.4092C17.9214 15.5697 18.207 14.7554 18.7305 14.0992L19.7905 12.7492C20.5362 11.8118 20.9739 10.6668 21.0437 9.47099C21.1135 8.2752 20.812 7.08705 20.1805 6.06921L19.1805 4.49921C22.4399 3.06005 25.9406 2.24594 29.5005 2.09921V31.6392C28.0134 31.8377 26.6062 32.43 25.4248 33.3548C24.2433 34.2796 23.3304 35.5033 22.7805 36.8992C22.2543 37.2018 21.8183 37.6394 21.5177 38.1668C21.2171 38.6941 21.0627 39.2922 21.0705 39.8992V41.6392C21.0572 42.269 21.2712 42.8826 21.6734 43.3674C22.0756 43.8523 22.6391 44.176 23.2605 44.2792C24.2485 46.0482 25.8544 47.3906 27.7705 48.0492L23.4605 48.9792C22.2124 49.2383 21.0885 49.9118 20.2716 50.8903C19.4546 51.8688 18.9926 53.0949 18.9605 54.3692V56.5592C17.5842 55.9514 16.2599 55.2324 15.0005 54.4092L13.8105 50.8592C13.7408 50.6328 13.7203 50.3942 13.7505 50.1592L14.4905 45.0092C14.5884 44.3277 14.4909 43.6324 14.2095 43.004C13.928 42.3756 13.4742 41.84 12.9005 41.4592C12.6016 41.2563 12.3824 40.956 12.2803 40.6095C12.1781 40.263 12.1994 39.8918 12.3405 39.5592L12.8005 38.5092C13.1806 37.6167 13.1908 36.6098 12.829 35.7098C12.4671 34.8097 11.7626 34.0902 10.8705 33.7092C10.2398 33.4424 9.54747 33.3559 8.87052 33.4592L2.34052 34.4592C2.16204 33.1634 2.06851 31.8573 2.06052 30.5492C2.06014 28.818 2.22083 27.0906 2.54051 25.3892L2.60053 25.3792ZM17.3105 5.37921L18.3605 7.13921C18.7554 7.78144 18.944 8.5292 18.9011 9.28187C18.8582 10.0345 18.5858 10.756 18.1205 11.3492L17.0705 12.6892C16.2466 13.7343 15.8024 15.0284 15.8105 16.3592C15.8193 17.1756 15.5571 17.9719 15.0649 18.6234C14.5727 19.2748 13.8783 19.7446 13.0905 19.9592C11.5658 20.413 10.0123 20.7638 8.44052 21.0092C6.62582 21.4235 4.8595 22.0268 3.17052 22.8092C4.22445 19.0979 6.02121 15.6393 8.45182 12.6431C10.8824 9.64698 13.8962 7.17572 17.3105 5.37921V5.37921ZM35.6505 36.2592L33.0005 36.0492C31.3807 35.8992 29.7504 35.8992 28.1305 36.0492L25.4705 36.3092C25.9628 35.6405 26.582 35.0754 27.2928 34.6462C28.0035 34.2169 28.7919 33.9319 29.6129 33.8075C30.4338 33.683 31.2712 33.7216 32.0773 33.9209C32.8833 34.1203 33.6422 34.4765 34.3105 34.9692C34.8245 35.3431 35.2766 35.7953 35.6505 36.3092V36.2592ZM31.6505 11.5292C34.217 11.4994 36.7803 11.3392 39.3305 11.0492C41.1271 13.1881 42.6925 15.511 44.0005 17.9792C45.4333 20.6718 46.5411 23.5252 47.3005 26.4792C44.1851 27.2559 41.0165 27.8008 37.8205 28.1092C37.5421 28.1331 37.2845 28.2666 37.1044 28.4804C36.9244 28.6942 36.8366 28.9707 36.8605 29.2492C36.8844 29.5277 37.0179 29.7853 37.2317 29.9653C37.4455 30.1453 37.722 30.2331 38.0005 30.2092V30.2092C41.2718 29.8912 44.5144 29.3263 47.7005 28.5192C48.6534 33.0016 48.6976 37.6295 47.8305 42.1292C46.2805 42.5392 44.6705 42.8992 43.0205 43.1292C42.7407 43.177 42.4913 43.3339 42.3272 43.5655C42.1631 43.7971 42.0978 44.0844 42.1455 44.3642C42.1933 44.644 42.3502 44.8934 42.5818 45.0575C42.8134 45.2216 43.1007 45.287 43.3805 45.2392C44.7205 45.0092 46.0005 44.7192 47.2505 44.4192C46.5606 46.7914 45.5513 49.0589 44.2505 51.1592C44.1666 51.2694 44.1066 51.3958 44.0741 51.5305C44.0417 51.6651 44.0375 51.805 44.062 51.9413C44.0864 52.0777 44.1389 52.2074 44.2161 52.3224C44.2933 52.4373 44.3936 52.535 44.5105 52.6092C44.7391 52.7695 45.0217 52.8332 45.2969 52.7864C45.5721 52.7396 45.8178 52.5861 45.9805 52.3592V52.3592C47.6202 49.7161 48.8318 46.8305 49.5705 43.8092C52.1364 43.0791 54.6275 42.1082 57.0105 40.9092C54.2764 47.8471 48.9355 53.4393 42.1305 56.4892V54.3292C42.1097 53.0462 41.6527 51.8085 40.8348 50.8198C40.0169 49.8311 38.8869 49.1502 37.6305 48.8892L33.3205 47.9692C35.2301 47.3205 36.835 45.9931 37.8305 44.2392C38.4423 44.1346 38.9968 43.8154 39.3945 43.3389C39.7922 42.8624 40.007 42.2598 40.0005 41.6392V39.8092C40.0083 39.2034 39.855 38.6064 39.5563 38.0793C39.2576 37.5522 38.8242 37.1139 38.3005 36.8092C37.7402 35.436 36.8276 34.2349 35.6548 33.3272C34.4819 32.4194 33.0903 31.8372 31.6205 31.6392V11.5792L31.6505 11.5292ZM31.6505 2.04921C37.2663 2.26144 42.694 4.12979 47.2505 7.41921C44.8643 8.04128 42.4434 8.52211 40.0005 8.85921C37.2089 9.23551 34.3971 9.44256 31.5805 9.47921V2.09921L31.6505 2.04921ZM57.7905 22.2492C55.1389 23.7906 52.3076 24.9997 49.3605 25.8492C48.5593 22.7432 47.3946 19.7424 45.8905 16.9092C44.7209 14.7216 43.3624 12.6404 41.8305 10.6892C44.3588 10.3166 46.8607 9.78218 49.3205 9.08921C53.3335 12.5849 56.2709 17.1487 57.7905 22.2492V22.2492ZM59.0005 30.5392C58.9934 33.0325 58.6572 35.5139 58.0005 37.9192C55.5053 39.4031 52.8391 40.5783 50.0605 41.4192C50.7996 36.9434 50.7012 32.3692 49.7705 27.9292C52.7442 27.0826 55.6099 25.8947 58.3105 24.3892C58.765 26.4078 58.9964 28.4701 59.0005 30.5392V30.5392ZM23.6905 42.1292C23.6262 42.1266 23.5629 42.1114 23.5045 42.0844C23.446 42.0573 23.3934 42.019 23.3498 41.9717C23.3061 41.9243 23.2722 41.8688 23.2501 41.8083C23.2279 41.7478 23.2178 41.6836 23.2205 41.6192V39.8092C23.2113 39.4886 23.3237 39.1764 23.5351 38.9353C23.7466 38.6941 24.0414 38.5419 24.3605 38.5092L28.3605 38.1292C29.1005 38.0592 29.8505 38.0192 30.5905 38.0192C31.3389 38.0007 32.0876 38.0375 32.8305 38.1292L36.8305 38.5092C37.1441 38.5489 37.4317 38.7041 37.637 38.9445C37.8422 39.1849 37.9505 39.4932 37.9405 39.8092V41.6392C37.9446 41.7049 37.9356 41.7707 37.9142 41.833C37.8927 41.8952 37.8592 41.9526 37.8156 42.0018C37.7719 42.051 37.7189 42.0912 37.6597 42.1199C37.6005 42.1486 37.5362 42.1654 37.4705 42.1692H23.6905V42.1292ZM35.2805 44.2392C34.1719 45.4963 32.6093 46.2615 30.9365 46.3665C29.2637 46.4715 27.6177 45.9078 26.3605 44.7992C26.164 44.6227 25.977 44.4357 25.8005 44.2392H35.2805ZM40.0405 63.2392H21.0405V54.3292C21.0499 53.5269 21.337 52.7527 21.853 52.1382C22.3689 51.5238 23.0819 51.1071 23.8705 50.9592L30.5205 49.4992L37.1705 50.9292C37.9633 51.0799 38.679 51.5015 39.1953 52.1217C39.7115 52.7419 39.9962 53.5223 40.0005 54.3292V63.1992L40.0405 63.2392ZM11.8505 51.4692L12.0705 52.1392C7.329 48.0697 4.05176 42.5585 2.74053 36.4492L9.24051 35.3992C9.5098 35.3592 9.78486 35.3914 10.0377 35.4923C10.2905 35.5933 10.5121 35.7594 10.6798 35.9739C10.8475 36.1883 10.9553 36.4434 10.9923 36.7131C11.0294 36.9828 10.9942 37.2575 10.8905 37.5092L10.4305 38.5592C10.0528 39.3594 9.97949 40.2697 10.2243 41.12C10.4691 41.9703 11.0152 42.7024 11.7605 43.1792C12.0032 43.3421 12.1949 43.5703 12.3134 43.8375C12.432 44.1047 12.4726 44.4 12.4305 44.6892L11.7005 49.8292C11.6301 50.3803 11.6812 50.9401 11.8505 51.4692V51.4692ZM13.5605 55.9192C15.2733 57.0582 17.0957 58.023 19.0005 58.7992V64.2492C19.0025 64.5195 19.1067 64.7791 19.2922 64.9758C19.4777 65.1724 19.7308 65.2915 20.0005 65.3092H41.1005C41.3711 65.2939 41.6256 65.1755 41.8116 64.9783C41.9975 64.7812 42.101 64.5203 42.1005 64.2492V58.7992C46.3493 57.0483 50.1498 54.364 53.2206 50.9453C56.2914 47.5265 58.5539 43.4608 59.8405 39.0492V38.9292C60.9706 34.9802 61.2921 30.8437 60.7859 26.7674C60.2797 22.6912 58.9561 18.759 56.8944 15.2063C54.8327 11.6536 52.0753 8.55348 48.7873 6.09154C45.4993 3.6296 41.7483 1.85646 37.7589 0.8783C33.7695 -0.0998629 29.6238 -0.262938 25.5699 0.398839C21.516 1.06062 17.6373 2.53364 14.1661 4.7297C10.6949 6.92577 7.70248 9.79972 5.36811 13.1795C3.03373 16.5592 1.40537 20.3753 0.580523 24.3992C0.182849 26.4214 -0.0114541 28.4783 0.000521509 30.5392C-0.00688605 35.5586 1.22623 40.502 3.59018 44.9298C5.95414 49.3577 9.37566 53.1327 13.5505 55.9192H13.5605Z" fill="#1B265E"/>
</svg>
