<svg width="282" height="81" viewBox="0 0 282 81" fill="none" xmlns="http://www.w3.org/2000/svg">
<path d="M281.549 40.7349L269.019 62.4149H67.4395V60.9849L69.3695 59.8849C70.0795 59.4649 70.5395 58.6849 70.5395 57.8349V22.3749C70.5395 21.5249 70.0695 20.7449 69.3695 20.3249L67.4395 19.2249V19.0249H269.019L281.549 40.7249V40.7349Z" fill="url(#paint0_linear_538_63)"/>
<path d="M69.16 23.085V58.545C69.16 59.395 68.7 60.175 67.97 60.595L66.75 61.305L37.27 78.335C36.54 78.755 35.63 78.755 34.89 78.335L4.19 60.595C3.46 60.175 3 59.395 3 58.545V23.085C3 22.235 3.46 21.455 4.19 21.035L34.89 3.315C35.62 2.895 36.53 2.895 37.27 3.315L63.09 18.225L67.97 21.045C68.7 21.465 69.16 22.245 69.16 23.095V23.085Z" stroke="url(#paint1_linear_538_63)" stroke-width="4.06" stroke-linecap="round" stroke-linejoin="round"/>
<path d="M16.3903 42.4951C14.7803 41.7351 13.7303 40.1051 13.7303 38.3051C13.7303 35.9651 15.4803 33.9951 17.7903 33.7251C18.0103 33.7051 18.2003 33.5651 18.3103 33.3951C18.4203 33.2051 18.4403 32.9851 18.3503 32.7751C18.0503 32.0251 17.9003 31.2351 17.9003 30.4251C17.9003 27.0551 20.5403 24.2551 23.9003 24.0751C24.2103 24.0551 24.4803 23.8351 24.5503 23.5151C24.9203 21.8251 26.4403 20.5951 28.1803 20.5951C29.1003 20.5951 29.9803 20.9451 30.6603 21.5551C30.8003 21.6851 31.0203 21.7551 31.2203 21.7351C31.4203 21.7151 31.6003 21.6051 31.7203 21.4351C32.8203 19.8551 34.6303 18.9051 36.5403 18.9051C38.6203 18.9051 40.5703 20.0251 41.6203 21.8351C41.8003 22.1451 42.1803 22.2651 42.5103 22.1251C43.6303 21.6351 44.8403 21.3951 46.0703 21.3951C47.4703 21.3951 48.8303 21.7051 50.0803 22.3351C50.4303 22.5151 50.8503 22.3651 51.0303 22.0251C51.2103 21.6751 51.0603 21.2551 50.7203 21.0751C49.2703 20.3551 47.7103 19.9951 46.0903 19.9951C44.8703 19.9951 43.6603 20.2051 42.5303 20.6151C41.1703 18.6751 38.9403 17.4951 36.5603 17.4951C34.4203 17.4951 32.4103 18.4351 31.0303 20.0451C30.1903 19.4851 29.2203 19.1851 28.2003 19.1851C25.9803 19.1851 24.0203 20.6351 23.3303 22.7051C19.4703 23.1751 16.5003 26.4551 16.5003 30.4051C16.5003 31.1051 16.5903 31.7951 16.7803 32.4651C14.1903 33.1551 12.3203 35.5251 12.3203 38.2851C12.3203 40.6151 13.6903 42.7651 15.7903 43.7451C15.8903 43.7851 15.9903 43.8151 16.0903 43.8151C16.3603 43.8151 16.6103 43.6551 16.7203 43.4051C16.8903 43.0451 16.7303 42.6351 16.3703 42.4651V42.4851L16.3903 42.4951Z" fill="url(#paint2_linear_538_63)"/>
<path d="M56.3001 32.5953C56.4401 31.8853 56.5201 31.1553 56.5201 30.4353C56.5201 27.7053 55.4701 25.1253 53.5701 23.1653C53.3001 22.8853 52.8601 22.8753 52.5801 23.1553C52.3001 23.4253 52.2901 23.8653 52.5701 24.1453C54.2201 25.8353 55.1201 28.0653 55.1201 30.4253C55.1201 31.2753 55.0101 32.0953 54.7701 32.8953C54.7101 33.0853 54.7501 33.2853 54.8501 33.4553C54.9501 33.6253 55.1201 33.7453 55.3201 33.7753C57.4701 34.1953 59.0301 36.1053 59.0301 38.2953C59.0301 40.8453 56.9601 42.9053 54.4201 42.9053H48.0801V40.4453C48.0801 39.4653 47.2901 38.6753 46.3101 38.6753H37.0901V37.2653H40.8201C41.2101 37.2653 41.5201 36.9553 41.5201 36.5653C41.5201 36.1753 41.2101 35.8653 40.8201 35.8653H26.4601C26.2601 35.8653 26.1001 35.6953 26.1001 35.5053V29.1853C26.1001 28.9853 26.2701 28.8253 26.4601 28.8253H46.3101C46.5101 28.8253 46.6701 28.9953 46.6701 29.1853V35.5053C46.6701 35.7053 46.5001 35.8653 46.3101 35.8653H44.1101C43.7201 35.8653 43.4101 36.1753 43.4101 36.5653C43.4101 36.9553 43.7201 37.2653 44.1101 37.2653H46.3101C47.2901 37.2653 48.0801 36.4753 48.0801 35.4953V29.1753C48.0801 28.1953 47.2901 27.4053 46.3101 27.4053H26.4501C25.4701 27.4053 24.6801 28.1953 24.6801 29.1753V35.4953C24.6801 36.4753 25.4701 37.2653 26.4501 37.2653H35.6701V38.6753H26.4501C25.4701 38.6753 24.6801 39.4653 24.6801 40.4453V42.9053H19.3101C18.9201 42.9053 18.6101 43.2153 18.6101 43.6053C18.6101 43.9953 18.9201 44.3053 19.3101 44.3053H24.6801V46.7653C24.6801 47.7453 25.4701 48.5353 26.4501 48.5353H35.6701V52.3653C34.5601 52.6353 33.6701 53.5153 33.4001 54.6353H21.6901C21.4001 53.8153 20.6201 53.2253 19.7001 53.2253C18.5301 53.2253 17.5801 54.1753 17.5801 55.3453C17.5801 56.5153 18.5301 57.4653 19.7001 57.4653C20.6201 57.4653 21.4001 56.8753 21.6901 56.0553H33.4001C33.7201 57.4053 34.9301 58.4053 36.3701 58.4053C37.8101 58.4053 39.0201 57.4053 39.3401 56.0553H43.7801C44.1701 56.0553 44.4801 55.7453 44.4801 55.3553C44.4801 54.9653 44.1701 54.6553 43.7801 54.6553H39.3401C39.0701 53.5453 38.1901 52.6553 37.0701 52.3853V48.5553H46.2901C47.2701 48.5553 48.0601 47.7653 48.0601 46.7853V44.3253H54.4001C57.7201 44.3253 60.4201 41.6153 60.4201 38.3053C60.4201 35.6853 58.7201 33.3853 56.2901 32.5853V32.6153L56.3001 32.5953ZM19.7001 56.0653C19.3101 56.0653 19.0001 55.7553 19.0001 55.3653C19.0001 54.9753 19.3101 54.6653 19.7001 54.6653C20.0901 54.6653 20.4001 54.9753 20.4001 55.3653C20.4001 55.7553 20.0901 56.0653 19.7001 56.0653ZM38.0301 55.3653C38.0301 56.2653 37.3001 57.0153 36.3801 57.0153C35.4601 57.0153 34.7301 56.2853 34.7301 55.3653C34.7301 54.4453 35.4601 53.7153 36.3801 53.7153C37.3001 53.7153 38.0301 54.4453 38.0301 55.3653ZM46.6701 46.8053C46.6701 47.0053 46.5001 47.1653 46.3101 47.1653H26.4501C26.2501 47.1653 26.0901 46.9953 26.0901 46.8053V40.4853C26.0901 40.2853 26.2601 40.1253 26.4501 40.1253H46.3001C46.5001 40.1253 46.6601 40.2953 46.6601 40.4853V46.8053H46.6701V46.8053Z" fill="url(#paint3_linear_538_63)"/>
<path d="M27.4902 32.3451C27.4902 33.5151 28.4402 34.4651 29.6102 34.4651C30.7802 34.4651 31.7302 33.5151 31.7302 32.3451C31.7302 31.1751 30.7802 30.2251 29.6102 30.2251C28.4402 30.2251 27.4902 31.1751 27.4902 32.3451ZM30.3102 32.3451C30.3102 32.7351 30.0002 33.0451 29.6102 33.0451C29.2202 33.0451 28.9102 32.7351 28.9102 32.3451C28.9102 31.9551 29.2202 31.6451 29.6102 31.6451C30.0002 31.6451 30.3102 31.9551 30.3102 32.3451Z" fill="url(#paint4_linear_538_63)"/>
<path d="M36.0896 30.2451H33.5496C33.1596 30.2451 32.8496 30.5551 32.8496 30.9451C32.8496 31.3351 33.1596 31.6451 33.5496 31.6451H36.0896C36.4796 31.6451 36.7896 31.3351 36.7896 30.9451C36.7896 30.5551 36.4796 30.2451 36.0896 30.2451Z" fill="url(#paint5_linear_538_63)"/>
<path d="M36.0896 33.0649H33.5496C33.1596 33.0649 32.8496 33.3749 32.8496 33.7649C32.8496 34.1549 33.1596 34.4649 33.5496 34.4649H36.0896C36.4796 34.4649 36.7896 34.1549 36.7896 33.7649C36.7896 33.3749 36.4796 33.0649 36.0896 33.0649Z" fill="url(#paint6_linear_538_63)"/>
<path d="M38.9207 30.2451C38.5307 30.2451 38.2207 30.5551 38.2207 30.9451C38.2207 31.3351 38.5307 31.6451 38.9207 31.6451C39.3107 31.6451 39.6207 31.3351 39.6207 30.9451C39.6207 30.5551 39.3107 30.2451 38.9207 30.2451Z" fill="url(#paint7_linear_538_63)"/>
<path d="M41.7312 30.2451C41.3412 30.2451 41.0312 30.5551 41.0312 30.9451C41.0312 31.3351 41.3412 31.6451 41.7312 31.6451C42.1212 31.6451 42.4312 31.3351 42.4312 30.9451C42.4312 30.5551 42.1212 30.2451 41.7312 30.2451Z" fill="url(#paint8_linear_538_63)"/>
<path d="M44.5496 31.6451C44.9396 31.6451 45.2496 31.3351 45.2496 30.9451C45.2496 30.5551 44.9396 30.2451 44.5496 30.2451C44.1596 30.2451 43.8496 30.5551 43.8496 30.9451C43.8496 31.3351 44.1596 31.6451 44.5496 31.6451Z" fill="url(#paint9_linear_538_63)"/>
<path d="M38.9207 33.0649C38.5307 33.0649 38.2207 33.3749 38.2207 33.7649C38.2207 34.1549 38.5307 34.4649 38.9207 34.4649C39.3107 34.4649 39.6207 34.1549 39.6207 33.7649C39.6207 33.3749 39.3107 33.0649 38.9207 33.0649Z" fill="url(#paint10_linear_538_63)"/>
<path d="M41.7312 33.0649C41.3412 33.0649 41.0312 33.3749 41.0312 33.7649C41.0312 34.1549 41.3412 34.4649 41.7312 34.4649C42.1212 34.4649 42.4312 34.1549 42.4312 33.7649C42.4312 33.3749 42.1212 33.0649 41.7312 33.0649Z" fill="url(#paint11_linear_538_63)"/>
<path d="M44.5496 34.4649C44.9396 34.4649 45.2496 34.1549 45.2496 33.7649C45.2496 33.3749 44.9396 33.0649 44.5496 33.0649C44.1596 33.0649 43.8496 33.3749 43.8496 33.7649C43.8496 34.1549 44.1596 34.4649 44.5496 34.4649Z" fill="url(#paint12_linear_538_63)"/>
<path d="M29.6102 41.5151C28.4402 41.5151 27.4902 42.4651 27.4902 43.6351C27.4902 44.8051 28.4402 45.7551 29.6102 45.7551C30.7802 45.7551 31.7302 44.8051 31.7302 43.6351C31.7302 42.4651 30.7802 41.5151 29.6102 41.5151ZM29.6102 44.3351C29.2202 44.3351 28.9102 44.0251 28.9102 43.6351C28.9102 43.2451 29.2202 42.9351 29.6102 42.9351C30.0002 42.9351 30.3102 43.2451 30.3102 43.6351C30.3102 44.0251 30.0002 44.3351 29.6102 44.3351Z" fill="url(#paint13_linear_538_63)"/>
<path d="M36.0896 41.5151H33.5496C33.1596 41.5151 32.8496 41.8251 32.8496 42.2151C32.8496 42.6051 33.1596 42.9151 33.5496 42.9151H36.0896C36.4796 42.9151 36.7896 42.6051 36.7896 42.2151C36.7896 41.8251 36.4796 41.5151 36.0896 41.5151Z" fill="url(#paint14_linear_538_63)"/>
<path d="M36.0896 44.3252H33.5496C33.1596 44.3252 32.8496 44.6352 32.8496 45.0252C32.8496 45.4152 33.1596 45.7252 33.5496 45.7252H36.0896C36.4796 45.7252 36.7896 45.4152 36.7896 45.0252C36.7896 44.6352 36.4796 44.3252 36.0896 44.3252Z" fill="url(#paint15_linear_538_63)"/>
<path d="M38.9207 41.5151C38.5307 41.5151 38.2207 41.8251 38.2207 42.2151C38.2207 42.6051 38.5307 42.9151 38.9207 42.9151C39.3107 42.9151 39.6207 42.6051 39.6207 42.2151C39.6207 41.8251 39.3107 41.5151 38.9207 41.5151Z" fill="url(#paint16_linear_538_63)"/>
<path d="M41.7312 41.5151C41.3412 41.5151 41.0312 41.8251 41.0312 42.2151C41.0312 42.6051 41.3412 42.9151 41.7312 42.9151C42.1212 42.9151 42.4312 42.6051 42.4312 42.2151C42.4312 41.8251 42.1212 41.5151 41.7312 41.5151Z" fill="url(#paint17_linear_538_63)"/>
<path d="M44.5496 41.5151C44.1596 41.5151 43.8496 41.8251 43.8496 42.2151C43.8496 42.6051 44.1596 42.9151 44.5496 42.9151C44.9396 42.9151 45.2496 42.6051 45.2496 42.2151C45.2496 41.8251 44.9396 41.5151 44.5496 41.5151Z" fill="url(#paint18_linear_538_63)"/>
<path d="M53.0502 53.2451C52.1302 53.2451 51.3502 53.8351 51.0602 54.6551H47.1102C46.7202 54.6551 46.4102 54.9651 46.4102 55.3551C46.4102 55.7451 46.7202 56.0551 47.1102 56.0551H51.0602C51.3502 56.8751 52.1302 57.4651 53.0502 57.4651C54.2202 57.4651 55.1702 56.5151 55.1702 55.3451C55.1702 54.1751 54.2202 53.2251 53.0502 53.2251V53.2451ZM53.0502 56.0651C52.6602 56.0651 52.3502 55.7551 52.3502 55.3651C52.3502 54.9751 52.6602 54.6651 53.0502 54.6651C53.4402 54.6651 53.7502 54.9751 53.7502 55.3651C53.7502 55.7551 53.4402 56.0651 53.0502 56.0651Z" fill="url(#paint19_linear_538_63)"/>
<path d="M38.9207 44.3252C38.5307 44.3252 38.2207 44.6352 38.2207 45.0252C38.2207 45.4152 38.5307 45.7252 38.9207 45.7252C39.3107 45.7252 39.6207 45.4152 39.6207 45.0252C39.6207 44.6352 39.3107 44.3252 38.9207 44.3252Z" fill="url(#paint20_linear_538_63)"/>
<path d="M41.7312 44.3252C41.3412 44.3252 41.0312 44.6352 41.0312 45.0252C41.0312 45.4152 41.3412 45.7252 41.7312 45.7252C42.1212 45.7252 42.4312 45.4152 42.4312 45.0252C42.4312 44.6352 42.1212 44.3252 41.7312 44.3252Z" fill="url(#paint21_linear_538_63)"/>
<path d="M44.5496 44.3252C44.1596 44.3252 43.8496 44.6352 43.8496 45.0252C43.8496 45.4152 44.1596 45.7252 44.5496 45.7252C44.9396 45.7252 45.2496 45.4152 45.2496 45.0252C45.2496 44.6352 44.9396 44.3252 44.5496 44.3252Z" fill="url(#paint22_linear_538_63)"/>
<path d="M89.0898 29.4849H91.0098V37.7649H89.0898V29.4849V29.4849Z" fill="white"/>
<path d="M99.3398 34.1249V37.7649H97.4998V34.4049C97.4998 33.3749 97.0298 32.9049 96.2098 32.9049C95.3198 32.9049 94.6798 33.4449 94.6798 34.6149V37.7649H92.8398V31.4049H94.5998V32.1549C95.0998 31.6149 95.8398 31.3149 96.6998 31.3149C98.1998 31.3149 99.3398 32.1949 99.3398 34.1249V34.1249Z" fill="white"/>
<path d="M105.12 37.4551C104.74 37.7251 104.19 37.8551 103.62 37.8551C102.12 37.8551 101.24 37.0851 101.24 35.5751V32.9651H100.26V31.5451H101.24V29.9951H103.08V31.5451H104.66V32.9651H103.08V35.5551C103.08 36.0951 103.38 36.3951 103.87 36.3951C104.14 36.3951 104.41 36.3151 104.61 36.1551L105.11 37.4551H105.12Z" fill="white"/>
<path d="M110.11 31.3149V33.0149C109.96 33.0049 109.84 32.9949 109.7 32.9949C108.68 32.9949 108.01 33.5549 108.01 34.7649V37.7649H106.17V31.4049H107.93V32.2449C108.38 31.6249 109.14 31.3149 110.12 31.3149H110.11Z" fill="white"/>
<path d="M110.68 34.5852C110.68 32.6652 112.16 31.3052 114.18 31.3052C116.2 31.3052 117.67 32.6652 117.67 34.5852C117.67 36.5052 116.2 37.8652 114.18 37.8652C112.16 37.8652 110.68 36.5052 110.68 34.5852ZM115.8 34.5852C115.8 33.4852 115.1 32.8252 114.18 32.8252C113.26 32.8252 112.55 33.4852 112.55 34.5852C112.55 35.6852 113.26 36.3452 114.18 36.3452C115.1 36.3452 115.8 35.6852 115.8 34.5852Z" fill="white"/>
<path d="M125.389 28.9949V37.7649H123.629V37.0349C123.169 37.5949 122.489 37.8649 121.639 37.8649C119.839 37.8649 118.459 36.5849 118.459 34.5849C118.459 32.5849 119.839 31.3049 121.639 31.3049C122.419 31.3049 123.079 31.5549 123.539 32.0749V28.9849H125.379L125.389 28.9949ZM123.579 34.5849C123.579 33.4849 122.869 32.8249 121.959 32.8249C121.049 32.8249 120.329 33.4849 120.329 34.5849C120.329 35.6849 121.039 36.3449 121.959 36.3449C122.879 36.3449 123.579 35.6849 123.579 34.5849Z" fill="white"/>
<path d="M133.511 31.4053V37.7653H131.761V37.0053C131.281 37.5653 130.571 37.8553 129.781 37.8553C128.181 37.8553 127.061 36.9553 127.061 34.9953V31.4053H128.901V34.7253C128.901 35.7853 129.371 36.2653 130.191 36.2653C131.011 36.2653 131.661 35.7253 131.661 34.5553V31.4053H133.501H133.511Z" fill="white"/>
<path d="M134.75 34.5852C134.75 32.6652 136.23 31.3052 138.3 31.3052C139.64 31.3052 140.69 31.8852 141.15 32.9252L139.72 33.6952C139.38 33.0952 138.87 32.8152 138.29 32.8152C137.36 32.8152 136.62 33.4652 136.62 34.5752C136.62 35.6852 137.35 36.3352 138.29 36.3352C138.87 36.3352 139.38 36.0752 139.72 35.4552L141.15 36.2352C140.69 37.2552 139.64 37.8452 138.3 37.8452C136.23 37.8452 134.75 36.4852 134.75 34.5652V34.5852Z" fill="white"/>
<path d="M141.66 34.5852C141.66 32.6652 143.14 31.3052 145.21 31.3052C146.55 31.3052 147.6 31.8852 148.06 32.9252L146.63 33.6952C146.29 33.0952 145.78 32.8152 145.2 32.8152C144.27 32.8152 143.53 33.4652 143.53 34.5752C143.53 35.6852 144.26 36.3352 145.2 36.3352C145.78 36.3352 146.29 36.0752 146.63 35.4552L148.06 36.2352C147.6 37.2552 146.55 37.8452 145.21 37.8452C143.14 37.8452 141.66 36.4852 141.66 34.5652V34.5852Z" fill="white"/>
<path d="M148.9 29.4851C148.9 28.9051 149.36 28.4551 150.05 28.4551C150.74 28.4551 151.2 28.8851 151.2 29.4451C151.2 30.0651 150.74 30.5051 150.05 30.5051C149.36 30.5051 148.9 30.0551 148.9 29.4751V29.4851ZM149.12 31.4051H150.96V37.7651H149.12V31.4051Z" fill="white"/>
<path d="M152.221 34.5853C152.221 32.6653 153.701 31.3053 155.721 31.3053C157.741 31.3053 159.211 32.6653 159.211 34.5853C159.211 36.5053 157.741 37.8653 155.721 37.8653C153.701 37.8653 152.221 36.5053 152.221 34.5853ZM157.341 34.5853C157.341 33.4853 156.641 32.8253 155.721 32.8253C154.801 32.8253 154.091 33.4853 154.091 34.5853C154.091 35.6853 154.801 36.3453 155.721 36.3453C156.641 36.3453 157.341 35.6853 157.341 34.5853ZM156.221 28.8853H158.211L156.071 30.5853H154.631L156.231 28.8853H156.221Z" fill="white"/>
<path d="M166.939 34.1249V37.7649H165.099V34.4049C165.099 33.3749 164.629 32.9049 163.809 32.9049C162.919 32.9049 162.279 33.4449 162.279 34.6149V37.7649H160.439V31.4049H162.199V32.1549C162.699 31.6149 163.439 31.3149 164.299 31.3149C165.799 31.3149 166.939 32.1949 166.939 34.1249V34.1249Z" fill="white"/>
<path d="M177.589 34.1349V37.7649H175.859V36.9749C175.519 37.5549 174.849 37.8649 173.919 37.8649C172.429 37.8649 171.539 37.0349 171.539 35.9349C171.539 34.8349 172.329 34.0349 174.269 34.0349H175.739C175.739 33.2449 175.269 32.7849 174.269 32.7849C173.599 32.7849 172.899 33.0049 172.439 33.3749L171.779 32.0849C172.479 31.5849 173.509 31.3149 174.519 31.3149C176.459 31.3149 177.579 32.2149 177.579 34.1449L177.589 34.1349ZM175.749 35.7549V35.1049H174.479C173.619 35.1049 173.339 35.4249 173.339 35.8549C173.339 36.3149 173.729 36.6249 174.379 36.6249C174.989 36.6249 175.529 36.3449 175.739 35.7649L175.749 35.7549Z" fill="white"/>
<path d="M182.619 28.9951H184.459V37.7651H182.619V28.9951V28.9951Z" fill="white"/>
<path d="M191.81 34.1349V37.7649H190.08V36.9749C189.74 37.5549 189.07 37.8649 188.14 37.8649C186.65 37.8649 185.76 37.0349 185.76 35.9349C185.76 34.8349 186.55 34.0349 188.49 34.0349H189.96C189.96 33.2449 189.49 32.7849 188.49 32.7849C187.82 32.7849 187.12 33.0049 186.66 33.3749L186 32.0849C186.7 31.5849 187.73 31.3149 188.74 31.3149C190.68 31.3149 191.8 32.2149 191.8 34.1449L191.81 34.1349ZM189.97 35.7549V35.1049H188.7C187.84 35.1049 187.56 35.4249 187.56 35.8549C187.56 36.3149 187.95 36.6249 188.6 36.6249C189.21 36.6249 189.75 36.3449 189.96 35.7649L189.97 35.7549Z" fill="white"/>
<path d="M192.859 37.1752L193.479 35.8452C194.049 36.2152 194.909 36.4652 195.689 36.4652C196.539 36.4652 196.859 36.2452 196.859 35.8852C196.859 34.8452 193.019 35.9052 193.019 33.3652C193.019 32.1552 194.109 31.3052 195.959 31.3052C196.839 31.3052 197.799 31.5052 198.409 31.8652L197.799 33.1752C197.169 32.8152 196.549 32.7052 195.969 32.7052C195.139 32.7052 194.789 32.9652 194.789 33.2952C194.789 34.3852 198.629 33.3352 198.629 35.8352C198.629 37.0152 197.529 37.8552 195.629 37.8552C194.549 37.8552 193.469 37.5552 192.869 37.1652L192.859 37.1752Z" fill="white"/>
<path d="M207.059 31.3149V33.0149C206.909 33.0049 206.789 32.9949 206.649 32.9949C205.629 32.9949 204.959 33.5549 204.959 34.7649V37.7649H203.119V31.4049H204.879V32.2449C205.329 31.6249 206.089 31.3149 207.069 31.3149H207.059Z" fill="white"/>
<path d="M214.299 35.1052H209.489C209.669 35.8952 210.339 36.3852 211.309 36.3852C211.979 36.3852 212.469 36.1852 212.909 35.7752L213.889 36.8352C213.299 37.5052 212.409 37.8652 211.259 37.8652C209.059 37.8652 207.629 36.4852 207.629 34.5852C207.629 32.6852 209.079 31.3052 211.019 31.3052C212.959 31.3052 214.329 32.5552 214.329 34.6052C214.329 34.7452 214.309 34.9452 214.289 35.1052H214.299ZM209.459 34.0252H212.589C212.459 33.2252 211.859 32.7052 211.029 32.7052C210.199 32.7052 209.589 33.2152 209.459 34.0252Z" fill="white"/>
<path d="M222.049 28.9949V37.7649H220.289V37.0349C219.829 37.5949 219.149 37.8649 218.299 37.8649C216.499 37.8649 215.119 36.5849 215.119 34.5849C215.119 32.5849 216.499 31.3049 218.299 31.3049C219.079 31.3049 219.739 31.5549 220.199 32.0749V28.9849H222.039L222.049 28.9949ZM220.239 34.5849C220.239 33.4849 219.529 32.8249 218.619 32.8249C217.709 32.8249 216.989 33.4849 216.989 34.5849C216.989 35.6849 217.699 36.3449 218.619 36.3449C219.539 36.3449 220.239 35.6849 220.239 34.5849Z" fill="white"/>
<path d="M229.949 35.1052H225.139C225.319 35.8952 225.989 36.3852 226.959 36.3852C227.629 36.3852 228.119 36.1852 228.559 35.7752L229.539 36.8352C228.949 37.5052 228.059 37.8652 226.909 37.8652C224.709 37.8652 223.279 36.4852 223.279 34.5852C223.279 32.6852 224.729 31.3052 226.669 31.3052C228.609 31.3052 229.979 32.5552 229.979 34.6052C229.979 34.7452 229.959 34.9452 229.939 35.1052H229.949ZM225.109 34.0252H228.239C228.109 33.2252 227.509 32.7052 226.679 32.7052C225.849 32.7052 225.239 33.2152 225.109 34.0252Z" fill="white"/>
<path d="M230.609 37.1752L231.229 35.8452C231.799 36.2152 232.659 36.4652 233.439 36.4652C234.289 36.4652 234.609 36.2452 234.609 35.8852C234.609 34.8452 230.769 35.9052 230.769 33.3652C230.769 32.1552 231.859 31.3052 233.709 31.3052C234.589 31.3052 235.549 31.5052 236.159 31.8652L235.549 33.1752C234.919 32.8152 234.299 32.7052 233.719 32.7052C232.889 32.7052 232.539 32.9652 232.539 33.2952C232.539 34.3852 236.379 33.3352 236.379 35.8352C236.379 37.0152 235.279 37.8552 233.379 37.8552C232.299 37.8552 231.219 37.5552 230.619 37.1652L230.609 37.1752Z" fill="white"/>
<path d="M95.4398 43.1951V51.9651H93.6798V51.2351C93.2198 51.7951 92.5398 52.0651 91.6898 52.0651C89.8898 52.0651 88.5098 50.7851 88.5098 48.7851C88.5098 46.7851 89.8898 45.5051 91.6898 45.5051C92.4698 45.5051 93.1298 45.7551 93.5898 46.2751V43.1851H95.4398V43.1951ZM93.6298 48.7851C93.6298 47.6851 92.9198 47.0251 92.0098 47.0251C91.0998 47.0251 90.3798 47.6851 90.3798 48.7851C90.3798 49.8851 91.0898 50.5451 92.0098 50.5451C92.9298 50.5451 93.6298 49.8851 93.6298 48.7851Z" fill="white"/>
<path d="M103.34 49.3049H98.5299C98.7099 50.0949 99.3799 50.5849 100.35 50.5849C101.02 50.5849 101.51 50.3849 101.95 49.9749L102.93 51.0349C102.34 51.7049 101.45 52.0649 100.3 52.0649C98.0999 52.0649 96.6699 50.6849 96.6699 48.7849C96.6699 46.8849 98.1199 45.5049 100.06 45.5049C102 45.5049 103.37 46.7549 103.37 48.8049C103.37 48.9449 103.35 49.1449 103.33 49.3049H103.34ZM98.4999 48.2249H101.63C101.5 47.4249 100.9 46.9049 100.07 46.9049C99.2399 46.9049 98.6299 47.4149 98.4999 48.2249Z" fill="white"/>
<path d="M114.44 43.1951V51.9651H112.68V51.2351C112.22 51.7951 111.54 52.0651 110.69 52.0651C108.89 52.0651 107.51 50.7851 107.51 48.7851C107.51 46.7851 108.89 45.5051 110.69 45.5051C111.47 45.5051 112.13 45.7551 112.59 46.2751V43.1851H114.44V43.1951ZM112.63 48.7851C112.63 47.6851 111.92 47.0251 111.01 47.0251C110.1 47.0251 109.38 47.6851 109.38 48.7851C109.38 49.8851 110.09 50.5451 111.01 50.5451C111.93 50.5451 112.63 49.8851 112.63 48.7851Z" fill="white"/>
<path d="M121.78 48.3351V51.9651H120.05V51.1751C119.71 51.7551 119.04 52.0651 118.11 52.0651C116.62 52.0651 115.73 51.2351 115.73 50.1351C115.73 49.0351 116.52 48.2351 118.46 48.2351H119.93C119.93 47.4451 119.46 46.9851 118.46 46.9851C117.79 46.9851 117.09 47.2051 116.63 47.5751L115.97 46.2851C116.67 45.7851 117.7 45.5151 118.71 45.5151C120.65 45.5151 121.77 46.4151 121.77 48.3451L121.78 48.3351ZM119.94 49.9551V49.3051H118.67C117.81 49.3051 117.53 49.6251 117.53 50.0551C117.53 50.5151 117.92 50.8251 118.57 50.8251C119.18 50.8251 119.72 50.5451 119.93 49.9651L119.94 49.9551Z" fill="white"/>
<path d="M127.549 51.6553C127.169 51.9253 126.619 52.0553 126.049 52.0553C124.549 52.0553 123.669 51.2853 123.669 49.7753V47.1653H122.689V45.7453H123.669V44.1953H125.509V45.7453H127.089V47.1653H125.509V49.7553C125.509 50.2953 125.809 50.5953 126.299 50.5953C126.569 50.5953 126.839 50.5153 127.039 50.3553L127.539 51.6553H127.549Z" fill="white"/>
<path d="M127.92 48.7849C127.92 46.8649 129.4 45.5049 131.42 45.5049C133.44 45.5049 134.91 46.8649 134.91 48.7849C134.91 50.7049 133.44 52.0649 131.42 52.0649C129.4 52.0649 127.92 50.7049 127.92 48.7849V48.7849ZM133.04 48.7849C133.04 47.6849 132.34 47.0249 131.42 47.0249C130.5 47.0249 129.79 47.6849 129.79 48.7849C129.79 49.8849 130.5 50.5449 131.42 50.5449C132.34 50.5449 133.04 49.8849 133.04 48.7849Z" fill="white"/>
<path d="M135.529 51.3749L136.149 50.0449C136.719 50.4149 137.579 50.6649 138.359 50.6649C139.209 50.6649 139.529 50.4449 139.529 50.0849C139.529 49.0449 135.689 50.1049 135.689 47.5649C135.689 46.3549 136.779 45.5049 138.629 45.5049C139.509 45.5049 140.469 45.7049 141.079 46.0649L140.469 47.3749C139.839 47.0149 139.219 46.9049 138.639 46.9049C137.809 46.9049 137.459 47.1649 137.459 47.4949C137.459 48.5849 141.299 47.5349 141.299 50.0349C141.299 51.2149 140.199 52.0549 138.299 52.0549C137.219 52.0549 136.139 51.7549 135.539 51.3649L135.529 51.3749Z" fill="white"/>
<path d="M145.789 48.7253C145.789 46.5453 146.319 44.5953 147.269 43.1953H149.029C148.019 44.9653 147.599 46.7453 147.599 48.7253C147.599 50.7053 148.029 52.4853 149.029 54.2553H147.269C146.319 52.8253 145.789 50.8953 145.789 48.7253Z" fill="white"/>
<path d="M150.129 43.6851H152.049V51.9651H150.129V43.6851Z" fill="white"/>
<path d="M161.19 46.6951C161.19 48.5351 159.81 49.6851 157.59 49.6851H155.92V51.9651H154V43.6851H157.58C159.79 43.6851 161.18 44.8351 161.18 46.6851L161.19 46.6951ZM159.25 46.6951C159.25 45.7851 158.66 45.2551 157.49 45.2551H155.93V48.1251H157.49C158.66 48.1251 159.25 47.5951 159.25 46.6951Z" fill="white"/>
<path d="M161.75 54.2651C162.77 52.4951 163.19 50.7151 163.19 48.7351C163.19 46.7551 162.76 44.9751 161.75 43.2051H163.51C164.48 44.6151 165 46.5651 165 48.7351C165 50.9051 164.48 52.8351 163.51 54.2651H161.75Z" fill="white"/>
<defs>
<linearGradient id="paint0_linear_538_63" x1="67.4395" y1="40.7149" x2="281.549" y2="40.7149" gradientUnits="userSpaceOnUse">
<stop stop-color="#172765"/>
<stop offset="0.26" stop-color="#193A75"/>
<stop offset="0.79" stop-color="#216E9F"/>
<stop offset="1" stop-color="#2584B1"/>
</linearGradient>
<linearGradient id="paint1_linear_538_63" x1="0.97" y1="40.835" x2="71.18" y2="40.835" gradientUnits="userSpaceOnUse">
<stop stop-color="#172765"/>
<stop offset="0.26" stop-color="#193A75"/>
<stop offset="0.79" stop-color="#216E9F"/>
<stop offset="1" stop-color="#2584B1"/>
</linearGradient>
<linearGradient id="paint2_linear_538_63" x1="12.3303" y1="30.6651" x2="51.1203" y2="30.6651" gradientUnits="userSpaceOnUse">
<stop stop-color="#172765"/>
<stop offset="0.26" stop-color="#193A75"/>
<stop offset="0.79" stop-color="#216E9F"/>
<stop offset="1" stop-color="#2584B1"/>
</linearGradient>
<linearGradient id="paint3_linear_538_63" x1="17.5701" y1="40.6753" x2="60.4101" y2="40.6753" gradientUnits="userSpaceOnUse">
<stop stop-color="#172765"/>
<stop offset="0.26" stop-color="#193A75"/>
<stop offset="0.79" stop-color="#216E9F"/>
<stop offset="1" stop-color="#2584B1"/>
</linearGradient>
<linearGradient id="paint4_linear_538_63" x1="27.4902" y1="32.3551" x2="31.7202" y2="32.3551" gradientUnits="userSpaceOnUse">
<stop stop-color="#172765"/>
<stop offset="0.26" stop-color="#193A75"/>
<stop offset="0.79" stop-color="#216E9F"/>
<stop offset="1" stop-color="#2584B1"/>
</linearGradient>
<linearGradient id="paint5_linear_538_63" x1="32.8496" y1="30.9451" x2="36.7896" y2="30.9451" gradientUnits="userSpaceOnUse">
<stop stop-color="#172765"/>
<stop offset="0.26" stop-color="#193A75"/>
<stop offset="0.79" stop-color="#216E9F"/>
<stop offset="1" stop-color="#2584B1"/>
</linearGradient>
<linearGradient id="paint6_linear_538_63" x1="32.8496" y1="33.7649" x2="36.7896" y2="33.7649" gradientUnits="userSpaceOnUse">
<stop stop-color="#172765"/>
<stop offset="0.26" stop-color="#193A75"/>
<stop offset="0.79" stop-color="#216E9F"/>
<stop offset="1" stop-color="#2584B1"/>
</linearGradient>
<linearGradient id="paint7_linear_538_63" x1="38.2007" y1="30.9451" x2="39.6207" y2="30.9451" gradientUnits="userSpaceOnUse">
<stop stop-color="#172765"/>
<stop offset="0.26" stop-color="#193A75"/>
<stop offset="0.79" stop-color="#216E9F"/>
<stop offset="1" stop-color="#2584B1"/>
</linearGradient>
<linearGradient id="paint8_linear_538_63" x1="41.0213" y1="30.9451" x2="42.4312" y2="30.9451" gradientUnits="userSpaceOnUse">
<stop stop-color="#172765"/>
<stop offset="0.26" stop-color="#193A75"/>
<stop offset="0.79" stop-color="#216E9F"/>
<stop offset="1" stop-color="#2584B1"/>
</linearGradient>
<linearGradient id="paint9_linear_538_63" x1="43.8396" y1="30.9551" x2="45.2496" y2="30.9551" gradientUnits="userSpaceOnUse">
<stop stop-color="#172765"/>
<stop offset="0.26" stop-color="#193A75"/>
<stop offset="0.79" stop-color="#216E9F"/>
<stop offset="1" stop-color="#2584B1"/>
</linearGradient>
<linearGradient id="paint10_linear_538_63" x1="38.2007" y1="33.7649" x2="39.6207" y2="33.7649" gradientUnits="userSpaceOnUse">
<stop stop-color="#172765"/>
<stop offset="0.26" stop-color="#193A75"/>
<stop offset="0.79" stop-color="#216E9F"/>
<stop offset="1" stop-color="#2584B1"/>
</linearGradient>
<linearGradient id="paint11_linear_538_63" x1="41.0213" y1="33.7649" x2="42.4312" y2="33.7649" gradientUnits="userSpaceOnUse">
<stop stop-color="#172765"/>
<stop offset="0.26" stop-color="#193A75"/>
<stop offset="0.79" stop-color="#216E9F"/>
<stop offset="1" stop-color="#2584B1"/>
</linearGradient>
<linearGradient id="paint12_linear_538_63" x1="43.8396" y1="33.7649" x2="45.2496" y2="33.7649" gradientUnits="userSpaceOnUse">
<stop stop-color="#172765"/>
<stop offset="0.26" stop-color="#193A75"/>
<stop offset="0.79" stop-color="#216E9F"/>
<stop offset="1" stop-color="#2584B1"/>
</linearGradient>
<linearGradient id="paint13_linear_538_63" x1="27.4902" y1="43.6351" x2="31.7202" y2="43.6351" gradientUnits="userSpaceOnUse">
<stop stop-color="#172765"/>
<stop offset="0.26" stop-color="#193A75"/>
<stop offset="0.79" stop-color="#216E9F"/>
<stop offset="1" stop-color="#2584B1"/>
</linearGradient>
<linearGradient id="paint14_linear_538_63" x1="32.8496" y1="42.2151" x2="36.7896" y2="42.2151" gradientUnits="userSpaceOnUse">
<stop stop-color="#172765"/>
<stop offset="0.26" stop-color="#193A75"/>
<stop offset="0.79" stop-color="#216E9F"/>
<stop offset="1" stop-color="#2584B1"/>
</linearGradient>
<linearGradient id="paint15_linear_538_63" x1="32.8496" y1="45.0352" x2="36.7896" y2="45.0352" gradientUnits="userSpaceOnUse">
<stop stop-color="#172765"/>
<stop offset="0.26" stop-color="#193A75"/>
<stop offset="0.79" stop-color="#216E9F"/>
<stop offset="1" stop-color="#2584B1"/>
</linearGradient>
<linearGradient id="paint16_linear_538_63" x1="38.2007" y1="42.2151" x2="39.6207" y2="42.2151" gradientUnits="userSpaceOnUse">
<stop stop-color="#172765"/>
<stop offset="0.26" stop-color="#193A75"/>
<stop offset="0.79" stop-color="#216E9F"/>
<stop offset="1" stop-color="#2584B1"/>
</linearGradient>
<linearGradient id="paint17_linear_538_63" x1="41.0213" y1="42.2151" x2="42.4312" y2="42.2151" gradientUnits="userSpaceOnUse">
<stop stop-color="#172765"/>
<stop offset="0.26" stop-color="#193A75"/>
<stop offset="0.79" stop-color="#216E9F"/>
<stop offset="1" stop-color="#2584B1"/>
</linearGradient>
<linearGradient id="paint18_linear_538_63" x1="43.8396" y1="42.2151" x2="45.2496" y2="42.2151" gradientUnits="userSpaceOnUse">
<stop stop-color="#172765"/>
<stop offset="0.26" stop-color="#193A75"/>
<stop offset="0.79" stop-color="#216E9F"/>
<stop offset="1" stop-color="#2584B1"/>
</linearGradient>
<linearGradient id="paint19_linear_538_63" x1="46.4102" y1="55.3651" x2="55.1602" y2="55.3651" gradientUnits="userSpaceOnUse">
<stop stop-color="#172765"/>
<stop offset="0.26" stop-color="#193A75"/>
<stop offset="0.79" stop-color="#216E9F"/>
<stop offset="1" stop-color="#2584B1"/>
</linearGradient>
<linearGradient id="paint20_linear_538_63" x1="38.2007" y1="45.0352" x2="39.6207" y2="45.0352" gradientUnits="userSpaceOnUse">
<stop stop-color="#172765"/>
<stop offset="0.26" stop-color="#193A75"/>
<stop offset="0.79" stop-color="#216E9F"/>
<stop offset="1" stop-color="#2584B1"/>
</linearGradient>
<linearGradient id="paint21_linear_538_63" x1="41.0213" y1="45.0352" x2="42.4312" y2="45.0352" gradientUnits="userSpaceOnUse">
<stop stop-color="#172765"/>
<stop offset="0.26" stop-color="#193A75"/>
<stop offset="0.79" stop-color="#216E9F"/>
<stop offset="1" stop-color="#2584B1"/>
</linearGradient>
<linearGradient id="paint22_linear_538_63" x1="43.8396" y1="45.0352" x2="45.2496" y2="45.0352" gradientUnits="userSpaceOnUse">
<stop stop-color="#172765"/>
<stop offset="0.26" stop-color="#193A75"/>
<stop offset="0.79" stop-color="#216E9F"/>
<stop offset="1" stop-color="#2584B1"/>
</linearGradient>
</defs>
</svg>
