<svg width="54" height="69" viewBox="0 0 54 69" fill="none" xmlns="http://www.w3.org/2000/svg">
<path d="M27.2501 16.4299C30.0778 16.4299 32.3701 14.1376 32.3701 11.3099C32.3701 8.48224 30.0778 6.18994 27.2501 6.18994C24.4224 6.18994 22.1301 8.48224 22.1301 11.3099C22.1301 14.1376 24.4224 16.4299 27.2501 16.4299Z" stroke="#1B265E" stroke-width="3" stroke-miterlimit="10"/>
<path d="M26.8901 51.5299C26.8418 51.9213 26.7169 52.2995 26.5223 52.6426C26.3278 52.9858 26.0675 53.2872 25.7563 53.5296C25.4452 53.772 25.0893 53.9507 24.709 54.0554C24.3287 54.1601 23.9314 54.1888 23.54 54.1399C22.8556 54.1165 22.2043 53.8395 21.7127 53.3626C21.2211 52.8858 20.9243 52.2433 20.88 51.5599L20.55 27.1699L9.09003 21.1699C8.78825 20.9492 8.53658 20.6672 8.35154 20.3424C8.16649 20.0175 8.05228 19.6572 8.01639 19.2851C7.9805 18.913 8.02373 18.5375 8.14329 18.1832C8.26284 17.829 8.45598 17.5041 8.71003 17.2299V17.2299C9.1207 16.7888 9.66944 16.5009 10.2657 16.4137C10.862 16.3264 11.4702 16.445 11.99 16.7499C14.8578 18.2804 17.8732 19.5167 20.99 20.4399C22.8084 20.9641 24.6879 21.2465 26.5801 21.2799H27.23C29.1222 21.2465 31.0017 20.9641 32.82 20.4399C35.9369 19.5167 38.9522 18.2804 41.82 16.7499C42.3399 16.445 42.9481 16.3264 43.5443 16.4137C44.1406 16.5009 44.6894 16.7888 45.1 17.2299V17.2299C45.3489 17.5049 45.537 17.8293 45.6521 18.1819C45.7672 18.5346 45.8067 18.9075 45.768 19.2764C45.7293 19.6453 45.6133 20.0019 45.4276 20.323C45.2419 20.6441 44.9905 20.9224 44.69 21.1399L33.23 27.1399L32.91 51.5299C32.8658 52.2133 32.569 52.8558 32.0774 53.3326C31.5858 53.8095 30.9345 54.0865 30.25 54.1099C29.8586 54.1588 29.4614 54.1301 29.0811 54.0254C28.7008 53.9207 28.3449 53.742 28.0338 53.4996C27.7226 53.2572 27.4623 52.9558 27.2678 52.6126C27.0732 52.2695 26.9483 51.8914 26.9 51.4999V51.4999" stroke="#1B265E" stroke-width="3" stroke-miterlimit="10"/>
<path d="M15.8601 68.0399V58.8699H37.9301V68.0399" stroke="#1B265E" stroke-width="3" stroke-miterlimit="10"/>
<path d="M37.9302 68.0399V61.9299H51.7802V68.0399" stroke="#1B265E" stroke-width="3" stroke-miterlimit="10"/>
<path d="M2 68.04V64.99H15.86V68.04" stroke="#1B265E" stroke-width="3" stroke-miterlimit="10"/>
<path d="M27.25 1.42V0" stroke="#1B265E" stroke-width="3" stroke-miterlimit="10"/>
<path d="M37.8901 8.77003L39.5901 8.53003" stroke="#1B265E" stroke-width="3" stroke-miterlimit="10"/>
<path d="M20.2501 3.52995L19.1301 2.44995" stroke="#1B265E" stroke-width="3" stroke-miterlimit="10"/>
<path d="M16.5901 8.84987L14.8801 8.61987" stroke="#1B265E" stroke-width="3" stroke-miterlimit="10"/>
<path d="M34.27 3.53997L35.39 2.46997" stroke="#1B265E" stroke-width="3" stroke-miterlimit="10"/>
</svg>
