<svg width="282" height="80" viewBox="0 0 282 80" fill="none" xmlns="http://www.w3.org/2000/svg">
<path opacity="0.7" d="M281.479 39.9102L268.939 61.6102H67.1895V60.1802L69.1195 59.0802C69.8295 58.6602 70.2895 57.8802 70.2895 57.0302V21.5302C70.2895 20.6802 69.8195 19.9002 69.1195 19.4802L67.1895 18.3802V18.1802H268.939L281.479 39.9002V39.9102Z" fill="url(#paint0_linear_622_333)"/>
<path opacity="0.7" d="M67.0493 20.1002L36.3193 2.35016C35.5793 1.93016 34.6793 1.93016 33.9493 2.35016L3.2093 20.1002C2.4693 20.5202 2.0293 21.3002 2.0293 22.1502V57.6402C2.0293 58.4902 2.4893 59.2702 3.2093 59.6902L33.9393 77.4302C34.6793 77.8502 35.5793 77.8502 36.3093 77.4302L67.0393 59.6902C67.7793 59.2702 68.2193 58.4902 68.2193 57.6402V22.1502C68.2193 21.3002 67.7593 20.5202 67.0393 20.1002H67.0493Z" stroke="url(#paint1_linear_622_333)" stroke-width="4.06" stroke-linecap="round" stroke-linejoin="round"/>
<g opacity="0.7">
<path d="M51.4494 24.6301C51.7494 24.8301 52.1494 24.7501 52.3494 24.4501C52.4594 24.2801 52.4794 24.0701 52.4294 23.8801L50.4794 18.0301C50.3794 17.7401 50.0994 17.5601 49.7994 17.5801L43.2994 18.2301C42.9394 18.2601 42.6894 18.5901 42.7194 18.9401C42.7394 19.1201 42.8294 19.2901 42.9794 19.4001L45.0694 20.9701L41.0694 26.6801H31.0094C30.8294 26.6801 30.6494 26.7601 30.5294 26.8901L10.8594 48.1601V57.2601L28.0194 38.3001L29.5094 45.9401C29.6994 46.8501 30.4894 47.5001 31.4294 47.5101H36.7194L34.9294 56.4801C34.9294 56.4801 34.9194 56.5701 34.9194 56.6001V59.2001H45.3194V56.0201L47.2394 47.7201L52.0694 38.0801C52.3894 37.4401 52.3394 36.6901 51.9294 36.1001L46.6894 28.5401L50.0394 23.6901L51.4594 24.6401V24.6201L51.4494 24.6301ZM41.0794 42.9401V41.6401C41.0794 41.2801 40.7894 40.9901 40.4294 40.9901H39.2894C38.4894 40.9901 37.8294 40.3301 37.8294 39.5301V37.7501H40.2094L42.3694 39.3801V42.9601H41.0694L41.0794 42.9401ZM41.7294 34.4801H37.1794C36.8194 34.4801 36.5294 34.7701 36.5294 35.1301V39.5201C36.5294 41.0501 37.7694 42.2801 39.2894 42.2801H39.7794V42.9301H33.4494L31.0194 35.0201L33.9094 31.8801H43.6794L47.1494 37.0701L43.6994 42.0101V36.4301C43.6994 35.3501 42.8294 34.4801 41.7494 34.4801H41.7294V34.4801ZM50.8994 37.4901L46.0394 47.2101C46.0394 47.2101 45.9994 47.3001 45.9794 47.3501L44.0294 55.8001C44.0294 55.8001 44.0194 55.9001 44.0194 55.9401H36.3594L38.1494 46.9701C38.2194 46.6101 37.9894 46.2801 37.6394 46.2001C37.5994 46.2001 37.5494 46.1901 37.5194 46.1901H31.4394C31.1294 46.1901 30.8594 45.9701 30.7994 45.6701L29.1194 37.0901L29.1494 37.0501L29.9894 36.1401L32.3394 43.7801C32.4294 44.0501 32.6694 44.2401 32.9594 44.2401H40.6594L39.7794 49.9901V53.3401H41.0794V50.1401L41.9794 44.2301H43.3694C43.5794 44.2301 43.7794 44.1301 43.8994 43.9501L48.4494 37.4501C48.6094 37.2301 48.6094 36.9401 48.4494 36.7101L44.7894 31.2301L45.8794 29.6601L50.8394 36.8101C50.9694 37.0101 50.9994 37.2601 50.8794 37.4701H50.8694L50.8994 37.4901Z" fill="url(#paint2_linear_622_333)"/>
<path d="M10.8596 43.2601L24.1996 29.2501L25.3596 30.4101C25.6196 30.6701 26.0296 30.6701 26.2796 30.4101C26.3996 30.2901 26.4696 30.1201 26.4696 29.9501V24.7501C26.4696 24.3901 26.1796 24.1001 25.8196 24.1001H20.6196C20.2596 24.1001 19.9696 24.3901 19.9696 24.7501C19.9696 24.9201 20.0396 25.0801 20.1596 25.2101L21.6496 26.7001L10.8596 37.4801V43.2601H10.8496H10.8596Z" fill="url(#paint3_linear_622_333)"/>
</g>
<path d="M273.089 54.6399L269.059 61.5999H204.299L200.279 54.6399L204.299 47.6899H269.059L273.089 54.6399Z" fill="white"/>
<path d="M211.129 53.1299C211.129 54.5499 210.079 55.4399 208.409 55.4399H207.159L206.859 56.9799H205.559L206.679 51.3799H208.939C210.339 51.3799 211.129 52.0299 211.129 53.1199V53.1299ZM209.819 53.2399C209.819 52.6999 209.439 52.4399 208.779 52.4399H207.759L207.369 54.3799H208.469C209.329 54.3799 209.819 53.9799 209.819 53.2399Z" fill="black"/>
<path d="M214.798 52.6199L214.578 53.7699C214.468 53.7699 214.398 53.7499 214.288 53.7499C213.548 53.7499 213.078 54.0899 212.918 54.8999L212.498 56.9799H211.248L212.108 52.6799H213.288L213.188 53.1899C213.568 52.7699 214.098 52.6099 214.798 52.6099V52.6199Z" fill="black"/>
<path d="M214.709 55.1201C214.709 53.6901 215.799 52.6201 217.309 52.6201C218.629 52.6201 219.479 53.3801 219.479 54.5501C219.479 55.9801 218.399 57.0501 216.879 57.0501C215.569 57.0501 214.709 56.2801 214.709 55.1201ZM218.209 54.6001C218.209 54.0201 217.859 53.6501 217.229 53.6501C216.489 53.6501 215.969 54.2301 215.969 55.0701C215.969 55.6501 216.329 56.0201 216.949 56.0201C217.679 56.0201 218.209 55.4401 218.209 54.6001Z" fill="black"/>
<path d="M222.638 54.8302L223.838 56.9802H222.518L221.818 55.6602L220.578 56.9802H219.158L221.308 54.7702L220.168 52.6802H221.458L222.138 53.9402L223.338 52.6802H224.718L222.648 54.8302H222.638Z" fill="black"/>
<path d="M225.339 52.6799H226.579L225.719 56.9799H224.479L225.339 52.6799ZM225.439 51.4299C225.439 51.0099 225.769 50.6899 226.259 50.6899C226.699 50.6899 226.999 50.9599 226.999 51.3099C226.999 51.7699 226.659 52.0799 226.169 52.0799C225.729 52.0799 225.439 51.7899 225.439 51.4299Z" fill="black"/>
<path d="M234.669 54.0701C234.669 54.2401 234.649 54.4101 234.609 54.6001L234.139 56.9801H232.889L233.349 54.6901C233.369 54.5701 233.379 54.4701 233.379 54.3601C233.379 53.9301 233.149 53.7001 232.699 53.7001C232.119 53.7001 231.719 54.0401 231.569 54.7801L231.129 56.9901H229.879L230.339 54.7001C230.359 54.5801 230.369 54.4801 230.369 54.3801C230.369 53.9401 230.139 53.7101 229.689 53.7101C229.109 53.7101 228.709 54.0501 228.549 54.8101L228.119 57.0001H226.869L227.729 52.7001H228.909L228.809 53.1501C229.189 52.8101 229.659 52.6401 230.159 52.6401C230.749 52.6401 231.239 52.8801 231.479 53.3401C231.899 52.8801 232.459 52.6401 233.119 52.6401C234.039 52.6401 234.659 53.1401 234.659 54.1001L234.669 54.0701Z" fill="black"/>
<path d="M240.548 52.6801L239.688 56.9801H238.508L238.588 56.5601C238.248 56.8701 237.798 57.0501 237.268 57.0501C236.268 57.0501 235.418 56.3501 235.418 55.1201C235.418 53.6701 236.468 52.6201 237.788 52.6201C238.408 52.6201 238.908 52.8201 239.188 53.2701L239.298 52.6901H240.548V52.6801ZM238.918 54.6001C238.918 54.0201 238.558 53.6501 237.938 53.6501C237.198 53.6501 236.678 54.2301 236.678 55.0701C236.678 55.6501 237.038 56.0201 237.658 56.0201C238.398 56.0201 238.918 55.4401 238.918 54.6001Z" fill="black"/>
<path d="M248.628 54.0701C248.628 54.2401 248.608 54.4101 248.568 54.6001L248.098 56.9801H246.848L247.308 54.6901C247.328 54.5701 247.338 54.4701 247.338 54.3601C247.338 53.9301 247.108 53.7001 246.658 53.7001C246.078 53.7001 245.678 54.0401 245.528 54.7801L245.088 56.9901H243.838L244.298 54.7001C244.318 54.5801 244.328 54.4801 244.328 54.3801C244.328 53.9401 244.098 53.7101 243.648 53.7101C243.068 53.7101 242.668 54.0501 242.508 54.8101L242.078 57.0001H240.828L241.688 52.7001H242.868L242.768 53.1501C243.148 52.8101 243.618 52.6401 244.118 52.6401C244.708 52.6401 245.198 52.8801 245.438 53.3401C245.858 52.8801 246.418 52.6401 247.078 52.6401C247.998 52.6401 248.618 53.1401 248.618 54.1001L248.628 54.0701Z" fill="black"/>
<path d="M253.879 55.1701H250.589C250.629 55.7501 250.989 56.0501 251.699 56.0501C252.139 56.0501 252.559 55.9101 252.849 55.6501L253.369 56.4701C252.869 56.8701 252.229 57.0501 251.569 57.0501C250.229 57.0501 249.369 56.2901 249.369 55.1201C249.369 53.6801 250.409 52.6201 251.899 52.6201C253.159 52.6201 253.949 53.3601 253.949 54.5101C253.949 54.7401 253.919 54.9701 253.879 55.1701V55.1701ZM250.669 54.4401H252.799C252.799 53.8701 252.419 53.5501 251.839 53.5501C251.259 53.5501 250.829 53.9001 250.659 54.4401H250.669Z" fill="black"/>
<path d="M259.229 54.0801C259.229 54.2401 259.209 54.4201 259.169 54.6001L258.689 56.9801H257.439L257.899 54.6801C257.919 54.5801 257.929 54.4701 257.929 54.3801C257.929 53.9401 257.689 53.6901 257.189 53.6901C256.559 53.6901 256.119 54.0401 255.969 54.7901L255.539 56.9701H254.289L255.149 52.6701H256.329L256.229 53.1301C256.619 52.7701 257.119 52.6001 257.649 52.6001C258.589 52.6001 259.219 53.1101 259.219 54.0601L259.229 54.0801Z" fill="black"/>
<path d="M261.529 55.46C261.509 55.52 261.509 55.58 261.509 55.64C261.509 55.9 261.649 56.06 261.969 56.06C262.139 56.06 262.309 56 262.469 55.91L262.649 56.8C262.339 56.99 261.949 57.06 261.579 57.06C260.779 57.06 260.239 56.61 260.239 55.86C260.239 55.74 260.259 55.61 260.279 55.48L260.619 53.74H259.959L260.149 52.78H260.809L261.019 51.73H262.269L262.059 52.78H263.129L262.939 53.74H261.869L261.529 55.47V55.46Z" fill="black"/>
<path d="M267.78 55.1701H264.49C264.53 55.7501 264.89 56.0501 265.6 56.0501C266.04 56.0501 266.46 55.9101 266.75 55.6501L267.27 56.4701C266.77 56.8701 266.13 57.0501 265.47 57.0501C264.13 57.0501 263.27 56.2901 263.27 55.1201C263.27 53.6801 264.31 52.6201 265.8 52.6201C267.05 52.6201 267.85 53.3601 267.85 54.5101C267.85 54.7401 267.82 54.9701 267.78 55.1701V55.1701ZM264.57 54.4401H266.7C266.7 53.8701 266.32 53.5501 265.74 53.5501C265.16 53.5501 264.73 53.9001 264.56 54.4401H264.57Z" fill="black"/>
<path d="M218.089 50.98H219.469L217.899 52.13H216.889L218.089 50.98Z" fill="black"/>
<g opacity="0.7">
<path d="M88.0098 34.9997H89.9498V41.8097H94.1598V43.3897H88.0098V34.9897V34.9997Z" fill="white"/>
<path d="M94.9004 35C94.9004 34.41 95.3704 33.96 96.0604 33.96C96.7504 33.96 97.2204 34.39 97.2204 34.97C97.2204 35.59 96.7504 36.05 96.0604 36.05C95.3704 36.05 94.9004 35.59 94.9004 35.01V35ZM95.1304 36.94H97.0004V43.39H95.1304V36.94Z" fill="white"/>
<path d="M105.309 34.4897V43.3897H103.519V42.6497C103.049 43.2097 102.369 43.4897 101.509 43.4897C99.6893 43.4897 98.2793 42.1997 98.2793 40.1697C98.2793 38.1397 99.6793 36.8497 101.509 36.8497C102.299 36.8497 102.969 37.0997 103.439 37.6297V34.4997H105.309V34.4897ZM103.479 40.1597C103.479 39.0397 102.759 38.3697 101.839 38.3697C100.919 38.3697 100.179 39.0397 100.179 40.1597C100.179 41.2797 100.899 41.9497 101.839 41.9497C102.779 41.9497 103.479 41.2797 103.479 40.1597Z" fill="white"/>
<path d="M113.33 40.7001H108.45C108.63 41.5001 109.31 41.9901 110.3 41.9901C110.98 41.9901 111.48 41.7901 111.92 41.3701L112.92 42.4501C112.32 43.1301 111.42 43.4901 110.26 43.4901C108.03 43.4901 106.58 42.0901 106.58 40.1701C106.58 38.2501 108.06 36.8501 110.02 36.8501C111.98 36.8501 113.38 38.1201 113.38 40.2001C113.38 40.3401 113.36 40.5501 113.34 40.7001H113.33ZM108.42 39.6101H111.6C111.47 38.7901 110.86 38.2701 110.02 38.2701C109.18 38.2701 108.56 38.7901 108.43 39.6101H108.42Z" fill="white"/>
<path d="M118.619 36.8501V38.5801C118.459 38.5701 118.339 38.5601 118.199 38.5601C117.169 38.5601 116.489 39.1201 116.489 40.3601V43.4101H114.619V36.9601H116.409V37.8101C116.869 37.1901 117.629 36.8601 118.629 36.8601L118.619 36.8501Z" fill="white"/>
<path d="M125.409 39.7098V43.3898H123.659V42.5898C123.309 43.1798 122.639 43.4898 121.689 43.4898C120.179 43.4898 119.279 42.6498 119.279 41.5298C119.279 40.4098 120.079 39.5998 122.049 39.5998H123.539C123.539 38.7998 123.059 38.3298 122.049 38.3298C121.369 38.3298 120.659 38.5598 120.189 38.9298L119.519 37.6198C120.229 37.1198 121.269 36.8398 122.299 36.8398C124.269 36.8398 125.409 37.7498 125.409 39.7098V39.7098ZM123.539 41.3498V40.6898H122.259C121.379 40.6898 121.109 41.0098 121.109 41.4398C121.109 41.9098 121.509 42.2198 122.169 42.2198C122.789 42.2198 123.329 41.9298 123.549 41.3398L123.539 41.3498Z" fill="white"/>
<path d="M132.42 41.9502V43.3902H126.66V42.2602L129.95 38.3702H126.75V36.9302H132.31V38.0602L129.02 41.9502H132.41H132.42Z" fill="white"/>
<path d="M140.189 36.9401V42.3101C140.189 44.7101 138.899 45.8101 136.569 45.8101C135.349 45.8101 134.159 45.5101 133.399 44.9201L134.139 43.5801C134.689 44.0201 135.589 44.3101 136.419 44.3101C137.739 44.3101 138.309 43.7101 138.309 42.5501V42.2701C137.819 42.8101 137.109 43.0701 136.269 43.0701C134.479 43.0701 133.039 41.8301 133.039 39.9501C133.039 38.0701 134.479 36.8301 136.269 36.8301C137.169 36.8301 137.909 37.1301 138.399 37.7501V36.9201H140.169L140.189 36.9401ZM138.339 39.9601C138.339 39.0101 137.629 38.3801 136.649 38.3801C135.669 38.3801 134.949 39.0201 134.949 39.9601C134.949 40.9001 135.669 41.5401 136.649 41.5401C137.629 41.5401 138.339 40.9001 138.339 39.9601Z" fill="white"/>
<path d="M141.459 40.1701C141.459 38.2301 142.959 36.8501 145.009 36.8501C147.059 36.8501 148.549 38.2301 148.549 40.1701C148.549 42.1101 147.059 43.4901 145.009 43.4901C142.959 43.4901 141.459 42.1101 141.459 40.1701ZM146.649 40.1701C146.649 39.0501 145.939 38.3801 145.009 38.3801C144.079 38.3801 143.349 39.0501 143.349 40.1701C143.349 41.2901 144.069 41.9601 145.009 41.9601C145.949 41.9601 146.649 41.2901 146.649 40.1701Z" fill="white"/>
<path d="M160.219 40.1698C160.219 42.1998 158.819 43.4898 157.009 43.4898C156.209 43.4898 155.549 43.2398 155.069 42.7098V45.7198H153.199V36.9398H154.989V37.6798C155.459 37.1198 156.149 36.8398 157.019 36.8398C158.829 36.8398 160.229 38.1398 160.229 40.1598L160.219 40.1698ZM158.329 40.1698C158.329 39.0498 157.619 38.3798 156.689 38.3798C155.759 38.3798 155.049 39.0498 155.049 40.1698C155.049 41.2898 155.759 41.9598 156.689 41.9598C157.619 41.9598 158.329 41.2898 158.329 40.1698Z" fill="white"/>
<path d="M167.069 39.7098V43.3898H165.319V42.5898C164.969 43.1798 164.299 43.4898 163.349 43.4898C161.839 43.4898 160.939 42.6498 160.939 41.5298C160.939 40.4098 161.739 39.5998 163.709 39.5998H165.199C165.199 38.7998 164.719 38.3298 163.709 38.3298C163.029 38.3298 162.319 38.5598 161.849 38.9298L161.179 37.6198C161.889 37.1198 162.929 36.8398 163.959 36.8398C165.929 36.8398 167.069 37.7498 167.069 39.7098V39.7098ZM165.199 41.3498V40.6898H163.919C163.039 40.6898 162.769 41.0098 162.769 41.4398C162.769 41.9098 163.169 42.2198 163.829 42.2198C164.449 42.2198 164.989 41.9298 165.209 41.3398L165.199 41.3498Z" fill="white"/>
<path d="M172.77 36.8501V38.5801C172.61 38.5701 172.49 38.5601 172.35 38.5601C171.32 38.5601 170.64 39.1201 170.64 40.3601V43.4101H168.77V36.9601H170.56V37.8101C171.02 37.1901 171.78 36.8601 172.78 36.8601L172.77 36.8501Z" fill="white"/>
<path d="M179.569 39.7098V43.3898H177.819V42.5898C177.469 43.1798 176.799 43.4898 175.849 43.4898C174.339 43.4898 173.439 42.6498 173.439 41.5298C173.439 40.4098 174.239 39.5998 176.209 39.5998H177.699C177.699 38.7998 177.219 38.3298 176.209 38.3298C175.529 38.3298 174.819 38.5598 174.349 38.9298L173.679 37.6198C174.389 37.1198 175.429 36.8398 176.459 36.8398C178.429 36.8398 179.569 37.7498 179.569 39.7098V39.7098ZM177.699 41.3498V40.6898H176.419C175.539 40.6898 175.269 41.0098 175.269 41.4398C175.269 41.9098 175.669 42.2198 176.329 42.2198C176.949 42.2198 177.489 41.9298 177.709 41.3398L177.699 41.3498Z" fill="white"/>
<path d="M190.939 40.7001H186.059C186.239 41.5001 186.919 41.9901 187.909 41.9901C188.589 41.9901 189.089 41.7901 189.529 41.3701L190.529 42.4501C189.929 43.1301 189.029 43.4901 187.869 43.4901C185.639 43.4901 184.189 42.0901 184.189 40.1701C184.189 38.2501 185.669 36.8501 187.629 36.8501C189.589 36.8501 190.989 38.1201 190.989 40.2001C190.989 40.3401 190.969 40.5501 190.949 40.7001H190.939ZM186.029 39.6101H189.209C189.079 38.7901 188.469 38.2701 187.629 38.2701C186.789 38.2701 186.169 38.7901 186.039 39.6101H186.029Z" fill="white"/>
<path d="M192.23 34.4897H194.1V43.3897H192.23V34.4897Z" fill="white"/>
<path d="M201.291 37.0899H202.951V38.5299H201.341V43.3999H199.471V38.5299H198.471V37.0899H199.471V36.7999C199.471 35.3499 200.361 34.3999 201.961 34.3999C202.491 34.3999 203.041 34.5099 203.391 34.7499L202.901 36.1099C202.701 35.9699 202.431 35.8799 202.141 35.8799C201.591 35.8799 201.291 36.1799 201.291 36.8199V37.0999V37.0899Z" fill="white"/>
<path d="M210.38 36.9402V43.3902H208.6V42.6202C208.11 43.1802 207.39 43.4802 206.6 43.4802C204.98 43.4802 203.84 42.5702 203.84 40.5802V36.9302H205.71V40.3002C205.71 41.3802 206.19 41.8602 207.02 41.8602C207.85 41.8602 208.51 41.3102 208.51 40.1202V36.9302H210.38V36.9402Z" fill="white"/>
<path d="M216.289 43.08C215.909 43.36 215.339 43.49 214.769 43.49C213.249 43.49 212.359 42.71 212.359 41.18V38.53H211.359V37.09H212.359V35.52H214.229V37.09H215.839V38.53H214.229V41.16C214.229 41.71 214.529 42.01 215.029 42.01C215.309 42.01 215.579 41.93 215.789 41.77L216.289 43.09V43.08Z" fill="white"/>
<path d="M223.839 36.9402V43.3902H222.059V42.6202C221.569 43.1802 220.849 43.4802 220.059 43.4802C218.439 43.4802 217.299 42.5702 217.299 40.5802V36.9302H219.169V40.3002C219.169 41.3802 219.649 41.8602 220.479 41.8602C221.309 41.8602 221.969 41.3102 221.969 40.1202V36.9302H223.839V36.9402Z" fill="white"/>
<path d="M229.59 36.8501V38.5801C229.43 38.5701 229.31 38.5601 229.17 38.5601C228.14 38.5601 227.46 39.1201 227.46 40.3601V43.4101H225.59V36.9601H227.38V37.8101C227.84 37.1901 228.6 36.8601 229.6 36.8601L229.59 36.8501Z" fill="white"/>
<path d="M230.17 40.1701C230.17 38.2301 231.67 36.8501 233.72 36.8501C235.77 36.8501 237.26 38.2301 237.26 40.1701C237.26 42.1101 235.77 43.4901 233.72 43.4901C231.67 43.4901 230.17 42.1101 230.17 40.1701ZM235.36 40.1701C235.36 39.0501 234.65 38.3801 233.72 38.3801C232.79 38.3801 232.06 39.0501 232.06 40.1701C232.06 41.2901 232.78 41.9601 233.72 41.9601C234.66 41.9601 235.36 41.2901 235.36 40.1701Z" fill="white"/>
</g>
<defs>
<linearGradient id="paint0_linear_622_333" x1="67.1795" y1="39.8902" x2="281.469" y2="39.8902" gradientUnits="userSpaceOnUse">
<stop stop-color="#172765"/>
<stop offset="0.18" stop-color="#2A3473"/>
<stop offset="0.55" stop-color="#5E5698"/>
<stop offset="1" stop-color="#A484CA"/>
</linearGradient>
<linearGradient id="paint1_linear_622_333" x1="-0.000703166" y1="39.8902" x2="70.2593" y2="39.8902" gradientUnits="userSpaceOnUse">
<stop stop-color="#172765"/>
<stop offset="0.17" stop-color="#1B2967"/>
<stop offset="0.33" stop-color="#273170"/>
<stop offset="0.51" stop-color="#3B3F7F"/>
<stop offset="0.68" stop-color="#585293"/>
<stop offset="0.85" stop-color="#7D6AAE"/>
<stop offset="1" stop-color="#A484CA"/>
</linearGradient>
<linearGradient id="paint2_linear_622_333" x1="10.8494" y1="38.4001" x2="52.4594" y2="38.4001" gradientUnits="userSpaceOnUse">
<stop stop-color="#172765"/>
<stop offset="0.18" stop-color="#2A3473"/>
<stop offset="0.55" stop-color="#5E5698"/>
<stop offset="1" stop-color="#A484CA"/>
</linearGradient>
<linearGradient id="paint3_linear_622_333" x1="10.8496" y1="33.6701" x2="26.4696" y2="33.6701" gradientUnits="userSpaceOnUse">
<stop stop-color="#172765"/>
<stop offset="0.18" stop-color="#2A3473"/>
<stop offset="0.55" stop-color="#5E5698"/>
<stop offset="1" stop-color="#A484CA"/>
</linearGradient>
</defs>
</svg>
