<svg width="283" height="81" viewBox="0 0 283 81" fill="none" xmlns="http://www.w3.org/2000/svg">
<path opacity="0.7" d="M282.45 40.875L269.91 62.575H68.1602V61.145L70.0902 60.045C70.8002 59.625 71.2602 58.845 71.2602 57.995V22.495C71.2602 21.645 70.7902 20.865 70.0902 20.445L68.1602 19.345V19.145H269.91L282.45 40.865V40.875Z" fill="url(#paint0_linear_538_708)"/>
<path opacity="0.7" d="M68.02 21.065L37.29 3.315C36.55 2.895 35.65 2.895 34.92 3.315L4.18 21.065C3.44 21.485 3 22.265 3 23.115V58.605C3 59.455 3.46 60.235 4.18 60.655L34.91 78.395C35.65 78.815 36.55 78.815 37.28 78.395L68.01 60.655C68.75 60.235 69.19 59.455 69.19 58.605V23.115C69.19 22.265 68.73 21.485 68.01 21.065H68.02Z" stroke="url(#paint1_linear_538_708)" stroke-width="4.06" stroke-linecap="round" stroke-linejoin="round"/>
<g opacity="0.7">
<path d="M52.4201 25.595C52.7201 25.795 53.1201 25.715 53.3201 25.415C53.4301 25.245 53.4501 25.035 53.4001 24.845L51.4501 18.995C51.3501 18.705 51.0701 18.525 50.7701 18.545L44.2701 19.195C43.9101 19.225 43.6601 19.555 43.6901 19.905C43.7101 20.085 43.8001 20.255 43.9501 20.365L46.0401 21.935L42.0401 27.645H31.9801C31.8001 27.645 31.6201 27.725 31.5001 27.855L11.8301 49.125V58.225L28.9901 39.265L30.4801 46.905C30.6701 47.815 31.4601 48.465 32.4001 48.475H37.6901L35.9001 57.445C35.9001 57.445 35.8901 57.535 35.8901 57.565V60.165H46.2901V56.985L48.2101 48.685L53.0401 39.045C53.3601 38.405 53.3101 37.655 52.9001 37.065L47.6601 29.505L51.0101 24.655L52.4301 25.605V25.585L52.4201 25.595ZM42.0501 43.905V42.605C42.0501 42.245 41.7601 41.955 41.4001 41.955H40.2601C39.4601 41.955 38.8001 41.295 38.8001 40.495V38.715H41.1801L43.3401 40.345V43.925H42.0401L42.0501 43.905ZM42.7001 35.445H38.1501C37.7901 35.445 37.5001 35.735 37.5001 36.095V40.485C37.5001 42.015 38.7401 43.245 40.2601 43.245H40.7501V43.895H34.4201L31.9901 35.985L34.8801 32.845H44.6501L48.1201 38.035L44.6701 42.975V37.395C44.6701 36.315 43.8001 35.445 42.7201 35.445H42.7001V35.445ZM51.8701 38.455L47.0101 48.175C47.0101 48.175 46.9701 48.265 46.9501 48.315L45.0001 56.765C45.0001 56.765 44.9901 56.865 44.9901 56.905H37.3301L39.1201 47.935C39.1901 47.575 38.9601 47.245 38.6101 47.165C38.5701 47.165 38.5201 47.155 38.4901 47.155H32.4101C32.1001 47.155 31.8301 46.935 31.7701 46.635L30.0901 38.055L30.1201 38.015L30.9601 37.105L33.3101 44.745C33.4001 45.015 33.6401 45.205 33.9301 45.205H41.6301L40.7501 50.955V54.305H42.0501V51.105L42.9501 45.195H44.3401C44.5501 45.195 44.7501 45.095 44.8701 44.915L49.4201 38.415C49.5801 38.195 49.5801 37.905 49.4201 37.675L45.7601 32.195L46.8501 30.625L51.8101 37.775C51.9401 37.975 51.9701 38.225 51.8501 38.435H51.8401L51.8701 38.455Z" fill="url(#paint2_linear_538_708)"/>
<path d="M11.8303 44.2249L25.1703 30.2149L26.3303 31.3749C26.5903 31.6349 27.0003 31.6349 27.2503 31.3749C27.3703 31.2549 27.4403 31.0849 27.4403 30.9149V25.7149C27.4403 25.3549 27.1503 25.0649 26.7903 25.0649H21.5903C21.2303 25.0649 20.9403 25.3549 20.9403 25.7149C20.9403 25.8849 21.0103 26.0449 21.1303 26.1749L22.6203 27.6649L11.8303 38.4449V44.2249H11.8203H11.8303Z" fill="url(#paint3_linear_538_708)"/>
</g>
<path d="M274.06 55.6048L270.03 62.5648H205.27L201.25 55.6048L205.27 48.6548H270.03L274.06 55.6048Z" fill="white"/>
<path d="M212.099 54.0947C212.099 55.5147 211.049 56.4047 209.379 56.4047H208.129L207.829 57.9447H206.529L207.649 52.3447H209.909C211.309 52.3447 212.099 52.9947 212.099 54.0847V54.0947ZM210.789 54.2047C210.789 53.6647 210.409 53.4047 209.749 53.4047H208.729L208.339 55.3447H209.439C210.299 55.3447 210.789 54.9447 210.789 54.2047Z" fill="black"/>
<path d="M215.769 53.5847L215.549 54.7347C215.439 54.7347 215.369 54.7147 215.259 54.7147C214.519 54.7147 214.049 55.0547 213.889 55.8647L213.469 57.9447H212.219L213.079 53.6447H214.259L214.159 54.1547C214.539 53.7347 215.069 53.5747 215.769 53.5747V53.5847Z" fill="black"/>
<path d="M215.68 56.085C215.68 54.655 216.77 53.585 218.28 53.585C219.6 53.585 220.45 54.345 220.45 55.515C220.45 56.945 219.37 58.015 217.85 58.015C216.54 58.015 215.68 57.245 215.68 56.085ZM219.18 55.565C219.18 54.985 218.83 54.615 218.2 54.615C217.46 54.615 216.94 55.195 216.94 56.035C216.94 56.615 217.3 56.985 217.92 56.985C218.65 56.985 219.18 56.405 219.18 55.565Z" fill="black"/>
<path d="M223.609 55.795L224.809 57.945H223.489L222.789 56.625L221.549 57.945H220.129L222.279 55.735L221.139 53.645H222.429L223.109 54.905L224.309 53.645H225.689L223.619 55.795H223.609Z" fill="black"/>
<path d="M226.309 53.6448H227.549L226.689 57.9448H225.449L226.309 53.6448ZM226.409 52.3948C226.409 51.9748 226.739 51.6548 227.229 51.6548C227.669 51.6548 227.969 51.9248 227.969 52.2748C227.969 52.7348 227.629 53.0448 227.139 53.0448C226.699 53.0448 226.409 52.7548 226.409 52.3948Z" fill="black"/>
<path d="M235.64 55.035C235.64 55.205 235.62 55.375 235.58 55.565L235.11 57.945H233.86L234.32 55.655C234.34 55.535 234.35 55.435 234.35 55.325C234.35 54.895 234.12 54.665 233.67 54.665C233.09 54.665 232.69 55.005 232.54 55.745L232.1 57.955H230.85L231.31 55.665C231.33 55.545 231.34 55.445 231.34 55.345C231.34 54.905 231.11 54.675 230.66 54.675C230.08 54.675 229.68 55.015 229.52 55.775L229.09 57.965H227.84L228.7 53.665H229.88L229.78 54.115C230.16 53.775 230.63 53.605 231.13 53.605C231.72 53.605 232.21 53.845 232.45 54.305C232.87 53.845 233.43 53.605 234.09 53.605C235.01 53.605 235.63 54.105 235.63 55.065L235.64 55.035Z" fill="black"/>
<path d="M241.519 53.645L240.659 57.945H239.479L239.559 57.525C239.219 57.835 238.769 58.015 238.239 58.015C237.239 58.015 236.389 57.315 236.389 56.085C236.389 54.635 237.439 53.585 238.759 53.585C239.379 53.585 239.879 53.785 240.159 54.235L240.269 53.655H241.519V53.645ZM239.889 55.565C239.889 54.985 239.529 54.615 238.909 54.615C238.169 54.615 237.649 55.195 237.649 56.035C237.649 56.615 238.009 56.985 238.629 56.985C239.369 56.985 239.889 56.405 239.889 55.565Z" fill="black"/>
<path d="M249.599 55.035C249.599 55.205 249.579 55.375 249.539 55.565L249.069 57.945H247.819L248.279 55.655C248.299 55.535 248.309 55.435 248.309 55.325C248.309 54.895 248.079 54.665 247.629 54.665C247.049 54.665 246.649 55.005 246.499 55.745L246.059 57.955H244.809L245.269 55.665C245.289 55.545 245.299 55.445 245.299 55.345C245.299 54.905 245.069 54.675 244.619 54.675C244.039 54.675 243.639 55.015 243.479 55.775L243.049 57.965H241.799L242.659 53.665H243.839L243.739 54.115C244.119 53.775 244.589 53.605 245.089 53.605C245.679 53.605 246.169 53.845 246.409 54.305C246.829 53.845 247.389 53.605 248.049 53.605C248.969 53.605 249.589 54.105 249.589 55.065L249.599 55.035Z" fill="black"/>
<path d="M254.85 56.135H251.56C251.6 56.715 251.96 57.015 252.67 57.015C253.11 57.015 253.53 56.875 253.82 56.615L254.34 57.435C253.84 57.835 253.2 58.015 252.54 58.015C251.2 58.015 250.34 57.255 250.34 56.085C250.34 54.645 251.38 53.585 252.87 53.585C254.13 53.585 254.92 54.325 254.92 55.475C254.92 55.705 254.89 55.935 254.85 56.135V56.135ZM251.64 55.405H253.77C253.77 54.835 253.39 54.515 252.81 54.515C252.23 54.515 251.8 54.865 251.63 55.405H251.64Z" fill="black"/>
<path d="M260.2 55.0449C260.2 55.2049 260.18 55.3849 260.14 55.5649L259.66 57.9449H258.41L258.87 55.6449C258.89 55.5449 258.9 55.4349 258.9 55.3449C258.9 54.9049 258.66 54.6549 258.16 54.6549C257.53 54.6549 257.09 55.0049 256.94 55.7549L256.51 57.9349H255.26L256.12 53.6349H257.3L257.2 54.0949C257.59 53.7349 258.09 53.5649 258.62 53.5649C259.56 53.5649 260.19 54.0749 260.19 55.0249L260.2 55.0449Z" fill="black"/>
<path d="M262.5 56.4248C262.48 56.4848 262.48 56.5448 262.48 56.6048C262.48 56.8648 262.62 57.0248 262.94 57.0248C263.11 57.0248 263.28 56.9648 263.44 56.8748L263.62 57.7648C263.31 57.9548 262.92 58.0248 262.55 58.0248C261.75 58.0248 261.21 57.5748 261.21 56.8248C261.21 56.7048 261.23 56.5748 261.25 56.4448L261.59 54.7048H260.93L261.12 53.7448H261.78L261.99 52.6948H263.24L263.03 53.7448H264.1L263.91 54.7048H262.84L262.5 56.4348V56.4248Z" fill="black"/>
<path d="M268.75 56.135H265.46C265.5 56.715 265.86 57.015 266.57 57.015C267.01 57.015 267.43 56.875 267.72 56.615L268.24 57.435C267.74 57.835 267.1 58.015 266.44 58.015C265.1 58.015 264.24 57.255 264.24 56.085C264.24 54.645 265.28 53.585 266.77 53.585C268.02 53.585 268.82 54.325 268.82 55.475C268.82 55.705 268.79 55.935 268.75 56.135V56.135ZM265.54 55.405H267.67C267.67 54.835 267.29 54.515 266.71 54.515C266.13 54.515 265.7 54.865 265.53 55.405H265.54Z" fill="black"/>
<g opacity="0.7">
<path d="M88.9805 35.9646H90.9205V42.7746H95.1305V44.3546H88.9805V35.9546V35.9646Z" fill="white"/>
<path d="M95.8711 35.9648C95.8711 35.3748 96.3411 34.9248 97.0311 34.9248C97.7211 34.9248 98.1911 35.3548 98.1911 35.9348C98.1911 36.5548 97.7211 37.0148 97.0311 37.0148C96.3411 37.0148 95.8711 36.5548 95.8711 35.9748V35.9648ZM96.1011 37.9048H97.9711V44.3548H96.1011V37.9048Z" fill="white"/>
<path d="M106.28 35.4546V44.3546H104.49V43.6146C104.02 44.1746 103.34 44.4546 102.48 44.4546C100.66 44.4546 99.25 43.1646 99.25 41.1346C99.25 39.1046 100.65 37.8146 102.48 37.8146C103.27 37.8146 103.94 38.0646 104.41 38.5946V35.4646H106.28V35.4546ZM104.45 41.1246C104.45 40.0046 103.73 39.3346 102.81 39.3346C101.89 39.3346 101.15 40.0046 101.15 41.1246C101.15 42.2446 101.87 42.9146 102.81 42.9146C103.75 42.9146 104.45 42.2446 104.45 41.1246Z" fill="white"/>
<path d="M114.301 41.6649H109.421C109.601 42.4649 110.281 42.9549 111.271 42.9549C111.951 42.9549 112.451 42.7549 112.891 42.3349L113.891 43.4149C113.291 44.0949 112.391 44.4549 111.231 44.4549C109.001 44.4549 107.551 43.0549 107.551 41.1349C107.551 39.2149 109.031 37.8149 110.991 37.8149C112.951 37.8149 114.351 39.0849 114.351 41.1649C114.351 41.3049 114.331 41.5149 114.311 41.6649H114.301ZM109.391 40.5749H112.571C112.441 39.7549 111.831 39.2349 110.991 39.2349C110.151 39.2349 109.531 39.7549 109.401 40.5749H109.391Z" fill="white"/>
<path d="M119.59 37.8149V39.5449C119.43 39.5349 119.31 39.5249 119.17 39.5249C118.14 39.5249 117.46 40.0849 117.46 41.3249V44.3749H115.59V37.9249H117.38V38.7749C117.84 38.1549 118.6 37.8249 119.6 37.8249L119.59 37.8149Z" fill="white"/>
<path d="M126.38 40.6747V44.3547H124.63V43.5547C124.28 44.1447 123.61 44.4547 122.66 44.4547C121.15 44.4547 120.25 43.6147 120.25 42.4947C120.25 41.3747 121.05 40.5647 123.02 40.5647H124.51C124.51 39.7647 124.03 39.2947 123.02 39.2947C122.34 39.2947 121.63 39.5247 121.16 39.8947L120.49 38.5847C121.2 38.0847 122.24 37.8047 123.27 37.8047C125.24 37.8047 126.38 38.7147 126.38 40.6747V40.6747ZM124.51 42.3147V41.6547H123.23C122.35 41.6547 122.08 41.9747 122.08 42.4047C122.08 42.8747 122.48 43.1847 123.14 43.1847C123.76 43.1847 124.3 42.8947 124.52 42.3047L124.51 42.3147Z" fill="white"/>
<path d="M133.391 42.915V44.355H127.631V43.225L130.921 39.335H127.721V37.895H133.281V39.025L129.991 42.915H133.381H133.391Z" fill="white"/>
<path d="M141.16 37.9049V43.2749C141.16 45.6749 139.87 46.7749 137.54 46.7749C136.32 46.7749 135.13 46.4749 134.37 45.8849L135.11 44.5449C135.66 44.9849 136.56 45.2749 137.39 45.2749C138.71 45.2749 139.28 44.6749 139.28 43.5149V43.2349C138.79 43.7749 138.08 44.0349 137.24 44.0349C135.45 44.0349 134.01 42.7949 134.01 40.9149C134.01 39.0349 135.45 37.7949 137.24 37.7949C138.14 37.7949 138.88 38.0949 139.37 38.7149V37.8849H141.14L141.16 37.9049ZM139.31 40.9249C139.31 39.9749 138.6 39.3449 137.62 39.3449C136.64 39.3449 135.92 39.9849 135.92 40.9249C135.92 41.8649 136.64 42.5049 137.62 42.5049C138.6 42.5049 139.31 41.8649 139.31 40.9249Z" fill="white"/>
<path d="M142.43 41.1349C142.43 39.1949 143.93 37.8149 145.98 37.8149C148.03 37.8149 149.52 39.1949 149.52 41.1349C149.52 43.0749 148.03 44.4549 145.98 44.4549C143.93 44.4549 142.43 43.0749 142.43 41.1349ZM147.62 41.1349C147.62 40.0149 146.91 39.3449 145.98 39.3449C145.05 39.3449 144.32 40.0149 144.32 41.1349C144.32 42.2549 145.04 42.9249 145.98 42.9249C146.92 42.9249 147.62 42.2549 147.62 41.1349Z" fill="white"/>
<path d="M161.19 41.1347C161.19 43.1647 159.79 44.4547 157.98 44.4547C157.18 44.4547 156.52 44.2047 156.04 43.6747V46.6847H154.17V37.9047H155.96V38.6447C156.43 38.0847 157.12 37.8047 157.99 37.8047C159.8 37.8047 161.2 39.1047 161.2 41.1247L161.19 41.1347ZM159.3 41.1347C159.3 40.0147 158.59 39.3447 157.66 39.3447C156.73 39.3447 156.02 40.0147 156.02 41.1347C156.02 42.2547 156.73 42.9247 157.66 42.9247C158.59 42.9247 159.3 42.2547 159.3 41.1347Z" fill="white"/>
<path d="M168.04 40.6747V44.3547H166.29V43.5547C165.94 44.1447 165.27 44.4547 164.32 44.4547C162.81 44.4547 161.91 43.6147 161.91 42.4947C161.91 41.3747 162.71 40.5647 164.68 40.5647H166.17C166.17 39.7647 165.69 39.2947 164.68 39.2947C164 39.2947 163.29 39.5247 162.82 39.8947L162.15 38.5847C162.86 38.0847 163.9 37.8047 164.93 37.8047C166.9 37.8047 168.04 38.7147 168.04 40.6747V40.6747ZM166.17 42.3147V41.6547H164.89C164.01 41.6547 163.74 41.9747 163.74 42.4047C163.74 42.8747 164.14 43.1847 164.8 43.1847C165.42 43.1847 165.96 42.8947 166.18 42.3047L166.17 42.3147Z" fill="white"/>
<path d="M173.74 37.8149V39.5449C173.58 39.5349 173.46 39.5249 173.32 39.5249C172.29 39.5249 171.61 40.0849 171.61 41.3249V44.3749H169.74V37.9249H171.53V38.7749C171.99 38.1549 172.75 37.8249 173.75 37.8249L173.74 37.8149Z" fill="white"/>
<path d="M180.54 40.6747V44.3547H178.79V43.5547C178.44 44.1447 177.77 44.4547 176.82 44.4547C175.31 44.4547 174.41 43.6147 174.41 42.4947C174.41 41.3747 175.21 40.5647 177.18 40.5647H178.67C178.67 39.7647 178.19 39.2947 177.18 39.2947C176.5 39.2947 175.79 39.5247 175.32 39.8947L174.65 38.5847C175.36 38.0847 176.4 37.8047 177.43 37.8047C179.4 37.8047 180.54 38.7147 180.54 40.6747V40.6747ZM178.67 42.3147V41.6547H177.39C176.51 41.6547 176.24 41.9747 176.24 42.4047C176.24 42.8747 176.64 43.1847 177.3 43.1847C177.92 43.1847 178.46 42.8947 178.68 42.3047L178.67 42.3147Z" fill="white"/>
<path d="M191.91 41.6649H187.03C187.21 42.4649 187.89 42.9549 188.88 42.9549C189.56 42.9549 190.06 42.7549 190.5 42.3349L191.5 43.4149C190.9 44.0949 190 44.4549 188.84 44.4549C186.61 44.4549 185.16 43.0549 185.16 41.1349C185.16 39.2149 186.64 37.8149 188.6 37.8149C190.56 37.8149 191.96 39.0849 191.96 41.1649C191.96 41.3049 191.94 41.5149 191.92 41.6649H191.91ZM187 40.5749H190.18C190.05 39.7549 189.44 39.2349 188.6 39.2349C187.76 39.2349 187.14 39.7549 187.01 40.5749H187Z" fill="white"/>
<path d="M193.201 35.4546H195.071V44.3546H193.201V35.4546Z" fill="white"/>
<path d="M202.261 38.0547H203.921V39.4947H202.311V44.3647H200.441V39.4947H199.441V38.0547H200.441V37.7647C200.441 36.3147 201.331 35.3647 202.931 35.3647C203.461 35.3647 204.011 35.4747 204.361 35.7147L203.871 37.0747C203.671 36.9347 203.401 36.8447 203.111 36.8447C202.561 36.8447 202.261 37.1447 202.261 37.7847V38.0647V38.0547Z" fill="white"/>
<path d="M211.351 37.905V44.355H209.571V43.585C209.081 44.145 208.361 44.445 207.571 44.445C205.951 44.445 204.811 43.535 204.811 41.545V37.895H206.681V41.265C206.681 42.345 207.161 42.825 207.991 42.825C208.821 42.825 209.481 42.275 209.481 41.085V37.895H211.351V37.905Z" fill="white"/>
<path d="M217.26 44.0449C216.88 44.3249 216.31 44.4549 215.74 44.4549C214.22 44.4549 213.33 43.6749 213.33 42.1449V39.4949H212.33V38.0549H213.33V36.4849H215.2V38.0549H216.81V39.4949H215.2V42.1249C215.2 42.6749 215.5 42.9749 216 42.9749C216.28 42.9749 216.55 42.8949 216.76 42.7349L217.26 44.0549V44.0449Z" fill="white"/>
<path d="M224.81 37.905V44.355H223.03V43.585C222.54 44.145 221.82 44.445 221.03 44.445C219.41 44.445 218.27 43.535 218.27 41.545V37.895H220.14V41.265C220.14 42.345 220.62 42.825 221.45 42.825C222.28 42.825 222.94 42.275 222.94 41.085V37.895H224.81V37.905Z" fill="white"/>
<path d="M230.561 37.8149V39.5449C230.401 39.5349 230.281 39.5249 230.141 39.5249C229.111 39.5249 228.431 40.0849 228.431 41.3249V44.3749H226.561V37.9249H228.351V38.7749C228.811 38.1549 229.571 37.8249 230.571 37.8249L230.561 37.8149Z" fill="white"/>
<path d="M231.141 41.1349C231.141 39.1949 232.641 37.8149 234.691 37.8149C236.741 37.8149 238.231 39.1949 238.231 41.1349C238.231 43.0749 236.741 44.4549 234.691 44.4549C232.641 44.4549 231.141 43.0749 231.141 41.1349ZM236.331 41.1349C236.331 40.0149 235.621 39.3449 234.691 39.3449C233.761 39.3449 233.031 40.0149 233.031 41.1349C233.031 42.2549 233.751 42.9249 234.691 42.9249C235.631 42.9249 236.331 42.2549 236.331 41.1349Z" fill="white"/>
</g>
<defs>
<linearGradient id="paint0_linear_538_708" x1="68.1502" y1="40.855" x2="282.44" y2="40.855" gradientUnits="userSpaceOnUse">
<stop stop-color="#172765"/>
<stop offset="0.18" stop-color="#2A3473"/>
<stop offset="0.55" stop-color="#5E5698"/>
<stop offset="1" stop-color="#A484CA"/>
</linearGradient>
<linearGradient id="paint1_linear_538_708" x1="0.97" y1="40.855" x2="71.23" y2="40.855" gradientUnits="userSpaceOnUse">
<stop stop-color="#172765"/>
<stop offset="0.17" stop-color="#1B2967"/>
<stop offset="0.33" stop-color="#273170"/>
<stop offset="0.51" stop-color="#3B3F7F"/>
<stop offset="0.68" stop-color="#585293"/>
<stop offset="0.85" stop-color="#7D6AAE"/>
<stop offset="1" stop-color="#A484CA"/>
</linearGradient>
<linearGradient id="paint2_linear_538_708" x1="11.8201" y1="39.365" x2="53.4301" y2="39.365" gradientUnits="userSpaceOnUse">
<stop stop-color="#172765"/>
<stop offset="0.18" stop-color="#2A3473"/>
<stop offset="0.55" stop-color="#5E5698"/>
<stop offset="1" stop-color="#A484CA"/>
</linearGradient>
<linearGradient id="paint3_linear_538_708" x1="11.8203" y1="34.6349" x2="27.4403" y2="34.6349" gradientUnits="userSpaceOnUse">
<stop stop-color="#172765"/>
<stop offset="0.18" stop-color="#2A3473"/>
<stop offset="0.55" stop-color="#5E5698"/>
<stop offset="1" stop-color="#A484CA"/>
</linearGradient>
</defs>
</svg>
