<svg width="41" height="41" viewBox="0 0 41 41" fill="none" xmlns="http://www.w3.org/2000/svg">
<path d="M13.1398 8.78L13.9798 9.1C14.1298 9.7 14.3698 10.27 14.6798 10.8L14.3198 11.62C14.2098 11.86 14.2698 12.14 14.4498 12.32L15.4198 13.29C15.5998 13.47 15.8798 13.53 16.1198 13.42L16.9398 13.06C17.4698 13.38 18.0398 13.61 18.6398 13.76L18.9598 14.6C19.0498 14.84 19.2898 15.01 19.5498 15.01H20.9198C21.1798 15.01 21.4198 14.85 21.5098 14.6L21.8298 13.76C22.4298 13.61 22.9998 13.37 23.5298 13.06L24.3498 13.42C24.5898 13.53 24.8698 13.47 25.0498 13.29L26.0198 12.32C26.1998 12.14 26.2598 11.86 26.1498 11.62L25.7898 10.8C26.1098 10.27 26.3398 9.7 26.4898 9.1L27.3298 8.78C27.5698 8.69 27.7298 8.45 27.7298 8.19V6.82C27.7298 6.56 27.5698 6.32 27.3298 6.23L26.4898 5.91C26.3398 5.31 26.0998 4.74 25.7898 4.21L26.1498 3.39C26.2598 3.15 26.1998 2.87 26.0198 2.69L25.0498 1.72C24.8698 1.54 24.5898 1.48 24.3498 1.59L23.5298 1.95C22.9998 1.63 22.4298 1.4 21.8298 1.25L21.5098 0.41C21.4198 0.17 21.1798 0 20.9198 0H19.5498C19.2898 0 19.0498 0.16 18.9598 0.41L18.6398 1.25C18.0398 1.4 17.4798 1.64 16.9398 1.95L16.1198 1.59C15.8798 1.48 15.5998 1.54 15.4198 1.72L14.4498 2.69C14.2698 2.87 14.2098 3.15 14.3198 3.39L14.6798 4.21C14.3598 4.74 14.1298 5.31 13.9798 5.91L13.1398 6.23C12.8998 6.32 12.7398 6.56 12.7398 6.82V8.19C12.7398 8.45 12.8998 8.69 13.1398 8.78V8.78ZM13.9998 7.25L14.7398 6.96C14.9398 6.88 15.0898 6.7 15.1398 6.49C15.2698 5.81 15.5298 5.18 15.9198 4.61C16.0398 4.43 16.0598 4.2 15.9698 4L15.6498 3.27L16.0098 2.91L16.7398 3.24C16.9398 3.33 17.1698 3.31 17.3498 3.19C17.9298 2.8 18.5598 2.54 19.2298 2.41C19.4398 2.37 19.6198 2.22 19.6998 2.01L19.9798 1.27H20.4898L20.7798 2.02C20.8598 2.22 21.0398 2.37 21.2498 2.41C21.9198 2.54 22.5598 2.8 23.1298 3.19C23.3098 3.31 23.5398 3.33 23.7398 3.24L24.4798 2.92L24.8398 3.28L24.5198 4.01C24.4298 4.21 24.4498 4.44 24.5698 4.62C24.9498 5.2 25.2198 5.83 25.3498 6.51C25.3898 6.72 25.5398 6.9 25.7398 6.98L26.4798 7.27V7.78L25.7398 8.07C25.5398 8.15 25.3898 8.32 25.3498 8.54C25.2198 9.22 24.9498 9.85 24.5698 10.43C24.4498 10.61 24.4298 10.84 24.5198 11.04L24.8398 11.77L24.4798 12.13L23.7498 11.81C23.5498 11.72 23.3198 11.74 23.1398 11.86C22.5598 12.25 21.9298 12.51 21.2598 12.64C21.0498 12.68 20.8698 12.83 20.7898 13.03L20.4998 13.78H19.9898L19.7098 13.04C19.6298 12.84 19.4498 12.69 19.2398 12.64C18.5698 12.51 17.9298 12.25 17.3598 11.86C17.1798 11.74 16.9498 11.72 16.7498 11.81L16.0198 12.14L15.6598 11.78L15.9798 11.05C16.0698 10.85 16.0498 10.62 15.9298 10.44C15.5398 9.87 15.2798 9.23 15.1498 8.56C15.1098 8.35 14.9598 8.17 14.7598 8.09L14.0198 7.8V7.29L13.9998 7.25ZM20.2398 11.36C22.3698 11.36 24.0998 9.63 24.0998 7.5C24.0998 5.37 22.3698 3.64 20.2398 3.64C18.1098 3.64 16.3798 5.37 16.3798 7.5C16.3798 9.63 18.1098 11.36 20.2398 11.36ZM20.2398 4.9C21.6698 4.9 22.8298 6.06 22.8298 7.5C22.8298 8.94 21.6698 10.1 20.2398 10.1C18.8098 10.1 17.6398 8.94 17.6398 7.5C17.6398 6.06 18.7998 4.9 20.2398 4.9V4.9ZM4.36977 34.61V39.84C4.36977 40.19 4.08977 40.47 3.73977 40.47C3.38977 40.47 3.10977 40.19 3.10977 39.84V34.61C3.10977 34.26 3.38977 33.98 3.73977 33.98C4.08977 33.98 4.36977 34.26 4.36977 34.61ZM16.2398 32.73V39.84C16.2398 40.19 15.9598 40.47 15.6098 40.47C15.2598 40.47 14.9798 40.19 14.9798 39.84V32.73C14.9798 32.38 15.2598 32.1 15.6098 32.1C15.9598 32.1 16.2398 32.38 16.2398 32.73ZM25.4898 32.73V39.84C25.4898 40.19 25.2098 40.47 24.8598 40.47C24.5098 40.47 24.2298 40.19 24.2298 39.84V32.73C24.2298 32.38 24.5098 32.1 24.8598 32.1C25.2098 32.1 25.4898 32.38 25.4898 32.73ZM37.3598 34.61V39.84C37.3598 40.19 37.0798 40.47 36.7298 40.47C36.3798 40.47 36.0998 40.19 36.0998 39.84V34.61C36.0998 34.26 36.3798 33.98 36.7298 33.98C37.0798 33.98 37.3598 34.26 37.3598 34.61ZM36.8898 28.71C35.9198 28.46 34.9398 28.3 33.9498 28.22C35.4098 27.49 36.4398 25.69 36.4398 23.59C36.4398 21.08 34.9298 19.52 32.4998 19.52C30.0698 19.52 28.5598 21.08 28.5598 23.59C28.5598 25.69 29.5998 27.49 31.0598 28.22C30.2098 28.29 29.3498 28.42 28.4998 28.62C27.9198 27.56 26.7198 26.76 25.0198 26.34C23.8698 26.06 22.7298 25.87 21.5898 25.79C23.2698 25.08 24.4898 23.06 24.4898 20.69C24.4898 17.98 22.8598 16.3 20.2498 16.3C17.6398 16.3 15.9998 17.98 15.9998 20.69C15.9998 23.06 17.2098 25.07 18.8898 25.79C17.7398 25.87 16.5898 26.05 15.4598 26.35C13.7398 26.79 12.5498 27.58 11.9798 28.63C11.1298 28.44 10.2698 28.3 9.41977 28.23C10.8798 27.5 11.9198 25.7 11.9198 23.6C11.9198 21.09 10.4098 19.53 7.97977 19.53C5.54977 19.53 4.03977 21.09 4.03977 23.6C4.03977 25.7 5.06977 27.5 6.52977 28.23C5.53977 28.31 4.55977 28.47 3.58977 28.72C1.27977 29.32 0.00976562 30.59 0.00976562 32.31V39.86C0.00976562 40.21 0.289766 40.49 0.639766 40.49C0.989766 40.49 1.26977 40.21 1.26977 39.86V32.31C1.26977 30.92 2.69977 30.26 3.90977 29.95C6.41977 29.3 8.99977 29.27 11.6098 29.84C11.5998 29.96 11.5898 30.09 11.5898 30.22V39.86C11.5898 40.21 11.8698 40.49 12.2198 40.49C12.5698 40.49 12.8498 40.21 12.8498 39.86V30.22C12.8498 28.66 14.4398 27.92 15.7798 27.58C18.6998 26.83 21.6998 26.83 24.7198 27.58C25.8098 27.85 27.6398 28.56 27.6398 30.22V39.86C27.6398 40.21 27.9198 40.49 28.2698 40.49C28.6198 40.49 28.8998 40.21 28.8998 39.86V30.22C28.8998 30.09 28.8998 29.97 28.8798 29.84C31.4798 29.27 34.0698 29.3 36.5798 29.95C37.7798 30.26 39.2198 30.92 39.2198 32.31V39.86C39.2198 40.21 39.4998 40.49 39.8498 40.49C40.1998 40.49 40.4798 40.21 40.4798 39.86V32.31C40.4798 30.59 39.2098 29.32 36.8898 28.72V28.71ZM5.29977 23.58C5.29977 21.14 6.96977 20.77 7.96977 20.77C8.96977 20.77 10.6398 21.13 10.6398 23.58C10.6398 25.63 9.43977 27.29 7.96977 27.29C6.49977 27.29 5.29977 25.62 5.29977 23.58V23.58ZM17.2498 20.68C17.2498 17.96 19.1198 17.55 20.2298 17.55C21.3398 17.55 23.2098 17.96 23.2098 20.68C23.2098 22.95 21.8698 24.8 20.2298 24.8C18.5898 24.8 17.2498 22.95 17.2498 20.68ZM29.8198 23.58C29.8198 21.14 31.4898 20.77 32.4898 20.77C33.4898 20.77 35.1598 21.13 35.1598 23.58C35.1598 25.63 33.9598 27.29 32.4898 27.29C31.0198 27.29 29.8198 25.62 29.8198 23.58Z" fill="white"/>
</svg>
