<?xml version="1.0" encoding="UTF-8"?><svg id="Capa_2" xmlns="http://www.w3.org/2000/svg" viewBox="0 0 196.81 234.48"><defs><style>.cls-1,.cls-2{fill:#fff;}.cls-2{fill-rule:evenodd;}.cls-3{opacity:.02;}</style></defs><g id="Diseño_web_final"><g class="cls-3"><g><path class="cls-2" d="M124.62,51.57c7.31-9.79,11.6-18.44,12.87-25.92-6.74,7.77-11.03,16.41-12.87,25.92m31.77-12.6c14.18-6.76,22.28-3.88,24.3,8.64,2.66-15.8-7.42-21.2-30.24-16.2,1.92,1.94,3.9,4.46,5.94,7.56Zm-12.31,6.08c16.55-.39,23.57,6.5,21.06,20.7-4.71-12.62-11.73-19.52-21.06-20.7Zm20.14,24.61c10.17,6.46,21.59,24.47,22.68,37.08-1.92-5.13-4.92-9.2-9-12.24,5.44,15.23,6.1,32.87,1.98,52.93,3.04-23.36-2.18-49.28-15.66-77.77Zm-6.84,76.51c-16.58-21.89,8-35.96-2.16-64.99,19.1,24.04-7.23,44.75,2.16,64.99Zm-5.94,26.47c3.01-2.78,7.09-7.55,12.24-14.31-3.47,12.07-9.18,22.15-17.1,30.25,2.21-7.45,2.48-17.08,.81-28.89-1.8,3.35-7.32,9.68-16.56,18.99,7.26-10.75,12.57-19.57,15.94-26.47,3.24,2.12,4.8,8.93,4.68,20.43Zm-44.24,18.85c-1.01-18.02,17.55-16.67,22.66-36.23,1.6,20.12-20.35,21.75-22.66,36.23Zm6.09-147.12c4.6-4.7,5.5-12.38,2.7-23.05-1.66,9.39-2.56,17.07-2.7,23.05Zm-13.5,118.99v67.36h.03c.29,0,.57,.03,.85,.09,1.95-9.58,4.15-16.95,6.6-22.12,5.6-8.71,11.78-18.73,18.54-30.07-.51,4.99-2.79,11.47-6.84,19.44,7.57-1.82,15.97-10.52,25.2-26.1-1.62,12.81-6.42,24.1-14.4,33.84,19.14-5.8,33.3-25.42,42.49-58.87,1.42,8.67,.82,20.91-1.8,36.73,13.06-15.78,19.21-38.22,18.45-67.33,2.8,2.87,5.14,6.8,7.02,11.79,1.95-17.05-2.73-34.93-14.04-53.65,4.7,1.85,9.68,5.31,14.94,10.35-3.61-8.94-9.88-16.17-18.81-21.69,3.2-2.92,5.27-5.83,6.21-8.73,10.17-21.02-4.77-34.01-34.83-27.64-4.95-.04-12.63-5.44-23.04-16.2,.53,2.94,2.06,6.57,4.59,10.89-3.91-2.04-9.07-6.99-15.49-14.85,0,3.46,.97,7.21,2.88,11.25-8.32-3.79-14.5-7.77-18.54-16.28V62.33c1.45,.63,2.8,.71,4.1,.37,2.12-.57,2.78-38.28,3.2-35.37,1.13,7.74,3.01,46.77,16.25,11.32-1.08,8.59-3.28,16.13-6.59,22.63,5.42,.04,17.01-14.1,19.55-18.97,2.55,8.21-2.91,16.59-4.78,19.25,7.66-2.49,13.28-3.24,16.84-2.27,6.61,.98,8.48,4.92,5.62,11.81,.58-4.58-.83-6.63-4.22-6.15-4.99,.12-8.83,1.75-11.52,4.89-2.86,4.51-3.18,7.61-.96,9.31,2.53,1.69,4.42,4.82,5.66,9.41,1.28,5.47,2.72,9.72,4.32,12.77,.56,5.21-4.65,13.79-15.65,25.73-3.94-1.79-6.44-3.94-7.49-6.43-.5,2.69,.81,6.31,3.94,10.85,2.65,6.63,2.78,10.96,.38,12.96-4.79,4.91-9.55,6.93-14.3,6.05-5.46-1.17-9.37-3.12-11.71-5.86,2.83-5.47,7.09-8.19,12.77-8.16,4.94,.03,6.96-1.83,6.05-5.57-1.54-5.74-4.49-11.83-8.83-18.24,1.22,5.33,2.43,10.13,3.65,14.4,.3,2.55-.72,2.68-3.07,.39-1.53-1.27-3.98-1.16-7.34,.34-1.91,.53-3.86,.81-5.87,.87v26.58c6.03,.01,11.44,.39,16.24,1.12,1.96,2.5,1.42,6.69-1.63,12.58-5.12-3.89-9.99-5.74-14.61-5.56Zm21.52-67.11c3.91,2.83,7.25,2.77,10.03-.19,1.94-1.34,3.28-2.94,4.03-4.8,2.08-.3,3.69-.06,4.85,.72,.36-.78,.33-1.69-.07-2.45-.41-.76-1.14-1.29-1.99-1.44-8.51-.41-15.09-.45-19.73-.1-3.49-.02-5.17,1.59-5.04,4.85-.43,6.4-.59,11.15-.48,14.25,1.78-4.3,3.03-8,3.74-11.09,1.26-1.42,2.81-1.34,4.66,.24Z"/><path class="cls-1" d="M97.51,155.87c.35,1.44,1.64,2.5,3.18,2.5,1.81,0,3.27-1.47,3.27-3.28s-1.46-3.27-3.27-3.27c-.1,0-.21,0-.31,.02v-6.88c.09-.29,.14-.61,.14-.93s-.05-.63-.14-.92v-11.66c.1,0,.2,.01,.31,.01,1.81,0,3.27-1.46,3.27-3.27v-.02c-.21,.04-.43,.07-.66,.1-.76,.12-1.52,.17-2.29,.09-.69-.07-1.38-.17-2.07-.28-.19,0-.38-.03-.57-.08-.11-.01-.22-.03-.33-.05-.24,0-.47-.03-.69-.08-.19-.03-.39-.06-.58-.08-.9-.14-1.78-.32-2.65-.56-.86-.38-1.67-.68-2.42-.88-.77-.21-1.48-.33-2.13-.36-.69-.03-1.31,.04-1.87,.2-.57,.17-1.08,.44-1.53,.81l-.04,.03c-.54,.53-1,.92-1.36,1.17-.31,.21-.54,.31-.67,.29l-.03-.17c-.04-.25-.04-.62,.02-1.11,.31-1.07,.61-2.17,.91-3.29,.3-1.13,.61-2.3,.91-3.49,.22-.87,.45-1.78,.69-2.75,1.47-.15,2.63-1.4,2.63-2.92,0-.92-.41-1.73-1.07-2.27l2.09-2.31c.61,.33,1.3,.52,2.04,.52,2.36,0,4.28-1.92,4.28-4.29,0-2.19-1.65-4-3.77-4.25,0-.31-.02-.63-.04-.95-.04-1.21-.1-2.5-.17-3.89-.07-1.41-.16-2.9-.27-4.48,.03-.88-.06-1.66-.28-2.33-.23-.69-.58-1.28-1.07-1.75-.49-.47-1.09-.81-1.82-1.04-.7-.22-1.52-.33-2.45-.32-.73-.05-1.52-.1-2.38-.14-.21-.01-.43-.01-.65-.02-.11-.41-.33-.79-.63-1.08l7.25-10c.32,.1,.65,.15,1,.15,.32,0,.64-.04,.93-.13l4.87,7.14c-.54,.58-.87,1.36-.87,2.22,0,1.69,1.29,3.1,2.95,3.26h0c.42,.04,.81-.01,1.22-.1h0c1.38-.39,2.38-1.66,2.38-3.16s-1-2.76-2.38-3.14V23.52c1.55-.21,2.74-1.54,2.74-3.14s-1.19-2.92-2.74-3.14V4.52c.59-.46,.97-1.18,.97-1.99,0-1.4-1.13-2.53-2.53-2.53s-2.53,1.13-2.53,2.53c0,.46,.12,.89,.34,1.27-1.4,2.17-2.97,4.15-4.72,5.92-2.33,2.37-4.98,4.39-7.95,6.06-.26-.27-.58-.49-.94-.62,.05-.13,.09-.27,.14-.4,.31-.88,.58-1.74,.8-2.6,.24-.94,.42-1.87,.54-2.79,1.06-.3,1.84-1.28,1.84-2.44,0-1.4-1.13-2.53-2.53-2.53s-2.52,1.13-2.52,2.53c0,.56,.19,1.08,.5,1.5-.93,1.11-1.85,2.14-2.72,3.11-1.09,1.2-2.13,2.31-3.13,3.3-.31-.13-.65-.21-1.01-.21-1.4,0-2.53,1.13-2.53,2.53,0,.29,.05,.57,.14,.82-.22,.19-.43,.36-.65,.52-.55,.45-1.09,.85-1.6,1.2,.27-.51,.53-1,.77-1.49,.43-.85,.81-1.68,1.15-2.49,.39-.93,.72-1.82,.98-2.65,0-.02,.02-.04,.03-.06,.06,0,.12,0,.18,0,1.4,0,2.53-1.13,2.53-2.53s-1.13-2.53-2.53-2.53-2.53,1.13-2.53,2.53c0,.45,.12,.88,.33,1.25-1.95,1.97-3.81,3.73-5.56,5.3-1.41,1.26-2.74,2.4-4.02,3.41-.46-.46-1.09-.74-1.79-.74-1.4,0-2.53,1.13-2.53,2.53,0,.39,.09,.77,.26,1.1-1.22,.77-2.36,1.38-3.41,1.83-.49,.21-.95,.39-1.4,.54-.47-1.08-1.55-1.84-2.8-1.84s-2.24,.7-2.74,1.72c-2.81-.49-5.48-.8-8-.95-.24-1.46-1.5-2.57-3.02-2.57s-2.77,1.1-3.01,2.55c-4.75,.27-8.81,1.24-12.07,2.81-1.24,.6-2.37,1.29-3.37,2.06-1.02,.77-1.92,1.63-2.69,2.57-.59,.71-1.11,1.47-1.55,2.28-.21-.05-.43-.07-.65-.07-1.69,0-3.06,1.37-3.06,3.06,0,1.27,.78,2.37,1.89,2.83-.21,1.87-.14,3.87,.24,6,.47,2.65,1.42,5.49,2.86,8.48,.24,.75,.56,1.49,.95,2.24,.39,.75,.85,1.5,1.38,2.25,.49,.7,1.06,1.4,1.69,2.1,.18,.21,.38,.42,.58,.63-.11,.31-.17,.64-.17,1s.06,.69,.17,.99c-3.81,2.57-7.1,5.47-9.87,8.71-2.33,2.73-4.29,5.7-5.88,8.9-.11-.01-.23-.02-.35-.02-1.8,0-3.25,1.45-3.25,3.24,0,.99,.45,1.88,1.14,2.47l-.05,.1,.08-.07c.56,.47,1.28,.74,2.07,.74,1.79,0,3.24-1.45,3.24-3.25,0-.7-.22-1.36-.6-1.89,.38-.33,.75-.65,1.12-.96,1.26-1.05,2.51-2,3.75-2.86,1.1-.76,2.18-1.44,3.24-2.04,.59-.33,1.17-.63,1.75-.92,.06,.08,.12,.15,.19,.22-5.12,8.82-8.76,17.45-10.94,25.9-2.08,8.08-2.81,15.99-2.2,23.74-1.31,.42-2.26,1.64-2.26,3.09,0,1.79,1.45,3.25,3.24,3.25s3.25-1.45,3.25-3.25c0-1.31-.77-2.42-1.88-2.94,.62-1.4,1.26-2.71,1.96-3.91,.82-1.41,1.69-2.68,2.63-3.82,.08,.08,.17,.15,.26,.22-.09,6.62,.17,12.89,.8,18.8,.21,1.99,.47,3.95,.77,5.86-.51,.42-.83,1.06-.83,1.77,0,1,.63,1.85,1.51,2.18,.52,2.77,1.14,5.45,1.85,8.04,1.55,5.65,3.53,10.89,5.96,15.7,1.99,3.97,4.29,7.64,6.87,11.04-.6,.59-.98,1.42-.98,2.33,0,1.79,1.45,3.25,3.25,3.25s3.24-1.46,3.24-3.25-1.4-3.19-3.14-3.25c-.47-2.99-.86-5.84-1.17-8.57-.4-3.5-.68-6.77-.83-9.81-.14-2.75-.17-5.32-.1-7.71,.04-1.28,.11-2.5,.21-3.68,.17,.04,.33,.07,.51,.08,2.06,6.93,4.35,13.22,6.87,18.89,2.88,6.47,6.05,12.11,9.53,16.93,3.58,4.96,7.47,9.04,11.69,12.26,2.62,2,5.38,3.67,8.25,4.99,0,.05,0,.11,0,.17,0,2.56,2.07,4.63,4.62,4.63s4.63-2.07,4.63-4.63-2.07-4.63-4.63-4.63c-.83,0-1.6,.22-2.28,.6-.58-.86-1.14-1.72-1.68-2.6-1.58-2.6-2.97-5.3-4.15-8.1-1.11-2.6-2.05-5.29-2.81-8.05-.62-2.24-1.13-4.53-1.52-6.87,1.89,3.05,3.74,5.82,5.56,8.3,2.1,2.87,4.17,5.34,6.18,7.43,2.13,2.21,4.22,3.99,6.27,5.33,1.13,.75,2.27,1.36,3.37,1.83-.01,.09-.02,.18-.02,.27,0,1.47,1.19,2.65,2.65,2.65s2.65-1.18,2.65-2.65-1.19-2.64-2.65-2.64c-.16,0-.31,.01-.47,.04-.55-1.14-1.06-2.24-1.53-3.31-.78-1.79-1.46-3.49-2.03-5.1-.47-1.33-.86-2.59-1.18-3.79-.09-.36-.18-.71-.26-1.06,.05-.02,.1-.03,.15-.05,1.13,1.88,2.25,3.74,3.36,5.59,1.53,2.52,3.01,4.94,4.44,7.26,1.56,2.53,3.07,4.95,4.53,7.27,1.48,2.35,2.91,4.61,4.3,6.76,.69,1.46,1.36,3.11,2.02,4.94,.66,1.84,1.3,3.86,1.92,6.06,.61,2.18,1.21,4.53,1.78,7.05-1.06,.74-1.76,1.97-1.76,3.36,0,2.26,1.83,4.09,4.09,4.09s4.09-1.83,4.09-4.09c0-2.06-1.52-3.77-3.5-4.05v-16.48c1.98-.29,3.5-1.99,3.5-4.05s-1.52-3.77-3.5-4.05v-35.14c.1,0,.2,.02,.31,.02,1.81,0,3.27-1.47,3.27-3.27s-1.46-3.28-3.27-3.28c-1.62,0-2.96,1.18-3.23,2.73-.43,.04-.87,.1-1.31,.17-1.23,.22-2.46,.56-3.72,1.04-1.09,.42-2.2,.94-3.32,1.55-.17,.09-.33,.19-.51,.28-.21-.33-.47-.63-.76-.9l3.06-6.02c.14,.02,.28,.03,.43,.03,1.54,0,2.78-1.25,2.78-2.78,0-.08,0-.16,0-.24,.59-.03,1.19-.05,1.78-.07,.53-.02,1.07-.02,1.61-.03Zm-12.8-35.76c-.3,1.2-.61,2.36-.91,3.49-.3,1.14-.61,2.25-.91,3.3l-.02,.09c-.09,.78-.06,1.38,.08,1.82,.18,.52,.51,.81,.99,.87,.38,.05,.83-.09,1.36-.42,.48-.3,1.03-.75,1.67-1.37,.31-.26,.67-.44,1.09-.56,.43-.12,.91-.17,1.45-.15,.57,.03,1.2,.14,1.88,.33,.69,.19,1.45,.47,2.26,.83l.09,.03c.94,.26,1.89,.46,2.84,.61,.2,.03,.41,.06,.61,.09,.02,0,.03,0,.05,0,.06,0,.13,.01,.19,.02,0,0,.02,0,.03,0l.66,.07c.07,0,.13,.02,.19,.04,.3,.05,.57,.1,.74,.4,.13,.23,.12,.56,.12,.81,0,.18,0,.36,0,.55,0,.02,0,.03,0,.05,0,.01,0,.02,0,.03,0,.01,0,.03,0,.04h0v10.29c-.54-.39-1.2-.62-1.91-.62-.59,0-1.14,.16-1.61,.44-.15-.19-.3-.37-.45-.54-.92-1.07-1.94-1.95-3.06-2.67-1.11-.72-2.32-1.25-3.62-1.6-1.29-.35-2.68-.52-4.16-.51-1.17,0-2.16-.09-2.97-.31-.78-.2-1.39-.5-1.83-.9-.41-.38-.67-.86-.78-1.44-.12-.61-.07-1.32,.13-2.15,.38-1.42,.85-2.86,1.4-4.31,.55-1.46,1.2-2.94,1.93-4.45,.63-1.31,1.34-2.64,2.1-3.98,.19-.33,.39-.66,.59-1,.14,.08,.3,.14,.46,.2-.21,.85-.43,1.71-.65,2.59Zm3.27-13.72c0,1.19,.48,2.26,1.26,3.04l-1,1.1-1.23,1.37c-.24-.06-.49-.09-.74-.09-1.62,0-2.93,1.31-2.93,2.93,0,.67,.23,1.3,.61,1.79-.12,.2-.24,.39-.35,.59-.91,1.57-1.74,3.12-2.49,4.66-.74,1.54-1.4,3.05-1.97,4.56-.57,1.5-1.05,2.97-1.44,4.42v.03c-.26,1.03-.3,1.94-.14,2.73,.17,.81,.55,1.5,1.14,2.04,.57,.53,1.34,.92,2.29,1.17,.93,.25,2.05,.37,3.34,.36,1.36-.01,2.64,.15,3.83,.47,1.18,.32,2.28,.8,3.29,1.45,1,.64,1.91,1.43,2.75,2.39,.17,.19,.33,.38,.49,.58-.46,.56-.73,1.27-.73,2.05s.27,1.48,.71,2.04c-.02,.02-.04,.03-.07,.05-.73,.54-1.55,1.04-2.46,1.49-.95,.47-1.99,.91-3.14,1.29-1.15,.38-2.39,.72-3.73,1-1.12,.21-2.25,.24-3.37,.11-1.13-.14-2.27-.44-3.4-.92-1.15-.48-2.3-1.15-3.46-1.99-1.17-.84-2.34-1.86-3.5-3.07l-.04-.04c-.52-.43-.9-1-1.15-1.7-.25-.72-.36-1.57-.33-2.56,.03-1.03,.21-2.22,.55-3.54,.34-1.33,.83-2.8,1.47-4.4,.78-1.14,1.45-2.22,2.01-3.25,.56-1.04,1.02-2.02,1.35-2.95,.26-.72,.45-1.4,.58-2.06,1.63-.19,2.88-1.58,2.88-3.26,0-1.81-1.47-3.28-3.27-3.28s-3.27,1.47-3.27,3.28c0,.96,.41,1.82,1.06,2.42-.3,.33-.64,.66-1.01,.97-.54,.47-1.16,.92-1.85,1.35-.17,.11-.34,.22-.53,.33-.49-.59-1.24-.97-2.06-.97-.48,0-.92,.13-1.31,.35-.9-1-1.76-1.99-2.56-2.93-.87-1.03-1.7-2.03-2.47-3,.4-.47,.64-1.08,.64-1.75,0-.35-.07-.68-.19-.98l13.46-16.12c.21,.07,.43,.09,.66,.09,.83,0,1.56-.43,1.96-1.09,.07,0,.14,0,.2,0,.91,.02,1.85-.16,2.82-.53,.97-.37,1.96-.92,2.98-1.66l.04-.03c.42-.35,.81-.63,1.18-.81,.36-.17,.69-.27,1-.29,.28-.02,.55,.03,.8,.16,.25,.11,.48,.29,.71,.53,.18,.74,.38,1.52,.62,2.34,.25,.85,.52,1.73,.83,2.65,.17,.51,.35,1.03,.55,1.55-1.14,.77-1.88,2.07-1.88,3.54Zm-41.5,30.49l-15.08,7.38c-.39-.42-.86-.77-1.39-1l14.11-25.87c.13,.05,.26,.09,.4,.11l.7,3.97c.72,4.08,1.44,8.17,2.21,12.45-.65,.49-1.08,1.26-1.08,2.14,0,.28,.05,.56,.13,.81Zm-.72-19.43c.72-.2,1.32-.69,1.66-1.34l9.55,1.64c.31,1.13,1.35,1.95,2.57,1.95,.37,0,.72-.07,1.04-.21,.77,.96,1.58,1.95,2.45,2.97,.85,.99,1.74,2.02,2.68,3.07-.29,.43-.46,.94-.46,1.49,0,.22,.03,.43,.08,.63l-14.09,6.89c-.48-.7-1.29-1.17-2.21-1.17-.15,0-.3,.02-.44,.04l-2.83-15.98Zm5.94,18.61c0-.13,0-.25-.02-.37l14.2-6.94c.21,.26,.48,.47,.77,.63l-6.38,22.85c-.43,.09-.84,.28-1.19,.53l-8.73-14.37c.81-.46,1.35-1.33,1.35-2.33Zm16.13-6.36s.06,0,.09,0c1.47,0,2.67-1.2,2.67-2.68,0-.21-.02-.41-.07-.6,.16-.09,.31-.19,.45-.28,.81-.5,1.54-1.02,2.17-1.57,.47-.41,.9-.82,1.27-1.24,.1,.04,.21,.07,.31,.1-.11,.55-.28,1.12-.5,1.72-.32,.88-.75,1.82-1.29,2.81-.54,1-1.2,2.06-1.97,3.17l-.04,.05-.03,.07c-.67,1.69-1.19,3.23-1.54,4.63-.36,1.41-.56,2.67-.59,3.8-.04,1.16,.1,2.18,.42,3.04,.32,.87,.81,1.59,1.47,2.16,1.22,1.25,2.44,2.32,3.66,3.2,1.1,.8,2.21,1.45,3.32,1.95l-13.9,3.76c-.46-.81-1.28-1.41-2.23-1.59l6.29-22.51Zm15.82-41.26c1.05,.04,2.04,.09,2.96,.15h.05c.8,0,1.49,.08,2.08,.26,.56,.17,1.02,.42,1.37,.77,.35,.33,.61,.76,.77,1.28,.17,.54,.24,1.17,.21,1.91v.06c.11,1.62,.2,3.12,.27,4.49,.07,1.4,.13,2.68,.17,3.85,0,.32,.02,.64,.03,.95-.2,.03-.4,.08-.59,.14-.17-.48-.34-.95-.49-1.41-.31-.92-.59-1.8-.83-2.63-.24-.83-.45-1.63-.63-2.4l-.04-.16-.1-.11c-.38-.42-.78-.74-1.21-.94-.44-.21-.9-.3-1.39-.27-.46,.02-.94,.15-1.43,.39-.47,.22-.96,.55-1.46,.98-.93,.67-1.82,1.17-2.66,1.49-.8,.31-1.56,.46-2.28,.46,0-1.27-1.03-2.3-2.3-2.3-.61,0-1.16,.24-1.57,.62-.13-.12-.27-.26-.4-.4l-.05-.05-.06-.04c-.46-.32-.89-.65-1.28-1-.39-.35-.74-.71-1.06-1.09-.32-.38-.6-.77-.84-1.17-.25-.41-.46-.83-.63-1.26l-.23-.19-.28-.11c-.57-.02-.81-.05-1.53-.04-1.57,0-2.33-.11-2.75-.19-.09-.13-.11-.27-.09-.42,0-.06,0-.13,.03-.18,.02-.09,.07-.16,.13-.22,.06-.09,.12-.18,.19-.27,.11-.12,.24-.35,.37-.45,.13-.09,.23-.16,.45-.19,.15-.02,.26-.03,.43-.06,2.12-.1,4.11-.19,5.97-.24,1.88-.05,3.64-.09,5.27-.09,.32,0,.64,0,.96,0,.25,1,1.15,1.74,2.23,1.74s1.94-.7,2.22-1.66Zm8.51-18.57c-.28-.08-.58-.12-.88-.12-.61,0-1.17,.17-1.65,.46l-5.48-8.04c.56-.47,.91-1.17,.91-1.95,0-1.4-1.13-2.53-2.53-2.53-.24,0-.46,.04-.68,.1-.25-.6-.5-1.2-.75-1.81-.68-1.74-1.29-3.54-1.83-5.4-.44-1.52-.84-3.08-1.2-4.71-.14-.65-.28-1.31-.4-1.98,1.57,3.61,2.98,6.1,4.24,7.69,1.66,2.08,3.12,2.65,4.4,2.17,2.08-.78,3.46-4.54,4.42-9.07,.75-3.51,1.25-7.5,1.62-10.88l.07,1.63c.23,4.96,.52,11.32,.94,16.65,.23,3.03,.51,5.76,.85,7.75-.59,.46-.98,1.18-.98,1.99,0,.93,.51,1.76,1.27,2.19l-2.33,5.85Zm-11.8-33.37l9.6-6.68c.43,.39,.94,.68,1.51,.84-.02,.16-.04,.32-.06,.48v.03c-.4,3.7-.94,8.78-1.83,13.09-.87,4.24-2.06,7.73-3.71,8.34-.91,.34-2.06-.3-3.51-2.35-1.29-1.82-2.76-4.71-4.47-8.94,1.52-.62,2.58-2.11,2.58-3.84,0-.34-.04-.66-.11-.97Zm18.79,45.76c-.38,.04-.76,.15-1.09,.31l-4.76-6.97c.76-.6,1.25-1.54,1.25-2.58s-.51-2.01-1.3-2.61l2.41-6.06s.05,0,.08,0c.76,0,1.43-.33,1.9-.85,.02,0,.04,0,.06,0,.31-.03,.62-.07,.95-.15,.17-.04,.33-.08,.5-.14v19.05Zm0-20.33c-.23,.08-.46,.15-.68,.21-.07,.02-.15,.04-.22,.05,.01-.12,.02-.24,.02-.36,0-1.4-1.13-2.53-2.53-2.53-.19,0-.37,.02-.55,.06-.21-1.69-.42-4.05-.61-6.73-.4-5.45-.71-12.11-.94-17.25v-.03c-.08-1.77-.16-3.36-.23-4.67,1.62-.41,2.82-1.89,2.82-3.64,0-.76-.22-1.46-.61-2.05l2.21-2.25c.37,.33,.83,.58,1.32,.71V61.93Zm-14.49-44.41c0-.23-.03-.46-.09-.67,2.86-1.61,5.42-3.54,7.71-5.77,1.95-1.9,3.69-4.03,5.23-6.39,.38,.23,.83,.37,1.31,.37,.11,0,.22,0,.33-.02v12.28c-1.36,.35-2.38,1.59-2.38,3.06,0,.49,.12,.96,.32,1.37l-2.3,2.34c-.64-.5-1.45-.81-2.32-.81-1.02,0-1.93,.41-2.61,1.06l-5.96-5.02c.47-.46,.75-1.1,.75-1.8Zm-7.19-.35c0-.59-.2-1.13-.54-1.56,.91-.91,1.85-1.91,2.82-2.98,.96-1.05,1.95-2.18,2.99-3.4,.17,.09,.36,.15,.55,.19-.01,.05-.02,.1-.03,.16-.11,.76-.27,1.52-.47,2.29-.24,.92-.53,1.86-.88,2.81-.04,.11-.08,.23-.12,.34-1.23,.17-2.18,1.22-2.18,2.5,0,.52,.16,1.01,.43,1.41l-.08,.17,.16-.07c.46,.62,1.19,1.01,2.02,1.01,.22,0,.44-.03,.65-.08l6.37,5.36c-.27,.52-.43,1.09-.43,1.71,0,.66,.18,1.28,.47,1.82l-9.31,6.48c-.71-1.17-1.98-1.98-3.44-2.02l-.95-13.69c1.13-.26,1.97-1.26,1.97-2.47Zm-15.2,4.34c1.26-.98,2.57-2.1,3.96-3.33,1.82-1.63,3.77-3.48,5.82-5.55,0,0,.01,.01,.02,.02-.06,.19-.12,.38-.19,.58-.22,.65-.48,1.34-.78,2.04-.37,.89-.81,1.83-1.32,2.81-.5,.98-1.06,2.01-1.69,3.08l-1.07,1.83,1.88-.98c.86-.45,1.77-1.02,2.73-1.74,.51-.38,1.05-.79,1.59-1.24,.29,.27,.65,.47,1.04,.58l.97,13.87c-.83,.23-1.56,.71-2.09,1.35l-11.33-10.99c.36-.44,.57-.99,.57-1.6,0-.26-.04-.5-.11-.73Zm-1.45,3.07l11.68,11.32c-.2,.49-.32,1.02-.32,1.58,0,2.19,1.7,3.98,3.85,4.14,.19,1.17,.39,2.32,.62,3.44,.41,2.02,.89,3.97,1.44,5.86,.53,1.83,1.13,3.59,1.79,5.29,.29,.74,.59,1.47,.9,2.19-.37,.36-.63,.83-.73,1.35-.33-.19-.68-.4-1.03-.63-1.45-.97-3.03-2.32-4.62-3.86-2.14-2.08-4.27-4.49-6.09-6.75-1.13-1.4-2.12-2.75-2.93-3.92,.46-.46,.74-1.09,.74-1.79,0-1.4-1.13-2.53-2.52-2.53-.03,0-.06,0-.1,0l-2.81-15.64s.09-.04,.13-.06Zm-10.46,5.4c1.5-.19,2.66-1.48,2.66-3.04v-.03c.53-.16,1.06-.37,1.62-.61,1.15-.5,2.4-1.16,3.73-2.01,.32,.23,.69,.39,1.1,.45l2.86,15.87c-.73,.43-1.23,1.21-1.26,2.1l-10.87,5.43c-.47-.71-1.2-1.24-2.05-1.47l2.22-16.7ZM25.19,62l19.25-9.62c.65,.81,1.65,1.32,2.77,1.32,.22,0,.45-.02,.66-.06l2.42,5.17c-1.45,.28-2.65,.72-3.63,1.31-1.09,.67-1.89,1.52-2.39,2.58-.31,.66-.51,1.39-.58,2.2,0,.04,0,.08,0,.12-.76,.29-1.39,.88-1.72,1.62l-16.69-3.38c.02-.14,.03-.28,.03-.43,0-.3-.04-.57-.11-.84Zm18.65-10.69l-19.22,9.6c-.32-.39-.74-.71-1.21-.9l5.58-14.4c.18,.03,.35,.05,.53,.05,1.11,0,2.1-.59,2.63-1.48l11.7,4.7c-.15,.38-.23,.81-.23,1.25,0,.41,.08,.82,.21,1.19Zm5.18,1.91c1.06-.62,1.77-1.78,1.77-3.1,0-.3-.03-.58-.1-.86l10.65-5.32c.18,.35,.43,.65,.75,.88-.16,1.33-.15,2.64-.02,3.92,.2,1.94,.7,3.79,1.33,5.48,.56,1.51,1.22,2.89,1.87,4.08,.24,.44,.49,.86,.72,1.24-.12,.2-.22,.42-.29,.65-1.13-.33-2.21-.62-3.23-.86-1.55-.37-2.99-.64-4.32-.82-1.38-.18-2.65-.27-3.79-.25-1.04,.02-1.99,.12-2.84,.3l-2.5-5.35Zm-12.83-25.04c1.44,0,2.65-1,2.97-2.33,1.2,.07,2.43,.17,3.71,.32,1.3,.15,2.65,.36,4.03,.59,0,.06,0,.11,0,.16,0,1.41,.95,2.59,2.24,2.95l-2.22,16.68c-.93,.07-1.76,.5-2.35,1.14l-12-4.81c.01-.09,.01-.19,.01-.29,0-1.09-.57-2.04-1.42-2.58l4.6-11.86c.14,.02,.29,.03,.43,.03Zm-20.21,4.65c.72-.87,1.55-1.66,2.49-2.38,.94-.72,2-1.36,3.16-1.92,1.87-.9,4.01-1.6,6.42-2.07,1.61-.31,3.34-.52,5.16-.63,.19,.81,.7,1.5,1.39,1.91l-4.59,11.84c-.16-.03-.33-.05-.49-.05-1.06,0-1.98,.54-2.53,1.35l-11.09-3.66c-.02-.99-.53-1.86-1.28-2.4,.4-.7,.85-1.37,1.36-2Zm2.1,25.58c-.5-.7-.93-1.41-1.29-2.1-.36-.7-.65-1.39-.88-2.09l-.03-.08c-1.4-2.89-2.31-5.62-2.77-8.16-.36-1.99-.43-3.85-.24-5.59,1.23-.01,2.29-.75,2.77-1.81l10.86,3.58c-.02,.15-.04,.29-.04,.44,0,1.07,.56,2.02,1.39,2.56l-5.67,14.61c-.86,.02-1.64,.39-2.18,.98-.11-.11-.22-.24-.32-.35-.59-.66-1.12-1.33-1.6-2Zm-2.99,15.72c0,.27,.04,.53,.1,.78-.46,.23-.93,.46-1.4,.72-1.22,.67-2.47,1.45-3.74,2.33-1.11,.77-2.23,1.62-3.37,2.54-.56,.46-1.13,.94-1.7,1.44-.07-.05-.15-.09-.22-.13,1.66-3.31,3.73-6.36,6.22-9.15,2.56-2.87,5.55-5.45,8.98-7.77,.56,.62,1.36,1.01,2.27,1.01,1.11,0,2.09-.59,2.62-1.47l16.83,3.41s0,.03,0,.05c0,.44,.1,.86,.27,1.24l-15.68,13.26c-.88-.74-2.03-1.2-3.28-1.2-.59,0-1.16,.1-1.69,.29l-1.93-4.56c1.08-.47,1.84-1.55,1.84-2.81,0-1.69-1.37-3.06-3.06-3.06s-3.06,1.37-3.06,3.06Zm13.85,34.35l-14.64,5.76c-.41-.56-1-.98-1.69-1.16l8.77-21.96c.51,.17,1.05,.26,1.62,.26,.39,0,.77-.04,1.13-.12l6.04,14.23c-.77,.55-1.27,1.45-1.27,2.47,0,.18,.02,.35,.05,.52Zm-20.18,7.56c0,.43,.09,.84,.25,1.21-.88,1.05-1.72,2.21-2.5,3.47-.9,1.47-1.74,3.09-2.51,4.86-.59-7.78,.2-15.73,2.37-23.87,2.16-8.09,5.68-16.34,10.57-24.78,.37,.16,.79,.25,1.22,.25l2.06,4.85c-1.39,.91-2.3,2.47-2.3,4.26s.94,3.4,2.37,4.3l-8.96,22.43c-1.45,.24-2.55,1.5-2.55,3.01Zm19.33,65.13s-.09,.04-.13,.06c-2.66-3.49-5.01-7.29-7.04-11.39-2.28-4.61-4.15-9.61-5.63-14.99-.41-1.5-.8-3.05-1.15-4.62-.22-.98-.42-1.98-.61-2.99,.68-.13,1.26-.55,1.59-1.14l8.98,1.08c.03,1.54,.88,2.87,2.13,3.59-.1,1.12-.17,2.28-.22,3.5-.1,2.58-.07,5.38,.08,8.4,.14,2.95,.4,6.09,.78,9.44,.32,2.87,.74,5.89,1.23,9.08Zm-.94-38.12c-1.4,.4-2.5,1.5-2.89,2.9l-8.85-1.07c-.02-1.26-1.06-2.28-2.33-2.28-.12,0-.23,.01-.35,.03-1.1-7.29-1.61-15.15-1.51-23.6,.19,.04,.4,.06,.61,.06,1.69,0,3.06-1.37,3.06-3.06,0-.24-.02-.46-.07-.68l14.58-5.74c.36,.56,.9,.99,1.54,1.22l-3.78,32.21Zm1.25-.16l3.74-31.88c1.61-.09,2.88-1.43,2.88-3.06,0-.19-.01-.36-.04-.54h0v-.02s-.02-.07-.02-.1v-.02h0c-.02-.09-.04-.17-.05-.24,0-.02,0-.04,0-.06-.06-.2-.16-.4-.26-.51-.05-.05-.08-.11-.1-.17h0c-.55-.83-1.49-1.39-2.56-1.39-.24,0-.47,.03-.69,.08l-5.99-14.12c1.67-.83,2.81-2.56,2.81-4.56,0-.13,0-.26-.01-.39h0c-.02-.12-.03-.24-.04-.36-.02-.12-.03-.24-.05-.36h0v-.02s-.01-.06-.02-.09c-.01-.04-.03-.07-.04-.11v-.05c-.05-.08-.07-.15-.09-.21h0c-.16-.51-.41-.99-.72-1.42l15.55-13.16c.55,.51,1.28,.82,2.08,.82,1.69,0,3.06-1.37,3.06-3.06,0-.72-.25-1.38-.67-1.91h0c-.12-.12-.23-.25-.34-.37h0s-.09-.07-.14-.1c-.17-.1-.32-.21-.48-.33-.38-.2-.81-.33-1.26-.35,.07-.59,.21-1.12,.45-1.61,.41-.87,1.11-1.59,2.07-2.14,.99-.57,2.26-.97,3.83-1.2h.06c.85-.24,1.83-.37,2.93-.39,1.11-.03,2.35,.06,3.72,.24,1.38,.19,2.89,.48,4.53,.88,1.01,.25,2.06,.54,3.17,.86,.27,1.11,1.26,1.93,2.45,1.93,1.39,0,2.53-1.13,2.53-2.53s-1.13-2.53-2.53-2.53c-.45,0-.87,.13-1.24,.34-.08-.13-.15-.27-.23-.4-.72-1.26-1.48-2.79-2.11-4.48-.59-1.59-1.06-3.34-1.26-5.15-.12-1.1-.14-2.22-.02-3.36,.11,.01,.21,.02,.32,.02,.25,0,.5-.03,.73-.1,.91,1.33,2.05,2.86,3.34,4.45,1.77,2.18,3.82,4.48,5.87,6.47,1.74,1.69,3.5,3.18,5.13,4.21,.52,.33,1.03,.62,1.52,.85,.38,.91,1.28,1.56,2.33,1.56,.17,0,.34-.02,.51-.05l5.67,8.32c-.43,.55-.7,1.25-.7,2.01,0,1.02,.47,1.93,1.2,2.53l-7.25,10c-.17-.04-.34-.06-.52-.06-1.05,0-1.92,.7-2.21,1.65h-.99c-1.66,0-3.43,.04-5.31,.1-1.9,.05-3.91,.13-6.03,.24h-.07c-.26,.05-.51,.13-.74,.22-.24,.1-.46,.23-.68,.38-.21,.15-.4,.33-.57,.52-.17,.2-.32,.41-.44,.64-.02,.05-.06,.16-.09,.21-.03,.1-.04,.13-.06,.23,0,.03-.01,.06-.02,.08v.05h0v.02c-.02,.39,.05,.43,.16,.66,.13,.29,.31,.55,.54,.76,.26,.24,.57,.4,.91,.48,.31,.08,.62,.06,.93,.05h.02c.09,0,.17,0,.26,0h.14c-.24,0,.16,.02,.25,.01,.23-.02,.43-.01,.67-.01,.35,0,.78-.02,1.17,.02,.18,.4,.39,.8,.62,1.17,.27,.43,.57,.85,.91,1.25,.35,.42,.74,.82,1.17,1.2,.42,.38,.87,.73,1.36,1.07,.2,.21,.4,.41,.6,.58-.06,.2-.09,.4-.09,.62,0,.6,.23,1.14,.6,1.55l-13.15,15.75c-.47-.4-1.09-.66-1.75-.66-.38,0-.74,.08-1.07,.23-.01,0-.02,.01-.04,.02h-.01s-.06,.02-.09,.03c-.09,.06-.19,.11-.3,.16-.19,.09-.41,.34-.47,.46-.04,.08-.09,.14-.16,.18-.23,.31-.4,.67-.48,1.07l-9.21-1.58v-.05c0-.88-.42-1.65-1.07-2.13h0s-.07-.04-.09-.07c-.14-.08-.28-.16-.42-.24-.17-.09-.36-.12-.54-.16-.03,0-.07-.02-.1-.04-.15-.02-.3-.04-.45-.04-1.48,0-2.67,1.2-2.67,2.67,0,.71,.28,1.35,.73,1.83l-14.3,26.22c-.13-.02-.27-.03-.4-.03Zm28.22,38.6c.81,3.02,1.81,5.95,3.02,8.78,1.15,2.71,2.49,5.34,4.01,7.87,.63,1.04,1.29,2.07,1.97,3.09-.52,.51-.91,1.15-1.14,1.86-2.83-1.33-5.53-2.99-8.12-5.01-3.97-3.09-7.65-6.99-11.05-11.7-3.45-4.79-6.61-10.4-9.47-16.85-2.44-5.5-4.66-11.61-6.67-18.32,.5-.1,.97-.3,1.38-.56l10.69,9.53,10.39,9.25c-.2,.47-.31,.99-.31,1.53,0,2.16,1.74,3.9,3.89,3.92,.37,2.25,.84,4.46,1.42,6.61Zm-.52-14.35c-.28-.06-.57-.09-.87-.09-1.17,0-2.22,.51-2.94,1.33l-20.81-18.54c.63-.74,1.02-1.7,1.02-2.75,0-.65-.15-1.27-.41-1.82l15.02-7.35c.48,.5,1.16,.81,1.91,.81,.03,0,.06,0,.09,0,2.31,3.83,4.7,7.75,7.09,11.67l1.99,3.27c-.32,.5-.51,1.09-.51,1.73,0,.93,.4,1.77,1.02,2.37l-2.62,9.37Zm17.67,7.74c-2.07,0-3.74,1.68-3.74,3.74s1.68,3.74,3.74,3.74h.01c.03,.13,.05,.27,.09,.41,.36,1.46,.82,3.01,1.4,4.64,.55,1.56,1.2,3.2,1.95,4.94,.5,1.14,1.05,2.33,1.64,3.56-.25,.19-.47,.42-.64,.69-1.12-.49-2.27-1.13-3.44-1.92-1.86-1.26-3.77-2.91-5.73-4.94-2.07-2.15-4.19-4.72-6.38-7.72-1.71-2.35-3.45-4.97-5.22-7.84,1.03-.71,1.69-1.88,1.69-3.23,0-1.43-.76-2.69-1.91-3.37l2.56-9.15c.36,.13,.74,.2,1.14,.2,.83,0,1.6-.31,2.17-.83l17.36,9.29c-.1,.38-.16,.77-.16,1.18,0,1.15,.43,2.19,1.14,2.98l-5.28,4.49c-.65-.55-1.49-.87-2.4-.87Zm25.39,51.47c-.19,.03-.38,.07-.56,.13-.07-.29-.14-.58-.2-.86-.5-2.12-1-4.11-1.53-5.98-.63-2.23-1.27-4.28-1.95-6.16-.67-1.88-1.36-3.57-2.08-5.07l-.04-.07c-1.42-2.2-2.86-4.46-4.32-6.78-1.48-2.36-2.99-4.78-4.52-7.26-1.54-2.5-3.1-5.05-4.68-7.66-1.01-1.67-2.05-3.39-3.11-5.17,.82-.68,1.33-1.71,1.33-2.86,0-.71-.19-1.38-.53-1.95l5.43-4.61c.7,.44,1.52,.7,2.41,.7,.38,0,.75-.05,1.09-.14l11.23,30.08c-.87,.75-1.42,1.87-1.42,3.1,0,2.04,1.49,3.73,3.44,4.04v16.5Zm-9.85-58.07c0-.44-.06-.88-.18-1.29,.07-.04,.14-.08,.21-.12,1.19-.68,2.37-1.24,3.54-1.69,1.14-.43,2.26-.75,3.36-.96,.42-.08,.84-.14,1.26-.18,.2,.96,.83,1.77,1.67,2.22v35.52c-.34,.05-.66,.15-.97,.28l-11.15-29.88c1.36-.77,2.27-2.23,2.27-3.9Zm-2.46-4.01c-.61-.31-1.3-.48-2.03-.48-.39,0-.76,.05-1.11,.14-.3-.95-.52-1.83-.62-2.65-.12-.94-.11-1.8,.04-2.55,.14-.69,.39-1.3,.76-1.82,1.14-.17,2.31-.32,3.5-.45,.39-.04,.79-.07,1.19-.11,.05,.9,.51,1.68,1.21,2.15l-2.93,5.77Zm6.88-9.5c-.49-.8-1.37-1.34-2.38-1.34-1.14,0-2.12,.69-2.55,1.67-.54,.05-1.08,.1-1.61,.16-1.29,.14-2.54,.3-3.74,.48l-.24,.04-.15,.19c-.54,.7-.92,1.5-1.11,2.43-.19,.9-.22,1.92-.07,3.05,.12,.92,.35,1.9,.7,2.96-.66,.38-1.22,.93-1.61,1.58l-17.09-9.14c.21-.43,.33-.92,.33-1.43,0-.15,0-.29-.03-.44l15.48-4.18c.96,.28,1.93,.45,2.89,.5,.99,.05,1.98,0,2.97-.19h.03c1.38-.31,2.68-.65,3.87-1.05,1.19-.4,2.29-.85,3.3-1.35,1.01-.5,1.92-1.06,2.73-1.67,.07-.05,.14-.1,.2-.15,.48,.27,1.02,.42,1.61,.42,.71,0,1.38-.22,1.91-.61v5.52c-.91,.48-1.56,1.38-1.71,2.44-.76,.01-1.5,.03-2.24,.05-.5,.02-1,.05-1.49,.07Z"/><path class="cls-1" d="M49.02,101.9l.02-.02-.25,.1-.2,.09s.03,0,.04,0c.03-.02,.06-.03,.1-.04l.07-.02c.07-.03,.14-.06,.21-.09h.02Z"/></g><path class="cls-1" d="M45.49,112.23l-.26-.03"/><rect class="cls-1" x="32.69" y="111.09" width="13.85" height="1.24" transform="translate(55.28 -5.78) rotate(27.12)"/><path class="cls-1" d="M59.9,90.08l-4.85-.37,1.01,2.76c-8.54,6.12-10.08,21.68-10.08,21.68,3.29-11.02,9.98-15.06,12.12-16.1l1.11,3.05,2.77-5.33,2.77-5.33-4.85-.37Z"/><path class="cls-1" d="M65.94,84.18l.92-4.62-2.75,.65c-4.84-8.92-19.51-12.19-19.51-12.19,10.13,4.44,13.2,11.33,13.94,13.5l-3.04,.72,4.76,3.28,4.76,3.28,.92-4.62Z"/><rect class="cls-1" x="60.96" y="73.88" width="27.68" height="1.2" transform="translate(108.12 -25.69) rotate(63.52)"/><circle class="cls-1" cx="47.62" cy="83.57" r="2.3"/><rect class="cls-1" x="38.81" y="74.41" width="13.85" height="1.24" transform="translate(111.06 16.26) rotate(79.38)"/><rect class="cls-1" x="26.9" y="95.61" width="25.44" height="1.11" transform="translate(141.71 115.98) rotate(123.38)"/><circle class="cls-1" cx="64.83" cy="89.48" r="1.59"/><rect class="cls-1" x="78.91" y="107.26" width="41.73" height="1.24" transform="translate(207.66 8.11) rotate(90)"/><line class="cls-1" x1="88.94" y1="107.32" x2="88.08" y2="107.3"/><circle class="cls-1" cx="99.77" cy="128.75" r="3.16"/></g></g></svg>