<svg xmlns="http://www.w3.org/2000/svg" xmlns:xlink="http://www.w3.org/1999/xlink" viewBox="0 0 237.12 60.23"><defs><style>.cls-1{isolation:isolate;}.cls-2{fill:url(#Degradado_sin_nombre_9);}.cls-3{fill:url(#Degradado_sin_nombre_10);}.cls-4{fill:#fff;}.cls-5{fill:none;stroke-miterlimit:10;stroke-width:4px;stroke:url(#New_Gradient_Swatch_2);}</style><linearGradient id="Degradado_sin_nombre_9" x1="20.72" y1="30.19" x2="102.32" y2="30.19" gradientUnits="userSpaceOnUse"><stop offset="0" stop-color="#238ddd"/><stop offset="0.08" stop-color="#3da1e3"/><stop offset="0.22" stop-color="#63beeb"/><stop offset="0.34" stop-color="#7ed3f1"/><stop offset="0.45" stop-color="#8fdff5"/><stop offset="0.54" stop-color="#95e4f6"/><stop offset="0.74" stop-color="#93e3f6"/><stop offset="0.81" stop-color="#8cddf4"/><stop offset="0.87" stop-color="#81d4f2"/><stop offset="0.91" stop-color="#70c7ee"/><stop offset="0.95" stop-color="#5ab7e9"/><stop offset="0.98" stop-color="#3fa2e3"/><stop offset="1" stop-color="#2b93df"/></linearGradient><linearGradient id="Degradado_sin_nombre_10" x1="97.25" y1="26.63" x2="207.59" y2="26.63" gradientUnits="userSpaceOnUse"><stop offset="0" stop-color="#238ddd"/><stop offset="0.03" stop-color="#369be1"/><stop offset="0.08" stop-color="#53b2e8"/><stop offset="0.13" stop-color="#6bc4ed"/><stop offset="0.19" stop-color="#7ed2f1"/><stop offset="0.26" stop-color="#8bdcf4"/><stop offset="0.35" stop-color="#93e2f6"/><stop offset="0.54" stop-color="#95e4f6"/><stop offset="0.62" stop-color="#91e1f5"/><stop offset="0.71" stop-color="#84d7f2"/><stop offset="0.81" stop-color="#6fc7ee"/><stop offset="0.9" stop-color="#51b0e7"/><stop offset="0.99" stop-color="#2c93df"/><stop offset="1" stop-color="#2b93df"/></linearGradient><linearGradient id="New_Gradient_Swatch_2" y1="30.11" x2="237.12" y2="30.11" gradientUnits="userSpaceOnUse"><stop offset="0" stop-color="#238ddd"/><stop offset="1" stop-color="#95e4f6"/></linearGradient></defs><g id="Capa_2" data-name="Capa 2"><g id="Diseño_web_final" data-name="Diseño web final" class="cls-1"><path class="cls-2" d="M102.32,38.33H99.61A2.93,2.93,0,0,1,98.38,38a3.67,3.67,0,0,1-1.22-.81,3.71,3.71,0,0,1-.84-1.16c-.08-.23-.16-.45-.23-.7l-.94-3.24H83.35l1.18-4.73h9.19L91.5,19.67H84.27L78.81,38.33l-1.25,4-1,3.14H20.72V41.1h51.9l.83-2.77,6.11-19.66a6.15,6.15,0,0,1,1.62-2.8,4.45,4.45,0,0,1,3-1h7.35a4.36,4.36,0,0,1,3,1,5.63,5.63,0,0,1,1.5,2.41,1.5,1.5,0,0,1,.14.39Z"/><path class="cls-3" d="M217.47,14.9v4.77H102.52V33.58h21.11v4.77h-19.7c-.09,0,0,0-.07,0s-1.56-5-3.11-10-3.12-10-3.14-10.06a3.17,3.17,0,0,1,.25-1.09A3.71,3.71,0,0,1,98.64,16a4,4,0,0,1,1.18-.77,3.4,3.4,0,0,1,1.44-.28h22.37v0Z"/><path class="cls-4" d="M127,24.19h3v11.3h9.47V24.19h3V36.1a2.32,2.32,0,0,1-.18.92,2.78,2.78,0,0,1-.49.72,2.12,2.12,0,0,1-.71.46,2.22,2.22,0,0,1-.85.16H129.34a2.31,2.31,0,0,1-.91-.18A2.31,2.31,0,0,1,127.19,37a2.09,2.09,0,0,1-.18-.85Z"/><path class="cls-4" d="M144.46,26.46a2.19,2.19,0,0,1,.18-.9,2.09,2.09,0,0,1,.47-.72,2.34,2.34,0,0,1,.71-.48,2.29,2.29,0,0,1,.87-.17h11.94a2.27,2.27,0,0,1,.91.18,2.37,2.37,0,0,1,.71.49,2.17,2.17,0,0,1,.48.71,2.05,2.05,0,0,1,.17.85v4.49a2.19,2.19,0,0,1-.18.9,2,2,0,0,1-.49.71,2.34,2.34,0,0,1-.69.47,2.21,2.21,0,0,1-.84.17h-1.83l4.07,5.2h-3.6l-4.17-5.2h-4.09V30.29h8.83V27.07H147.44V38.36h-3Z"/><path class="cls-4" d="M162.79,35.49h14.07V32.55H165.05a2.25,2.25,0,0,1-.9-.17,2.16,2.16,0,0,1-.72-.48,2.19,2.19,0,0,1-.64-1.57V26.46a2.19,2.19,0,0,1,.17-.9,2.09,2.09,0,0,1,.47-.72,2.47,2.47,0,0,1,.71-.48,2.29,2.29,0,0,1,.87-.17h13.24v2.88H165.76v2.61h11.8a2.27,2.27,0,0,1,.91.18,2.2,2.2,0,0,1,.71.49,2.13,2.13,0,0,1,.48.7,2.26,2.26,0,0,1,.17.85v4.2a2.26,2.26,0,0,1-.18.9,2.36,2.36,0,0,1-.49.72,2.1,2.1,0,0,1-.7.47,2.08,2.08,0,0,1-.85.17H162.79Z"/><path class="cls-4" d="M181.49,26.46a2.19,2.19,0,0,1,.18-.9,2.09,2.09,0,0,1,.47-.72,2.34,2.34,0,0,1,.71-.48,2.29,2.29,0,0,1,.87-.17h12.51a2.27,2.27,0,0,1,.91.18,2.39,2.39,0,0,1,.74.49,2.23,2.23,0,0,1,.5.71,2.06,2.06,0,0,1,.18.85V36.1a2.32,2.32,0,0,1-.18.92,2.55,2.55,0,0,1-.49.72,2.12,2.12,0,0,1-.71.46,2.22,2.22,0,0,1-.85.16H183.82a2.31,2.31,0,0,1-.91-.18,2.48,2.48,0,0,1-.74-.48,2.53,2.53,0,0,1-.5-.71,2.09,2.09,0,0,1-.18-.85Zm14.09,9V27.07H184.47v8.42Z"/><path class="cls-4" d="M200.42,35.49h14.07V32.55h-11.8a2.25,2.25,0,0,1-.9-.17,2,2,0,0,1-.72-.48,2.25,2.25,0,0,1-.65-1.57V26.46a2.19,2.19,0,0,1,.18-.9,2.09,2.09,0,0,1,.47-.72,2.34,2.34,0,0,1,.71-.48,2.29,2.29,0,0,1,.87-.17h13.24v2.88H203.4v2.61h11.8a2.19,2.19,0,0,1,.9.18,2.14,2.14,0,0,1,.72.49,2.29,2.29,0,0,1,.48.7,2.26,2.26,0,0,1,.17.85v4.2a2.26,2.26,0,0,1-.18.9,2.55,2.55,0,0,1-.49.72,2.15,2.15,0,0,1-.71.47,2.05,2.05,0,0,1-.85.17H200.42Z"/><path class="cls-4" d="M28.33,38.34V31.82l-4.64-4.23V38.34h-3V26.27a2.4,2.4,0,0,1,.14-.82,2.18,2.18,0,0,1,.42-.74,2.29,2.29,0,0,1,.7-.52,2.17,2.17,0,0,1,1-.2h.23a1.94,1.94,0,0,1,1.06.29,6.54,6.54,0,0,1,.94.7l4.62,4.29L34.38,25a7.14,7.14,0,0,1,.94-.7A2,2,0,0,1,36.39,24h.22a2.12,2.12,0,0,1,1,.2,2.09,2.09,0,0,1,1.12,1.26,2.42,2.42,0,0,1,.15.82V38.34h-3V27.59l-4.64,4.23v6.52Z"/><path class="cls-4" d="M40.72,26.43a2.44,2.44,0,0,1,.17-.9,2.17,2.17,0,0,1,.48-.71,2,2,0,0,1,.71-.48,2.29,2.29,0,0,1,.87-.17h13V27H43.72v2.61H54.33v2.88H43.72v2.93H55.94v2.88H43.05a2.27,2.27,0,0,1-.91-.18,2.39,2.39,0,0,1-.74-.49,2.23,2.23,0,0,1-.5-.71,2.06,2.06,0,0,1-.18-.85Z"/><path class="cls-4" d="M64.51,27H57.46V24.17H74.51V27h-7v11.3h-3Z"/><polygon class="cls-5" points="235.12 58.23 109.81 58.23 2 58.23 2 2 94.47 2 235.12 2 235.12 58.23"/></g></g></svg>