<svg width="480" height="480" viewBox="0 0 480 480" fill="none" xmlns="http://www.w3.org/2000/svg">
<path d="M208 463.998H64V378.758C64.0074 358.167 71.2218 338.227 84.392 322.398L92.056 313.198C95.2877 320.001 100.377 325.752 106.737 329.786C113.097 333.82 120.468 335.974 128 335.998C134.365 335.998 140.47 333.47 144.971 328.969C149.471 324.468 152 318.364 152 311.998V311.542L158.008 315.83C176.052 328.689 188.564 347.897 193.032 369.598C193.401 371.404 194.381 373.027 195.808 374.193C197.235 375.359 199.021 375.997 200.864 375.998C201.402 375.995 201.937 375.939 202.464 375.83C204.539 375.399 206.359 374.162 207.523 372.391C208.687 370.619 209.1 368.458 208.672 366.382C203.398 340.728 188.61 318.02 167.28 302.822L152 291.886V286.958L161.056 283.662C171.59 279.866 180.736 272.982 187.3 263.911C193.865 254.839 197.543 244 197.856 232.806L198.08 225.934L214.984 212.51C216.562 211.259 217.609 209.458 217.918 207.468C218.226 205.478 217.773 203.445 216.648 201.774L203.792 182.75C209.222 180.243 213.508 175.783 215.798 170.258C218.089 164.733 218.215 158.548 216.152 152.934L205.2 122.862C204.031 119.681 202.198 116.786 199.823 114.369C197.447 111.953 194.584 110.07 191.424 108.846L197.024 100.31C200.405 95.1044 202.535 89.1861 203.245 83.0193C203.956 76.8525 203.228 70.6049 201.12 64.7663L187.416 27.1983C186.949 25.9186 186.162 24.7794 185.131 23.8887C184.1 22.998 182.859 22.3855 181.525 22.109C180.19 21.8326 178.808 21.9015 177.508 22.3091C176.208 22.7167 175.033 23.4496 174.096 24.4383L154.688 44.9183C152.155 47.5932 149.04 49.649 145.584 50.9263L63.576 79.3583C45.0315 85.7806 28.6857 97.325 16.432 112.654L8.8 122.238C3.12733 129.323 0.0250512 138.122 0 147.198V151.11C0.00155907 158.361 1.97015 165.475 5.696 171.694L15.568 188.142C13.5138 191.07 12.1207 194.41 11.4852 197.929C10.8498 201.449 10.9872 205.065 11.888 208.526C12.7077 211.807 14.2114 214.877 16.3004 217.536C18.3894 220.194 21.0167 222.382 24.01 223.954C27.0033 225.527 30.2951 226.449 33.6698 226.661C37.0444 226.872 40.4257 226.369 43.592 225.182L44.872 224.702L88 269.11V293.11L72.104 312.182C56.547 330.882 48.0201 354.434 48 378.758V471.998C48 474.12 48.8429 476.155 50.3431 477.655C51.8434 479.156 53.8783 479.998 56 479.998H208C210.122 479.998 212.157 479.156 213.657 477.655C215.157 476.155 216 474.12 216 471.998C216 469.877 215.157 467.842 213.657 466.341C212.157 464.841 210.122 463.998 208 463.998ZM128 319.998C121.635 319.998 115.53 317.47 111.029 312.969C106.529 308.468 104 302.364 104 295.998V283.95C110.995 289.651 119.728 292.793 128.752 292.854C131.184 292.844 133.61 292.614 136 292.166V311.998C136 314.12 135.157 316.155 133.657 317.655C132.157 319.156 130.122 319.998 128 319.998ZM185.24 215.71C184.33 216.432 183.588 217.344 183.066 218.381C182.544 219.419 182.254 220.557 182.216 221.718L181.896 231.998H168C165.878 231.998 163.843 232.841 162.343 234.341C160.843 235.842 160 237.877 160 239.998C160 242.12 160.843 244.155 162.343 245.655C163.843 247.156 165.878 247.998 168 247.998H178.072C175.868 252.749 172.747 257.018 168.887 260.559C165.028 264.1 160.507 266.843 155.584 268.63L137.048 275.382C132.86 276.921 128.326 277.255 123.958 276.347C119.59 275.44 115.564 273.326 112.336 270.246L104.488 262.814L106.16 258.014C110.032 246.959 112.006 235.328 112 223.614V199.606L130.064 192.854C132.313 195.576 135.132 197.77 138.323 199.281C141.514 200.792 144.998 201.583 148.528 201.598C151.32 201.599 154.09 201.108 156.712 200.15L188.432 188.606L199.256 204.606L185.24 215.71ZM143.712 136.742C143.707 139.468 144.17 142.173 145.08 144.742L156.024 174.822C156.984 177.377 158.372 179.75 160.128 181.838L151.24 185.038C150.252 185.396 149.203 185.556 148.153 185.509C147.103 185.461 146.073 185.207 145.122 184.762C144.17 184.316 143.315 183.687 142.607 182.911C141.898 182.135 141.35 181.227 140.992 180.238L130.04 150.166C129.682 149.178 129.522 148.129 129.57 147.08C129.617 146.03 129.871 145 130.317 144.048C130.763 143.096 131.391 142.242 132.168 141.533C132.944 140.825 133.852 140.276 134.84 139.918L143.712 136.742ZM201.136 158.398C201.495 159.387 201.656 160.437 201.609 161.487C201.562 162.538 201.309 163.569 200.863 164.522C200.417 165.474 199.788 166.33 199.011 167.039C198.234 167.748 197.325 168.297 196.336 168.654L181.296 174.126C180.307 174.486 179.258 174.646 178.207 174.599C177.156 174.553 176.125 174.299 175.173 173.853C174.22 173.407 173.365 172.778 172.656 172.001C171.946 171.224 171.397 170.316 171.04 169.326L160.112 139.278C159.392 137.291 159.487 135.099 160.377 133.182C161.268 131.265 162.881 129.778 164.864 129.046L179.928 123.558C180.917 123.199 181.966 123.038 183.017 123.085C184.068 123.132 185.099 123.386 186.051 123.832C187.004 124.277 187.859 124.907 188.568 125.683C189.278 126.46 189.827 127.369 190.184 128.358L201.136 158.398ZM16 147.198C16.0062 141.75 17.8591 136.466 21.256 132.206L28.928 122.606C39.2937 109.651 53.1184 99.8983 68.8 94.4783L150.928 65.9983C156.763 63.871 162.024 60.4176 166.296 55.9104L176.8 44.7983L186.056 70.2223C187.32 73.7245 187.756 77.4717 187.33 81.1706C186.904 84.8694 185.627 88.4193 183.6 91.5423L171.952 109.438L129.352 124.942C124.672 126.607 120.634 129.699 117.807 133.783C114.981 137.867 113.509 142.736 113.6 147.702L28.64 178.846L19.424 163.486C17.184 159.756 16.0004 155.486 16 151.134V147.198ZM31.456 209.79C30.3676 209.195 29.4253 208.365 28.6975 207.361C27.9697 206.356 27.4745 205.202 27.248 203.982C26.7705 202.066 27.0187 200.041 27.9447 198.297C28.8707 196.552 30.4092 195.212 32.264 194.534L117.752 163.198L123.24 178.286L37.984 210.222C36.9299 210.625 35.8018 210.796 34.6758 210.726C33.5497 210.656 32.4518 210.345 31.456 209.814V209.79ZM96 205.598V223.67C96.0036 232.662 94.6248 241.601 91.912 250.174L61.24 218.606L96 205.598Z" fill="white"/>
<path d="M393.536 303.998H340.28L330.088 288.718C327.912 285.45 324.804 282.912 321.167 281.434C317.529 279.956 313.532 279.607 309.693 280.431C305.854 281.255 302.352 283.214 299.642 286.055C296.932 288.895 295.139 292.485 294.496 296.358L288.664 331.366L224.8 376.086C217.545 381.053 208.981 383.758 200.189 383.857C191.397 383.957 182.774 381.448 175.408 376.646L140.456 353.342C138.691 352.165 136.53 351.737 134.449 352.152C132.368 352.568 130.538 353.793 129.36 355.558C128.182 357.324 127.754 359.484 128.17 361.565C128.586 363.646 129.811 365.477 131.576 366.654L166.536 389.958C176.596 396.509 188.373 399.93 200.377 399.788C212.382 399.645 224.074 395.946 233.976 389.158L294.264 346.958L308.8 366.398L239.32 418.502C228.156 426.878 214.668 431.584 200.717 431.972C186.765 432.36 173.037 428.412 161.424 420.67L108.44 385.342C106.675 384.165 104.514 383.737 102.433 384.152C100.352 384.568 98.5216 385.793 97.3441 387.558C96.1665 389.324 95.7384 391.484 96.154 393.565C96.5696 395.646 97.7948 397.477 99.56 398.654L152.552 433.982C166.918 443.56 183.902 448.446 201.162 447.966C218.422 447.486 235.108 441.664 248.92 431.302L323.512 375.366L348.968 368.966C352.694 368.042 356.338 366.814 359.864 365.294L402.4 347.11C407.157 345.072 411.064 341.454 413.461 336.867C415.858 332.281 416.598 327.007 415.556 321.938C414.513 316.869 411.753 312.315 407.741 309.047C403.729 305.778 398.711 303.995 393.536 303.998V303.998ZM396.08 332.406L353.552 350.63C350.808 351.804 347.975 352.759 345.08 353.486L323.208 358.95L304.456 333.934L310.28 298.982C310.452 298.311 310.809 297.701 311.309 297.222C311.809 296.742 312.433 296.412 313.111 296.268C313.789 296.124 314.493 296.173 315.145 296.408C315.797 296.643 316.37 297.055 316.8 297.598L329.36 316.446C330.09 317.538 331.078 318.433 332.236 319.052C333.394 319.672 334.687 319.997 336 319.998H393.536C395.026 319.997 396.47 320.511 397.624 321.452C398.779 322.394 399.573 323.705 399.872 325.164C400.171 326.623 399.957 328.141 399.266 329.461C398.575 330.78 397.45 331.821 396.08 332.406V332.406Z" fill="white"/>
<path d="M240 159.998C240 182.15 246.569 203.804 258.875 222.222C271.182 240.64 288.674 254.996 309.139 263.473C329.605 271.95 352.124 274.168 373.85 269.846C395.576 265.525 415.532 254.858 431.196 239.194C446.859 223.531 457.526 203.574 461.848 181.848C466.17 160.123 463.952 137.603 455.475 117.138C446.998 96.6724 432.642 79.1804 414.224 66.8737C395.806 54.567 374.152 47.9983 352 47.9983C322.306 48.0301 293.836 59.8402 272.839 80.8374C251.842 101.835 240.032 130.304 240 159.998V159.998ZM447.592 151.998H399.848C399.525 140.814 398.478 129.663 396.712 118.614C407.579 113.868 417.62 107.419 426.456 99.5103C438.644 114.468 446.013 132.768 447.592 151.998V151.998ZM426.456 220.486C417.62 212.577 407.579 206.128 396.712 201.382C398.478 190.334 399.525 179.182 399.848 167.998H447.592C446.013 187.228 438.644 205.529 426.456 220.486V220.486ZM256.408 167.998H304.152C304.475 179.182 305.522 190.334 307.288 201.382C296.421 206.128 286.38 212.577 277.544 220.486C265.356 205.529 257.987 187.228 256.408 167.998V167.998ZM383.84 167.998C383.587 177.37 382.785 186.72 381.44 195.998C362.159 190.665 341.793 190.665 322.512 195.998C321.167 186.72 320.365 177.37 320.112 167.998H383.84ZM320.16 151.998C320.413 142.626 321.215 133.277 322.56 123.998C341.841 129.332 362.207 129.332 381.488 123.998C382.833 133.277 383.635 142.626 383.888 151.998H320.16ZM310.56 217.478C313.239 229.468 317.653 241.003 323.664 251.718C310.743 247.69 298.823 240.969 288.688 231.998C295.277 226.18 302.634 221.295 310.552 217.478H310.56ZM325.48 211.734C342.815 206.753 361.201 206.753 378.536 211.734C372 239.878 360.856 255.998 352 255.998C343.144 255.998 332 239.878 325.472 211.734H325.48ZM393.48 217.478C401.387 221.297 408.733 226.183 415.312 231.998C405.182 240.976 393.264 247.705 380.344 251.742C386.357 241.02 390.771 229.477 393.448 217.478H393.48ZM393.48 102.518C390.801 90.5282 386.387 78.9933 380.376 68.2783C393.283 72.3121 405.189 79.0328 415.312 87.9983C408.723 93.8164 401.366 98.7021 393.448 102.518H393.48ZM378.56 108.262C361.225 113.244 342.839 113.244 325.504 108.262C332 80.1183 343.144 63.9983 352 63.9983C360.856 63.9983 372 80.1183 378.528 108.262H378.56ZM310.56 102.518C302.639 98.7027 295.279 93.817 288.688 87.9983C298.818 79.0203 310.736 72.2911 323.656 68.2543C317.643 78.9768 313.229 90.5199 310.552 102.518H310.56ZM307.296 118.614C305.528 129.663 304.478 140.814 304.152 151.998H256.408C257.987 132.768 265.356 114.468 277.544 99.5103C286.38 107.419 296.421 113.868 307.288 118.614H307.296Z" fill="white"/>
<path d="M442.344 61.6543C443.844 63.1541 445.879 63.9966 448 63.9966C450.121 63.9966 452.156 63.1541 453.656 61.6543L477.656 37.6543C479.156 36.1541 479.998 34.1196 479.998 31.9983C479.998 29.877 479.156 27.8425 477.656 26.3423L453.656 2.34229C452.156 0.842522 450.121 0 448 0C445.879 0 443.844 0.842522 442.344 2.34229L418.344 26.3423C416.844 27.8425 416.002 29.877 416.002 31.9983C416.002 34.1196 416.844 36.1541 418.344 37.6543L442.344 61.6543ZM448 19.3103L460.688 31.9983L448 44.6863L435.312 31.9983L448 19.3103Z" fill="white"/>
<path d="M250.344 317.654C251.844 319.154 253.879 319.997 256 319.997C258.121 319.997 260.156 319.154 261.656 317.654L285.656 293.654C287.156 292.154 287.998 290.12 287.998 287.998C287.998 285.877 287.156 283.843 285.656 282.342L261.656 258.342C260.156 256.843 258.121 256 256 256C253.879 256 251.844 256.843 250.344 258.342L226.344 282.342C224.844 283.843 224.002 285.877 224.002 287.998C224.002 290.12 224.844 292.154 226.344 293.654L250.344 317.654ZM256 275.31L268.688 287.998L256 300.686L243.312 287.998L256 275.31Z" fill="white"/>
<path d="M453.656 242.342C452.156 240.843 450.121 240 448 240C445.879 240 443.844 240.843 442.344 242.342L418.344 266.342C416.844 267.843 416.002 269.877 416.002 271.998C416.002 274.12 416.844 276.154 418.344 277.654L442.344 301.654C443.844 303.154 445.879 303.997 448 303.997C450.121 303.997 452.156 303.154 453.656 301.654L477.656 277.654C479.156 276.154 479.998 274.12 479.998 271.998C479.998 269.877 479.156 267.843 477.656 266.342L453.656 242.342ZM448 284.686L435.312 271.998L448 259.31L460.688 271.998L448 284.686Z" fill="white"/>
<path d="M250.344 77.6543C251.844 79.1541 253.879 79.9966 256 79.9966C258.121 79.9966 260.156 79.1541 261.656 77.6543L285.656 53.6543C287.156 52.1541 287.998 50.1196 287.998 47.9983C287.998 45.877 287.156 43.8425 285.656 42.3423L261.656 18.3423C260.156 16.8425 258.121 16 256 16C253.879 16 251.844 16.8425 250.344 18.3423L226.344 42.3423C224.844 43.8425 224.002 45.877 224.002 47.9983C224.002 50.1196 224.844 52.1541 226.344 53.6543L250.344 77.6543ZM256 35.3103L268.688 47.9983L256 60.6863L243.312 47.9983L256 35.3103Z" fill="white"/>
</svg>
