<svg width="263" height="61" viewBox="0 0 263 61" fill="none" xmlns="http://www.w3.org/2000/svg">
<g clip-path="url(#clip0_225_2)">
<path d="M260.71 2H2V58.23H260.71V2Z" stroke="url(#paint0_linear_225_2)" stroke-width="4" stroke-miterlimit="10"/>
<path d="M53.2298 37.31L52.8398 36.91V27.35L49.1098 30.74V36.91L48.7198 37.31H45.8798L45.4898 36.91V30.74L41.7698 27.35V36.91L41.3698 37.31H38.4798L38.0898 36.91V25.18C38.0906 24.864 38.1412 24.5502 38.2398 24.25C38.3491 23.9387 38.5152 23.6505 38.7298 23.4C38.9575 23.1458 39.2327 22.9386 39.5398 22.79C39.8951 22.6313 40.2809 22.5528 40.6698 22.56H40.8798C41.317 22.5537 41.747 22.6716 42.1198 22.9C42.4739 23.1099 42.8085 23.3508 43.1198 23.62L47.3498 27.55L51.5298 23.63C51.8425 23.3596 52.177 23.1154 52.5298 22.9C52.9027 22.6716 53.3327 22.5537 53.7698 22.56H53.9898C54.354 22.5456 54.7168 22.6137 55.051 22.7592C55.3851 22.9046 55.6822 23.1237 55.9198 23.4C56.1379 23.648 56.3045 23.937 56.4098 24.25C56.5119 24.5496 56.5659 24.8635 56.5698 25.18V36.91L56.1698 37.31H53.2298Z" fill="white"/>
<path d="M45.8805 36.9101V30.5701L41.3705 26.4601V36.9101H38.4805V25.1801C38.4832 24.9076 38.5305 24.6374 38.6205 24.3801C38.7089 24.1157 38.8482 23.8711 39.0305 23.6601C39.2192 23.4447 39.4508 23.271 39.7105 23.1501C40.0234 23.0057 40.366 22.9372 40.7105 22.9501H40.9205C41.2736 22.9568 41.6186 23.0569 41.9205 23.2401C42.2425 23.4407 42.5469 23.6682 42.8305 23.9201L47.3205 28.0901L51.7705 23.9201C52.0556 23.6657 52.3636 23.438 52.6905 23.2401C52.9909 23.0537 53.3369 22.9533 53.6905 22.9501H53.9105C54.2549 22.9368 54.5976 23.0053 54.9105 23.1501C55.1701 23.271 55.4017 23.4447 55.5905 23.6601C55.7757 23.8707 55.9183 24.1152 56.0105 24.3801C56.0974 24.6379 56.1413 24.9081 56.1405 25.1801V36.9101H53.2305V26.4601L48.7205 30.5701V36.9101H45.8805Z" fill="white"/>
<path d="M61.5096 37.31C61.1658 37.3055 60.8262 37.2342 60.5096 37.1C60.1988 36.9644 59.9144 36.7748 59.6696 36.54C59.4301 36.3107 59.2396 36.0351 59.1096 35.73C58.9646 35.4166 58.8896 35.0753 58.8896 34.73V25.33C58.8909 24.9869 58.9589 24.6472 59.0896 24.33C59.3438 23.709 59.8324 23.2132 60.4496 22.95C60.7664 22.8177 61.1064 22.7497 61.4496 22.75H74.0596L74.4496 23.15V25.94L74.0596 26.34H62.5597V28.09H72.4797L72.8697 28.48V31.28L72.4797 31.67H62.5597V33.74H74.0596L74.4496 34.14V36.93L74.0596 37.33L61.5096 37.31Z" fill="white"/>
<path d="M59.2502 25.33C59.2462 25.0323 59.3006 24.7368 59.4102 24.46C59.5191 24.1979 59.6789 23.96 59.8802 23.76C60.0786 23.5559 60.3167 23.3947 60.5799 23.2863C60.843 23.1779 61.1256 23.1247 61.4102 23.13H74.0602V25.92H62.1602V28.46H72.4802V31.26H62.1602V34.12H74.0602V36.91H61.5102C61.2075 36.9123 60.9077 36.851 60.6302 36.73C60.3602 36.6249 60.115 36.4649 59.9102 36.26C59.6995 36.0676 59.5324 35.8323 59.4202 35.57C59.3093 35.3108 59.2515 35.0319 59.2502 34.75V25.33Z" fill="white"/>
<path d="M83.7002 37.3L83.3002 36.91V26.32H76.8402L76.4502 25.92V23.13L76.8402 22.73H93.4302L93.8202 23.13V25.92L93.4302 26.32H86.9902V36.91L86.5902 37.3H83.7002Z" fill="white"/>
<path d="M83.6998 25.9199H76.8398V23.1299H93.4298V25.9199H86.5898V36.9199H83.6998V25.9199Z" fill="white"/>
<path d="M106.73 37.3101L106.35 37.0301L105.29 33.3801L104.47 30.5801L103.22 26.3201H99.5603L96.4403 37.0001L96.0603 37.2801H92.9103L92.5303 36.7701L96.1203 25.1901C96.3028 24.4966 96.6731 23.8669 97.1903 23.3701C97.7526 22.9107 98.465 22.6756 99.1903 22.7101H103.53C104.256 22.6756 104.968 22.9107 105.53 23.3701C106.051 23.8676 106.427 24.4964 106.62 25.1901L110.2 36.7701L109.82 37.2801L106.73 37.3101Z" fill="white"/>
<path d="M109.88 36.9201H106.73L105.67 33.2701L104.84 30.4701L103.52 25.9301H99.2602L96.0602 36.9301H92.9102L96.4902 25.3501C96.6724 24.7246 97.0175 24.1586 97.4902 23.7101C97.9874 23.3041 98.6194 23.1005 99.2602 23.1401H103.6C104.241 23.1005 104.873 23.3041 105.37 23.7101C105.846 24.1561 106.192 24.723 106.37 25.3501L109.88 36.9201Z" fill="white"/>
<path d="M116.21 37.48C115.867 37.4868 115.527 37.4221 115.21 37.29C114.921 37.1653 114.657 36.9892 114.43 36.77C114.209 36.5565 114.033 36.3017 113.91 36.02C113.779 35.7345 113.711 35.4242 113.71 35.11V25.7C113.699 25.3567 113.764 25.0151 113.9 24.7C114.018 24.4121 114.191 24.1504 114.41 23.93C114.859 23.4897 115.462 23.2421 116.09 23.24H129.5V26.45H117.07V34.23H129.5V37.44L116.21 37.48Z" fill="white"/>
<path d="M116.21 36.8799C115.96 36.8792 115.712 36.8318 115.48 36.7399C115.258 36.6421 115.055 36.5068 114.88 36.3399C114.71 36.1781 114.574 35.9844 114.48 35.7699C114.389 35.5618 114.341 35.3371 114.34 35.1099V25.6999C114.339 25.4498 114.387 25.2019 114.48 24.9699C114.567 24.7565 114.696 24.5627 114.86 24.3999C115.019 24.2365 115.209 24.1073 115.42 24.0199C115.638 23.9275 115.873 23.8799 116.11 23.8799H128.9V25.8799H116.47V34.8799H128.9V36.8799H116.21Z" fill="white"/>
<path d="M133.33 37.48C132.987 37.4889 132.646 37.4241 132.33 37.29C132.04 37.1679 131.775 36.9914 131.55 36.77C131.326 36.5577 131.145 36.3027 131.02 36.02C130.89 35.7342 130.822 35.4241 130.82 35.11V23.28H134.13V34.28H143V23.28H146.31V35.07C146.318 35.413 146.253 35.7537 146.12 36.07C145.995 36.3533 145.819 36.6109 145.6 36.83C145.386 37.0492 145.127 37.2198 144.84 37.33C144.553 37.4421 144.248 37.4997 143.94 37.5L133.33 37.48Z" fill="white"/>
<path d="M133.32 36.8799C133.07 36.8792 132.823 36.8318 132.59 36.7399C132.37 36.6445 132.17 36.5089 132 36.3399C131.828 36.1807 131.691 35.9863 131.6 35.7699C131.501 35.564 131.45 35.3384 131.45 35.1099V23.8799H133.56V34.8799H143.56V23.8799H145.67V35.0699C145.671 35.3232 145.623 35.5743 145.53 35.8099C145.433 36.0236 145.302 36.2196 145.14 36.3899C144.978 36.5448 144.788 36.667 144.58 36.7499C144.365 36.8389 144.133 36.8831 143.9 36.8799H133.32Z" fill="white"/>
<path d="M160.46 37.4801L156.4 32.4201H152.32V29.2101H160.9V26.4901H151.14V37.4901H147.83V25.7001C147.821 25.358 147.882 25.0175 148.01 24.7001C148.127 24.4122 148.301 24.1505 148.52 23.9301C148.969 23.4898 149.571 23.2422 150.2 23.2401H161.82C162.164 23.2341 162.505 23.3023 162.82 23.4401C163.102 23.5627 163.36 23.7355 163.58 23.9501C163.797 24.1687 163.97 24.4266 164.09 24.7101C164.21 24.9984 164.271 25.3078 164.27 25.6201V30.0001C164.274 30.3428 164.209 30.6828 164.08 31.0001C163.956 31.2812 163.78 31.5358 163.56 31.7501C163.344 31.9581 163.094 32.1272 162.82 32.2501C162.535 32.37 162.229 32.4312 161.92 32.4301H160.57L163.77 36.5201L163.3 37.5201L160.46 37.4801Z" fill="white"/>
<path d="M160.75 36.88L156.69 31.82H152.92V29.82H161.5V25.89H150.5V36.89H148.39V25.7C148.384 25.4494 148.431 25.2003 148.53 24.97C148.614 24.757 148.74 24.5631 148.9 24.4C149.065 24.2387 149.258 24.1098 149.47 24.02C149.688 23.9268 149.923 23.8791 150.16 23.88H161.78C162.028 23.8775 162.274 23.9286 162.5 24.03C162.714 24.1268 162.91 24.2586 163.08 24.42C163.238 24.5812 163.364 24.7713 163.45 24.98C163.546 25.1936 163.594 25.4258 163.59 25.66V30C163.591 30.2468 163.544 30.4914 163.45 30.72C163.358 30.9303 163.226 31.1205 163.06 31.28C162.897 31.4375 162.707 31.566 162.5 31.66C162.292 31.7482 162.067 31.7924 161.84 31.79H160.07L159.76 32.43L163.22 36.85L160.75 36.88Z" fill="white"/>
<path d="M165.65 37.4799V34.2699H179.34V31.8299H168.06C167.735 31.8331 167.412 31.7719 167.11 31.6499C166.823 31.5311 166.562 31.3579 166.34 31.1399C166.125 30.9204 165.952 30.6627 165.83 30.3799C165.708 30.0887 165.647 29.7756 165.65 29.4599V25.6999C165.641 25.3577 165.702 25.0173 165.83 24.6999C165.951 24.414 166.124 24.1529 166.34 23.9299C166.557 23.713 166.815 23.5428 167.1 23.4299C167.39 23.3011 167.704 23.2362 168.02 23.2399H181.11V26.4499H169V28.5799H180.27C180.614 28.5694 180.955 28.6343 181.27 28.7699C181.553 28.8959 181.811 29.072 182.03 29.2899C182.247 29.5049 182.42 29.7595 182.54 30.0399C182.658 30.3288 182.72 30.6378 182.72 30.9499V35.0299C182.725 35.3497 182.664 35.6671 182.542 35.9628C182.42 36.2585 182.239 36.5263 182.01 36.7499C181.797 36.9686 181.542 37.1421 181.26 37.2599C180.972 37.38 180.663 37.4412 180.35 37.4399L165.65 37.4799Z" fill="white"/>
<path d="M166.25 36.8799V34.8799H179.94V31.2299H168.06C167.814 31.2307 167.569 31.1831 167.34 31.0899C167.124 31.0076 166.93 30.8777 166.77 30.7099C166.606 30.5517 166.477 30.3609 166.39 30.1499C166.293 29.9333 166.245 29.6975 166.25 29.4599V25.6999C166.249 25.4497 166.296 25.2016 166.39 24.9699C166.474 24.7569 166.6 24.563 166.76 24.3999C166.925 24.2387 167.118 24.1098 167.33 24.0199C167.549 23.9275 167.783 23.8799 168.02 23.8799H180.51V25.8799H168.36V29.2099H180.23C180.477 29.2091 180.722 29.2566 180.95 29.3499C181.168 29.4442 181.365 29.58 181.53 29.7499C181.693 29.9097 181.822 30.1 181.91 30.3099C181.988 30.5312 182.018 30.7661 182 30.9999V35.0799C182.001 35.3267 181.954 35.5713 181.86 35.7999C181.764 36.0136 181.632 36.2096 181.47 36.3799C181.305 36.54 181.112 36.6688 180.9 36.7599C180.688 36.8489 180.46 36.8931 180.23 36.8899L166.25 36.8799Z" fill="white"/>
<path d="M186.32 37.4801C185.977 37.489 185.636 37.4242 185.32 37.2901C185.03 37.1679 184.765 36.9915 184.54 36.7701C184.311 36.5521 184.127 36.2903 184 36.0001C183.869 35.7146 183.801 35.4043 183.8 35.0901V25.7001C183.794 25.3573 183.859 25.0168 183.99 24.7001C184.108 24.4122 184.281 24.1505 184.5 23.9301C184.715 23.7154 184.97 23.5454 185.25 23.4301C185.543 23.3002 185.86 23.2353 186.18 23.2401H198.35C198.694 23.2341 199.035 23.3023 199.35 23.4401C199.639 23.5623 199.903 23.735 200.13 23.9501C200.355 24.1661 200.535 24.4244 200.66 24.7101C200.791 24.9956 200.86 25.306 200.86 25.6201V35.0301C200.867 35.374 200.798 35.7151 200.66 36.0301C200.539 36.3129 200.366 36.5706 200.15 36.7901C199.933 37.0061 199.675 37.1762 199.39 37.2901C199.1 37.4023 198.791 37.4599 198.48 37.4601L186.32 37.4801ZM197.55 34.2701V26.4901H187.15V34.2701H197.55Z" fill="white"/>
<path d="M186.32 36.8799C186.067 36.8805 185.816 36.833 185.58 36.7399C185.361 36.6446 185.16 36.5089 184.99 36.3399C184.821 36.1781 184.685 35.9844 184.59 35.7699C184.491 35.564 184.44 35.3384 184.44 35.1099V25.6999C184.44 25.4498 184.487 25.2019 184.58 24.9699C184.668 24.7565 184.797 24.5627 184.96 24.3999C185.121 24.2388 185.311 24.1098 185.52 24.0199C185.742 23.9275 185.98 23.8799 186.22 23.8799H198.39C198.642 23.8784 198.89 23.9295 199.12 24.0299C199.342 24.1241 199.545 24.2561 199.72 24.4199C199.888 24.5812 200.021 24.7752 200.11 24.9899C200.211 25.199 200.262 25.4281 200.26 25.6599V35.0699C200.264 35.3245 200.213 35.5768 200.11 35.8099C200.017 36.0256 199.885 36.2222 199.72 36.3899C199.565 36.5481 199.378 36.6709 199.17 36.7499C198.951 36.8381 198.717 36.8823 198.48 36.8799H186.32ZM186.55 34.8799H198.15V25.8799H186.55V34.8799Z" fill="white"/>
<path d="M202.26 37.48V34.27H215.94V31.83H204.67C204.328 31.8374 203.988 31.7762 203.67 31.65C203.385 31.5312 203.127 31.3579 202.91 31.14C202.689 30.9201 202.514 30.6582 202.395 30.3696C202.277 30.0811 202.217 29.7719 202.22 29.46V25.7C202.21 25.3578 202.272 25.0174 202.4 24.7C202.551 24.4293 202.755 24.1914 203 24C203.214 23.7853 203.469 23.6153 203.75 23.5C204.043 23.3709 204.36 23.3061 204.68 23.31H217.76V26.52H205.56V28.65H216.84C217.183 28.6405 217.524 28.7053 217.84 28.84C218.122 28.9659 218.38 29.1421 218.6 29.36C218.812 29.5784 218.985 29.8322 219.11 30.11C219.228 30.3989 219.289 30.7079 219.29 31.02V35.1C219.294 35.4198 219.233 35.7372 219.111 36.0329C218.989 36.3286 218.808 36.5964 218.58 36.82C218.363 37.039 218.105 37.2124 217.82 37.33C217.535 37.4509 217.229 37.5122 216.92 37.51L202.26 37.48Z" fill="white"/>
<path d="M202.86 36.8799V34.8799H216.54V31.2299H204.67C204.42 31.2307 204.172 31.1832 203.94 31.0899C203.726 31.0025 203.532 30.8733 203.37 30.7099C203.209 30.5491 203.08 30.359 202.99 30.1499C202.9 29.9312 202.855 29.6964 202.86 29.4599V25.6999C202.862 25.4598 202.909 25.2223 203 24.9999C203.135 24.677 203.363 24.4014 203.655 24.2075C203.947 24.0136 204.289 23.9101 204.64 23.9099H217.12V25.9099H205V29.2399H216.88C217.122 29.2356 217.362 29.2814 217.586 29.3743C217.81 29.4672 218.012 29.6053 218.18 29.7799C218.501 30.1097 218.683 30.5498 218.69 31.0099V35.0899C218.69 35.3368 218.643 35.5814 218.55 35.8099C218.453 36.026 218.317 36.2226 218.15 36.3899C217.986 36.5475 217.797 36.676 217.59 36.7699C217.378 36.8589 217.15 36.9032 216.92 36.8999L202.86 36.8799Z" fill="white"/>
<path d="M100.71 33.48L101.5 30.26H106.81L107.76 33.48H100.71Z" fill="white"/>
<path d="M106.36 33.48L107.15 30.26H112.46L113.41 33.48H106.36Z" fill="white"/>
<path d="M109.05 33.48L109.84 30.26H115.15L116.1 33.48H109.05Z" fill="white"/>
</g>
<defs>
<linearGradient id="paint0_linear_225_2" x1="1.47527e-07" y1="30.11" x2="262.71" y2="30.11" gradientUnits="userSpaceOnUse">
<stop stop-color="#238DDD"/>
<stop offset="1" stop-color="#95E4F6"/>
</linearGradient>
<clipPath id="clip0_225_2">
<rect width="262.71" height="60.23" fill="white"/>
</clipPath>
</defs>
</svg>
