<svg width="452" height="113" viewBox="0 0 452 113" fill="none" xmlns="http://www.w3.org/2000/svg">
<path d="M194.792 71.8173H189.584C188.759 71.7818 187.952 71.5652 187.22 71.1831C186.342 70.827 185.545 70.2976 184.876 69.6265C184.198 68.9953 183.65 68.2381 183.261 67.3972C183.108 66.9552 182.954 66.5325 182.819 66.052L181.013 59.8255H158.336L160.604 50.7356H178.265L173.999 35.9573H160.104L149.611 71.8173L147.209 79.5043L145.287 85.5386H37.9766V77.1406H137.716L139.311 71.8173L151.053 34.0355C151.592 31.9962 152.667 30.1383 154.166 28.6546C155.788 27.3298 157.839 26.646 159.931 26.7329H174.056C176.151 26.6294 178.208 27.3151 179.821 28.6546C181.162 29.9269 182.155 31.5214 182.704 33.2861C182.828 33.5222 182.919 33.7745 182.973 34.0355L194.792 71.8173Z" fill="url(#paint0_linear_583_1243)"/>
<path d="M416.08 26.79V35.9568H195.174V62.6885H235.742V71.8552H197.884C197.711 71.8552 197.884 71.8552 197.749 71.8552C197.615 71.8552 194.751 62.2465 191.773 52.6377C188.794 43.0289 185.777 33.4201 185.738 33.3048C185.773 32.5836 185.936 31.8743 186.219 31.2101C186.564 30.3514 187.073 29.5681 187.718 28.904C188.38 28.2804 189.148 27.7794 189.985 27.4242C190.858 27.0456 191.802 26.862 192.753 26.8861H235.742L416.08 26.79Z" fill="url(#paint1_linear_583_1243)"/>
<path d="M242.221 44.6431H247.986V66.3589H266.185V44.6431H271.95V67.5312C271.956 68.1379 271.839 68.7396 271.604 69.2992C271.365 69.807 271.047 70.274 270.663 70.6829C270.272 71.0662 269.808 71.3669 269.298 71.5669C268.779 71.7755 268.224 71.88 267.665 71.8744H246.718C246.117 71.8785 245.522 71.7608 244.969 71.5285C243.913 71.1056 243.06 70.2939 242.586 69.2608C242.357 68.7465 242.24 68.19 242.24 67.6273L242.221 44.6431Z" fill="white"/>
<path d="M275.771 49.0057C275.763 48.4112 275.881 47.8217 276.117 47.2761C276.319 46.7573 276.626 46.2861 277.02 45.8924C277.414 45.5036 277.877 45.1909 278.384 44.97C278.915 44.7532 279.483 44.6423 280.056 44.6433H303.002C303.603 44.637 304.198 44.7548 304.751 44.9892C305.26 45.217 305.722 45.5362 306.115 45.9309C306.511 46.3199 306.824 46.7837 307.038 47.2953C307.262 47.8103 307.373 48.3673 307.365 48.9288V57.5575C307.373 58.152 307.255 58.7415 307.019 59.2871C306.808 59.805 306.486 60.2706 306.077 60.6515C305.693 61.0297 305.244 61.3356 304.751 61.5548C304.239 61.768 303.691 61.8789 303.137 61.8815H299.62L307.441 71.8746H300.523L292.509 61.8815H284.649V56.366H301.618V50.178H281.498V71.8746H275.732L275.771 49.0057Z" fill="white"/>
<path d="M310.999 66.3589H338.038V60.709H315.342C314.75 60.7198 314.161 60.6086 313.613 60.3823C313.094 60.1713 312.623 59.8575 312.229 59.4598C311.834 59.0639 311.522 58.5931 311.31 58.0751C311.099 57.557 310.993 57.0021 310.999 56.4427V49.0055C310.985 48.4123 311.096 47.8229 311.326 47.2759C311.528 46.757 311.835 46.2859 312.229 45.8922C312.627 45.5076 313.089 45.1954 313.594 44.9698C314.124 44.753 314.692 44.642 315.266 44.6431H340.71V50.1777H316.707V55.1935H339.384C339.984 55.1872 340.58 55.305 341.132 55.5394C341.645 55.7602 342.109 56.0802 342.497 56.4811C342.891 56.8631 343.205 57.3206 343.419 57.8263C343.633 58.3446 343.744 58.8993 343.746 59.4598V67.5312C343.75 68.1253 343.632 68.714 343.4 69.2608C343.175 69.7764 342.855 70.2456 342.458 70.6444C342.076 71.0334 341.618 71.3406 341.113 71.5477C340.598 71.7701 340.041 71.8814 339.48 71.8744H310.999V66.3589Z" fill="white"/>
<path d="M346.938 49.0057C346.93 48.4112 347.048 47.8217 347.284 47.2761C347.486 46.7573 347.793 46.2861 348.187 45.8924C348.581 45.5036 349.044 45.1909 349.551 44.97C350.082 44.7532 350.65 44.6423 351.223 44.6433H375.265C375.865 44.637 376.46 44.7548 377.013 44.9892C377.542 45.2116 378.024 45.531 378.435 45.9309C378.842 46.3183 379.169 46.7819 379.396 47.2953C379.627 47.809 379.744 48.3659 379.742 48.9288V67.5314C379.748 68.1382 379.631 68.7398 379.396 69.2995C379.164 69.8113 378.846 70.2793 378.455 70.6831C378.064 71.0665 377.6 71.3671 377.09 71.5671C376.571 71.7757 376.016 71.8802 375.457 71.8746H351.416C350.815 71.8787 350.22 71.7611 349.667 71.5287C349.141 71.3087 348.66 70.9962 348.245 70.6063C347.848 70.2102 347.523 69.7486 347.284 69.2418C347.055 68.7276 346.938 68.171 346.938 67.6083V49.0057ZM374.015 66.3015V50.178H352.665V66.3592L374.015 66.3015Z" fill="white"/>
<path d="M383.315 66.3589H410.354V60.709H387.677C387.084 60.7198 386.496 60.6086 385.948 60.3823C385.425 60.1794 384.952 59.8646 384.564 59.4598C383.769 58.656 383.321 57.573 383.315 56.4427V49.0055C383.307 48.411 383.425 47.8215 383.661 47.2759C383.863 46.757 384.17 46.2859 384.564 45.8922C384.958 45.5034 385.421 45.1906 385.928 44.9698C386.459 44.753 387.027 44.642 387.6 44.6431H413.044V50.1777H389.042V55.1935H411.718C412.313 55.1854 412.902 55.3033 413.448 55.5394C413.969 55.7552 414.44 56.0757 414.832 56.4811C415.22 56.8681 415.533 57.3244 415.754 57.8263C415.967 58.3446 416.078 58.8993 416.081 59.4598V67.5312C416.085 68.1253 415.967 68.714 415.735 69.2608C415.503 69.7726 415.184 70.2406 414.793 70.6445C414.403 71.0335 413.939 71.3406 413.429 71.5477C412.914 71.7718 412.357 71.8832 411.795 71.8744H383.315V66.3589Z" fill="white"/>
<path d="M52.6003 71.8364V59.3065L43.6833 51.1775V71.8364H37.918V48.6408C37.9153 48.1038 38.0063 47.5705 38.1871 47.0649C38.3601 46.5425 38.6344 46.0592 38.9942 45.6428C39.3745 45.2266 39.8312 44.8874 40.3394 44.6435C40.9404 44.3646 41.5992 44.2328 42.2612 44.2592H42.7032C43.4217 44.2447 44.1292 44.4382 44.7403 44.8165C45.3815 45.2099 45.986 45.6601 46.5467 46.1617L55.4252 54.406L64.2269 46.2001C64.7912 45.703 65.3953 45.2531 66.0333 44.8549C66.6505 44.4723 67.3635 44.2725 68.0896 44.2784H68.5124C69.1747 44.2482 69.8344 44.3802 70.4342 44.6627C70.9414 44.8948 71.3947 45.2299 71.7653 45.6468C72.1359 46.0637 72.4156 46.5532 72.5865 47.0841C72.773 47.5888 72.8706 48.122 72.8748 48.66V71.8364H67.1095V51.1775L58.1926 59.3065V71.8364H52.6003Z" fill="white"/>
<path d="M76.4102 48.9482C76.4089 48.3562 76.5198 47.7693 76.7369 47.2186C76.9506 46.707 77.2642 46.2431 77.6593 45.8541C78.0421 45.4517 78.5076 45.137 79.0238 44.9317C79.5545 44.7149 80.1224 44.604 80.6957 44.605H105.679V50.0436H82.1755V55.0593H102.565V60.594H82.1755V66.2248H105.659V71.7594H80.8879C80.2873 71.7657 79.692 71.648 79.1391 71.4135C78.6104 71.1912 78.1281 70.8718 77.717 70.4718C77.3104 70.0844 76.9839 69.6208 76.7561 69.1074C76.526 68.5937 76.408 68.0368 76.4102 67.4739V48.9482Z" fill="white"/>
<path d="M122.13 50.0436H108.582V44.605H141.348V50.0436H127.896V71.7594H122.13V50.0436Z" fill="white"/>
<path d="M450 110.06H209.185H2V2H179.705H450V110.06Z" stroke="url(#paint2_linear_583_1243)" stroke-width="4" stroke-miterlimit="10"/>
<defs>
<linearGradient id="paint0_linear_583_1243" x1="37.9766" y1="56.1742" x2="194.792" y2="56.1742" gradientUnits="userSpaceOnUse">
<stop stop-color="#238DDD"/>
<stop offset="0.08" stop-color="#3DA1E3"/>
<stop offset="0.22" stop-color="#63BEEB"/>
<stop offset="0.34" stop-color="#7ED3F1"/>
<stop offset="0.45" stop-color="#8FDFF5"/>
<stop offset="0.54" stop-color="#95E4F6"/>
<stop offset="0.74" stop-color="#93E3F6"/>
<stop offset="0.81" stop-color="#8CDDF4"/>
<stop offset="0.87" stop-color="#81D4F2"/>
<stop offset="0.91" stop-color="#70C7EE"/>
<stop offset="0.95" stop-color="#5AB7E9"/>
<stop offset="0.98" stop-color="#3FA2E3"/>
<stop offset="1" stop-color="#2B93DF"/>
</linearGradient>
<linearGradient id="paint1_linear_583_1243" x1="185.046" y1="49.3323" x2="397.093" y2="49.3323" gradientUnits="userSpaceOnUse">
<stop stop-color="#238DDD"/>
<stop offset="0.03" stop-color="#369BE1"/>
<stop offset="0.08" stop-color="#53B2E8"/>
<stop offset="0.13" stop-color="#6BC4ED"/>
<stop offset="0.19" stop-color="#7ED2F1"/>
<stop offset="0.26" stop-color="#8BDCF4"/>
<stop offset="0.35" stop-color="#93E2F6"/>
<stop offset="0.54" stop-color="#95E4F6"/>
<stop offset="0.62" stop-color="#91E1F5"/>
<stop offset="0.71" stop-color="#84D7F2"/>
<stop offset="0.81" stop-color="#6FC7EE"/>
<stop offset="0.9" stop-color="#51B0E7"/>
<stop offset="0.99" stop-color="#2C93DF"/>
<stop offset="1" stop-color="#2B93DF"/>
</linearGradient>
<linearGradient id="paint2_linear_583_1243" x1="-1.84351" y1="56.0206" x2="453.844" y2="56.0206" gradientUnits="userSpaceOnUse">
<stop stop-color="#238DDD"/>
<stop offset="1" stop-color="#95E4F6"/>
</linearGradient>
</defs>
</svg>
