<svg width="310" height="210" viewBox="0 0 310 210" fill="none" xmlns="http://www.w3.org/2000/svg">
<g id="Monitoreo">
<g id="Liderazgo">
<path id="Vector" opacity="0.7" d="M282.45 40.875L269.91 62.575H68.1602V61.145L70.0902 60.045C70.8002 59.625 71.2602 58.845 71.2602 57.995V22.495C71.2602 21.645 70.7902 20.865 70.0902 20.445L68.1602 19.345V19.145H269.91L282.45 40.865V40.875Z" fill="url(#paint0_linear_538_976)"/>
<path id="Vector_2" opacity="0.7" d="M68.02 21.065L37.29 3.315C36.55 2.895 35.65 2.895 34.92 3.315L4.18 21.065C3.44 21.485 3 22.265 3 23.115V58.605C3 59.455 3.46 60.235 4.18 60.655L34.91 78.395C35.65 78.815 36.55 78.815 37.28 78.395L68.01 60.655C68.75 60.235 69.19 59.455 69.19 58.605V23.115C69.19 22.265 68.73 21.485 68.01 21.065H68.02Z" stroke="url(#paint1_linear_538_976)" stroke-width="4.06" stroke-linecap="round" stroke-linejoin="round"/>
<g id="Group" opacity="0.7">
<path id="Vector_3" d="M52.4201 25.595C52.7201 25.795 53.1201 25.715 53.3201 25.415C53.4301 25.245 53.4501 25.035 53.4001 24.845L51.4501 18.995C51.3501 18.705 51.0701 18.525 50.7701 18.545L44.2701 19.195C43.9101 19.225 43.6601 19.555 43.6901 19.905C43.7101 20.085 43.8001 20.255 43.9501 20.365L46.0401 21.935L42.0401 27.645H31.9801C31.8001 27.645 31.6201 27.725 31.5001 27.855L11.8301 49.125V58.225L28.9901 39.265L30.4801 46.905C30.6701 47.815 31.4601 48.465 32.4001 48.475H37.6901L35.9001 57.445C35.9001 57.445 35.8901 57.535 35.8901 57.565V60.165H46.2901V56.985L48.2101 48.685L53.0401 39.045C53.3601 38.405 53.3101 37.655 52.9001 37.065L47.6601 29.505L51.0101 24.655L52.4301 25.605V25.585L52.4201 25.595ZM42.0501 43.905V42.605C42.0501 42.245 41.7601 41.955 41.4001 41.955H40.2601C39.4601 41.955 38.8001 41.295 38.8001 40.495V38.715H41.1801L43.3401 40.345V43.925H42.0401L42.0501 43.905ZM42.7001 35.445H38.1501C37.7901 35.445 37.5001 35.735 37.5001 36.095V40.485C37.5001 42.015 38.7401 43.245 40.2601 43.245H40.7501V43.895H34.4201L31.9901 35.985L34.8801 32.845H44.6501L48.1201 38.035L44.6701 42.975V37.395C44.6701 36.315 43.8001 35.445 42.7201 35.445H42.7001ZM51.8701 38.455L47.0101 48.175C47.0101 48.175 46.9701 48.265 46.9501 48.315L45.0001 56.765C45.0001 56.765 44.9901 56.865 44.9901 56.905H37.3301L39.1201 47.935C39.1901 47.575 38.9601 47.245 38.6101 47.165C38.5701 47.165 38.5201 47.155 38.4901 47.155H32.4101C32.1001 47.155 31.8301 46.935 31.7701 46.635L30.0901 38.055L30.1201 38.015L30.9601 37.105L33.3101 44.745C33.4001 45.015 33.6401 45.205 33.9301 45.205H41.6301L40.7501 50.955V54.305H42.0501V51.105L42.9501 45.195H44.3401C44.5501 45.195 44.7501 45.095 44.8701 44.915L49.4201 38.415C49.5801 38.195 49.5801 37.905 49.4201 37.675L45.7601 32.195L46.8501 30.625L51.8101 37.775C51.9401 37.975 51.9701 38.225 51.8501 38.435H51.8401L51.8701 38.455Z" fill="url(#paint2_linear_538_976)"/>
<path id="Vector_4" d="M11.8303 44.2249L25.1703 30.2149L26.3303 31.3749C26.5903 31.6349 27.0003 31.6349 27.2503 31.3749C27.3703 31.2549 27.4403 31.0849 27.4403 30.9149V25.7149C27.4403 25.3549 27.1503 25.0649 26.7903 25.0649H21.5903C21.2303 25.0649 20.9403 25.3549 20.9403 25.7149C20.9403 25.8849 21.0103 26.0449 21.1303 26.1749L22.6203 27.6649L11.8303 38.4449V44.2249H11.8203H11.8303Z" fill="url(#paint3_linear_538_976)"/>
</g>
<g id="Group_2">
<path id="Vector_5" d="M274.06 55.6048L270.03 62.5648H205.27L201.25 55.6048L205.27 48.6548H270.03L274.06 55.6048Z" fill="white"/>
<g id="Group_3">
<path id="Vector_6" d="M212.099 54.0947C212.099 55.5147 211.049 56.4047 209.379 56.4047H208.129L207.829 57.9447H206.529L207.649 52.3447H209.909C211.309 52.3447 212.099 52.9947 212.099 54.0847V54.0947ZM210.789 54.2047C210.789 53.6647 210.409 53.4047 209.749 53.4047H208.729L208.339 55.3447H209.439C210.299 55.3447 210.789 54.9447 210.789 54.2047Z" fill="black"/>
<path id="Vector_7" d="M215.769 53.5847L215.549 54.7347C215.439 54.7347 215.369 54.7147 215.259 54.7147C214.519 54.7147 214.049 55.0547 213.889 55.8647L213.469 57.9447H212.219L213.079 53.6447H214.259L214.159 54.1547C214.539 53.7347 215.069 53.5747 215.769 53.5747V53.5847Z" fill="black"/>
<path id="Vector_8" d="M215.68 56.085C215.68 54.655 216.77 53.585 218.28 53.585C219.6 53.585 220.45 54.345 220.45 55.515C220.45 56.945 219.37 58.015 217.85 58.015C216.54 58.015 215.68 57.245 215.68 56.085ZM219.18 55.565C219.18 54.985 218.83 54.615 218.2 54.615C217.46 54.615 216.94 55.195 216.94 56.035C216.94 56.615 217.3 56.985 217.92 56.985C218.65 56.985 219.18 56.405 219.18 55.565Z" fill="black"/>
<path id="Vector_9" d="M223.609 55.795L224.809 57.945H223.489L222.789 56.625L221.549 57.945H220.129L222.279 55.735L221.139 53.645H222.429L223.109 54.905L224.309 53.645H225.689L223.619 55.795H223.609Z" fill="black"/>
<path id="Vector_10" d="M226.309 53.6448H227.549L226.689 57.9448H225.449L226.309 53.6448ZM226.409 52.3948C226.409 51.9748 226.739 51.6548 227.229 51.6548C227.669 51.6548 227.969 51.9248 227.969 52.2748C227.969 52.7348 227.629 53.0448 227.139 53.0448C226.699 53.0448 226.409 52.7548 226.409 52.3948Z" fill="black"/>
<path id="Vector_11" d="M235.64 55.035C235.64 55.205 235.62 55.375 235.58 55.565L235.11 57.945H233.86L234.32 55.655C234.34 55.535 234.35 55.435 234.35 55.325C234.35 54.895 234.12 54.665 233.67 54.665C233.09 54.665 232.69 55.005 232.54 55.745L232.1 57.955H230.85L231.31 55.665C231.33 55.545 231.34 55.445 231.34 55.345C231.34 54.905 231.11 54.675 230.66 54.675C230.08 54.675 229.68 55.015 229.52 55.775L229.09 57.965H227.84L228.7 53.665H229.88L229.78 54.115C230.16 53.775 230.63 53.605 231.13 53.605C231.72 53.605 232.21 53.845 232.45 54.305C232.87 53.845 233.43 53.605 234.09 53.605C235.01 53.605 235.63 54.105 235.63 55.065L235.64 55.035Z" fill="black"/>
<path id="Vector_12" d="M241.519 53.645L240.659 57.945H239.479L239.559 57.525C239.219 57.835 238.769 58.015 238.239 58.015C237.239 58.015 236.389 57.315 236.389 56.085C236.389 54.635 237.439 53.585 238.759 53.585C239.379 53.585 239.879 53.785 240.159 54.235L240.269 53.655H241.519V53.645ZM239.889 55.565C239.889 54.985 239.529 54.615 238.909 54.615C238.169 54.615 237.649 55.195 237.649 56.035C237.649 56.615 238.009 56.985 238.629 56.985C239.369 56.985 239.889 56.405 239.889 55.565Z" fill="black"/>
<path id="Vector_13" d="M249.599 55.035C249.599 55.205 249.579 55.375 249.539 55.565L249.069 57.945H247.819L248.279 55.655C248.299 55.535 248.309 55.435 248.309 55.325C248.309 54.895 248.079 54.665 247.629 54.665C247.049 54.665 246.649 55.005 246.499 55.745L246.059 57.955H244.809L245.269 55.665C245.289 55.545 245.299 55.445 245.299 55.345C245.299 54.905 245.069 54.675 244.619 54.675C244.039 54.675 243.639 55.015 243.479 55.775L243.049 57.965H241.799L242.659 53.665H243.839L243.739 54.115C244.119 53.775 244.589 53.605 245.089 53.605C245.679 53.605 246.169 53.845 246.409 54.305C246.829 53.845 247.389 53.605 248.049 53.605C248.969 53.605 249.589 54.105 249.589 55.065L249.599 55.035Z" fill="black"/>
<path id="Vector_14" d="M254.85 56.135H251.56C251.6 56.715 251.96 57.015 252.67 57.015C253.11 57.015 253.53 56.875 253.82 56.615L254.34 57.435C253.84 57.835 253.2 58.015 252.54 58.015C251.2 58.015 250.34 57.255 250.34 56.085C250.34 54.645 251.38 53.585 252.87 53.585C254.13 53.585 254.92 54.325 254.92 55.475C254.92 55.705 254.89 55.935 254.85 56.135ZM251.64 55.405H253.77C253.77 54.835 253.39 54.515 252.81 54.515C252.23 54.515 251.8 54.865 251.63 55.405H251.64Z" fill="black"/>
<path id="Vector_15" d="M260.2 55.0449C260.2 55.2049 260.18 55.3849 260.14 55.5649L259.66 57.9449H258.41L258.87 55.6449C258.89 55.5449 258.9 55.4349 258.9 55.3449C258.9 54.9049 258.66 54.6549 258.16 54.6549C257.53 54.6549 257.09 55.0049 256.94 55.7549L256.51 57.9349H255.26L256.12 53.6349H257.3L257.2 54.0949C257.59 53.7349 258.09 53.5649 258.62 53.5649C259.56 53.5649 260.19 54.0749 260.19 55.0249L260.2 55.0449Z" fill="black"/>
<path id="Vector_16" d="M262.5 56.4248C262.48 56.4848 262.48 56.5448 262.48 56.6048C262.48 56.8648 262.62 57.0248 262.94 57.0248C263.11 57.0248 263.28 56.9648 263.44 56.8748L263.62 57.7648C263.31 57.9548 262.92 58.0248 262.55 58.0248C261.75 58.0248 261.21 57.5748 261.21 56.8248C261.21 56.7048 261.23 56.5748 261.25 56.4448L261.59 54.7048H260.93L261.12 53.7448H261.78L261.99 52.6948H263.24L263.03 53.7448H264.1L263.91 54.7048H262.84L262.5 56.4348V56.4248Z" fill="black"/>
<path id="Vector_17" d="M268.75 56.135H265.46C265.5 56.715 265.86 57.015 266.57 57.015C267.01 57.015 267.43 56.875 267.72 56.615L268.24 57.435C267.74 57.835 267.1 58.015 266.44 58.015C265.1 58.015 264.24 57.255 264.24 56.085C264.24 54.645 265.28 53.585 266.77 53.585C268.02 53.585 268.82 54.325 268.82 55.475C268.82 55.705 268.79 55.935 268.75 56.135ZM265.54 55.405H267.67C267.67 54.835 267.29 54.515 266.71 54.515C266.13 54.515 265.7 54.865 265.53 55.405H265.54Z" fill="black"/>
</g>
</g>
<g id="Group_4" opacity="0.7">
<path id="Vector_18" d="M88.9805 35.9646H90.9205V42.7746H95.1305V44.3546H88.9805V35.9546V35.9646Z" fill="white"/>
<path id="Vector_19" d="M95.8711 35.9648C95.8711 35.3748 96.3411 34.9248 97.0311 34.9248C97.7211 34.9248 98.1911 35.3548 98.1911 35.9348C98.1911 36.5548 97.7211 37.0148 97.0311 37.0148C96.3411 37.0148 95.8711 36.5548 95.8711 35.9748V35.9648ZM96.1011 37.9048H97.9711V44.3548H96.1011V37.9048Z" fill="white"/>
<path id="Vector_20" d="M106.28 35.4546V44.3546H104.49V43.6146C104.02 44.1746 103.34 44.4546 102.48 44.4546C100.66 44.4546 99.25 43.1646 99.25 41.1346C99.25 39.1046 100.65 37.8146 102.48 37.8146C103.27 37.8146 103.94 38.0646 104.41 38.5946V35.4646H106.28V35.4546ZM104.45 41.1246C104.45 40.0046 103.73 39.3346 102.81 39.3346C101.89 39.3346 101.15 40.0046 101.15 41.1246C101.15 42.2446 101.87 42.9146 102.81 42.9146C103.75 42.9146 104.45 42.2446 104.45 41.1246Z" fill="white"/>
<path id="Vector_21" d="M114.301 41.6649H109.421C109.601 42.4649 110.281 42.9549 111.271 42.9549C111.951 42.9549 112.451 42.7549 112.891 42.3349L113.891 43.4149C113.291 44.0949 112.391 44.4549 111.231 44.4549C109.001 44.4549 107.551 43.0549 107.551 41.1349C107.551 39.2149 109.031 37.8149 110.991 37.8149C112.951 37.8149 114.351 39.0849 114.351 41.1649C114.351 41.3049 114.331 41.5149 114.311 41.6649H114.301ZM109.391 40.5749H112.571C112.441 39.7549 111.831 39.2349 110.991 39.2349C110.151 39.2349 109.531 39.7549 109.401 40.5749H109.391Z" fill="white"/>
<path id="Vector_22" d="M119.59 37.8149V39.5449C119.43 39.5349 119.31 39.5249 119.17 39.5249C118.14 39.5249 117.46 40.0849 117.46 41.3249V44.3749H115.59V37.9249H117.38V38.7749C117.84 38.1549 118.6 37.8249 119.6 37.8249L119.59 37.8149Z" fill="white"/>
<path id="Vector_23" d="M126.38 40.6747V44.3547H124.63V43.5547C124.28 44.1447 123.61 44.4547 122.66 44.4547C121.15 44.4547 120.25 43.6147 120.25 42.4947C120.25 41.3747 121.05 40.5647 123.02 40.5647H124.51C124.51 39.7647 124.03 39.2947 123.02 39.2947C122.34 39.2947 121.63 39.5247 121.16 39.8947L120.49 38.5847C121.2 38.0847 122.24 37.8047 123.27 37.8047C125.24 37.8047 126.38 38.7147 126.38 40.6747ZM124.51 42.3147V41.6547H123.23C122.35 41.6547 122.08 41.9747 122.08 42.4047C122.08 42.8747 122.48 43.1847 123.14 43.1847C123.76 43.1847 124.3 42.8947 124.52 42.3047L124.51 42.3147Z" fill="white"/>
<path id="Vector_24" d="M133.391 42.915V44.355H127.631V43.225L130.921 39.335H127.721V37.895H133.281V39.025L129.991 42.915H133.381H133.391Z" fill="white"/>
<path id="Vector_25" d="M141.16 37.9049V43.2749C141.16 45.6749 139.87 46.7749 137.54 46.7749C136.32 46.7749 135.13 46.4749 134.37 45.8849L135.11 44.5449C135.66 44.9849 136.56 45.2749 137.39 45.2749C138.71 45.2749 139.28 44.6749 139.28 43.5149V43.2349C138.79 43.7749 138.08 44.0349 137.24 44.0349C135.45 44.0349 134.01 42.7949 134.01 40.9149C134.01 39.0349 135.45 37.7949 137.24 37.7949C138.14 37.7949 138.88 38.0949 139.37 38.7149V37.8849H141.14L141.16 37.9049ZM139.31 40.9249C139.31 39.9749 138.6 39.3449 137.62 39.3449C136.64 39.3449 135.92 39.9849 135.92 40.9249C135.92 41.8649 136.64 42.5049 137.62 42.5049C138.6 42.5049 139.31 41.8649 139.31 40.9249Z" fill="white"/>
<path id="Vector_26" d="M142.43 41.1349C142.43 39.1949 143.93 37.8149 145.98 37.8149C148.03 37.8149 149.52 39.1949 149.52 41.1349C149.52 43.0749 148.03 44.4549 145.98 44.4549C143.93 44.4549 142.43 43.0749 142.43 41.1349ZM147.62 41.1349C147.62 40.0149 146.91 39.3449 145.98 39.3449C145.05 39.3449 144.32 40.0149 144.32 41.1349C144.32 42.2549 145.04 42.9249 145.98 42.9249C146.92 42.9249 147.62 42.2549 147.62 41.1349Z" fill="white"/>
<path id="Vector_27" d="M161.19 41.1347C161.19 43.1647 159.79 44.4547 157.98 44.4547C157.18 44.4547 156.52 44.2047 156.04 43.6747V46.6847H154.17V37.9047H155.96V38.6447C156.43 38.0847 157.12 37.8047 157.99 37.8047C159.8 37.8047 161.2 39.1047 161.2 41.1247L161.19 41.1347ZM159.3 41.1347C159.3 40.0147 158.59 39.3447 157.66 39.3447C156.73 39.3447 156.02 40.0147 156.02 41.1347C156.02 42.2547 156.73 42.9247 157.66 42.9247C158.59 42.9247 159.3 42.2547 159.3 41.1347Z" fill="white"/>
<path id="Vector_28" d="M168.04 40.6747V44.3547H166.29V43.5547C165.94 44.1447 165.27 44.4547 164.32 44.4547C162.81 44.4547 161.91 43.6147 161.91 42.4947C161.91 41.3747 162.71 40.5647 164.68 40.5647H166.17C166.17 39.7647 165.69 39.2947 164.68 39.2947C164 39.2947 163.29 39.5247 162.82 39.8947L162.15 38.5847C162.86 38.0847 163.9 37.8047 164.93 37.8047C166.9 37.8047 168.04 38.7147 168.04 40.6747ZM166.17 42.3147V41.6547H164.89C164.01 41.6547 163.74 41.9747 163.74 42.4047C163.74 42.8747 164.14 43.1847 164.8 43.1847C165.42 43.1847 165.96 42.8947 166.18 42.3047L166.17 42.3147Z" fill="white"/>
<path id="Vector_29" d="M173.74 37.8149V39.5449C173.58 39.5349 173.46 39.5249 173.32 39.5249C172.29 39.5249 171.61 40.0849 171.61 41.3249V44.3749H169.74V37.9249H171.53V38.7749C171.99 38.1549 172.75 37.8249 173.75 37.8249L173.74 37.8149Z" fill="white"/>
<path id="Vector_30" d="M180.54 40.6747V44.3547H178.79V43.5547C178.44 44.1447 177.77 44.4547 176.82 44.4547C175.31 44.4547 174.41 43.6147 174.41 42.4947C174.41 41.3747 175.21 40.5647 177.18 40.5647H178.67C178.67 39.7647 178.19 39.2947 177.18 39.2947C176.5 39.2947 175.79 39.5247 175.32 39.8947L174.65 38.5847C175.36 38.0847 176.4 37.8047 177.43 37.8047C179.4 37.8047 180.54 38.7147 180.54 40.6747ZM178.67 42.3147V41.6547H177.39C176.51 41.6547 176.24 41.9747 176.24 42.4047C176.24 42.8747 176.64 43.1847 177.3 43.1847C177.92 43.1847 178.46 42.8947 178.68 42.3047L178.67 42.3147Z" fill="white"/>
<path id="Vector_31" d="M191.91 41.6649H187.03C187.21 42.4649 187.89 42.9549 188.88 42.9549C189.56 42.9549 190.06 42.7549 190.5 42.3349L191.5 43.4149C190.9 44.0949 190 44.4549 188.84 44.4549C186.61 44.4549 185.16 43.0549 185.16 41.1349C185.16 39.2149 186.64 37.8149 188.6 37.8149C190.56 37.8149 191.96 39.0849 191.96 41.1649C191.96 41.3049 191.94 41.5149 191.92 41.6649H191.91ZM187 40.5749H190.18C190.05 39.7549 189.44 39.2349 188.6 39.2349C187.76 39.2349 187.14 39.7549 187.01 40.5749H187Z" fill="white"/>
<path id="Vector_32" d="M193.201 35.4546H195.071V44.3546H193.201V35.4546Z" fill="white"/>
<path id="Vector_33" d="M202.261 38.0547H203.921V39.4947H202.311V44.3647H200.441V39.4947H199.441V38.0547H200.441V37.7647C200.441 36.3147 201.331 35.3647 202.931 35.3647C203.461 35.3647 204.011 35.4747 204.361 35.7147L203.871 37.0747C203.671 36.9347 203.401 36.8447 203.111 36.8447C202.561 36.8447 202.261 37.1447 202.261 37.7847V38.0647V38.0547Z" fill="white"/>
<path id="Vector_34" d="M211.351 37.905V44.355H209.571V43.585C209.081 44.145 208.361 44.445 207.571 44.445C205.951 44.445 204.811 43.535 204.811 41.545V37.895H206.681V41.265C206.681 42.345 207.161 42.825 207.991 42.825C208.821 42.825 209.481 42.275 209.481 41.085V37.895H211.351V37.905Z" fill="white"/>
<path id="Vector_35" d="M217.26 44.0449C216.88 44.3249 216.31 44.4549 215.74 44.4549C214.22 44.4549 213.33 43.6749 213.33 42.1449V39.4949H212.33V38.0549H213.33V36.4849H215.2V38.0549H216.81V39.4949H215.2V42.1249C215.2 42.6749 215.5 42.9749 216 42.9749C216.28 42.9749 216.55 42.8949 216.76 42.7349L217.26 44.0549V44.0449Z" fill="white"/>
<path id="Vector_36" d="M224.81 37.905V44.355H223.03V43.585C222.54 44.145 221.82 44.445 221.03 44.445C219.41 44.445 218.27 43.535 218.27 41.545V37.895H220.14V41.265C220.14 42.345 220.62 42.825 221.45 42.825C222.28 42.825 222.94 42.275 222.94 41.085V37.895H224.81V37.905Z" fill="white"/>
<path id="Vector_37" d="M230.561 37.8149V39.5449C230.401 39.5349 230.281 39.5249 230.141 39.5249C229.111 39.5249 228.431 40.0849 228.431 41.3249V44.3749H226.561V37.9249H228.351V38.7749C228.811 38.1549 229.571 37.8249 230.571 37.8249L230.561 37.8149Z" fill="white"/>
<path id="Vector_38" d="M231.141 41.1349C231.141 39.1949 232.641 37.8149 234.691 37.8149C236.741 37.8149 238.231 39.1949 238.231 41.1349C238.231 43.0749 236.741 44.4549 234.691 44.4549C232.641 44.4549 231.141 43.0749 231.141 41.1349ZM236.331 41.1349C236.331 40.0149 235.621 39.3449 234.691 39.3449C233.761 39.3449 233.031 40.0149 233.031 41.1349C233.031 42.2549 233.751 42.9249 234.691 42.9249C235.631 42.9249 236.331 42.2549 236.331 41.1349Z" fill="white"/>
</g>
</g>
<g id="SOC">
<path id="Vector_39" opacity="0.7" d="M309.979 105.745L297.539 127.285H97.2793V125.865L99.1893 124.765C99.8993 124.345 100.349 123.575 100.349 122.725V87.505C100.349 86.665 99.8893 85.895 99.1893 85.465L97.2793 84.365V84.165H297.529L309.969 105.725L309.979 105.745Z" fill="url(#paint4_linear_538_976)"/>
<path id="Vector_40" opacity="0.7" d="M101.72 87.955V123.185C101.72 124.025 101.27 124.795 100.54 125.225L97.64 126.895L70.04 142.845C69.31 143.265 68.41 143.265 67.67 142.845L37.18 125.215C36.45 124.795 36 124.025 36 123.175V87.955C36 87.115 36.45 86.345 37.18 85.915L67.68 68.315C68.41 67.895 69.31 67.895 70.05 68.315L96.87 83.795L100.55 85.915C101.28 86.335 101.73 87.105 101.73 87.955H101.72V87.955Z" stroke="url(#paint5_linear_538_976)" stroke-width="4.06" stroke-linecap="round" stroke-linejoin="round"/>
<g id="Group_5" opacity="0.7">
<path id="Vector_41" d="M82.701 101.755L80.821 100.425C80.651 100.305 80.441 100.255 80.231 100.295L79.301 100.465L79.021 98.895L81.551 98.455C81.981 98.375 82.261 97.975 82.191 97.545C82.121 97.115 81.711 96.835 81.281 96.905L78.751 97.345L78.471 95.775L79.401 95.605C79.611 95.575 79.791 95.455 79.911 95.285L81.241 93.405C81.481 93.055 81.411 92.565 81.051 92.305C80.701 92.065 80.211 92.135 79.951 92.495L78.811 94.105L77.431 94.345L77.361 93.945C77.231 93.155 76.811 92.495 76.221 92.035L75.971 90.555C75.891 90.125 75.491 89.845 75.061 89.915C74.631 89.985 74.351 90.395 74.421 90.825L74.511 91.355C74.241 91.335 73.981 91.355 73.711 91.385C73.441 91.415 73.181 91.515 72.951 91.615L72.861 91.085C72.781 90.655 72.381 90.375 71.951 90.445C71.521 90.515 71.241 90.925 71.311 91.355L71.561 92.835C71.171 93.465 71.011 94.235 71.141 95.025L71.211 95.425L69.831 95.665L68.221 94.525C67.871 94.285 67.381 94.355 67.121 94.715C66.881 95.065 66.951 95.555 67.311 95.815L69.191 97.145C69.361 97.265 69.571 97.315 69.781 97.275L70.711 97.105L70.991 98.675L68.461 99.115C68.031 99.195 67.751 99.595 67.821 100.025C67.891 100.455 68.301 100.735 68.731 100.665L71.261 100.225L71.541 101.795L70.611 101.965C70.401 101.995 70.221 102.115 70.101 102.285L68.771 104.165C68.531 104.515 68.601 105.005 68.961 105.265C69.141 105.385 69.351 105.435 69.551 105.395C69.751 105.355 69.941 105.255 70.061 105.075L71.201 103.465L71.891 103.345C72.551 105.055 74.361 106.125 76.241 105.785C78.121 105.445 79.451 103.845 79.501 102.015L80.191 101.895L81.801 103.035C81.981 103.155 82.191 103.205 82.391 103.165C82.591 103.125 82.781 103.025 82.901 102.845C83.141 102.495 83.071 102.005 82.711 101.745L82.701 101.755ZM74.001 92.985C74.861 92.835 75.681 93.415 75.841 94.265L75.911 94.665L72.791 95.205L72.721 94.805C72.571 93.945 73.151 93.125 74.001 92.965V92.985ZM77.901 101.535C78.081 102.555 77.581 103.535 76.721 104.015L75.791 98.695C75.711 98.265 75.311 97.985 74.881 98.055C74.451 98.125 74.171 98.535 74.241 98.965L75.171 104.285C74.211 104.135 73.401 103.365 73.221 102.345L72.271 96.905L76.941 96.085L77.891 101.525H77.901V101.535Z" fill="url(#paint6_linear_538_976)"/>
<path id="Vector_42" d="M72.2905 83.2049C64.1305 84.6349 58.6505 92.4249 60.0805 100.595C60.6405 103.805 62.1805 106.605 64.3505 108.725L63.2005 110.355L63.1605 110.325C62.9905 110.205 62.7805 110.155 62.5705 110.195C62.3605 110.235 62.1805 110.345 62.0605 110.515L54.4605 121.335C53.9505 122.055 53.7605 122.925 53.9205 123.805C54.0805 124.685 54.5505 125.435 55.2705 125.935C55.9905 126.435 56.8605 126.635 57.7405 126.475C58.6205 126.315 59.3705 125.845 59.8705 125.125L67.4705 114.305C67.7105 113.955 67.6405 113.465 67.2805 113.205L67.2405 113.175L68.3905 111.545C71.1205 112.865 74.2705 113.375 77.4805 112.805C85.6405 111.375 91.1205 103.585 89.6905 95.4149C88.2605 87.2549 80.4705 81.7749 72.3005 83.2049H72.2905ZM58.5905 124.215C58.3205 124.595 57.9305 124.845 57.4705 124.925C57.0105 125.005 56.5505 124.905 56.1805 124.635C55.8005 124.365 55.5505 123.975 55.4705 123.515C55.3905 123.055 55.4905 122.595 55.7605 122.225L62.9105 112.045L62.9505 112.075L65.6905 113.995L65.7305 114.025L58.5805 124.205L58.5905 124.215ZM65.9605 112.285H65.9405L64.5005 111.255L65.5505 109.765C66.0105 110.135 66.5005 110.475 67.0105 110.795L65.9605 112.285ZM77.2105 111.275C69.9005 112.555 62.9105 107.645 61.6405 100.335C60.3705 93.0249 65.2705 86.0349 72.5805 84.7649C79.8905 83.4849 86.8805 88.3949 88.1505 95.7049C89.4305 103.015 84.5205 110.005 77.2105 111.275Z" fill="url(#paint7_linear_538_976)"/>
<path id="Vector_43" d="M85.3895 92.435C85.1895 92.045 84.7195 91.905 84.3295 92.115C83.9395 92.315 83.7995 92.785 84.0095 93.175C84.9495 94.945 85.3495 96.935 85.1695 98.925C85.1395 99.355 85.4495 99.735 85.8795 99.775H86.0895C86.4295 99.715 86.6995 99.435 86.7295 99.075C86.9295 96.775 86.4795 94.485 85.3895 92.445V92.425V92.435Z" fill="url(#paint8_linear_538_976)"/>
<path id="Vector_44" d="M84.0112 90.395L83.9912 90.375C83.7112 90.045 83.2212 89.995 82.8812 90.275C82.5412 90.555 82.5012 91.045 82.7812 91.385V91.405C82.9812 91.625 83.2712 91.725 83.5312 91.685C83.6612 91.665 83.7812 91.605 83.9012 91.515C84.2312 91.235 84.2812 90.745 84.0012 90.405H84.0112V90.395Z" fill="url(#paint9_linear_538_976)"/>
</g>
<g id="Group_6">
<path id="Vector_45" d="M301.531 120.435L297.501 127.395H232.741L228.721 120.435L232.741 113.485H297.501L301.531 120.435Z" fill="white"/>
<g id="Group_7">
<path id="Vector_46" d="M239.57 118.915C239.57 120.335 238.52 121.225 236.85 121.225H235.6L235.3 122.765H234L235.12 117.165H237.38C238.78 117.165 239.57 117.815 239.57 118.905V118.915ZM238.26 119.025C238.26 118.485 237.88 118.225 237.22 118.225H236.2L235.81 120.165H236.91C237.77 120.165 238.26 119.765 238.26 119.025Z" fill="black"/>
<path id="Vector_47" d="M243.23 118.405L243.01 119.555C242.9 119.555 242.83 119.535 242.72 119.535C241.98 119.535 241.51 119.875 241.35 120.685L240.93 122.765H239.68L240.54 118.465H241.72L241.62 118.975C242 118.555 242.53 118.395 243.23 118.395V118.405Z" fill="black"/>
<path id="Vector_48" d="M243.15 120.905C243.15 119.475 244.24 118.405 245.75 118.405C247.07 118.405 247.92 119.165 247.92 120.335C247.92 121.765 246.84 122.835 245.32 122.835C244.01 122.835 243.15 122.065 243.15 120.905ZM246.65 120.385C246.65 119.805 246.3 119.435 245.67 119.435C244.93 119.435 244.41 120.015 244.41 120.855C244.41 121.435 244.77 121.805 245.39 121.805C246.12 121.805 246.65 121.225 246.65 120.385Z" fill="black"/>
<path id="Vector_49" d="M251.07 120.625L252.27 122.775H250.95L250.25 121.455L249.01 122.775H247.59L249.74 120.565L248.6 118.475H249.89L250.57 119.735L251.77 118.475H253.15L251.08 120.625H251.07Z" fill="black"/>
<path id="Vector_50" d="M253.78 118.475H255.02L254.16 122.775H252.92L253.78 118.475ZM253.88 117.225C253.88 116.805 254.21 116.485 254.7 116.485C255.14 116.485 255.44 116.755 255.44 117.105C255.44 117.565 255.1 117.875 254.61 117.875C254.17 117.875 253.88 117.585 253.88 117.225Z" fill="black"/>
<path id="Vector_51" d="M263.111 119.865C263.111 120.035 263.091 120.205 263.051 120.395L262.581 122.775H261.331L261.791 120.485C261.811 120.365 261.821 120.265 261.821 120.155C261.821 119.725 261.591 119.495 261.141 119.495C260.561 119.495 260.161 119.835 260.011 120.575L259.571 122.785H258.321L258.781 120.495C258.801 120.375 258.811 120.275 258.811 120.175C258.811 119.735 258.581 119.505 258.131 119.505C257.551 119.505 257.151 119.845 256.991 120.605L256.561 122.795H255.311L256.171 118.495H257.351L257.251 118.945C257.631 118.605 258.101 118.435 258.601 118.435C259.191 118.435 259.681 118.675 259.921 119.135C260.341 118.675 260.901 118.435 261.561 118.435C262.481 118.435 263.101 118.935 263.101 119.895L263.111 119.865Z" fill="black"/>
<path id="Vector_52" d="M268.98 118.475L268.12 122.775H266.94L267.02 122.355C266.68 122.665 266.23 122.845 265.7 122.845C264.7 122.845 263.85 122.145 263.85 120.915C263.85 119.465 264.9 118.415 266.22 118.415C266.84 118.415 267.34 118.615 267.62 119.065L267.73 118.485H268.98V118.475ZM267.35 120.395C267.35 119.815 266.99 119.445 266.37 119.445C265.63 119.445 265.11 120.025 265.11 120.865C265.11 121.445 265.47 121.815 266.09 121.815C266.83 121.815 267.35 121.235 267.35 120.395Z" fill="black"/>
<path id="Vector_53" d="M277.07 119.865C277.07 120.035 277.05 120.205 277.01 120.395L276.54 122.775H275.29L275.75 120.485C275.77 120.365 275.78 120.265 275.78 120.155C275.78 119.725 275.55 119.495 275.1 119.495C274.52 119.495 274.12 119.835 273.97 120.575L273.53 122.785H272.28L272.74 120.495C272.76 120.375 272.77 120.275 272.77 120.175C272.77 119.735 272.54 119.505 272.09 119.505C271.51 119.505 271.11 119.845 270.95 120.605L270.52 122.795H269.27L270.13 118.495H271.31L271.21 118.945C271.59 118.605 272.06 118.435 272.56 118.435C273.15 118.435 273.64 118.675 273.88 119.135C274.3 118.675 274.86 118.435 275.52 118.435C276.44 118.435 277.06 118.935 277.06 119.895L277.07 119.865Z" fill="black"/>
<path id="Vector_54" d="M282.321 120.955H279.031C279.071 121.535 279.431 121.835 280.141 121.835C280.581 121.835 281.001 121.695 281.291 121.435L281.811 122.255C281.311 122.655 280.671 122.835 280.011 122.835C278.671 122.835 277.811 122.075 277.811 120.905C277.811 119.465 278.851 118.405 280.341 118.405C281.601 118.405 282.391 119.145 282.391 120.295C282.391 120.525 282.361 120.755 282.321 120.955ZM279.111 120.225H281.241C281.241 119.655 280.861 119.335 280.281 119.335C279.701 119.335 279.271 119.685 279.101 120.225H279.111Z" fill="black"/>
<path id="Vector_55" d="M287.67 119.875C287.67 120.035 287.65 120.215 287.61 120.395L287.13 122.775H285.88L286.34 120.475C286.36 120.375 286.37 120.265 286.37 120.175C286.37 119.735 286.13 119.485 285.63 119.485C285 119.485 284.56 119.835 284.41 120.585L283.98 122.765H282.73L283.59 118.465H284.77L284.67 118.925C285.06 118.565 285.56 118.395 286.09 118.395C287.03 118.395 287.66 118.905 287.66 119.855L287.67 119.875Z" fill="black"/>
<path id="Vector_56" d="M289.97 121.255C289.95 121.315 289.95 121.375 289.95 121.435C289.95 121.695 290.09 121.855 290.41 121.855C290.58 121.855 290.75 121.795 290.91 121.705L291.09 122.595C290.78 122.785 290.39 122.855 290.02 122.855C289.22 122.855 288.68 122.405 288.68 121.655C288.68 121.535 288.7 121.405 288.72 121.275L289.06 119.535H288.4L288.59 118.575H289.25L289.46 117.525H290.71L290.5 118.575H291.57L291.38 119.535H290.31L289.97 121.265V121.255Z" fill="black"/>
<path id="Vector_57" d="M296.221 120.955H292.931C292.971 121.535 293.331 121.835 294.041 121.835C294.481 121.835 294.901 121.695 295.191 121.435L295.711 122.255C295.211 122.655 294.571 122.835 293.911 122.835C292.571 122.835 291.711 122.075 291.711 120.905C291.711 119.465 292.751 118.405 294.241 118.405C295.491 118.405 296.291 119.145 296.291 120.295C296.291 120.525 296.261 120.755 296.221 120.955ZM293.011 120.225H295.141C295.141 119.655 294.761 119.335 294.181 119.335C293.601 119.335 293.171 119.685 293.001 120.225H293.011Z" fill="black"/>
</g>
</g>
<g id="Group_8" opacity="0.7">
<path id="Vector_58" d="M122.47 107.435H118.57L117.83 109.235H115.84L119.58 100.835H121.5L125.25 109.235H123.21L122.47 107.435ZM121.86 105.955L120.53 102.745L119.2 105.955H121.86Z" fill="white"/>
<path id="Vector_59" d="M132.6 105.545V109.235H130.73V105.825C130.73 104.785 130.25 104.305 129.42 104.305C128.52 104.305 127.87 104.855 127.87 106.045V109.235H126V102.785H127.79V103.535C128.29 102.985 129.05 102.685 129.92 102.685C131.44 102.685 132.59 103.575 132.59 105.535L132.6 105.545Z" fill="white"/>
<path id="Vector_60" d="M139.999 105.555V109.235H138.249V108.435C137.899 109.025 137.229 109.335 136.279 109.335C134.769 109.335 133.869 108.495 133.869 107.375C133.869 106.255 134.669 105.445 136.639 105.445H138.129C138.129 104.645 137.649 104.175 136.639 104.175C135.959 104.175 135.249 104.405 134.779 104.775L134.109 103.465C134.819 102.965 135.859 102.685 136.889 102.685C138.859 102.685 139.999 103.595 139.999 105.555ZM138.129 107.195V106.535H136.849C135.969 106.535 135.699 106.855 135.699 107.285C135.699 107.755 136.099 108.065 136.759 108.065C137.379 108.065 137.919 107.775 138.139 107.185L138.129 107.195Z" fill="white"/>
<path id="Vector_61" d="M141.689 100.335H143.559V109.235H141.689V100.335Z" fill="white"/>
<path id="Vector_62" d="M145.08 100.835C145.08 100.245 145.55 99.7949 146.24 99.7949C146.93 99.7949 147.4 100.225 147.4 100.805C147.4 101.425 146.93 101.885 146.24 101.885C145.55 101.885 145.08 101.425 145.08 100.845V100.835ZM145.31 102.775H147.18V109.225H145.31V102.775Z" fill="white"/>
<path id="Vector_63" d="M148.301 108.635L148.921 107.295C149.501 107.665 150.371 107.915 151.161 107.915C152.021 107.915 152.351 107.685 152.351 107.325C152.351 106.275 148.451 107.345 148.451 104.775C148.451 103.555 149.551 102.685 151.441 102.685C152.331 102.685 153.311 102.885 153.921 103.245L153.301 104.575C152.661 104.215 152.031 104.095 151.441 104.095C150.601 104.095 150.241 104.355 150.241 104.695C150.241 105.795 154.141 104.735 154.141 107.275C154.141 108.475 153.021 109.325 151.091 109.325C150.001 109.325 148.901 109.025 148.301 108.625V108.635Z" fill="white"/>
<path id="Vector_64" d="M159.45 108.925C159.07 109.205 158.5 109.335 157.93 109.335C156.41 109.335 155.52 108.555 155.52 107.025V104.375H154.52V102.935H155.52V101.365H157.39V102.935H159V104.375H157.39V107.005C157.39 107.555 157.69 107.855 158.19 107.855C158.47 107.855 158.74 107.775 158.95 107.615L159.45 108.935V108.925Z" fill="white"/>
<path id="Vector_65" d="M166.22 105.555V109.235H164.47V108.435C164.12 109.025 163.45 109.335 162.5 109.335C160.99 109.335 160.09 108.495 160.09 107.375C160.09 106.255 160.89 105.445 162.86 105.445H164.35C164.35 104.645 163.87 104.175 162.86 104.175C162.18 104.175 161.47 104.405 161 104.775L160.33 103.465C161.04 102.965 162.08 102.685 163.11 102.685C165.08 102.685 166.22 103.595 166.22 105.555ZM164.35 107.195V106.535H163.07C162.19 106.535 161.92 106.855 161.92 107.285C161.92 107.755 162.32 108.065 162.98 108.065C163.6 108.065 164.14 107.775 164.36 107.185L164.35 107.195Z" fill="white"/>
<path id="Vector_66" d="M170.779 108.405L171.439 106.945C172.149 107.465 173.199 107.825 174.209 107.825C175.359 107.825 175.829 107.445 175.829 106.925C175.829 105.355 170.949 106.435 170.949 103.315C170.949 101.885 172.099 100.705 174.489 100.705C175.549 100.705 176.619 100.955 177.399 101.445L176.799 102.925C176.019 102.485 175.219 102.265 174.469 102.265C173.319 102.265 172.879 102.695 172.879 103.225C172.879 104.775 177.759 103.705 177.759 106.785C177.759 108.185 176.599 109.385 174.199 109.385C172.869 109.385 171.529 108.985 170.779 108.415V108.405Z" fill="white"/>
<path id="Vector_67" d="M178.57 105.035C178.57 102.535 180.51 100.695 183.16 100.695C185.81 100.695 187.75 102.525 187.75 105.035C187.75 107.545 185.8 109.375 183.16 109.375C180.52 109.375 178.57 107.525 178.57 105.035ZM185.79 105.035C185.79 103.435 184.66 102.345 183.16 102.345C181.66 102.345 180.53 103.435 180.53 105.035C180.53 106.635 181.66 107.725 183.16 107.725C184.66 107.725 185.79 106.635 185.79 105.035Z" fill="white"/>
<path id="Vector_68" d="M188.699 105.035C188.699 102.505 190.639 100.695 193.259 100.695C194.709 100.695 195.919 101.225 196.709 102.185L195.459 103.335C194.899 102.685 194.189 102.355 193.349 102.355C191.779 102.355 190.659 103.455 190.659 105.045C190.659 106.635 191.779 107.735 193.349 107.735C194.189 107.735 194.899 107.395 195.459 106.735L196.709 107.885C195.919 108.855 194.709 109.385 193.239 109.385C190.639 109.385 188.689 107.575 188.689 105.045L188.699 105.035Z" fill="white"/>
<path id="Vector_69" d="M209.12 100.835V109.235H207.53L203.34 104.135V109.235H201.42V100.835H203.03L207.2 105.935V100.835H209.12Z" fill="white"/>
<path id="Vector_70" d="M210.75 100.835C210.75 100.245 211.22 99.7949 211.91 99.7949C212.6 99.7949 213.07 100.225 213.07 100.805C213.07 101.425 212.6 101.885 211.91 101.885C211.22 101.885 210.75 101.425 210.75 100.845V100.835ZM210.98 102.775H212.85V109.225H210.98V102.775Z" fill="white"/>
<path id="Vector_71" d="M221.001 102.785L218.281 109.235H216.351L213.641 102.785H215.571L217.361 107.175L219.211 102.785H221.011H221.001Z" fill="white"/>
<path id="Vector_72" d="M227.869 106.535H222.989C223.169 107.335 223.849 107.825 224.839 107.825C225.519 107.825 226.019 107.625 226.459 107.205L227.459 108.285C226.859 108.965 225.959 109.325 224.799 109.325C222.569 109.325 221.119 107.925 221.119 106.005C221.119 104.085 222.599 102.685 224.559 102.685C226.519 102.685 227.919 103.955 227.919 106.035C227.919 106.175 227.899 106.385 227.879 106.535H227.869ZM222.959 105.445H226.139C226.009 104.625 225.399 104.105 224.559 104.105C223.719 104.105 223.099 104.625 222.969 105.445H222.959Z" fill="white"/>
<path id="Vector_73" d="M229.16 100.335H231.03V109.235H229.16V100.335Z" fill="white"/>
<path id="Vector_74" d="M239.011 100.835V109.235H237.071V102.395H235.391V100.835H239.011Z" fill="white"/>
<path id="Vector_75" d="M242.74 108.155C242.74 108.465 242.69 108.695 242.42 109.355L241.74 111.085H240.55L241.08 109.175C240.68 109.015 240.43 108.645 240.43 108.155C240.43 107.455 240.93 107.005 241.59 107.005C242.25 107.005 242.74 107.475 242.74 108.155Z" fill="white"/>
<path id="Vector_76" d="M253.009 107.655V109.235H246.669V107.975L249.909 104.915C250.649 104.205 250.789 103.775 250.789 103.365C250.789 102.705 250.329 102.325 249.449 102.325C248.729 102.325 248.119 102.605 247.709 103.165L246.289 102.255C246.939 101.305 248.109 100.695 249.619 100.695C251.489 100.695 252.739 101.655 252.739 103.175C252.739 103.995 252.509 104.735 251.339 105.825L249.409 107.645H253.019L253.009 107.655Z" fill="white"/>
<path id="Vector_77" d="M264.021 102.785L261.111 109.635C260.491 111.195 259.601 111.665 258.441 111.665C257.781 111.665 257.061 111.445 256.641 111.075L257.321 109.745C257.611 109.995 258.001 110.155 258.381 110.155C258.901 110.155 259.181 109.925 259.441 109.355L259.461 109.295L256.671 102.795H258.601L260.411 107.175L262.231 102.795H264.031L264.021 102.785Z" fill="white"/>
<path id="Vector_78" d="M273.991 106.665C273.991 108.085 272.901 109.375 270.511 109.375C269.331 109.375 268.121 109.055 267.311 108.475L268.061 106.985C268.701 107.465 269.581 107.745 270.461 107.745C271.431 107.745 272.031 107.345 272.031 106.665C272.031 106.025 271.561 105.635 270.461 105.635H269.571V104.355L271.301 102.395H267.731V100.835H273.611V102.095L271.721 104.255C273.231 104.495 274.001 105.435 274.001 106.665H273.991Z" fill="white"/>
</g>
</g>
<g id="SD-WAN">
<path id="Vector_79" opacity="0.7" d="M282.46 170.025L269.91 191.735H68.0098V190.305L69.9398 189.205C70.6498 188.785 71.1098 188.005 71.1098 187.155V151.655C71.1098 150.805 70.6398 150.025 69.9398 149.605L68.0098 148.505V148.305H269.92L282.47 170.045L282.46 170.025Z" fill="url(#paint10_linear_538_976)"/>
<path id="Vector_80" opacity="0.7" d="M69.25 152.125V187.645C69.25 188.495 68.79 189.275 68.08 189.695L66.04 190.865L37.31 207.455C36.57 207.875 35.68 207.875 34.95 207.455L4.17 189.705C3.45 189.285 3 188.505 3 187.655V152.125C3 151.275 3.46 150.495 4.17 150.075L34.94 132.315C35.68 131.895 36.57 131.895 37.3 132.315L63.46 147.425L68.05 150.075C68.77 150.495 69.22 151.275 69.22 152.125H69.24H69.25Z" stroke="url(#paint11_linear_538_976)" stroke-width="4.06" stroke-linecap="round" stroke-linejoin="round"/>
<g id="Group_9" opacity="0.7">
<path id="Vector_81" d="M20.5086 185.655C19.4286 185.655 18.5586 186.535 18.5586 187.605C18.5586 188.675 19.4386 189.555 20.5086 189.555C21.5786 189.555 22.4586 188.675 22.4586 187.605C22.4586 186.535 21.5786 185.655 20.5086 185.655ZM20.5086 188.255C20.1486 188.255 19.8586 187.965 19.8586 187.605C19.8586 187.245 20.1486 186.955 20.5086 186.955C20.8686 186.955 21.1586 187.245 21.1586 187.605C21.1586 187.965 20.8686 188.255 20.5086 188.255Z" fill="url(#paint12_linear_538_976)"/>
<path id="Vector_82" d="M17.2891 184.385L18.2191 185.315C18.8291 184.705 19.6491 184.365 20.5191 184.365C21.3891 184.365 22.1991 184.695 22.8191 185.315L23.7491 184.385C22.8891 183.525 21.7391 183.045 20.5291 183.045C19.3191 183.045 18.1691 183.515 17.3091 184.385H17.2891Z" fill="url(#paint13_linear_538_976)"/>
<path id="Vector_83" d="M15.4492 182.545L16.3792 183.475C18.6692 181.185 22.3792 181.185 24.6692 183.475L25.5992 182.545C22.8092 179.755 18.2592 179.755 15.4692 182.545H15.4592H15.4492Z" fill="url(#paint14_linear_538_976)"/>
<path id="Vector_84" d="M53.05 185.655H51.75V183.055H50.45V185.655H49.15V184.355H47.85V185.655H46.55V181.755H45.25V186.965H53.06V185.665H53.08L53.05 185.655Z" fill="url(#paint15_linear_538_976)"/>
<path id="Vector_85" d="M53.6991 164.825H48.4891C47.4091 164.825 46.5391 165.705 46.5391 166.775V168.725H43.9091C43.7691 166.885 43.0391 165.205 41.8991 163.875L48.1191 157.655H53.0591C54.4991 157.655 55.6591 156.485 55.6591 155.055C55.6591 153.825 54.8091 152.805 53.6591 152.525C53.3791 150.645 51.7491 149.205 49.7991 149.205C47.8491 149.205 46.2191 150.655 45.9391 152.525C44.7991 152.805 43.9391 153.825 43.9391 155.055C43.9391 156.405 44.9791 157.505 46.2991 157.635L40.9791 162.955C39.6491 161.815 37.9791 161.085 36.1291 160.945V158.315H38.0791C39.1591 158.315 40.0291 157.435 40.0291 156.365V151.155C40.0291 150.075 39.1491 149.205 38.0791 149.205H32.8691C31.7891 149.205 30.9191 150.085 30.9191 151.155V156.365C30.9191 157.445 31.7991 158.315 32.8691 158.315H34.8191V160.945C32.9791 161.085 31.2991 161.815 29.9691 162.955L26.8391 159.825C27.7491 158.695 28.3091 157.275 28.3091 155.705C28.3091 152.115 25.3891 149.195 21.7991 149.195C18.2091 149.195 15.2891 152.115 15.2891 155.705C15.2891 159.295 18.2091 162.215 21.7991 162.215C23.3591 162.215 24.7891 161.655 25.9191 160.745L29.0491 163.875C27.9091 165.205 27.1791 166.875 27.0391 168.725H24.4091V166.775C24.4091 165.695 23.5291 164.825 22.4591 164.825H17.2491C16.1691 164.825 15.2991 165.705 15.2991 166.775V171.985C15.2991 173.065 16.1791 173.935 17.2491 173.935H22.4591C23.5391 173.935 24.4091 173.055 24.4091 171.985V170.035H27.0391C27.1791 171.875 27.9091 173.555 29.0491 174.885L24.5891 179.345L25.5191 180.275L29.9791 175.815C31.3091 176.955 32.9791 177.685 34.8291 177.825V180.455H32.8791C31.7991 180.455 30.9291 181.335 30.9291 182.405V187.615C30.9291 188.695 31.8091 189.565 32.8791 189.565H38.0891C39.1691 189.565 40.0391 188.685 40.0391 187.615V182.405C40.0391 181.325 39.1591 180.455 38.0891 180.455H36.1391V177.825C37.9791 177.685 39.6591 176.955 40.9891 175.815L44.3591 179.185C43.3991 179.305 42.6491 180.125 42.6491 181.115V187.625C42.6491 188.705 43.5291 189.575 44.5991 189.575H53.7091C54.7891 189.575 55.6591 188.695 55.6591 187.625V181.115C55.6591 180.035 54.7791 179.165 53.7091 179.165H46.1691L41.9091 174.905C43.0491 173.575 43.7791 171.905 43.9191 170.055H46.5491V172.005C46.5491 173.085 47.4291 173.955 48.4991 173.955H53.7091C54.7891 173.955 55.6591 173.075 55.6591 172.005V166.795C55.6591 165.715 54.7791 164.845 53.7091 164.845H53.6891L53.6991 164.825ZM38.7291 154.395H32.2191V153.095H38.7291V154.395ZM32.8791 150.495H38.0891C38.4491 150.495 38.7391 150.785 38.7391 151.145V151.795H32.2291V151.145C32.2291 150.785 32.5191 150.495 32.8791 150.495H32.8891H32.8791ZM32.2291 156.345V155.695H38.7391V156.345C38.7391 156.705 38.4491 156.995 38.0891 156.995H32.8791C32.5191 156.995 32.2291 156.705 32.2291 156.345H32.2191H32.2291ZM17.2591 166.105H22.4691C22.8291 166.105 23.1191 166.395 23.1191 166.755V167.405H16.6091V166.755C16.6091 166.395 16.8991 166.105 17.2591 166.105H17.2691H17.2591ZM23.1091 168.705V170.005H16.5991V168.705H23.1091ZM22.4591 172.605H17.2491C16.8891 172.605 16.5991 172.315 16.5991 171.955V171.305H23.1091V171.955C23.1091 172.315 22.8191 172.605 22.4591 172.605H22.4491H22.4591ZM32.2191 184.315H38.7291V185.615H32.2191V184.315ZM38.0691 188.215H32.8591C32.4991 188.215 32.2091 187.925 32.2091 187.565V186.915H38.7191V187.565C38.7191 187.925 38.4291 188.215 38.0691 188.215H38.0591H38.0691ZM38.7191 182.365V183.015H32.2091V182.365C32.2091 182.005 32.4991 181.715 32.8591 181.715H38.0691C38.4291 181.715 38.7191 182.005 38.7191 182.365H38.7291H38.7191ZM35.4591 176.515C34.7591 176.515 34.0091 175.525 33.4991 173.915H37.4091C36.8991 175.525 36.1491 176.515 35.4491 176.515H35.4591ZM33.1691 172.615C33.0091 171.825 32.8991 170.955 32.8691 170.015H38.0391C38.0091 170.955 37.8991 171.835 37.7391 172.615H33.1691ZM28.3291 170.015H31.5591C31.5891 170.945 31.6791 171.815 31.8291 172.615H29.0891C28.6791 171.825 28.4191 170.945 28.3291 170.015ZM35.4591 162.205C36.1591 162.205 36.9091 163.195 37.4191 164.805H33.5091C34.0191 163.195 34.7691 162.205 35.4691 162.205H35.4591ZM37.7491 166.105C37.9091 166.895 38.0191 167.765 38.0491 168.705H32.8791C32.9091 167.765 33.0191 166.885 33.1791 166.105H37.7491ZM31.5691 168.705H28.3391C28.4291 167.775 28.6891 166.895 29.0991 166.105H31.8391C31.6991 166.905 31.6091 167.785 31.5691 168.705ZM39.3491 170.005H42.5791C42.4891 170.935 42.2291 171.815 41.8191 172.605H39.0791C39.2191 171.805 39.3091 170.925 39.3491 170.005ZM39.3491 168.705C39.3191 167.775 39.2291 166.905 39.0791 166.105H41.8191C42.2291 166.895 42.4891 167.775 42.5791 168.705H39.3491ZM45.2291 155.035C45.2291 154.325 45.8091 153.735 46.5291 153.735H47.1791V153.085C47.1791 151.645 48.3491 150.485 49.7791 150.485C51.0291 150.485 52.0691 151.365 52.3191 152.535C51.2291 152.845 50.4191 153.855 50.4191 155.045H51.7191C51.7191 154.335 52.2991 153.745 53.0191 153.745C53.7391 153.745 54.3191 154.325 54.3191 155.045C54.3191 155.765 53.7391 156.345 53.0191 156.345H46.5091C45.7991 156.345 45.2091 155.765 45.2091 155.045H45.2191L45.2291 155.035ZM40.9791 164.785H38.7791C38.5491 163.935 38.2291 163.215 37.8791 162.615C39.0991 163.045 40.1691 163.805 40.9791 164.785ZM33.0391 162.615C32.6791 163.215 32.3691 163.945 32.1391 164.785H29.9391C30.7491 163.805 31.8191 163.045 33.0391 162.615ZM21.7891 150.475C24.6591 150.475 26.9991 152.805 26.9991 155.685C26.9991 156.645 26.7291 157.535 26.2891 158.305C25.7091 157.305 24.8091 156.535 23.7491 156.095C24.1491 155.635 24.3991 155.045 24.3991 154.385C24.3991 152.945 23.2291 151.785 21.7991 151.785C20.3691 151.785 19.1991 152.955 19.1991 154.385C19.1991 155.045 19.4591 155.635 19.8491 156.095C18.7891 156.525 17.8891 157.315 17.3091 158.305C16.8591 157.535 16.5991 156.645 16.5991 155.685C16.5991 152.815 18.9291 150.475 21.8091 150.475H21.7891ZM20.4891 154.375C20.4891 153.665 21.0691 153.075 21.7891 153.075C22.5091 153.075 23.0891 153.655 23.0891 154.375C23.0891 155.095 22.5091 155.675 21.7891 155.675C21.0691 155.675 20.4891 155.095 20.4891 154.375ZM18.1791 159.425C18.7691 157.975 20.1991 156.985 21.7791 156.985C23.3591 156.985 24.7891 157.975 25.3791 159.425C24.4391 160.325 23.1691 160.885 21.7791 160.885C20.3891 160.885 19.1091 160.325 18.1791 159.425ZM29.9291 173.905H32.1291C32.3591 174.755 32.6791 175.475 33.0291 176.075C31.8091 175.645 30.7391 174.885 29.9291 173.905ZM37.8691 176.075C38.2291 175.475 38.5391 174.745 38.7691 173.905H40.9691C40.1591 174.885 39.0891 175.645 37.8691 176.075ZM54.3291 181.055V187.565C54.3291 187.925 54.0391 188.215 53.6791 188.215H44.5691C44.2091 188.215 43.9191 187.925 43.9191 187.565V181.055C43.9191 180.695 44.2091 180.405 44.5691 180.405H53.6791C54.0391 180.405 54.3291 180.695 54.3291 181.055ZM48.4791 166.085H53.6891C54.0491 166.085 54.3391 166.375 54.3391 166.735V167.385H47.8291V166.735C47.8291 166.375 48.1191 166.085 48.4791 166.085H48.4891H48.4791ZM54.3291 168.685V169.985H47.8191V168.685H54.3291ZM53.6791 172.585H48.4691C48.1091 172.585 47.8191 172.295 47.8191 171.935V171.285H54.3291V171.935C54.3291 172.295 54.0391 172.585 53.6791 172.585H53.6691H53.6791Z" fill="url(#paint16_linear_538_976)"/>
</g>
<g id="Group_10">
<path id="Vector_86" d="M273.82 184.975L269.79 191.935H205.03L201.01 184.975L205.03 178.025H269.79L273.82 184.975Z" fill="white"/>
<g id="Group_11">
<path id="Vector_87" d="M211.859 183.455C211.859 184.875 210.809 185.765 209.139 185.765H207.889L207.589 187.305H206.289L207.409 181.705H209.669C211.069 181.705 211.859 182.355 211.859 183.445V183.455ZM210.549 183.565C210.549 183.025 210.169 182.765 209.509 182.765H208.489L208.099 184.705H209.199C210.059 184.705 210.549 184.305 210.549 183.565Z" fill="black"/>
<path id="Vector_88" d="M215.519 182.945L215.299 184.095C215.189 184.095 215.119 184.075 215.009 184.075C214.269 184.075 213.799 184.415 213.639 185.225L213.219 187.305H211.969L212.829 183.005H214.009L213.909 183.515C214.289 183.095 214.819 182.935 215.519 182.935V182.945Z" fill="black"/>
<path id="Vector_89" d="M215.439 185.455C215.439 184.025 216.529 182.955 218.039 182.955C219.359 182.955 220.209 183.715 220.209 184.885C220.209 186.315 219.129 187.385 217.609 187.385C216.299 187.385 215.439 186.615 215.439 185.455ZM218.939 184.935C218.939 184.355 218.589 183.985 217.959 183.985C217.219 183.985 216.699 184.565 216.699 185.405C216.699 185.985 217.059 186.355 217.679 186.355C218.409 186.355 218.939 185.775 218.939 184.935Z" fill="black"/>
<path id="Vector_90" d="M223.359 185.165L224.559 187.315H223.239L222.539 185.995L221.299 187.315H219.879L222.029 185.105L220.889 183.015H222.179L222.859 184.275L224.059 183.015H225.439L223.369 185.165H223.359Z" fill="black"/>
<path id="Vector_91" d="M226.069 183.015H227.309L226.449 187.315H225.209L226.069 183.015ZM226.169 181.765C226.169 181.345 226.499 181.025 226.989 181.025C227.429 181.025 227.729 181.295 227.729 181.645C227.729 182.105 227.389 182.415 226.899 182.415C226.459 182.415 226.169 182.125 226.169 181.765Z" fill="black"/>
<path id="Vector_92" d="M235.4 184.405C235.4 184.575 235.38 184.745 235.34 184.935L234.87 187.315H233.62L234.08 185.025C234.1 184.905 234.11 184.805 234.11 184.695C234.11 184.265 233.88 184.035 233.43 184.035C232.85 184.035 232.45 184.375 232.3 185.115L231.86 187.325H230.61L231.07 185.035C231.09 184.915 231.1 184.815 231.1 184.715C231.1 184.275 230.87 184.045 230.42 184.045C229.84 184.045 229.44 184.385 229.28 185.145L228.85 187.335H227.6L228.46 183.035H229.64L229.54 183.485C229.92 183.145 230.39 182.975 230.89 182.975C231.48 182.975 231.97 183.215 232.21 183.675C232.63 183.215 233.19 182.975 233.85 182.975C234.77 182.975 235.39 183.475 235.39 184.435L235.4 184.405Z" fill="black"/>
<path id="Vector_93" d="M241.269 183.015L240.409 187.315H239.229L239.309 186.895C238.969 187.205 238.519 187.385 237.989 187.385C236.989 187.385 236.139 186.685 236.139 185.455C236.139 184.005 237.189 182.955 238.509 182.955C239.129 182.955 239.629 183.155 239.909 183.605L240.019 183.025H241.269V183.015ZM239.639 184.935C239.639 184.355 239.279 183.985 238.659 183.985C237.919 183.985 237.399 184.565 237.399 185.405C237.399 185.985 237.759 186.355 238.379 186.355C239.119 186.355 239.639 185.775 239.639 184.935Z" fill="black"/>
<path id="Vector_94" d="M249.359 184.405C249.359 184.575 249.339 184.745 249.299 184.935L248.829 187.315H247.579L248.039 185.025C248.059 184.905 248.069 184.805 248.069 184.695C248.069 184.265 247.839 184.035 247.389 184.035C246.809 184.035 246.409 184.375 246.259 185.115L245.819 187.325H244.569L245.029 185.035C245.049 184.915 245.059 184.815 245.059 184.715C245.059 184.275 244.829 184.045 244.379 184.045C243.799 184.045 243.399 184.385 243.239 185.145L242.809 187.335H241.559L242.419 183.035H243.599L243.499 183.485C243.879 183.145 244.349 182.975 244.849 182.975C245.439 182.975 245.929 183.215 246.169 183.675C246.589 183.215 247.149 182.975 247.809 182.975C248.729 182.975 249.349 183.475 249.349 184.435L249.359 184.405Z" fill="black"/>
<path id="Vector_95" d="M254.61 185.495H251.32C251.36 186.075 251.72 186.375 252.43 186.375C252.87 186.375 253.29 186.235 253.58 185.975L254.1 186.795C253.6 187.195 252.96 187.375 252.3 187.375C250.96 187.375 250.1 186.615 250.1 185.445C250.1 184.005 251.14 182.945 252.63 182.945C253.89 182.945 254.68 183.685 254.68 184.835C254.68 185.065 254.65 185.295 254.61 185.495ZM251.4 184.765H253.53C253.53 184.195 253.15 183.875 252.57 183.875C251.99 183.875 251.56 184.225 251.39 184.765H251.4Z" fill="black"/>
<path id="Vector_96" d="M259.96 184.415C259.96 184.575 259.94 184.755 259.9 184.935L259.42 187.315H258.17L258.63 185.015C258.65 184.915 258.66 184.805 258.66 184.715C258.66 184.275 258.42 184.025 257.92 184.025C257.29 184.025 256.85 184.375 256.7 185.125L256.27 187.305H255.02L255.88 183.005H257.06L256.96 183.465C257.35 183.105 257.85 182.935 258.38 182.935C259.32 182.935 259.95 183.445 259.95 184.395L259.96 184.415Z" fill="black"/>
<path id="Vector_97" d="M262.259 185.795C262.239 185.855 262.239 185.915 262.239 185.975C262.239 186.235 262.379 186.395 262.699 186.395C262.869 186.395 263.039 186.335 263.199 186.245L263.379 187.135C263.069 187.325 262.679 187.395 262.309 187.395C261.509 187.395 260.969 186.945 260.969 186.195C260.969 186.075 260.989 185.945 261.009 185.815L261.349 184.075H260.689L260.879 183.115H261.539L261.749 182.065H262.999L262.789 183.115H263.859L263.669 184.075H262.599L262.259 185.805V185.795Z" fill="black"/>
<path id="Vector_98" d="M268.498 185.495H265.208C265.248 186.075 265.608 186.375 266.318 186.375C266.758 186.375 267.178 186.235 267.468 185.975L267.988 186.795C267.488 187.195 266.848 187.375 266.188 187.375C264.848 187.375 263.988 186.615 263.988 185.445C263.988 184.005 265.028 182.945 266.518 182.945C267.768 182.945 268.568 183.685 268.568 184.835C268.568 185.065 268.538 185.295 268.498 185.495ZM265.288 184.765H267.418C267.418 184.195 267.038 183.875 266.458 183.875C265.878 183.875 265.448 184.225 265.278 184.765H265.288Z" fill="black"/>
</g>
</g>
<g id="Group_12" opacity="0.7">
<path id="Vector_99" d="M89.5801 165.125H91.5201V173.525H89.5801V165.125Z" fill="white"/>
<path id="Vector_100" d="M99.9809 169.825V173.515H98.1109V170.105C98.1109 169.065 97.6309 168.585 96.8009 168.585C95.9009 168.585 95.2509 169.135 95.2509 170.325V173.515H93.3809V167.065H95.1709V167.815C95.6709 167.265 96.4309 166.965 97.3009 166.965C98.8209 166.965 99.9709 167.855 99.9709 169.815L99.9809 169.825Z" fill="white"/>
<path id="Vector_101" d="M105.84 173.215C105.46 173.495 104.89 173.625 104.32 173.625C102.8 173.625 101.91 172.845 101.91 171.315V168.665H100.91V167.225H101.91V165.655H103.78V167.225H105.39V168.665H103.78V171.295C103.78 171.845 104.08 172.145 104.58 172.145C104.86 172.145 105.13 172.065 105.34 171.905L105.84 173.225V173.215Z" fill="white"/>
<path id="Vector_102" d="M110.9 166.975V168.705C110.74 168.695 110.62 168.685 110.48 168.685C109.45 168.685 108.77 169.245 108.77 170.485V173.535H106.9V167.085H108.69V167.935C109.15 167.315 109.91 166.985 110.91 166.985L110.9 166.975Z" fill="white"/>
<path id="Vector_103" d="M111.48 170.295C111.48 168.355 112.98 166.975 115.03 166.975C117.08 166.975 118.57 168.355 118.57 170.295C118.57 172.235 117.08 173.615 115.03 173.615C112.98 173.615 111.48 172.235 111.48 170.295ZM116.67 170.295C116.67 169.175 115.96 168.505 115.03 168.505C114.1 168.505 113.37 169.175 113.37 170.295C113.37 171.415 114.09 172.085 115.03 172.085C115.97 172.085 116.67 171.415 116.67 170.295Z" fill="white"/>
<path id="Vector_104" d="M126.389 164.625V173.525H124.599V172.785C124.129 173.345 123.449 173.625 122.589 173.625C120.769 173.625 119.359 172.335 119.359 170.305C119.359 168.275 120.759 166.985 122.589 166.985C123.379 166.985 124.049 167.235 124.519 167.765V164.635H126.389V164.625ZM124.559 170.295C124.559 169.175 123.839 168.505 122.919 168.505C121.999 168.505 121.259 169.175 121.259 170.295C121.259 171.415 121.979 172.085 122.919 172.085C123.859 172.085 124.559 171.415 124.559 170.295Z" fill="white"/>
<path id="Vector_105" d="M134.63 167.065V173.515H132.85V172.745C132.36 173.305 131.64 173.605 130.85 173.605C129.23 173.605 128.09 172.695 128.09 170.705V167.055H129.96V170.425C129.96 171.505 130.44 171.985 131.27 171.985C132.1 171.985 132.76 171.435 132.76 170.245V167.055H134.63V167.065Z" fill="white"/>
<path id="Vector_106" d="M135.891 170.295C135.891 168.355 137.391 166.975 139.491 166.975C140.851 166.975 141.911 167.565 142.381 168.615L140.931 169.395C140.581 168.785 140.071 168.505 139.481 168.505C138.531 168.505 137.791 169.165 137.791 170.295C137.791 171.425 138.531 172.085 139.481 172.085C140.071 172.085 140.581 171.825 140.931 171.195L142.381 171.985C141.911 173.015 140.841 173.615 139.491 173.615C137.391 173.615 135.891 172.235 135.891 170.295Z" fill="white"/>
<path id="Vector_107" d="M142.9 170.295C142.9 168.355 144.4 166.975 146.5 166.975C147.86 166.975 148.92 167.565 149.39 168.615L147.94 169.395C147.59 168.785 147.08 168.505 146.49 168.505C145.54 168.505 144.8 169.165 144.8 170.295C144.8 171.425 145.54 172.085 146.49 172.085C147.08 172.085 147.59 171.825 147.94 171.195L149.39 171.985C148.92 173.015 147.85 173.615 146.5 173.615C144.4 173.615 142.9 172.235 142.9 170.295Z" fill="white"/>
<path id="Vector_108" d="M150.24 165.125C150.24 164.535 150.71 164.085 151.4 164.085C152.09 164.085 152.56 164.515 152.56 165.095C152.56 165.715 152.09 166.175 151.4 166.175C150.71 166.175 150.24 165.715 150.24 165.135V165.125ZM150.47 167.065H152.34V173.515H150.47V167.065Z" fill="white"/>
<path id="Vector_109" d="M153.6 170.295C153.6 168.355 155.1 166.975 157.15 166.975C159.2 166.975 160.69 168.355 160.69 170.295C160.69 172.235 159.2 173.615 157.15 173.615C155.1 173.615 153.6 172.235 153.6 170.295ZM158.79 170.295C158.79 169.175 158.08 168.505 157.15 168.505C156.22 168.505 155.49 169.175 155.49 170.295C155.49 171.415 156.21 172.085 157.15 172.085C158.09 172.085 158.79 171.415 158.79 170.295ZM157.65 164.515H159.66L157.49 166.245H156.03L157.65 164.515Z" fill="white"/>
<path id="Vector_110" d="M168.539 169.825V173.515H166.669V170.105C166.669 169.065 166.189 168.585 165.359 168.585C164.459 168.585 163.809 169.135 163.809 170.325V173.515H161.939V167.065H163.729V167.815C164.229 167.265 164.989 166.965 165.859 166.965C167.379 166.965 168.529 167.855 168.529 169.815L168.539 169.825Z" fill="white"/>
<path id="Vector_111" d="M179.341 169.835V173.515H177.591V172.715C177.241 173.305 176.571 173.615 175.621 173.615C174.111 173.615 173.211 172.775 173.211 171.655C173.211 170.535 174.011 169.725 175.981 169.725H177.471C177.471 168.925 176.991 168.455 175.981 168.455C175.301 168.455 174.591 168.685 174.121 169.055L173.451 167.745C174.161 167.245 175.201 166.965 176.231 166.965C178.201 166.965 179.341 167.875 179.341 169.835ZM177.471 171.475V170.815H176.191C175.311 170.815 175.041 171.135 175.041 171.565C175.041 172.035 175.441 172.345 176.101 172.345C176.721 172.345 177.261 172.055 177.481 171.465L177.471 171.475Z" fill="white"/>
<path id="Vector_112" d="M183.9 172.695L184.56 171.235C185.27 171.755 186.32 172.115 187.33 172.115C188.48 172.115 188.95 171.735 188.95 171.215C188.95 169.645 184.07 170.725 184.07 167.605C184.07 166.175 185.22 164.995 187.61 164.995C188.67 164.995 189.74 165.245 190.52 165.735L189.92 167.215C189.14 166.775 188.34 166.555 187.59 166.555C186.44 166.555 186 166.985 186 167.515C186 169.065 190.88 167.995 190.88 171.075C190.88 172.475 189.72 173.675 187.32 173.675C185.99 173.675 184.65 173.275 183.9 172.705V172.695Z" fill="white"/>
<path id="Vector_113" d="M192.221 165.125H196.031C198.781 165.125 200.661 166.785 200.661 169.325C200.661 171.865 198.781 173.525 196.031 173.525H192.221V165.125ZM195.941 171.925C197.611 171.925 198.701 170.925 198.701 169.325C198.701 167.725 197.611 166.725 195.941 166.725H194.161V171.935H195.941V171.925Z" fill="white"/>
<path id="Vector_114" d="M201.811 169.395H205.201V170.895H201.811V169.395Z" fill="white"/>
<path id="Vector_115" d="M219.19 165.125L216.44 173.525H214.35L212.5 167.845L210.59 173.525H208.51L205.75 165.125H207.76L209.66 171.025L211.64 165.125H213.44L215.36 171.075L217.32 165.125H219.18H219.19Z" fill="white"/>
<path id="Vector_116" d="M225.53 171.725H221.63L220.89 173.525H218.9L222.64 165.125H224.56L228.31 173.525H226.27L225.53 171.725ZM224.92 170.245L223.59 167.035L222.26 170.245H224.92Z" fill="white"/>
<path id="Vector_117" d="M236.89 165.125V173.525H235.29L231.1 168.425V173.525H229.18V165.125H230.79L234.96 170.225V165.125H236.88H236.89Z" fill="white"/>
</g>
</g>
</g>
<defs>
<linearGradient id="paint0_linear_538_976" x1="68.1502" y1="40.855" x2="282.44" y2="40.855" gradientUnits="userSpaceOnUse">
<stop stop-color="#172765"/>
<stop offset="0.18" stop-color="#2A3473"/>
<stop offset="0.55" stop-color="#5E5698"/>
<stop offset="1" stop-color="#A484CA"/>
</linearGradient>
<linearGradient id="paint1_linear_538_976" x1="0.97" y1="40.855" x2="71.23" y2="40.855" gradientUnits="userSpaceOnUse">
<stop stop-color="#172765"/>
<stop offset="0.17" stop-color="#1B2967"/>
<stop offset="0.33" stop-color="#273170"/>
<stop offset="0.51" stop-color="#3B3F7F"/>
<stop offset="0.68" stop-color="#585293"/>
<stop offset="0.85" stop-color="#7D6AAE"/>
<stop offset="1" stop-color="#A484CA"/>
</linearGradient>
<linearGradient id="paint2_linear_538_976" x1="11.8201" y1="39.365" x2="53.4301" y2="39.365" gradientUnits="userSpaceOnUse">
<stop stop-color="#172765"/>
<stop offset="0.18" stop-color="#2A3473"/>
<stop offset="0.55" stop-color="#5E5698"/>
<stop offset="1" stop-color="#A484CA"/>
</linearGradient>
<linearGradient id="paint3_linear_538_976" x1="11.8203" y1="34.6349" x2="27.4403" y2="34.6349" gradientUnits="userSpaceOnUse">
<stop stop-color="#172765"/>
<stop offset="0.18" stop-color="#2A3473"/>
<stop offset="0.55" stop-color="#5E5698"/>
<stop offset="1" stop-color="#A484CA"/>
</linearGradient>
<linearGradient id="paint4_linear_538_976" x1="97.2793" y1="105.735" x2="309.979" y2="105.735" gradientUnits="userSpaceOnUse">
<stop stop-color="#172765"/>
<stop offset="0.18" stop-color="#2A3473"/>
<stop offset="0.55" stop-color="#5E5698"/>
<stop offset="1" stop-color="#A484CA"/>
</linearGradient>
<linearGradient id="paint5_linear_538_976" x1="33.97" y1="105.575" x2="103.76" y2="105.575" gradientUnits="userSpaceOnUse">
<stop stop-color="#172765"/>
<stop offset="0.18" stop-color="#2A3473"/>
<stop offset="0.55" stop-color="#5E5698"/>
<stop offset="1" stop-color="#A484CA"/>
</linearGradient>
<linearGradient id="paint6_linear_538_976" x1="66.991" y1="97.875" x2="83.031" y2="97.875" gradientUnits="userSpaceOnUse">
<stop stop-color="#172765"/>
<stop offset="0.18" stop-color="#2A3473"/>
<stop offset="0.55" stop-color="#5E5698"/>
<stop offset="1" stop-color="#A484CA"/>
</linearGradient>
<linearGradient id="paint7_linear_538_976" x1="53.8705" y1="104.755" x2="89.9105" y2="104.755" gradientUnits="userSpaceOnUse">
<stop stop-color="#172765"/>
<stop offset="0.18" stop-color="#2A3473"/>
<stop offset="0.55" stop-color="#5E5698"/>
<stop offset="1" stop-color="#A484CA"/>
</linearGradient>
<linearGradient id="paint8_linear_538_976" x1="83.9095" y1="95.895" x2="86.7695" y2="95.895" gradientUnits="userSpaceOnUse">
<stop stop-color="#172765"/>
<stop offset="0.18" stop-color="#2A3473"/>
<stop offset="0.55" stop-color="#5E5698"/>
<stop offset="1" stop-color="#A484CA"/>
</linearGradient>
<linearGradient id="paint9_linear_538_976" x1="82.6112" y1="90.895" x2="84.1812" y2="90.895" gradientUnits="userSpaceOnUse">
<stop stop-color="#172765"/>
<stop offset="0.18" stop-color="#2A3473"/>
<stop offset="0.55" stop-color="#5E5698"/>
<stop offset="1" stop-color="#A484CA"/>
</linearGradient>
<linearGradient id="paint10_linear_538_976" x1="68.0098" y1="170.015" x2="282.46" y2="170.015" gradientUnits="userSpaceOnUse">
<stop stop-color="#172765"/>
<stop offset="0.18" stop-color="#2A3473"/>
<stop offset="0.55" stop-color="#5E5698"/>
<stop offset="1" stop-color="#A484CA"/>
</linearGradient>
<linearGradient id="paint11_linear_538_976" x1="0.97" y1="169.885" x2="71.28" y2="169.885" gradientUnits="userSpaceOnUse">
<stop stop-color="#172765"/>
<stop offset="0.18" stop-color="#2A3473"/>
<stop offset="0.55" stop-color="#5E5698"/>
<stop offset="1" stop-color="#A484CA"/>
</linearGradient>
<linearGradient id="paint12_linear_538_976" x1="18.5586" y1="187.605" x2="22.4586" y2="187.605" gradientUnits="userSpaceOnUse">
<stop stop-color="#172765"/>
<stop offset="0.18" stop-color="#2A3473"/>
<stop offset="0.55" stop-color="#5E5698"/>
<stop offset="1" stop-color="#A484CA"/>
</linearGradient>
<linearGradient id="paint13_linear_538_976" x1="17.2891" y1="184.175" x2="23.7291" y2="184.175" gradientUnits="userSpaceOnUse">
<stop stop-color="#172765"/>
<stop offset="0.18" stop-color="#2A3473"/>
<stop offset="0.55" stop-color="#5E5698"/>
<stop offset="1" stop-color="#A484CA"/>
</linearGradient>
<linearGradient id="paint14_linear_538_976" x1="15.4492" y1="181.955" x2="25.5792" y2="181.955" gradientUnits="userSpaceOnUse">
<stop stop-color="#172765"/>
<stop offset="0.18" stop-color="#2A3473"/>
<stop offset="0.55" stop-color="#5E5698"/>
<stop offset="1" stop-color="#A484CA"/>
</linearGradient>
<linearGradient id="paint15_linear_538_976" x1="45.22" y1="184.355" x2="53.05" y2="184.355" gradientUnits="userSpaceOnUse">
<stop stop-color="#172765"/>
<stop offset="0.18" stop-color="#2A3473"/>
<stop offset="0.55" stop-color="#5E5698"/>
<stop offset="1" stop-color="#A484CA"/>
</linearGradient>
<linearGradient id="paint16_linear_538_976" x1="15.2991" y1="169.375" x2="55.6691" y2="169.375" gradientUnits="userSpaceOnUse">
<stop stop-color="#172765"/>
<stop offset="0.18" stop-color="#2A3473"/>
<stop offset="0.55" stop-color="#5E5698"/>
<stop offset="1" stop-color="#A484CA"/>
</linearGradient>
</defs>
</svg>
