<svg width="77" height="60" viewBox="0 0 77 60" fill="none" xmlns="http://www.w3.org/2000/svg">
<path d="M25.8001 47.9499L27.8001 45.6699C28.0875 45.3426 28.4404 45.0793 28.8361 44.897C29.2317 44.7148 29.6612 44.6177 30.0967 44.6121C30.5323 44.6064 30.9642 44.6923 31.3644 44.8642C31.7646 45.0361 32.1243 45.2902 32.4201 45.6099V45.6099C33.0843 46.2564 33.4824 47.1282 33.5361 48.0536C33.5898 48.979 33.2951 49.8909 32.7101 50.6099L30.7101 52.8799C30.4226 53.2089 30.0691 53.4736 29.6726 53.6568C29.276 53.84 28.8453 53.9376 28.4085 53.9433C27.9717 53.9489 27.5386 53.8625 27.1374 53.6896C26.7362 53.5168 26.376 53.2613 26.0801 52.9399V52.9399C25.4222 52.2914 25.029 51.4213 24.9773 50.4989C24.9255 49.5766 25.2188 48.6679 25.8001 47.9499V47.9499Z" stroke="#1B265E" stroke-width="3" stroke-linecap="round" stroke-linejoin="round"/>
<path d="M20.67 43.3L23.46 40.07C23.7446 39.7259 24.0985 39.4456 24.4987 39.2474C24.8989 39.0492 25.3363 38.9375 25.7826 38.9196C26.2288 38.9016 26.6738 38.9779 27.0886 39.1434C27.5033 39.3089 27.8786 39.5598 28.1899 39.88V39.88C28.8468 40.5545 29.2291 41.4493 29.2624 42.3903C29.2957 43.3312 28.9775 44.2508 28.37 44.97L25.59 48.2C25.3044 48.5443 24.9496 48.8248 24.5485 49.0231C24.1475 49.2214 23.7093 49.3331 23.2623 49.351C22.8153 49.3689 22.3695 49.2926 21.9539 49.1271C21.5383 48.9615 21.1622 48.7104 20.8499 48.39V48.39C20.1931 47.7155 19.8108 46.8206 19.7775 45.8797C19.7442 44.9388 20.0624 44.0192 20.67 43.3V43.3Z" stroke="#1B265E" stroke-width="3" stroke-linecap="round" stroke-linejoin="round"/>
<path d="M15.3899 38.8199L19.3899 34.1999C19.6746 33.8558 20.0285 33.5755 20.4287 33.3773C20.8289 33.1791 21.2663 33.0674 21.7125 33.0494C22.1587 33.0315 22.6037 33.1078 23.0185 33.2733C23.4333 33.4387 23.8086 33.6897 24.1199 34.0099V34.0099C24.7775 34.686 25.1601 35.5826 25.1934 36.5252C25.2267 37.4678 24.9082 38.389 24.2999 39.1099L20.2999 43.7199C20.0153 44.064 19.6613 44.3442 19.2611 44.5425C18.861 44.7407 18.4235 44.8524 17.9773 44.8703C17.5311 44.8882 17.0861 44.812 16.6713 44.6465C16.2565 44.481 15.8813 44.23 15.5699 43.9099V43.9099C14.9131 43.2354 14.5308 42.3405 14.4975 41.3996C14.4642 40.4587 14.7823 39.5391 15.3899 38.8199V38.8199Z" stroke="#1B265E" stroke-width="3" stroke-linecap="round" stroke-linejoin="round"/>
<path d="M11.5401 32.69L14.3201 29.46C14.6066 29.117 14.9617 28.8378 15.3627 28.6404C15.7636 28.443 16.2014 28.3317 16.648 28.3138C17.0945 28.2959 17.5399 28.3718 17.9553 28.5365C18.3708 28.7011 18.7471 28.951 19.0601 29.27C19.7177 29.9461 20.1003 30.8427 20.1336 31.7853C20.1669 32.7278 19.8484 33.6491 19.2401 34.37L16.4501 37.6C16.1655 37.9441 15.8115 38.2243 15.4113 38.4226C15.0112 38.6208 14.5737 38.7325 14.1275 38.7504C13.6813 38.7683 13.2363 38.6921 12.8215 38.5266C12.4067 38.3611 12.0315 38.1101 11.7201 37.79V37.79C11.0625 37.1138 10.6799 36.2173 10.6467 35.2747C10.6134 34.3321 10.9318 33.4108 11.5401 32.69V32.69Z" stroke="#1B265E" stroke-width="3" stroke-linecap="round" stroke-linejoin="round"/>
<path d="M46.8 34.2798L55.38 43.5198C56.1059 44.323 56.5078 45.3671 56.5078 46.4498C56.5078 47.5324 56.1059 48.5765 55.38 49.3798V49.3798C55.0359 49.7612 54.6156 50.0662 54.1461 50.2749C53.6767 50.4836 53.1687 50.5915 52.655 50.5915C52.1413 50.5915 51.6333 50.4836 51.1639 50.2749C50.6945 50.0662 50.2741 49.7612 49.93 49.3798L44.01 43.1298" stroke="#1B265E" stroke-width="3" stroke-linecap="round" stroke-linejoin="round"/>
<path d="M42.4799 41.4299L48.11 47.4899C48.8358 48.2932 49.2377 49.3373 49.2377 50.4199C49.2377 51.5026 48.8358 52.5467 48.11 53.3499V53.3499C47.7667 53.7328 47.3466 54.039 46.8771 54.2486C46.4076 54.4582 45.8991 54.5666 45.3849 54.5666C44.8708 54.5666 44.3623 54.4582 43.8928 54.2486C43.4233 54.039 43.0032 53.7328 42.6599 53.3499L40.2 50.7099" stroke="#1B265E" stroke-width="3" stroke-linecap="round" stroke-linejoin="round"/>
<path d="M37.91 48.3098L40.17 50.7498C40.8973 51.5504 41.3002 52.5932 41.3002 53.6748C41.3002 54.7564 40.8973 55.7992 40.17 56.5998V56.5998C39.8267 56.9826 39.4067 57.2889 38.9371 57.4985C38.4676 57.7081 37.9592 57.8165 37.445 57.8165C36.9308 57.8165 36.4224 57.7081 35.9529 57.4985C35.4834 57.2889 35.0633 56.9826 34.72 56.5998L33.01 54.8298" stroke="#1B265E" stroke-width="3" stroke-linecap="round" stroke-linejoin="round"/>
<path d="M51.63 11.1299C48.56 11.5299 44.3 10.8899 41.54 10.7599C39.8251 10.6854 38.1238 11.0942 36.63 11.9399L28.63 16.3999C27.7438 16.931 27.0901 17.7765 26.7991 18.7679C26.5082 19.7594 26.6013 20.824 27.06 21.7499V21.7499C27.2542 22.1723 27.5308 22.5518 27.8737 22.8659C28.2165 23.18 28.6187 23.4224 29.0565 23.5789C29.4943 23.7354 29.9591 23.8028 30.4233 23.7772C30.8876 23.7516 31.3421 23.6335 31.76 23.4299L37.86 20.4299C41.37 18.7999 43.4401 19.1399 48.7401 24.6099L61.5 38.3399C62.2238 39.1441 62.6244 40.1878 62.6244 41.2699C62.6244 42.3519 62.2238 43.3956 61.5 44.1999V44.1999C61.1577 44.5824 60.7385 44.8885 60.2698 45.0981C59.8011 45.3076 59.2934 45.4159 58.78 45.4159C58.2666 45.4159 57.759 45.3076 57.2903 45.0981C56.8216 44.8885 56.4024 44.5824 56.06 44.1999L47.01 34.5099" stroke="#1B265E" stroke-width="3" stroke-linecap="round" stroke-linejoin="round"/>
<path d="M21.8899 10.0198L28.4799 12.7498" stroke="#1B265E" stroke-width="3" stroke-linecap="round" stroke-linejoin="round"/>
<path d="M12.6401 31.4198L10.55 27.2998" stroke="#1B265E" stroke-width="3" stroke-linecap="round" stroke-linejoin="round"/>
<path d="M66.85 23.0298C66.1289 26.5711 64.4555 29.8487 62.01 32.5098L61.3 33.2698" stroke="#1B265E" stroke-width="3" stroke-linecap="round" stroke-linejoin="round"/>
<path d="M69.3699 12.7498L59.3799 2.00977L53.4299 8.40977L68.7499 24.8998L74.7099 18.4998L69.3699 12.7498Z" stroke="#1B265E" stroke-width="3" stroke-linecap="round" stroke-linejoin="round"/>
<path d="M12.64 7.04L2 18.49L7.95 24.89L23.28 8.4L17.32 2L12.64 7.04Z" stroke="#1B265E" stroke-width="3" stroke-linecap="round" stroke-linejoin="round"/>
</svg>
