<svg width="41" height="41" viewBox="0 0 41 41" fill="none" xmlns="http://www.w3.org/2000/svg">
<path d="M1.00512 25.173C1.22512 25.323 1.45512 25.463 1.70512 25.573C1.99512 25.723 2.48512 25.973 2.51512 26.143C2.55512 26.373 2.53512 26.613 2.43512 26.823C2.33512 27.043 2.22512 27.223 2.13512 27.383C1.88512 27.823 1.47512 28.543 2.09512 29.053C2.24512 29.183 2.49512 29.383 2.72512 29.553C2.55512 29.843 2.47512 30.183 2.50512 30.523C2.54512 30.793 2.68512 31.033 2.90512 31.183C3.05512 31.293 3.21512 31.383 3.37512 31.473C3.77512 31.703 3.92512 31.803 3.98512 32.013C4.02512 32.283 3.99512 32.563 3.91512 32.823C3.87512 33.003 3.83512 33.183 3.81512 33.363C3.74512 33.973 3.81512 34.593 4.03512 35.173C4.33512 36.243 5.30512 36.983 6.41512 37.003C6.60512 37.003 6.78512 36.983 6.96512 36.943C8.88512 36.483 10.7851 35.923 12.6451 35.243C14.1651 36.133 15.1151 38.843 15.3651 39.853C15.4351 40.153 15.7051 40.363 16.0151 40.363L32.9151 40.313C33.1251 40.313 33.3351 40.213 33.4551 40.033C33.5851 39.863 33.6151 39.633 33.5551 39.433C33.3851 38.973 33.1551 38.543 32.8751 38.153C32.7151 37.923 32.5651 37.673 32.4351 37.423C32.1351 36.803 31.8751 36.163 31.6751 35.503C31.2951 34.203 31.0251 32.873 30.8751 31.523C30.6351 29.513 30.9451 27.473 31.7551 25.613C31.9151 25.243 32.1051 24.883 32.3251 24.533C32.4451 24.323 32.4551 24.073 32.3451 23.863C32.2251 23.653 32.0151 23.523 31.7651 23.513C31.5251 23.513 31.2951 23.633 31.1751 23.833C30.9251 24.233 30.7151 24.643 30.5251 25.073C29.6151 27.153 29.2751 29.433 29.5351 31.683C29.6951 33.113 29.9751 34.523 30.3851 35.903C30.6051 36.623 30.8851 37.333 31.2251 38.013C31.3751 38.323 31.5551 38.613 31.7451 38.893C31.7551 38.913 31.7751 38.933 31.7851 38.963L16.5151 39.003C16.0651 37.403 15.2551 35.933 14.1451 34.703L14.7751 34.483C15.2151 34.333 15.5451 34.213 15.7151 34.163C18.5951 33.253 20.0451 31.943 20.0051 30.263C20.0051 30.023 19.8651 29.803 19.6551 29.683C19.4451 29.563 19.1851 29.573 18.9851 29.703C18.7751 29.833 18.6551 30.053 18.6651 30.293C18.6851 30.983 18.1151 31.993 15.3151 32.883C15.1351 32.943 14.7951 33.063 14.3451 33.223C13.8451 33.403 13.1951 33.623 12.4851 33.863C10.5951 34.553 8.65512 35.143 6.69512 35.613C6.06512 35.733 5.45512 35.343 5.30512 34.713C5.16512 34.333 5.10512 33.923 5.14512 33.513C5.16512 33.373 5.19512 33.233 5.22512 33.093C5.36512 32.623 5.38512 32.133 5.28512 31.663C5.08512 31.043 4.63512 30.543 4.03512 30.283C3.98512 30.253 3.94512 30.233 3.89512 30.203C3.96512 30.053 4.05512 29.913 4.15512 29.783C4.26512 29.643 4.31512 29.453 4.29512 29.273C4.27512 29.093 4.17512 28.933 4.02512 28.823C3.86512 28.703 3.48512 28.423 3.20512 28.193C3.23512 28.133 3.27512 28.073 3.30512 28.013C3.41512 27.823 3.53512 27.613 3.64512 27.363C3.85512 26.893 3.92512 26.363 3.82512 25.853C3.66512 25.033 2.87512 24.633 2.30512 24.333C2.11512 24.243 1.92512 24.133 1.75512 24.013C1.61512 23.913 1.47512 23.803 1.35512 23.683C1.35512 23.583 1.46512 23.333 1.97512 22.713C3.18512 21.163 4.21512 19.483 5.05512 17.703C5.21512 17.423 5.30512 17.113 5.31512 16.793C5.24512 16.113 4.88512 15.503 4.33512 15.113C4.06512 14.863 3.80512 14.623 3.77512 14.413C3.77512 14.253 3.81512 14.093 3.87512 13.953C3.98512 13.663 4.11512 13.383 4.23512 13.103C4.51512 12.533 4.73512 11.943 4.89512 11.323L4.96512 11.033C5.10512 10.363 5.29512 9.69302 5.51512 9.04302C6.04512 7.58302 6.86512 6.23302 7.93512 5.10302C9.22512 3.74302 11.2451 2.77302 13.9651 2.23302C16.0451 1.77302 18.1551 1.47302 20.2751 1.32302C21.9451 1.23302 23.6251 1.43302 25.2151 1.93302C22.8951 3.71302 21.5351 6.46302 21.5351 9.38302C21.5351 11.043 21.9751 12.673 22.8051 14.103C22.0951 14.143 21.5351 14.733 21.5351 15.443V20.833H20.1851V18.143C20.1851 17.403 19.5851 16.793 18.8351 16.793H17.4851C16.7451 16.793 16.1351 17.393 16.1351 18.143V20.833H14.7851C14.4151 20.833 14.1151 21.133 14.1151 21.503C14.1151 21.873 14.4151 22.173 14.7851 22.173H32.2851C32.6551 22.173 32.9551 21.873 32.9551 21.503C32.9551 21.133 32.6551 20.833 32.2851 20.833H30.9351V18.813C33.4251 18.813 35.8151 17.823 37.5751 16.073C37.5751 16.073 37.5951 16.073 37.5951 16.053C37.5951 16.053 37.5951 16.033 37.6151 16.033C40.8951 12.753 41.2851 7.57302 38.5451 3.82302C35.8551 0.12302 30.7951 -1.06698 26.6751 1.05302C24.6251 0.25302 22.4251 -0.0969795 20.2251 0.0230205C18.0351 0.173021 15.8551 0.483021 13.7151 0.953021C10.6851 1.56302 8.47512 2.62302 6.96512 4.21302C5.77512 5.48302 4.85512 6.98302 4.26512 8.61302C4.02512 9.31302 3.82512 10.033 3.66512 10.763L3.59512 11.043C3.45512 11.573 3.25512 12.083 3.01512 12.573C2.88512 12.883 2.74512 13.183 2.61512 13.503C2.46512 13.853 2.40512 14.243 2.43512 14.623C2.57512 15.223 2.91512 15.763 3.41512 16.123C3.74512 16.423 3.96512 16.633 3.96512 16.823C3.94512 16.923 3.90512 17.023 3.85512 17.113C3.04512 18.813 2.06512 20.413 0.905118 21.903C0.415118 22.493 -0.0948823 23.193 0.0151177 23.883C0.155118 24.413 0.515118 24.873 0.995118 25.143L1.00512 25.173ZM26.9351 17.933V20.873H25.5851V17.153C26.0151 17.453 26.4651 17.713 26.9351 17.933V17.933ZM17.5151 20.873V18.183H18.8651V20.873H17.5151ZM22.9051 20.873V15.483H24.2551V20.873H22.9051ZM28.2951 20.873V12.793H29.6451V20.873H28.2951V20.873ZM29.6451 11.453H28.2951C27.5551 11.453 26.9451 12.053 26.9451 12.803V16.423C26.4651 16.143 26.0051 15.813 25.5951 15.433C25.5651 14.793 25.0851 14.263 24.4551 14.163C23.4451 12.793 22.9051 11.133 22.9151 9.43302C22.9151 5.23302 26.1351 1.74302 30.3151 1.39302V9.43302C30.3151 9.52302 30.3351 9.61302 30.3651 9.69302C30.3951 9.77302 30.4451 9.85302 30.5151 9.91302L36.2051 15.603C34.7551 16.843 32.9051 17.523 30.9951 17.523V12.813C30.9951 12.073 30.3951 11.463 29.6451 11.463V11.453ZM37.1551 14.643L32.6151 10.103H39.0351C38.8951 11.773 38.2351 13.363 37.1551 14.643ZM39.0351 8.76302H31.6651V1.38302C35.5851 1.71302 38.7051 4.83302 39.0351 8.75302V8.76302Z" fill="white"/>
<path d="M7.5351 11.983L7.6051 11.693C7.7251 11.133 7.8751 10.573 8.0551 10.033C8.4651 8.91302 9.0851 7.88302 9.9051 7.00302C10.7751 6.18302 11.8451 5.59302 13.0051 5.30302C13.2351 5.23302 13.4151 5.04302 13.4651 4.81302C13.5151 4.58302 13.4451 4.33302 13.2651 4.17302C13.0851 4.01302 12.8351 3.95302 12.6051 4.02302C11.2151 4.38302 9.9451 5.09302 8.9151 6.09302C7.9751 7.10302 7.2551 8.28302 6.7851 9.58302C6.5851 10.183 6.4151 10.793 6.2851 11.403L6.2151 11.693C6.1451 12.053 6.3651 12.403 6.7251 12.483C7.0851 12.563 7.4351 12.353 7.5251 11.993L7.5351 11.983Z" fill="white"/>
<path d="M6.07527 14.813C6.4453 14.813 6.74527 14.5131 6.74527 14.143C6.74527 13.773 6.4453 13.473 6.07527 13.473C5.70524 13.473 5.40527 13.773 5.40527 14.143C5.40527 14.5131 5.70524 14.813 6.07527 14.813Z" fill="white"/>
</svg>
