<svg width="284" height="82" viewBox="0 0 284 82" fill="none" xmlns="http://www.w3.org/2000/svg">
<path d="M283.17 41.1352L270.59 62.9152H68.0898V61.4852L70.0198 60.3752C70.7398 59.9552 71.1898 59.1652 71.1898 58.3152V22.6952C71.1898 21.8452 70.7198 21.0652 70.0198 20.6352L68.0898 19.5252V19.3252H270.58L283.16 41.1252H283.17V41.1352Z" fill="url(#paint0_linear_538_123)"/>
<path d="M98.2289 32.2448C98.2289 34.1348 96.8089 35.3048 94.5489 35.3048H92.8389V37.6448H90.8789V29.1748H94.5489C96.8089 29.1748 98.2289 30.3448 98.2289 32.2548V32.2448ZM96.2489 32.2348C96.2489 31.3048 95.6489 30.7548 94.4489 30.7548H92.8489V33.6948H94.4489C95.6489 33.6948 96.2489 33.1448 96.2489 32.2248V32.2348Z" fill="white"/>
<path d="M105.829 34.9251H100.909C101.089 35.7451 101.779 36.2351 102.779 36.2351C103.469 36.2351 103.969 36.0351 104.409 35.6051L105.419 36.6851C104.819 37.3751 103.909 37.7351 102.739 37.7351C100.489 37.7351 99.0293 36.3151 99.0293 34.3751C99.0293 32.4351 100.519 31.0151 102.499 31.0151C104.479 31.0151 105.889 32.3051 105.889 34.3951C105.889 34.5451 105.869 34.7451 105.859 34.8951H105.849L105.829 34.9251ZM100.889 33.8451H104.099C103.969 33.0151 103.349 32.4951 102.499 32.4951C101.649 32.4951 101.019 33.0051 100.889 33.8451Z" fill="white"/>
<path d="M113.77 33.9149V37.6349H111.88V34.2049C111.88 33.1549 111.4 32.6749 110.56 32.6749C109.65 32.6749 108.99 33.2349 108.99 34.4349V37.6549H107.1V31.1449H108.9V31.9049C109.4 31.3449 110.17 31.0449 111.06 31.0449C112.59 31.0449 113.76 31.9349 113.76 33.9349H113.77V33.9149Z" fill="white"/>
<path d="M114.85 37.0352L115.48 35.6852C116.06 36.0652 116.95 36.3152 117.74 36.3152C118.61 36.3152 118.94 36.0852 118.94 35.7252C118.94 34.6652 115 35.7452 115 33.1552C115 31.9252 116.12 31.0552 118.01 31.0552C118.9 31.0552 119.9 31.2552 120.52 31.6252L119.89 32.9652C119.25 32.5952 118.6 32.4852 118.01 32.4852C117.16 32.4852 116.8 32.7552 116.8 33.0852C116.8 34.2052 120.74 33.1152 120.74 35.6952C120.74 36.9052 119.61 37.7652 117.66 37.7652C116.56 37.7652 115.45 37.4652 114.84 37.0652H114.85V37.0352Z" fill="white"/>
<path d="M127.66 33.9249V37.6349H125.89V36.8249C125.54 37.4149 124.86 37.7349 123.91 37.7349C122.39 37.7349 121.48 36.8849 121.48 35.7649C121.48 34.6449 122.29 33.8149 124.28 33.8149H125.78C125.78 33.0049 125.3 32.5249 124.28 32.5249C123.59 32.5249 122.88 32.7549 122.4 33.1249L121.72 31.8049C122.44 31.3049 123.49 31.0249 124.53 31.0249C126.51 31.0249 127.66 31.9449 127.66 33.9249V33.9249ZM125.77 35.5649V34.8949H124.47C123.59 34.8949 123.31 35.2149 123.31 35.6549C123.31 36.1249 123.71 36.4349 124.37 36.4349C125.03 36.4349 125.54 36.1449 125.76 35.5549H125.77V35.5649Z" fill="white"/>
<path d="M140.359 33.9149V37.6349H138.469V34.2049C138.469 33.1549 137.999 32.6749 137.239 32.6749C136.389 32.6749 135.799 33.2249 135.799 34.3849V37.6549H133.909V34.2249C133.909 33.1749 133.459 32.6949 132.679 32.6949C131.839 32.6949 131.249 33.2449 131.249 34.4049V37.6749H129.359V31.1649H131.159V31.9149C131.639 31.3549 132.369 31.0649 133.209 31.0649C134.119 31.0649 134.889 31.4149 135.359 32.1249C135.869 31.4649 136.719 31.0649 137.709 31.0649C139.249 31.0649 140.369 31.9549 140.369 33.9549V33.9349L140.359 33.9149Z" fill="white"/>
<path d="M141.83 29.175C141.83 28.585 142.3 28.125 143 28.125C143.7 28.125 144.17 28.565 144.17 29.145C144.17 29.775 143.7 30.225 143 30.225C142.3 30.225 141.83 29.765 141.83 29.175V29.175ZM142.06 31.135H143.95V37.645H142.06V31.135Z" fill="white"/>
<path d="M152.04 34.9251H147.12C147.3 35.7451 147.99 36.2351 148.99 36.2351C149.68 36.2351 150.18 36.0351 150.62 35.6051L151.63 36.6851C151.03 37.3751 150.12 37.7351 148.95 37.7351C146.7 37.7351 145.24 36.3151 145.24 34.3751C145.24 32.4351 146.73 31.0151 148.71 31.0151C150.69 31.0151 152.1 32.3051 152.1 34.3951C152.1 34.5451 152.08 34.7451 152.07 34.8951H152.06L152.04 34.9251ZM147.1 33.8451H150.31C150.18 33.0151 149.56 32.4951 148.71 32.4951C147.86 32.4951 147.23 33.0051 147.1 33.8451Z" fill="white"/>
<path d="M159.99 33.9149V37.6349H158.1V34.2049C158.1 33.1549 157.62 32.6749 156.78 32.6749C155.87 32.6749 155.21 33.2349 155.21 34.4349V37.6549H153.32V31.1449H155.12V31.9049C155.62 31.3449 156.39 31.0449 157.28 31.0449C158.81 31.0449 159.98 31.9349 159.98 33.9349H159.99V33.9149Z" fill="white"/>
<path d="M165.9 37.3251C165.51 37.6051 164.95 37.7351 164.37 37.7351C162.84 37.7351 161.94 36.9551 161.94 35.3951V32.7251H160.93V31.2751H161.94V29.6851H163.83V31.2751H165.45V32.7251H163.83V35.3751C163.83 35.9351 164.13 36.2351 164.64 36.2351C164.92 36.2351 165.2 36.1451 165.4 35.9851L165.9 37.3151V37.3251Z" fill="white"/>
<path d="M166.279 34.3849C166.279 32.4249 167.789 31.0249 169.859 31.0249C171.929 31.0249 173.429 32.4149 173.429 34.3849C173.429 36.3549 171.929 37.7449 169.859 37.7449C167.789 37.7449 166.279 36.3549 166.279 34.3849ZM171.509 34.3849C171.509 33.2549 170.789 32.5849 169.849 32.5849C168.909 32.5849 168.179 33.2649 168.179 34.3849C168.179 35.5049 168.909 36.1849 169.849 36.1849C170.789 36.1849 171.509 35.5049 171.509 34.3849Z" fill="white"/>
<path d="M177.619 34.3849C177.619 32.4249 179.129 31.0249 181.249 31.0249C182.609 31.0249 183.699 31.6149 184.169 32.6849L182.699 33.4649C182.349 32.8449 181.829 32.5749 181.229 32.5749C180.279 32.5749 179.519 33.2449 179.519 34.3749C179.519 35.5049 180.269 36.1749 181.229 36.1749C181.819 36.1749 182.349 35.9049 182.699 35.2849L184.169 36.0749C183.699 37.1149 182.629 37.7149 181.249 37.7149C179.139 37.7149 177.619 36.3249 177.619 34.3549V34.3749V34.3849Z" fill="white"/>
<path d="M189.29 31.0352V32.7752C189.13 32.7652 189.01 32.7552 188.86 32.7552C187.82 32.7552 187.13 33.3252 187.13 34.5652V37.6452H185.24V31.1352H187.04V31.9952C187.5 31.3652 188.27 31.0352 189.28 31.0352H189.29V31.0352Z" fill="white"/>
<path d="M191.9 28.5552H193.94L191.75 30.2952H190.27L191.9 28.5552ZM190.42 31.1252H192.31V37.6352H190.42V31.1252V31.1252Z" fill="white"/>
<path d="M198.259 37.3251C197.869 37.6051 197.309 37.7351 196.729 37.7351C195.199 37.7351 194.299 36.9551 194.299 35.3951V32.7251H193.289V31.2751H194.299V29.6851H196.189V31.2751H197.809V32.7251H196.189V35.3751C196.189 35.9351 196.489 36.2351 196.999 36.2351C197.279 36.2351 197.559 36.1451 197.759 35.9851L198.259 37.3151V37.3251Z" fill="white"/>
<path d="M199.1 29.175C199.1 28.585 199.57 28.125 200.27 28.125C200.97 28.125 201.44 28.565 201.44 29.145C201.44 29.775 200.97 30.225 200.27 30.225C199.57 30.225 199.1 29.765 199.1 29.175V29.175ZM199.33 31.135H201.22V37.645H199.33V31.135Z" fill="white"/>
<path d="M202.49 34.3849C202.49 32.4249 204 31.0249 206.12 31.0249C207.48 31.0249 208.57 31.6149 209.04 32.6849L207.57 33.4649C207.22 32.8449 206.7 32.5749 206.1 32.5749C205.15 32.5749 204.39 33.2449 204.39 34.3749C204.39 35.5049 205.14 36.1749 206.1 36.1749C206.69 36.1749 207.22 35.9049 207.57 35.2849L209.04 36.0749C208.57 37.1149 207.5 37.7149 206.12 37.7149C204.01 37.7149 202.49 36.3249 202.49 34.3549V34.3749V34.3849Z" fill="white"/>
<path d="M209.551 34.3849C209.551 32.4249 211.061 31.0249 213.131 31.0249C215.201 31.0249 216.701 32.4149 216.701 34.3849C216.701 36.3549 215.201 37.7449 213.131 37.7449C211.061 37.7449 209.551 36.3549 209.551 34.3849ZM214.781 34.3849C214.781 33.2549 214.061 32.5849 213.121 32.5849C212.181 32.5849 211.451 33.2649 211.451 34.3849C211.451 35.5049 212.181 36.1849 213.121 36.1849C214.061 36.1849 214.781 35.5049 214.781 34.3849Z" fill="white"/>
<path d="M227.85 31.125L224.91 38.035C224.28 39.615 223.39 40.085 222.21 40.085C221.54 40.085 220.82 39.865 220.4 39.495L221.09 38.155C221.38 38.415 221.78 38.565 222.15 38.565C222.68 38.565 222.97 38.335 223.21 37.755L223.23 37.695L220.41 31.145H222.36L224.18 35.565L226.01 31.145H227.82V31.125H227.85Z" fill="white"/>
<path d="M96.5198 48.4449V52.1549H94.7498V51.3449C94.3998 51.9349 93.7198 52.2549 92.7698 52.2549C91.2498 52.2549 90.3398 51.4049 90.3398 50.2849C90.3398 49.1649 91.1498 48.3349 93.1398 48.3349H94.6398C94.6398 47.5249 94.1598 47.0449 93.1398 47.0449C92.4498 47.0449 91.7398 47.2749 91.2598 47.6449L90.5798 46.3249C91.2998 45.8249 92.3498 45.5449 93.3898 45.5449C95.3698 45.5449 96.5198 46.4649 96.5198 48.4449V48.4449ZM94.6298 50.0849V49.4149H93.3298C92.4498 49.4149 92.1698 49.7349 92.1698 50.1749C92.1698 50.6449 92.5698 50.9549 93.2298 50.9549C93.8898 50.9549 94.3998 50.6649 94.6198 50.0749H94.6298V50.0849Z" fill="white"/>
<path d="M104.879 48.4349V52.1549H102.989V48.7249C102.989 47.6749 102.509 47.1949 101.669 47.1949C100.759 47.1949 100.099 47.7549 100.099 48.9549V52.1749H98.209V45.6649H100.009V46.4249C100.509 45.8649 101.279 45.5649 102.169 45.5649C103.699 45.5649 104.869 46.4549 104.869 48.4549H104.879V48.4349Z" fill="white"/>
<path d="M112.35 48.4449V52.1549H110.58V51.3449C110.23 51.9349 109.55 52.2549 108.6 52.2549C107.08 52.2549 106.17 51.4049 106.17 50.2849C106.17 49.1649 106.98 48.3349 108.97 48.3349H110.47C110.47 47.5249 109.99 47.0449 108.97 47.0449C108.28 47.0449 107.57 47.2749 107.09 47.6449L106.41 46.3249C107.13 45.8249 108.18 45.5449 109.22 45.5449C111.2 45.5449 112.35 46.4649 112.35 48.4449V48.4449ZM110.46 50.0849V49.4149H109.16C108.28 49.4149 108 49.7349 108 50.1749C108 50.6449 108.4 50.9549 109.06 50.9549C109.72 50.9549 110.23 50.6649 110.45 50.0749H110.46V50.0849ZM109.78 44.8049H108.3L109.93 43.0649H111.97L109.78 44.8049Z" fill="white"/>
<path d="M114.051 43.1851H115.941V52.1651H114.051V43.1851Z" fill="white"/>
<path d="M117.459 43.6848C117.459 43.0948 117.929 42.6348 118.629 42.6348C119.329 42.6348 119.799 43.0748 119.799 43.6548C119.799 44.2848 119.329 44.7348 118.629 44.7348C117.929 44.7348 117.459 44.2748 117.459 43.6848V43.6848ZM117.689 45.6448H119.579V52.1548H117.689V45.6448Z" fill="white"/>
<path d="M120.699 51.5552L121.329 50.2052C121.909 50.5852 122.799 50.8352 123.589 50.8352C124.459 50.8352 124.789 50.6052 124.789 50.2452C124.789 49.1852 120.849 50.2652 120.849 47.6752C120.849 46.4452 121.969 45.5752 123.859 45.5752C124.749 45.5752 125.749 45.7752 126.369 46.1452L125.739 47.4852C125.099 47.1152 124.449 47.0052 123.859 47.0052C123.009 47.0052 122.649 47.2752 122.649 47.6052C122.649 48.7252 126.589 47.6352 126.589 50.2152C126.589 51.4252 125.459 52.2852 123.509 52.2852C122.409 52.2852 121.299 51.9852 120.689 51.5852H120.699V51.5552Z" fill="white"/>
<path d="M127.52 43.6848C127.52 43.0948 127.99 42.6348 128.69 42.6348C129.39 42.6348 129.86 43.0748 129.86 43.6548C129.86 44.2848 129.39 44.7348 128.69 44.7348C127.99 44.7348 127.52 44.2748 127.52 43.6848V43.6848ZM127.75 45.6448H129.64V52.1548H127.75V45.6448V45.6448Z" fill="white"/>
<path d="M130.77 51.5552L131.4 50.2052C131.98 50.5852 132.87 50.8352 133.66 50.8352C134.53 50.8352 134.86 50.6052 134.86 50.2452C134.86 49.1852 130.92 50.2652 130.92 47.6752C130.92 46.4452 132.04 45.5752 133.93 45.5752C134.82 45.5752 135.82 45.7752 136.44 46.1452L135.81 47.4852C135.17 47.1152 134.52 47.0052 133.93 47.0052C133.08 47.0052 132.72 47.2752 132.72 47.6052C132.72 48.7252 136.66 47.6352 136.66 50.2152C136.66 51.4252 135.53 52.2852 133.58 52.2852C132.48 52.2852 131.37 51.9852 130.76 51.5852H130.77V51.5552Z" fill="white"/>
<path d="M147.879 43.1848V52.1648H146.079V51.4148C145.609 51.9848 144.919 52.2648 144.039 52.2648C142.209 52.2648 140.789 50.9548 140.789 48.9048C140.789 46.8548 142.209 45.5448 144.039 45.5448C144.829 45.5448 145.519 45.8048 145.989 46.3248V43.1748H147.879V43.1848ZM146.019 48.9148C146.019 47.7848 145.289 47.1148 144.359 47.1148C143.429 47.1148 142.689 47.7948 142.689 48.9148C142.689 50.0348 143.419 50.7148 144.359 50.7148C145.299 50.7148 146.019 50.0348 146.019 48.9148Z" fill="white"/>
<path d="M155.97 49.4349H151.05C151.23 50.2549 151.92 50.7449 152.92 50.7449C153.61 50.7449 154.11 50.5449 154.55 50.1149L155.56 51.1949C154.96 51.8849 154.05 52.2449 152.88 52.2449C150.63 52.2449 149.17 50.8249 149.17 48.8849C149.17 46.9449 150.66 45.5249 152.64 45.5249C154.62 45.5249 156.03 46.8149 156.03 48.9049C156.03 49.0549 156.01 49.2549 156 49.4049H155.99L155.97 49.4349ZM151.03 48.3549H154.24C154.11 47.5249 153.49 47.0049 152.64 47.0049C151.79 47.0049 151.16 47.5149 151.03 48.3549Z" fill="white"/>
<path d="M167.32 43.1848V52.1648H165.52V51.4148C165.05 51.9848 164.36 52.2648 163.48 52.2648C161.65 52.2648 160.23 50.9548 160.23 48.9048C160.23 46.8548 161.65 45.5448 163.48 45.5448C164.27 45.5448 164.96 45.8048 165.43 46.3248V43.1748H167.32V43.1848ZM165.46 48.9148C165.46 47.7848 164.73 47.1148 163.8 47.1148C162.87 47.1148 162.13 47.7948 162.13 48.9148C162.13 50.0348 162.86 50.7148 163.8 50.7148C164.74 50.7148 165.46 50.0348 165.46 48.9148Z" fill="white"/>
<path d="M174.809 48.4449V52.1549H173.039V51.3449C172.689 51.9349 172.009 52.2549 171.059 52.2549C169.539 52.2549 168.629 51.4049 168.629 50.2849C168.629 49.1649 169.439 48.3349 171.429 48.3349H172.929C172.929 47.5249 172.449 47.0449 171.429 47.0449C170.739 47.0449 170.029 47.2749 169.549 47.6449L168.869 46.3249C169.589 45.8249 170.639 45.5449 171.679 45.5449C173.659 45.5449 174.809 46.4649 174.809 48.4449V48.4449ZM172.919 50.0849V49.4149H171.619C170.739 49.4149 170.459 49.7349 170.459 50.1749C170.459 50.6449 170.859 50.9549 171.519 50.9549C172.179 50.9549 172.689 50.6649 172.909 50.0749H172.919V50.0849Z" fill="white"/>
<path d="M180.72 51.8451C180.33 52.1251 179.77 52.2551 179.19 52.2551C177.66 52.2551 176.76 51.4751 176.76 49.9151V47.2451H175.75V45.7951H176.76V44.2051H178.65V45.7951H180.27V47.2451H178.65V49.8951C178.65 50.4551 178.95 50.7551 179.46 50.7551C179.74 50.7551 180.02 50.6651 180.22 50.5051L180.72 51.8351V51.8451Z" fill="white"/>
<path d="M181.1 48.9152C181.1 46.9552 182.61 45.5552 184.68 45.5552C186.75 45.5552 188.25 46.9452 188.25 48.9152C188.25 50.8852 186.75 52.2752 184.68 52.2752C182.61 52.2752 181.1 50.8852 181.1 48.9152ZM186.33 48.9152C186.33 47.7852 185.61 47.1152 184.67 47.1152C183.73 47.1152 183 47.7952 183 48.9152C183 50.0352 183.73 50.7152 184.67 50.7152C185.61 50.7152 186.33 50.0352 186.33 48.9152Z" fill="white"/>
<path d="M188.869 51.5552L189.499 50.2052C190.079 50.5852 190.969 50.8352 191.759 50.8352C192.629 50.8352 192.959 50.6052 192.959 50.2452C192.959 49.1852 189.019 50.2652 189.019 47.6752C189.019 46.4452 190.139 45.5752 192.029 45.5752C192.919 45.5752 193.919 45.7752 194.539 46.1452L193.909 47.4852C193.269 47.1152 192.619 47.0052 192.029 47.0052C191.179 47.0052 190.819 47.2752 190.819 47.6052C190.819 48.7252 194.759 47.6352 194.759 50.2152C194.759 51.4252 193.629 52.2852 191.679 52.2852C190.579 52.2852 189.469 51.9852 188.859 51.5852H188.869V51.5552Z" fill="white"/>
<path d="M69.45 23.185V58.805C69.45 59.275 69.32 59.715 69.07 60.095C68.87 60.405 68.6 60.665 68.26 60.865L37.4 78.685C36.66 79.105 35.77 79.105 35.03 78.685L4.17 60.865C3.44 60.445 3 59.655 3 58.805V23.185C3 22.335 3.46 21.555 4.17 21.125L35.03 3.315C35.77 2.895 36.66 2.895 37.4 3.315L66.33 20.025L68.25 21.135C68.98 21.555 69.42 22.345 69.42 23.195H69.43L69.45 23.185Z" stroke="url(#paint1_linear_538_123)" stroke-width="4.06" stroke-linecap="round" stroke-linejoin="round"/>
<path d="M26.991 53.2048C27.011 53.0248 26.971 52.8448 26.871 52.7148C26.761 52.5648 26.601 52.4848 26.431 52.4548C26.251 52.4348 26.071 52.4748 25.941 52.5848C25.741 52.7748 25.441 52.8348 25.181 52.7148C24.861 52.5248 24.651 52.1648 24.651 51.7848C24.611 51.0848 24.421 50.3848 24.081 49.7448C23.631 48.7148 23.491 48.2448 23.891 47.7848C24.641 46.9448 25.871 47.8248 25.931 47.8748C26.221 48.0948 26.651 48.0348 26.861 47.7448C27.071 47.4548 27.031 47.0248 26.731 46.8148C25.951 46.2248 24.151 45.4848 22.891 46.9048C21.881 48.0448 22.421 49.2748 22.861 50.2748C23.111 50.7448 23.261 51.2448 23.321 51.7748C23.321 52.6548 23.801 53.4748 24.581 53.8948C24.851 54.0248 25.141 54.0948 25.431 54.0948C25.901 54.0948 26.361 53.9248 26.731 53.6248C26.881 53.5148 26.961 53.3548 26.991 53.1848H27.001L26.991 53.2048Z" fill="url(#paint2_linear_538_123)"/>
<path d="M53.7005 22.0649H18.9805C17.5005 22.0649 16.3105 23.2649 16.3105 24.7349V44.7649C16.3105 44.7649 16.3105 44.8249 16.3205 44.8449C16.3205 45.5649 16.3905 46.2749 16.5105 46.9849C16.9605 49.5149 17.8305 51.9549 19.0905 54.1949C19.3105 54.6049 19.4905 54.9649 19.6405 55.2949C19.5505 56.6549 17.8105 60.4649 17.2605 60.9249C17.0305 61.0949 16.9205 61.3949 17.0105 61.6749C17.1005 61.9549 17.3605 62.1449 17.6505 62.1449H44.3605C44.5405 62.1449 44.7105 62.0749 44.8305 61.9549C44.9505 61.8349 45.0205 61.6649 45.0205 61.4849C45.0205 59.6349 43.5205 58.1549 41.6905 58.1549H41.0205V56.1549H53.7005C55.1805 56.1549 56.3705 54.9549 56.3705 53.4849V24.7349C56.3705 23.2549 55.1705 22.0649 53.7005 22.0649ZM34.8305 35.0049C33.7905 34.2849 32.6505 33.7349 31.4405 33.3449L34.9505 32.6449C34.9805 32.9049 34.9905 33.1549 34.9905 33.4149C34.9905 33.9549 34.9305 34.4749 34.8105 34.9949H34.8205L34.8305 35.0049ZM35.7105 37.4949C35.1705 37.8849 34.6005 38.2349 34.0005 38.5149C32.3705 36.0749 30.5405 35.4949 29.2605 35.4549C29.3305 35.0549 29.4405 34.6649 29.6005 34.2849C29.9005 34.3449 30.2005 34.4049 30.5205 34.4849C32.0505 34.8849 33.4905 35.6149 34.7405 36.5949C34.7605 36.6149 34.7805 36.6349 34.8205 36.6549C35.1405 36.9249 35.4505 37.2049 35.7305 37.5049L35.7105 37.4949ZM29.6005 32.3649L33.1905 28.6149C33.8805 29.4049 34.4005 30.3349 34.6905 31.3449L29.6005 32.3649V32.3649ZM28.3305 31.7749V26.1249C29.7605 26.2449 31.1105 26.7949 32.2305 27.6949L28.3305 31.7749ZM28.6305 36.8149C29.5005 36.6949 31.1505 36.8349 32.7105 38.9949C31.7705 39.2849 30.7905 39.4349 29.8005 39.4449H26.5705C26.4705 39.1549 26.3505 38.8449 26.2005 38.5049C26.1605 38.3949 26.0905 38.2749 26.0205 38.1549C26.3305 38.0049 26.6505 37.8549 26.9405 37.6749C27.0705 37.5849 27.2105 37.4949 27.3405 37.4149C27.7205 37.1149 28.1705 36.9149 28.6405 36.8149H28.6305V36.8149ZM27.9105 35.6149C27.4405 35.7849 27.0005 36.0049 26.6005 36.2949L26.2305 36.5249C25.9205 36.7249 25.5805 36.8949 25.2205 37.0349C24.5905 36.2949 23.8805 35.6449 23.0805 35.1049C24.7005 34.3749 26.4605 34.0349 28.2405 34.0949C28.0705 34.5749 27.9605 35.0749 27.9005 35.5949L27.9105 35.6149ZM26.9905 32.8049C25.1405 32.9149 23.3405 33.4349 21.7105 34.3049L21.3105 34.5349C21.3105 34.5349 21.2805 34.5449 21.2705 34.5549C21.0005 34.7149 20.7605 34.8949 20.5105 35.0849C20.0305 33.0149 20.4705 30.8449 21.7105 29.1249C22.9505 27.4049 24.8905 26.3049 27.0005 26.1149V32.7949L26.9905 32.8049ZM21.7305 35.8549C22.4205 36.2549 23.0605 36.7349 23.6305 37.3049C23.2705 37.3049 22.9005 37.3449 22.5605 37.4549C21.3405 37.8349 20.8205 38.9549 20.3505 39.9449C20.1905 40.3149 20.0005 40.6749 19.7805 41.0149C19.4805 41.4349 19.0605 41.6349 18.1705 41.2449C18.2405 40.9949 18.3205 40.7449 18.4005 40.4949C18.9705 38.6149 20.1305 36.9849 21.7305 35.8549ZM19.0105 42.7749C19.7605 42.7749 20.4505 42.4049 20.8605 41.7749C21.1305 41.3749 21.3605 40.9349 21.5605 40.4849C21.9405 39.6649 22.3005 38.9049 22.9605 38.7049C23.2505 38.6349 23.5405 38.6049 23.8405 38.6149C24.0505 38.6149 24.2805 38.6149 24.4905 38.5849C24.5605 38.5849 24.6405 38.5649 24.7005 38.5549C24.8005 38.7049 24.8905 38.8649 24.9705 39.0249C25.0805 39.2949 25.1805 39.5549 25.2705 39.7849C25.0005 39.9149 24.7605 40.0949 24.5405 40.3149C23.9705 40.8749 23.6505 41.6449 23.6605 42.4349C23.6605 43.3549 22.9105 44.1049 21.9905 44.1049H19.6505C18.9305 44.1049 18.2305 44.3249 17.6605 44.7749C17.6605 44.0249 17.7305 43.2749 17.8605 42.5349C18.2305 42.6849 18.6205 42.7549 19.0105 42.7649H19.0005L19.0105 42.7749ZM29.2505 60.8049H18.9405C19.8905 59.1349 20.9905 56.3349 20.9905 55.1949C20.9905 55.0949 20.9805 55.0049 20.9505 54.9249C20.7805 54.5249 20.5605 54.0949 20.2905 53.5949C19.0905 51.4749 18.2705 49.1649 17.8405 46.7749C17.8405 46.7149 17.8305 46.6649 17.8205 46.6049C18.1805 45.9149 18.8805 45.4749 19.6705 45.4649H22.0105C23.6705 45.4649 25.0105 44.1249 25.0205 42.4549C25.0205 41.5349 25.7705 40.7849 26.6905 40.7849H29.8305C32.2705 40.7849 34.6405 39.9949 36.5905 38.5349C37.3405 39.5749 37.8805 40.7649 38.1805 42.0049C38.3805 42.7049 38.4605 43.4449 38.4305 44.1749C38.4105 44.4049 38.3705 44.6349 38.3305 44.8649C37.7005 44.5149 37.0305 44.2849 36.3305 44.1449C35.5605 44.0749 34.7805 44.1749 34.0505 44.4549C33.8705 44.5149 33.7005 44.5549 33.5205 44.6149C33.1605 44.7049 32.9505 45.0749 33.0405 45.4349C33.1305 45.7949 33.5005 46.0049 33.8605 45.9149C34.0505 45.8749 34.2405 45.8049 34.4305 45.7449C34.9705 45.5349 35.5405 45.4449 36.1205 45.4749C36.7905 45.6049 37.4305 45.8549 38.0105 46.2149C37.8905 46.7649 37.8305 47.3149 37.8405 47.8749C37.9705 48.9749 38.4005 50.0149 39.0805 50.8749C39.3105 51.2149 39.5305 51.5549 39.6805 51.9349C39.5905 51.9749 39.4905 52.0149 39.3905 52.0249C38.9705 52.0249 38.5605 52.2049 38.2705 52.5149C37.9805 52.8149 37.8205 53.2349 37.8305 53.6549C37.8605 54.2049 37.8305 54.7549 37.7405 55.2849C37.7105 55.4049 37.6405 55.5049 37.5505 55.5949C37.5105 55.6349 37.4705 55.6549 37.3405 55.6849C36.8705 55.7949 36.3905 56.0449 36.3905 57.0249C36.3905 57.2449 36.4105 57.4649 36.4305 57.6749C36.5105 58.4149 36.5205 58.5949 35.8705 58.8049C34.7205 59.1949 29.1705 57.8649 27.8705 56.1449C27.7205 55.9549 27.4905 55.8549 27.2505 55.8749C27.0205 55.9049 26.8105 56.0549 26.7105 56.2749C26.6205 56.4949 26.6405 56.7449 26.7905 56.9349C27.6305 57.8549 28.6905 58.5449 29.8705 58.9549C29.5905 59.5349 29.3905 60.1549 29.2805 60.7849H29.2705L29.2505 60.8049ZM45.4605 46.7049L44.0405 45.3649C43.5705 44.9249 42.8705 44.8649 42.3305 45.1949L41.0905 45.9849C41.0905 45.9849 41.0305 45.9949 41.0105 45.9849L39.5905 45.1749C39.6605 44.8749 39.7005 44.5749 39.7205 44.2649V44.1049H40.8805C41.0905 44.1049 41.2905 44.0649 41.4805 43.9749L43.7805 42.8949H43.8505L45.4505 43.9149C45.6705 44.0449 45.9305 44.1249 46.1905 44.1249H49.3005C49.5505 44.1249 49.7805 44.0549 49.9905 43.9449L52.3405 42.6049V45.0949L45.4405 46.7049H45.4505H45.4605ZM52.3605 46.4549V49.4549H39.7605C39.4205 48.9749 39.2205 48.4149 39.1605 47.8349C39.1605 47.3949 39.1905 46.9649 39.2805 46.5349L40.3505 47.1349C40.8005 47.3949 41.3605 47.3849 41.7905 47.1049L43.0305 46.3149C43.0305 46.3149 43.0905 46.3049 43.1105 46.3149L44.5305 47.6549C44.7905 47.9049 45.1305 48.0349 45.4905 48.0349C45.6005 48.0349 45.7105 48.0249 45.8105 47.9949L52.3405 46.4549H52.3505H52.3605ZM49.3205 42.7849H46.1805L44.5905 41.7649C44.1905 41.5049 43.6705 41.4849 43.2505 41.6849L40.9205 42.7849H39.6805C39.6205 42.4149 39.5605 42.0449 39.4705 41.6849C39.3505 41.1949 39.2005 40.7149 39.0105 40.2449L42.3905 38.8649H42.4605L46.0105 41.1049C46.4505 41.3849 47.0105 41.3849 47.4405 41.1049L52.3905 37.9749V41.0549L49.3505 42.7749H49.3305L49.3205 42.7849ZM38.8005 56.1549H39.6805V58.1549H37.7805C37.7805 57.9549 37.7705 57.7649 37.7505 57.5649C37.7305 57.3949 37.7205 57.2149 37.7205 57.0549V56.9849C38.0105 56.9149 38.2805 56.7749 38.4905 56.5649C38.6105 56.4449 38.7205 56.3049 38.8105 56.1649H38.8005V56.1549ZM41.6905 59.4849C42.5405 59.4849 43.2905 60.0249 43.5805 60.8149H30.6305C30.7405 60.3449 30.9105 59.8849 31.1305 59.4549C32.4605 59.9149 33.8505 60.1749 35.2605 60.2249C35.6105 60.2249 35.9505 60.1949 36.2905 60.0949C36.6805 59.9849 37.0305 59.7749 37.3105 59.4949H41.6905V59.4849ZM55.0405 53.4749C55.0405 54.2149 54.4505 54.8049 53.7105 54.8049H39.1505C39.1705 54.4949 39.1705 54.1249 39.1705 53.6549C39.1705 53.5449 39.1705 53.3649 39.4705 53.3549C39.5105 53.3549 39.5605 53.3549 39.6005 53.3449C40.1605 53.2849 40.6505 52.9549 40.9305 52.4649C41.1005 51.8949 40.9905 51.2649 40.6105 50.7949H55.0405V53.4649V53.4749ZM55.0405 49.4849H53.7105V34.1249C53.7105 33.7549 53.4105 33.4549 53.0405 33.4549C52.6705 33.4549 52.3705 33.7549 52.3705 34.1249V36.4249L46.7105 40.0049L43.1605 37.7549C42.7805 37.5249 42.3005 37.4749 41.8705 37.6449L38.4305 39.0449C37.8005 37.8749 36.9605 36.8149 35.9705 35.9249C36.2205 35.1149 36.3405 34.2849 36.3405 33.4449C36.3405 32.8749 36.2805 32.3049 36.1705 31.7449C35.8205 30.0049 34.9505 28.4049 33.6605 27.1749C30.7905 24.4249 26.4105 23.9749 23.0505 26.0949C19.6805 28.2049 18.1805 32.3449 19.4005 36.1249C18.6705 36.9349 18.0805 37.8549 17.6405 38.8449V24.7749C17.6405 24.0349 18.2305 23.4449 18.9705 23.4449H53.7105C54.4505 23.4449 55.0405 24.0349 55.0405 24.7749V49.4649V49.4849V49.4849Z" fill="url(#paint3_linear_538_123)"/>
<path d="M45.3405 27.115C45.3405 27.115 45.3405 27.105 45.3305 27.095C44.5705 25.405 42.7505 24.455 40.9305 24.805C39.1105 25.155 37.7605 26.705 37.6805 28.555C37.5905 30.405 38.7905 32.075 40.5705 32.585H40.5805C40.5805 32.585 40.6005 32.585 40.6105 32.595C42.1005 33.005 43.7005 32.525 44.7005 31.355C45.7105 30.185 45.9505 28.535 45.3405 27.125V27.115ZM41.0105 28.635L40.3305 31.015C39.4005 30.475 38.8905 29.415 39.0305 28.355C39.1705 27.295 39.9605 26.405 41.0105 26.155V28.635ZM42.3405 26.155C42.9005 26.305 43.3905 26.625 43.7505 27.075L42.3405 27.705V26.165V26.155ZM41.6705 31.405H41.6005L42.2305 29.225L44.3005 28.305C44.3205 28.455 44.3405 28.595 44.3405 28.745C44.3405 30.225 43.1405 31.415 41.6705 31.415V31.405Z" fill="url(#paint4_linear_538_123)"/>
<path d="M53.0298 25.4048H47.6798C47.3098 25.4048 47.0098 25.7048 47.0098 26.0748C47.0098 26.4448 47.3098 26.7448 47.6798 26.7448H53.0298C53.3998 26.7448 53.6998 26.4448 53.6998 26.0748C53.6998 25.7048 53.3998 25.4048 53.0298 25.4048Z" fill="url(#paint5_linear_538_123)"/>
<path d="M47.6915 29.4049H49.0215C49.3915 29.4049 49.6915 29.1049 49.6915 28.7349C49.6915 28.3649 49.3915 28.0649 49.0215 28.0649H47.6915C47.3215 28.0649 47.0215 28.3649 47.0215 28.7349C47.0215 29.1049 47.3215 29.4049 47.6915 29.4049Z" fill="url(#paint6_linear_538_123)"/>
<path d="M51.0215 30.7451H47.6915C47.3215 30.7451 47.0215 31.0451 47.0215 31.4151C47.0215 31.7851 47.3215 32.0851 47.6915 32.0851H51.0215C51.3915 32.0851 51.6915 31.7851 51.6915 31.4151C51.6915 31.0451 51.3915 30.7451 51.0215 30.7451Z" fill="url(#paint7_linear_538_123)"/>
<defs>
<linearGradient id="paint0_linear_538_123" x1="68.0798" y1="41.1152" x2="283.17" y2="41.1152" gradientUnits="userSpaceOnUse">
<stop stop-color="#172765"/>
<stop offset="0.26" stop-color="#193A75"/>
<stop offset="0.79" stop-color="#216E9F"/>
<stop offset="1" stop-color="#2584B1"/>
</linearGradient>
<linearGradient id="paint1_linear_538_123" x1="0.97" y1="40.995" x2="71.47" y2="40.995" gradientUnits="userSpaceOnUse">
<stop stop-color="#172765"/>
<stop offset="0.26" stop-color="#193A75"/>
<stop offset="0.79" stop-color="#216E9F"/>
<stop offset="1" stop-color="#2584B1"/>
</linearGradient>
<linearGradient id="paint2_linear_538_123" x1="22.311" y1="50.1048" x2="26.981" y2="50.1048" gradientUnits="userSpaceOnUse">
<stop stop-color="#172765"/>
<stop offset="0.26" stop-color="#193A75"/>
<stop offset="0.79" stop-color="#216E9F"/>
<stop offset="1" stop-color="#2584B1"/>
</linearGradient>
<linearGradient id="paint3_linear_538_123" x1="16.3105" y1="42.0949" x2="56.3705" y2="42.0949" gradientUnits="userSpaceOnUse">
<stop stop-color="#172765"/>
<stop offset="0.26" stop-color="#193A75"/>
<stop offset="0.79" stop-color="#216E9F"/>
<stop offset="1" stop-color="#2584B1"/>
</linearGradient>
<linearGradient id="paint4_linear_538_123" x1="37.6705" y1="28.725" x2="45.6905" y2="28.725" gradientUnits="userSpaceOnUse">
<stop stop-color="#172765"/>
<stop offset="0.26" stop-color="#193A75"/>
<stop offset="0.79" stop-color="#216E9F"/>
<stop offset="1" stop-color="#2584B1"/>
</linearGradient>
<linearGradient id="paint5_linear_538_123" x1="47.0198" y1="26.0748" x2="53.6998" y2="26.0748" gradientUnits="userSpaceOnUse">
<stop stop-color="#172765"/>
<stop offset="0.26" stop-color="#193A75"/>
<stop offset="0.79" stop-color="#216E9F"/>
<stop offset="1" stop-color="#2584B1"/>
</linearGradient>
<linearGradient id="paint6_linear_538_123" x1="47.0215" y1="28.7349" x2="49.6915" y2="28.7349" gradientUnits="userSpaceOnUse">
<stop stop-color="#172765"/>
<stop offset="0.26" stop-color="#193A75"/>
<stop offset="0.79" stop-color="#216E9F"/>
<stop offset="1" stop-color="#2584B1"/>
</linearGradient>
<linearGradient id="paint7_linear_538_123" x1="47.0215" y1="31.4151" x2="51.6915" y2="31.4151" gradientUnits="userSpaceOnUse">
<stop stop-color="#172765"/>
<stop offset="0.26" stop-color="#193A75"/>
<stop offset="0.79" stop-color="#216E9F"/>
<stop offset="1" stop-color="#2584B1"/>
</linearGradient>
</defs>
</svg>
