<svg xmlns="http://www.w3.org/2000/svg" viewBox="0 0 10929.63 2765.58"><defs><style>.cls-1,.cls-2{fill:#fff;}.cls-2{fill-rule:evenodd;}</style></defs><g id="Capa_2" data-name="Capa 2"><g id="Capa_1-2" data-name="Capa 1"><path class="cls-1" d="M2550.57,757.27H2669.9v419.4H2550.57Z"/><path class="cls-1" d="M2895.69,1038.68c-21.06-28.44-39.5-54.24-58.46-81.63l-1.05.53c.53,32.13,1.05,64.78,1.05,96.91v122.18H2733V795.38H2834.6l101.11,138c21.07,28.43,39.51,54.25,58.45,81.62l1.07-.52c-.53-32.12-1.07-64.77-1.07-96.9V795.38h104.28v381.29H2996.8Z"/><path class="cls-1" d="M3157.49,1053.43c47.4,27.39,101.11,39,127.44,39,22.12,0,37.92-7.89,37.92-27.38,0-27.39-30.54-27.39-79-44.23-57.93-20-98-48.45-98-110.07,0-74.26,57.4-121.13,142.71-121.13,39.5,0,88.48,10,124.29,27.91V917.56c-45.81-25.8-96.38-37.92-123.24-37.92-20,0-33.7,6.33-33.7,23.17,0,24.75,29.5,24.75,75.83,41.09,59.52,21.06,101.12,50.55,101.12,114.81,0,76.87-60.56,123.75-149,123.75-39,0-87.94-9-126.39-27.38Z"/><path class="cls-1" d="M3569.37,887H3448.25V795.38H3799V887H3677.85v289.65H3569.37Z"/><path class="cls-1" d="M3832.21,795.38H3940.7v381.29H3832.21Z"/><path class="cls-1" d="M4095,887H3973.91V795.38h350.72V887H4203.51v289.65H4095Z"/><path class="cls-1" d="M4707.56,996c0,58-11.05,98-32.13,125.88-28.44,37.91-80.58,60.56-144.3,60.56-62.67,0-117.43-21.59-146.4-62.15-20-27.91-30-68.46-30-124.29V795.38H4463.2V989.71c0,36.87,4.21,58.45,14.74,73.2s29,25.29,55.31,25.29c23.7,0,41.07-8.43,52.12-22.13,12.12-14.74,17.91-39,17.91-76.36V795.38h104.28Z"/><path class="cls-1" d="M4858.77,887H4737.65V795.38h350.74V887H4967.25v289.65H4858.77Z"/><path class="cls-1" d="M5301.73,789.59c114.8,0,203.8,86.37,203.8,196.43s-89,196.44-203.8,196.44S5097.91,1096.09,5097.91,986,5186.92,789.59,5301.73,789.59Zm0,295.44c53.71,0,95.32-43.71,95.32-99s-41.61-99-95.32-99-95.33,43.71-95.33,99S5248,1085,5301.73,1085Z"/><path class="cls-1" d="M6076.84,978c0,63.73-12.16,107.75-35.34,138.45-31.27,41.71-88.63,66.62-158.72,66.62-68.93,0-129.18-23.76-161-68.36-22-30.7-33-75.3-33-136.71V757.27h119.33V971c0,40.55,4.63,64.31,16.22,80.52s31.85,27.8,60.82,27.8c26.07,0,45.18-9.26,57.35-24.32,13.32-16.22,19.7-42.87,19.7-84V757.27h114.69Z"/><path class="cls-1" d="M6299.18,1038.68c-21.06-28.44-39.49-54.24-58.45-81.63l-1,.53c.52,32.13,1,64.78,1,96.91v122.18H6136.45V795.38h101.64l101.11,138c21.08,28.43,39.51,54.25,58.46,81.62l1.06-.52c-.53-32.12-1.06-64.77-1.06-96.9V795.38h104.28v381.29H6400.3Z"/><path class="cls-1" d="M6562.05,795.38h108.49v381.29H6562.05Z"/><path class="cls-1" d="M6696.89,795.38h116.38l52.67,149c11.06,31.59,21.59,62.15,31.6,92.69h1.05c10.53-31.07,22.12-63.72,33.18-93.74l54.24-148h111.64l-145.87,381.29h-109Z"/><path class="cls-1" d="M7124.05,795.38h248.57V887H7232.54v48.45H7351v86.37H7232.54V1085h146.4v91.64H7124.05Z"/><path class="cls-1" d="M7427.44,795.38h133.24c46.35,0,80.58,5.8,106.9,19,36.87,17.9,61.62,50,61.62,99.53,0,46.87-22.65,82.69-70.05,102.7l101.12,160.1h-122.7l-84.8-144.83h-16.84v144.83H7427.44Zm135.34,162.2q30,0,42.66-7.89c10-5.79,15.27-15.8,15.27-30,0-16.33-7.37-26.34-18.42-31.6-9-4.22-21.6-6.32-46.35-6.32h-20v75.83Z"/><path class="cls-1" d="M7778.75,1053.43c47.4,27.39,101.11,39,127.44,39,22.12,0,37.92-7.89,37.92-27.38,0-27.39-30.54-27.39-79-44.23-57.93-20-97.95-48.45-97.95-110.07,0-74.26,57.4-121.13,142.71-121.13,39.49,0,88.48,10,124.28,27.91V917.56c-45.81-25.8-96.37-37.92-123.23-37.92-20,0-33.71,6.33-33.71,23.17,0,24.75,29.5,24.75,75.84,41.09,59.52,21.06,101.12,50.55,101.12,114.81,0,76.87-60.56,123.75-149,123.75-39,0-88-9-126.39-27.38Z"/><path class="cls-1" d="M8096.37,795.38h108.49v381.29H8096.37Z"/><path class="cls-1" d="M8359.18,887H8238.06V795.38H8588.8V887H8467.67v289.65H8359.18Z"/><path class="cls-1" d="M8698.9,795.38h106.91l154.31,381.29h-118l-26.86-77.94H8684.68l-27.9,77.94H8544.6Zm51.62,115.86c-7.38,24.23-14.75,46.34-23.7,71.1l-13.17,36.33h73.74l-12.65-36.33c-8.95-25.81-15.79-47.4-23.17-71.1Z"/><path class="cls-1" d="M8991.26,795.38H9124.5c46.35,0,80.58,5.8,106.9,19,36.87,17.9,61.62,50,61.62,99.53,0,46.87-22.65,82.69-70,102.7l101.11,160.1h-122.7l-84.79-144.83h-16.85v144.83H8991.26Zm135.34,162.2q30,0,42.66-7.89c10-5.79,15.27-15.8,15.27-30,0-16.33-7.37-26.34-18.42-31.6-9-4.22-21.6-6.32-46.35-6.32h-20v75.83Z"/><path class="cls-1" d="M9343.62,795.38h108.49v381.29H9343.62Z"/><path class="cls-1" d="M9702.82,789.59c114.81,0,203.81,86.37,203.81,196.43s-89,196.44-203.81,196.44S9499,1096.09,9499,986,9588,789.59,9702.82,789.59Zm0,295.44c53.72,0,95.33-43.71,95.33-99s-41.61-99-95.33-99-95.32,43.71-95.32,99S9649.11,1085,9702.82,1085Z"/><path class="cls-1" d="M10090.28,795.38h109.55c79,0,138.5,13.17,179,43.71,42.13,31.6,65.31,83.21,65.31,147.47,0,56.86-17.91,104.26-54.25,137.44-37.91,34.23-96.38,52.67-188,52.67h-111.65ZM10203,1085c69,0,96.9-13.69,113.22-33.18,14.22-17.38,19.49-40.54,19.49-65.29,0-35.82-11.06-61.62-32.66-77.95-23.16-17.38-57.93-21.59-100.57-21.59h-3.69v198Z"/><path class="cls-1" d="M10489.53,795.38h248.58V887H10598v48.45h118.49v86.37H10598V1085h146.4v91.64h-254.89Z"/><path class="cls-1" d="M3753.77,1462.77h119.34V1614h149.44V1462.77H4141.9v419.39H4022.55V1714.75H3873.11v167.41H3753.77Z"/><path class="cls-1" d="M4330.33,1500.88h106.9l154.32,381.28h-118l-26.87-77.94h-130.6l-27.9,77.94H4176Zm51.61,115.86c-7.38,24.23-14.74,46.35-23.7,71.1l-13.17,36.33h73.74l-12.64-36.33c-9-25.81-15.8-47.4-23.18-71.1Z"/><path class="cls-1" d="M4622.67,1500.88h118c60.56,0,97.95,6.84,124.29,21.59,27.38,15.27,45.81,40,45.81,74.26,0,35.81-20.53,59-57.93,73.2v1c53.19,17.91,73.73,51.62,73.73,93.75,0,44.23-22.64,78.46-66.35,98-29,13.17-67.41,19.48-113.76,19.48H4622.67Zm131.67,152.19c32.64,0,47.92-10,47.92-33.16,0-12.12-4.21-21.08-15.81-26.87-7.89-4.21-20-5.79-42.65-5.79h-12.64v65.82ZM4747,1795.8c31.07,0,46.87-2.63,55.83-7.37,10.53-5.8,15.27-15.28,15.27-29,0-25.81-17.91-36.86-52.67-36.86h-34.23v73.2Z"/><path class="cls-1" d="M4965.56,1500.88h108.5v381.28h-108.5Z"/><path class="cls-1" d="M5134.11,1500.88H5242.6v289.65h159v91.63H5134.11Z"/><path class="cls-1" d="M5439.07,1500.88h108.5v381.28h-108.5Z"/><path class="cls-1" d="M5607.62,1500.88h109.54c79,0,138.51,13.17,179.06,43.71,42.13,31.59,65.3,83.21,65.3,147.47,0,56.86-17.9,104.26-54.25,137.44-37.91,34.23-96.37,52.66-188,52.66H5607.62Zm112.71,289.65c69,0,96.9-13.69,113.22-33.18,14.22-17.38,19.48-40.54,19.48-65.29,0-35.82-11.05-61.62-32.65-78-23.16-17.37-57.93-21.58-100.58-21.58h-3.69v198Z"/><path class="cls-1" d="M6110.09,1500.88H6217l154.31,381.28h-118l-26.86-77.94H6095.87l-27.9,77.94H5955.79Zm51.62,115.86c-7.38,24.23-14.75,46.35-23.7,71.1l-13.17,36.33h73.74l-12.65-36.33c-9-25.81-15.79-47.4-23.17-71.1Z"/><path class="cls-1" d="M6402.45,1500.88H6512c79,0,138.51,13.17,179.06,43.71,42.13,31.59,65.3,83.21,65.3,147.47,0,56.86-17.91,104.26-54.25,137.44-37.91,34.23-96.37,52.66-188,52.66H6402.45Zm112.71,289.65c69,0,96.89-13.69,113.22-33.18,14.22-17.38,19.48-40.54,19.48-65.29,0-35.82-11.06-61.62-32.65-78-23.17-17.37-57.93-21.58-100.58-21.58h-3.69v198Z"/><path class="cls-1" d="M6801.7,1500.88h248.57v91.64H6910.19V1641h118.48v86.37H6910.19v63.19h146.4v91.63H6801.7Z"/><path class="cls-1" d="M7104,1758.93c47.4,27.39,101.12,39,127.44,39,22.13,0,37.92-7.9,37.92-27.39,0-27.39-30.54-27.39-79-44.23-57.93-20-97.95-48.45-97.95-110.07,0-74.27,57.41-121.13,142.71-121.13,39.5,0,88.48,10,124.29,27.91v100.06c-45.81-25.8-96.37-37.92-123.24-37.92-20,0-33.7,6.33-33.7,23.17,0,24.75,29.5,24.75,75.84,41.09,59.51,21.06,101.11,50.55,101.11,114.79,0,76.89-60.56,123.77-149,123.77-39,0-87.94-9-126.39-27.38Z"/><path class="cls-1" d="M2997.24,1500.88h106.9l154.32,381.28h-118l-26.86-77.94H2983l-27.91,77.94H2842.93Zm51.61,115.86c-7.38,24.23-14.74,46.35-23.7,71.1L3012,1724.17h73.74l-12.64-36.33c-9-25.81-15.8-47.4-23.18-71.1Z"/><path class="cls-1" d="M2550.57,1500.88h108.49v289.65h159v91.63H2550.57Z"/><path class="cls-1" d="M3301.16,1758.93c47.4,27.39,101.12,39,127.44,39,22.12,0,37.92-7.9,37.92-27.39,0-27.39-30.54-27.39-79-44.23-57.93-20-98-48.45-98-110.07,0-74.27,57.4-121.13,142.71-121.13,39.5,0,88.48,10,124.29,27.91v100.06c-45.81-25.8-96.38-37.92-123.24-37.92-20,0-33.7,6.33-33.7,23.17,0,24.75,29.5,24.75,75.83,41.09,59.52,21.06,101.12,50.55,101.12,114.79,0,76.89-60.56,123.77-149,123.77-39,0-87.94-9-126.39-27.38Z"/><path class="cls-1" d="M7553.11,1500.88h109.55c79,0,138.5,13.17,179.05,43.71,42.13,31.59,65.31,83.21,65.31,147.47,0,56.86-17.91,104.26-54.26,137.44-37.9,34.23-96.37,52.66-188,52.66H7553.11Zm112.71,289.65c69,0,96.9-13.69,113.22-33.18,14.22-17.38,19.48-40.54,19.48-65.29,0-35.82-11.05-61.62-32.65-78-23.16-17.37-57.93-21.58-100.58-21.58h-3.69v198Z"/><path class="cls-1" d="M7952.36,1500.88h248.58v91.64H8060.85V1641h118.49v86.37H8060.85v63.19h146.4v91.63H7952.36Z"/><path class="cls-1" d="M8255.75,1500.88h108.49v289.65h159v91.63H8255.75Z"/><path class="cls-1" d="M8705.7,1462.77h281v100.79H8825V1625h136.13v95H8825v162.19H8705.7Z"/><path class="cls-1" d="M9388.41,1701.52c0,57.94-11.06,98-32.13,125.88-28.44,37.92-80.58,60.56-144.3,60.56-62.67,0-117.43-21.59-146.4-62.15-20-27.9-30-68.46-30-124.29V1500.88h108.48v194.33c0,36.87,4.21,58.45,14.74,73.2s29,25.28,55.3,25.28c23.7,0,41.08-8.42,52.13-22.12,12.12-14.74,17.91-39,17.91-76.36V1500.88h104.28Z"/><path class="cls-1" d="M9539.62,1592.52H9418.49v-91.64h350.74v91.64H9648.1v289.64H9539.62Z"/><path class="cls-1" d="M10152.14,1701.52c0,57.94-11.06,98-32.13,125.88-28.44,37.92-80.58,60.56-144.3,60.56-62.67,0-117.44-21.59-146.4-62.15-20-27.9-30-68.46-30-124.29V1500.88h108.48v194.33c0,36.87,4.22,58.45,14.75,73.2s29,25.28,55.3,25.28c23.7,0,41.07-8.42,52.13-22.12,12.12-14.74,17.91-39,17.91-76.36V1500.88h104.28Z"/><path class="cls-1" d="M10182.81,1500.88h133.24c46.35,0,80.58,5.79,106.91,19,36.86,17.9,61.61,50,61.61,99.53,0,46.87-22.64,82.69-70,102.7l101.11,160.09h-122.7l-84.79-144.82h-16.85v144.82h-108.49Zm135.34,162.21q30,0,42.66-7.9c10-5.79,15.27-15.8,15.27-30,0-16.33-7.36-26.34-18.42-31.6-9-4.22-21.6-6.32-46.35-6.32h-20v75.84Z"/><path class="cls-1" d="M10725.83,1495.09c114.81,0,203.8,86.37,203.8,196.43s-89,196.44-203.8,196.44S10522,1801.59,10522,1691.52,10611,1495.09,10725.83,1495.09Zm0,295.44c53.71,0,95.32-43.71,95.32-99s-41.61-99-95.32-99-95.32,43.71-95.32,99S10672.11,1790.53,10725.83,1790.53Z"/><path class="cls-2" d="M1469.77,608.22Q1599.07,435,1621.58,302.47,1502.34,440,1469.77,608.22M1844.5,459.64q250.92-119.52,286.6,101.91,47.13-279.51-356.69-191.1Q1808.43,404.79,1844.5,459.64Zm-145.16,71.71q292.85-7,248.4,244.16Q1864.49,552.28,1699.34,531.35Zm237.5,290.31c119.94,76.14,254.59,288.55,267.54,437.38q-34-90.66-106.16-144.4,96.27,269.49,23.35,624.26Q2175.3,1325.71,1936.84,821.66Zm-80.7,902.39c-195.49-258.23,94.35-424.09-25.45-766.52C2056,1241.12,1745.42,1485.29,1856.14,1724.05ZM1786,2036.21q53.2-49.14,144.38-168.83-61.45,213.55-201.68,356.73,39.15-131.78,9.55-340.78-31.87,59.3-195.37,224,128.43-190.15,188-312.15Q1788.15,1832.63,1786,2036.21ZM1264.2,2258.55c-11.88-212.53,207-196.64,267.23-427.3C1550.28,2068.5,1291.38,2087.74,1264.2,2258.55ZM1336,523.32q81.45-83.15,31.85-271.8Q1338.5,417.69,1336,523.32ZM1176.78,1926.71v794.45h.35a47.57,47.57,0,0,1,10,1q34.51-169.42,77.88-260.89,99.13-154.08,218.67-354.61-9,88.25-80.67,229.34,133.9-32.17,297.27-307.87-28.61,226.7-169.89,399.16Q1869,2324.81,2031.5,1733q25.17,153.35-21.25,433.17,231-279.15,217.64-794.09,49.53,50.81,82.8,139,34.53-301.58-165.61-632.74,83.22,32.8,176.21,122.1-63.89-158.16-221.85-255.86,56.66-51.66,73.21-103c119.93-247.87-56.31-401.14-410.85-325.94q-87.57-.75-271.78-191.06,9.36,52.05,54.15,128.44Q1475,217,1361.5,77.9q0,61.18,34,132.7c-98.1-44.69-171-91.63-218.67-192V735.2c17,7.48,33.07,8.41,48.36,4.31,25-6.73,32.76-451.45,37.77-417.19,13.31,91.27,35.48,551.58,191.71,133.48q-19.18,152-77.68,266.92c63.93.47,200.63-166.36,230.6-223.78,30.12,96.83-34.28,195.72-56.34,227.06q135.49-44,198.67-26.82,116.87,17.36,66.29,139.3,10.33-81.08-49.81-72.48-88.29,2.07-135.9,57.72-50.54,79.75-11.32,109.84,44.85,29.84,66.78,111,22.59,96.76,51,150.59,10,92.22-184.59,303.47-69.78-31.71-88.33-75.85-8.88,47.6,46.42,128,46.85,117.38,4.49,152.87-84.68,86.88-168.68,71.33-96.57-20.75-138.14-69.08,50.13-96.78,150.59-96.24,87.38.51,71.34-65.69-27.24-101.61-104.17-215.16,21.54,94.27,43,169.85,5.37,45.2-36.22,4.56-27-22.5-86.61,4a288.79,288.79,0,0,1-69.24,10.23v313.46q106.6.24,191.49,13.17,34.7,44.2-19.23,148.32Q1258.44,1923.49,1176.78,1926.71Zm253.76-791.57q69.17,50.05,118.32-2.3,34.29-23.67,47.56-56.61,36.72-5.26,57.18,8.49a32.73,32.73,0,0,0-24.34-45.84q-150.6-7.34-232.7-1.16-61.74-.43-59.46,57.21-7.61,113.17-5.66,168.12Q1363,1187,1375.6,1132.28,1397.92,1107.16,1430.54,1135.14Z"/><path class="cls-1" d="M1150.13,1838.4a38.61,38.61,0,1,0,37.5-47.78,36.28,36.28,0,0,0-3.64.23v-81.16a38.89,38.89,0,0,0,1.61-11,37.72,37.72,0,0,0-1.61-10.85V1550.28c1.19.11,2.41.15,3.64.15a38.59,38.59,0,0,0,38.61-38.61c0-.09,0-.17,0-.26-2.5.49-5.1.83-7.75,1.13a106.23,106.23,0,0,1-27,1.06c-8.17-.82-16.31-2-24.43-3.26a35.13,35.13,0,0,1-6.71-.91c-1.32-.16-2.62-.36-3.9-.63a45.52,45.52,0,0,1-8.19-1c-2.29-.3-4.63-.66-6.88-1a281.88,281.88,0,0,1-31.25-6.6,205.45,205.45,0,0,0-28.58-10.41,117.87,117.87,0,0,0-25.09-4.25,68,68,0,0,0-22.09,2.38,49.53,49.53,0,0,0-18,9.53l-.42.34a125.11,125.11,0,0,1-16.1,13.76c-3.7,2.48-6.34,3.66-7.88,3.43l-.37-2c-.5-2.92-.43-7.25.21-13.14,3.6-12.62,7.2-25.59,10.72-38.77q5.34-20,10.7-41.18c2.6-10.29,5.35-21,8.1-32.49a34.63,34.63,0,0,0,18.32-61.2l24.62-27.23a49.93,49.93,0,0,0,24,6.13,50.53,50.53,0,0,0,6-100.7c-.08-3.65-.26-7.42-.42-11.24q-.69-21.35-2-45.84-1.28-24.88-3.18-52.8.57-15.59-3.3-27.49a49.47,49.47,0,0,0-12.62-20.6,52.66,52.66,0,0,0-21.41-12.22c-8.24-2.61-17.87-3.87-28.85-3.84-8.61-.64-17.92-1.18-28-1.63-2.53-.13-5-.16-7.68-.24a27.17,27.17,0,0,0-7.41-12.69l85.48-117.92a40.19,40.19,0,0,0,22.78.24l57.41,84.16a38.59,38.59,0,0,0,24.47,64.62v.07a50.88,50.88,0,0,0,14.44-1.26v0a38.63,38.63,0,0,0,0-74.29V277.43a37.4,37.4,0,0,0,0-74.09v-150a29.81,29.81,0,1,0-44.14-8.57,434,434,0,0,1-55.63,69.88,422.66,422.66,0,0,1-93.74,71.49,29.61,29.61,0,0,0-11.05-7.33c.58-1.58,1.12-3.14,1.69-4.72q5.57-15.53,9.41-30.61a286.71,286.71,0,0,0,6.41-32.92,29.87,29.87,0,1,0-32.11-11c-11,13-21.79,25.24-32.07,36.62-12.84,14.19-25.09,27.23-36.9,39a29.76,29.76,0,0,0-41.74,27.3,29.32,29.32,0,0,0,1.68,9.7c-2.56,2.2-5.12,4.22-7.65,6.19-6.53,5.29-12.84,10-18.91,14.2q4.82-9,9.13-17.62c5.06-10,9.55-19.8,13.58-29.33,4.62-11,8.52-21.45,11.57-31.3a4.32,4.32,0,0,0,.32-.69,20.85,20.85,0,0,0,2.09.07,29.82,29.82,0,1,0-29.82-29.81A30.13,30.13,0,0,0,840,138.51Q805.41,173.3,774.45,201q-24.87,22.32-47.4,40.17a29.79,29.79,0,0,0-47.91,34.07,294.67,294.67,0,0,1-40.25,21.6c-5.74,2.48-11.2,4.62-16.51,6.35A36,36,0,0,0,557,301.71a830.67,830.67,0,0,0-94.38-11.17,36.1,36.1,0,0,0-71.23-.27c-56.08,3.18-103.91,14.58-142.35,33.19a230.84,230.84,0,0,0-39.81,24.27A190.18,190.18,0,0,0,177.51,378a169.08,169.08,0,0,0-18.27,26.91,37,37,0,0,0-7.72-.87,36.11,36.11,0,0,0-13.86,69.45c-2.52,22.05-1.68,45.69,2.81,70.8,5.57,31.25,16.71,64.73,33.7,100a177.38,177.38,0,0,0,11.16,26.39,225.54,225.54,0,0,0,16.3,26.52A295.22,295.22,0,0,0,221.5,722c2.18,2.44,4.52,4.94,6.81,7.38a35,35,0,0,0-2.06,11.77,36.5,36.5,0,0,0,2,11.7q-67.38,45.42-116.46,102.72A511.57,511.57,0,0,0,42.4,960.51a35,35,0,0,0-4.09-.22,38.25,38.25,0,0,0-24.81,67.42l-.55,1.23.93-.84a38.33,38.33,0,0,0,55.6-51.81c4.49-3.86,8.83-7.72,13.24-11.34q22.36-18.6,44.21-33.68,19.38-13.5,38.23-24.08c6.91-3.91,13.76-7.41,20.6-10.8A23.66,23.66,0,0,0,188,899q-90.51,156-129,305.5-36.73,142.93-25.9,280a38.24,38.24,0,1,0,27.75,1.75A457.19,457.19,0,0,1,84,1440.06,335,335,0,0,1,115,1395a32.94,32.94,0,0,0,3.05,2.6q-1.65,117.11,9.45,221.74c2.51,23.51,5.59,46.56,9.09,69.16a27.34,27.34,0,0,0,8,46.6q9.27,49,21.81,94.88,27.42,100,70.24,185.18a829.45,829.45,0,0,0,81,130.17,38.27,38.27,0,1,0,27.9-10.85q-8.25-52.9-13.84-101.1-7.12-61.92-9.75-115.75-2.42-48.72-1.14-90.9c.45-15.07,1.3-29.48,2.44-43.36a36.78,36.78,0,0,0,6,.92q36.48,122.6,81.06,222.8,50.91,114.42,112.42,199.63,63.3,87.75,137.86,144.59a519.15,519.15,0,0,0,97.32,58.91c0,.62-.06,1.31-.06,2a54.58,54.58,0,1,0,54.54-54.6,53.83,53.83,0,0,0-26.87,7.09c-6.84-10.15-13.49-20.31-19.81-30.62a747.18,747.18,0,0,1-49-95.5,757,757,0,0,1-33.15-95,805.88,805.88,0,0,1-17.93-81q33.36,54,65.56,97.87,37.21,50.68,72.9,87.63,37.74,39.09,73.9,62.85a257.9,257.9,0,0,0,39.8,21.63,28.26,28.26,0,0,0-.2,3.22,31.24,31.24,0,1,0,31.23-31.2,33.43,33.43,0,0,0-5.52.45c-6.48-13.45-12.54-26.42-18.05-39.06q-13.89-31.72-23.89-60.1c-5.55-15.68-10.14-30.59-13.88-44.73-1.12-4.25-2.11-8.41-3.06-12.5.6-.19,1.14-.37,1.77-.62q19.95,33.22,39.63,65.88,27.06,44.5,52.37,85.59,27.52,44.68,53.41,85.75,26.14,41.64,50.69,79.68,12.23,25.9,23.78,58.25,11.7,32.63,22.6,71.45,10.77,38.53,20.94,83.19a48.17,48.17,0,1,0,34.36-8.15V2475.23a48.22,48.22,0,0,0,0-95.45V1965.33c1.19.11,2.41.23,3.64.23a38.64,38.64,0,1,0-38-45.11c-5.12.49-10.28,1.14-15.44,2.07a243.78,243.78,0,0,0-43.86,12.25,312.5,312.5,0,0,0-39.18,18.32c-2,1.11-3.94,2.19-6,3.33a52.79,52.79,0,0,0-8.9-10.63l36-71a31.82,31.82,0,0,0,5,.4,32.81,32.81,0,0,0,32.82-32.82c0-1-.05-1.87-.11-2.79,7-.34,14-.61,21-.85C1137.32,1838.55,1143.75,1838.49,1150.13,1838.4ZM999.2,1416.59q-5.34,21.14-10.7,41.13c-3.59,13.49-7.22,26.5-10.74,39l-.24,1.11c-1.1,9.18-.76,16.33,1,21.45,2.07,6.15,6,9.61,11.69,10.29,4.44.57,9.8-1.07,16-4.9,5.67-3.52,12.19-8.88,19.64-16.14a35.86,35.86,0,0,1,12.86-6.61,54.18,54.18,0,0,1,17.13-1.76A100,100,0,0,1,1078,1504a192.14,192.14,0,0,1,26.65,9.73l1,.34a287.79,287.79,0,0,0,33.46,7.15c2.4.36,4.82.7,7.23,1h.58c.75.06,1.49.15,2.23.28.12,0,.24,0,.35,0l7.74.82a9.93,9.93,0,0,1,2.23.5c3.49.61,6.68,1.16,8.71,4.67,1.54,2.67,1.38,6.56,1.44,9.58a63.3,63.3,0,0,1-.11,6.45c0,.2,0,.41,0,.61s0,.25,0,.37,0,.32,0,.48h0v121.34A38.45,38.45,0,0,0,1147,1660a37.74,37.74,0,0,0-19,5.15c-1.73-2.19-3.57-4.36-5.32-6.43a164.59,164.59,0,0,0-36.06-31.43,152.9,152.9,0,0,0-42.7-18.88,182.65,182.65,0,0,0-49-6c-13.81.06-25.51-1.11-35.06-3.6-9.21-2.37-16.45-5.94-21.57-10.65a30.05,30.05,0,0,1-9.21-17q-2.06-10.73,1.5-25.41a518,518,0,0,1,16.5-50.89q9.81-25.89,22.72-52.45,11.22-23.22,24.77-47c2.25-3.91,4.63-7.8,7-11.78a38.48,38.48,0,0,0,5.38,2.33C1004.36,1396.05,1001.8,1406.17,999.2,1416.59Zm38.54-161.86a50.5,50.5,0,0,0,14.88,35.81l-11.74,13-14.49,16.12a36.55,36.55,0,0,0-8.72-1.11,34.62,34.62,0,0,0-27.42,55.71c-1.37,2.33-2.78,4.65-4.15,7q-16.19,27.76-29.37,55c-8.76,18.16-16.51,36-23.2,53.72a525.24,525.24,0,0,0-16.95,52.16l-.09.37c-2.92,12.13-3.45,22.84-1.54,32.2a44,44,0,0,0,13.48,24.11c6.77,6.24,15.76,10.81,27,13.8,10.93,2.94,24.13,4.34,39.45,4.28a167.7,167.7,0,0,1,45.15,5.54,139.51,139.51,0,0,1,38.84,17.09,151.67,151.67,0,0,1,32.38,28.14c2,2.19,3.9,4.49,5.74,6.88a38.06,38.06,0,0,0-8.61,24.19,38.49,38.49,0,0,0,8.41,24c-.27.24-.53.39-.8.6a193.37,193.37,0,0,1-29,17.56,281.44,281.44,0,0,1-37,15.19,428.42,428.42,0,0,1-44.05,11.85,131.57,131.57,0,0,1-39.8,1.25,147.93,147.93,0,0,1-40.1-10.88,204.43,204.43,0,0,1-40.83-23.53,315.65,315.65,0,0,1-41.32-36.16l-.53-.49a44.78,44.78,0,0,1-13.54-20q-4.47-12.67-3.94-30.22.53-18.25,6.46-41.8a425.3,425.3,0,0,1,17.28-51.93,436.15,436.15,0,0,0,23.7-38.29,259.49,259.49,0,0,0,15.94-34.78A161.15,161.15,0,0,0,896,1456.8a38.67,38.67,0,1,0-30.66-9.9,128.27,128.27,0,0,1-11.86,11.44,181.73,181.73,0,0,1-21.85,15.94c-2,1.3-4.06,2.59-6.2,3.85a31.66,31.66,0,0,0-24.31-11.47,31.09,31.09,0,0,0-15.45,4.13c-10.67-11.85-20.76-23.43-30.25-34.56-10.3-12.14-20-23.9-29.19-35.39a31.71,31.71,0,0,0,5.39-32.19l158.77-190.12a26.21,26.21,0,0,0,7.84,1.11,27.12,27.12,0,0,0,23.15-12.84c.84,0,1.61,0,2.42,0,10.69.23,21.82-1.89,33.29-6.23s23.1-10.87,35.17-19.62l.45-.38a69.9,69.9,0,0,1,14-9.55,30.16,30.16,0,0,1,11.77-3.37,19.42,19.42,0,0,1,9.48,1.83,27.71,27.71,0,0,1,8.42,6.27c2.1,8.72,4.52,17.9,7.34,27.6q4.36,15,9.81,31.27c2,6,4.18,12.11,6.44,18.31A50.43,50.43,0,0,0,1037.74,1254.73ZM548.23,1614.34l-177.82,87.05A50,50,0,0,0,354,1689.54l166.46-305.11a32.46,32.46,0,0,0,4.73,1.34l8.26,46.84c8.46,48.11,17,96.37,26.05,146.9a31.41,31.41,0,0,0-12.73,25.25A31.8,31.8,0,0,0,548.23,1614.34Zm-8.47-229.11a31.31,31.31,0,0,0,19.54-15.82L672,1388.76a31.44,31.44,0,0,0,30.36,23,32.05,32.05,0,0,0,12.27-2.44c9.1,11.35,18.64,23,28.85,35,10,11.69,20.54,23.85,31.62,36.23a31.62,31.62,0,0,0-5.46,17.63,34.23,34.23,0,0,0,.91,7.46L604.3,1587a31.6,31.6,0,0,0-26-13.76,33.38,33.38,0,0,0-5.17.44Zm70,219.53a33.31,33.31,0,0,0-.23-4.37L777,1518.51a31.24,31.24,0,0,0,9.09,7.46l-75.27,269.46a38.25,38.25,0,0,0-14.06,6.21L593.85,1632.19A31.55,31.55,0,0,0,609.8,1604.76Zm190.22-75c.4,0,.74,0,1.12,0a31.55,31.55,0,0,0,31.54-31.55,30.21,30.21,0,0,0-.78-7.11c1.85-1.11,3.6-2.25,5.36-3.32a198.14,198.14,0,0,0,25.62-18.51,148.12,148.12,0,0,0,15-14.68c1.18.45,2.46.85,3.67,1.19a148.07,148.07,0,0,1-5.9,20.34,245.23,245.23,0,0,1-15.21,33.14,430.74,430.74,0,0,1-23.19,37.38l-.47.65-.31.81a437,437,0,0,0-18.14,54.59c-4.2,16.59-6.56,31.5-6.93,44.78q-.63,20.58,4.92,35.89a59.24,59.24,0,0,0,17.37,25.49,333.45,333.45,0,0,0,43.2,37.75,224.91,224.91,0,0,0,39.22,23L752.16,1814a38.57,38.57,0,0,0-26.33-18.73Zm186.6-486.66c12.4.45,24.06,1,34.87,1.82h.56c9.46,0,17.6,1,24.51,3.07,6.66,2,12,5,16.21,9a34.52,34.52,0,0,1,9.06,15.13c2,6.35,2.8,13.84,2.46,22.5v.73q1.93,28.64,3.2,53c.87,16.47,1.57,31.65,2,45.46.11,3.78.26,7.53.37,11.17a40.85,40.85,0,0,0-6.92,1.67c-2-5.61-4-11.17-5.8-16.58q-5.51-16.24-9.76-31c-2.88-9.8-5.31-19.24-7.42-28.3l-.41-1.83-1.23-1.35a45,45,0,0,0-14.22-11.08,33.4,33.4,0,0,0-16.4-3.21,42.57,42.57,0,0,0-16.86,4.63,78.9,78.9,0,0,0-17.16,11.5c-10.92,7.91-21.42,13.79-31.39,17.59a74.76,74.76,0,0,1-26.91,5.44,27.13,27.13,0,0,0-45.69-19.78c-1.56-1.47-3.21-3.06-4.73-4.67l-.54-.58-.66-.46a139.6,139.6,0,0,1-15.06-11.79,122.57,122.57,0,0,1-12.53-12.9,107.78,107.78,0,0,1-9.9-13.8,105.37,105.37,0,0,1-7.45-14.87l-2.67-2.3-3.26-1.3c-6.69-.23-9.56-.54-18.06-.52-18.57,0-27.44-1.31-32.37-2.19a7.21,7.21,0,0,1-1.12-5,5.9,5.9,0,0,1,.32-2.17,4.69,4.69,0,0,1,1.57-2.6,32.23,32.23,0,0,1,2.26-3.12c1.33-1.46,2.82-4.19,4.38-5.33a10.49,10.49,0,0,1,5.27-2.29c1.78-.27,3.1-.35,5-.67,25-1.21,48.51-2.21,70.45-2.82,22.21-.64,43-1,62.16-1.11,3.81,0,7.61,0,11.27,0a27.23,27.23,0,0,0,52.53,1Zm100.4-219a39.1,39.1,0,0,0-10.37-1.44,37.78,37.78,0,0,0-19.49,5.38l-64.69-94.81a29.89,29.89,0,0,0-19.11-52.79,29.47,29.47,0,0,0-8.07,1.15c-3-7-5.95-14.19-8.79-21.37q-12-30.79-21.64-63.66-7.79-26.82-14.1-55.54c-1.65-7.69-3.24-15.44-4.75-23.32,18.5,42.64,35.14,72,50,90.66,19.57,24.5,36.78,31.24,51.93,25.6,24.54-9.17,40.82-53.53,52.14-106.93,8.8-41.4,14.72-88.42,19.14-128.31l.81,19.25c2.71,58.53,6.16,133.52,11.06,196.41,2.75,35.79,6.07,67.92,10,91.4a29.73,29.73,0,0,0,3.41,49.33ZM947.89,430.51l113.17-78.81a43.71,43.71,0,0,0,17.78,9.92c-.2,1.9-.48,3.74-.65,5.67v.32c-4.67,43.61-11.08,103.53-21.53,154.41-10.28,50-24.24,91.14-43.73,98.4-10.73,4-24.28-3.48-41.38-27.71-15.16-21.49-32.6-55.52-52.71-105.4a49.06,49.06,0,0,0,29-56.8Zm221.66,539.71a38.91,38.91,0,0,0-12.88,3.67l-56.09-82.23a38.72,38.72,0,0,0-.61-61.2L1128.39,759c.37,0,.64,0,1,0a30,30,0,0,0,22.4-10,4.74,4.74,0,0,1,.74-.07,82.64,82.64,0,0,0,11.15-1.72c1.95-.47,3.91-1,5.89-1.6Zm0-239.84a77.33,77.33,0,0,1-8,2.47c-.87.24-1.72.47-2.56.62a37.45,37.45,0,0,0,.24-4.28,29.83,29.83,0,0,0-29.83-29.82,28.45,28.45,0,0,0-6.49.75c-2.5-20-5-47.81-7.26-79.35-4.75-64.23-8.35-142.87-11.13-203.45V417c-1-20.84-1.85-39.61-2.72-55.13a44.35,44.35,0,0,0,26.12-67.14L1154,268.2a37.41,37.41,0,0,0,15.59,8.38ZM998.6,206.6a29.1,29.1,0,0,0-1-7.88,436.53,436.53,0,0,0,90.9-68.05,443.33,443.33,0,0,0,61.67-75.36,29.65,29.65,0,0,0,15.49,4.34,31.15,31.15,0,0,0,3.9-.26V204.22a37.22,37.22,0,0,0-24.31,52.33l-27.11,27.57a44.06,44.06,0,0,0-58.1,3l-70.31-59.22A29.79,29.79,0,0,0,998.6,206.6Zm-84.84-4.18a29.69,29.69,0,0,0-6.37-18.4c10.73-10.73,21.81-22.5,33.31-35.19,11.29-12.39,23-25.7,35.22-40.08a27.51,27.51,0,0,0,6.5,2.27c-.12.64-.23,1.21-.35,1.91a273.66,273.66,0,0,1-5.54,27,329.86,329.86,0,0,1-10.4,33.13c-.5,1.34-1,2.71-1.48,4.06a29.74,29.74,0,0,0-20.57,46.16l-1,2,1.82-.8a30,30,0,0,0,31.47,10.93l75.08,63.26a43.48,43.48,0,0,0-5,20.21,44.46,44.46,0,0,0,5.58,21.46L942.31,416.82A49,49,0,0,0,901.76,393L890.51,231.61A29.93,29.93,0,0,0,913.76,202.42ZM734.5,253.58c14.84-11.6,30.35-24.74,46.65-39.26q32.26-28.78,68.66-65.43c.09.09.17.12.25.2-.68,2.26-1.4,4.52-2.22,6.8Q844,167.47,838.68,180q-6.64,15.78-15.53,33.16T803.2,249.46L790.55,271l22.16-11.55A242.49,242.49,0,0,0,845,239c6-4.44,12.35-9.29,18.76-14.62A30.18,30.18,0,0,0,876,231.24l11.39,163.55a49.17,49.17,0,0,0-24.69,15.9L729.07,281.06a29.71,29.71,0,0,0,6.69-18.86A29,29,0,0,0,734.5,253.58Zm-17.13,36.2L855.08,423.31a48.86,48.86,0,0,0,41.63,67.51c2.21,13.81,4.63,27.31,7.35,40.59q7.2,35.69,17,69.09,9.4,32.29,21.06,62.39c3.4,8.75,6.91,17.39,10.62,25.85a29.77,29.77,0,0,0-8.63,16c-3.91-2.22-8-4.74-12.12-7.49-17.13-11.47-35.79-27.42-54.52-45.58-25.23-24.49-50.38-52.9-71.79-79.63-13.3-16.55-25-32.39-34.56-46.27a29.84,29.84,0,0,0-21-51,10.54,10.54,0,0,0-1.12.08L715.78,290.43C716.34,290.24,716.87,290,717.37,289.78ZM594,353.42a36.09,36.09,0,0,0,31.34-35.86v-.31A181.75,181.75,0,0,0,644.51,310a312.67,312.67,0,0,0,44-23.66,30.13,30.13,0,0,0,12.93,5.34L735.11,478.9a29.9,29.9,0,0,0-14.83,24.82l-128.22,64a42.1,42.1,0,0,0-24.23-17.34ZM297.08,731.26l227-113.47a42,42,0,0,0,32.73,15.56,43.36,43.36,0,0,0,7.8-.69l28.51,61c-17,3.31-31.3,8.52-42.81,15.51-12.88,7.87-22.28,18-28.17,30.4a75,75,0,0,0-6.84,26,8.22,8.22,0,0,0-.08,1.4A36.36,36.36,0,0,0,495,786.06L298.11,746.2a36.72,36.72,0,0,0,.3-5.05A36.18,36.18,0,0,0,297.08,731.26Zm220-126L290.43,718.43a36.72,36.72,0,0,0-14.3-10.62L342,538a34,34,0,0,0,6.28.54,36.19,36.19,0,0,0,31-17.5l138,55.39a41.49,41.49,0,0,0-2.73,14.72A43,43,0,0,0,517.06,605.21Zm61.13,22.48A42.75,42.75,0,0,0,597.92,581l125.65-62.77a30,30,0,0,0,8.79,10.41,202.29,202.29,0,0,0-.2,46.26c2.41,22.89,8.31,44.72,15.69,64.65a364.5,364.5,0,0,0,22.08,48.17c2.84,5.18,5.73,10.12,8.46,14.66a30.56,30.56,0,0,0-3.41,7.72c-13.29-3.85-26-7.28-38.11-10.19q-27.36-6.5-51-9.72a303.59,303.59,0,0,0-44.74-2.95,170,170,0,0,0-33.44,3.57ZM426.91,332.4A36.09,36.09,0,0,0,462,304.88c14.2.84,28.72,2.06,43.76,3.81,15.39,1.81,31.25,4.19,47.51,7,0,.66-.09,1.26-.09,1.9a36.21,36.21,0,0,0,26.47,34.83L553.5,549.09a41.87,41.87,0,0,0-27.68,13.49L384.23,505.81a28.44,28.44,0,0,0,.13-3.37A35.83,35.83,0,0,0,367.57,472l54.25-139.93A37.19,37.19,0,0,0,426.91,332.4ZM188.58,387.21A178.88,178.88,0,0,1,218,359.13a219.13,219.13,0,0,1,37.28-22.68c22-10.66,47.29-18.89,75.66-24.39a452.25,452.25,0,0,1,60.9-7.38,36.13,36.13,0,0,0,16.43,22.56L354.12,466.86a32.86,32.86,0,0,0-5.84-.53,36,36,0,0,0-29.87,15.94L187.59,439.14a35.85,35.85,0,0,0-15.1-28.33A162.45,162.45,0,0,1,188.58,387.21Zm24.77,301.64A209.12,209.12,0,0,1,198.11,664a164,164,0,0,1-10.37-24.63l-.35-.9c-16.5-34.1-27.28-66.33-32.67-96.31-4.21-23.48-5.05-45.42-2.83-65.93A36.22,36.22,0,0,0,184.5,455l128.11,42.25a34.57,34.57,0,0,0-.42,5.22,36.14,36.14,0,0,0,16.43,30.25L261.77,705.06A35.89,35.89,0,0,0,236,716.56c-1.26-1.32-2.55-2.78-3.8-4.13A289.13,289.13,0,0,1,213.35,688.85ZM178.12,874.23a37.17,37.17,0,0,0,1.21,9.25c-5.42,2.67-11,5.47-16.5,8.48a517.4,517.4,0,0,0-44.13,27.45Q99.08,933,79,949.38c-6.65,5.4-13.32,11.1-20,17-.86-.53-1.73-1.06-2.61-1.53A494.63,494.63,0,0,1,129.71,857q45.25-50.7,105.86-91.6a36.17,36.17,0,0,0,57.68-5.46L491.79,800.1c0,.24,0,.39,0,.61a36.94,36.94,0,0,0,3.13,14.68L310,971.82a60,60,0,0,0-38.68-14.14,59.24,59.24,0,0,0-19.91,3.44l-22.79-53.75a36.11,36.11,0,1,0-50.5-33.14Zm163.31,405.15-172.72,68a36.38,36.38,0,0,0-20-13.64l103.48-259a60.56,60.56,0,0,0,32.42,1.64l71.19,167.79a35.84,35.84,0,0,0-15,29.11A37.28,37.28,0,0,0,341.43,1279.38Zm-238.06,89.19a36.41,36.41,0,0,0,3,14.29,344,344,0,0,0-29.51,41,465.11,465.11,0,0,0-29.59,57.27q-10.5-137.62,27.9-281.56Q113.35,1056.5,199.8,907.34a35.69,35.69,0,0,0,14.41,3l24.27,57.23a60,60,0,0,0,.72,100.94L133.49,1333A36.09,36.09,0,0,0,103.37,1368.57Zm227.94,768.14c-.54.19-1,.42-1.59.65A820.57,820.57,0,0,1,246.65,2003q-40.26-81.59-66.36-176.83c-4.86-17.74-9.4-36-13.54-54.52-2.59-11.6-4.93-23.32-7.25-35.32a27.25,27.25,0,0,0,18.7-13.42l106,12.8A49.64,49.64,0,0,0,309.27,1778c-1.13,13.18-2.06,26.91-2.58,41.24q-1.76,45.7.9,99,2.52,52.13,9.23,111.38Q322.53,2080.41,331.31,2136.71ZM320.2,1687.16a49.94,49.94,0,0,0-34.13,34.24l-104.41-12.6a27.45,27.45,0,0,0-27.44-26.91,24,24,0,0,0-4.1.38q-19.49-128.91-17.79-278.3a37.11,37.11,0,0,0,7.17.69,36.1,36.1,0,0,0,36.08-36.09,35.06,35.06,0,0,0-.87-8.06l172-67.71a36.23,36.23,0,0,0,18.13,14.41Zm14.78-1.9,44.14-376a36.06,36.06,0,0,0,33.92-36,37.44,37.44,0,0,0-.51-6.32l.05,0,0-.21a6,6,0,0,1-.19-1.23,2.45,2.45,0,0,1,0-.27,1,1,0,0,1,0-.16,24.47,24.47,0,0,1-.64-2.69c0-.25-.07-.49-.1-.74a19,19,0,0,0-3.09-6.07,6.65,6.65,0,0,1-1.23-2h0A36.18,36.18,0,0,0,377,1237.09a35.07,35.07,0,0,0-8.13,1l-70.66-166.58a60,60,0,0,0,33.19-53.73c0-1.59-.06-3.07-.15-4.6h0c-.22-1.4-.39-2.81-.48-4.24s-.39-2.84-.59-4.26a.69.69,0,0,0-.05-.13l0-.06c-.05-.29-.11-.66-.18-1s-.33-.86-.46-1.31l0-.32-.09-.24a15.28,15.28,0,0,1-.91-2.53h-.06a59.63,59.63,0,0,0-8.53-16.72L503.31,827.16a36.08,36.08,0,0,0,52.78-48.92h0c-1.39-1.37-2.67-2.89-4-4.37l-.11-.14c-.55-.33-1.1-.67-1.65-1a47.37,47.37,0,0,1-5.62-3.86,36.35,36.35,0,0,0-14.81-4.15,60.84,60.84,0,0,1,5.27-19c4.89-10.31,13.08-18.75,24.42-25.28q17.45-10,45.13-14.16l.75-.16a145.46,145.46,0,0,1,34.57-4.5A280.18,280.18,0,0,1,684,704.45a521.34,521.34,0,0,1,53.46,10.39c11.87,2.91,24.33,6.36,37.34,10.17a29.79,29.79,0,1,0,28.93-36.85,29.23,29.23,0,0,0-14.66,4c-.89-1.52-1.83-3.13-2.74-4.74a362.77,362.77,0,0,1-24.91-52.86,254.45,254.45,0,0,1-14.83-60.71,187.68,187.68,0,0,1-.29-39.6,36.63,36.63,0,0,0,3.82.18,30.16,30.16,0,0,0,8.66-1.21c10.7,15.69,24.19,33.74,39.44,52.51,20.91,25.76,45,52.8,69.23,76.28,20.58,19.94,41.34,37.44,60.48,49.65a168.37,168.37,0,0,0,17.93,10.08,29.78,29.78,0,0,0,27.53,18.35,30.83,30.83,0,0,0,6-.6l66.93,98.1a38.24,38.24,0,0,0-8.26,23.66,38.69,38.69,0,0,0,14.11,29.85L966.63,1009a25,25,0,0,0-6.18-.76,27.17,27.17,0,0,0-26,19.45H922.78q-29.31.16-62.67,1.16c-22.42.64-46.08,1.6-71.13,2.78l-.83.12a39.41,39.41,0,0,0-8.76,2.51,41.16,41.16,0,0,0-8,4.49,42.1,42.1,0,0,0-6.72,6.14,40.49,40.49,0,0,0-5.16,7.5c-.3.54-.77,1.89-1,2.47-.32,1.16-.42,1.56-.67,2.74-.07.33-.14.66-.19,1s-.07.41-.1.61a.06.06,0,0,1,0,0v.07a.86.86,0,0,0,0,.16c-.21,4.62.65,5.11,1.85,7.77a27.09,27.09,0,0,0,6.4,9,24.44,24.44,0,0,0,10.73,5.69c3.63.91,7.32.71,11,.63h.29c1,0,2,0,3.06,0h1.61c-2.84,0,1.91.22,3,.17a74.39,74.39,0,0,1,8-.15c4.16,0,9.18-.25,13.76.29a119.33,119.33,0,0,0,7.3,13.84,123.44,123.44,0,0,0,10.7,14.79,135.2,135.2,0,0,0,13.8,14.18,164.75,164.75,0,0,0,16,12.66c2.34,2.44,4.75,4.78,7.12,6.88a26.46,26.46,0,0,0-1.07,7.27,27.29,27.29,0,0,0,7.1,18.27L723,1356.44a31.85,31.85,0,0,0-20.68-7.76,30.69,30.69,0,0,0-12.61,2.71l-.43.18-.13.06h0a6.69,6.69,0,0,1-1,.3,35.19,35.19,0,0,1-3.55,1.93,15.63,15.63,0,0,0-5.57,5.44,5.48,5.48,0,0,1-1.91,2.16,31.46,31.46,0,0,0-5.71,12.59l-108.58-18.63v-.59a31.43,31.43,0,0,0-12.57-25.17v0a5.28,5.28,0,0,1-1.09-.82c-1.66-1-3.3-1.94-5-2.81a25.49,25.49,0,0,0-6.43-1.85,4.52,4.52,0,0,1-1.15-.42,34.37,34.37,0,0,0-5.31-.46,31.52,31.52,0,0,0-22.94,53.14l-168.62,309.2A43.5,43.5,0,0,0,335,1685.26Zm332.89,455.3a771.77,771.77,0,0,0,35.59,103.56A763,763,0,0,0,750.71,2337q11.14,18.47,23.28,36.44a54.32,54.32,0,0,0-13.49,22,505.56,505.56,0,0,1-95.72-59.09q-70.2-54.69-130.34-138-61.13-84.67-111.7-198.78-43.23-97.4-78.67-216.08a48.7,48.7,0,0,0,16.29-6.61l126.12,112.44L609,1998.35a46.2,46.2,0,0,0,42.16,64.24C655.52,2089.16,661.05,2115.23,667.87,2140.56Zm-6.15-169.23a47,47,0,0,0-10.26-1.08A45.9,45.9,0,0,0,616.8,1986L371.4,1767.3a49.83,49.83,0,0,0,7.15-53.91l177.19-86.65a31.43,31.43,0,0,0,22.53,9.51,9.91,9.91,0,0,0,1.09,0c27.3,45.15,55.44,91.37,83.65,137.66l23.48,38.58a37.75,37.75,0,0,0-6,20.38,38.36,38.36,0,0,0,12.08,27.91Zm208.42,91.33a44.15,44.15,0,1,0,0,88.3h.12c.35,1.56.65,3.22,1,4.79q6.32,25.74,16.48,54.77,9.68,27.55,23,58.27c5.89,13.49,12.4,27.45,19.31,41.94a31.08,31.08,0,0,0-7.53,8.14A249.64,249.64,0,0,1,882,2296.24Q849.15,2274,814.47,2238q-36.59-38-75.19-91-30.28-41.64-61.6-92.53a46.3,46.3,0,0,0-2.51-77.79l30.16-107.92a38.64,38.64,0,0,0,39.14-7.38l204.77,109.57a53.19,53.19,0,0,0-1.88,13.88,52.47,52.47,0,0,0,13.46,35.2l-62.32,52.92A43.93,43.93,0,0,0,870.14,2062.66Zm299.41,607.05a43.51,43.51,0,0,0-6.61,1.56c-.81-3.4-1.6-6.81-2.37-10.13q-8.76-37.45-18-70.5-11.07-39.45-23-72.6t-24.51-59.78l-.42-.84q-25.08-38.91-50.93-80-26.21-41.73-53.28-85.6-27.24-44.15-55.25-90.36-17.93-29.61-36.62-61a44.36,44.36,0,0,0,9.4-56.67l64-54.35a52.58,52.58,0,0,0,41.24,6.71l132.48,354.73a48.22,48.22,0,0,0,23.85,84.18Zm-116.21-684.92a53.4,53.4,0,0,0-2.15-15.18c.84-.49,1.65-.92,2.48-1.43a297,297,0,0,1,41.75-19.91A228.06,228.06,0,0,1,1135,1937c4.94-.91,9.91-1.67,14.83-2.17a38.85,38.85,0,0,0,19.69,26.15v418.9a47.37,47.37,0,0,0-11.38,3.31L1026.6,2030.82A52.76,52.76,0,0,0,1053.34,1984.79Zm-29-47.33a54,54,0,0,0-37.12-4,179.06,179.06,0,0,1-7.31-31.21c-1.45-11.11-1.31-21.2.48-30.11a56.11,56.11,0,0,1,8.92-21.44c13.45-2,27.23-3.76,41.29-5.28,4.59-.51,9.33-.89,14-1.35a32.59,32.59,0,0,0,14.25,25.38Zm81.11-112a32.79,32.79,0,0,0-58.14,3.9c-6.39.62-12.75,1.18-19,1.83q-22.87,2.47-44.13,5.69l-2.79.43-1.8,2.27a69.18,69.18,0,0,0-13.14,28.63c-2.3,10.65-2.6,22.66-.85,35.91a194.56,194.56,0,0,0,8.2,34.89,52.94,52.94,0,0,0-18.94,18.61L753.27,1849.72a38.46,38.46,0,0,0,3.86-16.85,33.21,33.21,0,0,0-.35-5.21l182.55-49.34a156.49,156.49,0,0,0,34.11,6,148.51,148.51,0,0,0,35-2.21l.37-.08a432.2,432.2,0,0,0,45.69-12.32,300.65,300.65,0,0,0,38.89-15.94,212.81,212.81,0,0,0,32.21-19.67c.81-.62,1.61-1.15,2.35-1.74a38.4,38.4,0,0,0,19,5,38.9,38.9,0,0,0,22.55-7.14v65A38.68,38.68,0,0,0,1149.4,1824c-9,.15-17.74.34-26.41.62C1117.07,1824.8,1111.25,1825.14,1105.44,1825.41Z"/><path class="cls-1" d="M578.13,1201.81a2.31,2.31,0,0,1,.24-.2l-2.94,1.15-2.41,1.06c.14,0,.29-.06.44-.09a9.61,9.61,0,0,1,1.14-.5l.86-.27c.82-.3,1.67-.75,2.43-1Z"/><path class="cls-1" d="M536.58,1323.73l-3.08-.36"/><rect class="cls-1" x="385.56" y="1310.19" width="163.41" height="14.59" transform="translate(652.01 -68.15) rotate(27.12)"/><path class="cls-1" d="M706.54,1062.47l-57.22-4.33,11.87,32.53c-100.75,72.19-118.88,255.74-118.88,255.74,38.85-130,117.71-177.61,142.89-189.88l13.14,36,32.7-62.87,32.71-62.87Z"/><path class="cls-1" d="M777.68,992.88l10.83-54.49L756.08,946C699,840.87,526,802.22,526,802.22,645.44,854.58,681.67,935.88,690.43,961.5L654.52,970l56.17,38.7,56.15,38.7Z"/><rect class="cls-1" x="719.03" y="871.32" width="326.52" height="14.15" transform="translate(1275.18 -302.98) rotate(63.52)"/><circle class="cls-1" cx="561.65" cy="985.64" r="27.07"/><rect class="cls-1" x="457.72" y="877.64" width="163.41" height="14.59" transform="translate(1309.85 191.72) rotate(79.38)"/><rect class="cls-1" x="317.25" y="1127.6" width="300.04" height="13.09" transform="translate(1671.42 1367.88) rotate(123.38)"/><circle class="cls-1" cx="764.69" cy="1055.35" r="18.71"/><rect class="cls-1" x="930.68" y="1265.12" width="492.19" height="14.59" transform="translate(2449.19 95.64) rotate(90)"/><line class="cls-1" x1="1048.96" y1="1265.83" x2="1038.9" y2="1265.5"/><circle class="cls-1" cx="1176.78" cy="1518.51" r="37.22"/></g></g></svg>