<svg width="282" height="81" viewBox="0 0 282 81" fill="none" xmlns="http://www.w3.org/2000/svg">
<path opacity="0.7" d="M281.951 41.315L269.421 62.995H67.8008V61.565L69.7308 60.465C70.4408 60.045 70.9008 59.265 70.9008 58.415V22.955C70.9008 22.105 70.4308 21.325 69.7308 20.905L67.8008 19.805V19.605H269.421L281.951 41.305V41.315Z" fill="url(#paint0_linear_538_331)"/>
<path opacity="0.7" d="M69.16 23.105V58.565C69.16 59.365 68.75 60.105 68.1 60.525C68.07 60.565 68.02 60.585 67.98 60.615L37.26 78.345C36.53 78.765 35.63 78.765 34.9 78.345L4.17 60.615C3.45 60.195 3 59.415 3 58.565V23.105C3 22.255 3.46 21.475 4.17 21.055L34.89 3.315C35.62 2.895 36.52 2.895 37.25 3.315L67.97 21.055C67.97 21.055 68.06 21.095 68.09 21.145C68.74 21.565 69.15 22.305 69.15 23.105H69.16Z" stroke="url(#paint1_linear_538_331)" stroke-width="4.06" stroke-linecap="round" stroke-linejoin="round"/>
<g opacity="0.7">
<path d="M37.6305 61.0649V62.5649C37.6305 63.6549 36.7405 64.5349 35.6605 64.5349H32.2005C31.1105 64.5349 30.2305 63.6449 30.2305 62.5649V61.0649H37.6405H37.6305Z" fill="url(#paint2_linear_538_331)"/>
<path d="M40.4489 55.9849V58.6049C40.4489 59.3849 39.8189 60.0349 39.0189 60.0349H28.8089C28.0289 60.0349 27.3789 59.4049 27.3789 58.6049V55.9849H40.4389H40.4489Z" fill="url(#paint3_linear_538_331)"/>
<path d="M56.1304 32.0349V32.0649H52.1804C51.9904 32.0649 51.8104 32.1649 51.7204 32.3449C51.6304 32.5149 51.6404 32.7249 51.7504 32.8749C52.0104 33.2449 52.1404 33.6849 52.1404 34.1349C52.1404 35.3849 51.1304 36.3849 49.8904 36.3849C48.6504 36.3849 47.6404 35.3749 47.6404 34.1349C47.6404 33.6749 47.7704 33.2449 48.0304 32.8749C48.1404 32.7149 48.1504 32.5049 48.0604 32.3449C47.9704 32.1849 47.7904 32.0649 47.6004 32.0649H42.1504V27.4549C42.4804 27.5649 42.8304 27.6249 43.1904 27.6249C45.0104 27.6249 46.4804 26.1549 46.4804 24.3349C46.4804 22.5149 45.0104 21.0449 43.1904 21.0449C42.8304 21.0449 42.4904 21.1049 42.1504 21.2149V17.5449C49.9104 17.8249 56.1404 24.2149 56.1404 32.0449H56.1204L56.1304 32.0349Z" fill="url(#paint4_linear_538_331)"/>
<path d="M37.7297 32.0249C37.7297 33.2749 36.7197 34.2749 35.4797 34.2749C35.0197 34.2749 34.5897 34.1449 34.2197 33.8849C34.0597 33.7749 33.8497 33.7649 33.6897 33.8549C33.5297 33.9449 33.4097 34.1249 33.4097 34.3149V39.7649H28.7997C28.9097 39.4349 28.9697 39.0849 28.9697 38.7249C28.9697 36.9049 27.4997 35.4349 25.6797 35.4349C23.8597 35.4349 22.3897 36.9049 22.3897 38.7249C22.3897 39.0849 22.4497 39.4249 22.5597 39.7649H19.4297V39.7349C19.4297 31.9149 25.6697 25.5149 33.4197 25.2349V29.7349C33.4197 29.9249 33.5197 30.1049 33.6997 30.1949C33.8697 30.2849 34.0797 30.2749 34.2297 30.1649C34.5997 29.9049 35.0397 29.7749 35.4897 29.7749C36.7397 29.7749 37.7397 30.7849 37.7397 32.0249V32.0449L37.7297 32.0249Z" fill="url(#paint5_linear_538_331)"/>
<path d="M29.0905 48.4448C29.0905 50.2648 30.5605 51.7348 32.3805 51.7348C32.7405 51.7348 33.0805 51.6748 33.4205 51.5648V54.9548H27.2205C26.2705 54.9548 25.4605 54.3248 25.2405 53.4048C24.8905 51.9348 24.1605 50.5548 23.1505 49.4148C21.0005 47.0248 19.7105 43.9848 19.4805 40.7848H23.4005C23.5905 40.7848 23.7705 40.6848 23.8605 40.5048C23.9505 40.3348 23.9405 40.1248 23.8305 39.9748C23.5705 39.6048 23.4405 39.1648 23.4405 38.7148C23.4405 37.4648 24.4505 36.4648 25.6905 36.4648C26.9305 36.4648 27.9405 37.4748 27.9405 38.7148C27.9405 39.1748 27.8105 39.6048 27.5505 39.9748C27.4405 40.1348 27.4305 40.3448 27.5205 40.5048C27.6105 40.6748 27.7905 40.7848 27.9805 40.7848H33.4305V45.3148C33.1005 45.2048 32.7505 45.1448 32.3905 45.1448C30.5705 45.1448 29.1005 46.6148 29.1005 48.4348H29.1205L29.0905 48.4448Z" fill="url(#paint6_linear_538_331)"/>
<path d="M48.3889 40.7849C48.1589 43.9849 46.8589 47.0249 44.7189 49.4149C43.6989 50.5549 42.9689 51.9349 42.6289 53.4049C42.4089 54.3149 41.5889 54.9549 40.6489 54.9549H34.4489V50.7449C34.4489 50.5549 34.3489 50.3749 34.1689 50.2849C33.9989 50.1949 33.7889 50.2049 33.6389 50.3149C33.2689 50.5749 32.8289 50.7049 32.3789 50.7049C31.1289 50.7049 30.1289 49.6949 30.1289 48.4549C30.1289 47.2149 31.1389 46.2049 32.3789 46.2049C32.8389 46.2049 33.2689 46.3349 33.6389 46.5949C33.7989 46.7049 34.0089 46.7149 34.1689 46.6249C34.3289 46.5349 34.4489 46.3549 34.4489 46.1649V40.7949H39.0589C38.9489 41.1249 38.8889 41.4749 38.8889 41.8349C38.8889 43.6549 40.3589 45.1249 42.1789 45.1249C43.9989 45.1249 45.4689 43.6549 45.4689 41.8349C45.4689 41.4749 45.4089 41.1349 45.2989 40.7949H48.3989V40.7749L48.3889 40.7849Z" fill="url(#paint7_linear_538_331)"/>
</g>
<path d="M273.111 56.6751L269.081 63.6351H204.321L200.301 56.6751L204.321 49.7251H269.081L273.111 56.6751Z" fill="white"/>
<path d="M211.15 55.165C211.15 56.585 210.1 57.475 208.43 57.475H207.18L206.88 59.015H205.58L206.7 53.415H208.96C210.36 53.415 211.15 54.065 211.15 55.155V55.165ZM209.84 55.275C209.84 54.735 209.46 54.475 208.8 54.475H207.78L207.39 56.415H208.49C209.35 56.415 209.84 56.015 209.84 55.275Z" fill="black"/>
<path d="M214.81 54.655L214.59 55.805C214.48 55.805 214.41 55.785 214.3 55.785C213.56 55.785 213.09 56.125 212.93 56.935L212.51 59.015H211.26L212.12 54.715H213.3L213.2 55.225C213.58 54.805 214.11 54.645 214.81 54.645V54.655Z" fill="black"/>
<path d="M214.73 57.1553C214.73 55.7253 215.82 54.6553 217.33 54.6553C218.65 54.6553 219.5 55.4153 219.5 56.5853C219.5 58.0153 218.42 59.0853 216.9 59.0853C215.59 59.0853 214.73 58.3153 214.73 57.1553ZM218.23 56.6353C218.23 56.0553 217.88 55.6853 217.25 55.6853C216.51 55.6853 215.99 56.2653 215.99 57.1053C215.99 57.6853 216.35 58.0553 216.97 58.0553C217.7 58.0553 218.23 57.4753 218.23 56.6353Z" fill="black"/>
<path d="M222.65 56.8653L223.85 59.0153H222.53L221.83 57.6953L220.59 59.0153H219.17L221.32 56.8053L220.18 54.7153H221.47L222.15 55.9753L223.35 54.7153H224.73L222.66 56.8653H222.65Z" fill="black"/>
<path d="M225.36 54.7151H226.6L225.74 59.0151H224.5L225.36 54.7151ZM225.46 53.4651C225.46 53.0451 225.79 52.7251 226.28 52.7251C226.72 52.7251 227.02 52.9951 227.02 53.3451C227.02 53.8051 226.68 54.1151 226.19 54.1151C225.75 54.1151 225.46 53.8251 225.46 53.4651Z" fill="black"/>
<path d="M234.691 56.1053C234.691 56.2753 234.671 56.4453 234.631 56.6353L234.161 59.0153H232.911L233.371 56.7253C233.391 56.6053 233.401 56.5053 233.401 56.3953C233.401 55.9653 233.171 55.7353 232.721 55.7353C232.141 55.7353 231.741 56.0753 231.591 56.8153L231.151 59.0253H229.901L230.361 56.7353C230.381 56.6153 230.391 56.5153 230.391 56.4153C230.391 55.9753 230.161 55.7453 229.711 55.7453C229.131 55.7453 228.731 56.0853 228.571 56.8453L228.141 59.0353H226.891L227.751 54.7353H228.931L228.831 55.1853C229.211 54.8453 229.681 54.6753 230.181 54.6753C230.771 54.6753 231.261 54.9153 231.501 55.3753C231.921 54.9153 232.481 54.6753 233.141 54.6753C234.061 54.6753 234.681 55.1753 234.681 56.1353L234.691 56.1053Z" fill="black"/>
<path d="M240.56 54.7153L239.7 59.0153H238.52L238.6 58.5953C238.26 58.9053 237.81 59.0853 237.28 59.0853C236.28 59.0853 235.43 58.3853 235.43 57.1553C235.43 55.7053 236.48 54.6553 237.8 54.6553C238.42 54.6553 238.92 54.8553 239.2 55.3053L239.31 54.7253H240.56V54.7153ZM238.93 56.6353C238.93 56.0553 238.57 55.6853 237.95 55.6853C237.21 55.6853 236.69 56.2653 236.69 57.1053C236.69 57.6853 237.05 58.0553 237.67 58.0553C238.41 58.0553 238.93 57.4753 238.93 56.6353Z" fill="black"/>
<path d="M248.65 56.1053C248.65 56.2753 248.63 56.4453 248.59 56.6353L248.12 59.0153H246.87L247.33 56.7253C247.35 56.6053 247.36 56.5053 247.36 56.3953C247.36 55.9653 247.13 55.7353 246.68 55.7353C246.1 55.7353 245.7 56.0753 245.55 56.8153L245.11 59.0253H243.86L244.32 56.7353C244.34 56.6153 244.35 56.5153 244.35 56.4153C244.35 55.9753 244.12 55.7453 243.67 55.7453C243.09 55.7453 242.69 56.0853 242.53 56.8453L242.1 59.0353H240.85L241.71 54.7353H242.89L242.79 55.1853C243.17 54.8453 243.64 54.6753 244.14 54.6753C244.73 54.6753 245.22 54.9153 245.46 55.3753C245.88 54.9153 246.44 54.6753 247.1 54.6753C248.02 54.6753 248.64 55.1753 248.64 56.1353L248.65 56.1053Z" fill="black"/>
<path d="M253.901 57.2053H250.611C250.651 57.7853 251.011 58.0853 251.721 58.0853C252.161 58.0853 252.581 57.9453 252.871 57.6853L253.391 58.5053C252.891 58.9053 252.251 59.0853 251.591 59.0853C250.251 59.0853 249.391 58.3253 249.391 57.1553C249.391 55.7153 250.431 54.6553 251.921 54.6553C253.181 54.6553 253.971 55.3953 253.971 56.5453C253.971 56.7753 253.941 57.0053 253.901 57.2053V57.2053ZM250.691 56.4753H252.821C252.821 55.9053 252.441 55.5853 251.861 55.5853C251.281 55.5853 250.851 55.9353 250.681 56.4753H250.691Z" fill="black"/>
<path d="M259.251 56.1153C259.251 56.2753 259.231 56.4553 259.191 56.6353L258.711 59.0153H257.461L257.921 56.7153C257.941 56.6153 257.951 56.5053 257.951 56.4153C257.951 55.9753 257.711 55.7253 257.211 55.7253C256.581 55.7253 256.141 56.0753 255.991 56.8253L255.561 59.0053H254.311L255.171 54.7053H256.351L256.251 55.1653C256.641 54.8053 257.141 54.6353 257.671 54.6353C258.611 54.6353 259.241 55.1453 259.241 56.0953L259.251 56.1153Z" fill="black"/>
<path d="M261.55 57.4951C261.53 57.5551 261.53 57.6151 261.53 57.6751C261.53 57.9351 261.67 58.0951 261.99 58.0951C262.16 58.0951 262.33 58.0351 262.49 57.9451L262.67 58.8351C262.36 59.0251 261.97 59.0951 261.6 59.0951C260.8 59.0951 260.26 58.6451 260.26 57.8951C260.26 57.7751 260.28 57.6451 260.3 57.5151L260.64 55.7751H259.98L260.17 54.8151H260.83L261.04 53.7651H262.29L262.08 54.8151H263.15L262.96 55.7751H261.89L261.55 57.5051V57.4951Z" fill="black"/>
<path d="M267.789 57.2053H264.499C264.539 57.7853 264.899 58.0853 265.609 58.0853C266.049 58.0853 266.469 57.9453 266.759 57.6853L267.279 58.5053C266.779 58.9053 266.139 59.0853 265.479 59.0853C264.139 59.0853 263.279 58.3253 263.279 57.1553C263.279 55.7153 264.319 54.6553 265.809 54.6553C267.059 54.6553 267.859 55.3953 267.859 56.5453C267.859 56.7753 267.829 57.0053 267.789 57.2053V57.2053ZM264.579 56.4753H266.709C266.709 55.9053 266.329 55.5853 265.749 55.5853C265.169 55.5853 264.739 55.9353 264.569 56.4753H264.579Z" fill="black"/>
<g opacity="0.7">
<path d="M90.6996 44.8053L89.0796 42.4653H87.2896V44.8053H85.3496V36.4053H88.9796C91.2196 36.4053 92.6296 37.5653 92.6296 39.4553C92.6296 40.7153 91.9896 41.6353 90.8996 42.1053L92.7796 44.8053H90.6896H90.6996ZM88.8796 37.9953H87.2996V40.9253H88.8796C90.0696 40.9253 90.6696 40.3753 90.6696 39.4653C90.6696 38.5553 90.0696 38.0053 88.8796 38.0053V37.9953Z" fill="white"/>
<path d="M100.33 42.1054H95.4501C95.6301 42.9054 96.3101 43.3954 97.3001 43.3954C97.9801 43.3954 98.4801 43.1954 98.9201 42.7754L99.9201 43.8554C99.3201 44.5354 98.4201 44.8954 97.2601 44.8954C95.0301 44.8954 93.5801 43.4954 93.5801 41.5754C93.5801 39.6554 95.0601 38.2554 97.0201 38.2554C98.9801 38.2554 100.38 39.5254 100.38 41.6054C100.38 41.7454 100.36 41.9554 100.34 42.1054H100.33ZM95.4201 41.0154H98.6001C98.4701 40.1954 97.8601 39.6754 97.0201 39.6754C96.1801 39.6754 95.5601 40.1954 95.4201 41.0154V41.0154Z" fill="white"/>
<path d="M100.99 44.2054L101.61 42.8654C102.19 43.2354 103.06 43.4854 103.85 43.4854C104.71 43.4854 105.04 43.2554 105.04 42.8954C105.04 41.8454 101.14 42.9154 101.14 40.3454C101.14 39.1254 102.24 38.2554 104.13 38.2554C105.02 38.2554 106 38.4554 106.61 38.8154L105.99 40.1454C105.35 39.7854 104.72 39.6654 104.13 39.6654C103.29 39.6654 102.93 39.9254 102.93 40.2654C102.93 41.3654 106.83 40.3054 106.83 42.8454C106.83 44.0454 105.71 44.8954 103.78 44.8954C102.69 44.8954 101.59 44.5954 100.99 44.1954V44.2054Z" fill="white"/>
<path d="M107.51 41.5754C107.51 39.6354 109.01 38.2554 111.06 38.2554C113.11 38.2554 114.6 39.6354 114.6 41.5754C114.6 43.5154 113.11 44.8954 111.06 44.8954C109.01 44.8954 107.51 43.5154 107.51 41.5754ZM112.7 41.5754C112.7 40.4554 111.99 39.7854 111.06 39.7854C110.13 39.7854 109.4 40.4554 109.4 41.5754C109.4 42.6954 110.12 43.3654 111.06 43.3654C112 43.3654 112.7 42.6954 112.7 41.5754Z" fill="white"/>
<path d="M115.85 35.9053H117.72V44.8053H115.85V35.9053Z" fill="white"/>
<path d="M125.96 38.3552V44.8052H124.19V44.0352C123.7 44.5952 122.98 44.8952 122.19 44.8952C120.57 44.8952 119.43 43.9852 119.43 41.9952V38.3452H121.3V41.7152C121.3 42.7952 121.78 43.2752 122.61 43.2752C123.44 43.2752 124.1 42.7252 124.1 41.5352V38.3452H125.97L125.96 38.3552Z" fill="white"/>
<path d="M127.219 41.5754C127.219 39.6354 128.719 38.2554 130.819 38.2554C132.169 38.2554 133.239 38.8454 133.709 39.8954L132.259 40.6754C131.909 40.0654 131.399 39.7854 130.809 39.7854C129.859 39.7854 129.119 40.4454 129.119 41.5754C129.119 42.7054 129.859 43.3654 130.809 43.3654C131.399 43.3654 131.909 43.1054 132.259 42.4754L133.709 43.2654C133.239 44.2954 132.169 44.8954 130.819 44.8954C128.719 44.8954 127.219 43.5154 127.219 41.5754Z" fill="white"/>
<path d="M134.57 36.4052C134.57 35.8152 135.04 35.3652 135.73 35.3652C136.42 35.3652 136.89 35.7952 136.89 36.3752C136.89 36.9952 136.42 37.4552 135.73 37.4552C135.04 37.4552 134.57 36.9952 134.57 36.4152V36.4052ZM134.8 38.3452H136.67V44.7952H134.8V38.3452Z" fill="white"/>
<path d="M137.93 41.5754C137.93 39.6354 139.43 38.2554 141.48 38.2554C143.53 38.2554 145.02 39.6354 145.02 41.5754C145.02 43.5154 143.53 44.8954 141.48 44.8954C139.43 44.8954 137.93 43.5154 137.93 41.5754ZM143.12 41.5754C143.12 40.4554 142.41 39.7854 141.48 39.7854C140.55 39.7854 139.83 40.4554 139.83 41.5754C139.83 42.6954 140.55 43.3654 141.48 43.3654C142.41 43.3654 143.12 42.6954 143.12 41.5754ZM141.98 35.7954H144L141.83 37.5254H140.37L141.99 35.7954H141.98Z" fill="white"/>
<path d="M152.86 41.1051V44.7951H150.99V41.3851C150.99 40.3451 150.51 39.8651 149.68 39.8651C148.78 39.8651 148.13 40.4151 148.13 41.6051V44.7951H146.26V38.3451H148.05V39.0951C148.55 38.5451 149.31 38.2451 150.18 38.2451C151.7 38.2451 152.85 39.1351 152.85 41.0951L152.86 41.1051Z" fill="white"/>
<path d="M164.53 35.9053V44.8053H162.74V44.0653C162.27 44.6253 161.59 44.9053 160.72 44.9053C158.9 44.9053 157.49 43.6153 157.49 41.5853C157.49 39.5553 158.89 38.2653 160.72 38.2653C161.51 38.2653 162.18 38.5153 162.65 39.0453V35.9153H164.52L164.53 35.9053ZM162.7 41.5753C162.7 40.4553 161.98 39.7853 161.06 39.7853C160.14 39.7853 159.4 40.4553 159.4 41.5753C159.4 42.6953 160.12 43.3653 161.06 43.3653C162 43.3653 162.7 42.6953 162.7 41.5753Z" fill="white"/>
<path d="M172.539 42.1054H167.659C167.839 42.9054 168.519 43.3954 169.509 43.3954C170.189 43.3954 170.679 43.1954 171.129 42.7754L172.129 43.8554C171.529 44.5354 170.629 44.8954 169.469 44.8954C167.239 44.8954 165.789 43.4954 165.789 41.5754C165.789 39.6554 167.269 38.2554 169.229 38.2554C171.189 38.2554 172.589 39.5254 172.589 41.6054C172.589 41.7454 172.569 41.9554 172.549 42.1054H172.539ZM167.629 41.0154H170.809C170.679 40.1954 170.069 39.6754 169.229 39.6754C168.389 39.6754 167.769 40.1954 167.639 41.0154H167.629Z" fill="white"/>
<path d="M184.26 41.5751C184.26 43.6051 182.86 44.8951 181.05 44.8951C180.25 44.8951 179.59 44.6451 179.11 44.1151V47.1251H177.24V38.3451H179.03V39.0851C179.5 38.5251 180.19 38.2451 181.06 38.2451C182.87 38.2451 184.27 39.5451 184.27 41.5651L184.26 41.5751ZM182.36 41.5751C182.36 40.4551 181.65 39.7851 180.72 39.7851C179.79 39.7851 179.08 40.4551 179.08 41.5751C179.08 42.6951 179.79 43.3651 180.72 43.3651C181.65 43.3651 182.36 42.6951 182.36 41.5751Z" fill="white"/>
<path d="M189.51 38.2554V39.9854C189.35 39.9754 189.23 39.9654 189.09 39.9654C188.06 39.9654 187.38 40.5254 187.38 41.7654V44.8154H185.51V38.3654H187.3V39.2154C187.76 38.5954 188.52 38.2654 189.52 38.2654L189.51 38.2554Z" fill="white"/>
<path d="M190.09 41.5754C190.09 39.6354 191.59 38.2554 193.64 38.2554C195.69 38.2554 197.18 39.6354 197.18 41.5754C197.18 43.5154 195.69 44.8954 193.64 44.8954C191.59 44.8954 190.09 43.5154 190.09 41.5754ZM195.28 41.5754C195.28 40.4554 194.57 39.7854 193.64 39.7854C192.71 39.7854 191.98 40.4554 191.98 41.5754C191.98 42.6954 192.7 43.3654 193.64 43.3654C194.58 43.3654 195.28 42.6954 195.28 41.5754Z" fill="white"/>
<path d="M205.46 41.575C205.46 43.605 204.06 44.895 202.25 44.895C201.39 44.895 200.69 44.615 200.22 44.055V44.795H198.43V35.895H200.3V39.025C200.78 38.495 201.44 38.245 202.24 38.245C204.05 38.245 205.45 39.545 205.45 41.565L205.46 41.575ZM203.57 41.575C203.57 40.455 202.86 39.785 201.93 39.785C201 39.785 200.29 40.455 200.29 41.575C200.29 42.695 201 43.365 201.93 43.365C202.86 43.365 203.57 42.695 203.57 41.575Z" fill="white"/>
<path d="M206.709 35.9053H208.579V44.8053H206.709V35.9053Z" fill="white"/>
<path d="M216.609 42.1054H211.729C211.909 42.9054 212.589 43.3954 213.579 43.3954C214.259 43.3954 214.759 43.1954 215.199 42.7754L216.199 43.8554C215.599 44.5354 214.699 44.8954 213.539 44.8954C211.309 44.8954 209.859 43.4954 209.859 41.5754C209.859 39.6554 211.339 38.2554 213.299 38.2554C215.259 38.2554 216.659 39.5254 216.659 41.6054C216.659 41.7454 216.639 41.9554 216.619 42.1054H216.609ZM211.699 41.0154H214.879C214.749 40.1954 214.139 39.6754 213.299 39.6754C212.459 39.6754 211.839 40.1954 211.709 41.0154H211.699Z" fill="white"/>
<path d="M228.8 41.1051V44.7951H226.93V41.3851C226.93 40.3451 226.46 39.8651 225.71 39.8651C224.87 39.8651 224.28 40.4051 224.28 41.5551V44.7951H222.41V41.3851C222.41 40.3451 221.97 39.8651 221.19 39.8651C220.36 39.8651 219.77 40.4051 219.77 41.5551V44.7951H217.9V38.3451H219.69V39.0851C220.17 38.5351 220.89 38.2451 221.72 38.2451C222.62 38.2451 223.39 38.5951 223.84 39.3051C224.36 38.6451 225.2 38.2451 226.17 38.2451C227.71 38.2451 228.81 39.1351 228.81 41.0951L228.8 41.1051Z" fill="white"/>
<path d="M236.191 41.1254V44.8054H234.441V44.0054C234.091 44.5954 233.421 44.9054 232.471 44.9054C230.961 44.9054 230.061 44.0654 230.061 42.9454C230.061 41.8254 230.861 41.0154 232.831 41.0154H234.321C234.321 40.2154 233.841 39.7454 232.831 39.7454C232.151 39.7454 231.441 39.9754 230.971 40.3454L230.301 39.0354C231.011 38.5354 232.051 38.2554 233.081 38.2554C235.051 38.2554 236.191 39.1654 236.191 41.1254V41.1254ZM234.321 42.7654V42.1054H233.041C232.161 42.1054 231.891 42.4254 231.891 42.8554C231.891 43.3254 232.291 43.6354 232.951 43.6354C233.571 43.6354 234.111 43.3454 234.331 42.7554L234.321 42.7654Z" fill="white"/>
<path d="M237.26 44.2054L237.88 42.8654C238.46 43.2354 239.33 43.4854 240.12 43.4854C240.98 43.4854 241.31 43.2554 241.31 42.8954C241.31 41.8454 237.41 42.9154 237.41 40.3454C237.41 39.1254 238.51 38.2554 240.4 38.2554C241.29 38.2554 242.27 38.4554 242.88 38.8154L242.26 40.1454C241.62 39.7854 240.99 39.6654 240.4 39.6654C239.56 39.6654 239.2 39.9254 239.2 40.2654C239.2 41.3654 243.1 40.3054 243.1 42.8454C243.1 44.0454 241.98 44.8954 240.05 44.8954C238.96 44.8954 237.86 44.5954 237.26 44.1954V44.2054Z" fill="white"/>
</g>
<defs>
<linearGradient id="paint0_linear_538_331" x1="67.8008" y1="41.295" x2="281.951" y2="41.295" gradientUnits="userSpaceOnUse">
<stop stop-color="#172765"/>
<stop offset="0.23" stop-color="#193A68"/>
<stop offset="0.69" stop-color="#206E70"/>
<stop offset="1" stop-color="#259377"/>
</linearGradient>
<linearGradient id="paint1_linear_538_331" x1="0.97" y1="40.825" x2="71.19" y2="40.825" gradientUnits="userSpaceOnUse">
<stop stop-color="#172765"/>
<stop offset="0.23" stop-color="#193A68"/>
<stop offset="0.69" stop-color="#206E70"/>
<stop offset="1" stop-color="#259377"/>
</linearGradient>
<linearGradient id="paint2_linear_538_331" x1="30.2105" y1="62.7949" x2="37.6305" y2="62.7949" gradientUnits="userSpaceOnUse">
<stop stop-color="#172765"/>
<stop offset="0.23" stop-color="#193A68"/>
<stop offset="0.69" stop-color="#206E70"/>
<stop offset="1" stop-color="#259377"/>
</linearGradient>
<linearGradient id="paint3_linear_538_331" x1="27.3889" y1="58.0049" x2="40.4489" y2="58.0049" gradientUnits="userSpaceOnUse">
<stop stop-color="#172765"/>
<stop offset="0.23" stop-color="#193A68"/>
<stop offset="0.69" stop-color="#206E70"/>
<stop offset="1" stop-color="#259377"/>
</linearGradient>
<linearGradient id="paint4_linear_538_331" x1="42.1404" y1="26.9649" x2="56.1304" y2="26.9649" gradientUnits="userSpaceOnUse">
<stop stop-color="#172765"/>
<stop offset="0.23" stop-color="#193A68"/>
<stop offset="0.69" stop-color="#206E70"/>
<stop offset="1" stop-color="#259377"/>
</linearGradient>
<linearGradient id="paint5_linear_538_331" x1="19.4297" y1="32.4749" x2="37.7397" y2="32.4749" gradientUnits="userSpaceOnUse">
<stop stop-color="#172765"/>
<stop offset="0.23" stop-color="#193A68"/>
<stop offset="0.69" stop-color="#206E70"/>
<stop offset="1" stop-color="#259377"/>
</linearGradient>
<linearGradient id="paint6_linear_538_331" x1="19.4605" y1="45.7048" x2="33.4105" y2="45.7048" gradientUnits="userSpaceOnUse">
<stop stop-color="#172765"/>
<stop offset="0.23" stop-color="#193A68"/>
<stop offset="0.69" stop-color="#206E70"/>
<stop offset="1" stop-color="#259377"/>
</linearGradient>
<linearGradient id="paint7_linear_538_331" x1="30.1089" y1="47.8649" x2="48.3889" y2="47.8649" gradientUnits="userSpaceOnUse">
<stop stop-color="#172765"/>
<stop offset="0.23" stop-color="#193A68"/>
<stop offset="0.69" stop-color="#206E70"/>
<stop offset="1" stop-color="#259377"/>
</linearGradient>
</defs>
</svg>
