<svg width="281" height="80" viewBox="0 0 281 80" fill="none" xmlns="http://www.w3.org/2000/svg">
<path opacity="0.7" d="M280.98 40.3501L268.45 62.0301H66.8301V60.6001L68.7601 59.5001C69.4701 59.0801 69.9301 58.3001 69.9301 57.4501V21.9901C69.9301 21.1401 69.4601 20.3601 68.7601 19.9401L66.8301 18.8401V18.6401H268.45L280.98 40.3401V40.3501Z" fill="url(#paint0_linear_622_543)"/>
<path opacity="0.7" d="M68.1893 22.1402V57.6002C68.1893 58.4002 67.7793 59.1402 67.1293 59.5602C67.0993 59.6002 67.0493 59.6202 67.0093 59.6502L36.2893 77.3801C35.5593 77.8001 34.6593 77.8001 33.9293 77.3801L3.1993 59.6502C2.4793 59.2302 2.0293 58.4502 2.0293 57.6002V22.1402C2.0293 21.2902 2.4893 20.5102 3.1993 20.0902L33.9193 2.35016C34.6493 1.93016 35.5493 1.93016 36.2793 2.35016L66.9993 20.0902C66.9993 20.0902 67.0893 20.1302 67.1193 20.1802C67.7693 20.6002 68.1793 21.3402 68.1793 22.1402H68.1893Z" stroke="url(#paint1_linear_622_543)" stroke-width="4.06" stroke-linecap="round" stroke-linejoin="round"/>
<g opacity="0.7">
<path d="M36.6598 60.1001V61.6001C36.6598 62.6901 35.7698 63.5701 34.6898 63.5701H31.2298C30.1398 63.5701 29.2598 62.6801 29.2598 61.6001V60.1001H36.6698H36.6598Z" fill="url(#paint2_linear_622_543)"/>
<path d="M39.4782 55.02V57.64C39.4782 58.42 38.8482 59.07 38.0482 59.07H27.8382C27.0582 59.07 26.4082 58.44 26.4082 57.64V55.02H39.4682H39.4782Z" fill="url(#paint3_linear_622_543)"/>
<path d="M55.1597 31.0701V31.1001H51.2097C51.0197 31.1001 50.8397 31.2001 50.7497 31.3801C50.6597 31.5501 50.6697 31.7601 50.7797 31.9101C51.0397 32.2801 51.1697 32.7201 51.1697 33.1701C51.1697 34.4201 50.1597 35.4201 48.9197 35.4201C47.6797 35.4201 46.6697 34.4101 46.6697 33.1701C46.6697 32.7101 46.7997 32.2801 47.0597 31.9101C47.1697 31.7501 47.1797 31.5401 47.0897 31.3801C46.9997 31.2201 46.8197 31.1001 46.6297 31.1001H41.1797V26.4901C41.5097 26.6001 41.8597 26.6601 42.2197 26.6601C44.0397 26.6601 45.5097 25.1901 45.5097 23.3701C45.5097 21.5501 44.0397 20.0801 42.2197 20.0801C41.8597 20.0801 41.5197 20.1401 41.1797 20.2501V16.5801C48.9397 16.8601 55.1697 23.2501 55.1697 31.0801H55.1497L55.1597 31.0701Z" fill="url(#paint4_linear_622_543)"/>
<path d="M36.759 31.06C36.759 32.31 35.749 33.31 34.509 33.31C34.049 33.31 33.619 33.18 33.249 32.92C33.089 32.81 32.879 32.8 32.719 32.89C32.559 32.98 32.439 33.16 32.439 33.35V38.8H27.829C27.939 38.47 27.999 38.12 27.999 37.76C27.999 35.94 26.529 34.47 24.709 34.47C22.889 34.47 21.419 35.94 21.419 37.76C21.419 38.12 21.479 38.46 21.589 38.8H18.459V38.77C18.459 30.95 24.699 24.55 32.449 24.27V28.77C32.449 28.96 32.549 29.14 32.729 29.23C32.899 29.32 33.109 29.31 33.259 29.2C33.629 28.94 34.069 28.81 34.519 28.81C35.769 28.81 36.769 29.82 36.769 31.06V31.08L36.759 31.06Z" fill="url(#paint5_linear_622_543)"/>
<path d="M28.1198 47.48C28.1198 49.3 29.5898 50.77 31.4098 50.77C31.7698 50.77 32.1098 50.71 32.4498 50.6V53.99H26.2498C25.2998 53.99 24.4898 53.36 24.2698 52.44C23.9198 50.97 23.1898 49.59 22.1798 48.45C20.0298 46.06 18.7398 43.02 18.5098 39.82H22.4298C22.6198 39.82 22.7998 39.72 22.8898 39.54C22.9798 39.37 22.9698 39.16 22.8598 39.01C22.5998 38.64 22.4698 38.2 22.4698 37.75C22.4698 36.5 23.4798 35.5 24.7198 35.5C25.9598 35.5 26.9698 36.51 26.9698 37.75C26.9698 38.21 26.8398 38.64 26.5798 39.01C26.4698 39.17 26.4598 39.38 26.5498 39.54C26.6398 39.71 26.8198 39.82 27.0098 39.82H32.4598V44.35C32.1298 44.24 31.7798 44.18 31.4198 44.18C29.5998 44.18 28.1298 45.65 28.1298 47.47H28.1498L28.1198 47.48Z" fill="url(#paint6_linear_622_543)"/>
<path d="M47.4182 39.8201C47.1882 43.0201 45.8882 46.0601 43.7482 48.4501C42.7282 49.5901 41.9982 50.9701 41.6582 52.4401C41.4382 53.3501 40.6182 53.9901 39.6782 53.9901H33.4782V49.7801C33.4782 49.5901 33.3782 49.4101 33.1982 49.3201C33.0282 49.2301 32.8182 49.2401 32.6682 49.3501C32.2982 49.6101 31.8582 49.7401 31.4082 49.7401C30.1582 49.7401 29.1582 48.7301 29.1582 47.4901C29.1582 46.2501 30.1682 45.2401 31.4082 45.2401C31.8682 45.2401 32.2982 45.3701 32.6682 45.6301C32.8282 45.7401 33.0382 45.7501 33.1982 45.6601C33.3582 45.5701 33.4782 45.3901 33.4782 45.2001V39.8301H38.0882C37.9782 40.1601 37.9182 40.5101 37.9182 40.8701C37.9182 42.6901 39.3882 44.1601 41.2082 44.1601C43.0282 44.1601 44.4982 42.6901 44.4982 40.8701C44.4982 40.5101 44.4382 40.1701 44.3282 39.8301H47.4282V39.8101L47.4182 39.8201Z" fill="url(#paint7_linear_622_543)"/>
</g>
<path d="M272.14 55.7103L268.11 62.6703H203.35L199.33 55.7103L203.35 48.7603H268.11L272.14 55.7103Z" fill="white"/>
<path d="M210.179 54.2002C210.179 55.6202 209.129 56.5102 207.459 56.5102H206.209L205.909 58.0502H204.609L205.729 52.4502H207.989C209.389 52.4502 210.179 53.1002 210.179 54.1902V54.2002ZM208.869 54.3102C208.869 53.7702 208.489 53.5102 207.829 53.5102H206.809L206.419 55.4502H207.519C208.379 55.4502 208.869 55.0502 208.869 54.3102Z" fill="black"/>
<path d="M213.839 53.6902L213.619 54.8402C213.509 54.8402 213.439 54.8202 213.329 54.8202C212.589 54.8202 212.119 55.1602 211.959 55.9702L211.539 58.0502H210.289L211.149 53.7502H212.329L212.229 54.2602C212.609 53.8402 213.139 53.6802 213.839 53.6802V53.6902Z" fill="black"/>
<path d="M213.76 56.1904C213.76 54.7604 214.85 53.6904 216.36 53.6904C217.68 53.6904 218.53 54.4504 218.53 55.6204C218.53 57.0504 217.45 58.1204 215.93 58.1204C214.62 58.1204 213.76 57.3504 213.76 56.1904ZM217.26 55.6704C217.26 55.0904 216.91 54.7204 216.28 54.7204C215.54 54.7204 215.02 55.3004 215.02 56.1404C215.02 56.7204 215.38 57.0904 216 57.0904C216.73 57.0904 217.26 56.5104 217.26 55.6704Z" fill="black"/>
<path d="M221.679 55.9005L222.879 58.0505H221.559L220.859 56.7305L219.619 58.0505H218.199L220.349 55.8405L219.209 53.7505H220.499L221.179 55.0105L222.379 53.7505H223.759L221.689 55.9005H221.679Z" fill="black"/>
<path d="M224.389 53.7503H225.629L224.769 58.0503H223.529L224.389 53.7503ZM224.489 52.5003C224.489 52.0803 224.819 51.7603 225.309 51.7603C225.749 51.7603 226.049 52.0303 226.049 52.3803C226.049 52.8403 225.709 53.1503 225.219 53.1503C224.779 53.1503 224.489 52.8603 224.489 52.5003Z" fill="black"/>
<path d="M233.72 55.1404C233.72 55.3104 233.7 55.4804 233.66 55.6704L233.19 58.0504H231.94L232.4 55.7604C232.42 55.6404 232.43 55.5405 232.43 55.4305C232.43 55.0005 232.2 54.7705 231.75 54.7705C231.17 54.7705 230.77 55.1104 230.62 55.8504L230.18 58.0605H228.93L229.39 55.7705C229.41 55.6505 229.42 55.5505 229.42 55.4505C229.42 55.0105 229.19 54.7804 228.74 54.7804C228.16 54.7804 227.76 55.1205 227.6 55.8805L227.17 58.0704H225.92L226.78 53.7705H227.96L227.86 54.2205C228.24 53.8805 228.71 53.7104 229.21 53.7104C229.8 53.7104 230.29 53.9504 230.53 54.4104C230.95 53.9504 231.51 53.7104 232.17 53.7104C233.09 53.7104 233.71 54.2104 233.71 55.1704L233.72 55.1404Z" fill="black"/>
<path d="M239.589 53.7504L238.729 58.0504H237.549L237.629 57.6304C237.289 57.9404 236.839 58.1204 236.309 58.1204C235.309 58.1204 234.459 57.4204 234.459 56.1904C234.459 54.7404 235.509 53.6904 236.829 53.6904C237.449 53.6904 237.949 53.8904 238.229 54.3404L238.339 53.7604H239.589V53.7504ZM237.959 55.6704C237.959 55.0904 237.599 54.7204 236.979 54.7204C236.239 54.7204 235.719 55.3004 235.719 56.1404C235.719 56.7204 236.079 57.0904 236.699 57.0904C237.439 57.0904 237.959 56.5104 237.959 55.6704Z" fill="black"/>
<path d="M247.679 55.1404C247.679 55.3104 247.659 55.4804 247.619 55.6704L247.149 58.0504H245.899L246.359 55.7604C246.379 55.6404 246.389 55.5405 246.389 55.4305C246.389 55.0005 246.159 54.7705 245.709 54.7705C245.129 54.7705 244.729 55.1104 244.579 55.8504L244.139 58.0605H242.889L243.349 55.7705C243.369 55.6505 243.379 55.5505 243.379 55.4505C243.379 55.0105 243.149 54.7804 242.699 54.7804C242.119 54.7804 241.719 55.1205 241.559 55.8805L241.129 58.0704H239.879L240.739 53.7705H241.919L241.819 54.2205C242.199 53.8805 242.669 53.7104 243.169 53.7104C243.759 53.7104 244.249 53.9504 244.489 54.4104C244.909 53.9504 245.469 53.7104 246.129 53.7104C247.049 53.7104 247.669 54.2104 247.669 55.1704L247.679 55.1404Z" fill="black"/>
<path d="M252.93 56.2404H249.64C249.68 56.8204 250.04 57.1204 250.75 57.1204C251.19 57.1204 251.61 56.9804 251.9 56.7204L252.42 57.5404C251.92 57.9404 251.28 58.1204 250.62 58.1204C249.28 58.1204 248.42 57.3604 248.42 56.1904C248.42 54.7504 249.46 53.6904 250.95 53.6904C252.21 53.6904 253 54.4304 253 55.5804C253 55.8104 252.97 56.0404 252.93 56.2404V56.2404ZM249.72 55.5104H251.85C251.85 54.9404 251.47 54.6204 250.89 54.6204C250.31 54.6204 249.88 54.9704 249.71 55.5104H249.72Z" fill="black"/>
<path d="M258.28 55.1504C258.28 55.3104 258.26 55.4904 258.22 55.6704L257.74 58.0504H256.49L256.95 55.7504C256.97 55.6504 256.98 55.5404 256.98 55.4504C256.98 55.0104 256.74 54.7604 256.24 54.7604C255.61 54.7604 255.17 55.1104 255.02 55.8604L254.59 58.0404H253.34L254.2 53.7404H255.38L255.28 54.2004C255.67 53.8404 256.17 53.6704 256.7 53.6704C257.64 53.6704 258.27 54.1804 258.27 55.1304L258.28 55.1504Z" fill="black"/>
<path d="M260.58 56.5303C260.56 56.5903 260.56 56.6503 260.56 56.7103C260.56 56.9703 260.7 57.1303 261.02 57.1303C261.19 57.1303 261.36 57.0703 261.52 56.9803L261.7 57.8703C261.39 58.0603 261 58.1303 260.63 58.1303C259.83 58.1303 259.29 57.6803 259.29 56.9303C259.29 56.8103 259.31 56.6803 259.33 56.5503L259.67 54.8103H259.01L259.2 53.8503H259.86L260.07 52.8003H261.32L261.11 53.8503H262.18L261.99 54.8103H260.92L260.58 56.5403V56.5303Z" fill="black"/>
<path d="M266.819 56.2404H263.529C263.569 56.8204 263.929 57.1204 264.639 57.1204C265.079 57.1204 265.499 56.9804 265.789 56.7204L266.309 57.5404C265.809 57.9404 265.169 58.1204 264.509 58.1204C263.169 58.1204 262.309 57.3604 262.309 56.1904C262.309 54.7504 263.349 53.6904 264.839 53.6904C266.089 53.6904 266.889 54.4304 266.889 55.5804C266.889 55.8104 266.859 56.0404 266.819 56.2404V56.2404ZM263.609 55.5104H265.739C265.739 54.9404 265.359 54.6204 264.779 54.6204C264.199 54.6204 263.769 54.9704 263.599 55.5104H263.609Z" fill="black"/>
<path d="M217.05 52.0005H218.43L216.86 53.1505H215.85L217.05 52.0005Z" fill="black"/>
<g opacity="0.7">
<path d="M89.7289 43.8404L88.1089 41.5004H86.3189V43.8404H84.3789V35.4404H88.0089C90.2489 35.4404 91.6589 36.6004 91.6589 38.4904C91.6589 39.7504 91.0189 40.6704 89.9289 41.1404L91.8089 43.8404H89.7189H89.7289ZM87.9089 37.0304H86.3289V39.9604H87.9089C89.0989 39.9604 89.6989 39.4104 89.6989 38.5004C89.6989 37.5904 89.0989 37.0404 87.9089 37.0404V37.0304Z" fill="white"/>
<path d="M99.3594 41.1405H94.4794C94.6594 41.9405 95.3394 42.4305 96.3294 42.4305C97.0094 42.4305 97.5094 42.2305 97.9494 41.8105L98.9494 42.8905C98.3494 43.5705 97.4494 43.9305 96.2894 43.9305C94.0594 43.9305 92.6094 42.5305 92.6094 40.6105C92.6094 38.6905 94.0894 37.2905 96.0494 37.2905C98.0094 37.2905 99.4094 38.5605 99.4094 40.6405C99.4094 40.7805 99.3894 40.9905 99.3694 41.1405H99.3594ZM94.4494 40.0505H97.6294C97.4994 39.2305 96.8894 38.7105 96.0494 38.7105C95.2094 38.7105 94.5894 39.2305 94.4494 40.0505V40.0505Z" fill="white"/>
<path d="M100.02 43.2405L100.64 41.9005C101.22 42.2705 102.09 42.5205 102.88 42.5205C103.74 42.5205 104.07 42.2905 104.07 41.9305C104.07 40.8805 100.17 41.9505 100.17 39.3805C100.17 38.1605 101.27 37.2905 103.16 37.2905C104.05 37.2905 105.03 37.4905 105.64 37.8505L105.02 39.1805C104.38 38.8205 103.75 38.7005 103.16 38.7005C102.32 38.7005 101.96 38.9605 101.96 39.3005C101.96 40.4005 105.86 39.3405 105.86 41.8805C105.86 43.0805 104.74 43.9305 102.81 43.9305C101.72 43.9305 100.62 43.6305 100.02 43.2305V43.2405Z" fill="white"/>
<path d="M106.539 40.6105C106.539 38.6705 108.039 37.2905 110.089 37.2905C112.139 37.2905 113.629 38.6705 113.629 40.6105C113.629 42.5505 112.139 43.9305 110.089 43.9305C108.039 43.9305 106.539 42.5505 106.539 40.6105ZM111.729 40.6105C111.729 39.4905 111.019 38.8205 110.089 38.8205C109.159 38.8205 108.429 39.4905 108.429 40.6105C108.429 41.7305 109.149 42.4005 110.089 42.4005C111.029 42.4005 111.729 41.7305 111.729 40.6105Z" fill="white"/>
<path d="M114.879 34.9404H116.749V43.8404H114.879V34.9404Z" fill="white"/>
<path d="M124.989 37.3904V43.8404H123.219V43.0704C122.729 43.6304 122.009 43.9304 121.219 43.9304C119.599 43.9304 118.459 43.0204 118.459 41.0304V37.3804H120.329V40.7504C120.329 41.8304 120.809 42.3104 121.639 42.3104C122.469 42.3104 123.129 41.7604 123.129 40.5704V37.3804H124.999L124.989 37.3904Z" fill="white"/>
<path d="M126.248 40.6105C126.248 38.6705 127.748 37.2905 129.848 37.2905C131.198 37.2905 132.268 37.8805 132.738 38.9305L131.288 39.7105C130.938 39.1005 130.428 38.8205 129.838 38.8205C128.888 38.8205 128.148 39.4805 128.148 40.6105C128.148 41.7405 128.888 42.4005 129.838 42.4005C130.428 42.4005 130.938 42.1405 131.288 41.5105L132.738 42.3005C132.268 43.3305 131.198 43.9305 129.848 43.9305C127.748 43.9305 126.248 42.5505 126.248 40.6105Z" fill="white"/>
<path d="M133.6 35.4404C133.6 34.8504 134.07 34.4004 134.76 34.4004C135.45 34.4004 135.92 34.8304 135.92 35.4104C135.92 36.0304 135.45 36.4904 134.76 36.4904C134.07 36.4904 133.6 36.0304 133.6 35.4504V35.4404ZM133.83 37.3804H135.7V43.8304H133.83V37.3804Z" fill="white"/>
<path d="M136.959 40.6106C136.959 38.6706 138.459 37.2906 140.509 37.2906C142.559 37.2906 144.049 38.6706 144.049 40.6106C144.049 42.5506 142.559 43.9306 140.509 43.9306C138.459 43.9306 136.959 42.5506 136.959 40.6106ZM142.149 40.6106C142.149 39.4906 141.439 38.8206 140.509 38.8206C139.579 38.8206 138.859 39.4906 138.859 40.6106C138.859 41.7306 139.579 42.4006 140.509 42.4006C141.439 42.4006 142.149 41.7306 142.149 40.6106ZM141.009 34.8306H143.029L140.859 36.5606H139.399L141.019 34.8306H141.009Z" fill="white"/>
<path d="M151.889 40.1403V43.8303H150.019V40.4203C150.019 39.3803 149.539 38.9003 148.709 38.9003C147.809 38.9003 147.159 39.4503 147.159 40.6403V43.8303H145.289V37.3803H147.079V38.1303C147.579 37.5803 148.339 37.2803 149.209 37.2803C150.729 37.2803 151.879 38.1703 151.879 40.1303L151.889 40.1403Z" fill="white"/>
<path d="M163.56 34.9404V43.8404H161.77V43.1004C161.3 43.6604 160.62 43.9404 159.75 43.9404C157.93 43.9404 156.52 42.6504 156.52 40.6204C156.52 38.5904 157.92 37.3004 159.75 37.3004C160.54 37.3004 161.21 37.5504 161.68 38.0804V34.9504H163.55L163.56 34.9404ZM161.73 40.6104C161.73 39.4904 161.01 38.8204 160.09 38.8204C159.17 38.8204 158.43 39.4904 158.43 40.6104C158.43 41.7304 159.15 42.4004 160.09 42.4004C161.03 42.4004 161.73 41.7304 161.73 40.6104Z" fill="white"/>
<path d="M171.568 41.1405H166.688C166.868 41.9405 167.548 42.4305 168.538 42.4305C169.218 42.4305 169.708 42.2305 170.158 41.8105L171.158 42.8905C170.558 43.5705 169.658 43.9305 168.498 43.9305C166.268 43.9305 164.818 42.5305 164.818 40.6105C164.818 38.6905 166.298 37.2905 168.258 37.2905C170.218 37.2905 171.618 38.5605 171.618 40.6405C171.618 40.7805 171.598 40.9905 171.578 41.1405H171.568ZM166.658 40.0505H169.838C169.708 39.2305 169.098 38.7105 168.258 38.7105C167.418 38.7105 166.798 39.2305 166.668 40.0505H166.658Z" fill="white"/>
<path d="M183.29 40.6103C183.29 42.6403 181.89 43.9303 180.08 43.9303C179.28 43.9303 178.62 43.6803 178.14 43.1503V46.1603H176.27V37.3803H178.06V38.1203C178.53 37.5603 179.22 37.2803 180.09 37.2803C181.9 37.2803 183.3 38.5803 183.3 40.6003L183.29 40.6103ZM181.39 40.6103C181.39 39.4903 180.68 38.8203 179.75 38.8203C178.82 38.8203 178.11 39.4903 178.11 40.6103C178.11 41.7303 178.82 42.4003 179.75 42.4003C180.68 42.4003 181.39 41.7303 181.39 40.6103Z" fill="white"/>
<path d="M188.539 37.2905V39.0205C188.379 39.0105 188.259 39.0005 188.119 39.0005C187.089 39.0005 186.409 39.5605 186.409 40.8005V43.8505H184.539V37.4005H186.329V38.2505C186.789 37.6305 187.549 37.3005 188.549 37.3005L188.539 37.2905Z" fill="white"/>
<path d="M189.119 40.6105C189.119 38.6705 190.619 37.2905 192.669 37.2905C194.719 37.2905 196.209 38.6705 196.209 40.6105C196.209 42.5505 194.719 43.9305 192.669 43.9305C190.619 43.9305 189.119 42.5505 189.119 40.6105ZM194.309 40.6105C194.309 39.4905 193.599 38.8205 192.669 38.8205C191.739 38.8205 191.009 39.4905 191.009 40.6105C191.009 41.7305 191.729 42.4005 192.669 42.4005C193.609 42.4005 194.309 41.7305 194.309 40.6105Z" fill="white"/>
<path d="M204.489 40.6102C204.489 42.6402 203.089 43.9302 201.279 43.9302C200.419 43.9302 199.719 43.6502 199.249 43.0902V43.8302H197.459V34.9302H199.329V38.0602C199.809 37.5302 200.469 37.2802 201.269 37.2802C203.079 37.2802 204.479 38.5802 204.479 40.6002L204.489 40.6102ZM202.599 40.6102C202.599 39.4902 201.889 38.8202 200.959 38.8202C200.029 38.8202 199.319 39.4902 199.319 40.6102C199.319 41.7302 200.029 42.4002 200.959 42.4002C201.889 42.4002 202.599 41.7302 202.599 40.6102Z" fill="white"/>
<path d="M205.738 34.9404H207.608V43.8404H205.738V34.9404Z" fill="white"/>
<path d="M215.639 41.1405H210.759C210.939 41.9405 211.619 42.4305 212.609 42.4305C213.289 42.4305 213.789 42.2305 214.229 41.8105L215.229 42.8905C214.629 43.5705 213.729 43.9305 212.569 43.9305C210.339 43.9305 208.889 42.5305 208.889 40.6105C208.889 38.6905 210.369 37.2905 212.329 37.2905C214.289 37.2905 215.689 38.5605 215.689 40.6405C215.689 40.7805 215.669 40.9905 215.649 41.1405H215.639ZM210.729 40.0505H213.909C213.779 39.2305 213.169 38.7105 212.329 38.7105C211.489 38.7105 210.869 39.2305 210.739 40.0505H210.729Z" fill="white"/>
<path d="M227.83 40.1403V43.8303H225.96V40.4203C225.96 39.3803 225.49 38.9003 224.74 38.9003C223.9 38.9003 223.31 39.4403 223.31 40.5903V43.8303H221.44V40.4203C221.44 39.3803 221 38.9003 220.22 38.9003C219.39 38.9003 218.8 39.4403 218.8 40.5903V43.8303H216.93V37.3803H218.72V38.1203C219.2 37.5703 219.92 37.2803 220.75 37.2803C221.65 37.2803 222.42 37.6303 222.87 38.3403C223.39 37.6803 224.23 37.2803 225.2 37.2803C226.74 37.2803 227.84 38.1703 227.84 40.1303L227.83 40.1403Z" fill="white"/>
<path d="M235.22 40.1605V43.8405H233.47V43.0405C233.12 43.6305 232.45 43.9405 231.5 43.9405C229.99 43.9405 229.09 43.1005 229.09 41.9805C229.09 40.8605 229.89 40.0505 231.86 40.0505H233.35C233.35 39.2505 232.87 38.7805 231.86 38.7805C231.18 38.7805 230.47 39.0105 230 39.3805L229.33 38.0705C230.04 37.5705 231.08 37.2905 232.11 37.2905C234.08 37.2905 235.22 38.2005 235.22 40.1605V40.1605ZM233.35 41.8005V41.1405H232.07C231.19 41.1405 230.92 41.4605 230.92 41.8905C230.92 42.3605 231.32 42.6705 231.98 42.6705C232.6 42.6705 233.14 42.3805 233.36 41.7905L233.35 41.8005Z" fill="white"/>
<path d="M236.289 43.2405L236.909 41.9005C237.489 42.2705 238.359 42.5205 239.149 42.5205C240.009 42.5205 240.339 42.2905 240.339 41.9305C240.339 40.8805 236.439 41.9505 236.439 39.3805C236.439 38.1605 237.539 37.2905 239.429 37.2905C240.319 37.2905 241.299 37.4905 241.909 37.8505L241.289 39.1805C240.649 38.8205 240.019 38.7005 239.429 38.7005C238.589 38.7005 238.229 38.9605 238.229 39.3005C238.229 40.4005 242.129 39.3405 242.129 41.8805C242.129 43.0805 241.009 43.9305 239.079 43.9305C237.989 43.9305 236.889 43.6305 236.289 43.2305V43.2405Z" fill="white"/>
</g>
<defs>
<linearGradient id="paint0_linear_622_543" x1="66.8301" y1="40.3301" x2="280.98" y2="40.3301" gradientUnits="userSpaceOnUse">
<stop stop-color="#172765"/>
<stop offset="0.23" stop-color="#193A68"/>
<stop offset="0.69" stop-color="#206E70"/>
<stop offset="1" stop-color="#259377"/>
</linearGradient>
<linearGradient id="paint1_linear_622_543" x1="-0.000703281" y1="39.8602" x2="70.2193" y2="39.8602" gradientUnits="userSpaceOnUse">
<stop stop-color="#172765"/>
<stop offset="0.23" stop-color="#193A68"/>
<stop offset="0.69" stop-color="#206E70"/>
<stop offset="1" stop-color="#259377"/>
</linearGradient>
<linearGradient id="paint2_linear_622_543" x1="29.2398" y1="61.8301" x2="36.6598" y2="61.8301" gradientUnits="userSpaceOnUse">
<stop stop-color="#172765"/>
<stop offset="0.23" stop-color="#193A68"/>
<stop offset="0.69" stop-color="#206E70"/>
<stop offset="1" stop-color="#259377"/>
</linearGradient>
<linearGradient id="paint3_linear_622_543" x1="26.4182" y1="57.04" x2="39.4782" y2="57.04" gradientUnits="userSpaceOnUse">
<stop stop-color="#172765"/>
<stop offset="0.23" stop-color="#193A68"/>
<stop offset="0.69" stop-color="#206E70"/>
<stop offset="1" stop-color="#259377"/>
</linearGradient>
<linearGradient id="paint4_linear_622_543" x1="41.1697" y1="26.0001" x2="55.1597" y2="26.0001" gradientUnits="userSpaceOnUse">
<stop stop-color="#172765"/>
<stop offset="0.23" stop-color="#193A68"/>
<stop offset="0.69" stop-color="#206E70"/>
<stop offset="1" stop-color="#259377"/>
</linearGradient>
<linearGradient id="paint5_linear_622_543" x1="18.459" y1="31.51" x2="36.769" y2="31.51" gradientUnits="userSpaceOnUse">
<stop stop-color="#172765"/>
<stop offset="0.23" stop-color="#193A68"/>
<stop offset="0.69" stop-color="#206E70"/>
<stop offset="1" stop-color="#259377"/>
</linearGradient>
<linearGradient id="paint6_linear_622_543" x1="18.4898" y1="44.74" x2="32.4398" y2="44.74" gradientUnits="userSpaceOnUse">
<stop stop-color="#172765"/>
<stop offset="0.23" stop-color="#193A68"/>
<stop offset="0.69" stop-color="#206E70"/>
<stop offset="1" stop-color="#259377"/>
</linearGradient>
<linearGradient id="paint7_linear_622_543" x1="29.1382" y1="46.9001" x2="47.4182" y2="46.9001" gradientUnits="userSpaceOnUse">
<stop stop-color="#172765"/>
<stop offset="0.23" stop-color="#193A68"/>
<stop offset="0.69" stop-color="#206E70"/>
<stop offset="1" stop-color="#259377"/>
</linearGradient>
</defs>
</svg>
