<svg width="283" height="81" viewBox="0 0 283 81" fill="none" xmlns="http://www.w3.org/2000/svg">
<path opacity="0.7" d="M282.46 41.0252L269.91 62.7352H68.0098V61.3052L69.9398 60.2052C70.6498 59.7852 71.1098 59.0052 71.1098 58.1552V22.6552C71.1098 21.8052 70.6398 21.0252 69.9398 20.6052L68.0098 19.5052V19.3052H269.92L282.47 41.0452L282.46 41.0252Z" fill="url(#paint0_linear_538_800)"/>
<path opacity="0.7" d="M69.25 23.125V58.645C69.25 59.495 68.79 60.275 68.08 60.695L66.04 61.865L37.31 78.455C36.57 78.875 35.68 78.875 34.95 78.455L4.17 60.705C3.45 60.285 3 59.505 3 58.655V23.125C3 22.275 3.46 21.495 4.17 21.075L34.94 3.315C35.68 2.895 36.57 2.895 37.3 3.315L63.46 18.425L68.05 21.075C68.77 21.495 69.22 22.275 69.22 23.125H69.24H69.25Z" stroke="url(#paint1_linear_538_800)" stroke-width="4.06" stroke-linecap="round" stroke-linejoin="round"/>
<g opacity="0.7">
<path d="M20.5086 56.6548C19.4286 56.6548 18.5586 57.5348 18.5586 58.6048C18.5586 59.6748 19.4386 60.5548 20.5086 60.5548C21.5786 60.5548 22.4586 59.6748 22.4586 58.6048C22.4586 57.5348 21.5786 56.6548 20.5086 56.6548ZM20.5086 59.2548C20.1486 59.2548 19.8586 58.9648 19.8586 58.6048C19.8586 58.2448 20.1486 57.9548 20.5086 57.9548C20.8686 57.9548 21.1586 58.2448 21.1586 58.6048C21.1586 58.9648 20.8686 59.2548 20.5086 59.2548Z" fill="url(#paint2_linear_538_800)"/>
<path d="M17.2891 55.3849L18.2191 56.3149C18.8291 55.7049 19.6491 55.3649 20.5191 55.3649C21.3891 55.3649 22.1991 55.6949 22.8191 56.3149L23.7491 55.3849C22.8891 54.5249 21.7391 54.0449 20.5291 54.0449C19.3191 54.0449 18.1691 54.5149 17.3091 55.3849H17.2891Z" fill="url(#paint3_linear_538_800)"/>
<path d="M15.4492 53.5446L16.3792 54.4746C18.6692 52.1846 22.3792 52.1846 24.6692 54.4746L25.5992 53.5446C22.8092 50.7546 18.2592 50.7546 15.4692 53.5446H15.4592H15.4492Z" fill="url(#paint4_linear_538_800)"/>
<path d="M53.05 56.6549H51.75V54.0549H50.45V56.6549H49.15V55.3549H47.85V56.6549H46.55V52.7549H45.25V57.9649H53.06V56.6649H53.08L53.05 56.6549Z" fill="url(#paint5_linear_538_800)"/>
<path d="M53.6991 35.8248H48.4891C47.4091 35.8248 46.5391 36.7048 46.5391 37.7748V39.7248H43.9091C43.7691 37.8848 43.0391 36.2048 41.8991 34.8748L48.1191 28.6548H53.0591C54.4991 28.6548 55.6591 27.4848 55.6591 26.0548C55.6591 24.8248 54.8091 23.8048 53.6591 23.5248C53.3791 21.6448 51.7491 20.2048 49.7991 20.2048C47.8491 20.2048 46.2191 21.6548 45.9391 23.5248C44.7991 23.8048 43.9391 24.8248 43.9391 26.0548C43.9391 27.4048 44.9791 28.5048 46.2991 28.6348L40.9791 33.9548C39.6491 32.8148 37.9791 32.0848 36.1291 31.9448V29.3148H38.0791C39.1591 29.3148 40.0291 28.4348 40.0291 27.3648V22.1548C40.0291 21.0748 39.1491 20.2048 38.0791 20.2048H32.8691C31.7891 20.2048 30.9191 21.0848 30.9191 22.1548V27.3648C30.9191 28.4448 31.7991 29.3148 32.8691 29.3148H34.8191V31.9448C32.9791 32.0848 31.2991 32.8148 29.9691 33.9548L26.8391 30.8248C27.7491 29.6948 28.3091 28.2748 28.3091 26.7048C28.3091 23.1148 25.3891 20.1948 21.7991 20.1948C18.2091 20.1948 15.2891 23.1148 15.2891 26.7048C15.2891 30.2948 18.2091 33.2148 21.7991 33.2148C23.3591 33.2148 24.7891 32.6548 25.9191 31.7448L29.0491 34.8748C27.9091 36.2048 27.1791 37.8748 27.0391 39.7248H24.4091V37.7748C24.4091 36.6948 23.5291 35.8248 22.4591 35.8248H17.2491C16.1691 35.8248 15.2991 36.7048 15.2991 37.7748V42.9848C15.2991 44.0648 16.1791 44.9348 17.2491 44.9348H22.4591C23.5391 44.9348 24.4091 44.0548 24.4091 42.9848V41.0348H27.0391C27.1791 42.8748 27.9091 44.5548 29.0491 45.8848L24.5891 50.3448L25.5191 51.2748L29.9791 46.8148C31.3091 47.9548 32.9791 48.6848 34.8291 48.8248V51.4548H32.8791C31.7991 51.4548 30.9291 52.3348 30.9291 53.4048V58.6148C30.9291 59.6948 31.8091 60.5648 32.8791 60.5648H38.0891C39.1691 60.5648 40.0391 59.6848 40.0391 58.6148V53.4048C40.0391 52.3248 39.1591 51.4548 38.0891 51.4548H36.1391V48.8248C37.9791 48.6848 39.6591 47.9548 40.9891 46.8148L44.3591 50.1848C43.3991 50.3048 42.6491 51.1248 42.6491 52.1148V58.6248C42.6491 59.7048 43.5291 60.5748 44.5991 60.5748H53.7091C54.7891 60.5748 55.6591 59.6948 55.6591 58.6248V52.1148C55.6591 51.0348 54.7791 50.1648 53.7091 50.1648H46.1691L41.9091 45.9048C43.0491 44.5748 43.7791 42.9048 43.9191 41.0548H46.5491V43.0048C46.5491 44.0848 47.4291 44.9548 48.4991 44.9548H53.7091C54.7891 44.9548 55.6591 44.0748 55.6591 43.0048V37.7948C55.6591 36.7148 54.7791 35.8448 53.7091 35.8448H53.6891L53.6991 35.8248ZM38.7291 25.3948H32.2191V24.0948H38.7291V25.3948ZM32.8791 21.4948H38.0891C38.4491 21.4948 38.7391 21.7848 38.7391 22.1448V22.7948H32.2291V22.1448C32.2291 21.7848 32.5191 21.4948 32.8791 21.4948H32.8891H32.8791ZM32.2291 27.3448V26.6948H38.7391V27.3448C38.7391 27.7048 38.4491 27.9948 38.0891 27.9948H32.8791C32.5191 27.9948 32.2291 27.7048 32.2291 27.3448H32.2191H32.2291ZM17.2591 37.1048H22.4691C22.8291 37.1048 23.1191 37.3948 23.1191 37.7548V38.4048H16.6091V37.7548C16.6091 37.3948 16.8991 37.1048 17.2591 37.1048H17.2691H17.2591ZM23.1091 39.7048V41.0048H16.5991V39.7048H23.1091ZM22.4591 43.6048H17.2491C16.8891 43.6048 16.5991 43.3148 16.5991 42.9548V42.3048H23.1091V42.9548C23.1091 43.3148 22.8191 43.6048 22.4591 43.6048H22.4491H22.4591ZM32.2191 55.3148H38.7291V56.6148H32.2191V55.3148ZM38.0691 59.2148H32.8591C32.4991 59.2148 32.2091 58.9248 32.2091 58.5648V57.9148H38.7191V58.5648C38.7191 58.9248 38.4291 59.2148 38.0691 59.2148H38.0591H38.0691ZM38.7191 53.3648V54.0148H32.2091V53.3648C32.2091 53.0048 32.4991 52.7148 32.8591 52.7148H38.0691C38.4291 52.7148 38.7191 53.0048 38.7191 53.3648H38.7291H38.7191ZM35.4591 47.5148C34.7591 47.5148 34.0091 46.5248 33.4991 44.9148H37.4091C36.8991 46.5248 36.1491 47.5148 35.4491 47.5148H35.4591V47.5148ZM33.1691 43.6148C33.0091 42.8248 32.8991 41.9548 32.8691 41.0148H38.0391C38.0091 41.9548 37.8991 42.8348 37.7391 43.6148H33.1691ZM28.3291 41.0148H31.5591C31.5891 41.9448 31.6791 42.8148 31.8291 43.6148H29.0891C28.6791 42.8248 28.4191 41.9448 28.3291 41.0148ZM35.4591 33.2048C36.1591 33.2048 36.9091 34.1948 37.4191 35.8048H33.5091C34.0191 34.1948 34.7691 33.2048 35.4691 33.2048H35.4591V33.2048ZM37.7491 37.1048C37.9091 37.8948 38.0191 38.7648 38.0491 39.7048H32.8791C32.9091 38.7648 33.0191 37.8848 33.1791 37.1048H37.7491V37.1048ZM31.5691 39.7048H28.3391C28.4291 38.7748 28.6891 37.8948 29.0991 37.1048H31.8391C31.6991 37.9048 31.6091 38.7848 31.5691 39.7048V39.7048ZM39.3491 41.0048H42.5791C42.4891 41.9348 42.2291 42.8148 41.8191 43.6048H39.0791C39.2191 42.8048 39.3091 41.9248 39.3491 41.0048ZM39.3491 39.7048C39.3191 38.7748 39.2291 37.9048 39.0791 37.1048H41.8191C42.2291 37.8948 42.4891 38.7748 42.5791 39.7048H39.3491ZM45.2291 26.0348C45.2291 25.3248 45.8091 24.7348 46.5291 24.7348H47.1791V24.0848C47.1791 22.6448 48.3491 21.4848 49.7791 21.4848C51.0291 21.4848 52.0691 22.3648 52.3191 23.5348C51.2291 23.8448 50.4191 24.8548 50.4191 26.0448H51.7191C51.7191 25.3348 52.2991 24.7448 53.0191 24.7448C53.7391 24.7448 54.3191 25.3248 54.3191 26.0448C54.3191 26.7648 53.7391 27.3448 53.0191 27.3448H46.5091C45.7991 27.3448 45.2091 26.7648 45.2091 26.0448H45.2191L45.2291 26.0348ZM40.9791 35.7848H38.7791C38.5491 34.9348 38.2291 34.2148 37.8791 33.6148C39.0991 34.0448 40.1691 34.8048 40.9791 35.7848ZM33.0391 33.6148C32.6791 34.2148 32.3691 34.9448 32.1391 35.7848H29.9391C30.7491 34.8048 31.8191 34.0448 33.0391 33.6148ZM21.7891 21.4748C24.6591 21.4748 26.9991 23.8048 26.9991 26.6848C26.9991 27.6448 26.7291 28.5348 26.2891 29.3048C25.7091 28.3048 24.8091 27.5348 23.7491 27.0948C24.1491 26.6348 24.3991 26.0448 24.3991 25.3848C24.3991 23.9448 23.2291 22.7848 21.7991 22.7848C20.3691 22.7848 19.1991 23.9548 19.1991 25.3848C19.1991 26.0448 19.4591 26.6348 19.8491 27.0948C18.7891 27.5248 17.8891 28.3148 17.3091 29.3048C16.8591 28.5348 16.5991 27.6448 16.5991 26.6848C16.5991 23.8148 18.9291 21.4748 21.8091 21.4748H21.7891ZM20.4891 25.3748C20.4891 24.6648 21.0691 24.0748 21.7891 24.0748C22.5091 24.0748 23.0891 24.6548 23.0891 25.3748C23.0891 26.0948 22.5091 26.6748 21.7891 26.6748C21.0691 26.6748 20.4891 26.0948 20.4891 25.3748ZM18.1791 30.4248C18.7691 28.9748 20.1991 27.9848 21.7791 27.9848C23.3591 27.9848 24.7891 28.9748 25.3791 30.4248C24.4391 31.3248 23.1691 31.8848 21.7791 31.8848C20.3891 31.8848 19.1091 31.3248 18.1791 30.4248ZM29.9291 44.9048H32.1291C32.3591 45.7548 32.6791 46.4748 33.0291 47.0748C31.8091 46.6448 30.7391 45.8848 29.9291 44.9048ZM37.8691 47.0748C38.2291 46.4748 38.5391 45.7448 38.7691 44.9048H40.9691C40.1591 45.8848 39.0891 46.6448 37.8691 47.0748ZM54.3291 52.0548V58.5648C54.3291 58.9248 54.0391 59.2148 53.6791 59.2148H44.5691C44.2091 59.2148 43.9191 58.9248 43.9191 58.5648V52.0548C43.9191 51.6948 44.2091 51.4048 44.5691 51.4048H53.6791C54.0391 51.4048 54.3291 51.6948 54.3291 52.0548ZM48.4791 37.0848H53.6891C54.0491 37.0848 54.3391 37.3748 54.3391 37.7348V38.3848H47.8291V37.7348C47.8291 37.3748 48.1191 37.0848 48.4791 37.0848H48.4891H48.4791ZM54.3291 39.6848V40.9848H47.8191V39.6848H54.3291ZM53.6791 43.5848H48.4691C48.1091 43.5848 47.8191 43.2948 47.8191 42.9348V42.2848H54.3291V42.9348C54.3291 43.2948 54.0391 43.5848 53.6791 43.5848H53.6691H53.6791Z" fill="url(#paint6_linear_538_800)"/>
</g>
<path d="M273.82 55.9749L269.79 62.9349H205.03L201.01 55.9749L205.03 49.0249H269.79L273.82 55.9749Z" fill="white"/>
<path d="M211.859 54.4551C211.859 55.8751 210.809 56.7651 209.139 56.7651H207.889L207.589 58.3051H206.289L207.409 52.7051H209.669C211.069 52.7051 211.859 53.3551 211.859 54.4451V54.4551ZM210.549 54.5651C210.549 54.0251 210.169 53.7651 209.509 53.7651H208.489L208.099 55.7051H209.199C210.059 55.7051 210.549 55.3051 210.549 54.5651Z" fill="black"/>
<path d="M215.519 53.9451L215.299 55.0951C215.189 55.0951 215.119 55.0751 215.009 55.0751C214.269 55.0751 213.799 55.4151 213.639 56.2251L213.219 58.3051H211.969L212.829 54.0051H214.009L213.909 54.5151C214.289 54.0951 214.819 53.9351 215.519 53.9351V53.9451Z" fill="black"/>
<path d="M215.439 56.4551C215.439 55.0251 216.529 53.9551 218.039 53.9551C219.359 53.9551 220.209 54.7151 220.209 55.8851C220.209 57.3151 219.129 58.3851 217.609 58.3851C216.299 58.3851 215.439 57.6151 215.439 56.4551ZM218.939 55.9351C218.939 55.3551 218.589 54.9851 217.959 54.9851C217.219 54.9851 216.699 55.5651 216.699 56.4051C216.699 56.9851 217.059 57.3551 217.679 57.3551C218.409 57.3551 218.939 56.7751 218.939 55.9351Z" fill="black"/>
<path d="M223.359 56.1651L224.559 58.3151H223.239L222.539 56.9951L221.299 58.3151H219.879L222.029 56.1051L220.889 54.0151H222.179L222.859 55.2751L224.059 54.0151H225.439L223.369 56.1651H223.359Z" fill="black"/>
<path d="M226.069 54.0149H227.309L226.449 58.3149H225.209L226.069 54.0149ZM226.169 52.7649C226.169 52.3449 226.499 52.0249 226.989 52.0249C227.429 52.0249 227.729 52.2949 227.729 52.6449C227.729 53.1049 227.389 53.4149 226.899 53.4149C226.459 53.4149 226.169 53.1249 226.169 52.7649Z" fill="black"/>
<path d="M235.4 55.4051C235.4 55.5751 235.38 55.7451 235.34 55.9351L234.87 58.3151H233.62L234.08 56.0251C234.1 55.9051 234.11 55.8051 234.11 55.6951C234.11 55.2651 233.88 55.0351 233.43 55.0351C232.85 55.0351 232.45 55.3751 232.3 56.1151L231.86 58.3251H230.61L231.07 56.0351C231.09 55.9151 231.1 55.8151 231.1 55.7151C231.1 55.2751 230.87 55.0451 230.42 55.0451C229.84 55.0451 229.44 55.3851 229.28 56.1451L228.85 58.3351H227.6L228.46 54.0351H229.64L229.54 54.4851C229.92 54.1451 230.39 53.9751 230.89 53.9751C231.48 53.9751 231.97 54.2151 232.21 54.6751C232.63 54.2151 233.19 53.9751 233.85 53.9751C234.77 53.9751 235.39 54.4751 235.39 55.4351L235.4 55.4051Z" fill="black"/>
<path d="M241.269 54.0151L240.409 58.3151H239.229L239.309 57.8951C238.969 58.2051 238.519 58.3851 237.989 58.3851C236.989 58.3851 236.139 57.6851 236.139 56.4551C236.139 55.0051 237.189 53.9551 238.509 53.9551C239.129 53.9551 239.629 54.1551 239.909 54.6051L240.019 54.0251H241.269V54.0151ZM239.639 55.9351C239.639 55.3551 239.279 54.9851 238.659 54.9851C237.919 54.9851 237.399 55.5651 237.399 56.4051C237.399 56.9851 237.759 57.3551 238.379 57.3551C239.119 57.3551 239.639 56.7751 239.639 55.9351Z" fill="black"/>
<path d="M249.359 55.4051C249.359 55.5751 249.339 55.7451 249.299 55.9351L248.829 58.3151H247.579L248.039 56.0251C248.059 55.9051 248.069 55.8051 248.069 55.6951C248.069 55.2651 247.839 55.0351 247.389 55.0351C246.809 55.0351 246.409 55.3751 246.259 56.1151L245.819 58.3251H244.569L245.029 56.0351C245.049 55.9151 245.059 55.8151 245.059 55.7151C245.059 55.2751 244.829 55.0451 244.379 55.0451C243.799 55.0451 243.399 55.3851 243.239 56.1451L242.809 58.3351H241.559L242.419 54.0351H243.599L243.499 54.4851C243.879 54.1451 244.349 53.9751 244.849 53.9751C245.439 53.9751 245.929 54.2151 246.169 54.6751C246.589 54.2151 247.149 53.9751 247.809 53.9751C248.729 53.9751 249.349 54.4751 249.349 55.4351L249.359 55.4051Z" fill="black"/>
<path d="M254.61 56.4948H251.32C251.36 57.0748 251.72 57.3748 252.43 57.3748C252.87 57.3748 253.29 57.2348 253.58 56.9748L254.1 57.7948C253.6 58.1948 252.96 58.3748 252.3 58.3748C250.96 58.3748 250.1 57.6148 250.1 56.4448C250.1 55.0048 251.14 53.9448 252.63 53.9448C253.89 53.9448 254.68 54.6848 254.68 55.8348C254.68 56.0648 254.65 56.2948 254.61 56.4948V56.4948ZM251.4 55.7648H253.53C253.53 55.1948 253.15 54.8748 252.57 54.8748C251.99 54.8748 251.56 55.2248 251.39 55.7648H251.4Z" fill="black"/>
<path d="M259.96 55.4151C259.96 55.5751 259.94 55.7551 259.9 55.9351L259.42 58.3151H258.17L258.63 56.0151C258.65 55.9151 258.66 55.8051 258.66 55.7151C258.66 55.2751 258.42 55.0251 257.92 55.0251C257.29 55.0251 256.85 55.3751 256.7 56.1251L256.27 58.3051H255.02L255.88 54.0051H257.06L256.96 54.4651C257.35 54.1051 257.85 53.9351 258.38 53.9351C259.32 53.9351 259.95 54.4451 259.95 55.3951L259.96 55.4151Z" fill="black"/>
<path d="M262.259 56.7949C262.239 56.8549 262.239 56.9149 262.239 56.9749C262.239 57.2349 262.379 57.3949 262.699 57.3949C262.869 57.3949 263.039 57.3349 263.199 57.2449L263.379 58.1349C263.069 58.3249 262.679 58.3949 262.309 58.3949C261.509 58.3949 260.969 57.9449 260.969 57.1949C260.969 57.0749 260.989 56.9449 261.009 56.8149L261.349 55.0749H260.689L260.879 54.1149H261.539L261.749 53.0649H262.999L262.789 54.1149H263.859L263.669 55.0749H262.599L262.259 56.8049V56.7949Z" fill="black"/>
<path d="M268.498 56.4948H265.208C265.248 57.0748 265.608 57.3748 266.318 57.3748C266.758 57.3748 267.178 57.2348 267.468 56.9748L267.988 57.7948C267.488 58.1948 266.848 58.3748 266.188 58.3748C264.848 58.3748 263.988 57.6148 263.988 56.4448C263.988 55.0048 265.028 53.9448 266.518 53.9448C267.768 53.9448 268.568 54.6848 268.568 55.8348C268.568 56.0648 268.538 56.2948 268.498 56.4948V56.4948ZM265.288 55.7648H267.418C267.418 55.1948 267.038 54.8748 266.458 54.8748C265.878 54.8748 265.448 55.2248 265.278 55.7648H265.288Z" fill="black"/>
<g opacity="0.7">
<path d="M89.5801 36.125H91.5201V44.525H89.5801V36.125Z" fill="white"/>
<path d="M99.9809 40.8248V44.5148H98.1109V41.1048C98.1109 40.0648 97.6309 39.5848 96.8009 39.5848C95.9009 39.5848 95.2509 40.1348 95.2509 41.3248V44.5148H93.3809V38.0648H95.1709V38.8148C95.6709 38.2648 96.4309 37.9648 97.3009 37.9648C98.8209 37.9648 99.9709 38.8548 99.9709 40.8148L99.9809 40.8248Z" fill="white"/>
<path d="M105.84 44.2148C105.46 44.4948 104.89 44.6248 104.32 44.6248C102.8 44.6248 101.91 43.8448 101.91 42.3148V39.6648H100.91V38.2248H101.91V36.6548H103.78V38.2248H105.39V39.6648H103.78V42.2948C103.78 42.8448 104.08 43.1448 104.58 43.1448C104.86 43.1448 105.13 43.0648 105.34 42.9048L105.84 44.2248V44.2148Z" fill="white"/>
<path d="M110.9 37.9751V39.7051C110.74 39.6951 110.62 39.6851 110.48 39.6851C109.45 39.6851 108.77 40.2451 108.77 41.4851V44.5351H106.9V38.0851H108.69V38.9351C109.15 38.3151 109.91 37.9851 110.91 37.9851L110.9 37.9751Z" fill="white"/>
<path d="M111.48 41.2951C111.48 39.3551 112.98 37.9751 115.03 37.9751C117.08 37.9751 118.57 39.3551 118.57 41.2951C118.57 43.2351 117.08 44.6151 115.03 44.6151C112.98 44.6151 111.48 43.2351 111.48 41.2951ZM116.67 41.2951C116.67 40.1751 115.96 39.5051 115.03 39.5051C114.1 39.5051 113.37 40.1751 113.37 41.2951C113.37 42.4151 114.09 43.0851 115.03 43.0851C115.97 43.0851 116.67 42.4151 116.67 41.2951Z" fill="white"/>
<path d="M126.389 35.625V44.525H124.599V43.785C124.129 44.345 123.449 44.625 122.589 44.625C120.769 44.625 119.359 43.335 119.359 41.305C119.359 39.275 120.759 37.985 122.589 37.985C123.379 37.985 124.049 38.235 124.519 38.765V35.635H126.389V35.625ZM124.559 41.295C124.559 40.175 123.839 39.505 122.919 39.505C121.999 39.505 121.259 40.175 121.259 41.295C121.259 42.415 121.979 43.085 122.919 43.085C123.859 43.085 124.559 42.415 124.559 41.295Z" fill="white"/>
<path d="M134.63 38.0652V44.5152H132.85V43.7452C132.36 44.3052 131.64 44.6052 130.85 44.6052C129.23 44.6052 128.09 43.6952 128.09 41.7052V38.0552H129.96V41.4252C129.96 42.5052 130.44 42.9852 131.27 42.9852C132.1 42.9852 132.76 42.4352 132.76 41.2452V38.0552H134.63V38.0652Z" fill="white"/>
<path d="M135.891 41.2951C135.891 39.3551 137.391 37.9751 139.491 37.9751C140.851 37.9751 141.911 38.5651 142.381 39.6151L140.931 40.3951C140.581 39.7851 140.071 39.5051 139.481 39.5051C138.531 39.5051 137.791 40.1651 137.791 41.2951C137.791 42.4251 138.531 43.0851 139.481 43.0851C140.071 43.0851 140.581 42.8251 140.931 42.1951L142.381 42.9851C141.911 44.0151 140.841 44.6151 139.491 44.6151C137.391 44.6151 135.891 43.2351 135.891 41.2951Z" fill="white"/>
<path d="M142.9 41.2951C142.9 39.3551 144.4 37.9751 146.5 37.9751C147.86 37.9751 148.92 38.5651 149.39 39.6151L147.94 40.3951C147.59 39.7851 147.08 39.5051 146.49 39.5051C145.54 39.5051 144.8 40.1651 144.8 41.2951C144.8 42.4251 145.54 43.0851 146.49 43.0851C147.08 43.0851 147.59 42.8251 147.94 42.1951L149.39 42.9851C148.92 44.0151 147.85 44.6151 146.5 44.6151C144.4 44.6151 142.9 43.2351 142.9 41.2951Z" fill="white"/>
<path d="M150.24 36.125C150.24 35.535 150.71 35.085 151.4 35.085C152.09 35.085 152.56 35.515 152.56 36.095C152.56 36.715 152.09 37.175 151.4 37.175C150.71 37.175 150.24 36.715 150.24 36.135V36.125ZM150.47 38.065H152.34V44.515H150.47V38.065Z" fill="white"/>
<path d="M153.6 41.2951C153.6 39.3551 155.1 37.9751 157.15 37.9751C159.2 37.9751 160.69 39.3551 160.69 41.2951C160.69 43.2351 159.2 44.6151 157.15 44.6151C155.1 44.6151 153.6 43.2351 153.6 41.2951ZM158.79 41.2951C158.79 40.1751 158.08 39.5051 157.15 39.5051C156.22 39.5051 155.49 40.1751 155.49 41.2951C155.49 42.4151 156.21 43.0851 157.15 43.0851C158.09 43.0851 158.79 42.4151 158.79 41.2951ZM157.65 35.5151H159.66L157.49 37.2451H156.03L157.65 35.5151Z" fill="white"/>
<path d="M168.539 40.8248V44.5148H166.669V41.1048C166.669 40.0648 166.189 39.5848 165.359 39.5848C164.459 39.5848 163.809 40.1348 163.809 41.3248V44.5148H161.939V38.0648H163.729V38.8148C164.229 38.2648 164.989 37.9648 165.859 37.9648C167.379 37.9648 168.529 38.8548 168.529 40.8148L168.539 40.8248Z" fill="white"/>
<path d="M179.341 40.8348V44.5148H177.591V43.7148C177.241 44.3048 176.571 44.6148 175.621 44.6148C174.111 44.6148 173.211 43.7748 173.211 42.6548C173.211 41.5348 174.011 40.7248 175.981 40.7248H177.471C177.471 39.9248 176.991 39.4548 175.981 39.4548C175.301 39.4548 174.591 39.6848 174.121 40.0548L173.451 38.7448C174.161 38.2448 175.201 37.9648 176.231 37.9648C178.201 37.9648 179.341 38.8748 179.341 40.8348V40.8348ZM177.471 42.4748V41.8148H176.191C175.311 41.8148 175.041 42.1348 175.041 42.5648C175.041 43.0348 175.441 43.3448 176.101 43.3448C176.721 43.3448 177.261 43.0548 177.481 42.4648L177.471 42.4748Z" fill="white"/>
<path d="M183.9 43.6951L184.56 42.2351C185.27 42.7551 186.32 43.1151 187.33 43.1151C188.48 43.1151 188.95 42.7351 188.95 42.2151C188.95 40.6451 184.07 41.7251 184.07 38.6051C184.07 37.1751 185.22 35.9951 187.61 35.9951C188.67 35.9951 189.74 36.2451 190.52 36.7351L189.92 38.2151C189.14 37.7751 188.34 37.5551 187.59 37.5551C186.44 37.5551 186 37.9851 186 38.5151C186 40.0651 190.88 38.9951 190.88 42.0751C190.88 43.4751 189.72 44.6751 187.32 44.6751C185.99 44.6751 184.65 44.2751 183.9 43.7051V43.6951Z" fill="white"/>
<path d="M192.221 36.125H196.031C198.781 36.125 200.661 37.785 200.661 40.325C200.661 42.865 198.781 44.525 196.031 44.525H192.221V36.125V36.125ZM195.941 42.925C197.611 42.925 198.701 41.925 198.701 40.325C198.701 38.725 197.611 37.725 195.941 37.725H194.161V42.935H195.941V42.925Z" fill="white"/>
<path d="M201.811 40.395H205.201V41.895H201.811V40.395Z" fill="white"/>
<path d="M219.19 36.125L216.44 44.525H214.35L212.5 38.845L210.59 44.525H208.51L205.75 36.125H207.76L209.66 42.025L211.64 36.125H213.44L215.36 42.075L217.32 36.125H219.18H219.19Z" fill="white"/>
<path d="M225.53 42.725H221.63L220.89 44.525H218.9L222.64 36.125H224.56L228.31 44.525H226.27L225.53 42.725V42.725ZM224.92 41.245L223.59 38.035L222.26 41.245H224.92V41.245Z" fill="white"/>
<path d="M236.89 36.125V44.525H235.29L231.1 39.425V44.525H229.18V36.125H230.79L234.96 41.225V36.125H236.88H236.89Z" fill="white"/>
</g>
<defs>
<linearGradient id="paint0_linear_538_800" x1="68.0098" y1="41.0152" x2="282.46" y2="41.0152" gradientUnits="userSpaceOnUse">
<stop stop-color="#172765"/>
<stop offset="0.18" stop-color="#2A3473"/>
<stop offset="0.55" stop-color="#5E5698"/>
<stop offset="1" stop-color="#A484CA"/>
</linearGradient>
<linearGradient id="paint1_linear_538_800" x1="0.97" y1="40.885" x2="71.28" y2="40.885" gradientUnits="userSpaceOnUse">
<stop stop-color="#172765"/>
<stop offset="0.18" stop-color="#2A3473"/>
<stop offset="0.55" stop-color="#5E5698"/>
<stop offset="1" stop-color="#A484CA"/>
</linearGradient>
<linearGradient id="paint2_linear_538_800" x1="18.5586" y1="58.6048" x2="22.4586" y2="58.6048" gradientUnits="userSpaceOnUse">
<stop stop-color="#172765"/>
<stop offset="0.18" stop-color="#2A3473"/>
<stop offset="0.55" stop-color="#5E5698"/>
<stop offset="1" stop-color="#A484CA"/>
</linearGradient>
<linearGradient id="paint3_linear_538_800" x1="17.2891" y1="55.1749" x2="23.7291" y2="55.1749" gradientUnits="userSpaceOnUse">
<stop stop-color="#172765"/>
<stop offset="0.18" stop-color="#2A3473"/>
<stop offset="0.55" stop-color="#5E5698"/>
<stop offset="1" stop-color="#A484CA"/>
</linearGradient>
<linearGradient id="paint4_linear_538_800" x1="15.4492" y1="52.9546" x2="25.5792" y2="52.9546" gradientUnits="userSpaceOnUse">
<stop stop-color="#172765"/>
<stop offset="0.18" stop-color="#2A3473"/>
<stop offset="0.55" stop-color="#5E5698"/>
<stop offset="1" stop-color="#A484CA"/>
</linearGradient>
<linearGradient id="paint5_linear_538_800" x1="45.22" y1="55.3549" x2="53.05" y2="55.3549" gradientUnits="userSpaceOnUse">
<stop stop-color="#172765"/>
<stop offset="0.18" stop-color="#2A3473"/>
<stop offset="0.55" stop-color="#5E5698"/>
<stop offset="1" stop-color="#A484CA"/>
</linearGradient>
<linearGradient id="paint6_linear_538_800" x1="15.2991" y1="40.3748" x2="55.6691" y2="40.3748" gradientUnits="userSpaceOnUse">
<stop stop-color="#172765"/>
<stop offset="0.18" stop-color="#2A3473"/>
<stop offset="0.55" stop-color="#5E5698"/>
<stop offset="1" stop-color="#A484CA"/>
</linearGradient>
</defs>
</svg>
