<svg width="282" height="80" viewBox="0 0 282 80" fill="none" xmlns="http://www.w3.org/2000/svg">
<path opacity="0.7" d="M281.489 40.0603L268.939 61.7703H67.0391V60.3403L68.9691 59.2403C69.6791 58.8203 70.1391 58.0403 70.1391 57.1903V21.6903C70.1391 20.8403 69.6691 20.0603 68.9691 19.6403L67.0391 18.5403V18.3403H268.949L281.499 40.0803L281.489 40.0603Z" fill="url(#paint0_linear_622_640)"/>
<path opacity="0.7" d="M68.2793 22.1602V57.6802C68.2793 58.5302 67.8193 59.3102 67.1093 59.7302L65.0693 60.9002L36.3393 77.4902C35.5993 77.9102 34.7093 77.9102 33.9793 77.4902L3.1993 59.7402C2.4793 59.3202 2.0293 58.5402 2.0293 57.6902V22.1602C2.0293 21.3102 2.4893 20.5302 3.1993 20.1102L33.9693 2.35016C34.7093 1.93016 35.5993 1.93016 36.3293 2.35016L62.4893 17.4602L67.0793 20.1102C67.7993 20.5302 68.2493 21.3102 68.2493 22.1602H68.2693H68.2793Z" stroke="url(#paint1_linear_622_640)" stroke-width="4.06" stroke-linecap="round" stroke-linejoin="round"/>
<g opacity="0.7">
<path d="M19.5379 55.6899C18.4579 55.6899 17.5879 56.5699 17.5879 57.6399C17.5879 58.7099 18.4679 59.5899 19.5379 59.5899C20.6079 59.5899 21.4879 58.7099 21.4879 57.6399C21.4879 56.5699 20.6079 55.6899 19.5379 55.6899ZM19.5379 58.2899C19.1779 58.2899 18.8879 57.9999 18.8879 57.6399C18.8879 57.2799 19.1779 56.9899 19.5379 56.9899C19.8979 56.9899 20.1879 57.2799 20.1879 57.6399C20.1879 57.9999 19.8979 58.2899 19.5379 58.2899Z" fill="url(#paint2_linear_622_640)"/>
<path d="M16.3184 54.4201L17.2484 55.3501C17.8584 54.7401 18.6784 54.4001 19.5484 54.4001C20.4184 54.4001 21.2284 54.7301 21.8484 55.3501L22.7784 54.4201C21.9184 53.5601 20.7684 53.0801 19.5584 53.0801C18.3484 53.0801 17.1984 53.5501 16.3384 54.4201H16.3184Z" fill="url(#paint3_linear_622_640)"/>
<path d="M14.4785 52.5798L15.4085 53.5098C17.6985 51.2198 21.4085 51.2198 23.6985 53.5098L24.6285 52.5798C21.8385 49.7898 17.2885 49.7898 14.4985 52.5798H14.4885H14.4785Z" fill="url(#paint4_linear_622_640)"/>
<path d="M52.0793 55.69H50.7793V53.09H49.4793V55.69H48.1793V54.39H46.8793V55.69H45.5793V51.79H44.2793V57H52.0893V55.7H52.1093L52.0793 55.69Z" fill="url(#paint5_linear_622_640)"/>
<path d="M52.7284 34.86H47.5184C46.4384 34.86 45.5684 35.74 45.5684 36.81V38.76H42.9384C42.7984 36.92 42.0684 35.24 40.9284 33.91L47.1484 27.69H52.0884C53.5284 27.69 54.6884 26.52 54.6884 25.09C54.6884 23.86 53.8384 22.84 52.6884 22.56C52.4084 20.68 50.7784 19.24 48.8284 19.24C46.8784 19.24 45.2484 20.69 44.9684 22.56C43.8284 22.84 42.9684 23.86 42.9684 25.09C42.9684 26.44 44.0084 27.54 45.3284 27.67L40.0084 32.99C38.6784 31.85 37.0084 31.12 35.1584 30.98V28.35H37.1084C38.1884 28.35 39.0584 27.47 39.0584 26.4V21.19C39.0584 20.11 38.1784 19.24 37.1084 19.24H31.8984C30.8184 19.24 29.9484 20.12 29.9484 21.19V26.4C29.9484 27.48 30.8284 28.35 31.8984 28.35H33.8484V30.98C32.0084 31.12 30.3284 31.85 28.9984 32.99L25.8684 29.86C26.7784 28.73 27.3384 27.31 27.3384 25.74C27.3384 22.15 24.4184 19.23 20.8284 19.23C17.2384 19.23 14.3184 22.15 14.3184 25.74C14.3184 29.33 17.2384 32.25 20.8284 32.25C22.3884 32.25 23.8184 31.69 24.9484 30.78L28.0784 33.91C26.9384 35.24 26.2084 36.91 26.0684 38.76H23.4384V36.81C23.4384 35.73 22.5584 34.86 21.4884 34.86H16.2784C15.1984 34.86 14.3284 35.74 14.3284 36.81V42.02C14.3284 43.1 15.2084 43.97 16.2784 43.97H21.4884C22.5684 43.97 23.4384 43.09 23.4384 42.02V40.07H26.0684C26.2084 41.91 26.9384 43.59 28.0784 44.92L23.6184 49.38L24.5484 50.31L29.0084 45.85C30.3384 46.99 32.0084 47.72 33.8584 47.86V50.49H31.9084C30.8284 50.49 29.9584 51.37 29.9584 52.44V57.65C29.9584 58.73 30.8384 59.6 31.9084 59.6H37.1184C38.1984 59.6 39.0684 58.72 39.0684 57.65V52.44C39.0684 51.36 38.1884 50.49 37.1184 50.49H35.1684V47.86C37.0084 47.72 38.6884 46.99 40.0184 45.85L43.3884 49.22C42.4284 49.34 41.6784 50.16 41.6784 51.15V57.66C41.6784 58.74 42.5584 59.61 43.6284 59.61H52.7384C53.8184 59.61 54.6884 58.73 54.6884 57.66V51.15C54.6884 50.07 53.8084 49.2 52.7384 49.2H45.1984L40.9384 44.94C42.0784 43.61 42.8084 41.94 42.9484 40.09H45.5784V42.04C45.5784 43.12 46.4584 43.99 47.5284 43.99H52.7384C53.8184 43.99 54.6884 43.11 54.6884 42.04V36.83C54.6884 35.75 53.8084 34.88 52.7384 34.88H52.7184L52.7284 34.86ZM37.7584 24.43H31.2484V23.13H37.7584V24.43ZM31.9084 20.53H37.1184C37.4784 20.53 37.7684 20.82 37.7684 21.18V21.83H31.2584V21.18C31.2584 20.82 31.5484 20.53 31.9084 20.53H31.9184H31.9084ZM31.2584 26.38V25.73H37.7684V26.38C37.7684 26.74 37.4784 27.03 37.1184 27.03H31.9084C31.5484 27.03 31.2584 26.74 31.2584 26.38H31.2484H31.2584ZM16.2884 36.14H21.4984C21.8584 36.14 22.1484 36.43 22.1484 36.79V37.44H15.6384V36.79C15.6384 36.43 15.9284 36.14 16.2884 36.14H16.2984H16.2884ZM22.1384 38.74V40.04H15.6284V38.74H22.1384ZM21.4884 42.64H16.2784C15.9184 42.64 15.6284 42.35 15.6284 41.99V41.34H22.1384V41.99C22.1384 42.35 21.8484 42.64 21.4884 42.64H21.4784H21.4884ZM31.2484 54.35H37.7584V55.65H31.2484V54.35ZM37.0984 58.25H31.8884C31.5284 58.25 31.2384 57.96 31.2384 57.6V56.95H37.7484V57.6C37.7484 57.96 37.4584 58.25 37.0984 58.25H37.0884H37.0984ZM37.7484 52.4V53.05H31.2384V52.4C31.2384 52.04 31.5284 51.75 31.8884 51.75H37.0984C37.4584 51.75 37.7484 52.04 37.7484 52.4H37.7584H37.7484ZM34.4884 46.55C33.7884 46.55 33.0384 45.56 32.5284 43.95H36.4384C35.9284 45.56 35.1784 46.55 34.4784 46.55H34.4884V46.55ZM32.1984 42.65C32.0384 41.86 31.9284 40.99 31.8984 40.05H37.0684C37.0384 40.99 36.9284 41.87 36.7684 42.65H32.1984ZM27.3584 40.05H30.5884C30.6184 40.98 30.7084 41.85 30.8584 42.65H28.1184C27.7084 41.86 27.4484 40.98 27.3584 40.05ZM34.4884 32.24C35.1884 32.24 35.9384 33.23 36.4484 34.84H32.5384C33.0484 33.23 33.7984 32.24 34.4984 32.24H34.4884V32.24ZM36.7784 36.14C36.9384 36.93 37.0484 37.8 37.0784 38.74H31.9084C31.9384 37.8 32.0484 36.92 32.2084 36.14H36.7784V36.14ZM30.5984 38.74H27.3684C27.4584 37.81 27.7184 36.93 28.1284 36.14H30.8684C30.7284 36.94 30.6384 37.82 30.5984 38.74V38.74ZM38.3784 40.04H41.6084C41.5184 40.97 41.2584 41.85 40.8484 42.64H38.1084C38.2484 41.84 38.3384 40.96 38.3784 40.04ZM38.3784 38.74C38.3484 37.81 38.2584 36.94 38.1084 36.14H40.8484C41.2584 36.93 41.5184 37.81 41.6084 38.74H38.3784ZM44.2584 25.07C44.2584 24.36 44.8384 23.77 45.5584 23.77H46.2084V23.12C46.2084 21.68 47.3784 20.52 48.8084 20.52C50.0584 20.52 51.0984 21.4 51.3484 22.57C50.2584 22.88 49.4484 23.89 49.4484 25.08H50.7484C50.7484 24.37 51.3284 23.78 52.0484 23.78C52.7684 23.78 53.3484 24.36 53.3484 25.08C53.3484 25.8 52.7684 26.38 52.0484 26.38H45.5384C44.8284 26.38 44.2384 25.8 44.2384 25.08H44.2484L44.2584 25.07ZM40.0084 34.82H37.8084C37.5784 33.97 37.2584 33.25 36.9084 32.65C38.1284 33.08 39.1984 33.84 40.0084 34.82ZM32.0684 32.65C31.7084 33.25 31.3984 33.98 31.1684 34.82H28.9684C29.7784 33.84 30.8484 33.08 32.0684 32.65ZM20.8184 20.51C23.6884 20.51 26.0284 22.84 26.0284 25.72C26.0284 26.68 25.7584 27.57 25.3184 28.34C24.7384 27.34 23.8384 26.57 22.7784 26.13C23.1784 25.67 23.4284 25.08 23.4284 24.42C23.4284 22.98 22.2584 21.82 20.8284 21.82C19.3984 21.82 18.2284 22.99 18.2284 24.42C18.2284 25.08 18.4884 25.67 18.8784 26.13C17.8184 26.56 16.9184 27.35 16.3384 28.34C15.8884 27.57 15.6284 26.68 15.6284 25.72C15.6284 22.85 17.9584 20.51 20.8384 20.51H20.8184ZM19.5184 24.41C19.5184 23.7 20.0984 23.11 20.8184 23.11C21.5384 23.11 22.1184 23.69 22.1184 24.41C22.1184 25.13 21.5384 25.71 20.8184 25.71C20.0984 25.71 19.5184 25.13 19.5184 24.41ZM17.2084 29.46C17.7984 28.01 19.2284 27.02 20.8084 27.02C22.3884 27.02 23.8184 28.01 24.4084 29.46C23.4684 30.36 22.1984 30.92 20.8084 30.92C19.4184 30.92 18.1384 30.36 17.2084 29.46ZM28.9584 43.94H31.1584C31.3884 44.79 31.7084 45.51 32.0584 46.11C30.8384 45.68 29.7684 44.92 28.9584 43.94ZM36.8984 46.11C37.2584 45.51 37.5684 44.78 37.7984 43.94H39.9984C39.1884 44.92 38.1184 45.68 36.8984 46.11ZM53.3584 51.09V57.6C53.3584 57.96 53.0684 58.25 52.7084 58.25H43.5984C43.2384 58.25 42.9484 57.96 42.9484 57.6V51.09C42.9484 50.73 43.2384 50.44 43.5984 50.44H52.7084C53.0684 50.44 53.3584 50.73 53.3584 51.09ZM47.5084 36.12H52.7184C53.0784 36.12 53.3684 36.41 53.3684 36.77V37.42H46.8584V36.77C46.8584 36.41 47.1484 36.12 47.5084 36.12H47.5184H47.5084ZM53.3584 38.72V40.02H46.8484V38.72H53.3584ZM52.7084 42.62H47.4984C47.1384 42.62 46.8484 42.33 46.8484 41.97V41.32H53.3584V41.97C53.3584 42.33 53.0684 42.62 52.7084 42.62H52.6984H52.7084Z" fill="url(#paint6_linear_622_640)"/>
</g>
<path d="M272.849 55.0101L268.819 61.9701H204.059L200.039 55.0101L204.059 48.0601H268.819L272.849 55.0101Z" fill="white"/>
<path d="M210.888 53.4902C210.888 54.9102 209.838 55.8002 208.168 55.8002H206.918L206.618 57.3402H205.318L206.438 51.7402H208.698C210.098 51.7402 210.888 52.3902 210.888 53.4802V53.4902ZM209.578 53.6002C209.578 53.0602 209.198 52.8002 208.538 52.8002H207.518L207.128 54.7402H208.228C209.088 54.7402 209.578 54.3402 209.578 53.6002Z" fill="black"/>
<path d="M214.548 52.9802L214.328 54.1302C214.218 54.1302 214.148 54.1102 214.038 54.1102C213.298 54.1102 212.828 54.4502 212.668 55.2602L212.248 57.3402H210.998L211.858 53.0402H213.038L212.938 53.5502C213.318 53.1302 213.848 52.9702 214.548 52.9702V52.9802Z" fill="black"/>
<path d="M214.469 55.4902C214.469 54.0602 215.559 52.9902 217.069 52.9902C218.389 52.9902 219.239 53.7502 219.239 54.9202C219.239 56.3502 218.159 57.4202 216.639 57.4202C215.329 57.4202 214.469 56.6502 214.469 55.4902ZM217.969 54.9702C217.969 54.3902 217.619 54.0202 216.989 54.0202C216.249 54.0202 215.729 54.6002 215.729 55.4402C215.729 56.0202 216.089 56.3902 216.709 56.3902C217.439 56.3902 217.969 55.8102 217.969 54.9702Z" fill="black"/>
<path d="M218.048 51.0601H219.428L217.858 52.2101H216.848L218.048 51.0601Z" fill="black"/>
<path d="M222.388 55.2003L223.588 57.3503H222.268L221.568 56.0303L220.328 57.3503H218.908L221.058 55.1403L219.918 53.0503H221.208L221.888 54.3103L223.088 53.0503H224.468L222.398 55.2003H222.388Z" fill="black"/>
<path d="M225.098 53.0501H226.338L225.478 57.3501H224.238L225.098 53.0501ZM225.198 51.8001C225.198 51.3801 225.528 51.0601 226.018 51.0601C226.458 51.0601 226.758 51.3301 226.758 51.6801C226.758 52.1401 226.418 52.4501 225.928 52.4501C225.488 52.4501 225.198 52.1601 225.198 51.8001Z" fill="black"/>
<path d="M234.429 54.4403C234.429 54.6103 234.409 54.7803 234.369 54.9703L233.899 57.3503H232.649L233.109 55.0603C233.129 54.9403 233.139 54.8403 233.139 54.7303C233.139 54.3003 232.909 54.0703 232.459 54.0703C231.879 54.0703 231.479 54.4103 231.329 55.1503L230.889 57.3603H229.639L230.099 55.0703C230.119 54.9503 230.129 54.8503 230.129 54.7503C230.129 54.3103 229.899 54.0803 229.449 54.0803C228.869 54.0803 228.469 54.4203 228.309 55.1803L227.879 57.3703H226.629L227.489 53.0703H228.669L228.569 53.5203C228.949 53.1803 229.419 53.0103 229.919 53.0103C230.509 53.0103 230.999 53.2503 231.239 53.7103C231.659 53.2503 232.219 53.0103 232.879 53.0103C233.799 53.0103 234.419 53.5103 234.419 54.4703L234.429 54.4403Z" fill="black"/>
<path d="M240.298 53.0502L239.438 57.3502H238.258L238.338 56.9302C237.998 57.2402 237.548 57.4202 237.018 57.4202C236.018 57.4202 235.168 56.7202 235.168 55.4902C235.168 54.0402 236.218 52.9902 237.538 52.9902C238.158 52.9902 238.658 53.1902 238.938 53.6402L239.048 53.0602H240.298V53.0502ZM238.668 54.9702C238.668 54.3902 238.308 54.0202 237.688 54.0202C236.948 54.0202 236.428 54.6002 236.428 55.4402C236.428 56.0202 236.788 56.3902 237.408 56.3902C238.148 56.3902 238.668 55.8102 238.668 54.9702Z" fill="black"/>
<path d="M248.388 54.4403C248.388 54.6103 248.368 54.7803 248.328 54.9703L247.858 57.3503H246.608L247.068 55.0603C247.088 54.9403 247.098 54.8403 247.098 54.7303C247.098 54.3003 246.868 54.0703 246.418 54.0703C245.838 54.0703 245.438 54.4103 245.288 55.1503L244.848 57.3603H243.598L244.058 55.0703C244.078 54.9503 244.088 54.8503 244.088 54.7503C244.088 54.3103 243.858 54.0803 243.408 54.0803C242.828 54.0803 242.428 54.4203 242.268 55.1803L241.838 57.3703H240.588L241.448 53.0703H242.628L242.528 53.5203C242.908 53.1803 243.378 53.0103 243.878 53.0103C244.468 53.0103 244.958 53.2503 245.198 53.7103C245.618 53.2503 246.178 53.0103 246.838 53.0103C247.758 53.0103 248.378 53.5103 248.378 54.4703L248.388 54.4403Z" fill="black"/>
<path d="M253.639 55.53H250.349C250.389 56.11 250.749 56.41 251.459 56.41C251.899 56.41 252.319 56.27 252.609 56.01L253.129 56.83C252.629 57.23 251.989 57.41 251.329 57.41C249.989 57.41 249.129 56.65 249.129 55.48C249.129 54.04 250.169 52.98 251.659 52.98C252.919 52.98 253.709 53.72 253.709 54.87C253.709 55.1 253.679 55.33 253.639 55.53V55.53ZM250.429 54.8H252.559C252.559 54.23 252.179 53.91 251.599 53.91C251.019 53.91 250.589 54.26 250.419 54.8H250.429Z" fill="black"/>
<path d="M258.989 54.4502C258.989 54.6102 258.969 54.7902 258.929 54.9702L258.449 57.3502H257.199L257.659 55.0502C257.679 54.9502 257.689 54.8402 257.689 54.7502C257.689 54.3102 257.449 54.0602 256.949 54.0602C256.319 54.0602 255.879 54.4102 255.729 55.1602L255.299 57.3402H254.049L254.909 53.0402H256.089L255.989 53.5002C256.379 53.1402 256.879 52.9702 257.409 52.9702C258.349 52.9702 258.979 53.4802 258.979 54.4302L258.989 54.4502Z" fill="black"/>
<path d="M261.289 55.8301C261.269 55.8901 261.269 55.9501 261.269 56.0101C261.269 56.2701 261.409 56.4301 261.729 56.4301C261.899 56.4301 262.069 56.3701 262.229 56.2801L262.409 57.1701C262.099 57.3601 261.709 57.4301 261.339 57.4301C260.539 57.4301 259.999 56.9801 259.999 56.2301C259.999 56.1101 260.019 55.9801 260.039 55.8501L260.379 54.1101H259.719L259.909 53.1501H260.569L260.779 52.1001H262.029L261.819 53.1501H262.889L262.699 54.1101H261.629L261.289 55.8401V55.8301Z" fill="black"/>
<path d="M267.528 55.53H264.238C264.278 56.11 264.638 56.41 265.348 56.41C265.788 56.41 266.208 56.27 266.498 56.01L267.018 56.83C266.518 57.23 265.878 57.41 265.218 57.41C263.878 57.41 263.018 56.65 263.018 55.48C263.018 54.04 264.058 52.98 265.548 52.98C266.798 52.98 267.598 53.72 267.598 54.87C267.598 55.1 267.568 55.33 267.528 55.53V55.53ZM264.318 54.8H266.448C266.448 54.23 266.068 53.91 265.488 53.91C264.908 53.91 264.478 54.26 264.308 54.8H264.318Z" fill="black"/>
<g opacity="0.7">
<path d="M88.6094 35.1602H90.5494V43.5602H88.6094V35.1602Z" fill="white"/>
<path d="M99.0102 39.86V43.55H97.1402V40.14C97.1402 39.1 96.6602 38.62 95.8302 38.62C94.9302 38.62 94.2802 39.17 94.2802 40.36V43.55H92.4102V37.1H94.2001V37.85C94.7001 37.3 95.4602 37 96.3302 37C97.8502 37 99.0002 37.89 99.0002 39.85L99.0102 39.86Z" fill="white"/>
<path d="M104.869 43.2499C104.489 43.5299 103.919 43.6599 103.349 43.6599C101.829 43.6599 100.939 42.8799 100.939 41.3499V38.6999H99.9395V37.2599H100.939V35.6899H102.809V37.2599H104.419V38.6999H102.809V41.3299C102.809 41.8799 103.109 42.1799 103.609 42.1799C103.889 42.1799 104.159 42.0999 104.369 41.9399L104.869 43.2599V43.2499Z" fill="white"/>
<path d="M109.93 37.0103V38.7403C109.77 38.7303 109.65 38.7203 109.51 38.7203C108.48 38.7203 107.8 39.2803 107.8 40.5203V43.5703H105.93V37.1203H107.72V37.9703C108.18 37.3503 108.94 37.0203 109.94 37.0203L109.93 37.0103Z" fill="white"/>
<path d="M110.51 40.3303C110.51 38.3903 112.01 37.0103 114.06 37.0103C116.11 37.0103 117.6 38.3903 117.6 40.3303C117.6 42.2703 116.11 43.6503 114.06 43.6503C112.01 43.6503 110.51 42.2703 110.51 40.3303ZM115.7 40.3303C115.7 39.2103 114.99 38.5403 114.06 38.5403C113.13 38.5403 112.4 39.2103 112.4 40.3303C112.4 41.4503 113.12 42.1203 114.06 42.1203C115 42.1203 115.7 41.4503 115.7 40.3303Z" fill="white"/>
<path d="M125.419 34.6602V43.5602H123.629V42.8202C123.159 43.3802 122.479 43.6602 121.619 43.6602C119.799 43.6602 118.389 42.3702 118.389 40.3402C118.389 38.3102 119.789 37.0202 121.619 37.0202C122.409 37.0202 123.079 37.2702 123.549 37.8002V34.6702H125.419V34.6602ZM123.589 40.3302C123.589 39.2102 122.869 38.5402 121.949 38.5402C121.029 38.5402 120.289 39.2102 120.289 40.3302C120.289 41.4502 121.009 42.1202 121.949 42.1202C122.889 42.1202 123.589 41.4502 123.589 40.3302Z" fill="white"/>
<path d="M133.659 37.1003V43.5503H131.879V42.7803C131.389 43.3403 130.669 43.6403 129.879 43.6403C128.259 43.6403 127.119 42.7303 127.119 40.7403V37.0903H128.989V40.4603C128.989 41.5403 129.469 42.0203 130.299 42.0203C131.129 42.0203 131.789 41.4703 131.789 40.2803V37.0903H133.659V37.1003Z" fill="white"/>
<path d="M134.92 40.3303C134.92 38.3903 136.42 37.0103 138.52 37.0103C139.88 37.0103 140.94 37.6003 141.41 38.6503L139.96 39.4303C139.61 38.8203 139.1 38.5403 138.51 38.5403C137.56 38.5403 136.82 39.2003 136.82 40.3303C136.82 41.4603 137.56 42.1203 138.51 42.1203C139.1 42.1203 139.61 41.8603 139.96 41.2303L141.41 42.0203C140.94 43.0503 139.87 43.6503 138.52 43.6503C136.42 43.6503 134.92 42.2703 134.92 40.3303Z" fill="white"/>
<path d="M141.93 40.3303C141.93 38.3903 143.43 37.0103 145.53 37.0103C146.89 37.0103 147.95 37.6003 148.42 38.6503L146.97 39.4303C146.62 38.8203 146.11 38.5403 145.52 38.5403C144.57 38.5403 143.83 39.2003 143.83 40.3303C143.83 41.4603 144.57 42.1203 145.52 42.1203C146.11 42.1203 146.62 41.8603 146.97 41.2303L148.42 42.0203C147.95 43.0503 146.88 43.6503 145.53 43.6503C143.43 43.6503 141.93 42.2703 141.93 40.3303Z" fill="white"/>
<path d="M149.27 35.1601C149.27 34.5701 149.74 34.1201 150.43 34.1201C151.12 34.1201 151.59 34.5501 151.59 35.1301C151.59 35.7501 151.12 36.2101 150.43 36.2101C149.74 36.2101 149.27 35.7501 149.27 35.1701V35.1601ZM149.5 37.1001H151.37V43.5501H149.5V37.1001Z" fill="white"/>
<path d="M152.629 40.3303C152.629 38.3903 154.129 37.0103 156.179 37.0103C158.229 37.0103 159.719 38.3903 159.719 40.3303C159.719 42.2703 158.229 43.6503 156.179 43.6503C154.129 43.6503 152.629 42.2703 152.629 40.3303ZM157.819 40.3303C157.819 39.2103 157.109 38.5403 156.179 38.5403C155.249 38.5403 154.519 39.2103 154.519 40.3303C154.519 41.4503 155.239 42.1203 156.179 42.1203C157.119 42.1203 157.819 41.4503 157.819 40.3303ZM156.679 34.5503H158.689L156.519 36.2803H155.059L156.679 34.5503Z" fill="white"/>
<path d="M167.569 39.86V43.55H165.699V40.14C165.699 39.1 165.219 38.62 164.389 38.62C163.489 38.62 162.839 39.17 162.839 40.36V43.55H160.969V37.1H162.759V37.85C163.259 37.3 164.019 37 164.889 37C166.409 37 167.559 37.89 167.559 39.85L167.569 39.86Z" fill="white"/>
<path d="M178.37 39.87V43.55H176.62V42.75C176.27 43.34 175.6 43.65 174.65 43.65C173.14 43.65 172.24 42.81 172.24 41.69C172.24 40.57 173.04 39.76 175.01 39.76H176.5C176.5 38.96 176.02 38.49 175.01 38.49C174.33 38.49 173.62 38.72 173.15 39.09L172.48 37.78C173.19 37.28 174.23 37 175.26 37C177.23 37 178.37 37.91 178.37 39.87V39.87ZM176.5 41.51V40.85H175.22C174.34 40.85 174.07 41.17 174.07 41.6C174.07 42.07 174.47 42.38 175.13 42.38C175.75 42.38 176.29 42.09 176.51 41.5L176.5 41.51Z" fill="white"/>
<path d="M182.93 42.7303L183.59 41.2703C184.3 41.7903 185.35 42.1503 186.36 42.1503C187.51 42.1503 187.98 41.7703 187.98 41.2503C187.98 39.6803 183.1 40.7603 183.1 37.6403C183.1 36.2103 184.25 35.0303 186.64 35.0303C187.7 35.0303 188.77 35.2803 189.55 35.7703L188.95 37.2503C188.17 36.8103 187.37 36.5903 186.62 36.5903C185.47 36.5903 185.03 37.0203 185.03 37.5503C185.03 39.1003 189.91 38.0303 189.91 41.1103C189.91 42.5103 188.75 43.7103 186.35 43.7103C185.02 43.7103 183.68 43.3103 182.93 42.7403V42.7303Z" fill="white"/>
<path d="M191.25 35.1602H195.06C197.81 35.1602 199.69 36.8202 199.69 39.3602C199.69 41.9002 197.81 43.5602 195.06 43.5602H191.25V35.1602V35.1602ZM194.97 41.9602C196.64 41.9602 197.73 40.9602 197.73 39.3602C197.73 37.7602 196.64 36.7602 194.97 36.7602H193.19V41.9702H194.97V41.9602Z" fill="white"/>
<path d="M200.84 39.4302H204.23V40.9302H200.84V39.4302Z" fill="white"/>
<path d="M218.219 35.1602L215.469 43.5602H213.379L211.529 37.8802L209.619 43.5602H207.539L204.779 35.1602H206.789L208.689 41.0602L210.669 35.1602H212.469L214.389 41.1102L216.349 35.1602H218.209H218.219Z" fill="white"/>
<path d="M224.56 41.7602H220.66L219.92 43.5602H217.93L221.67 35.1602H223.59L227.34 43.5602H225.3L224.56 41.7602V41.7602ZM223.95 40.2802L222.62 37.0702L221.29 40.2802H223.95V40.2802Z" fill="white"/>
<path d="M235.919 35.1602V43.5602H234.319L230.129 38.4602V43.5602H228.209V35.1602H229.819L233.989 40.2602V35.1602H235.909H235.919Z" fill="white"/>
</g>
<defs>
<linearGradient id="paint0_linear_622_640" x1="67.0391" y1="40.0503" x2="281.489" y2="40.0503" gradientUnits="userSpaceOnUse">
<stop stop-color="#172765"/>
<stop offset="0.18" stop-color="#2A3473"/>
<stop offset="0.55" stop-color="#5E5698"/>
<stop offset="1" stop-color="#A484CA"/>
</linearGradient>
<linearGradient id="paint1_linear_622_640" x1="-0.000703117" y1="39.9202" x2="70.3093" y2="39.9202" gradientUnits="userSpaceOnUse">
<stop stop-color="#172765"/>
<stop offset="0.18" stop-color="#2A3473"/>
<stop offset="0.55" stop-color="#5E5698"/>
<stop offset="1" stop-color="#A484CA"/>
</linearGradient>
<linearGradient id="paint2_linear_622_640" x1="17.5879" y1="57.6399" x2="21.4879" y2="57.6399" gradientUnits="userSpaceOnUse">
<stop stop-color="#172765"/>
<stop offset="0.18" stop-color="#2A3473"/>
<stop offset="0.55" stop-color="#5E5698"/>
<stop offset="1" stop-color="#A484CA"/>
</linearGradient>
<linearGradient id="paint3_linear_622_640" x1="16.3184" y1="54.2101" x2="22.7584" y2="54.2101" gradientUnits="userSpaceOnUse">
<stop stop-color="#172765"/>
<stop offset="0.18" stop-color="#2A3473"/>
<stop offset="0.55" stop-color="#5E5698"/>
<stop offset="1" stop-color="#A484CA"/>
</linearGradient>
<linearGradient id="paint4_linear_622_640" x1="14.4785" y1="51.9898" x2="24.6085" y2="51.9898" gradientUnits="userSpaceOnUse">
<stop stop-color="#172765"/>
<stop offset="0.18" stop-color="#2A3473"/>
<stop offset="0.55" stop-color="#5E5698"/>
<stop offset="1" stop-color="#A484CA"/>
</linearGradient>
<linearGradient id="paint5_linear_622_640" x1="44.2493" y1="54.39" x2="52.0793" y2="54.39" gradientUnits="userSpaceOnUse">
<stop stop-color="#172765"/>
<stop offset="0.18" stop-color="#2A3473"/>
<stop offset="0.55" stop-color="#5E5698"/>
<stop offset="1" stop-color="#A484CA"/>
</linearGradient>
<linearGradient id="paint6_linear_622_640" x1="14.3284" y1="39.41" x2="54.6984" y2="39.41" gradientUnits="userSpaceOnUse">
<stop stop-color="#172765"/>
<stop offset="0.18" stop-color="#2A3473"/>
<stop offset="0.55" stop-color="#5E5698"/>
<stop offset="1" stop-color="#A484CA"/>
</linearGradient>
</defs>
</svg>
