<svg width="80" height="80" viewBox="0 0 80 80" fill="none" xmlns="http://www.w3.org/2000/svg">
<path d="M76.2093 57.4901H3.77929C2.98365 57.4901 2.22059 57.1741 1.65798 56.6115C1.09537 56.0488 0.779297 55.2858 0.779297 54.4901V3.89014C0.779297 3.09449 1.09537 2.33143 1.65798 1.76882C2.22059 1.20621 2.98365 0.890137 3.77929 0.890137H76.2093C77.0049 0.890137 77.768 1.20621 78.3306 1.76882C78.8932 2.33143 79.2093 3.09449 79.2093 3.89014V54.5001C79.2066 55.2941 78.8894 56.0546 78.3271 56.615C77.7648 57.1754 77.0032 57.4901 76.2093 57.4901Z" fill="url(#paint0_linear_583_1210)"/>
<path d="M79.1991 12.9999H0.789062V3.8999C0.789062 3.10425 1.10513 2.34119 1.66774 1.77858C2.23035 1.21597 2.99341 0.899902 3.78906 0.899902H76.2191C77.0147 0.899902 77.7778 1.21597 78.3404 1.77858C78.903 2.34119 79.2191 3.10425 79.2191 3.8999L79.1991 12.9999Z" fill="url(#paint1_linear_583_1210)"/>
<path d="M7.06917 9.37027H5.49917C5.28427 9.37028 5.0715 9.32779 4.87308 9.24525C4.67467 9.16271 4.49453 9.04175 4.34304 8.88933C4.19155 8.73691 4.07169 8.55604 3.99037 8.35712C3.90904 8.1582 3.86785 7.94517 3.86917 7.73027V6.16027C3.86917 5.94622 3.91133 5.73426 3.99325 5.5365C4.07516 5.33874 4.19523 5.15905 4.34659 5.00769C4.49795 4.85633 4.67764 4.73627 4.8754 4.65435C5.07316 4.57244 5.28512 4.53027 5.49917 4.53027H7.06917C7.5024 4.53027 7.91803 4.70168 8.22531 5.00708C8.53258 5.31248 8.70653 5.72705 8.70917 6.16027V7.73027C8.70917 8.16523 8.53639 8.58237 8.22883 8.88993C7.92127 9.19749 7.50413 9.37027 7.06917 9.37027Z" fill="url(#paint2_linear_583_1210)"/>
<path d="M13.24 9.37027H11.67C11.4518 9.37564 11.2347 9.33711 11.0316 9.25697C10.8286 9.17683 10.6437 9.05671 10.4879 8.90375C10.3322 8.75079 10.2087 8.5681 10.1249 8.36652C10.0411 8.16494 9.99863 7.94858 10 7.73027V6.16027C10 5.94622 10.0422 5.73426 10.1241 5.5365C10.206 5.33874 10.3261 5.15905 10.4775 5.00769C10.6288 4.85633 10.8085 4.73627 11.0063 4.65435C11.204 4.57244 11.416 4.53027 11.63 4.53027H13.2C13.4141 4.53027 13.626 4.57244 13.8238 4.65435C14.0216 4.73627 14.2013 4.85633 14.3526 5.00769C14.504 5.15905 14.624 5.33874 14.706 5.5365C14.7879 5.73426 14.83 5.94622 14.83 6.16027V7.73027C14.8328 8.15746 14.6677 8.56866 14.3704 8.87537C14.073 9.18208 13.6671 9.3598 13.24 9.37027Z" fill="url(#paint3_linear_583_1210)"/>
<path d="M19.409 9.37027H17.839C17.6241 9.37028 17.4113 9.32779 17.2129 9.24525C17.0145 9.16271 16.8344 9.04175 16.6829 8.88933C16.5314 8.73691 16.4115 8.55604 16.3302 8.35712C16.2489 8.1582 16.2077 7.94517 16.209 7.73027V6.16027C16.209 5.94622 16.2512 5.73426 16.3331 5.5365C16.415 5.33874 16.5351 5.15905 16.6864 5.00769C16.8378 4.85633 17.0175 4.73627 17.2152 4.65435C17.413 4.57244 17.625 4.53027 17.839 4.53027H19.409C19.8343 4.54071 20.2387 4.71705 20.5358 5.02161C20.8329 5.32617 20.9991 5.73481 20.999 6.16027V7.73027C21.0018 8.15746 20.8367 8.56866 20.5393 8.87537C20.242 9.18208 19.8361 9.3598 19.409 9.37027Z" fill="url(#paint4_linear_583_1210)"/>
<path d="M0.789062 43.7202V54.5002C0.789063 55.2959 1.10513 56.0589 1.66774 56.6215C2.23035 57.1841 2.99341 57.5002 3.78906 57.5002H76.2191C77.0147 57.5002 77.7778 57.1841 78.3404 56.6215C78.903 56.0589 79.2191 55.2959 79.2191 54.5002V43.7202H0.789062Z" fill="url(#paint5_linear_583_1210)"/>
<path d="M26.3301 44.7803H10.3301C9.79965 44.7803 9.29094 44.5696 8.91586 44.1946C8.54079 43.8195 8.33008 43.3108 8.33008 42.7803V23.3604C8.33008 22.8299 8.54079 22.3212 8.91586 21.9461C9.29094 21.5711 9.79965 21.3604 10.3301 21.3604H26.3301C26.8605 21.3604 27.3692 21.5711 27.7443 21.9461C28.1194 22.3212 28.3301 22.8299 28.3301 23.3604V42.7604C28.3327 43.0247 28.2829 43.2869 28.1836 43.5319C28.0843 43.7768 27.9374 43.9997 27.7514 44.1875C27.5654 44.3753 27.3441 44.5245 27.1001 44.6262C26.8561 44.728 26.5944 44.7804 26.3301 44.7803Z" fill="#B5DBFF"/>
<path d="M44.8389 27.1803H33.8389C33.4517 27.1803 33.0803 27.0265 32.8065 26.7527C32.5327 26.4789 32.3789 26.1075 32.3789 25.7203V22.8003C32.3815 22.4139 32.5362 22.0441 32.8094 21.7709C33.0827 21.4976 33.4525 21.343 33.8389 21.3403H44.8389C45.2261 21.3403 45.5975 21.4942 45.8713 21.768C46.1451 22.0418 46.2989 22.4131 46.2989 22.8003V25.7203C46.2989 26.1075 46.1451 26.4789 45.8713 26.7527C45.5975 27.0265 45.2261 27.1803 44.8389 27.1803Z" fill="#B5DBFF"/>
<path d="M70.2698 27.1803H51.0499C50.6626 27.1803 50.2913 27.0265 50.0175 26.7527C49.7437 26.4789 49.5898 26.1075 49.5898 25.7203V22.8003C49.5898 22.4131 49.7437 22.0418 50.0175 21.768C50.2913 21.4942 50.6626 21.3403 51.0499 21.3403H70.2698C70.6571 21.3403 71.0284 21.4942 71.3022 21.768C71.576 22.0418 71.7299 22.4131 71.7299 22.8003V25.7203C71.7299 26.1075 71.576 26.4789 71.3022 26.7527C71.0284 27.0265 70.6571 27.1803 70.2698 27.1803Z" fill="#B5DBFF"/>
<path d="M59.259 36.0001H70.259C70.6462 36.0001 71.0175 35.8463 71.2913 35.5725C71.5651 35.2987 71.719 34.9274 71.719 34.5401V31.6001C71.719 31.2129 71.5651 30.8416 71.2913 30.5678C71.0175 30.294 70.6462 30.1401 70.259 30.1401H59.259C58.8717 30.1401 58.5004 30.294 58.2266 30.5678C57.9528 30.8416 57.799 31.2129 57.799 31.6001V34.5201C57.7963 34.7135 57.8321 34.9055 57.9043 35.085C57.9765 35.2644 58.0836 35.4278 58.2195 35.5655C58.3553 35.7032 58.5171 35.8125 58.6956 35.8871C58.874 35.9617 59.0655 36.0002 59.259 36.0001Z" fill="#B5DBFF"/>
<path d="M33.8293 36.0001H53.0493C53.4365 36.0001 53.8078 35.8463 54.0817 35.5725C54.3555 35.2987 54.5093 34.9274 54.5093 34.5401V31.6001C54.5093 31.2129 54.3555 30.8416 54.0817 30.5678C53.8078 30.294 53.4365 30.1401 53.0493 30.1401H33.8293C33.4429 30.1428 33.073 30.2974 32.7998 30.5707C32.5266 30.8439 32.3719 31.2137 32.3693 31.6001V34.5201C32.3666 34.7135 32.4024 34.9055 32.4746 35.085C32.5468 35.2644 32.6539 35.4278 32.7898 35.5655C32.9256 35.7032 33.0875 35.8125 33.2659 35.8871C33.4444 35.9617 33.6359 36.0002 33.8293 36.0001Z" fill="#B5DBFF"/>
<path d="M44.8389 44.7799H33.8389C33.4517 44.7799 33.0803 44.6261 32.8065 44.3523C32.5327 44.0785 32.3789 43.7072 32.3789 43.3199V40.3999C32.3789 40.0127 32.5327 39.6414 32.8065 39.3676C33.0803 39.0938 33.4517 38.9399 33.8389 38.9399H44.8389C45.2261 38.9399 45.5975 39.0938 45.8713 39.3676C46.1451 39.6414 46.2989 40.0127 46.2989 40.3999V43.3199C46.2989 43.7072 46.1451 44.0785 45.8713 44.3523C45.5975 44.6261 45.2261 44.7799 44.8389 44.7799Z" fill="#B5DBFF"/>
<path d="M70.2698 44.7799H51.0499C50.6626 44.7799 50.2913 44.6261 50.0175 44.3523C49.7437 44.0785 49.5898 43.7072 49.5898 43.3199V40.3999C49.5898 40.0127 49.7437 39.6414 50.0175 39.3676C50.2913 39.0938 50.6626 38.9399 51.0499 38.9399H70.2698C70.6571 38.9399 71.0284 39.0938 71.3022 39.3676C71.576 39.6414 71.7299 40.0127 71.7299 40.3999V43.3199C71.7299 43.7072 71.576 44.0785 71.3022 44.3523C71.0284 44.6261 70.6571 44.7799 70.2698 44.7799Z" fill="#B5DBFF"/>
<path d="M79.2001 54.5001V42.0001L65.6901 28.4901C65.3258 28.0585 64.8632 27.7206 64.3411 27.5048C63.8191 27.2891 63.2529 27.2017 62.6901 27.2501C56.0359 27.247 49.5852 24.9555 44.4201 20.7601C43.1857 19.7504 41.64 19.1987 40.0451 19.1987C38.4503 19.1987 36.9046 19.7504 35.6701 20.7601C30.5051 24.9555 24.0544 27.247 17.4001 27.2501C16.9382 27.2208 16.4752 27.2902 16.0421 27.4537C15.6091 27.6172 15.2158 27.8711 14.8884 28.1984C14.5611 28.5257 14.3072 28.919 14.1437 29.3521C13.9802 29.7852 13.9108 30.2481 13.9401 30.7101V40.7901C13.9375 46.5269 15.0869 52.2058 17.3201 57.4901H76.2601C77.0558 57.4901 77.8189 57.1741 78.3815 56.6115C78.9441 56.0488 79.2601 55.2858 79.2601 54.4901L79.2001 54.5001Z" fill="url(#paint6_linear_583_1210)"/>
<path d="M62.6401 26.9401C55.9859 26.9369 49.5351 24.6454 44.3701 20.4501C43.1356 19.4403 41.5899 18.8887 39.9951 18.8887C38.4003 18.8887 36.8545 19.4403 35.6201 20.4501C30.455 24.6454 24.0043 26.9369 17.3501 26.9401C16.3502 26.9401 15.3913 27.3373 14.6843 28.0443C13.9773 28.7513 13.5801 29.7102 13.5801 30.7101V40.7901C13.5802 47.1805 15.0047 53.4905 17.75 59.2612C20.4952 65.0319 24.4921 70.1182 29.4501 74.1501L32.5401 76.6701C34.6472 78.3827 37.2798 79.3175 39.9951 79.3175C42.7104 79.3175 45.3429 78.3827 47.4501 76.6701L50.5401 74.1501C55.498 70.1182 59.4949 65.0319 62.2402 59.2612C64.9854 53.4905 66.4099 47.1805 66.4101 40.7901V30.7001C66.4074 29.7019 66.0091 28.7456 65.3023 28.0407C64.5956 27.3359 63.6382 26.9401 62.6401 26.9401Z" fill="url(#paint7_linear_583_1210)"/>
<path d="M39.9989 76.0001C39.271 75.9971 38.5658 75.7467 37.9989 75.2901L32.0689 70.4701C27.7127 66.9258 24.2013 62.4552 21.7899 57.3834C19.3785 52.3115 18.1279 46.766 18.1289 41.1501V33.1501C18.1357 32.6779 18.3209 32.2256 18.6474 31.8843C18.9739 31.543 19.4174 31.3379 19.8889 31.3101C26.5131 30.9466 32.8523 28.4963 37.9989 24.3101C38.5633 23.8487 39.2699 23.5967 39.9989 23.5967C40.7279 23.5967 41.4345 23.8487 41.9989 24.3101C47.1455 28.4963 53.4848 30.9466 60.1089 31.3101C60.5804 31.3379 61.024 31.543 61.3504 31.8843C61.6769 32.2256 61.8621 32.6779 61.8689 33.1501V41.1501C61.8699 46.766 60.6193 52.3115 58.2079 57.3834C55.7965 62.4552 52.2851 66.9258 47.9289 70.4701L41.9989 75.2901C41.432 75.7467 40.7268 75.9971 39.9989 76.0001Z" fill="url(#paint8_linear_583_1210)"/>
<path d="M40 73.7902C39.334 73.7871 38.6888 73.5579 38.17 73.1402L32.74 68.7202C28.7559 65.4738 25.5453 61.3805 23.3416 56.7377C21.1378 52.0949 19.9963 47.0194 20 41.8802V34.5502C20.0045 34.118 20.1735 33.7037 20.4725 33.3916C20.7716 33.0795 21.1784 32.8931 21.61 32.8702C27.6725 32.543 33.476 30.3063 38.19 26.4802C38.7056 26.0603 39.3501 25.8311 40.015 25.8311C40.6799 25.8311 41.3245 26.0603 41.84 26.4802C46.5485 30.3023 52.3445 32.5388 58.4 32.8702C58.8299 32.8955 59.2341 33.083 59.5311 33.3948C59.8281 33.7067 59.9957 34.1196 60 34.5502V41.8802C60.0013 47.021 58.8567 52.0975 56.6494 56.7404C54.4421 61.3833 51.2277 65.4758 47.24 68.7202L41.81 73.1402C41.2943 73.5565 40.6527 73.7856 39.99 73.7902H40Z" fill="url(#paint9_linear_583_1210)"/>
<path d="M66.41 30.7001C66.4074 29.702 66.009 28.7457 65.3023 28.0408C64.5955 27.336 63.6381 26.9401 62.64 26.9401C55.9858 26.937 49.5351 24.6455 44.37 20.4501C43.1375 19.4405 41.5932 18.8892 40 18.8901V79.3201C42.7174 79.3206 45.3519 78.3847 47.46 76.6701L50.55 74.1501C55.5061 70.1173 59.5011 65.0306 62.2446 59.2599C64.9881 53.4893 66.411 47.1797 66.41 40.7901V30.7001Z" fill="url(#paint10_linear_583_1210)"/>
<path d="M59.71 36.48C59.4151 36.2109 59.0695 36.0033 58.6934 35.8694C58.3172 35.7356 57.9182 35.6782 57.5196 35.7005C57.121 35.7229 56.7308 35.8245 56.372 35.9996C56.0132 36.1747 55.6929 36.4196 55.43 36.72L40.66 51.49C40.4682 51.6675 40.2441 51.8067 40 51.9C39.8399 51.902 39.6855 51.8409 39.57 51.73L33.91 46.07C33.6419 45.7881 33.3193 45.5635 32.9617 45.4101C32.6041 45.2567 32.2191 45.1775 31.83 45.1775C31.4409 45.1775 31.0559 45.2567 30.6983 45.4101C30.3407 45.5635 30.0181 45.7881 29.75 46.07C29.4672 46.3172 29.2384 46.6201 29.0779 46.9597C28.9175 47.2993 28.8289 47.6684 28.8176 48.0439C28.8064 48.4193 28.8727 48.7931 29.0125 49.1417C29.1523 49.4903 29.3625 49.8064 29.63 50.07L52.22 72.67C60.6379 65.0706 65.7129 54.4534 66.34 43.13L59.71 36.48Z" fill="url(#paint11_linear_583_1210)"/>
<path d="M50.5397 74.15C57.6326 68.3811 62.6985 60.4985 64.9997 51.65L51.3497 38C49.8985 36.5483 48.1757 35.3965 46.2795 34.6106C44.3833 33.8247 42.3508 33.4199 40.2982 33.4194C38.2456 33.419 36.2129 33.8228 34.3164 34.6079C32.4198 35.393 30.6964 36.5439 29.2447 37.995C27.7929 39.4461 26.6412 41.169 25.8552 43.0652C25.0693 44.9614 24.6645 46.9939 24.6641 49.0465C24.6636 51.0991 25.0674 53.1318 25.8525 55.0283C26.6376 56.9249 27.7886 58.6483 29.2397 60.1L45.6597 76.52C45.902 76.7618 46.2254 76.9049 46.5673 76.9215C46.9092 76.9381 47.245 76.8271 47.5097 76.61L50.5397 74.15Z" fill="url(#paint12_linear_583_1210)"/>
<path d="M39.9994 64.3801C48.6371 64.3801 55.6394 57.3778 55.6394 48.7401C55.6394 40.1024 48.6371 33.1001 39.9994 33.1001C31.3616 33.1001 24.3594 40.1024 24.3594 48.7401C24.3594 57.3778 31.3616 64.3801 39.9994 64.3801Z" fill="url(#paint13_linear_583_1210)"/>
<path d="M52.619 39.52L40.619 51.52C40.4271 51.6975 40.2031 51.8367 39.959 51.93C39.7989 51.932 39.6445 51.8709 39.529 51.76L33.869 46.1C33.6009 45.818 33.2783 45.5935 32.9207 45.4401C32.5631 45.2866 32.1781 45.2075 31.789 45.2075C31.3999 45.2075 31.0149 45.2866 30.6573 45.4401C30.2997 45.5935 29.9771 45.818 29.709 46.1C29.4262 46.3472 29.1974 46.6501 29.0369 46.9897C28.8765 47.3293 28.7879 47.6984 28.7766 48.0739C28.7654 48.4493 28.8317 48.823 28.9715 49.1717C29.1113 49.5203 29.3215 49.8363 29.589 50.1L43.499 64C46.0227 63.4219 48.3633 62.2258 50.3105 60.5193C52.2577 58.8128 53.7504 56.6493 54.6546 54.2232C55.5588 51.7971 55.8462 49.1844 55.4909 46.6198C55.1356 44.0551 54.1487 41.6189 52.619 39.53V39.52Z" fill="url(#paint14_linear_583_1210)"/>
<path d="M39.9986 57.7201C39.12 57.7165 38.2509 57.5378 37.4422 57.1944C36.6335 56.851 35.9014 56.3498 35.2886 55.7201L29.6286 50.0601C29.3476 49.7791 29.1247 49.4455 28.9726 49.0783C28.8205 48.7111 28.7422 48.3176 28.7422 47.9201C28.7422 47.5227 28.8205 47.1292 28.9726 46.762C29.1247 46.3948 29.3476 46.0612 29.6286 45.7801C29.9096 45.4991 30.2433 45.2762 30.6104 45.1241C30.9776 44.972 31.3712 44.8937 31.7686 44.8937C32.166 44.8937 32.5596 44.972 32.9268 45.1241C33.2939 45.2762 33.6276 45.4991 33.9086 45.7801L39.5686 51.4401C39.6836 51.5484 39.8356 51.6087 39.9936 51.6087C40.1516 51.6087 40.3036 51.5484 40.4186 51.4401L55.4186 36.4401C55.9862 35.8726 56.7559 35.5537 57.5586 35.5537C58.3613 35.5537 59.131 35.8726 59.6986 36.4401C60.2662 37.0077 60.585 37.7775 60.585 38.5801C60.585 39.3828 60.2662 40.1526 59.6986 40.7201L44.6986 55.7201C44.0874 56.349 43.3569 56.8498 42.5499 57.1932C41.7429 57.5366 40.8756 57.7158 39.9986 57.7201Z" fill="url(#paint15_linear_583_1210)"/>
<defs>
<linearGradient id="paint0_linear_583_1210" x1="12.0293" y1="41.1101" x2="55.9593" y2="85.0301" gradientUnits="userSpaceOnUse">
<stop stop-color="#EDF5FF"/>
<stop offset="1" stop-color="#D5E8FE"/>
</linearGradient>
<linearGradient id="paint1_linear_583_1210" x1="32.4791" y1="33.0499" x2="33.6791" y2="51.3999" gradientUnits="userSpaceOnUse">
<stop stop-color="#B5DBFF"/>
<stop offset="1" stop-color="#48B2E3"/>
</linearGradient>
<linearGradient id="paint2_linear_583_1210" x1="-1.08083" y1="39.5303" x2="1.11917" y2="41.2103" gradientUnits="userSpaceOnUse">
<stop stop-color="#FF637B"/>
<stop offset="1" stop-color="#E63950"/>
</linearGradient>
<linearGradient id="paint3_linear_583_1210" x1="5.06003" y1="39.5303" x2="7.26003" y2="41.2103" gradientUnits="userSpaceOnUse">
<stop stop-color="#FFDA2D"/>
<stop offset="1" stop-color="#FDBF00"/>
</linearGradient>
<linearGradient id="paint4_linear_583_1210" x1="10.569" y1="38.7703" x2="15.789" y2="43.9903" gradientUnits="userSpaceOnUse">
<stop stop-color="#B9DD39"/>
<stop offset="1" stop-color="#0B799D"/>
</linearGradient>
<linearGradient id="paint5_linear_583_1210" x1="33.0291" y1="83.1102" x2="33.0291" y2="98.2702" gradientUnits="userSpaceOnUse">
<stop stop-color="#B5DBFF" stop-opacity="0"/>
<stop offset="0.24" stop-color="#93CEF6" stop-opacity="0.24"/>
<stop offset="0.58" stop-color="#6ABFEC" stop-opacity="0.58"/>
<stop offset="0.84" stop-color="#51B5E5" stop-opacity="0.84"/>
<stop offset="1" stop-color="#48B2E3"/>
</linearGradient>
<linearGradient id="paint6_linear_583_1210" x1="65.4901" y1="90.6301" x2="45.2701" y2="80.8601" gradientUnits="userSpaceOnUse">
<stop stop-color="#B5DBFF" stop-opacity="0"/>
<stop offset="0.17" stop-color="#8FC5E9" stop-opacity="0.17"/>
<stop offset="0.45" stop-color="#56A4C8" stop-opacity="0.45"/>
<stop offset="0.7" stop-color="#2D8DB1" stop-opacity="0.7"/>
<stop offset="0.89" stop-color="#147EA2" stop-opacity="0.88"/>
<stop offset="1" stop-color="#0B799D"/>
</linearGradient>
<linearGradient id="paint7_linear_583_1210" x1="10.9901" y1="54.6801" x2="56.3601" y2="100.05" gradientUnits="userSpaceOnUse">
<stop stop-color="#76E2F8"/>
<stop offset="1" stop-color="#48B2E3"/>
</linearGradient>
<linearGradient id="paint8_linear_583_1210" x1="62.6389" y1="107.05" x2="22.4889" y2="66.9001" gradientUnits="userSpaceOnUse">
<stop stop-color="#B5DBFF" stop-opacity="0"/>
<stop offset="0.24" stop-color="#93CEF6" stop-opacity="0.24"/>
<stop offset="0.58" stop-color="#6ABFEC" stop-opacity="0.58"/>
<stop offset="0.84" stop-color="#51B5E5" stop-opacity="0.84"/>
<stop offset="1" stop-color="#48B2E3"/>
</linearGradient>
<linearGradient id="paint9_linear_583_1210" x1="25.27" y1="70.1202" x2="42.9" y2="87.7502" gradientUnits="userSpaceOnUse">
<stop stop-color="#EDF5FF"/>
<stop offset="1" stop-color="#D5E8FE"/>
</linearGradient>
<linearGradient id="paint10_linear_583_1210" x1="38.5" y1="82.9401" x2="2.27" y2="65.5501" gradientUnits="userSpaceOnUse">
<stop stop-color="#B5DBFF" stop-opacity="0"/>
<stop offset="0.17" stop-color="#8FC5E9" stop-opacity="0.17"/>
<stop offset="0.45" stop-color="#56A4C8" stop-opacity="0.45"/>
<stop offset="0.7" stop-color="#2D8DB1" stop-opacity="0.7"/>
<stop offset="0.89" stop-color="#147EA2" stop-opacity="0.88"/>
<stop offset="1" stop-color="#0B799D"/>
</linearGradient>
<linearGradient id="paint11_linear_583_1210" x1="52.36" y1="89.98" x2="39.96" y2="80.56" gradientUnits="userSpaceOnUse">
<stop stop-color="#B5DBFF" stop-opacity="0"/>
<stop offset="0.17" stop-color="#8FC5E9" stop-opacity="0.17"/>
<stop offset="0.45" stop-color="#56A4C8" stop-opacity="0.45"/>
<stop offset="0.7" stop-color="#2D8DB1" stop-opacity="0.7"/>
<stop offset="0.89" stop-color="#147EA2" stop-opacity="0.88"/>
<stop offset="1" stop-color="#0B799D"/>
</linearGradient>
<linearGradient id="paint12_linear_583_1210" x1="50.2697" y1="98.81" x2="29.6097" y2="78.15" gradientUnits="userSpaceOnUse">
<stop stop-color="#B5DBFF" stop-opacity="0"/>
<stop offset="0.17" stop-color="#8FC5E9" stop-opacity="0.17"/>
<stop offset="0.45" stop-color="#56A4C8" stop-opacity="0.45"/>
<stop offset="0.7" stop-color="#2D8DB1" stop-opacity="0.7"/>
<stop offset="0.89" stop-color="#147EA2" stop-opacity="0.88"/>
<stop offset="1" stop-color="#0B799D"/>
</linearGradient>
<linearGradient id="paint13_linear_583_1210" x1="25.7794" y1="74.3301" x2="40.7994" y2="89.3401" gradientUnits="userSpaceOnUse">
<stop stop-color="#B9DD39"/>
<stop offset="1" stop-color="#90CC1C"/>
</linearGradient>
<linearGradient id="paint14_linear_583_1210" x1="47.189" y1="90.69" x2="41.609" y2="85.11" gradientUnits="userSpaceOnUse">
<stop stop-color="#66BB00" stop-opacity="0"/>
<stop offset="1" stop-color="#66BB00"/>
</linearGradient>
<linearGradient id="paint15_linear_583_1210" x1="31.6586" y1="70.1101" x2="47.2086" y2="85.6701" gradientUnits="userSpaceOnUse">
<stop stop-color="#0B799D"/>
<stop offset="1" stop-color="#07485E"/>
</linearGradient>
</defs>
</svg>
