<svg width="279" height="79" viewBox="0 0 279 79" fill="none" xmlns="http://www.w3.org/2000/svg">
<path opacity="0.7" d="M279.002 39.6402L266.47 61.1204H64.7324V59.7043L66.6565 58.6074C67.3718 58.1885 67.8251 57.4207 67.8251 56.573V21.4508C67.8251 20.6132 67.3617 19.8453 66.6565 19.4165L64.7324 18.3196V18.1201H266.46L278.992 39.6202L279.002 39.6402Z" fill="url(#paint0_linear_621_239)"/>
<path opacity="0.7" d="M69.2049 21.8996V57.0317C69.2049 57.8694 68.7515 58.6373 68.0161 59.0661L65.0947 60.7314L37.2911 76.6371C36.5557 77.056 35.6491 77.056 34.9036 76.6371L4.18871 59.0561C3.45332 58.6373 3 57.8694 3 57.0218V21.8996C3 21.0619 3.45332 20.2941 4.18871 19.8652L34.9137 2.31413C35.6491 1.89529 36.5557 1.89529 37.3012 2.31413L64.3191 17.7511L68.0262 19.8652C68.7616 20.2841 69.2149 21.0519 69.2149 21.8996H69.2049V21.8996Z" stroke="url(#paint1_linear_621_239)" stroke-width="4.06" stroke-linecap="round" stroke-linejoin="round"/>
<g opacity="0.7">
<path d="M50.0455 35.6611L48.1516 34.3348C47.9804 34.2151 47.7688 34.1652 47.5573 34.2051L46.6204 34.3746L46.3383 32.809L48.887 32.3702C49.3202 32.2904 49.6023 31.8916 49.5317 31.4628C49.4612 31.0339 49.0482 30.7547 48.615 30.8245L46.0664 31.2633L45.7843 29.6977L46.7212 29.5281C46.9327 29.4982 47.114 29.3786 47.2349 29.209L48.5747 27.3342C48.8165 26.9852 48.746 26.4966 48.3833 26.2373C48.0307 25.998 47.5371 26.0678 47.2752 26.4268L46.1268 28.0323L44.7366 28.2716L44.6661 27.8727C44.5351 27.0849 44.112 26.4268 43.5177 25.9681L43.2658 24.4922C43.1853 24.0634 42.7823 23.7841 42.3491 23.8539C41.916 23.9237 41.6339 24.3326 41.7044 24.7614L41.7951 25.2899C41.5231 25.27 41.2612 25.2899 40.9892 25.3199C40.7172 25.3498 40.4553 25.4495 40.2236 25.5492L40.1329 25.0207C40.0523 24.5919 39.6494 24.3127 39.2162 24.3825C38.783 24.4523 38.501 24.8611 38.5715 25.2899L38.8233 26.7658C38.4304 27.3941 38.2693 28.1619 38.4002 28.9497L38.4707 29.3486L37.0806 29.588L35.4587 28.4511C35.1061 28.2118 34.6125 28.2816 34.3506 28.6406C34.1088 28.9896 34.1793 29.4783 34.542 29.7376L36.4358 31.0639C36.6071 31.1835 36.8186 31.2334 37.0302 31.1935L37.967 31.024L38.2491 32.5896L35.7004 33.0284C35.2673 33.1082 34.9852 33.5071 35.0557 33.9359C35.1262 34.3647 35.5393 34.6439 35.9724 34.5741L38.5211 34.1353L38.8032 35.7009L37.8663 35.8705C37.6548 35.9004 37.4734 36.0201 37.3525 36.1896L36.0127 38.0644C35.771 38.4134 35.8415 38.902 36.2041 39.1613C36.3855 39.281 36.597 39.3308 36.7985 39.291C37 39.2511 37.1914 39.1513 37.3122 38.9718L38.4607 37.3663L39.1557 37.2466C39.8206 38.9519 41.644 40.0189 43.5378 39.6799C45.4317 39.3408 46.7715 37.7453 46.8219 35.9203L47.517 35.8007L49.1389 36.9375C49.3202 37.0572 49.5317 37.107 49.7332 37.0671C49.9347 37.0273 50.1261 36.9275 50.247 36.748C50.4887 36.399 50.4182 35.9104 50.0556 35.6511L50.0455 35.6611ZM41.2813 26.9154C42.1477 26.7658 42.9737 27.3442 43.1349 28.1919L43.2054 28.5908L40.0624 29.1292L39.9919 28.7304C39.8408 27.8727 40.425 27.055 41.2813 26.8955V26.9154ZM45.2101 35.4417C45.3914 36.4588 44.8877 37.4361 44.0214 37.9148L43.0845 32.6096C43.0039 32.1808 42.601 31.9015 42.1678 31.9713C41.7346 32.0411 41.4526 32.45 41.5231 32.8788L42.4599 38.184C41.4929 38.0344 40.6769 37.2666 40.4956 36.2494L39.5386 30.8245L44.243 30.0068L45.2 35.4317H45.2101V35.4417Z" fill="url(#paint2_linear_621_239)"/>
<path d="M39.5572 17.1628C31.337 18.5888 25.8166 26.3572 27.2572 34.5045C27.8213 37.7056 29.3727 40.4978 31.5587 42.6119L30.4002 44.2374L30.3599 44.2075C30.1886 44.0878 29.9771 44.0379 29.7655 44.0778C29.554 44.1177 29.3727 44.2274 29.2518 44.3969L21.5957 55.1869C21.0819 55.9049 20.8905 56.7725 21.0517 57.65C21.2129 58.5276 21.6864 59.2755 22.4117 59.7741C23.137 60.2727 24.0134 60.4722 24.8999 60.3126C25.7864 60.153 26.5419 59.6844 27.0456 58.9664L34.7017 48.1764C34.9435 47.8274 34.8729 47.3387 34.5103 47.0795L34.47 47.0495L35.6285 45.4241C38.3786 46.7404 41.5519 47.249 44.7855 46.6806C53.0057 45.2545 58.5262 37.4862 57.0856 29.3389C55.6451 21.2015 47.7976 15.7367 39.5673 17.1628H39.5572V17.1628ZM25.7562 58.0589C25.4842 58.4378 25.0913 58.6871 24.6279 58.7669C24.1645 58.8467 23.7011 58.747 23.3284 58.4777C22.9456 58.2085 22.6937 57.8195 22.6132 57.3608C22.5326 56.9021 22.6333 56.4434 22.9053 56.0744L30.108 45.9227L30.1483 45.9526L32.9086 47.8673L32.9488 47.8972L25.7461 58.0489L25.7562 58.0589ZM33.1805 46.162H33.1604L31.7098 45.1349L32.7675 43.649C33.2309 44.018 33.7245 44.357 34.2383 44.6761L33.1805 46.162V46.162ZM44.5135 45.1548C37.1496 46.4313 30.108 41.5349 28.8287 34.2452C27.5493 26.9555 32.4855 19.9849 39.8494 18.7184C47.2133 17.442 54.2549 22.3384 55.5343 29.6281C56.8237 36.9178 51.8775 43.8883 44.5135 45.1548Z" fill="url(#paint3_linear_621_239)"/>
<path d="M52.75 26.3669C52.5485 25.978 52.0751 25.8384 51.6822 26.0478C51.2893 26.2472 51.1483 26.7159 51.3598 27.1049C52.3068 28.8699 52.7097 30.8544 52.5284 32.8389C52.4982 33.2677 52.8105 33.6466 53.2436 33.6865H53.4552C53.7977 33.6267 54.0697 33.3475 54.0999 32.9885C54.3014 30.6949 53.848 28.4112 52.75 26.3769V26.3569V26.3669Z" fill="url(#paint4_linear_621_239)"/>
<path d="M51.3634 24.3326L51.3433 24.3127C51.0612 23.9836 50.5676 23.9337 50.2251 24.2129C49.8826 24.4922 49.8423 24.9808 50.1243 25.3199V25.3398C50.3258 25.5592 50.6179 25.6589 50.8799 25.619C51.0108 25.5991 51.1317 25.5392 51.2526 25.4495C51.585 25.1703 51.6354 24.6816 51.3533 24.3426H51.3634V24.3326Z" fill="url(#paint5_linear_621_239)"/>
</g>
<path d="M270.492 54.2896L266.432 61.2303H201.194L197.145 54.2896L201.194 47.3589H266.432L270.492 54.2896Z" fill="white"/>
<path d="M208.078 52.7739C208.078 54.19 207.02 55.0775 205.338 55.0775H204.079L203.776 56.6133H202.467L203.595 51.0288H205.872C207.282 51.0288 208.078 51.677 208.078 52.764V52.7739ZM206.758 52.8836C206.758 52.3451 206.375 52.0859 205.711 52.0859H204.683L204.29 54.0205H205.398C206.265 54.0205 206.758 53.6216 206.758 52.8836Z" fill="black"/>
<path d="M211.766 52.2653L211.544 53.4121C211.433 53.4121 211.363 53.3922 211.252 53.3922C210.506 53.3922 210.033 53.7313 209.872 54.539L209.449 56.6132H208.189L209.056 52.3252H210.244L210.144 52.8338C210.527 52.4149 211.06 52.2554 211.766 52.2554V52.2653Z" fill="black"/>
<path d="M211.684 54.7582C211.684 53.3322 212.782 52.2651 214.303 52.2651C215.633 52.2651 216.489 53.023 216.489 54.1898C216.489 55.6158 215.401 56.6828 213.87 56.6828C212.55 56.6828 211.684 55.915 211.684 54.7582ZM215.209 54.2396C215.209 53.6612 214.857 53.2923 214.222 53.2923C213.477 53.2923 212.953 53.8707 212.953 54.7083C212.953 55.2867 213.316 55.6557 213.94 55.6557C214.676 55.6557 215.209 55.0773 215.209 54.2396Z" fill="black"/>
<path d="M215.121 50.4702H216.511L214.93 51.617H213.912L215.121 50.4702Z" fill="black"/>
<path d="M219.66 54.479L220.869 56.623H219.539L218.834 55.3067L217.585 56.623H216.154L218.32 54.4192L217.172 52.335H218.471L219.156 53.5915L220.365 52.335H221.755L219.67 54.479H219.66Z" fill="black"/>
<path d="M222.392 52.3351H223.641L222.775 56.6231H221.525L222.392 52.3351ZM222.492 51.0885C222.492 50.6697 222.825 50.3506 223.319 50.3506C223.762 50.3506 224.064 50.6198 224.064 50.9689C224.064 51.4276 223.721 51.7367 223.228 51.7367C222.785 51.7367 222.492 51.4475 222.492 51.0885Z" fill="black"/>
<path d="M231.795 53.7214C231.795 53.891 231.775 54.0605 231.735 54.25L231.261 56.6234H230.002L230.465 54.3397C230.485 54.22 230.496 54.1203 230.496 54.0106C230.496 53.5818 230.264 53.3525 229.811 53.3525C229.226 53.3525 228.823 53.6915 228.672 54.4295L228.229 56.6333H226.97L227.433 54.3497C227.453 54.23 227.463 54.1303 227.463 54.0306C227.463 53.5918 227.232 53.3624 226.778 53.3624C226.194 53.3624 225.791 53.7015 225.63 54.4594L225.197 56.6433H223.938L224.804 52.3552H225.993L225.892 52.804C226.275 52.4649 226.748 52.2954 227.252 52.2954C227.846 52.2954 228.34 52.5347 228.582 52.9935C229.005 52.5347 229.569 52.2954 230.234 52.2954C231.16 52.2954 231.785 52.794 231.785 53.7514L231.795 53.7214Z" fill="black"/>
<path d="M237.705 52.3352L236.839 56.6233H235.65L235.73 56.2044C235.388 56.5136 234.935 56.6931 234.401 56.6931C233.393 56.6931 232.537 55.995 232.537 54.7684C232.537 53.3225 233.595 52.2754 234.925 52.2754C235.549 52.2754 236.053 52.4748 236.335 52.9236L236.446 52.3452H237.705V52.3352ZM236.063 54.2499C236.063 53.6715 235.7 53.3025 235.076 53.3025C234.33 53.3025 233.806 53.8809 233.806 54.7186C233.806 55.297 234.169 55.6659 234.794 55.6659C235.539 55.6659 236.063 55.0876 236.063 54.2499Z" fill="black"/>
<path d="M245.854 53.7214C245.854 53.891 245.833 54.0605 245.793 54.25L245.32 56.6234H244.061L244.524 54.3397C244.544 54.22 244.554 54.1203 244.554 54.0106C244.554 53.5818 244.322 53.3525 243.869 53.3525C243.285 53.3525 242.882 53.6915 242.731 54.4295L242.288 56.6333H241.028L241.492 54.3497C241.512 54.23 241.522 54.1303 241.522 54.0306C241.522 53.5918 241.29 53.3624 240.837 53.3624C240.253 53.3624 239.85 53.7015 239.688 54.4594L239.255 56.6433H237.996L238.862 52.3552H240.051L239.95 52.804C240.333 52.4649 240.807 52.2954 241.31 52.2954C241.905 52.2954 242.398 52.5347 242.64 52.9935C243.063 52.5347 243.627 52.2954 244.292 52.2954C245.219 52.2954 245.844 52.794 245.844 53.7514L245.854 53.7214Z" fill="black"/>
<path d="M251.145 54.8081H247.831C247.871 55.3864 248.234 55.6856 248.949 55.6856C249.392 55.6856 249.815 55.546 250.107 55.2867L250.631 56.1044C250.127 56.5033 249.483 56.6828 248.818 56.6828C247.468 56.6828 246.602 55.9249 246.602 54.7582C246.602 53.3222 247.649 52.2651 249.15 52.2651C250.42 52.2651 251.215 53.0031 251.215 54.1499C251.215 54.3793 251.185 54.6086 251.145 54.8081V54.8081ZM247.911 54.0801H250.057C250.057 53.5117 249.674 53.1926 249.09 53.1926C248.506 53.1926 248.072 53.5416 247.901 54.0801H247.911Z" fill="black"/>
<path d="M256.533 53.7313C256.533 53.8908 256.513 54.0703 256.473 54.2498L255.989 56.6232H254.73L255.193 54.3296C255.213 54.2299 255.223 54.1202 255.223 54.0304C255.223 53.5916 254.982 53.3423 254.478 53.3423C253.843 53.3423 253.4 53.6914 253.249 54.4393L252.816 56.6132H251.557L252.423 52.3252H253.612L253.511 52.7839C253.904 52.4249 254.408 52.2554 254.941 52.2554C255.888 52.2554 256.523 52.764 256.523 53.7113L256.533 53.7313Z" fill="black"/>
<path d="M258.851 55.1073C258.831 55.1672 258.831 55.227 258.831 55.2868C258.831 55.5461 258.972 55.7057 259.294 55.7057C259.466 55.7057 259.637 55.6458 259.798 55.5561L259.979 56.4436C259.667 56.6331 259.274 56.7029 258.901 56.7029C258.096 56.7029 257.552 56.2541 257.552 55.5062C257.552 55.3866 257.572 55.2569 257.592 55.1273L257.934 53.3921H257.27L257.461 52.4348H258.126L258.337 51.3877H259.597L259.385 52.4348H260.463L260.272 53.3921H259.194L258.851 55.1173V55.1073Z" fill="black"/>
<path d="M265.149 54.8081H261.834C261.875 55.3864 262.237 55.6856 262.953 55.6856C263.396 55.6856 263.819 55.546 264.111 55.2867L264.635 56.1044C264.131 56.5033 263.487 56.6828 262.822 56.6828C261.472 56.6828 260.605 55.9249 260.605 54.7582C260.605 53.3222 261.653 52.2651 263.154 52.2651C264.413 52.2651 265.219 53.0031 265.219 54.1499C265.219 54.3793 265.189 54.6086 265.149 54.8081V54.8081ZM261.915 54.0801H264.061C264.061 53.5117 263.678 53.1926 263.094 53.1926C262.509 53.1926 262.076 53.5416 261.905 54.0801H261.915Z" fill="black"/>
<g opacity="0.7">
<path d="M90.1066 41.3253H86.1779L85.4324 43.1203H83.4277L87.1953 34.7437H89.1295L92.9072 43.1203H90.8521L90.1066 41.3253ZM89.4921 39.8494L88.1523 36.6483L86.8125 39.8494H89.4921Z" fill="white"/>
<path d="M100.311 39.4404V43.1202H98.427V39.7197C98.427 38.6825 97.9435 38.2039 97.1073 38.2039C96.2007 38.2039 95.5459 38.7524 95.5459 39.939V43.1202H93.6621V36.6881H95.4653V37.436C95.969 36.8875 96.7346 36.5884 97.611 36.5884C99.1422 36.5884 100.301 37.4759 100.301 39.4305L100.311 39.4404Z" fill="white"/>
<path d="M107.765 39.4504V43.1202H106.002V42.3224C105.65 42.9108 104.975 43.2199 104.018 43.2199C102.496 43.2199 101.59 42.3822 101.59 41.2654C101.59 40.1485 102.396 39.3407 104.38 39.3407H105.881C105.881 38.5429 105.398 38.0742 104.38 38.0742C103.695 38.0742 102.98 38.3036 102.507 38.6726L101.832 37.3662C102.547 36.8676 103.595 36.5884 104.632 36.5884C106.617 36.5884 107.765 37.4959 107.765 39.4504V39.4504ZM105.881 41.0859V40.4277H104.592C103.705 40.4277 103.433 40.7468 103.433 41.1756C103.433 41.6443 103.836 41.9534 104.501 41.9534C105.126 41.9534 105.67 41.6642 105.891 41.0759L105.881 41.0859Z" fill="white"/>
<path d="M109.469 34.2451H111.353V43.1204H109.469V34.2451Z" fill="white"/>
<path d="M112.883 34.7437C112.883 34.1553 113.356 33.7065 114.051 33.7065C114.746 33.7065 115.22 34.1353 115.22 34.7137C115.22 35.332 114.746 35.7907 114.051 35.7907C113.356 35.7907 112.883 35.332 112.883 34.7536V34.7437ZM113.115 36.6783H114.998V43.1104H113.115V36.6783Z" fill="white"/>
<path d="M116.129 42.5219L116.753 41.1856C117.338 41.5545 118.214 41.8039 119.01 41.8039C119.876 41.8039 120.209 41.5745 120.209 41.2155C120.209 40.1684 116.28 41.2354 116.28 38.6726C116.28 37.456 117.388 36.5884 119.292 36.5884C120.189 36.5884 121.176 36.7878 121.79 37.1468L121.166 38.4731C120.521 38.1141 119.886 37.9945 119.292 37.9945C118.446 37.9945 118.083 38.2537 118.083 38.5928C118.083 39.6897 122.012 38.6327 122.012 41.1656C122.012 42.3623 120.884 43.2099 118.939 43.2099C117.841 43.2099 116.733 42.9108 116.129 42.5119V42.5219Z" fill="white"/>
<path d="M127.361 42.811C126.978 43.0902 126.404 43.2198 125.83 43.2198C124.298 43.2198 123.402 42.442 123.402 40.9163V38.2736H122.395V36.8376H123.402V35.272H125.286V36.8376H126.908V38.2736H125.286V40.8963C125.286 41.4448 125.588 41.7439 126.092 41.7439C126.374 41.7439 126.646 41.6642 126.857 41.5046L127.361 42.8209V42.811Z" fill="white"/>
<path d="M134.179 39.4504V43.1202H132.416V42.3224C132.064 42.9108 131.389 43.2199 130.432 43.2199C128.911 43.2199 128.004 42.3822 128.004 41.2654C128.004 40.1485 128.81 39.3407 130.794 39.3407H132.295C132.295 38.5429 131.812 38.0742 130.794 38.0742C130.109 38.0742 129.394 38.3036 128.921 38.6726L128.246 37.3662C128.961 36.8676 130.009 36.5884 131.046 36.5884C133.031 36.5884 134.179 37.4959 134.179 39.4504V39.4504ZM132.295 41.0859V40.4277H131.006C130.119 40.4277 129.847 40.7468 129.847 41.1756C129.847 41.6443 130.25 41.9534 130.915 41.9534C131.54 41.9534 132.084 41.6642 132.305 41.0759L132.295 41.0859Z" fill="white"/>
<path d="M138.773 42.2929L139.438 40.8369C140.154 41.3555 141.211 41.7145 142.229 41.7145C143.387 41.7145 143.861 41.3355 143.861 40.817C143.861 39.2513 138.945 40.3283 138.945 37.217C138.945 35.791 140.103 34.6143 142.511 34.6143C143.579 34.6143 144.657 34.8636 145.442 35.3522L144.838 36.8281C144.052 36.3893 143.246 36.1699 142.491 36.1699C141.332 36.1699 140.889 36.5987 140.889 37.1273C140.889 38.673 145.805 37.6059 145.805 40.6774C145.805 42.0735 144.636 43.2701 142.219 43.2701C140.879 43.2701 139.529 42.8713 138.773 42.3028V42.2929Z" fill="white"/>
<path d="M146.623 38.932C146.623 36.4389 148.577 34.604 151.247 34.604C153.916 34.604 155.871 36.4289 155.871 38.932C155.871 41.435 153.906 43.2599 151.247 43.2599C148.587 43.2599 146.623 41.415 146.623 38.932V38.932ZM153.896 38.932C153.896 37.3364 152.758 36.2494 151.247 36.2494C149.736 36.2494 148.597 37.3364 148.597 38.932C148.597 40.5275 149.736 41.6145 151.247 41.6145C152.758 41.6145 153.896 40.5275 153.896 38.932Z" fill="white"/>
<path d="M156.821 38.932C156.821 36.409 158.775 34.604 161.414 34.604C162.875 34.604 164.094 35.1325 164.89 36.0899L163.63 37.2367C163.066 36.5885 162.351 36.2594 161.505 36.2594C159.923 36.2594 158.795 37.3563 158.795 38.9419C158.795 40.5275 159.923 41.6245 161.505 41.6245C162.351 41.6245 163.066 41.2854 163.63 40.6272L164.89 41.774C164.094 42.7413 162.875 43.2699 161.394 43.2699C158.775 43.2699 156.811 41.4649 156.811 38.9419L156.821 38.932Z" fill="white"/>
<path d="M177.395 34.7437V43.1203H175.794L171.573 38.0345V43.1203H169.639V34.7437H171.261L175.461 39.8295V34.7437H177.395Z" fill="white"/>
<path d="M179.037 34.7437C179.037 34.1553 179.511 33.7065 180.206 33.7065C180.901 33.7065 181.374 34.1353 181.374 34.7137C181.374 35.332 180.901 35.7907 180.206 35.7907C179.511 35.7907 179.037 35.332 179.037 34.7536V34.7437ZM179.269 36.6783H181.153V43.1104H179.269V36.6783Z" fill="white"/>
<path d="M189.362 36.6885L186.621 43.1206H184.677L181.947 36.6885H183.892L185.695 41.0663L187.558 36.6885H189.372H189.362Z" fill="white"/>
<path d="M196.282 40.4277H191.366C191.548 41.2255 192.233 41.7141 193.23 41.7141C193.915 41.7141 194.419 41.5147 194.862 41.0958L195.869 42.1728C195.265 42.8509 194.358 43.2099 193.19 43.2099C190.943 43.2099 189.482 41.8138 189.482 39.8992C189.482 37.9845 190.973 36.5884 192.948 36.5884C194.922 36.5884 196.333 37.8549 196.333 39.9291C196.333 40.0687 196.312 40.2781 196.292 40.4277H196.282ZM191.336 39.3407H194.539C194.409 38.523 193.794 38.0044 192.948 38.0044C192.102 38.0044 191.477 38.523 191.346 39.3407H191.336Z" fill="white"/>
<path d="M197.582 34.2451H199.466V43.1204H197.582V34.2451Z" fill="white"/>
<path d="M207.506 34.7437V43.1203H205.552V36.2993H203.859V34.7437H207.506V34.7437Z" fill="white"/>
<path d="M211.265 42.0433C211.265 42.3524 211.214 42.5818 210.942 43.24L210.257 44.9652H209.058L209.592 43.0605C209.189 42.9009 208.938 42.5319 208.938 42.0433C208.938 41.3452 209.441 40.8965 210.106 40.8965C210.771 40.8965 211.265 41.3652 211.265 42.0433Z" fill="white"/>
<path d="M221.609 41.5447V43.1203H215.223V41.8638L218.487 38.8123C219.232 38.1043 219.373 37.6755 219.373 37.2666C219.373 36.6084 218.91 36.2295 218.023 36.2295C217.298 36.2295 216.683 36.5087 216.27 37.0671L214.84 36.1597C215.495 35.2123 216.673 34.604 218.194 34.604C220.078 34.604 221.337 35.5613 221.337 37.0771C221.337 37.8948 221.106 38.6328 219.927 39.7198L217.983 41.5347H221.619L221.609 41.5447Z" fill="white"/>
<path d="M232.702 36.6885L229.771 43.5195C229.146 45.0751 228.249 45.5438 227.081 45.5438C226.416 45.5438 225.691 45.3244 225.268 44.9555L225.953 43.6291C226.245 43.8785 226.638 44.038 227.02 44.038C227.544 44.038 227.826 43.8086 228.088 43.2402L228.108 43.1804L225.298 36.6985H227.242L229.065 41.0663L230.899 36.6985H232.712L232.702 36.6885Z" fill="white"/>
<path d="M242.745 40.5575C242.745 41.9735 241.647 43.2599 239.239 43.2599C238.051 43.2599 236.832 42.9408 236.016 42.3624L236.771 40.8766C237.416 41.3552 238.302 41.6345 239.189 41.6345C240.166 41.6345 240.77 41.2356 240.77 40.5575C240.77 39.9192 240.297 39.5303 239.189 39.5303H238.292V38.2539L240.035 36.2993H236.439V34.7437H242.362V36.0002L240.458 38.1542C241.979 38.3935 242.755 39.3309 242.755 40.5575H242.745Z" fill="white"/>
</g>
<defs>
<linearGradient id="paint0_linear_621_239" x1="64.7324" y1="39.6302" x2="279.002" y2="39.6302" gradientUnits="userSpaceOnUse">
<stop stop-color="#172765"/>
<stop offset="0.18" stop-color="#2A3473"/>
<stop offset="0.55" stop-color="#5E5698"/>
<stop offset="1" stop-color="#A484CA"/>
</linearGradient>
<linearGradient id="paint1_linear_621_239" x1="0.955023" y1="39.4706" x2="71.2599" y2="39.4706" gradientUnits="userSpaceOnUse">
<stop stop-color="#172765"/>
<stop offset="0.18" stop-color="#2A3473"/>
<stop offset="0.55" stop-color="#5E5698"/>
<stop offset="1" stop-color="#A484CA"/>
</linearGradient>
<linearGradient id="paint2_linear_621_239" x1="34.2196" y1="31.7918" x2="50.3779" y2="31.7918" gradientUnits="userSpaceOnUse">
<stop stop-color="#172765"/>
<stop offset="0.18" stop-color="#2A3473"/>
<stop offset="0.55" stop-color="#5E5698"/>
<stop offset="1" stop-color="#A484CA"/>
</linearGradient>
<linearGradient id="paint3_linear_621_239" x1="21.0014" y1="38.6529" x2="57.3072" y2="38.6529" gradientUnits="userSpaceOnUse">
<stop stop-color="#172765"/>
<stop offset="0.18" stop-color="#2A3473"/>
<stop offset="0.55" stop-color="#5E5698"/>
<stop offset="1" stop-color="#A484CA"/>
</linearGradient>
<linearGradient id="paint4_linear_621_239" x1="51.2591" y1="29.8173" x2="54.1402" y2="29.8173" gradientUnits="userSpaceOnUse">
<stop stop-color="#172765"/>
<stop offset="0.18" stop-color="#2A3473"/>
<stop offset="0.55" stop-color="#5E5698"/>
<stop offset="1" stop-color="#A484CA"/>
</linearGradient>
<linearGradient id="paint5_linear_621_239" x1="49.9531" y1="24.8312" x2="51.5347" y2="24.8312" gradientUnits="userSpaceOnUse">
<stop stop-color="#172765"/>
<stop offset="0.18" stop-color="#2A3473"/>
<stop offset="0.55" stop-color="#5E5698"/>
<stop offset="1" stop-color="#A484CA"/>
</linearGradient>
</defs>
</svg>
