<svg width="277" height="81" viewBox="0 0 277 81" fill="none" xmlns="http://www.w3.org/2000/svg">
<path opacity="0.7" d="M276.979 40.745L264.539 62.285H64.2793V60.865L66.1893 59.765C66.8993 59.345 67.3493 58.575 67.3493 57.725V22.505C67.3493 21.665 66.8893 20.895 66.1893 20.465L64.2793 19.365V19.165H264.529L276.969 40.725L276.979 40.745Z" fill="url(#paint0_linear_538_753)"/>
<path opacity="0.7" d="M68.72 22.955V58.185C68.72 59.025 68.27 59.795 67.54 60.225L64.64 61.895L37.04 77.845C36.31 78.265 35.41 78.265 34.67 77.845L4.18 60.215C3.45 59.795 3 59.025 3 58.175V22.955C3 22.115 3.45 21.345 4.18 20.915L34.68 3.315C35.41 2.895 36.31 2.895 37.05 3.315L63.87 18.795L67.55 20.915C68.28 21.335 68.73 22.105 68.73 22.955H68.72V22.955Z" stroke="url(#paint1_linear_538_753)" stroke-width="4.06" stroke-linecap="round" stroke-linejoin="round"/>
<g opacity="0.7">
<path d="M49.701 36.755L47.821 35.425C47.651 35.305 47.441 35.255 47.231 35.295L46.301 35.465L46.021 33.895L48.551 33.455C48.981 33.375 49.261 32.975 49.191 32.545C49.121 32.115 48.711 31.835 48.281 31.905L45.751 32.345L45.471 30.775L46.401 30.605C46.611 30.575 46.791 30.455 46.911 30.285L48.241 28.405C48.481 28.055 48.411 27.565 48.051 27.305C47.701 27.065 47.211 27.135 46.951 27.495L45.811 29.105L44.431 29.345L44.361 28.945C44.231 28.155 43.811 27.495 43.221 27.035L42.971 25.555C42.891 25.125 42.491 24.845 42.061 24.915C41.631 24.985 41.351 25.395 41.421 25.825L41.511 26.355C41.241 26.335 40.981 26.355 40.711 26.385C40.441 26.415 40.181 26.515 39.951 26.615L39.861 26.085C39.781 25.655 39.381 25.375 38.951 25.445C38.521 25.515 38.241 25.925 38.311 26.355L38.561 27.835C38.171 28.465 38.011 29.235 38.141 30.025L38.211 30.425L36.831 30.665L35.221 29.525C34.871 29.285 34.381 29.355 34.121 29.715C33.881 30.065 33.951 30.555 34.311 30.815L36.191 32.145C36.361 32.265 36.571 32.315 36.781 32.275L37.711 32.105L37.991 33.675L35.461 34.115C35.031 34.195 34.751 34.595 34.821 35.025C34.891 35.455 35.301 35.735 35.731 35.665L38.261 35.225L38.541 36.795L37.611 36.965C37.401 36.995 37.221 37.115 37.101 37.285L35.771 39.165C35.531 39.515 35.601 40.005 35.961 40.265C36.141 40.385 36.351 40.435 36.551 40.395C36.751 40.355 36.941 40.255 37.061 40.075L38.201 38.465L38.891 38.345C39.551 40.055 41.361 41.125 43.241 40.785C45.121 40.445 46.451 38.845 46.501 37.015L47.191 36.895L48.801 38.035C48.981 38.155 49.191 38.205 49.391 38.165C49.591 38.125 49.781 38.025 49.901 37.845C50.141 37.495 50.071 37.005 49.711 36.745L49.701 36.755ZM41.001 27.985C41.861 27.835 42.681 28.415 42.841 29.265L42.911 29.665L39.791 30.205L39.721 29.805C39.571 28.945 40.151 28.125 41.001 27.965V27.985ZM44.901 36.535C45.081 37.555 44.581 38.535 43.721 39.015L42.791 33.695C42.711 33.265 42.311 32.985 41.881 33.055C41.451 33.125 41.171 33.535 41.241 33.965L42.171 39.285C41.211 39.135 40.401 38.365 40.221 37.345L39.271 31.905L43.941 31.085L44.891 36.525H44.901V36.535Z" fill="url(#paint2_linear_538_753)"/>
<path d="M39.2905 18.2049C31.1305 19.6349 25.6505 27.4249 27.0805 35.5949C27.6405 38.8049 29.1805 41.6049 31.3505 43.7249L30.2005 45.3549L30.1605 45.3249C29.9905 45.2049 29.7805 45.1549 29.5705 45.1949C29.3605 45.2349 29.1805 45.3449 29.0605 45.5149L21.4605 56.3349C20.9505 57.0549 20.7605 57.9249 20.9205 58.8049C21.0805 59.6849 21.5505 60.4349 22.2705 60.9349C22.9905 61.4349 23.8605 61.6349 24.7405 61.4749C25.6205 61.3149 26.3705 60.8449 26.8705 60.1249L34.4705 49.3049C34.7105 48.9549 34.6405 48.4649 34.2805 48.2049L34.2405 48.1749L35.3905 46.5449C38.1205 47.8649 41.2705 48.3749 44.4805 47.8049C52.6405 46.3749 58.1205 38.5849 56.6905 30.4149C55.2605 22.2549 47.4705 16.7749 39.3005 18.2049H39.2905V18.2049ZM25.5905 59.2149C25.3205 59.5949 24.9305 59.8449 24.4705 59.9249C24.0105 60.0049 23.5505 59.9049 23.1805 59.6349C22.8005 59.3649 22.5505 58.9749 22.4705 58.5149C22.3905 58.0549 22.4905 57.5949 22.7605 57.2249L29.9105 47.0449L29.9505 47.0749L32.6905 48.9949L32.7305 49.0249L25.5805 59.2049L25.5905 59.2149ZM32.9605 47.2849H32.9405L31.5005 46.2549L32.5505 44.7649C33.0105 45.1349 33.5005 45.4749 34.0105 45.7949L32.9605 47.2849V47.2849ZM44.2105 46.2749C36.9005 47.5549 29.9105 42.6449 28.6405 35.3349C27.3705 28.0249 32.2705 21.0349 39.5805 19.7649C46.8905 18.4849 53.8805 23.3949 55.1505 30.7049C56.4305 38.0149 51.5205 45.0049 44.2105 46.2749Z" fill="url(#paint3_linear_538_753)"/>
<path d="M52.3895 27.435C52.1895 27.045 51.7195 26.905 51.3295 27.115C50.9395 27.315 50.7995 27.785 51.0095 28.175C51.9495 29.945 52.3495 31.935 52.1695 33.925C52.1395 34.355 52.4495 34.735 52.8795 34.775H53.0895C53.4295 34.715 53.6995 34.435 53.7295 34.075C53.9295 31.775 53.4795 29.485 52.3895 27.445V27.425V27.435Z" fill="url(#paint4_linear_538_753)"/>
<path d="M51.0112 25.395L50.9912 25.375C50.7112 25.045 50.2212 24.995 49.8812 25.275C49.5412 25.555 49.5012 26.045 49.7812 26.385V26.405C49.9812 26.625 50.2712 26.725 50.5312 26.685C50.6612 26.665 50.7812 26.605 50.9012 26.515C51.2312 26.235 51.2812 25.745 51.0012 25.405H51.0112V25.395Z" fill="url(#paint5_linear_538_753)"/>
</g>
<path d="M268.531 55.4349L264.501 62.3949H199.741L195.721 55.4349L199.741 48.4849H264.501L268.531 55.4349Z" fill="white"/>
<path d="M206.57 53.915C206.57 55.335 205.52 56.225 203.85 56.225H202.6L202.3 57.765H201L202.12 52.165H204.38C205.78 52.165 206.57 52.815 206.57 53.905V53.915ZM205.26 54.025C205.26 53.485 204.88 53.225 204.22 53.225H203.2L202.81 55.165H203.91C204.77 55.165 205.26 54.765 205.26 54.025Z" fill="black"/>
<path d="M210.23 53.405L210.01 54.555C209.9 54.555 209.83 54.535 209.72 54.535C208.98 54.535 208.51 54.875 208.35 55.685L207.93 57.765H206.68L207.54 53.465H208.72L208.62 53.975C209 53.555 209.53 53.395 210.23 53.395V53.405Z" fill="black"/>
<path d="M210.15 55.9048C210.15 54.4748 211.24 53.4048 212.75 53.4048C214.07 53.4048 214.92 54.1648 214.92 55.3348C214.92 56.7648 213.84 57.8348 212.32 57.8348C211.01 57.8348 210.15 57.0648 210.15 55.9048ZM213.65 55.3848C213.65 54.8048 213.3 54.4348 212.67 54.4348C211.93 54.4348 211.41 55.0148 211.41 55.8548C211.41 56.4348 211.77 56.8048 212.39 56.8048C213.12 56.8048 213.65 56.2248 213.65 55.3848Z" fill="black"/>
<path d="M218.07 55.6251L219.27 57.7751H217.95L217.25 56.4551L216.01 57.7751H214.59L216.74 55.5651L215.6 53.4751H216.89L217.57 54.7351L218.77 53.4751H220.15L218.08 55.6251H218.07Z" fill="black"/>
<path d="M220.78 53.4749H222.02L221.16 57.7749H219.92L220.78 53.4749ZM220.88 52.2249C220.88 51.8049 221.21 51.4849 221.7 51.4849C222.14 51.4849 222.44 51.7549 222.44 52.1049C222.44 52.5649 222.1 52.8749 221.61 52.8749C221.17 52.8749 220.88 52.5849 220.88 52.2249Z" fill="black"/>
<path d="M230.111 54.8651C230.111 55.0351 230.091 55.2051 230.051 55.3951L229.581 57.7751H228.331L228.791 55.4851C228.811 55.3651 228.821 55.2651 228.821 55.1551C228.821 54.7251 228.591 54.4951 228.141 54.4951C227.561 54.4951 227.161 54.8351 227.011 55.5751L226.571 57.7851H225.321L225.781 55.4951C225.801 55.3751 225.811 55.2751 225.811 55.1751C225.811 54.7351 225.581 54.5051 225.131 54.5051C224.551 54.5051 224.151 54.8451 223.991 55.6051L223.561 57.7951H222.311L223.171 53.4951H224.351L224.251 53.9451C224.631 53.6051 225.101 53.4351 225.601 53.4351C226.191 53.4351 226.681 53.6751 226.921 54.1351C227.341 53.6751 227.901 53.4351 228.561 53.4351C229.481 53.4351 230.101 53.9351 230.101 54.8951L230.111 54.8651Z" fill="black"/>
<path d="M235.98 53.475L235.12 57.775H233.94L234.02 57.355C233.68 57.665 233.23 57.845 232.7 57.845C231.7 57.845 230.85 57.145 230.85 55.915C230.85 54.465 231.9 53.415 233.22 53.415C233.84 53.415 234.34 53.615 234.62 54.065L234.73 53.485H235.98V53.475ZM234.35 55.395C234.35 54.815 233.99 54.445 233.37 54.445C232.63 54.445 232.11 55.025 232.11 55.865C232.11 56.445 232.47 56.815 233.09 56.815C233.83 56.815 234.35 56.235 234.35 55.395Z" fill="black"/>
<path d="M244.07 54.8651C244.07 55.0351 244.05 55.2051 244.01 55.3951L243.54 57.7751H242.29L242.75 55.4851C242.77 55.3651 242.78 55.2651 242.78 55.1551C242.78 54.7251 242.55 54.4951 242.1 54.4951C241.52 54.4951 241.12 54.8351 240.97 55.5751L240.53 57.7851H239.28L239.74 55.4951C239.76 55.3751 239.77 55.2751 239.77 55.1751C239.77 54.7351 239.54 54.5051 239.09 54.5051C238.51 54.5051 238.11 54.8451 237.95 55.6051L237.52 57.7951H236.27L237.13 53.4951H238.31L238.21 53.9451C238.59 53.6051 239.06 53.4351 239.56 53.4351C240.15 53.4351 240.64 53.6751 240.88 54.1351C241.3 53.6751 241.86 53.4351 242.52 53.4351C243.44 53.4351 244.06 53.9351 244.06 54.8951L244.07 54.8651Z" fill="black"/>
<path d="M249.321 55.9548H246.031C246.071 56.5348 246.431 56.8348 247.141 56.8348C247.581 56.8348 248.001 56.6948 248.291 56.4348L248.811 57.2548C248.311 57.6548 247.671 57.8348 247.011 57.8348C245.671 57.8348 244.811 57.0748 244.811 55.9048C244.811 54.4648 245.851 53.4048 247.341 53.4048C248.601 53.4048 249.391 54.1448 249.391 55.2948C249.391 55.5248 249.361 55.7548 249.321 55.9548V55.9548ZM246.111 55.2248H248.241C248.241 54.6548 247.861 54.3348 247.281 54.3348C246.701 54.3348 246.271 54.6848 246.101 55.2248H246.111Z" fill="black"/>
<path d="M254.67 54.875C254.67 55.035 254.65 55.215 254.61 55.395L254.13 57.775H252.88L253.34 55.475C253.36 55.375 253.37 55.265 253.37 55.175C253.37 54.735 253.13 54.485 252.63 54.485C252 54.485 251.56 54.835 251.41 55.585L250.98 57.765H249.73L250.59 53.465H251.77L251.67 53.925C252.06 53.565 252.56 53.395 253.09 53.395C254.03 53.395 254.66 53.905 254.66 54.855L254.67 54.875Z" fill="black"/>
<path d="M256.97 56.2549C256.95 56.3149 256.95 56.3749 256.95 56.4349C256.95 56.6949 257.09 56.8549 257.41 56.8549C257.58 56.8549 257.75 56.7949 257.91 56.7049L258.09 57.5949C257.78 57.7849 257.39 57.8549 257.02 57.8549C256.22 57.8549 255.68 57.4049 255.68 56.6549C255.68 56.5349 255.7 56.4049 255.72 56.2749L256.06 54.5349H255.4L255.59 53.5749H256.25L256.46 52.5249H257.71L257.5 53.5749H258.57L258.38 54.5349H257.31L256.97 56.2649V56.2549Z" fill="black"/>
<path d="M263.221 55.9548H259.931C259.971 56.5348 260.331 56.8348 261.041 56.8348C261.481 56.8348 261.901 56.6948 262.191 56.4348L262.711 57.2548C262.211 57.6548 261.571 57.8348 260.911 57.8348C259.571 57.8348 258.711 57.0748 258.711 55.9048C258.711 54.4648 259.751 53.4048 261.241 53.4048C262.491 53.4048 263.291 54.1448 263.291 55.2948C263.291 55.5248 263.261 55.7548 263.221 55.9548V55.9548ZM260.011 55.2248H262.141C262.141 54.6548 261.761 54.3348 261.181 54.3348C260.601 54.3348 260.171 54.6848 260.001 55.2248H260.011Z" fill="black"/>
<g opacity="0.7">
<path d="M89.4698 42.435H85.5698L84.8298 44.235H82.8398L86.5798 35.835H88.4998L92.2498 44.235H90.2098L89.4698 42.435ZM88.8598 40.955L87.5298 37.745L86.1998 40.955H88.8598Z" fill="white"/>
<path d="M99.6 40.5451V44.2351H97.73V40.8251C97.73 39.7851 97.25 39.3051 96.42 39.3051C95.52 39.3051 94.87 39.8551 94.87 41.0451V44.2351H93V37.7851H94.79V38.5351C95.29 37.9851 96.05 37.6851 96.92 37.6851C98.44 37.6851 99.59 38.5751 99.59 40.5351L99.6 40.5451Z" fill="white"/>
<path d="M106.999 40.5551V44.2351H105.249V43.4351C104.899 44.0251 104.229 44.3351 103.279 44.3351C101.769 44.3351 100.869 43.4951 100.869 42.3751C100.869 41.2551 101.669 40.4451 103.639 40.4451H105.129C105.129 39.6451 104.649 39.1751 103.639 39.1751C102.959 39.1751 102.249 39.4051 101.779 39.7751L101.109 38.4651C101.819 37.9651 102.859 37.6851 103.889 37.6851C105.859 37.6851 106.999 38.5951 106.999 40.5551V40.5551ZM105.129 42.1951V41.5351H103.849C102.969 41.5351 102.699 41.8551 102.699 42.2851C102.699 42.7551 103.099 43.0651 103.759 43.0651C104.379 43.0651 104.919 42.7751 105.139 42.1851L105.129 42.1951Z" fill="white"/>
<path d="M108.689 35.335H110.559V44.235H108.689V35.335Z" fill="white"/>
<path d="M112.08 35.8349C112.08 35.2449 112.55 34.7949 113.24 34.7949C113.93 34.7949 114.4 35.2249 114.4 35.8049C114.4 36.4249 113.93 36.8849 113.24 36.8849C112.55 36.8849 112.08 36.4249 112.08 35.8449V35.8349ZM112.31 37.7749H114.18V44.2249H112.31V37.7749Z" fill="white"/>
<path d="M115.301 43.6351L115.921 42.2951C116.501 42.6651 117.371 42.9151 118.161 42.9151C119.021 42.9151 119.351 42.6851 119.351 42.3251C119.351 41.2751 115.451 42.3451 115.451 39.7751C115.451 38.5551 116.551 37.6851 118.441 37.6851C119.331 37.6851 120.311 37.8851 120.921 38.2451L120.301 39.5751C119.661 39.2151 119.031 39.0951 118.441 39.0951C117.601 39.0951 117.241 39.3551 117.241 39.6951C117.241 40.7951 121.141 39.7351 121.141 42.2751C121.141 43.4751 120.021 44.3251 118.091 44.3251C117.001 44.3251 115.901 44.0251 115.301 43.6251V43.6351Z" fill="white"/>
<path d="M126.45 43.9247C126.07 44.2047 125.5 44.3347 124.93 44.3347C123.41 44.3347 122.52 43.5547 122.52 42.0247V39.3747H121.52V37.9347H122.52V36.3647H124.39V37.9347H126V39.3747H124.39V42.0047C124.39 42.5547 124.69 42.8547 125.19 42.8547C125.47 42.8547 125.74 42.7747 125.95 42.6147L126.45 43.9347V43.9247Z" fill="white"/>
<path d="M133.22 40.5551V44.2351H131.47V43.4351C131.12 44.0251 130.45 44.3351 129.5 44.3351C127.99 44.3351 127.09 43.4951 127.09 42.3751C127.09 41.2551 127.89 40.4451 129.86 40.4451H131.35C131.35 39.6451 130.87 39.1751 129.86 39.1751C129.18 39.1751 128.47 39.4051 128 39.7751L127.33 38.4651C128.04 37.9651 129.08 37.6851 130.11 37.6851C132.08 37.6851 133.22 38.5951 133.22 40.5551V40.5551ZM131.35 42.1951V41.5351H130.07C129.19 41.5351 128.92 41.8551 128.92 42.2851C128.92 42.7551 129.32 43.0651 129.98 43.0651C130.6 43.0651 131.14 42.7751 131.36 42.1851L131.35 42.1951Z" fill="white"/>
<path d="M137.779 43.4051L138.439 41.9451C139.149 42.4651 140.199 42.8251 141.209 42.8251C142.359 42.8251 142.829 42.4451 142.829 41.9251C142.829 40.3551 137.949 41.4351 137.949 38.3151C137.949 36.8851 139.099 35.7051 141.489 35.7051C142.549 35.7051 143.619 35.9551 144.399 36.4451L143.799 37.9251C143.019 37.4851 142.219 37.2651 141.469 37.2651C140.319 37.2651 139.879 37.6951 139.879 38.2251C139.879 39.7751 144.759 38.7051 144.759 41.7851C144.759 43.1851 143.599 44.3851 141.199 44.3851C139.869 44.3851 138.529 43.9851 137.779 43.4151V43.4051Z" fill="white"/>
<path d="M145.57 40.0348C145.57 37.5348 147.51 35.6948 150.16 35.6948C152.81 35.6948 154.75 37.5248 154.75 40.0348C154.75 42.5448 152.8 44.3748 150.16 44.3748C147.52 44.3748 145.57 42.5248 145.57 40.0348V40.0348ZM152.79 40.0348C152.79 38.4348 151.66 37.3448 150.16 37.3448C148.66 37.3448 147.53 38.4348 147.53 40.0348C147.53 41.6348 148.66 42.7248 150.16 42.7248C151.66 42.7248 152.79 41.6348 152.79 40.0348Z" fill="white"/>
<path d="M155.699 40.0348C155.699 37.5048 157.639 35.6948 160.259 35.6948C161.709 35.6948 162.919 36.2248 163.709 37.1848L162.459 38.3348C161.899 37.6848 161.189 37.3548 160.349 37.3548C158.779 37.3548 157.659 38.4548 157.659 40.0448C157.659 41.6348 158.779 42.7348 160.349 42.7348C161.189 42.7348 161.899 42.3948 162.459 41.7348L163.709 42.8848C162.919 43.8548 161.709 44.3848 160.239 44.3848C157.639 44.3848 155.689 42.5748 155.689 40.0448L155.699 40.0348Z" fill="white"/>
<path d="M176.12 35.835V44.235H174.53L170.34 39.135V44.235H168.42V35.835H170.03L174.2 40.935V35.835H176.12Z" fill="white"/>
<path d="M177.75 35.8349C177.75 35.2449 178.22 34.7949 178.91 34.7949C179.6 34.7949 180.07 35.2249 180.07 35.8049C180.07 36.4249 179.6 36.8849 178.91 36.8849C178.22 36.8849 177.75 36.4249 177.75 35.8449V35.8349ZM177.98 37.7749H179.85V44.2249H177.98V37.7749Z" fill="white"/>
<path d="M188.001 37.7852L185.281 44.2352H183.351L180.641 37.7852H182.571L184.361 42.1752L186.211 37.7852H188.011H188.001Z" fill="white"/>
<path d="M194.869 41.5351H189.989C190.169 42.3351 190.849 42.8251 191.839 42.8251C192.519 42.8251 193.019 42.6251 193.459 42.2051L194.459 43.2851C193.859 43.9651 192.959 44.3251 191.799 44.3251C189.569 44.3251 188.119 42.9251 188.119 41.0051C188.119 39.0851 189.599 37.6851 191.559 37.6851C193.519 37.6851 194.919 38.9551 194.919 41.0351C194.919 41.1751 194.899 41.3851 194.879 41.5351H194.869ZM189.959 40.4451H193.139C193.009 39.6251 192.399 39.1051 191.559 39.1051C190.719 39.1051 190.099 39.6251 189.969 40.4451H189.959Z" fill="white"/>
<path d="M196.16 35.335H198.03V44.235H196.16V35.335Z" fill="white"/>
<path d="M206.011 35.835V44.235H204.071V37.395H202.391V35.835H206.011V35.835Z" fill="white"/>
<path d="M209.74 43.1549C209.74 43.4649 209.69 43.6949 209.42 44.3549L208.74 46.0849H207.55L208.08 44.1749C207.68 44.0149 207.43 43.6449 207.43 43.1549C207.43 42.4549 207.93 42.0049 208.59 42.0049C209.25 42.0049 209.74 42.4749 209.74 43.1549Z" fill="white"/>
<path d="M220.009 42.6548V44.2348H213.669V42.9748L216.909 39.9148C217.649 39.2048 217.789 38.7748 217.789 38.3648C217.789 37.7048 217.329 37.3248 216.449 37.3248C215.729 37.3248 215.119 37.6048 214.709 38.1648L213.289 37.2548C213.939 36.3048 215.109 35.6948 216.619 35.6948C218.489 35.6948 219.739 36.6548 219.739 38.1748C219.739 38.9948 219.509 39.7348 218.339 40.8248L216.409 42.6448H220.019L220.009 42.6548Z" fill="white"/>
<path d="M231.021 37.7852L228.111 44.6352C227.491 46.1952 226.601 46.6652 225.441 46.6652C224.781 46.6652 224.061 46.4452 223.641 46.0752L224.321 44.7452C224.611 44.9952 225.001 45.1552 225.381 45.1552C225.901 45.1552 226.181 44.9252 226.441 44.3552L226.461 44.2952L223.671 37.7952H225.601L227.411 42.1752L229.231 37.7952H231.031L231.021 37.7852Z" fill="white"/>
<path d="M240.991 41.665C240.991 43.085 239.901 44.375 237.511 44.375C236.331 44.375 235.121 44.055 234.311 43.475L235.061 41.985C235.701 42.465 236.581 42.745 237.461 42.745C238.431 42.745 239.031 42.345 239.031 41.665C239.031 41.025 238.561 40.635 237.461 40.635H236.571V39.355L238.301 37.395H234.731V35.835H240.611V37.095L238.721 39.255C240.231 39.495 241.001 40.435 241.001 41.665H240.991Z" fill="white"/>
</g>
<defs>
<linearGradient id="paint0_linear_538_753" x1="64.2793" y1="40.735" x2="276.979" y2="40.735" gradientUnits="userSpaceOnUse">
<stop stop-color="#172765"/>
<stop offset="0.18" stop-color="#2A3473"/>
<stop offset="0.55" stop-color="#5E5698"/>
<stop offset="1" stop-color="#A484CA"/>
</linearGradient>
<linearGradient id="paint1_linear_538_753" x1="0.97" y1="40.575" x2="70.76" y2="40.575" gradientUnits="userSpaceOnUse">
<stop stop-color="#172765"/>
<stop offset="0.18" stop-color="#2A3473"/>
<stop offset="0.55" stop-color="#5E5698"/>
<stop offset="1" stop-color="#A484CA"/>
</linearGradient>
<linearGradient id="paint2_linear_538_753" x1="33.991" y1="32.875" x2="50.031" y2="32.875" gradientUnits="userSpaceOnUse">
<stop stop-color="#172765"/>
<stop offset="0.18" stop-color="#2A3473"/>
<stop offset="0.55" stop-color="#5E5698"/>
<stop offset="1" stop-color="#A484CA"/>
</linearGradient>
<linearGradient id="paint3_linear_538_753" x1="20.8705" y1="39.7549" x2="56.9105" y2="39.7549" gradientUnits="userSpaceOnUse">
<stop stop-color="#172765"/>
<stop offset="0.18" stop-color="#2A3473"/>
<stop offset="0.55" stop-color="#5E5698"/>
<stop offset="1" stop-color="#A484CA"/>
</linearGradient>
<linearGradient id="paint4_linear_538_753" x1="50.9095" y1="30.895" x2="53.7695" y2="30.895" gradientUnits="userSpaceOnUse">
<stop stop-color="#172765"/>
<stop offset="0.18" stop-color="#2A3473"/>
<stop offset="0.55" stop-color="#5E5698"/>
<stop offset="1" stop-color="#A484CA"/>
</linearGradient>
<linearGradient id="paint5_linear_538_753" x1="49.6112" y1="25.895" x2="51.1812" y2="25.895" gradientUnits="userSpaceOnUse">
<stop stop-color="#172765"/>
<stop offset="0.18" stop-color="#2A3473"/>
<stop offset="0.55" stop-color="#5E5698"/>
<stop offset="1" stop-color="#A484CA"/>
</linearGradient>
</defs>
</svg>
