<svg width="41" height="43" viewBox="0 0 41 43" fill="none" xmlns="http://www.w3.org/2000/svg">
<path d="M36.48 23.73C36.48 23.06 36.9 22.45 37.52 22.21L39.99 21.25C40.12 21.2 40.22 21.1 40.27 20.97C40.32 20.84 40.31 20.69 40.24 20.57L37.62 15.74C37.77 14.9 37.84 14.05 37.84 13.21C37.77 6.35002 32.38 0.57002 25.56 0.0400195C21.9 -0.23998 18.42 0.930019 15.69 3.33002H9.19C9.03 3.33002 8.87 3.42002 8.78 3.55002L4.87 9.66002H1.44C1.18 9.66002 0.96 9.88002 0.96 10.14C0.96 10.4 1.18 10.62 1.44 10.62H5.15C5.31 10.62 5.47 10.53 5.56 10.4L9.47 4.29002H21.29L24.43 5.66002C24.38 5.84002 24.34 6.02002 24.34 6.21002C24.34 7.26002 25.2 8.13002 26.26 8.13002C27.32 8.13002 28.18 7.27002 28.18 6.21002C28.18 5.15002 27.32 4.29002 26.26 4.29002C25.75 4.29002 25.29 4.49002 24.94 4.82002L21.59 3.36002C21.53 3.33002 21.46 3.32002 21.4 3.32002H17.27C19.64 1.59002 22.51 0.76002 25.49 1.00002C31.81 1.49002 36.81 6.86002 36.88 13.22C36.88 14.06 36.81 14.92 36.64 15.76C36.61 15.91 36.66 16.06 36.77 16.17L39.15 20.54L37.19 21.3C36.18 21.7 35.53 22.64 35.53 23.72V27.99C35.53 28.39 35.21 28.71 34.81 28.71H30.46C30.2 28.71 29.98 28.93 29.98 29.19V33.19H18.52V24.45C18.52 24.28 18.43 24.12 18.28 24.04C17.46 23.57 16.71 23.01 16.03 22.35H16.02C15.91 22.24 15.79 22.11 15.66 21.97H19.35L22.56 26.78C22.65 26.91 22.8 27 22.96 27H25.42C25.64 27.82 26.37 28.43 27.26 28.43C28.31 28.43 29.18 27.57 29.18 26.51C29.18 25.45 28.32 24.59 27.26 24.59C26.37 24.59 25.63 25.2 25.42 26.02H23.22L20.51 21.96H24.59C24.81 22.78 25.54 23.39 26.43 23.39C27.48 23.39 28.35 22.53 28.35 21.47C28.35 20.41 27.49 19.55 26.43 19.55C25.54 19.55 24.8 20.16 24.59 20.98H9.19L4.94 14.94C4.85 14.81 4.7 14.74 4.54 14.74H1.44C1.18 14.74 0.96 14.96 0.96 15.22C0.96 15.48 1.18 15.7 1.44 15.7H4.3L8.55 21.74C8.64 21.87 8.79 21.94 8.95 21.94H14.37C14.71 22.35 15.07 22.77 15.36 23.02C16.03 23.65 16.76 24.21 17.55 24.69V33.17C16.54 33.2 15.73 34.03 15.73 35.09C15.73 35.42 15.82 35.73 15.97 36H10.38L10.48 35.43C10.83 35.32 11.16 35.18 11.49 35L12.27 35.56C12.46 35.7 12.73 35.68 12.9 35.51L14.25 34.1C14.41 33.94 14.43 33.69 14.3 33.49L13.75 32.66C13.93 32.3 14.07 31.95 14.18 31.58L15.12 31.41C15.35 31.37 15.52 31.17 15.52 30.94V28.95C15.52 28.72 15.36 28.52 15.12 28.48L14.19 28.31C14.08 27.94 13.94 27.58 13.76 27.23L14.31 26.4C14.44 26.21 14.42 25.96 14.26 25.79L12.91 24.38C12.75 24.21 12.48 24.18 12.28 24.32L11.5 24.88C11.18 24.7 10.85 24.56 10.49 24.45L10.32 23.46C10.28 23.23 10.08 23.06 9.85 23.06H7.95C7.71 23.06 7.52 23.23 7.48 23.46L7.31 24.45C6.95 24.56 6.62 24.7 6.3 24.88L5.52 24.32C5.33 24.18 5.05 24.2 4.89 24.38L3.55 25.79C3.39 25.95 3.37 26.2 3.5 26.39L4.05 27.22C3.87 27.57 3.72 27.93 3.62 28.3L2.7 28.47C2.47 28.51 2.3 28.71 2.3 28.94V30.93C2.3 31.16 2.46 31.36 2.7 31.4L3.63 31.57C3.74 31.94 3.87 32.3 4.06 32.65L3.51 33.48C3.38 33.67 3.4 33.92 3.56 34.08L4.9 35.49C5.06 35.67 5.34 35.69 5.53 35.55L6.31 34.99C6.63 35.17 6.97 35.31 7.32 35.42L7.42 35.99H0.48C0.22 35.99 0 36.21 0 36.47C0 36.73 0.22 36.95 0.48 36.95H32.65C33.09 36.95 33.45 37.31 33.45 37.75C33.45 38.19 33.09 38.55 32.65 38.55H9.49C9.49 38.55 9.47 38.55 9.46 38.55C9.41 38.55 9.37 38.56 9.33 38.58C9.32 38.58 9.3 38.58 9.28 38.6C9.23 38.63 9.18 38.65 9.14 38.69C9.05 38.78 9 38.9 9 39.03C9 39.29 9.22 39.51 9.48 39.51H32.65C33.62 39.51 34.42 38.71 34.42 37.74C34.42 36.77 33.62 35.97 32.65 35.97H32.49C32.64 35.7 32.73 35.39 32.73 35.06V35.01C32.73 34 31.91 33.17 30.91 33.15V29.62H34.79C35.72 29.62 36.48 28.86 36.48 27.93V23.69V23.73ZM26.25 5.27002C26.77 5.27002 27.2 5.70002 27.2 6.22002C27.2 6.74002 26.77 7.17002 26.25 7.17002C25.73 7.17002 25.3 6.74002 25.3 6.22002C25.3 5.70002 25.72 5.27002 26.25 5.27002ZM27.24 25.59C27.76 25.59 28.19 26.02 28.19 26.54C28.19 27.06 27.76 27.49 27.24 27.49C26.72 27.49 26.29 27.06 26.29 26.54C26.29 26.02 26.71 25.59 27.24 25.59ZM26.4 20.56C26.92 20.56 27.35 20.99 27.35 21.51C27.35 22.03 26.92 22.46 26.4 22.46C25.88 22.46 25.45 22.03 25.45 21.51C25.45 20.99 25.87 20.56 26.4 20.56ZM6.49 34.05C6.33 33.94 6.11 33.94 5.94 34.06L5.25 34.56L4.47 33.74L4.97 32.99C5.08 32.84 5.08 32.63 4.98 32.48C4.72 32.03 4.54 31.58 4.43 31.1C4.39 30.91 4.24 30.76 4.05 30.72L3.21 30.57V29.38L4.05 29.23C4.24 29.2 4.39 29.05 4.43 28.86C4.54 28.38 4.73 27.91 4.98 27.48C5.07 27.32 5.07 27.12 4.97 26.97L4.46 26.21L5.24 25.39L5.93 25.89C6.09 26.01 6.31 26.02 6.48 25.9C6.88 25.64 7.32 25.45 7.8 25.34C7.98 25.29 8.13 25.14 8.16 24.95L8.31 24.05H9.4L9.55 24.95C9.58 25.14 9.72 25.29 9.91 25.34C10.38 25.45 10.82 25.64 11.22 25.9C11.39 26.01 11.6 26 11.77 25.89L12.46 25.39L13.25 26.21L12.75 26.96C12.65 27.11 12.64 27.31 12.74 27.47C13 27.91 13.18 28.38 13.29 28.86C13.33 29.05 13.48 29.2 13.67 29.23L14.51 29.38V30.57L13.67 30.73C13.48 30.76 13.33 30.91 13.29 31.11C13.19 31.58 13.01 32.03 12.75 32.49C12.66 32.65 12.66 32.85 12.76 33L13.26 33.75L12.47 34.57L11.78 34.07C11.62 33.95 11.4 33.94 11.23 34.06C10.83 34.32 10.39 34.51 9.92 34.62C9.74 34.67 9.59 34.82 9.56 35.01L9.41 35.91H8.32L8.17 35.01C8.14 34.82 8 34.67 7.81 34.62C7.34 34.51 6.9 34.32 6.5 34.06L6.49 34.05ZM31.79 35.08V35.13C31.79 35.63 31.38 36.04 30.87 36.04H17.59C17.08 36.04 16.67 35.63 16.67 35.08C16.67 34.58 17.08 34.17 17.59 34.17H30.87C31.37 34.17 31.79 34.58 31.79 35.08V35.08Z" fill="white"/>
<path d="M34.5996 13.35C34.5996 13.61 34.8196 13.83 35.0796 13.83C35.3396 13.83 35.5596 13.61 35.5596 13.35C35.5596 9.44004 33.4696 5.79004 30.0896 3.80004C29.8596 3.66004 29.5596 3.74004 29.4296 3.97004C29.2896 4.20004 29.3696 4.50004 29.5996 4.63004C32.6796 6.45004 34.5996 9.79004 34.5996 13.35V13.35Z" fill="white"/>
<path d="M25.9104 2.37004C25.6404 2.34004 25.4005 2.52004 25.3705 2.78004C25.3405 3.04004 25.5205 3.29004 25.7805 3.32004C25.9805 3.35004 26.1904 3.38004 26.3904 3.42004C26.4204 3.42004 26.4504 3.42004 26.4804 3.42004C26.7004 3.42004 26.9105 3.26004 26.9505 3.03004C27.0005 2.77004 26.8304 2.52004 26.5704 2.46004C26.3504 2.42004 26.1304 2.39004 25.9004 2.35004L25.9104 2.37004Z" fill="white"/>
<path d="M29.1802 3.85C29.2902 3.61 29.1802 3.32001 28.9302 3.21001C28.7302 3.12001 28.5202 3.04001 28.3002 2.96001C28.0502 2.87001 27.7702 2.99001 27.6802 3.24001C27.5902 3.49001 27.7102 3.77 27.9602 3.86C28.1502 3.93 28.3402 4.01001 28.5302 4.09001C28.6002 4.12001 28.6602 4.13001 28.7202 4.13001C28.9102 4.13001 29.0902 4.02 29.1702 3.85H29.1802Z" fill="white"/>
<path d="M17.3504 8.29C17.5704 9.11 18.3004 9.72001 19.1904 9.72001C20.2404 9.72001 21.1104 8.86 21.1104 7.8C21.1104 6.74001 20.2504 5.88 19.1904 5.88C18.3004 5.88 17.5604 6.49 17.3504 7.31H10.8804C10.7204 7.31 10.5804 7.39 10.4804 7.51L6.99039 12.48C6.99039 12.48 6.97039 12.52 6.96039 12.54C6.95039 12.56 6.94039 12.57 6.93039 12.59C6.89039 12.7 6.89039 12.82 6.93039 12.93C6.93039 12.95 6.94039 12.96 6.96039 12.98C6.98039 13 6.97039 13.02 6.99039 13.04L10.4804 18.01C10.5704 18.14 10.7204 18.21 10.8804 18.21H29.0604C29.2804 19.03 30.0104 19.64 30.9004 19.64C31.9504 19.64 32.8204 18.78 32.8204 17.72C32.8204 16.66 31.9604 15.8 30.9004 15.8C30.0104 15.8 29.2704 16.41 29.0604 17.23H20.1904L22.8604 13.23H25.6204C25.8604 14.01 26.5804 14.59 27.4404 14.59C28.4904 14.59 29.3604 13.73 29.3604 12.67C29.3604 11.61 28.5004 10.75 27.4404 10.75C26.5204 10.75 25.7604 11.4 25.5704 12.25H22.6004C22.4404 12.25 22.2904 12.33 22.2004 12.47L19.0304 17.22H11.1304L8.32039 13.22H15.2304C15.4504 14.04 16.1804 14.65 17.0704 14.65C18.1204 14.65 18.9904 13.79 18.9904 12.73C18.9904 11.67 18.1304 10.81 17.0704 10.81C16.1804 10.81 15.4404 11.42 15.2304 12.24H8.32039L11.1304 8.24H17.3504V8.27001V8.29ZM19.1904 6.86C19.7104 6.86 20.1404 7.29 20.1404 7.81C20.1404 8.33 19.7104 8.76 19.1904 8.76C18.6704 8.76 18.2404 8.33 18.2404 7.81C18.2404 7.29 18.6604 6.86 19.1904 6.86ZM27.4304 11.75C27.9504 11.75 28.3804 12.18 28.3804 12.7C28.3804 13.22 27.9504 13.65 27.4304 13.65C26.9104 13.65 26.4804 13.22 26.4804 12.7C26.4804 12.18 26.9104 11.75 27.4304 11.75ZM30.8904 16.79C31.4104 16.79 31.8404 17.22 31.8404 17.74C31.8404 18.26 31.4104 18.69 30.8904 18.69C30.3704 18.69 29.9404 18.26 29.9404 17.74C29.9404 17.22 30.3704 16.79 30.8904 16.79ZM17.0704 11.82C17.5904 11.82 18.0204 12.25 18.0204 12.77C18.0204 13.29 17.5904 13.72 17.0704 13.72C16.5504 13.72 16.1204 13.29 16.1204 12.77C16.1204 12.25 16.5404 11.82 17.0704 11.82Z" fill="white"/>
<path d="M5.70039 13.26C5.96039 13.26 6.18039 13.04 6.18039 12.78C6.18039 12.52 5.96039 12.3 5.70039 12.3H3.88039C3.62039 12.3 3.40039 12.52 3.40039 12.78C3.40039 13.04 3.62039 13.26 3.88039 13.26H5.70039V13.26Z" fill="white"/>
<path d="M11.6298 29.98C11.6298 28.4 10.3898 27.12 8.85984 27.12C7.32984 27.12 6.08984 28.4 6.08984 29.98C6.08984 31.56 7.32984 32.84 8.85984 32.84C10.3898 32.84 11.6298 31.56 11.6298 29.98V29.98ZM7.04984 29.98C7.04984 28.93 7.85984 28.08 8.85984 28.08C9.85984 28.08 10.6598 28.94 10.6598 29.98C10.6598 31.02 9.84984 31.88 8.85984 31.88C7.86984 31.88 7.04984 31.02 7.04984 29.98Z" fill="white"/>
<path d="M6.36999 27.55C6.54999 27.37 6.53999 27.1 6.36999 26.92C6.19999 26.75 5.91999 26.74 5.73999 26.92C5.56999 27.09 5.57999 27.37 5.73999 27.55C5.91999 27.73 6.18999 27.73 6.36999 27.55Z" fill="white"/>
<path d="M11.3396 32.52C11.1696 32.69 11.1796 32.97 11.3396 33.15C11.4996 33.33 11.7896 33.33 11.9696 33.15C12.1496 32.97 12.1396 32.7 11.9696 32.52C11.7996 32.35 11.5196 32.34 11.3396 32.52Z" fill="white"/>
<path d="M4.9002 29.59C4.6602 29.59 4.4502 29.78 4.4502 30.04C4.4502 30.3 4.6502 30.47 4.9002 30.47C5.1502 30.47 5.3502 30.28 5.3502 30.04C5.3502 29.79 5.1502 29.59 4.9002 29.59Z" fill="white"/>
<path d="M12.8201 30.47C13.0601 30.47 13.2701 30.28 13.2701 30.04C13.2701 29.8 13.0701 29.59 12.8201 29.59C12.5701 29.59 12.3701 29.78 12.3701 30.04C12.3701 30.3 12.5701 30.47 12.8201 30.47Z" fill="white"/>
<path d="M5.73968 32.52C5.56968 32.69 5.55968 32.97 5.73968 33.15C5.90968 33.32 6.18968 33.31 6.36968 33.15C6.54968 32.99 6.54968 32.7 6.36968 32.52C6.18968 32.34 5.91968 32.35 5.73968 32.52Z" fill="white"/>
<path d="M11.9703 27.54C12.1403 27.37 12.1503 27.09 11.9703 26.91C11.7903 26.73 11.5203 26.74 11.3403 26.91C11.1703 27.08 11.1603 27.36 11.3403 27.54C11.5103 27.72 11.7903 27.71 11.9703 27.54Z" fill="white"/>
<path d="M8.86016 33.55C8.61016 33.55 8.41016 33.75 8.41016 34C8.41016 34.25 8.60016 34.4501 8.86016 34.4501C9.12016 34.4501 9.29016 34.25 9.29016 34C9.29016 33.75 9.10016 33.55 8.86016 33.55Z" fill="white"/>
<path d="M8.86016 26.52C9.10016 26.52 9.29016 26.32 9.29016 26.07C9.29016 25.82 9.10016 25.62 8.86016 25.62C8.62016 25.62 8.41016 25.82 8.41016 26.07C8.41016 26.32 8.61016 26.52 8.86016 26.52Z" fill="white"/>
<path d="M27.5101 41.18H13.3501C13.0901 41.18 12.8701 41.4 12.8701 41.66C12.8701 41.92 13.0901 42.15 13.3501 42.15H27.5101C27.7701 42.15 27.9901 41.93 27.9901 41.67C27.9901 41.41 27.7701 41.18 27.5101 41.18V41.18Z" fill="white"/>
<path d="M40.38 36.04H36.52C36.26 36.04 36.04 36.26 36.04 36.52C36.04 36.78 36.26 37 36.52 37H40.38C40.64 37 40.86 36.78 40.86 36.52C40.86 36.26 40.64 36.04 40.38 36.04Z" fill="white"/>
<path d="M7.10043 38.65C6.92043 38.57 6.70043 38.62 6.58043 38.76C6.49043 38.85 6.44043 38.97 6.44043 39.1C6.44043 39.23 6.49043 39.35 6.58043 39.44C6.67043 39.53 6.79043 39.58 6.92043 39.58C7.05043 39.58 7.17043 39.53 7.26043 39.44C7.35043 39.35 7.40043 39.23 7.40043 39.1C7.40043 38.97 7.35043 38.85 7.26043 38.76C7.21043 38.71 7.15043 38.68 7.10043 38.65Z" fill="white"/>
</svg>
