<svg xmlns="http://www.w3.org/2000/svg" xmlns:xlink="http://www.w3.org/1999/xlink" viewBox="0 0 589.62 206.06"><defs><style>.cls-1{mask:url(#mask);filter:url(#luminosity-noclip-2);}.cls-2{mix-blend-mode:multiply;fill:url(#linear-gradient);}.cls-3{fill:none;}.cls-4{fill:url(#radial-gradient);}.cls-5{fill:url(#radial-gradient-2);}.cls-6{clip-path:url(#clip-path);}.cls-7{fill:#0683b5;}.cls-8{fill:#0282b4;}.cls-9{fill:#0381b2;}.cls-10{fill:#0780b1;}.cls-11{fill:#0a80b0;}.cls-12{fill:#077fae;}.cls-13{fill:#087ead;}.cls-14{fill:#0b7eac;}.cls-15{fill:#0e7dab;}.cls-16{fill:#107ca9;}.cls-17{fill:#0b7ba9;}.cls-18{fill:#0e7aa8;}.cls-19{fill:#107aa6;}.cls-20{fill:#1279a5;}.cls-21{fill:#0e78a4;}.cls-22{fill:#1077a3;}.cls-23{fill:#1277a2;}.cls-24{fill:#1476a1;}.cls-25{fill:#1075a0;}.cls-26{fill:#12749f;}.cls-27{fill:#13749e;}.cls-28{fill:#15739d;}.cls-29{fill:#11729c;}.cls-30{fill:#13719b;}.cls-31{fill:#15719a;}.cls-32{fill:#167099;}.cls-33{fill:#176f98;}.cls-34{fill:#146f97;}.cls-35{fill:#166e96;}.cls-36{fill:#176d95;}.cls-37{fill:#186c94;}.cls-38{fill:#156c93;}.cls-39{fill:#166b92;}.cls-40{fill:#176a91;}.cls-41{fill:#186990;}.cls-42{fill:#15698f;}.cls-43{fill:#16688e;}.cls-44{fill:#17678d;}.cls-45{fill:#18668c;}.cls-46{fill:#16668b;}.cls-47{fill:#17658a;}.cls-48{fill:#186489;}.cls-49{fill:#186488;}.cls-50{fill:#196387;}.cls-51{fill:#176287;}.cls-52{fill:#186285;}.cls-53{fill:#196184;}.cls-54{fill:#186184;}.cls-55{fill:#176083;}.cls-56{fill:#185f82;}.cls-57{fill:#185e81;}.cls-58{fill:#195e80;}.cls-59{fill:#175d80;}.cls-60{fill:#185c7f;}.cls-61{fill:#185b7e;}.cls-62{fill:#185b7d;}.cls-63{fill:#195a7c;}.cls-64{fill:#17597b;}.cls-65{fill:#18587a;}.cls-66{fill:#195779;}.cls-67{fill:#175677;}.cls-68{fill:#185676;}.cls-69{fill:#185576;}.cls-70{fill:#185575;}.cls-71{fill:#175474;}.cls-72{fill:#175373;}.cls-73{fill:#175372;}.cls-74{fill:#185271;}.cls-75{fill:#165171;}.cls-76{fill:#175070;}.cls-77{fill:#17506e;}.cls-78{fill:#174f6e;}.cls-79{fill:#184e6d;}.cls-80{fill:#164e6c;}.cls-81{fill:#174d6b;}.cls-82{fill:#174d6a;}.cls-83{fill:#174c69;}.cls-84{fill:#164b69;}.cls-85{fill:#164a68;}.cls-86{fill:#164a67;}.cls-87{fill:#164966;}.cls-88{fill:#154865;}.cls-89{fill:#154864;}.cls-90{fill:#154764;}.cls-91{fill:#154763;}.cls-92{fill:#144662;}.cls-93{fill:#144561;}.cls-94{fill:#fff;}.cls-95{mask:url(#mask-2);}.cls-96{fill:url(#linear-gradient-2);}.cls-97{fill:url(#linear-gradient-3);}.cls-98{fill:#d6ece1;}.cls-99{fill:url(#linear-gradient-4);}.cls-100{fill:#0d1137;}.cls-101{fill:#283380;}.cls-102{filter:url(#luminosity-noclip);}</style><filter id="luminosity-noclip" x="372.02" y="-6608.41" width="96.45" height="32766" filterUnits="userSpaceOnUse" color-interpolation-filters="sRGB"><feFlood flood-color="#fff" result="bg"/><feBlend in="SourceGraphic" in2="bg"/></filter><mask id="mask" x="372.02" y="-6608.41" width="96.45" height="32766" maskUnits="userSpaceOnUse"><g class="cls-102"/></mask><linearGradient id="linear-gradient" x1="464.21" y1="148.45" x2="293.61" y2="123.22" gradientUnits="userSpaceOnUse"><stop offset="0"/><stop offset="1" stop-color="#fff"/></linearGradient><radialGradient id="radial-gradient" cx="349.97" cy="49.63" r="279.77" gradientUnits="userSpaceOnUse"><stop offset="0.05" stop-color="#144561"/><stop offset="1" stop-color="#0683b5"/></radialGradient><radialGradient id="radial-gradient-2" cx="482.78" cy="65.11" r="113.75" gradientUnits="userSpaceOnUse"><stop offset="0" stop-color="#144561"/><stop offset="1" stop-color="#0683b5"/></radialGradient><clipPath id="clip-path"><polygon class="cls-3" points="555.48 64 551.78 200.47 296.61 200.47 294.34 173.43 555.48 64"/></clipPath><filter id="luminosity-noclip-2" x="372.02" y="130.98" width="96.45" height="19.81" filterUnits="userSpaceOnUse" color-interpolation-filters="sRGB"><feFlood flood-color="#fff" result="bg"/><feBlend in="SourceGraphic" in2="bg"/></filter><mask id="mask-2" x="372.02" y="130.98" width="96.45" height="19.81" maskUnits="userSpaceOnUse"><g class="cls-1"><path class="cls-2" d="M456.23,143.37a8.65,8.65,0,0,1,3.22,1.55l.31.05s-.81,1-5.39,2.12l.61.14-.46.12,2.57.4a51.67,51.67,0,0,1,8.19.32c.56.09,0,.13-.07.2,3.36.5,4.65,1.17,1.29,2a26.12,26.12,0,0,1-10.72,0c-2-.41-3.18-.86-3.26-1.28l-.08-.13-2.5-.43a6.67,6.67,0,0,1-.69.08l-1.5-.14c-5.64.74-11,.84-11,.84l-.67-.17c-.8-.08-1.9-.25-2.25-.3-.51-.07-12.95-.76-14.57-1.05a23,23,0,0,1-4.9-2.22h.42l0-.21h.58l-.39-.2a10.15,10.15,0,0,1-2.05-.38c-2.11.22-4.19.42-4.93.42a7.88,7.88,0,0,1-2.4-.09l-10.64-2.35c-.81-.17-.83-.48-.05-.67a6.07,6.07,0,0,1,1.15-.15c1.55-.2,4.42-.53,6.67-.67-11.34-2.21-24.85-4.32-24.85-4.32l-1.38-.34a20.4,20.4,0,0,1-3.56-.35c-.31-.16-1.23-1.62-.72-1.79a8.88,8.88,0,0,1,2-.07,31.24,31.24,0,0,1,6.08,1.3l.8-.13s23.35,3.41,35.88,5.3h0l-13.31-3-17.19-3.92.51-.13s-3.65-.49-3.73-.62l-1.63-.89c.22-.5,2.16-.36,2.16-.36l.32-.43s-1.31-.74,3.47,0c.05,0,.85.66.89,1s.5.48,1.09.58l.53-.12,35.44,6.52,1.19-.15,5.29.95c-.1,0-.17-.09-.18-.14s.3-.13.7-.13c.57-.1,3.17-.15,3.17-.15l.1,0a1.33,1.33,0,0,1,.43-.2,1.49,1.49,0,0,1,.46,0,2.23,2.23,0,0,1,.85-.1c2.19,0,14.25,1.63,14.69,1.71S454.39,143,456.23,143.37Zm-38.09,1.29-.16,0a.16.16,0,0,0,0,.06Zm.75.62h.24a14.33,14.33,0,0,0,3.22,1.45c.7.09,4.23.23,6.21.3l-3.4-.88s-3.05-.63-6.29-1.33l-.24,0c.13,0,.17.11-.07.13l-.35,0,.06.14h.39Zm-4.38-.64h0c-.08-.06,0-.11.27-.14a24.84,24.84,0,0,1,2.88.06l-1.46-.32-2.38.26A4.86,4.86,0,0,0,414.51,144.64Zm19.66-4.17c3.29.6,6.8,1.24,8.57,1.58,1.19.24,3.22.6,5.47,1a16.4,16.4,0,0,0-2.16-1.26c-.36-.09-6.57-.92-8.5-1.17l0,0-1.51-.18a1.23,1.23,0,0,1-.2-.12l-.18,0,.07.08c0,.09-.69.11-1,.07a.38.38,0,0,1-.16,0l-.17,0-.13,0Z"/></g></mask><linearGradient id="linear-gradient-2" x1="464.21" y1="148.45" x2="293.61" y2="123.22" gradientUnits="userSpaceOnUse"><stop offset="0" stop-color="#231f20"/><stop offset="1" stop-color="#00002d"/></linearGradient><linearGradient id="linear-gradient-3" x1="583.15" y1="46.49" x2="585.31" y2="46.49" gradientTransform="matrix(-1, 0.05, 0.05, 1, 970.77, 14.16)" gradientUnits="userSpaceOnUse"><stop offset="0" stop-color="#93bfc0"/><stop offset="0.89" stop-color="#d6ece1"/></linearGradient><linearGradient id="linear-gradient-4" x1="-34.31" y1="228.96" x2="-32.15" y2="228.96" gradientTransform="matrix(0.87, 0.49, -0.49, 0.87, 512.55, -96.14)" xlink:href="#linear-gradient-3"/></defs><g id="Capa_2" data-name="Capa 2"><g id="Layer_1" data-name="Layer 1"><path class="cls-4" d="M378.16,200.47l14.1-182.11S491.53,6,589.62,0V200.47Z"/><polygon class="cls-5" points="359.62 109.4 361.27 25.73 503.55 59.17 359.62 109.4"/><g class="cls-6"><rect class="cls-7" x="294.34" y="64" width="261.15" height="136.47"/><path class="cls-7" d="M556.18,125.92v57.35h3.4c-1.13,1.82-2.32,3.63-3.59,5.45q-3.78,5.44-8.35,10.87c-1.52,1.81-3.11,3.61-4.75,5.41v-3.83H293.64V124.85H291.3c1.37-.75,2.76-1.49,4.15-2.23q8.37-4.43,17.24-8.55C324.5,108.58,337,103.53,349.94,99,401.89,81,452.51,74.92,492.36,79.79c19.92,2.44,37.16,7.6,50.52,15.33a69,69,0,0,1,17,13.52h-3.69Z"/><path class="cls-8" d="M556.18,126.8v51.32h4.11a120.63,120.63,0,0,1-6.7,10.77q-3.75,5.38-8.26,10.75c-1.51,1.79-3.07,3.57-4.7,5.35v-3.82h-247V125.74h-1.77l4.1-2.21q8.28-4.36,17-8.45c11.68-5.42,24-10.42,36.83-14.89,51.36-17.86,101.41-23.82,140.82-19,19.7,2.4,36.74,7.5,49.95,15.15a68.34,68.34,0,0,1,16.8,13.37h-1.24Z"/><path class="cls-9" d="M556.18,127.67v50.74h1.63a118.89,118.89,0,0,1-6.63,10.65q-3.7,5.33-8.16,10.63-2.24,2.66-4.64,5.29v-3.81H293.64V126.62h-1.2c1.34-.73,2.7-1.45,4.06-2.18q8.17-4.32,16.85-8.35a392.31,392.31,0,0,1,36.42-14.72C400.54,83.71,450,77.82,489,82.58c19.48,2.38,36.32,7.42,49.38,15A67.64,67.64,0,0,1,555,110.78a51.76,51.76,0,0,1,5.9,8h-4.69Z"/><path class="cls-10" d="M556.18,128.55v39.7h4.09a104.73,104.73,0,0,1-11.49,21q-3.66,5.27-8.07,10.51c-1.47,1.74-3,3.49-4.59,5.22v-3.79H293.64V129.7h-4.58q3.92-2.2,8-4.34,8.09-4.27,16.66-8.26a387.15,387.15,0,0,1,36-14.55C399.87,85.09,448.78,79.27,487.29,84c19.25,2.35,35.91,7.33,48.82,14.81a66.35,66.35,0,0,1,16.41,13.06,52,52,0,0,1,5.84,7.9h-2.18Z"/><path class="cls-11" d="M556.18,129.42v39.24h1.55a103,103,0,0,1-11.35,20.74q-3.63,5.21-8,10.39-2.17,2.58-4.53,5.16v-3.78H293.64V130.56h-4q3.87-2.17,7.86-4.29,8-4.22,16.46-8.16c11.29-5.24,23.18-10.07,35.59-14.39,99.21-34.51,193.38-23,210.32,25.7Z"/><path class="cls-12" d="M556.18,130.3v18.82h3.67a65.23,65.23,0,0,1-4.66,19.95A101.64,101.64,0,0,1,544,189.57q-3.57,5.15-7.89,10.26-2.15,2.56-4.48,5.11v-3.77h-238V131.42H290.3c2.54-1.43,5.14-2.85,7.77-4.24q7.89-4.17,16.26-8.06c11.16-5.18,22.91-10,35.17-14.22,98.05-34.1,191.1-22.73,207.84,25.4Z"/><path class="cls-13" d="M554.78,131.17c4.14,11.89,3.17,24.93-2.13,38.32a100.13,100.13,0,0,1-11.08,20.25q-3.54,5.08-7.8,10.14c-1.41,1.69-2.89,3.37-4.42,5v-3.75H293.64V132.29h-2.73q3.78-2.13,7.68-4.19,7.8-4.12,16.07-8a374.16,374.16,0,0,1,34.75-14C446.29,72.38,538.24,83.62,554.78,131.17Z"/><path class="cls-14" d="M552.22,132.05c4.08,11.75,3.12,24.62-2.11,37.85a98.49,98.49,0,0,1-11,20c-2.32,3.35-4.9,6.69-7.7,10-1.4,1.66-2.86,3.33-4.37,5v-3.74H293.64v-68h-2.11q3.72-2.1,7.58-4.14,7.71-4.08,15.88-7.87a370.13,370.13,0,0,1,34.33-13.88C445,74,535.87,85.07,552.22,132.05Z"/><path class="cls-15" d="M549.65,132.93c4,11.6,3.09,24.32-2.07,37.39a98.31,98.31,0,0,1-10.82,19.76q-3.45,5-7.61,9.9-2.07,2.46-4.32,4.92v-3.73H293.64V134h-1.5c2.46-1.38,5-2.75,7.5-4.09,5.07-2.68,10.31-5.28,15.68-7.78,10.76-5,22.09-9.59,33.91-13.7C443.78,75.55,533.51,86.52,549.65,132.93Z"/><path class="cls-16" d="M547.09,133.8c4,11.46,3,24-2.05,36.93a96.93,96.93,0,0,1-10.69,19.52q-3.4,4.91-7.51,9.78c-1.36,1.62-2.79,3.24-4.26,4.86v-3.72H293.64v-66.3h-.88c2.43-1.36,4.89-2.71,7.4-4q7.51-4,15.49-7.68c10.62-4.93,21.82-9.48,33.49-13.54C442.52,77.13,531.15,88,547.09,133.8Z"/><path class="cls-17" d="M544.53,134.68c3.93,11.31,3,23.72-2,36.46A95.71,95.71,0,0,1,532,190.42c-2.24,3.22-4.72,6.45-7.42,9.65q-2,2.42-4.21,4.8v-3.7H293.64V135.73h-.27q3.6-2,7.31-4,7.43-3.93,15.3-7.59c10.49-4.87,21.55-9.36,33.07-13.37C441.26,78.72,528.78,89.41,544.53,134.68Z"/><path class="cls-18" d="M542,135.55c3.89,11.18,3,23.43-2,36a94.21,94.21,0,0,1-10.41,19q-3.33,4.77-7.33,9.53-2,2.37-4.16,4.74v-3.69H293.64V138.61h-3.17c1.16-.68,2.34-1.35,3.52-2,2.37-1.34,4.77-2.65,7.22-3.94q7.32-3.87,15.1-7.49c10.36-4.81,21.27-9.24,32.65-13.2C440,80.3,526.42,90.86,542,135.55Z"/><path class="cls-19" d="M539.4,136.43c3.84,11,2.94,23.12-2,35.54a93.39,93.39,0,0,1-10.29,18.79c-2.18,3.14-4.6,6.28-7.23,9.41q-2,2.34-4.11,4.68v-3.68H293.64V139.45h-2.51c1.15-.67,2.31-1.33,3.47-2,2.34-1.32,4.72-2.61,7.13-3.89q7.23-3.82,14.91-7.39c10.22-4.75,21-9.12,32.23-13C438.75,81.89,524.05,92.31,539.4,136.43Z"/><path class="cls-20" d="M536.84,137.31c3.78,10.88,2.89,22.82-2,35.08a92.38,92.38,0,0,1-10.15,18.54q-3.24,4.65-7.14,9.29-2,2.31-4.05,4.61v-3.66H293.64V140.28h-1.85c1.13-.66,2.28-1.31,3.43-2q3.46-1.95,7-3.83,7.15-3.78,14.72-7.3a341.44,341.44,0,0,1,31.81-12.86C437.5,83.47,521.69,93.76,536.84,137.31Z"/><path class="cls-21" d="M534.27,138.18c3.74,10.74,2.86,22.52-1.92,34.62a90.51,90.51,0,0,1-10,18.3q-3.2,4.59-7,9.17-1.92,2.28-4,4.55v-3.65H293.64V143.08h-4.52a323.26,323.26,0,0,1,59.58-27.57C436.24,85.06,519.32,95.21,534.27,138.18Z"/><path class="cls-22" d="M531.71,139.06c3.69,10.6,2.82,22.22-1.9,34.16a89.76,89.76,0,0,1-9.88,18.05q-3.15,4.53-6.95,9c-1.26,1.51-2.58,3-4,4.5v-3.64H293.64V143.89h-3.81a318.75,318.75,0,0,1,58.78-27.21C435,86.64,517,96.66,531.71,139.06Z"/><path class="cls-23" d="M529.14,139.93c3.64,10.46,2.79,21.92-1.87,33.7a87.63,87.63,0,0,1-9.75,17.81q-3.1,4.47-6.85,8.92-1.87,2.22-3.89,4.44v-3.63H293.64V144.7h-3.11a314.64,314.64,0,0,1,58-26.84C433.73,88.22,514.6,98.11,529.14,139.93Z"/><path class="cls-24" d="M526.58,140.81c3.59,10.31,2.75,21.62-1.84,33.23a87,87,0,0,1-9.62,17.57q-3.06,4.41-6.76,8.8-1.85,2.19-3.84,4.37v-3.61H293.64V145.51h-2.4A310.42,310.42,0,0,1,348.43,119C432.47,89.81,512.23,99.55,526.58,140.81Z"/><path class="cls-25" d="M524,141.68c3.54,10.17,2.71,21.32-1.82,32.78a86.23,86.23,0,0,1-9.48,17.32q-3,4.35-6.67,8.68c-1.21,1.44-2.48,2.88-3.79,4.31v-3.6H293.64V146.32h-1.7a305.65,305.65,0,0,1,56.4-26.1C431.21,91.39,509.87,101,524,141.68Z"/><path class="cls-26" d="M521.45,142.56c3.49,10,2.67,21-1.79,32.31A84.58,84.58,0,0,1,510.31,192q-3,4.29-6.57,8.56c-1.2,1.42-2.44,2.83-3.73,4.25v-3.59H293.64v-54h-1a301.13,301.13,0,0,1,55.6-25.73C430,93,507.5,102.45,521.45,142.56Z"/><path class="cls-27" d="M518.89,143.44c3.44,9.88,2.63,20.71-1.77,31.85a83.84,83.84,0,0,1-9.21,16.83q-2.94,4.23-6.48,8.43-1.77,2.1-3.68,4.19v-3.57H293.64V147.94h-.29a298,298,0,0,1,54.81-25.37C428.7,94.56,505.14,103.9,518.89,143.44Z"/><path class="cls-28" d="M516.33,144.31c3.39,9.74,2.59,20.42-1.75,31.39a82,82,0,0,1-9.08,16.59q-2.89,4.17-6.38,8.31-1.74,2.07-3.63,4.13v-3.56H293.64V150.56h-2.55c1-.61,2-1.21,3-1.81a292.82,292.82,0,0,1,54-25C427.44,96.14,502.78,105.35,516.33,144.31Z"/><path class="cls-29" d="M513.76,145.19c3.34,9.59,2.56,20.12-1.71,30.92a81.31,81.31,0,0,1-8.95,16.35q-2.85,4.11-6.29,8.19-1.72,2-3.58,4.07v-3.55H293.64v-48H289q2.83-1.81,5.78-3.58A288.7,288.7,0,0,1,348,124.93C426.19,97.73,500.41,106.8,513.76,145.19Z"/><path class="cls-30" d="M511.2,146.06c3.29,9.46,2.52,19.82-1.69,30.47a79.87,79.87,0,0,1-8.82,16.1q-2.81,4.05-6.19,8.07c-1.13,1.34-2.3,2.67-3.52,4v-3.54H293.64V153.9h-3.87q2.79-1.78,5.7-3.53a284.84,284.84,0,0,1,52.42-24.26C424.93,99.31,498.05,108.25,511.2,146.06Z"/><path class="cls-31" d="M508.64,146.94c3.24,9.31,2.48,19.52-1.67,30a78.16,78.16,0,0,1-8.68,15.86q-2.78,4-6.1,7.95c-1.11,1.31-2.27,2.63-3.47,3.94v-3.52H293.64V154.65h-3.08q2.76-1.76,5.61-3.46a279.74,279.74,0,0,1,51.63-23.9C423.68,100.9,495.68,109.69,508.64,146.94Z"/><path class="cls-32" d="M506.07,147.81c3.19,9.17,2.45,19.22-1.64,29.55A77.42,77.42,0,0,1,495.89,193q-2.73,3.92-6,7.82c-1.1,1.3-2.23,2.6-3.42,3.89v-3.51H293.64V155.41h-2.29q2.72-1.72,5.53-3.41a275.68,275.68,0,0,1,50.84-23.54C422.42,102.48,493.32,111.14,506.07,147.81Z"/><path class="cls-33" d="M503.51,148.69c3.14,9,2.4,18.92-1.61,29.08a76.11,76.11,0,0,1-8.42,15.37q-2.69,3.86-5.91,7.7-1.62,1.92-3.36,3.83v-3.5H293.64v-45h-1.5c1.78-1.14,3.6-2.26,5.44-3.36a271.57,271.57,0,0,1,50.05-23.17C421.16,104.06,491,112.59,503.51,148.69Z"/><path class="cls-34" d="M501,149.57c3.09,8.88,2.36,18.61-1.59,28.61a74.89,74.89,0,0,1-8.28,15.13c-1.76,2.53-3.71,5.06-5.82,7.58-1.06,1.26-2.17,2.51-3.31,3.77v-3.49H293.64V156.92h-.71c1.76-1.11,3.54-2.22,5.36-3.3a266.39,266.39,0,0,1,49.25-22.8C419.91,105.65,488.59,114,501,149.57Z"/><path class="cls-35" d="M498.38,150.44c3,8.74,2.33,18.32-1.56,28.16a74.21,74.21,0,0,1-8.15,14.88q-2.6,3.74-5.72,7.46c-1.05,1.24-2.13,2.47-3.26,3.7v-3.47h-186V159.34h-2.48l2.56-1.66q2.59-1.65,5.27-3.25A262.89,262.89,0,0,1,347.45,132C418.65,107.23,486.23,115.49,498.38,150.44Z"/><path class="cls-36" d="M495.82,151.32c3,8.59,2.29,18-1.54,27.69a72.5,72.5,0,0,1-8,14.64c-1.7,2.45-3.59,4.9-5.64,7.33q-1.53,1.83-3.2,3.65v-3.46H293.64V161.71h-4.11c3.26-2.2,6.65-4.37,10.17-6.47a258.37,258.37,0,0,1,47.66-22.06C417.39,108.82,483.86,116.94,495.82,151.32Z"/><path class="cls-37" d="M493.26,152.19c2.94,8.45,2.25,17.72-1.52,27.24a71.06,71.06,0,0,1-7.88,14.39q-2.5,3.62-5.54,7.21-1.5,1.8-3.14,3.59v-3.45H293.64V162.42H290.4q4.82-3.25,10-6.37a253.86,253.86,0,0,1,46.86-21.7C416.14,110.4,481.5,118.39,493.26,152.19Z"/><path class="cls-38" d="M490.69,153.07c2.89,8.31,2.22,17.41-1.48,26.77A70.18,70.18,0,0,1,481.46,194q-2.47,3.56-5.45,7.09-1.49,1.77-3.09,3.52v-3.43H293.64v-38h-2.36q4.73-3.21,9.83-6.26a250.05,250.05,0,0,1,46.07-21.33C414.88,112,479.13,119.84,490.69,153.07Z"/><path class="cls-39" d="M488.13,153.94c2.84,8.17,2.17,17.12-1.46,26.32a69.44,69.44,0,0,1-7.61,13.9q-2.43,3.5-5.36,7-1.45,1.74-3,3.46v-3.42h-177V163.82h-1.49q4.65-3.15,9.67-6.15a245.53,245.53,0,0,1,45.27-21C413.62,113.57,476.77,121.28,488.13,153.94Z"/><path class="cls-40" d="M485.57,154.82c2.79,8,2.13,16.82-1.44,25.85a67.79,67.79,0,0,1-7.48,13.66q-2.38,3.43-5.26,6.85H293.64V164.52H293q4.56-3.09,9.49-6A240.77,240.77,0,0,1,347,137.89C412.37,115.15,474.4,122.73,485.57,154.82Z"/><path class="cls-41" d="M483,155.7c2.74,7.87,2.1,16.51-1.41,25.38a66.09,66.09,0,0,1-7.34,13.42c-1.56,2.25-3.29,4.49-5.17,6.72v-.05H293.64V168.29h-4.13c1.43-1,2.9-2,4.39-3.06q4.49-3,9.33-5.94a236.25,236.25,0,0,1,43.68-20.22C411.11,116.74,472,124.18,483,155.7Z"/><path class="cls-42" d="M480.44,156.57c2.69,7.74,2.06,16.22-1.39,24.93a64.91,64.91,0,0,1-7.21,13.17q-2.29,3.32-5.07,6.6v-.1H293.64V168.94h-3.18c1.41-1,2.85-2,4.32-3q4.39-3,9.15-5.83a233.09,233.09,0,0,1,42.89-19.85C409.86,118.32,469.68,125.63,480.44,156.57Z"/><path class="cls-43" d="M477.88,157.45c2.64,7.59,2,15.91-1.36,24.46a63.76,63.76,0,0,1-7.08,12.93q-2.26,3.25-5,6.48v-.15H293.64V169.59h-2.22c1.38-1,2.79-2,4.23-3q4.32-2.92,9-5.72a228.59,228.59,0,0,1,42.09-19.49C408.6,119.91,467.31,127.08,477.88,157.45Z"/><path class="cls-44" d="M475.31,158.32c2.59,7.45,2,15.62-1.33,24A62.59,62.59,0,0,1,467,195q-2.2,3.19-4.88,6.36v-.2H293.64V170.23h-1.27q2-1.46,4.15-2.9,4.25-2.87,8.82-5.61a224.27,224.27,0,0,1,41.31-19.12C407.34,121.49,465,128.53,475.31,158.32Z"/><path class="cls-45" d="M472.75,159.2c2.54,7.3,1.94,15.31-1.31,23.54a62.14,62.14,0,0,1-6.81,12.44q-2.17,3.13-4.79,6.24v-.25H293.64V173.78h-4.21a173.29,173.29,0,0,1,16.62-11.25,219.75,219.75,0,0,1,40.51-18.75C406.09,123.07,462.58,130,472.75,159.2Z"/><path class="cls-46" d="M470.18,160.07c2.5,7.17,1.91,15-1.28,23.08a60.76,60.76,0,0,1-6.67,12.21q-2.13,3.06-4.7,6.1v-.29H293.64v-26.8h-3.18a172.06,172.06,0,0,1,16.29-11A215.29,215.29,0,0,1,346.47,145C404.83,124.66,460.22,131.43,470.18,160.07Z"/><path class="cls-47" d="M467.62,161c2.44,7,1.87,14.71-1.25,22.62a59.88,59.88,0,0,1-6.55,12c-1.39,2-2.93,4-4.6,6v-.34H293.64V175H291.5a165.17,165.17,0,0,1,16-10.81,210.77,210.77,0,0,1,38.92-18C403.57,126.24,457.86,132.87,467.62,161Z"/><path class="cls-48" d="M465.06,161.83c2.39,6.87,1.83,14.41-1.23,22.15a58.43,58.43,0,0,1-6.41,11.72c-1.37,2-2.87,3.91-4.51,5.86v-.39H293.64V175.55h-1.11A162.65,162.65,0,0,1,308.16,165a207.32,207.32,0,0,1,38.13-17.65C402.32,127.83,455.49,134.32,465.06,161.83Z"/><path class="cls-49" d="M462.49,162.7c2.35,6.73,1.8,14.12-1.2,21.7A57,57,0,0,1,455,195.87c-1.33,1.91-2.8,3.83-4.41,5.74v-.44h-157v-25h-.08a159.07,159.07,0,0,1,15.31-10.37,202.15,202.15,0,0,1,37.33-17.28C401.06,129.41,453.13,135.77,462.49,162.7Z"/><path class="cls-50" d="M459.93,163.58c2.29,6.59,1.76,13.81-1.18,21.23A55.55,55.55,0,0,1,452.61,196c-1.31,1.87-2.75,3.75-4.32,5.62v-.49H293.64V179.38h-2.4c1.09-.89,2.2-1.77,3.35-2.65a156,156,0,0,1,15-10.15,198.34,198.34,0,0,1,36.54-16.91C399.8,131,450.76,137.22,459.93,163.58Z"/><path class="cls-51" d="M457.37,164.45c2.24,6.45,1.71,13.52-1.16,20.78a54.11,54.11,0,0,1-6,11c-1.27,1.83-2.68,3.67-4.22,5.49v-.53H293.64V182.55h-4.41q3-2.66,6.39-5.23a153.64,153.64,0,0,1,14.66-9.93A193.82,193.82,0,0,1,346,150.85C398.55,132.58,448.4,138.67,457.37,164.45Z"/><path class="cls-52" d="M454.8,165.33c2.2,6.3,1.68,13.21-1.12,20.31a53.73,53.73,0,0,1-5.88,10.74c-1.25,1.79-2.63,3.59-4.13,5.37v-.58h-150V183h-3.23c2-1.72,4-3.43,6.24-5.11A151.14,151.14,0,0,1,311,168.2,189.05,189.05,0,0,1,345.93,152C397.29,134.16,446,140.12,454.8,165.33Z"/><path class="cls-53" d="M452.24,166.2c2.14,6.16,1.64,12.92-1.1,19.85a51.59,51.59,0,0,1-5.75,10.5q-1.83,2.63-4,5.25v-.63H293.64V183.5h-2.06q2.9-2.53,6.1-5a145.69,145.69,0,0,1,14-9.49,186.47,186.47,0,0,1,34.15-15.81C396,135.75,443.67,141.57,452.24,166.2Z"/><path class="cls-54" d="M449.68,167.08c2.09,6,1.6,12.61-1.08,19.39A51.07,51.07,0,0,1,443,196.72c-1.19,1.71-2.51,3.42-3.94,5.13v-.68H293.64V184h-.89q2.82-2.47,6-4.88a144.46,144.46,0,0,1,13.68-9.27,182.36,182.36,0,0,1,33.36-15.44C394.78,137.33,441.31,143,449.68,167.08Z"/><path class="cls-55" d="M447.11,168c2.05,5.87,1.57,12.31-1.05,18.92a49.62,49.62,0,0,1-5.47,10q-1.75,2.51-3.85,5v-.73H293.64V186.88h-2.4c.87-.82,1.76-1.63,2.68-2.43q2.76-2.43,5.82-4.77a137.14,137.14,0,0,1,13.36-9,176.53,176.53,0,0,1,32.56-15.08C393.52,138.91,438.94,144.46,447.11,168Z"/><path class="cls-56" d="M444.55,168.83c2,5.73,1.53,12-1,18.47a48.45,48.45,0,0,1-5.34,9.76c-1.13,1.63-2.39,3.26-3.75,4.88v-.77H293.64V189.69H290c12.69-12.84,32.21-24.83,55.56-32.95C392.27,140.5,436.58,145.91,444.55,168.83Z"/><path class="cls-57" d="M442,169.71c1.94,5.58,1.48,11.71-1,18a47.8,47.8,0,0,1-5.21,9.52q-1.66,2.39-3.66,4.76v-.82H293.64V190h-2.32c12.37-12.51,31.41-24.21,54.17-32.12C391,142.08,434.21,147.36,442,169.71Z"/><path class="cls-58" d="M439.42,170.58c1.9,5.45,1.45,11.41-1,17.54a45.66,45.66,0,0,1-5.08,9.28q-1.62,2.32-3.56,4.64v-.87H293.64V190.39h-1c12.06-12.18,30.6-23.58,52.78-31.3C389.75,143.67,431.85,148.81,439.42,170.58Z"/><path class="cls-59" d="M436.86,171.46c1.84,5.3,1.41,11.11-.95,17.08a44.91,44.91,0,0,1-4.94,9q-1.58,2.27-3.47,4.52v-.92H293.64v-5.94h-3.82c1.27-1.5,2.64-3,4.1-4.48,11.74-11.87,29.79-23,51.39-30.48C388.5,145.25,429.49,150.26,436.86,171.46Z"/><path class="cls-60" d="M434.3,172.34c1.79,5.15,1.37,10.81-.93,16.61a42.79,42.79,0,0,1-4.81,8.79c-1,1.47-2.15,2.93-3.38,4.4v-1H293.64v-5.71h-2.4q1.85-2.19,4-4.36c11.42-11.54,29-22.34,50-29.65C387.24,146.84,427.12,151.71,434.3,172.34Z"/><path class="cls-61" d="M431.73,173.21c1.75,5,1.34,10.51-.89,16.16a42.59,42.59,0,0,1-4.68,8.54q-1.49,2.15-3.29,4.27v-1H293.64V200h-4.28a65.6,65.6,0,0,1,7.16-8.51c11.1-11.23,28.18-21.73,48.61-28.83C386,148.42,424.76,153.16,431.73,173.21Z"/><path class="cls-62" d="M429.17,174.09c1.69,4.87,1.3,10.21-.87,15.69a41.65,41.65,0,0,1-4.54,8.3c-1,1.38-2,2.77-3.2,4.15v-1.06H293.64v-1.09h-2.78a64.18,64.18,0,0,1,7-8.27c10.79-10.9,27.38-21.1,47.22-28C384.73,150,422.39,154.61,429.17,174.09Z"/><path class="cls-63" d="M426.61,175c1.64,4.73,1.25,9.91-.85,15.24a39.71,39.71,0,0,1-4.41,8.05c-.93,1.34-2,2.69-3.1,4v-1.11H293.64v-1h-1.27a60.68,60.68,0,0,1,6.75-8C309.59,181.58,325.69,171.68,345,165,383.47,151.59,420,156.05,426.61,175Z"/><path class="cls-64" d="M424,175.84c1.6,4.58,1.22,9.61-.82,14.77a39,39,0,0,1-4.27,7.81c-.91,1.3-1.91,2.61-3,3.91v-1.16H293.64l-2.2,3.05a41.61,41.61,0,0,1,2.43-3.91,59.91,59.91,0,0,1,6.55-7.79c10.15-10.26,25.77-19.86,44.44-26.36C382.21,153.17,417.66,157.5,424,175.84Z"/><path class="cls-65" d="M421.48,176.71c1.54,4.44,1.18,9.31-.8,14.31a37.12,37.12,0,0,1-4.14,7.57c-.88,1.26-1.85,2.53-2.91,3.79v-1.21h-120l-.62,3a41.22,41.22,0,0,1,2.36-3.79,57,57,0,0,1,6.34-7.54c9.83-9.95,25-19.25,43-25.54C381,154.76,415.3,159,421.48,176.71Z"/><path class="cls-65" d="M418.91,177.59c3,8.59-1.4,18.84-10.91,28.47v-4.89H294.6v3a40.71,40.71,0,0,1,2.28-3.67,55.58,55.58,0,0,1,6.14-7.3c9.52-9.62,24.16-18.62,41.66-24.71C379.7,156.34,412.94,160.4,418.91,177.59Z"/><path class="cls-66" d="M416.35,178.47c2.89,8.3-1.35,18.21-10.55,27.51v-4.81H296.18v3a38.16,38.16,0,0,1,2.21-3.55,53.4,53.4,0,0,1,5.93-7.06c9.2-9.3,23.35-18,40.28-23.88C378.45,157.92,410.57,161.85,416.35,178.47Z"/><path class="cls-67" d="M413.79,179.34c2.79,8-1.31,17.59-10.19,26.57v-4.74H297.76v3a37.64,37.64,0,0,1,2.13-3.43,52,52,0,0,1,5.73-6.81c8.88-9,22.54-17.38,38.89-23.06C377.19,159.51,408.21,163.3,413.79,179.34Z"/><path class="cls-68" d="M411.22,180.22c2.69,7.73-1.26,17-9.82,25.62v-4.67H299.34v3a37.16,37.16,0,0,1,2.05-3.31,51.43,51.43,0,0,1,5.53-6.57c8.56-8.66,21.74-16.76,37.5-22.24C375.93,161.09,405.84,164.75,411.22,180.22Z"/><path class="cls-69" d="M408.66,181.09c2.59,7.45-1.21,16.33-9.46,24.67v-4.59H300.92v3a34.58,34.58,0,0,1,2-3.19,47.72,47.72,0,0,1,5.32-6.32c8.25-8.34,20.93-16.14,36.11-21.42C374.68,162.68,403.48,166.2,408.66,181.09Z"/><path class="cls-70" d="M406.1,182c2.49,7.16-1.17,15.7-9.1,23.72v-4.52H302.5v3a35.41,35.41,0,0,1,1.9-3.06,47.08,47.08,0,0,1,5.12-6.08c7.93-8,20.13-15.52,34.72-20.59C373.42,164.26,401.12,167.64,406.1,182Z"/><path class="cls-71" d="M403.53,182.84c2.4,6.88-1.12,15.08-8.73,22.78v-4.45H305.91v0a44.23,44.23,0,0,1,4.91-5.84c7.61-7.7,19.32-14.9,33.33-19.77C372.16,165.84,398.75,169.09,403.53,182.84Z"/><path class="cls-72" d="M401,183.72c2.29,6.59-1.07,14.45-8.37,21.83v-4.38H307.41v.14a42.81,42.81,0,0,1,4.71-5.6c7.29-7.38,18.52-14.27,31.94-18.94C370.91,167.43,396.39,170.54,401,183.72Z"/><path class="cls-73" d="M398.41,184.6c2.19,6.3-1,13.81-8,20.87v-4.3H308.92v.25a39.19,39.19,0,0,1,4.5-5.35c7-7.06,17.71-13.66,30.55-18.13C369.65,169,394,172,398.41,184.6Z"/><path class="cls-74" d="M395.84,185.47c2.1,6-1,13.19-7.64,19.93v-4.23H310.42v.36a38.49,38.49,0,0,1,4.3-5.11c6.66-6.74,16.91-13,29.16-17.3C368.39,170.6,391.66,173.44,395.84,185.47Z"/><path class="cls-75" d="M393.28,186.35c2,5.73-.93,12.56-7.28,19v-4.16H311.92v.47a37.85,37.85,0,0,1,4.1-4.87c6.34-6.41,16.1-12.41,27.77-16.47C367.14,172.18,389.29,174.89,393.28,186.35Z"/><path class="cls-76" d="M390.72,187.22c1.89,5.45-.89,11.94-6.92,18v-4.08H313.43v.58a34.94,34.94,0,0,1,3.89-4.62c6-6.1,15.3-11.79,26.38-15.65C365.88,173.76,386.93,176.34,390.72,187.22Z"/><path class="cls-77" d="M388.15,188.1c1.8,5.16-.84,11.31-6.55,17.08v-4H314.93v.69a33.52,33.52,0,0,1,3.69-4.38c5.71-5.77,14.49-11.17,25-14.82C364.63,175.35,384.57,177.79,388.15,188.1Z"/><path class="cls-78" d="M385.59,189c1.69,4.87-.79,10.68-6.19,16.14v-3.94h-63v.8a31.27,31.27,0,0,1,3.48-4.13c5.39-5.46,13.68-10.55,23.61-14C363.37,176.93,382.2,179.23,385.59,189Z"/><path class="cls-79" d="M383,189.85c1.59,4.58-.75,10.05-5.83,15.18v-3.86H315.8V206a24.11,24.11,0,0,1,5.42-7.8c5.07-5.13,12.88-9.93,22.22-13.18C362.11,178.52,379.84,180.68,383,189.85Z"/><path class="cls-80" d="M380.46,190.73c1.5,4.29-.7,9.42-5.46,14.23v-3.79H317.44v4.69a22.56,22.56,0,0,1,5.08-7.31c4.75-4.82,12.07-9.31,20.83-12.36C360.86,180.1,377.47,182.13,380.46,190.73Z"/><path class="cls-81" d="M377.9,191.6c1.39,4-.65,8.8-5.09,13.29v-3.72H319.08v4.55a21.06,21.06,0,0,1,4.74-6.82c4.44-4.49,11.27-8.69,19.44-11.53C359.6,181.68,375.11,183.58,377.9,191.6Z"/><path class="cls-82" d="M375.34,192.48c1.29,3.72-.61,8.16-4.73,12.33v-3.64H320.72v4.42a19.48,19.48,0,0,1,4.4-6.34c4.12-4.17,10.46-8.06,18.05-10.7C358.34,183.27,372.74,185,375.34,192.48Z"/><path class="cls-83" d="M372.77,193.35c1.2,3.44-.56,7.54-4.36,11.39v-3.57H322.36v4.29a17.89,17.89,0,0,1,4.05-5.85c3.81-3.85,9.67-7.45,16.67-9.88C357.09,184.85,370.38,186.48,372.77,193.35Z"/><path class="cls-84" d="M370.21,194.23c1.09,3.15-.51,6.91-4,10.44v-3.5H324v4.15a16.85,16.85,0,0,1,3.72-5.36A40.77,40.77,0,0,1,343,190.9C355.83,186.44,368,187.93,370.21,194.23Z"/><path class="cls-85" d="M367.65,195.1c1,2.87-.47,6.29-3.64,9.49v-3.42H325.63v4a15.14,15.14,0,0,1,3.38-4.87,37,37,0,0,1,13.89-8.24C354.57,188,365.65,189.37,367.65,195.1Z"/><path class="cls-86" d="M365.08,196c.9,2.58-.42,5.65-3.27,8.54v-3.35H327.27v3.89a13.67,13.67,0,0,1,3-4.39,33.37,33.37,0,0,1,12.5-7.41C353.32,189.61,363.29,190.82,365.08,196Z"/><path class="cls-87" d="M362.52,196.86c.8,2.29-.38,5-2.91,7.59v-3.28h-30.7v3.76a11.86,11.86,0,0,1,2.7-3.9,29.4,29.4,0,0,1,11.11-6.59C352.06,191.19,360.92,192.27,362.52,196.86Z"/><path class="cls-88" d="M360,197.73c.7,2-.32,4.4-2.54,6.64v-3.2h-24.5v.21a25.89,25.89,0,0,1,9.72-5.76C350.81,192.77,358.56,193.72,360,197.73Z"/><path class="cls-89" d="M357.39,198.61c.6,1.72-.28,3.77-2.18,5.69v-3.13h-21v.57a22.1,22.1,0,0,1,8.34-5C349.55,194.36,356.2,195.17,357.39,198.61Z"/><path class="cls-90" d="M354.83,199.48c.5,1.44-.24,3.14-1.82,4.75v-3.06h-17.5v.92a18.59,18.59,0,0,1,6.95-4.12C348.29,195.94,353.83,196.62,354.83,199.48Z"/><path class="cls-91" d="M352.26,200.36c.4,1.15-.18,2.51-1.45,3.79v-3h-14v1.27a14.74,14.74,0,0,1,5.56-3.29C347,197.53,351.47,198.07,352.26,200.36Z"/><path class="cls-92" d="M349.7,201.17H337v4.48c-.6-1.72,1.76-4.1,5.26-5.32s6.82-.81,7.42.91Z"/><path class="cls-93" d="M347.14,201.17h-4.95v.34c2.33-.82,4.55-.55,4.95.6Z"/><path class="cls-93" d="M344.57,201.17h0Z"/></g><path class="cls-94" d="M295.47,201.6S439,140.23,470.85,123.53c30.42-16,89.88-49.66,82.94-60.08C546,51.77,404.1,34.84,397.43,25.06c-6.18-9,191-23.93,191-23.93S429.21,9.55,382.38,17.27C296,31.52,488.52,58.64,483.68,62.82,453.16,89.19,0,200.67,0,200.67l176.29.93Z"/><g class="cls-95"><path class="cls-96" d="M456.23,143.37a8.65,8.65,0,0,1,3.22,1.55l.31.05s-.81,1-5.39,2.12l.61.14-.46.12,2.57.4a51.67,51.67,0,0,1,8.19.32c.56.09,0,.13-.07.2,3.36.5,4.65,1.17,1.29,2a26.12,26.12,0,0,1-10.72,0c-2-.41-3.18-.86-3.26-1.28l-.08-.13-2.5-.43a6.67,6.67,0,0,1-.69.08l-1.5-.14c-5.64.74-11,.84-11,.84l-.67-.17c-.8-.08-1.9-.25-2.25-.3-.51-.07-12.95-.76-14.57-1.05a23,23,0,0,1-4.9-2.22h.42l0-.21h.58l-.39-.2a10.15,10.15,0,0,1-2.05-.38c-2.11.22-4.19.42-4.93.42a7.88,7.88,0,0,1-2.4-.09l-10.64-2.35c-.81-.17-.83-.48-.05-.67a6.07,6.07,0,0,1,1.15-.15c1.55-.2,4.42-.53,6.67-.67-11.34-2.21-24.85-4.32-24.85-4.32l-1.38-.34a20.4,20.4,0,0,1-3.56-.35c-.31-.16-1.23-1.62-.72-1.79a8.88,8.88,0,0,1,2-.07,31.24,31.24,0,0,1,6.08,1.3l.8-.13s23.35,3.41,35.88,5.3h0l-13.31-3-17.19-3.92.51-.13s-3.65-.49-3.73-.62l-1.63-.89c.22-.5,2.16-.36,2.16-.36l.32-.43s-1.31-.74,3.47,0c.05,0,.85.66.89,1s.5.48,1.09.58l.53-.12,35.44,6.52,1.19-.15,5.29.95c-.1,0-.17-.09-.18-.14s.3-.13.7-.13c.57-.1,3.17-.15,3.17-.15l.1,0a1.33,1.33,0,0,1,.43-.2,1.49,1.49,0,0,1,.46,0,2.23,2.23,0,0,1,.85-.1c2.19,0,14.25,1.63,14.69,1.71S454.39,143,456.23,143.37Zm-38.09,1.29-.16,0a.16.16,0,0,0,0,.06Zm.75.62h.24a14.33,14.33,0,0,0,3.22,1.45c.7.09,4.23.23,6.21.3l-3.4-.88s-3.05-.63-6.29-1.33l-.24,0c.13,0,.17.11-.07.13l-.35,0,.06.14h.39Zm-4.38-.64h0c-.08-.06,0-.11.27-.14a24.84,24.84,0,0,1,2.88.06l-1.46-.32-2.38.26A4.86,4.86,0,0,0,414.51,144.64Zm19.66-4.17c3.29.6,6.8,1.24,8.57,1.58,1.19.24,3.22.6,5.47,1a16.4,16.4,0,0,0-2.16-1.26c-.36-.09-6.57-.92-8.5-1.17l0,0-1.51-.18a1.23,1.23,0,0,1-.2-.12l-.18,0,.07.08c0,.09-.69.11-1,.07a.38.38,0,0,1-.16,0l-.17,0-.13,0Z"/></g><path class="cls-97" d="M389.46,86.93l-1.19.53s.11,2.43.52,2.41,1.63-1.23,1.63-1.23l0-.94S390.05,86.5,389.46,86.93Z"/><path class="cls-98" d="M387.84,87.68s.81-.27,1,.07a8.16,8.16,0,0,1,.47,1.35s-.6,1.34-1.08.8S387.84,87.68,387.84,87.68Z"/><path class="cls-98" d="M388.88,86.92s1.05,1.48.42,1.28-1-.77-1-1S388.69,86.71,388.88,86.92Z"/><path class="cls-99" d="M371.07,85.18l.82,1s-1.2,2.11-1.55,1.91-.9-1.83-.9-1.83l.41-.85S370.74,84.53,371.07,85.18Z"/><path class="cls-98" d="M372.17,86.58s-.6-.61-.93-.4a8.46,8.46,0,0,0-1,1s-.07,1.48.6,1.21S372.17,86.58,372.17,86.58Z"/><path class="cls-98" d="M371.6,85.43s-1.62.85-1,.95a1.34,1.34,0,0,0,1.3-.42C372,85.75,371.85,85.33,371.6,85.43Z"/><path class="cls-98" d="M384.94,56.42a10.52,10.52,0,0,1,.27,1.08c.08.38.58,0,.5.53a6.34,6.34,0,0,1-3,4.09c-1.7.91-3,1.08-4.32-1.16C375.37,55.83,381.48,50.12,384.94,56.42Z"/><polygon class="cls-98" points="382.65 64.28 383.01 61.77 378.87 61.59 378.6 64.19 382.65 64.28"/><polygon class="cls-94" points="370.92 84.31 371.31 85.04 369.24 86.85 368.4 85.95 370.92 84.31"/><path class="cls-94" d="M391.41,88.29s-.23.53-.4.49c-1.35-.27-2.05-2-2.05-2l.26-1.1Z"/><path class="cls-100" d="M389.57,66.8s-1,10.1-1.08,13.48-.72,13.85-.72,13.85-10.07,4-15.28-.54c-.65-.56-.36-14-.36-14l-1.08-12a17.22,17.22,0,0,1,9.71-3.15A15.21,15.21,0,0,1,389.57,66.8Z"/><path class="cls-100" d="M378.2,63.7l-.45,1.21,5.44-.18-.05-.76S379.19,63.25,378.2,63.7Z"/><path class="cls-100" d="M372.33,75.26a35.13,35.13,0,0,0-2.82,4.36c-.19.75,1.67,4.84,1.67,4.84l-2.63,2.09s-2.72-6-2.58-7.47,4.64-8.82,4.73-9.19.34-2,.72-2.1S372.33,75.26,372.33,75.26Z"/><path class="cls-100" d="M389.49,66.94s1.75,3,1.81,4.67,2.92,6.21,2.9,6.56-1.59,9.15-2.42,10.24-2.56-2.25-2.56-2.25,1.24-6.35,1.19-6.77-2-4.26-2-4.26S387.11,68.16,389.49,66.94Z"/><path class="cls-100" d="M377.42,57.17c-.08,2.84,1.15,5,3.31,5.23s3.9-1.58,4.48-4.27-.14-4.74-3.31-5.23S377.49,54.53,377.42,57.17Z"/><path class="cls-100" d="M372.42,127.88l-.55-.24s.3-23.72,1.37-34.63a41.16,41.16,0,0,0,10.94.32c.95-.11,1.91-.24,2.86-.38l-1.72,35-.52.06c-.05.57-.17,1,.79,1.9a10.84,10.84,0,0,0,1.9,1.37,2.42,2.42,0,0,1-3.05.49l0,.49a3.71,3.71,0,0,1-2.88-.15c-.3-.16.39-4.1.39-4.1l-.52.05-.74-18.65-.47-13.8c-1.63,10.81-5.19,32.27-5.19,32.27l-.71.23s.94,5.33,0,6.82c-.24.38-.66,1.17-1.17,1.15s-1.43-1-1.65-1.54c-.39-1,0-3.67.17-4.41S372.42,127.88,372.42,127.88Z"/><path class="cls-100" d="M373.61,87.73s-6.54,2.13-7.37,3a1.56,1.56,0,0,0-1,1.46v11.22a1.56,1.56,0,0,0,1.57,1.56,1.63,1.63,0,0,0,.94-.31c1.61-.58,4.85-1.84,5.89-3.09C375,99.89,373.61,87.73,373.61,87.73Z"/><path class="cls-100" d="M370.24,87.75l.13.47a1.53,1.53,0,0,0,.11,1l-.75.2s-.6-2.18.75-3.07h.5A1.78,1.78,0,0,0,370.24,87.75Z"/><path class="cls-100" d="M371.92,85.69s.05.31-.1.42l.07.08-.07.11.11.07s.11-.12.4,0,.16-.68.16-.68S372.07,85.49,371.92,85.69Z"/><path class="cls-101" d="M367.84,90.52s2.44,1.18.36,12.61C368.2,103.13,371,90.9,367.84,90.52Z"/><polygon class="cls-101" points="372.17 89.02 372.34 93.42 373.27 94.17 372.72 99.65 372.88 94.33 371.95 93.62 372.17 89.02"/></g></g></svg>