<svg width="42" height="42" viewBox="0 0 42 42" fill="none" xmlns="http://www.w3.org/2000/svg">
<path d="M39.12 34.48H38.46V12.6C38.46 10.77 36.97 9.28003 35.14 9.28003H33.15V10.61H35.14C36.24 10.61 37.13 11.5 37.13 12.6V34.48H3.98V12.6C3.98 11.5 4.87 10.61 5.97 10.61H7.96V9.28003H5.97C4.14 9.28003 2.65 10.77 2.65 12.6V34.48H1.99C0.89 34.48 0 35.37 0 36.47C0 39.03 2.08 41.11 4.64 41.11H36.47C39.03 41.11 41.11 39.03 41.11 36.47C41.11 35.37 40.22 34.48 39.12 34.48ZM16.57 35.81H24.53V36.47C24.53 36.84 24.23 37.13 23.87 37.13H17.24C16.87 37.13 16.58 36.83 16.58 36.47V35.81H16.57ZM30.5 39.79H29.17V38.46H30.5V39.79V39.79ZM35.81 39.79H34.48V38.46H35.81V39.79ZM37.14 39.72V37.13H33.16V39.78H31.83V37.13H27.85V39.78H4.64C2.81 39.78 1.32 38.29 1.32 36.46C1.32 36.09 1.62 35.8 1.98 35.8H15.25V36.46C15.25 37.56 16.14 38.45 17.24 38.45H23.87C24.97 38.45 25.86 37.56 25.86 36.46V35.8H39.12C39.49 35.8 39.78 36.1 39.78 36.46C39.78 38.06 38.64 39.4 37.13 39.71L37.14 39.72Z" fill="white"/>
<path d="M14.5898 13.2601V11.9301H6.6298C5.8998 11.9301 5.2998 12.5201 5.2998 13.2601V31.8301C5.2998 32.5601 5.8898 33.1601 6.6298 33.1601H34.4798C35.2098 33.1601 35.8098 32.5701 35.8098 31.8301V13.2601C35.8098 12.5301 35.2198 11.9301 34.4798 11.9301H26.5198V13.2601H34.4798V31.8301H31.8298V28.0301L30.0198 27.4501C29.8498 26.9401 29.6498 26.4401 29.4098 25.9701L30.2798 24.2801L26.7798 20.7801L25.0898 21.6501C24.6198 21.4101 24.1198 21.2101 23.6098 21.0401L23.0298 19.2301H18.0798L17.4998 21.0401C16.9898 21.2101 16.4898 21.4101 16.0198 21.6501L14.3298 20.7801L10.8298 24.2801L11.6998 25.9701C11.4598 26.4401 11.2598 26.9401 11.0898 27.4501L9.2798 28.0301V31.8301H6.6298V13.2601H14.5898V13.2601ZM14.5898 30.5001C14.5898 27.2101 17.2698 24.5301 20.5598 24.5301C23.8498 24.5301 26.5298 27.2101 26.5298 30.5001C26.5298 30.9501 26.4598 31.3901 26.3598 31.8301H23.5898C23.7698 31.4201 23.8698 30.9701 23.8698 30.5001C23.8698 28.6701 22.3798 27.1801 20.5498 27.1801C18.7198 27.1801 17.2298 28.6701 17.2298 30.5001C17.2298 30.9601 17.3298 31.4101 17.5098 31.8301H14.7398C14.6398 31.4001 14.5698 30.9501 14.5698 30.5001H14.5898ZM18.5698 30.5001C18.5698 29.4001 19.4598 28.5101 20.5598 28.5101C21.6598 28.5101 22.5498 29.4001 22.5498 30.5001C22.5498 30.9901 22.3598 31.4601 22.0298 31.8301H19.0998C18.7698 31.4701 18.5798 31.0001 18.5798 30.5001H18.5698ZM10.6098 28.9901L12.1698 28.4901L12.2698 28.1501C12.4598 27.4901 12.7098 26.8701 13.0298 26.3001L13.1998 25.9901L12.4498 24.5401L14.5798 22.4101L16.0298 23.1601L16.3398 22.9901C16.9098 22.6701 17.5398 22.4101 18.1898 22.2301L18.5298 22.1301L19.0298 20.5701H22.0398L22.5398 22.1301L22.8798 22.2301C23.5398 22.4201 24.1598 22.6701 24.7298 22.9901L25.0398 23.1601L26.4898 22.4101L28.6198 24.5401L27.8698 25.9901L28.0398 26.3001C28.3598 26.8701 28.6198 27.5001 28.7998 28.1501L28.8998 28.4901L30.4598 28.9901V31.8201H27.6798C27.7598 31.3801 27.8098 30.9401 27.8098 30.4901C27.8098 26.4701 24.5398 23.2001 20.5198 23.2001C16.4998 23.2001 13.2298 26.4701 13.2298 30.4901C13.2298 30.9401 13.2798 31.3801 13.3598 31.8201H10.5798V28.9901H10.6098Z" fill="white"/>
<path d="M8.62012 2.65002H11.2701V3.98002H8.62012V2.65002Z" fill="white"/>
<path d="M19.2305 2.65002H21.8805V3.98002H19.2305V2.65002Z" fill="white"/>
<path d="M29.8398 2.65002H32.4898V3.98002H29.8398V2.65002V2.65002Z" fill="white"/>
<path d="M19.8901 17.9H21.2201V6.63H24.5401V0H16.5801V6.63H19.9001V17.9H19.8901ZM17.9001 1.33H23.2101V5.31H17.9001V1.33Z" fill="white"/>
<path d="M30.5001 9.28H23.8701V17.9H25.2001V10.61H31.8301V6.63H35.1501V0H27.1901V6.63H30.5101V9.28H30.5001ZM28.5101 1.32H33.8201V5.3H28.5101V1.33V1.32Z" fill="white"/>
<path d="M9.27973 10.61H15.9097V17.9H17.2397V9.28H10.6097V6.63H13.9297V0H5.96973V6.63H9.28973V10.61H9.27973ZM7.28973 1.33H12.5997V5.31H7.28973V1.33Z" fill="white"/>
</svg>
