<svg width="233" height="253" viewBox="0 0 233 253" fill="none" xmlns="http://www.w3.org/2000/svg">
<g clip-path="url(#clip0_801_2)">
<path d="M4.97806 124.986C4.9726 146.243 10.1275 166.999 19.9293 185.293L4.04065 247.8L63.4088 231.027C79.8293 240.659 98.2272 245.706 116.923 245.707H116.972C178.691 245.707 228.932 191.594 228.958 125.081C228.97 92.851 217.332 62.544 196.186 39.7426C175.045 16.9432 146.927 4.38043 116.968 4.36572C55.2415 4.36572 5.00445 58.4763 4.97897 124.986" fill="url(#paint0_linear_801_2)"/>
<path d="M0.97992 124.947C0.973549 146.968 6.31316 168.467 16.4645 187.416L0.00610352 252.164L61.503 234.79C78.4474 244.744 97.5251 249.992 116.938 250H116.988C180.921 250 232.967 193.94 232.994 125.047C233.005 91.6586 220.948 60.262 199.047 36.6438C177.143 13.0285 148.02 0.0137287 116.988 0C53.0436 0 1.00631 56.0523 0.98083 124.947H0.97992ZM37.6027 184.153L35.3065 180.225C25.6539 163.688 20.5591 144.578 20.5664 124.955C20.5873 67.6912 63.8393 21.1029 117.024 21.1029C142.78 21.1147 166.986 31.9329 185.191 51.561C203.396 71.1911 213.414 97.2854 213.407 125.039C213.384 182.302 170.131 228.896 116.988 228.896H116.95C99.6457 228.887 82.6749 223.88 67.8747 214.417L64.3526 212.167L27.8591 222.476L37.6027 184.152V184.153Z" fill="url(#paint1_linear_801_2)"/>
<path d="M87.9935 72.7112C85.822 67.511 83.5367 67.406 81.4717 67.3149C79.7807 67.2364 77.8476 67.2423 75.9164 67.2423C73.9833 67.2423 70.8425 68.0258 68.1878 71.1491C65.5302 74.2753 58.0419 81.83 58.0419 97.1953C58.0419 112.562 68.4289 127.411 69.8769 129.497C71.3267 131.579 89.9293 164.12 119.391 176.638C143.877 187.042 148.86 184.973 154.174 184.451C159.489 183.931 171.324 176.898 173.739 169.605C176.155 162.313 176.155 156.063 175.43 154.757C174.706 153.455 172.773 152.674 169.874 151.113C166.975 149.551 152.724 141.995 150.067 140.953C147.41 139.911 145.478 139.391 143.545 142.519C141.612 145.641 136.061 152.674 134.369 154.757C132.679 156.844 130.987 157.104 128.089 155.542C125.189 153.975 115.854 150.681 104.779 140.043C96.1618 131.764 90.3444 121.541 88.6534 118.414C86.9624 115.292 88.4723 113.599 89.9257 112.043C91.2281 110.644 92.8253 108.396 94.276 106.573C95.7213 104.749 96.2036 103.448 97.1702 101.365C98.1376 99.2801 97.6534 97.4562 96.9299 95.8941C96.2036 94.3319 90.571 78.8872 87.9935 72.7122" fill="white"/>
</g>
<defs>
<linearGradient id="paint0_linear_801_2" x1="116.5" y1="247.8" x2="116.5" y2="4.36572" gradientUnits="userSpaceOnUse">
<stop stop-color="#1FAF38"/>
<stop offset="1" stop-color="#60D669"/>
</linearGradient>
<linearGradient id="paint1_linear_801_2" x1="116.5" y1="252.164" x2="116.5" y2="0" gradientUnits="userSpaceOnUse">
<stop stop-color="#F9F9F9"/>
<stop offset="1" stop-color="white"/>
</linearGradient>
<clipPath id="clip0_801_2">
<rect width="233" height="253" fill="white"/>
</clipPath>
</defs>
</svg>
